<?xml version="1.0" encoding="UTF-8" standalone="no"?>
<!-- Created with Inkscape (http://www.inkscape.org/) -->

<svg
   width="8.75in"
   height="11.25in"
   viewBox="0 0 2625 3375"
   version="1.1"
   id="svg906"
   inkscape:version="1.1.2 (0a00cf5339, 2022-02-04)"
   sodipodi:docname="door sign 334 Friday.svg"
   xmlns:inkscape="http://www.inkscape.org/namespaces/inkscape"
   xmlns:sodipodi="http://sodipodi.sourceforge.net/DTD/sodipodi-0.dtd"
   xmlns="http://www.w3.org/2000/svg"
   xmlns:svg="http://www.w3.org/2000/svg">
  <sodipodi:namedview
     id="namedview908"
     pagecolor="#505050"
     bordercolor="#ffffff"
     borderopacity="1"
     inkscape:pageshadow="0"
     inkscape:pageopacity="0"
     inkscape:pagecheckerboard="1"
     inkscape:document-units="in"
     showgrid="false"
     units="in"
     inkscape:zoom="0.453152"
     inkscape:cx="188.67841"
     inkscape:cy="644.3754"
     inkscape:window-width="1560"
     inkscape:window-height="866"
     inkscape:window-x="40"
     inkscape:window-y="0"
     inkscape:window-maximized="1"
     inkscape:current-layer="layer1">
    <sodipodi:guide
       position="0,3375"
       orientation="0,840"
       id="guide3595" />
    <sodipodi:guide
       position="2625,3375"
       orientation="1080,0"
       id="guide3597" />
    <sodipodi:guide
       position="2625,0"
       orientation="0,-840"
       id="guide3599" />
    <sodipodi:guide
       position="0,0"
       orientation="-1080,0"
       id="guide3601" />
  </sodipodi:namedview>
  <defs
     id="defs903">
    <rect
       x="686.32872"
       y="421.66076"
       width="706.4051"
       height="122.23841"
       id="rect140979" />
    <rect
       x="295.83097"
       y="889.71934"
       width="142.96131"
       height="54.222523"
       id="rect126119" />
    <rect
       x="782.91833"
       y="486.35915"
       width="530.49587"
       height="76.751019"
       id="rect117507" />
    <rect
       x="0"
       y="806.09259"
       width="375.78041"
       height="44.853335"
       id="rect113347" />
    <rect
       x="59.03743"
       y="711.32111"
       width="344.75016"
       height="60.180543"
       id="rect18774" />
    <rect
       x="0"
       y="676.03796"
       width="486.79529"
       height="403.96207"
       id="rect16048" />
    <clipPath
       id="c">
      <circle
         cx="92"
         cy="87.630997"
         r="85.827003"
         id="circle1421" />
    </clipPath>
    <rect
       x="686.32874"
       y="421.66077"
       width="809.63878"
       height="129.1421"
       id="rect140979-3" />
    <rect
       x="686.32874"
       y="421.66077"
       width="603.96969"
       height="121.54916"
       id="rect140979-3-7" />
    <rect
       x="686.32874"
       y="421.66077"
       width="501.22498"
       height="122.22995"
       id="rect140979-3-3" />
    <rect
       x="686.32874"
       y="421.66077"
       width="697.58561"
       height="137.12869"
       id="rect140979-36" />
  </defs>
  <g
     inkscape:label="Layer 1"
     inkscape:groupmode="layer"
     id="layer1">
    <rect
       style="fill:#ffffff;fill-opacity:1;stroke:none;stroke-width:33.8931;stroke-miterlimit:4;stroke-dasharray:none"
       id="rect1222"
       width="2626.5"
       height="2709.8408"
       x="-0.22790694"
       y="666.76196" />
    <g
       id="g1858"
       transform="matrix(3.005221,0,0,3.8638465,-0.23036297,1.9341061)"
       style="display:inline;stroke-width:17.6078">
      <rect
         style="fill:#074558;fill-opacity:1;stroke:none;stroke-width:9.94843;stroke-miterlimit:4;stroke-dasharray:none"
         id="rect846"
         width="874.00049"
         height="159.44682"
         x="0.00072854385"
         y="-0.61225343" />
      <rect
         style="fill:#fcb320;fill-opacity:1;stroke:none;stroke-width:9.94833;stroke-miterlimit:4;stroke-dasharray:none"
         id="rect1146"
         width="874.00049"
         height="13.229167"
         x="0.00072854385"
         y="158.83456" />
    </g>
    <g
       id="g1756"
       transform="matrix(3.8638506,0,0,3.8638506,-298.49692,1.9341086)"
       style="stroke-width:15.5284">
      <circle
         fill="#1d7193"
         cx="416.94077"
         cy="97.05352"
         r="64.527397"
         id="circle1426"
         style="display:inline;stroke-width:4.10859" />
      <circle
         fill="#0c5a73"
         cx="92"
         cy="270.047"
         r="197.545"
         clip-path="url(#c)"
         id="circle1428"
         transform="matrix(0.75183092,0,0,0.75183092,347.77235,31.169803)"
         style="display:inline;stroke-width:5.4648" />
      <path
         fill="#000000"
         d="m 416.94231,31.211903 c -36.34876,0 -65.84311,29.49432 -65.84311,65.84308 0,36.348767 29.49435,65.843117 65.84311,65.843117 36.34877,0 65.84309,-29.49435 65.84309,-65.843117 0,-36.34876 -29.49432,-65.84308 -65.84309,-65.84308 z m 0,2.6314 c 34.92628,0 63.21168,28.28538 63.21168,63.21168 0,34.926307 -28.2854,63.211687 -63.21168,63.211687 -34.92631,0 -63.2117,-28.28538 -63.2117,-63.211687 0,-34.9263 28.28539,-63.21094 63.2117,-63.21094 z"
         id="path1430"
         style="display:inline;stroke-width:4.10859" />
      <path
         fill="#ffffff"
         d="m 426.61762,59.078513 v 36.24051 h 9.08963 v -36.24128 z"
         id="path1432"
         style="display:inline;stroke-width:4.10859" />
      <path
         fill="#e0e0e0"
         d="m 434.0472,59.830333 v 34.73684 h 3.25317 v -34.73758 z"
         id="path1434"
         style="display:inline;stroke-width:4.10859" />
      <path
         fill="#b1742a"
         d="m 428.88362,136.58099 -3.0216,-25.31414 c 0,0 -0.51501,-1.1909 -2.30059,-1.1909 -1.78561,0 -1.7593,1.1909 -1.7593,1.1909 l 2.51865,28.72971 h 13.7134 l -3.09004,-2.33895 z"
         id="path1436"
         style="display:inline;stroke-width:4.10859" />
      <path
         fill="#ffffff"
         d="m 373.87142,117.45441 11.93381,-0.46914 32.66931,-0.41126 15.40953,-10.04596 6.99804,-9.881307 0.96232,-2.73816 -21.47377,-20.87835 z"
         id="path1438"
         style="display:inline;stroke-width:4.10859" />
      <path
         fill="#e0e0e0"
         d="m 374.20448,117.45441 h 46.05414 c 10.71134,-4.52226 21.99784,-13.72092 21.58581,-23.545827 -5.2147,7.684467 -10.37526,12.905167 -17.60259,16.358317 -15.20428,7.26421 -37.04799,4.88164 -50.03736,7.18751 z"
         id="path1440"
         style="display:inline;stroke-width:4.10859" />
      <path
         fill="#fcb320"
         d="m 416.58291,136.58099 2.01493,-25.31414 c 0,0 -0.51427,-1.1909 -2.30062,-1.1909 -1.78635,0 -1.75776,1.1909 -1.75776,1.1909 l -2.51865,28.72971 h 13.71265 l -3.09003,-2.33895 z"
         id="path1442"
         style="display:inline;stroke-width:4.10859" />
      <path
         fill="#b3b3b3"
         d="m 378.98837,107.37237 29.85446,-26.837367 v 28.902647 l -29.85372,26.8381 z"
         id="path1444"
         style="display:inline;stroke-width:4.10859" />
      <path
         fill="#cccccc"
         d="m 378.98837,107.37237 29.85446,-26.837367 v 9.22949 L 378.98988,116.6026 Z"
         id="path1446"
         style="display:inline;stroke-width:4.10859" />
      <path
         fill="#0d0d0d"
         d="m 366.81172,102.46893 12.04282,10.36774 10.76172,-10.36774 z"
         id="path1448"
         style="display:inline;stroke-width:4.10859" />
      <path
         fill="#565656"
         d="m 366.81172,102.46893 18.18077,4.45385 4.62377,-4.45385 z"
         id="path1450"
         style="display:inline;stroke-width:4.10859" />
      <path
         fill="#0d0d0d"
         d="m 371.31066,112.18183 h 24.91343 l -10.95867,9.58884 h -23.5451 z"
         id="path1452"
         style="display:inline;stroke-width:4.10859" />
      <path
         fill="#e0e0e0"
         d="m 448.04555,57.636503 c 0,4.01928 -8.43328,10.22265 -12.89917,10.22265 l 0.11736,-2.60134 c -3.68398,0.45334 -6.55672,-4.92526 -6.55672,-10.17528 0,-3.17423 3.75314,-7.13941 6.63114,-7.13941 6.02593,0.9007 12.70745,8.43406 12.70745,9.69338 z"
         id="path1454"
         style="display:inline;stroke-width:4.10859" />
      <path
         fill="#ffffff"
         d="m 447.74707,57.559043 c -1.82545,4.34635 -8.15887,8.75208 -13.02923,8.75208 -5.96203,0 -10.064,-2.71563 -10.17076,-8.67462 -0.10911,-6.14247 4.73502,-10.14146 10.79028,-10.14146 6.0635,0 11.13385,6.55222 12.40971,10.06477 z"
         id="path1456"
         style="display:inline;stroke-width:4.10859" />
      <path
         fill="#0d0d0d"
         d="m 439.2777,54.056273 c 0,0.69545 -0.56237,1.25782 -1.25932,1.25782 -0.6932,0 -2.46151,-1.25782 -2.46151,-1.25782 0,0 1.76757,-1.25404 2.46151,-1.25404 a 1.2555576,1.2555576 0 0 1 1.25932,1.25404 z"
         id="path1458"
         style="display:inline;stroke-width:4.10859" />
      <path
         fill="#b1742a"
         d="m 442.33312,58.318393 4.48394,2.39308 10.50007,-0.66009 4.12831,0.88188 1.52995,-1.77129 -17.38984,-1.82696 z"
         id="path1460"
         style="display:inline;stroke-width:4.10859" />
      <path
         fill="#fcb320"
         d="m 446.44942,55.005103 -4.1163,3.31329 21.03626,1.06911 -1.46008,-2.72011 -3.35317,-0.0392 z"
         id="path1462"
         style="display:inline;stroke-width:4.10859" />
      <path
         fill="#96412a"
         d="m 460.81313,59.658933 -2.37427,0.63154 2.81185,0.60144 z"
         id="path1464"
         style="display:inline;stroke-width:4.10859" />
      <path
         fill="#cccccc"
         d="m 350.18422,151.29732 h 26.10583 v 28.92146 h -26.10583 l 9.30391,-14.46147 z m 133.51315,0 h -26.10583 v 28.92146 h 26.10583 l -9.30391,-14.46147 z"
         id="path1466"
         style="display:inline;stroke-width:4.10859" />
      <path
         fill="#000000"
         d="m 347.77235,149.98312 10.14971,15.77342 -10.14971,15.77944 h 29.8319 v -31.55286 z m 4.8245,2.63141 h 22.37525 v 26.29002 h -22.37448 l 8.45581,-13.14801 z m 133.51238,-2.63141 -10.1497,15.77342 10.1497,15.77944 h -29.83189 v -31.55286 z m -4.82449,2.63141 h -22.37523 v 26.29002 H 481.284 l -8.45585,-13.14801 z"
         id="path1468"
         style="display:inline;stroke-width:4.10859" />
      <path
         fill="#828282"
         d="m 364.13218,174.13871 12.15787,5.36808 V 164.5025 m 93.46009,9.63621 -12.1586,5.36808 V 164.5025"
         id="path1470"
         style="display:inline;stroke-width:4.10859" />
      <path
         fill="#000000"
         d="m 374.9721,164.50173 v 12.98639 l -10.30988,-4.55233 -1.06007,2.40962 14.0021,6.18003 v -17.02371 z m 83.93741,0 v 12.98639 l 10.30986,-4.55233 1.06007,2.40962 -14.0021,6.18003 v -17.02371 z"
         id="path1472"
         style="display:inline;stroke-width:4.10859" />
      <path
         fill="#efefef"
         d="m 364.93288,141.30777 h 104.01583 v 32.7287 H 364.93288 Z"
         id="path1474"
         style="display:inline;stroke-width:4.10859" />
      <path
         fill="#000000"
         d="m 363.61042,139.99883 v 35.34882 h 106.65774 v -35.34882 z m 2.64495,2.62012 h 101.37312 v 30.10858 H 366.25537 Z"
         id="path1476"
         style="display:inline;stroke-width:4.10859" />
      <path
         fill="#0c5a73"
         d="m 388.68323,165.38438 c -3.14266,0 -3.82231,-2.2194 -4.84177,-2.2194 -0.7075,0 -1.30218,0.927 -1.30218,1.60139 0,1.40444 2.5765,3.3156 6.25747,3.3156 3.73737,0 6.45524,-1.96679 6.45524,-5.9846 0,-7.47317 -9.20241,-5.59135 -9.20241,-9.74898 0,-1.77055 1.47358,-2.55699 3.5396,-2.55699 2.40737,0 3.14265,1.06761 3.90803,1.06761 0.84957,0 1.24577,-1.03979 1.24577,-1.60139 0,-1.54502 -3.31332,-2.02243 -5.1538,-2.02243 -3.02988,0 -6.54092,1.23602 -6.54092,5.39363 0,6.74318 9.20241,4.80421 9.20241,9.77757 0,2.02243 -1.52848,2.97799 -3.56744,2.97799 z m 14.46899,-11.01357 c -3.25617,0 -5.88985,2.50061 -5.88985,5.45078 v 2.669 c 0,3.34338 2.71864,5.59138 6.56876,5.59138 2.85995,0 4.70043,-1.29317 4.70043,-2.13521 0,-0.50597 -0.45334,-1.32096 -1.1608,-1.32096 -0.76464,0 -1.44352,1.0676 -3.45469,1.0676 -2.18031,0 -3.6802,-1.18038 -3.6802,-3.06221 v -0.64657 h 5.97405 c 1.27436,0 2.57653,-0.0841 2.57653,-2.41564 0,-3.06296 -2.60512,-5.19817 -5.63423,-5.19817 z m -2.91712,5.78759 v -0.89842 c 0,-1.54578 1.33076,-2.64117 2.88854,-2.64117 1.61418,0 2.85998,1.20817 2.85998,2.69681 0,0.67439 -0.22704,0.84278 -1.04806,0.84278 z m 15.23361,-5.78759 c -1.92545,0 -4.27565,0.78717 -4.27565,1.79837 0,0.67442 0.36838,1.48864 1.07587,1.48864 0.56613,0 1.07585,-0.84204 3.14263,-0.84204 2.06755,0 2.8036,1.6014 2.8036,3.03363 v 0.50597 h -1.24579 c -3.93583,0 -6.62588,0.84281 -6.62588,4.0178 0,2.5284 1.69914,3.70879 3.76593,3.70879 1.92467,0 3.28473,-1.03979 4.27564,-2.19159 v 0.98338 c 0,0.53382 0.59395,0.98341 1.35855,0.98341 0.82176,0 1.44429,-0.44959 1.44429,-0.98341 v -7.05217 c 0,-2.8096 -1.55704,-5.45078 -5.71919,-5.45078 z m 2.74645,8.65359 c 0,1.34878 -1.6142,2.80957 -3.0299,2.80957 -1.04729,0 -1.84048,-0.5616 -1.84048,-1.82618 0,-1.79837 2.01041,-2.02243 4.16215,-2.02243 h 0.70823 z m 15.62904,-10.058 c 0.0287,0.73003 0.70823,0.98338 1.50066,0.98338 0.99091,0 1.50066,-0.28132 1.50066,-1.43297 0,-3.175 -2.66147,-5.19817 -6.45521,-5.19817 -3.45466,0 -6.2575,1.71418 -6.2575,6.26577 v 8.17541 c 0,4.55157 2.74643,6.26574 6.34246,6.26574 3.56742,0 6.37025,-1.71417 6.37025,-6.26574 v -3.68022 c 0,-0.53379 -0.36841,-1.0112 -0.99091,-1.0112 h -4.87036 c -0.62253,0 -0.96235,0.61798 -0.96235,1.18036 0,0.61724 0.33982,1.20743 0.96235,1.20743 h 2.85995 v 2.30363 c 0,2.47276 -1.27435,3.62456 -3.36893,3.62456 -2.12393,0 -3.34114,-1.1518 -3.34114,-3.62382 v -8.17615 c 0,-2.47279 1.21721,-3.62382 3.34114,-3.62382 2.46298,0 3.19904,1.37583 3.36893,3.00581 z m 16.59216,14.89077 c 0.59394,0 0.90598,-0.67439 0.90598,-1.32099 0,-0.67439 -0.31127,-1.32019 -0.90598,-1.32019 h -7.36193 v -16.94178 c 0,-0.67439 -0.73602,-0.95483 -1.50066,-0.95483 -0.73602,0 -1.50063,0.28047 -1.50063,0.95483 v 18.59955 c 0,0.64657 0.67965,0.98341 1.33074,0.98341 z"
         id="path1478"
         style="display:inline;stroke-width:4.10859" />
    </g>
    <g
       inkscape:label="QR Code: www.seagl.org/feedback"
       transform="matrix(4.1557412,0,0,4.1557412,1972.4503,2642.8047)"
       id="g935"
       style="stroke-width:0.216567;stroke-miterlimit:4;stroke-dasharray:none">
      <rect
         x="0"
         y="0"
         width="148"
         height="148"
         style="fill:#ffffff;stroke:none;stroke-width:0.216567;stroke-miterlimit:4;stroke-dasharray:none"
         id="rect929" />
      <g
         style="fill:#000000;stroke:none;stroke-width:0.216567;stroke-miterlimit:4;stroke-dasharray:none"
         id="g933">
        <path
           d="m 123.6,132 h -3.2 c -0.22091,0 -0.4,-0.17909 -0.4,-0.4 V 128 h 4 v 3.6 c 0,0.22091 -0.17909,0.4 -0.4,0.4 z m -12,0 h -3.2 c -0.22091,0 -0.4,-0.17909 -0.4,-0.4 v -3.2 c 0,-0.22091 0.17909,-0.4 0.4,-0.4 h 3.2 c 0.22091,0 0.4,0.17909 0.4,0.4 v 3.2 c 0,0.22091 -0.17909,0.4 -0.4,0.4 z m -16,0 h -7.2 c -0.220914,0 -0.4,-0.17909 -0.4,-0.4 v -3.2 c 0,-0.22091 -0.179086,-0.4 -0.4,-0.4 h -3.2 c -0.220914,0 -0.4,0.17909 -0.4,0.4 v 3.2 c 0,0.22091 -0.179086,0.4 -0.4,0.4 H 72.4 c -0.220914,0 -0.4,-0.17909 -0.4,-0.4 v -3.2 C 72,128.17909 71.820914,128 71.6,128 H 68.4 C 68.179086,128 68,127.82091 68,127.6 V 124 h 15.6 c 0.220914,0 0.4,-0.17909 0.4,-0.4 v -3.2 C 84,120.17909 83.820914,120 83.6,120 H 72.4 c -0.220914,0 -0.4,-0.17909 -0.4,-0.4 v -3.2 c 0,-0.22091 0.179086,-0.4 0.4,-0.4 h 7.2 c 0.220914,0 0.4,-0.17909 0.4,-0.4 V 112 h 4 v 3.6 c 0,0.22091 0.179086,0.4 0.4,0.4 h 3.2 c 0.220914,0 0.4,0.17909 0.4,0.4 v 3.2 c 0,0.22091 0.179086,0.4 0.4,0.4 h 3.2 c 0.220914,0 0.4,-0.17909 0.4,-0.4 v -3.2 c 0,-0.22091 0.179086,-0.4 0.4,-0.4 h 3.2 c 0.220914,0 0.4,-0.17909 0.4,-0.4 v -3.2 C 96,112.17909 95.820914,112 95.6,112 H 84 v -3.6 c 0,-0.22091 0.179086,-0.4 0.4,-0.4 h 7.2 c 0.220914,0 0.4,-0.17909 0.4,-0.4 v -3.2 c 0,-0.22091 0.179086,-0.4 0.4,-0.4 h 3.2 c 0.220914,0 0.4,-0.17909 0.4,-0.4 V 96 h 11.6 c 0.22091,0 0.4,-0.179086 0.4,-0.4 v -7.2 c 0,-0.220914 -0.17909,-0.4 -0.4,-0.4 h -3.2 c -0.22091,0 -0.4,0.179086 -0.4,0.4 v 3.2 c 0,0.220914 -0.17909,0.4 -0.4,0.4 H 96 V 88.4 C 96,88.179086 95.820914,88 95.6,88 H 92 V 84.4 C 92,84.179086 91.820914,84 91.6,84 H 84.4 C 84.179086,84 84,83.820914 84,83.6 V 80 h 12 v 3.6 c 0,0.220914 0.179086,0.4 0.4,0.4 h 19.2 c 0.22091,0 0.4,-0.179086 0.4,-0.4 v -3.2 c 0,-0.220914 -0.17909,-0.4 -0.4,-0.4 h -3.2 C 112.17909,80 112,79.820914 112,79.6 V 76 h 3.6 c 0.22091,0 0.4,-0.179086 0.4,-0.4 v -3.2 c 0,-0.220914 -0.17909,-0.4 -0.4,-0.4 h -3.2 c -0.22091,0 -0.4,0.179086 -0.4,0.4 V 76 h -4 v -3.6 c 0,-0.220914 -0.17909,-0.4 -0.4,-0.4 h -3.2 c -0.22091,0 -0.4,0.179086 -0.4,0.4 v 3.2 c 0,0.220914 0.17909,0.4 0.4,0.4 h 3.6 v 3.6 c 0,0.220914 -0.17909,0.4 -0.4,0.4 H 96 V 76.4 C 96,76.179086 96.179086,76 96.4,76 h 3.2 c 0.220914,0 0.4,-0.179086 0.4,-0.4 v -7.2 c 0,-0.220914 0.17909,-0.4 0.4,-0.4 H 120 v 3.6 c 0,0.220914 0.17909,0.4 0.4,0.4 h 3.2 c 0.22091,0 0.4,-0.179086 0.4,-0.4 V 68 h 7.6 c 0.22091,0 0.4,0.179086 0.4,0.4 v 3.2 c 0,0.220914 -0.17909,0.4 -0.4,0.4 h -3.2 c -0.22091,0 -0.4,0.179086 -0.4,0.4 V 76 h -7.6 c -0.22091,0 -0.4,0.179086 -0.4,0.4 v 3.2 c 0,0.220914 0.17909,0.4 0.4,0.4 h 3.2 c 0.22091,0 0.4,0.179086 0.4,0.4 v 3.2 c 0,0.220914 -0.17909,0.4 -0.4,0.4 h -3.2 c -0.22091,0 -0.4,0.179086 -0.4,0.4 V 88 h -3.6 c -0.22091,0 -0.4,0.179086 -0.4,0.4 v 3.2 c 0,0.220914 0.17909,0.4 0.4,0.4 h 3.6 v 4 h -3.6 c -0.22091,0 -0.4,0.179086 -0.4,0.4 v 3.2 c 0,0.220914 0.17909,0.4 0.4,0.4 h 3.6 v 3.6 c 0,0.22091 0.17909,0.4 0.4,0.4 h 3.6 v 4 h -7.6 c -0.22091,0 -0.4,0.17909 -0.4,0.4 v 7.6 h -3.6 c -0.22091,0 -0.4,0.17909 -0.4,0.4 v 3.2 c 0,0.22091 0.17909,0.4 0.4,0.4 h 3.2 c 0.22091,0 0.4,-0.17909 0.4,-0.4 V 116 h 4 v 12 h -3.6 c -0.22091,0 -0.4,-0.17909 -0.4,-0.4 v -3.2 c 0,-0.22091 -0.17909,-0.4 -0.4,-0.4 h -11.2 c -0.22091,0 -0.4,0.17909 -0.4,0.4 v 3.2 c 0,0.22091 -0.17909,0.4 -0.4,0.4 H 96 v -4 h 3.6 c 0.220914,0 0.4,-0.17909 0.4,-0.4 V 120 h 7.6 c 0.22091,0 0.4,-0.17909 0.4,-0.4 v -3.2 c 0,-0.22091 -0.17909,-0.4 -0.4,-0.4 h -7.2 c -0.22091,0 -0.4,0.17909 -0.4,0.4 v 3.6 h -3.6 c -0.220914,0 -0.4,0.17909 -0.4,0.4 v 3.6 h -3.6 c -0.220914,0 -0.4,0.17909 -0.4,0.4 v 3.2 c 0,0.22091 0.179086,0.4 0.4,0.4 H 96 v 3.6 c 0,0.22091 -0.179086,0.4 -0.4,0.4 z m -32,0 H 52.4 C 52.179086,132 52,131.82091 52,131.6 V 124 h 7.6 c 0.220914,0 0.4,-0.17909 0.4,-0.4 v -3.2 c 0,-0.22091 0.179086,-0.4 0.4,-0.4 h 7.2 c 0.220914,0 0.4,0.17909 0.4,0.4 v 3.6 h -3.6 c -0.220914,0 -0.4,0.17909 -0.4,0.4 v 7.2 c 0,0.22091 -0.179086,0.4 -0.4,0.4 z m -20,0 H 16.4 c -0.220914,0 -0.4,-0.17909 -0.4,-0.4 v -27.2 c 0,-0.22091 0.179086,-0.4 0.4,-0.4 h 27.2 c 0.220914,0 0.4,0.17909 0.4,0.4 v 27.2 c 0,0.22091 -0.179086,0.4 -0.4,0.4 z m 84,-4 H 124 v -7.6 c 0,-0.22091 0.17909,-0.4 0.4,-0.4 h 3.2 c 0.22091,0 0.4,0.17909 0.4,0.4 v 7.2 c 0,0.22091 -0.17909,0.4 -0.4,0.4 z M 40,127.6 V 108.4 C 40,108.17909 39.820914,108 39.6,108 H 20.4 c -0.220914,0 -0.4,0.17909 -0.4,0.4 v 19.2 c 0,0.22091 0.179086,0.4 0.4,0.4 h 19.2 c 0.220914,0 0.4,-0.17909 0.4,-0.4 z M 51.6,124 h -3.2 c -0.220914,0 -0.4,-0.17909 -0.4,-0.4 v -11.2 c 0,-0.22091 0.179086,-0.4 0.4,-0.4 h 3.2 c 0.220914,0 0.4,0.17909 0.4,0.4 V 124 Z m -16,0 H 24.4 c -0.220914,0 -0.4,-0.17909 -0.4,-0.4 v -11.2 c 0,-0.22091 0.179086,-0.4 0.4,-0.4 h 11.2 c 0.220914,0 0.4,0.17909 0.4,0.4 v 11.2 c 0,0.22091 -0.179086,0.4 -0.4,0.4 z m 92,-8 H 120 v -3.6 c 0,-0.22091 0.17909,-0.4 0.4,-0.4 h 3.2 c 0.22091,0 0.4,-0.17909 0.4,-0.4 V 108 h 7.6 c 0.22091,0 0.4,0.17909 0.4,0.4 v 3.2 c 0,0.22091 -0.17909,0.4 -0.4,0.4 h -3.2 c -0.22091,0 -0.4,0.17909 -0.4,0.4 v 3.2 c 0,0.22091 -0.17909,0.4 -0.4,0.4 z m -60,0 H 64.4 C 64.179086,116 64,115.82091 64,115.6 V 112 h 3.6 c 0.220914,0 0.4,0.17909 0.4,0.4 v 3.2 c 0,0.22091 -0.179086,0.4 -0.4,0.4 z m -8,0 h -3.2 c -0.220914,0 -0.4,-0.17909 -0.4,-0.4 v -11.2 c 0,-0.22091 -0.179086,-0.4 -0.4,-0.4 h -7.2 c -0.220914,0 -0.4,-0.17909 -0.4,-0.4 v -3.2 C 48,100.17909 47.820914,100 47.6,100 H 40.4 C 40.179086,100 40,99.820914 40,99.6 V 96.4 C 40,96.179086 40.179086,96 40.4,96 h 7.2 C 47.820914,96 48,95.820914 48,95.6 V 88.4 C 48,88.179086 48.179086,88 48.4,88 h 3.2 c 0.220914,0 0.4,0.179086 0.4,0.4 v 7.2 c 0,0.220914 0.179086,0.4 0.4,0.4 h 3.2 c 0.220914,0 0.4,0.179086 0.4,0.4 v 3.2 c 0,0.220914 0.179086,0.4 0.4,0.4 h 3.2 c 0.220914,0 0.4,-0.179086 0.4,-0.4 V 96.4 C 60,96.179086 60.179086,96 60.4,96 h 3.2 C 63.820914,96 64,95.820914 64,95.6 V 92.4 C 64,92.179086 64.179086,92 64.4,92 h 3.2 c 0.220914,0 0.4,0.179086 0.4,0.4 v 7.6 h -3.6 c -0.220914,0 -0.4,0.17909 -0.4,0.4 v 3.2 c 0,0.22091 -0.179086,0.4 -0.4,0.4 h -3.2 c -0.220914,0 -0.4,0.17909 -0.4,0.4 v 3.2 c 0,0.22091 0.179086,0.4 0.4,0.4 h 3.2 c 0.220914,0 0.4,0.17909 0.4,0.4 v 3.6 h -3.6 c -0.220914,0 -0.4,0.17909 -0.4,0.4 v 3.2 c 0,0.22091 -0.179086,0.4 -0.4,0.4 z m 52.4,-4.4 v -11.2 c 0,-0.22091 -0.17909,-0.4 -0.4,-0.4 h -11.2 c -0.22091,0 -0.4,0.17909 -0.4,0.4 v 11.2 c 0,0.22091 0.17909,0.4 0.4,0.4 h 11.2 c 0.22091,0 0.4,-0.17909 0.4,-0.4 z M 79.6,112 h -7.2 c -0.220914,0 -0.4,-0.17909 -0.4,-0.4 v -3.2 C 72,108.17909 71.820914,108 71.6,108 H 68.4 C 68.179086,108 68,107.82091 68,107.6 V 100 h 4 v 3.6 c 0,0.22091 0.179086,0.4 0.4,0.4 H 76 v 3.6 c 0,0.22091 0.179086,0.4 0.4,0.4 h 3.2 c 0.220914,0 0.4,0.17909 0.4,0.4 v 3.6 z m 28,-4 h -3.2 c -0.22091,0 -0.4,-0.17909 -0.4,-0.4 v -3.2 c 0,-0.22091 0.17909,-0.4 0.4,-0.4 h 3.2 c 0.22091,0 0.4,0.17909 0.4,0.4 v 3.2 c 0,0.22091 -0.17909,0.4 -0.4,0.4 z m 24,-4 H 124 v -4 h 7.6 c 0.22091,0 0.4,0.17909 0.4,0.4 v 3.2 c 0,0.22091 -0.17909,0.4 -0.4,0.4 z m -48,0 H 76 v -4 h 3.6 c 0.220914,0 0.4,-0.179086 0.4,-0.4 V 96.4 C 80,96.179086 80.179086,96 80.4,96 H 84 v 7.6 c 0,0.22091 -0.179086,0.4 -0.4,0.4 z m 40,-4 H 120 v -4 h 4 v 4 z m -32,0 H 88.4 C 88.179086,100 88,99.820914 88,99.6 V 96.4 C 88,96.179086 87.820914,96 87.6,96 H 84 V 92.4 C 84,92.179086 83.820914,92 83.6,92 H 80.4 C 80.179086,92 80,91.820914 80,91.6 V 88 h 12 v 3.6 c 0,0.220914 0.179086,0.4 0.4,0.4 H 96 v 4 H 92.4 C 92.179086,96 92,96.179086 92,96.4 v 3.2 c 0,0.220914 -0.179086,0.4 -0.4,0.4 z m -16,0 H 72 V 88.4 C 72,88.179086 71.820914,88 71.6,88 H 68.4 C 68.179086,88 68,87.820914 68,87.6 V 84.4 C 68,84.179086 67.820914,84 67.6,84 H 64.4 C 64.179086,84 64,84.179086 64,84.4 v 3.2 C 64,87.820914 63.820914,88 63.6,88 H 60.4 C 60.179086,88 60,88.179086 60,88.4 v 3.2 C 60,91.820914 59.820914,92 59.6,92 H 56.4 C 56.179086,92 56,91.820914 56,91.6 V 80.4 C 56,80.179086 55.820914,80 55.6,80 H 52 V 76.4 C 52,76.179086 51.820914,76 51.6,76 H 32 V 68.4 C 32,68.179086 32.179086,68 32.4,68 h 3.2 c 0.220914,0 0.4,0.179086 0.4,0.4 v 3.2 c 0,0.220914 0.179086,0.4 0.4,0.4 h 7.2 C 43.820914,72 44,71.820914 44,71.6 V 68 h 4 v 3.6 c 0,0.220914 0.179086,0.4 0.4,0.4 h 7.2 c 0.220914,0 0.4,0.179086 0.4,0.4 v 3.2 c 0,0.220914 0.179086,0.4 0.4,0.4 h 3.2 C 59.820914,76 60,75.820914 60,75.6 V 72.4 C 60,72.179086 60.179086,72 60.4,72 H 68 v 3.6 C 68,75.820914 67.820914,76 67.6,76 H 64.4 C 64.179086,76 64,76.179086 64,76.4 v 3.2 c 0,0.220914 0.179086,0.4 0.4,0.4 H 80 v 8 H 76.4 C 76.179086,88 76,88.179086 76,88.4 V 100 Z m -48,0 H 24.4 C 24.179086,100 24,99.820914 24,99.6 V 96.4 C 24,96.179086 24.179086,96 24.4,96 H 28 v 3.6 c 0,0.220914 -0.179086,0.4 -0.4,0.4 z m -8,0 H 16.4 C 16.179086,100 16,99.820914 16,99.6 V 84.4 C 16,84.179086 16.179086,84 16.4,84 h 3.2 c 0.220914,0 0.4,0.179086 0.4,0.4 v 15.2 c 0,0.220914 -0.179086,0.4 -0.4,0.4 z m 112,-4 H 124 v -4 h 7.6 c 0.22091,0 0.4,0.179086 0.4,0.4 v 3.2 c 0,0.220914 -0.17909,0.4 -0.4,0.4 z m -100,0 H 28 V 92.4 C 28,92.179086 28.179086,92 28.4,92 h 3.2 c 0.220914,0 0.4,0.179086 0.4,0.4 v 3.2 c 0,0.220914 -0.179086,0.4 -0.4,0.4 z m 92,-4 H 120 v -4 h 3.6 c 0.22091,0 0.4,0.179086 0.4,0.4 V 92 Z m -80,0 H 40.4 C 40.179086,92 40,91.820914 40,91.6 V 88 h 3.6 c 0.220914,0 0.4,0.179086 0.4,0.4 v 3.2 c 0,0.220914 -0.179086,0.4 -0.4,0.4 z m 88,-4 h -3.2 c -0.22091,0 -0.4,-0.179086 -0.4,-0.4 v -3.2 c 0,-0.220914 0.17909,-0.4 0.4,-0.4 h 3.2 c 0.22091,0 0.4,0.179086 0.4,0.4 v 3.2 c 0,0.220914 -0.17909,0.4 -0.4,0.4 z m -92,0 H 28.4 C 28.179086,88 28,87.820914 28,87.6 V 76.4 C 28,76.179086 28.179086,76 28.4,76 H 32 v 3.6 c 0,0.220914 0.179086,0.4 0.4,0.4 H 52 v 3.6 C 52,83.820914 51.820914,84 51.6,84 H 40.4 C 40.179086,84 40,84.179086 40,84.4 V 88 Z m 92,-8 h -3.2 C 128.17909,80 128,79.820914 128,79.6 V 76 h 3.6 c 0.22091,0 0.4,0.179086 0.4,0.4 v 3.2 c 0,0.220914 -0.17909,0.4 -0.4,0.4 z m -48,0 H 80 V 76.4 C 80,76.179086 79.820914,76 79.6,76 H 76.4 C 76.179086,76 76,75.820914 76,75.6 V 72 h 8 v 8 z m -60,-4 H 20.4 C 20.179086,76 20,75.820914 20,75.6 V 72 h 4 v 3.6 c 0,0.220914 -0.179086,0.4 -0.4,0.4 z m 72,-4 H 92.4 C 92.179086,72 92,71.820914 92,71.6 V 60.4 C 92,60.179086 92.179086,60 92.4,60 H 96 v 11.6 c 0,0.220914 -0.179086,0.4 -0.4,0.4 z m -8,0 H 84 v -4 h 3.6 c 0.220914,0 0.4,0.179086 0.4,0.4 v 3.2 c 0,0.220914 -0.179086,0.4 -0.4,0.4 z m -12,0 H 68 v -4 h 8 v 4 z m -48,0 H 24 V 68.4 C 24,68.179086 23.820914,68 23.6,68 H 20 V 64.4 C 20,64.179086 19.820914,64 19.6,64 H 16.4 C 16.179086,64 16,63.820914 16,63.6 V 52.4 C 16,52.179086 16.179086,52 16.4,52 h 3.2 c 0.220914,0 0.4,0.179086 0.4,0.4 v 7.2 c 0,0.220914 0.179086,0.4 0.4,0.4 h 7.2 C 27.820914,60 28,59.820914 28,59.6 V 56 h 3.6 c 0.220914,0 0.4,0.179086 0.4,0.4 v 3.2 c 0,0.220914 0.179086,0.4 0.4,0.4 h 3.2 c 0.220914,0 0.4,0.179086 0.4,0.4 v 3.2 C 36,63.820914 35.820914,64 35.6,64 H 28.4 C 28.179086,64 28,64.179086 28,64.4 v 7.2 c 0,0.220914 -0.179086,0.4 -0.4,0.4 z m -8,0 H 16.4 C 16.179086,72 16,71.820914 16,71.6 V 68.4 C 16,68.179086 16.179086,68 16.4,68 H 20 v 4 z m 104,-4 H 120 v -4 h 3.6 c 0.22091,0 0.4,0.179086 0.4,0.4 V 68 Z m -40,0 H 76 V 64.4 C 76,64.179086 76.179086,64 76.4,64 H 84 v 4 z m -16,0 H 56.4 C 56.179086,68 56,67.820914 56,67.6 V 64 h 11.6 c 0.220914,0 0.4,0.179086 0.4,0.4 V 68 Z m -16,0 H 48 v -4 h 4 v 3.6 c 0,0.220914 -0.179086,0.4 -0.4,0.4 z m -8,0 H 40.4 C 40.179086,68 40,67.820914 40,67.6 V 64.4 C 40,64.179086 40.179086,64 40.4,64 H 44 v 4 z m 88,-4 h -3.2 c -0.22091,0 -0.4,-0.179086 -0.4,-0.4 v -3.2 c 0,-0.220914 0.17909,-0.4 0.4,-0.4 h 3.2 c 0.22091,0 0.4,0.179086 0.4,0.4 v 3.2 c 0,0.220914 -0.17909,0.4 -0.4,0.4 z m -12,0 h -11.2 c -0.22091,0 -0.4,-0.179086 -0.4,-0.4 v -3.2 c 0,-0.220914 0.17909,-0.4 0.4,-0.4 h 3.2 c 0.22091,0 0.4,-0.179086 0.4,-0.4 V 56.4 C 112,56.179086 111.82091,56 111.6,56 H 100 v -8 h 11.6 c 0.22091,0 0.4,0.179086 0.4,0.4 v 3.2 c 0,0.220914 0.17909,0.4 0.4,0.4 h 7.2 c 0.22091,0 0.4,-0.179086 0.4,-0.4 v -3.2 c 0,-0.220914 0.17909,-0.4 0.4,-0.4 h 11.2 c 0.22091,0 0.4,0.179086 0.4,0.4 v 7.2 c 0,0.220914 -0.17909,0.4 -0.4,0.4 h -3.2 c -0.22091,0 -0.4,-0.179086 -0.4,-0.4 v -3.2 c 0,-0.220914 -0.17909,-0.4 -0.4,-0.4 h -3.2 c -0.22091,0 -0.4,0.179086 -0.4,0.4 v 7.2 c 0,0.220914 -0.17909,0.4 -0.4,0.4 h -3.2 c -0.22091,0 -0.4,0.179086 -0.4,0.4 V 64 Z m -32,0 H 84 v -8 h 3.6 c 0.220914,0 0.4,0.179086 0.4,0.4 v 7.2 c 0,0.220914 -0.179086,0.4 -0.4,0.4 z m -32,0 H 52 V 60.4 C 52,60.179086 51.820914,60 51.6,60 H 48.4 C 48.179086,60 48,60.179086 48,60.4 V 64 H 44 V 60.4 C 44,60.179086 43.820914,60 43.6,60 H 40.4 C 40.179086,60 40,59.820914 40,59.6 V 56.4 C 40,56.179086 40.179086,56 40.4,56 h 3.2 C 43.820914,56 44,55.820914 44,55.6 V 52 h 4 v 3.6 c 0,0.220914 0.179086,0.4 0.4,0.4 h 3.2 C 51.820914,56 52,55.820914 52,55.6 V 52.4 C 52,52.179086 51.820914,52 51.6,52 H 48 V 36.4 C 48,36.179086 48.179086,36 48.4,36 h 3.2 C 51.820914,36 52,35.820914 52,35.6 V 28 h 3.6 C 55.820914,28 56,27.820914 56,27.6 V 20.4 C 56,20.179086 56.179086,20 56.4,20 h 3.2 c 0.220914,0 0.4,0.179086 0.4,0.4 v 7.2 c 0,0.220914 0.179086,0.4 0.4,0.4 h 3.2 c 0.220914,0 0.4,0.179086 0.4,0.4 V 32 H 60.4 C 60.179086,32 60,32.179086 60,32.4 V 36 H 56.4 C 56.179086,36 56,36.179086 56,36.4 V 40 H 52.4 C 52.179086,40 52,40.179086 52,40.4 v 7.2 c 0,0.220914 0.179086,0.4 0.4,0.4 H 63.6 C 63.820914,48 64,47.820914 64,47.6 V 40.4 C 64,40.179086 63.820914,40 63.6,40 H 60 v -4 h 3.6 C 63.820914,36 64,35.820914 64,35.6 V 32 H 79.6 C 79.820914,32 80,31.820914 80,31.6 V 28 h 7.6 c 0.220914,0 0.4,0.179086 0.4,0.4 v 3.2 C 88,31.820914 87.820914,32 87.6,32 H 84.4 C 84.179086,32 84,32.179086 84,32.4 v 3.2 C 84,35.820914 83.820914,36 83.6,36 H 80.4 C 80.179086,36 80,36.179086 80,36.4 V 40 H 76 V 36.4 C 76,36.179086 75.820914,36 75.6,36 H 72.4 C 72.179086,36 72,36.179086 72,36.4 V 40 H 68.4 C 68.179086,40 68,40.179086 68,40.4 v 3.2 c 0,0.220914 0.179086,0.4 0.4,0.4 h 3.2 C 71.820914,44 72,43.820914 72,43.6 V 40 h 4 v 3.6 c 0,0.220914 0.179086,0.4 0.4,0.4 H 80 v 3.6 c 0,0.220914 0.179086,0.4 0.4,0.4 h 3.2 c 0.220914,0 0.4,0.179086 0.4,0.4 V 56 H 80 V 52.4 C 80,52.179086 79.820914,52 79.6,52 H 76.4 C 76.179086,52 76,51.820914 76,51.6 V 48.4 C 76,48.179086 75.820914,48 75.6,48 H 68.4 C 68.179086,48 68,48.179086 68,48.4 v 3.2 C 68,51.820914 67.820914,52 67.6,52 H 60.4 C 60.179086,52 60,52.179086 60,52.4 v 3.2 c 0,0.220914 0.179086,0.4 0.4,0.4 h 7.2 c 0.220914,0 0.4,0.179086 0.4,0.4 v 3.2 C 68,59.820914 67.820914,60 67.6,60 H 56.4 C 56.179086,60 56,60.179086 56,60.4 V 64 Z m 44,-4 H 96 V 56.4 C 96,56.179086 96.179086,56 96.4,56 h 3.6 v 3.6 c 0,0.220914 -0.179086,0.4 -0.4,0.4 z m -20,0 H 76.4 C 76.179086,60 76,59.820914 76,59.6 V 56.4 C 76,56.179086 76.179086,56 76.4,56 H 80 v 3.6 c 0,0.220914 -0.179086,0.4 -0.4,0.4 z m -52,-4 H 24.4 C 24.179086,56 24,55.820914 24,55.6 V 48.4 C 24,48.179086 24.179086,48 24.4,48 h 11.2 c 0.220914,0 0.4,0.179086 0.4,0.4 v 3.2 C 36,51.820914 35.820914,52 35.6,52 H 28.4 C 28.179086,52 28,52.179086 28,52.4 V 56 Z m 68,-4 H 88.4 C 88.179086,52 88,51.820914 88,51.6 V 48.4 C 88,48.179086 88.179086,48 88.4,48 h 3.2 C 91.820914,48 92,47.820914 92,47.6 V 44 h 3.6 C 95.820914,44 96,43.820914 96,43.6 V 40.4 C 96,40.179086 96.179086,40 96.4,40 h 3.2 c 0.220914,0 0.4,0.179086 0.4,0.4 V 48 H 96.4 C 96.179086,48 96,48.179086 96,48.4 v 3.2 c 0,0.220914 -0.179086,0.4 -0.4,0.4 z m -52,0 H 40.4 C 40.179086,52 40,51.820914 40,51.6 V 48.4 C 40,48.179086 40.179086,48 40.4,48 h 3.2 c 0.220914,0 0.4,0.179086 0.4,0.4 V 52 Z m 88,-8 H 104.4 C 104.17909,44 104,43.820914 104,43.6 V 16.4 c 0,-0.220914 0.17909,-0.4 0.4,-0.4 h 27.2 c 0.22091,0 0.4,0.179086 0.4,0.4 v 27.2 c 0,0.220914 -0.17909,0.4 -0.4,0.4 z m -40,0 H 88.4 C 88.179086,44 88,43.820914 88,43.6 V 36.4 C 88,36.179086 88.179086,36 88.4,36 H 92 v 8 z m -8,0 H 80 v -4 h 3.6 c 0.220914,0 0.4,0.179086 0.4,0.4 v 3.2 c 0,0.220914 -0.179086,0.4 -0.4,0.4 z m -24,0 H 56.4 C 56.179086,44 56,43.820914 56,43.6 V 40 h 4 v 3.6 c 0,0.220914 -0.179086,0.4 -0.4,0.4 z m -16,0 H 16.4 C 16.179086,44 16,43.820914 16,43.6 V 16.4 C 16,16.179086 16.179086,16 16.4,16 h 27.2 c 0.220914,0 0.4,0.179086 0.4,0.4 V 43.6 C 44,43.820914 43.820914,44 43.6,44 Z M 128,39.6 V 20.4 c 0,-0.220914 -0.17909,-0.4 -0.4,-0.4 h -19.2 c -0.22091,0 -0.4,0.179086 -0.4,0.4 v 19.2 c 0,0.220914 0.17909,0.4 0.4,0.4 h 19.2 c 0.22091,0 0.4,-0.179086 0.4,-0.4 z m -88,0 V 20.4 C 40,20.179086 39.820914,20 39.6,20 H 20.4 C 20.179086,20 20,20.179086 20,20.4 v 19.2 c 0,0.220914 0.179086,0.4 0.4,0.4 H 39.6 C 39.820914,40 40,39.820914 40,39.6 Z M 123.6,36 H 112.4 C 112.17909,36 112,35.820914 112,35.6 V 24.4 c 0,-0.220914 0.17909,-0.4 0.4,-0.4 h 11.2 c 0.22091,0 0.4,0.179086 0.4,0.4 v 11.2 c 0,0.220914 -0.17909,0.4 -0.4,0.4 z m -24,0 H 92 V 20 h 4 v 3.6 c 0,0.220914 0.179086,0.4 0.4,0.4 h 3.2 c 0.220914,0 0.4,0.179086 0.4,0.4 v 3.2 c 0,0.220914 -0.179086,0.4 -0.4,0.4 H 96.4 C 96.179086,28 96,28.179086 96,28.4 v 3.2 c 0,0.220914 0.179086,0.4 0.4,0.4 h 3.2 c 0.220914,0 0.4,0.179086 0.4,0.4 v 3.2 c 0,0.220914 -0.179086,0.4 -0.4,0.4 z m -64,0 H 24.4 C 24.179086,36 24,35.820914 24,35.6 V 24.4 C 24,24.179086 24.179086,24 24.4,24 h 11.2 c 0.220914,0 0.4,0.179086 0.4,0.4 v 11.2 c 0,0.220914 -0.179086,0.4 -0.4,0.4 z m 44,-8 H 76.4 C 76.179086,28 76,27.820914 76,27.6 V 24 h 3.6 c 0.220914,0 0.4,0.179086 0.4,0.4 V 28 Z m -8,0 H 68.4 C 68.179086,28 68,27.820914 68,27.6 V 24 h 4 v 3.6 c 0,0.220914 -0.179086,0.4 -0.4,0.4 z m -20,0 H 48.4 C 48.179086,28 48,27.820914 48,27.6 V 16.4 C 48,16.179086 48.179086,16 48.4,16 h 3.2 c 0.220914,0 0.4,0.179086 0.4,0.4 V 28 Z m 36,-4 H 84.4 C 84.179086,24 84,23.820914 84,23.6 V 20.4 C 84,20.179086 83.820914,20 83.6,20 H 76.4 C 76.179086,20 76,20.179086 76,20.4 V 24 H 72 V 16.4 C 72,16.179086 72.179086,16 72.4,16 h 19.2 c 0.220914,0 0.4,0.179086 0.4,0.4 V 20 H 88.4 C 88.179086,20 88,20.179086 88,20.4 v 3.2 c 0,0.220914 -0.179086,0.4 -0.4,0.4 z m -20,0 H 64.4 C 64.179086,24 64,23.820914 64,23.6 V 20.4 C 64,20.179086 64.179086,20 64.4,20 h 3.2 c 0.220914,0 0.4,0.179086 0.4,0.4 V 24 Z m 32,-4 H 96 V 16.4 C 96,16.179086 96.179086,16 96.4,16 h 3.2 c 0.220914,0 0.4,0.179086 0.4,0.4 v 3.2 c 0,0.220914 -0.179086,0.4 -0.4,0.4 z"
           id="path931"
           style="stroke-width:0.216567;stroke-miterlimit:4;stroke-dasharray:none" />
      </g>
    </g>
    <text
       xml:space="preserve"
       style="font-weight:600;font-size:83.3333px;line-height:1;font-family:Dosis;-inkscape-font-specification:'Dosis Semi-Bold';text-align:center;text-anchor:middle;fill:#074558;fill-opacity:1;stroke-width:6.67322"
       x="2255.7012"
       y="2480.0027"
       id="text1213"><tspan
         sodipodi:role="line"
         id="tspan1211"
         style="font-style:normal;font-variant:normal;font-weight:normal;font-stretch:normal;font-size:83.3333px;font-family:Dosis;-inkscape-font-specification:Dosis;fill:#074558;fill-opacity:1;stroke-width:6.67323"
         x="2255.7012"
         y="2480.0027">Thoughts?</tspan><tspan
         sodipodi:role="line"
         style="font-style:normal;font-variant:normal;font-weight:normal;font-stretch:normal;font-size:83.3333px;font-family:Dosis;-inkscape-font-specification:Dosis;fill:#074558;fill-opacity:1;stroke-width:6.67323"
         x="2255.7012"
         y="2563.3359"
         id="tspan1215">Questions?</tspan><tspan
         sodipodi:role="line"
         style="font-style:normal;font-variant:normal;font-weight:normal;font-stretch:normal;font-size:83.3333px;font-family:Dosis;-inkscape-font-specification:Dosis;fill:#074558;fill-opacity:1;stroke-width:6.67323"
         x="2255.7012"
         y="2646.6692"
         id="tspan1217">Concerns?</tspan></text>
    <text
       xml:space="preserve"
       style="font-weight:600;font-size:83.3333px;line-height:1;font-family:Dosis;-inkscape-font-specification:'Dosis Semi-Bold';text-align:center;text-anchor:middle;fill:#074558;fill-opacity:1;stroke-width:6.67322"
       x="2258.2542"
       y="3311.1877"
       id="text1641"><tspan
         sodipodi:role="line"
         id="tspan1639"
         style="font-style:normal;font-variant:normal;font-weight:normal;font-stretch:normal;font-size:83.3333px;font-family:Dosis;-inkscape-font-specification:Dosis;fill:#074558;fill-opacity:1;stroke-width:6.67323"
         x="2258.2542"
         y="3311.1877">Let us know!</tspan></text>
    <text
       xml:space="preserve"
       style="font-weight:600;font-size:704.43px;line-height:1;font-family:Dosis;-inkscape-font-specification:'Dosis Semi-Bold';text-align:center;text-anchor:middle;fill:#074558;fill-opacity:1;stroke-width:0.900003;stroke-miterlimit:4;stroke-dasharray:none"
       x="643.4762"
       y="1327.3865"
       id="text8519"><tspan
         sodipodi:role="line"
         id="tspan8517"
         style="stroke-width:0.900003"
         x="643.4762"
         y="1327.3865">334</tspan></text>
    <text
       xml:space="preserve"
       style="font-weight:600;font-size:382.932px;line-height:1;font-family:Dosis;-inkscape-font-specification:'Dosis Semi-Bold';text-align:center;text-anchor:middle;fill:#1d7193;fill-opacity:1;stroke-width:0.900001;stroke-miterlimit:4;stroke-dasharray:none"
       x="1944.4078"
       y="1173.6991"
       id="text9585"><tspan
         sodipodi:role="line"
         id="tspan9583"
         style="font-style:normal;font-variant:normal;font-weight:500;font-stretch:normal;font-family:Dosis;-inkscape-font-specification:'Dosis Medium';fill:#1d7193;fill-opacity:1;stroke-width:0.900001"
         x="1944.4078"
         y="1173.6991">Friday</tspan></text>
    <text
       xml:space="preserve"
       transform="scale(3.125)"
       id="text16046"
       style="font-weight:600;font-size:40px;line-height:1;font-family:Dosis;-inkscape-font-specification:'Dosis Semi-Bold';text-align:center;white-space:pre;shape-inside:url(#rect16048);fill:#1d7193;fill-opacity:1;stroke-width:0.288;stroke-miterlimit:4;stroke-dasharray:none" />
    <text
       xml:space="preserve"
       transform="scale(3.125)"
       id="text113345"
       style="fill:#1d7193;-inkscape-font-specification:'Dosis Semi-Bold';font-family:Dosis;font-size:37.33333333px;line-height:0.1;stroke-width:0.288;font-weight:600;text-align:start;fill-opacity:1;stroke-miterlimit:4;stroke-dasharray:none;font-style:normal;font-stretch:normal;font-variant:normal;white-space:pre;shape-inside:url(#rect113347)" />
    <text
       xml:space="preserve"
       transform="matrix(3.125,0,0,3.125,-2350.3418,1236.6635)"
       id="text117505"
       style="font-style:normal;font-variant:normal;font-weight:600;font-stretch:normal;font-size:37.3333px;line-height:1;font-family:Dosis;-inkscape-font-specification:'Dosis Semi-Bold';text-align:start;white-space:pre;shape-inside:url(#rect117507);fill:#1d7193;fill-opacity:1;stroke-width:0.288;stroke-miterlimit:4;stroke-dasharray:none"><tspan
         x="782.91797"
         y="516.69268"
         id="tspan27271">4:30pm<tspan
   style="font-weight:normal;-inkscape-font-specification:Dosis"
   id="tspan27269"> - Who Chooses the </tspan></tspan><tspan
         x="782.91797"
         y="554.026"
         id="tspan27275"><tspan
   style="font-weight:normal;-inkscape-font-specification:Dosis"
   id="tspan27273">Requirements</tspan>
</tspan></text>
    <text
       xml:space="preserve"
       transform="scale(3.125)"
       id="text126117"
       style="fill:#1d7193;-inkscape-font-specification:'Dosis Semi-Bold';font-family:Dosis;font-size:37.33333333px;line-height:0.1;stroke-width:0.288;font-weight:600;text-align:start;fill-opacity:1;stroke-miterlimit:4;stroke-dasharray:none;font-style:normal;font-stretch:normal;font-variant:normal;white-space:pre;shape-inside:url(#rect126119)" />
    <text
       xml:space="preserve"
       transform="matrix(3.125,0,0,3.125,-2048.9652,252.37167)"
       id="text140977"
       style="font-style:normal;font-variant:normal;font-weight:normal;font-stretch:normal;font-size:37.3333px;line-height:1;font-family:Dosis;-inkscape-font-specification:Dosis;text-align:start;white-space:pre;shape-inside:url(#rect140979);fill:#1d7193;fill-opacity:1;stroke-width:0.288;stroke-miterlimit:4;stroke-dasharray:none"><tspan
         x="686.32812"
         y="451.99346"
         id="tspan27277">
</tspan><tspan
         x="686.32812"
         y="489.32678"
         id="tspan27281"><tspan
   style="font-weight:600;-inkscape-font-specification:'Dosis Semi-Bold'"
   id="tspan27279">11:30am</tspan> - Troubleshooting Home Local Area </tspan><tspan
         x="686.32812"
         y="526.66009"
         id="tspan27283">Networks (LANS) Using Linux Network Tools</tspan></text>
    <text
       xml:space="preserve"
       transform="matrix(3.125,0,0,3.125,-2048.9652,44.171901)"
       id="text140977-7"
       style="font-style:normal;font-variant:normal;font-weight:normal;font-stretch:normal;font-size:37.3333px;line-height:1;font-family:Dosis;-inkscape-font-specification:Dosis;text-align:start;white-space:pre;shape-inside:url(#rect140979-36);fill:#1d7193;fill-opacity:1;stroke-width:0.288;stroke-miterlimit:4;stroke-dasharray:none"><tspan
         x="686.32812"
         y="451.99346"
         id="tspan27285">
</tspan><tspan
         x="686.32812"
         y="489.32678"
         id="tspan27289"><tspan
   style="font-weight:600;-inkscape-font-specification:'Dosis Semi-Bold'"
   id="tspan27287">10:30am</tspan> - Open Source Hygiene</tspan></text>
    <text
       xml:space="preserve"
       transform="matrix(3.125,0,0,3.125,-2051.6485,682.12698)"
       id="text140977-6"
       style="font-style:normal;font-variant:normal;font-weight:normal;font-stretch:normal;font-size:37.3333px;line-height:1;font-family:Dosis;-inkscape-font-specification:Dosis;text-align:start;white-space:pre;shape-inside:url(#rect140979-3);fill:#1d7193;fill-opacity:1;stroke-width:0.288;stroke-miterlimit:4;stroke-dasharray:none"><tspan
         x="686.32812"
         y="451.99346"
         id="tspan27293"><tspan
   style="font-weight:600;-inkscape-font-specification:'Dosis Semi-Bold'"
   id="tspan27291">2:00pm</tspan> - The Free Software Movement: Where it Came </tspan><tspan
         x="686.32812"
         y="489.32678"
         id="tspan27295">From, How I Came to it, What it Means to me, and What it </tspan><tspan
         x="686.32812"
         y="526.66009"
         id="tspan27297">Could Mean to You</tspan></text>
    <text
       xml:space="preserve"
       transform="matrix(3.125,0,0,3.125,-2050.7152,1755.6416)"
       id="text140977-6-56"
       style="font-style:normal;font-variant:normal;font-weight:normal;font-stretch:normal;font-size:37.3333px;line-height:1;font-family:Dosis;-inkscape-font-specification:Dosis;text-align:start;white-space:pre;shape-inside:url(#rect140979-3-3);fill:#1d7193;fill-opacity:1;stroke-width:0.288;stroke-miterlimit:4;stroke-dasharray:none"><tspan
         x="686.32812"
         y="451.99346"
         id="tspan27301"><tspan
   style="font-weight:600;-inkscape-font-specification:'Dosis Semi-Bold'"
   id="tspan27299">5:00pm</tspan> - Alpine on LoongArch, the </tspan><tspan
         x="686.32812"
         y="489.32678"
         id="tspan27303">Chinese Sovereign ISA</tspan></text>
    <text
       xml:space="preserve"
       transform="matrix(3.125,0,0,3.125,-2051.6485,1120.2737)"
       id="text140977-6-5"
       style="font-style:normal;font-variant:normal;font-weight:normal;font-stretch:normal;font-size:37.3333px;line-height:1;font-family:Dosis;-inkscape-font-specification:Dosis;text-align:start;white-space:pre;shape-inside:url(#rect140979-3-7);fill:#1d7193;fill-opacity:1;stroke-width:0.288;stroke-miterlimit:4;stroke-dasharray:none"><tspan
         x="686.32812"
         y="451.99346"
         id="tspan27307"><tspan
   style="font-weight:600;-inkscape-font-specification:'Dosis Semi-Bold'"
   id="tspan27305">2:30pm</tspan> - NixOS is Terrible, and Also I Can </tspan><tspan
         x="686.32812"
         y="489.32678"
         id="tspan27309">Never Go Back</tspan></text>
  </g>
</svg>
