<?xml version="1.0" encoding="UTF-8" standalone="no"?>
<!-- Created with Inkscape (http://www.inkscape.org/) -->

<svg
   width="1500"
   height="500"
   viewBox="0 0 396.875 132.29167"
   version="1.1"
   id="svg1"
   inkscape:version="1.4 (86a8ad7, 2024-10-11)"
   sodipodi:docname="seagl_2025_socials_header.svg"
   inkscape:export-filename="seagl_2025_socials_header.png"
   inkscape:export-xdpi="96"
   inkscape:export-ydpi="96"
   xmlns:inkscape="http://www.inkscape.org/namespaces/inkscape"
   xmlns:sodipodi="http://sodipodi.sourceforge.net/DTD/sodipodi-0.dtd"
   xmlns="http://www.w3.org/2000/svg"
   xmlns:svg="http://www.w3.org/2000/svg">
  <sodipodi:namedview
     id="namedview1"
     pagecolor="#505050"
     bordercolor="#ffffff"
     borderopacity="1"
     inkscape:showpageshadow="0"
     inkscape:pageopacity="0"
     inkscape:pagecheckerboard="1"
     inkscape:deskcolor="#505050"
     inkscape:document-units="px"
     showgrid="false"
     showguides="true"
     inkscape:zoom="1.68"
     inkscape:cx="707.44048"
     inkscape:cy="324.70238"
     inkscape:window-width="3840"
     inkscape:window-height="2054"
     inkscape:window-x="-11"
     inkscape:window-y="-11"
     inkscape:window-maximized="1"
     inkscape:current-layer="layer1">
    <inkscape:grid
       id="grid1"
       units="mm"
       originx="0"
       originy="0"
       spacingx="0.99999998"
       spacingy="1"
       empcolor="#0099e5"
       empopacity="0.30196078"
       color="#0099e5"
       opacity="0.14901961"
       empspacing="5"
       enabled="true"
       visible="false" />
    <inkscape:grid
       id="grid2"
       units="mm"
       originx="0"
       originy="0"
       spacingx="0.99999998"
       spacingy="1"
       empcolor="#0099e5"
       empopacity="0.30196078"
       color="#0099e5"
       opacity="0.14901961"
       empspacing="5"
       enabled="true"
       visible="false" />
    <inkscape:grid
       type="modular"
       id="grid3"
       units="mm"
       originx="0"
       originy="0"
       spacingx="39.999999"
       spacingy="40.000001"
       empcolor="#0047cb"
       empopacity="0.30196078"
       color="#0099e5"
       opacity="0.14901961"
       empspacing="0"
       marginx="0"
       marginy="0"
       gapx="9.9999998"
       gapy="10"
       enabled="true"
       visible="false" />
  </sodipodi:namedview>
  <defs
     id="defs1">
    <filter
       style="color-interpolation-filters:sRGB"
       inkscape:label="Drop Shadow"
       id="filter29"
       x="-0.047718618"
       y="-0.035160003"
       width="1.1139486"
       height="1.0839595">
      <feFlood
         result="flood"
         in="SourceGraphic"
         flood-opacity="0.498039"
         flood-color="rgb(0,0,0)"
         id="feFlood27" />
      <feGaussianBlur
         result="blur"
         in="SourceGraphic"
         stdDeviation="1.000000"
         id="feGaussianBlur27" />
      <feOffset
         result="offset"
         in="blur"
         dx="1.000000"
         dy="1.000000"
         id="feOffset27" />
      <feComposite
         result="comp1"
         operator="in"
         in="flood"
         in2="offset"
         id="feComposite28" />
      <feComposite
         result="comp2"
         operator="over"
         in="SourceGraphic"
         in2="comp1"
         id="feComposite29" />
    </filter>
    <clipPath
       clipPathUnits="userSpaceOnUse"
       id="clipPath993-8-9-6">
      <path
         style="fill:#ff00ff;stroke-width:0.264583"
         d="m 84.202663,254.47587 2.722047,-4.30491 -7.54971,1.84987 z"
         id="path995-2-0-49"
         inkscape:connector-curvature="0" />
    </clipPath>
    <clipPath
       clipPathUnits="userSpaceOnUse"
       id="clipPath993-8-9-6-7">
      <path
         style="fill:#ff00ff;stroke-width:0.264583"
         d="m 84.202663,254.47587 2.722047,-4.30491 -7.54971,1.84987 z"
         id="path995-2-0-49-5"
         inkscape:connector-curvature="0" />
    </clipPath>
    <filter
       inkscape:label="Blur"
       inkscape:menu="Image Effects"
       inkscape:menu-tooltip="Adds a small scale graininess"
       style="color-interpolation-filters:sRGB;"
       id="filter8"
       x="-0.011028895"
       y="-0.0095988001"
       width="1.0220578"
       height="1.0191976">
      <feTurbulence
         type="fractalNoise"
         numOctaves="3"
         baseFrequency="1"
         seed="0"
         result="result0"
         id="feTurbulence7" />
      <feColorMatrix
         result="result4"
         values="0"
         type="saturate"
         id="feColorMatrix7" />
      <feComposite
         in="SourceGraphic"
         in2="result4"
         operator="arithmetic"
         k1="1.25"
         k2="0.5"
         k3="0.5"
         result="result2"
         id="feComposite7"
         k4="0" />
      <feBlend
         result="result5"
         mode="normal"
         in="result2"
         in2="SourceGraphic"
         id="feBlend7" />
      <feComposite
         in="result5"
         in2="SourceGraphic"
         operator="in"
         result="fbSourceGraphic"
         id="feComposite8" />
      <feColorMatrix
         result="fbSourceGraphicAlpha"
         in="fbSourceGraphic"
         values="0 0 0 -1 0 0 0 0 -1 0 0 0 0 -1 0 0 0 0 1 0"
         id="feColorMatrix13" />
      <feGaussianBlur
         id="feGaussianBlur13"
         stdDeviation="6.9 2"
         result="blur"
         in="fbSourceGraphic" />
    </filter>
  </defs>
  <g
     inkscape:label="Layer 1"
     inkscape:groupmode="layer"
     id="layer1">
    <rect
       style="display:inline;fill:#004455;fill-opacity:1;stroke-width:1.46209;stroke-linejoin:bevel;filter:url(#filter8)"
       id="rect3"
       width="1501.5104"
       height="500.0625"
       x="0.52916664"
       y="0"
       transform="matrix(0.26431715,0,0,0.26455027,-0.13986785,0)" />
    <g
       id="g139"
       inkscape:label="card face"
       transform="matrix(1.0869039,0,0,1.0878625,127.50592,11.786226)">
      <g
         id="g2">
        <rect
           style="font-variation-settings:normal;display:inline;fill:#ffffff;fill-opacity:1;stroke:#000000;stroke-width:0.3556;stroke-linecap:round;stroke-linejoin:round;stroke-miterlimit:4;stroke-dasharray:none;stroke-dashoffset:0;stroke-opacity:1;filter:url(#filter29)"
           id="rect13-1-8"
           width="54.020844"
           height="73.316261"
           x="41.508827"
           y="12.441209"
           transform="rotate(-0.13842343,217.16908,1533.4822)"
           rx="1.7538495"
           ry="1.7538489"
           inkscape:label="backcard" />
      </g>
      <g
         id="g142"
         inkscape:label="card central image">
        <rect
           style="font-variation-settings:normal;display:inline;fill:#ffffff;fill-opacity:1;stroke:#000000;stroke-width:0.646377;stroke-linecap:round;stroke-linejoin:round;stroke-miterlimit:4;stroke-dasharray:none;stroke-dashoffset:0;stroke-opacity:1"
           id="rect13-1-8-2"
           width="29.876009"
           height="40.54726"
           x="50.343426"
           y="28.776217"
           transform="rotate(-0.13842368)"
           rx="0.96995938"
           ry="0.96995908"
           inkscape:label="backcard" />
        <g
           id="g968-1-3-5"
           transform="matrix(0.82711203,0,0,0.82711203,45.152001,31.682922)"
           style="stroke:#000000;stroke-width:0.977802"
           inkscape:label="seagull">
          <g
             transform="matrix(1.0007489,0,0,1.0007489,-0.16442922,-229.39224)"
             id="g1520-5-4-9"
             style="stroke:#000000;stroke-width:0.97707"
             inkscape:label="neck">
            <path
               style="fill:#ffffff;fill-opacity:1;stroke:#000000;stroke-width:0.97707"
               d="m 138.96875,58.125 v 45.125 h 11.31836 V 58.125 Z"
               transform="matrix(0.26458334,0,0,0.26458334,0,229.26665)"
               id="path1143-2-4-6"
               inkscape:connector-curvature="0" />
            <path
               style="fill:#e0e0e0;fill-opacity:1;stroke:#000000;stroke-width:0.97707"
               d="m 148.375,58.125 v 45.125 h 4.22656 V 58.125 Z"
               transform="matrix(0.26458334,0,0,0.26458334,0,229.26665)"
               id="path1145-7-6-3"
               inkscape:connector-curvature="0" />
          </g>
          <g
             id="g942-6-0-4"
             style="stroke:#000000;stroke-width:0.977802"
             inkscape:label="body">
            <path
               style="fill:#b1742a;stroke:#000000;stroke-width:0.25871"
               inkscape:connector-curvature="0"
               d="M 37.346489,41.836231 36.30707,33.129005 c 0,0 -0.177043,-0.409526 -0.791338,-0.409526 -0.614297,0 -0.604941,0.409526 -0.604941,0.409526 l 0.86618,9.882115 h 4.716879 l -1.062973,-0.804522 z"
               id="path1141-1-6-2"
               inkscape:label="leg-back" />
            <g
               style="stroke:#000000;stroke-width:0.968895"
               id="g1360-4-6-8"
               transform="matrix(1.0091933,0,0,1.0091933,-0.57824936,-231.69082)"
               inkscape:label="torso">
              <path
                 id="path1147-2-1-8"
                 d="m 18.82901,264.51643 4.06754,-0.15983 11.13485,-0.14032 5.25212,-3.42399 2.38519,-3.36777 0.32801,-0.93349 -7.31917,-7.11593 z"
                 inkscape:connector-curvature="0"
                 style="fill:#ffffff;fill-opacity:1;stroke:#000000;stroke-width:0.256353"
                 sodipodi:nodetypes="cccccccc" />
              <path
                 id="path1149-3-8-7"
                 d="m 18.826113,264.51643 h 15.696792 c 3.65092,-1.5413 7.4976,-4.67653 7.35728,-8.0254 -1.77734,2.61923 -3.53626,4.39866 -5.99969,5.57567 -5.18203,2.47594 -12.62718,1.6638 -17.054382,2.44973 z"
                 inkscape:connector-curvature="0"
                 style="fill:#e0e0e0;fill-opacity:1;stroke:#000000;stroke-width:0.256353"
                 sodipodi:nodetypes="cccac" />
            </g>
            <path
               style="display:inline;fill:#fcb320;stroke:#000000;stroke-width:0.25871"
               inkscape:connector-curvature="0"
               d="m 33.115365,41.836231 0.692943,-8.707226 c 0,0 -0.1767,-0.409526 -0.791349,-0.409526 -0.614296,0 -0.604588,0.409526 -0.604588,0.409526 L 31.54618,43.01112 h 4.716547 l -1.062984,-0.804522 z"
               id="path1151-2-4-5"
               inkscape:label="leg-front" />
            <g
               style="display:inline;stroke:#000000;stroke-width:0.968895"
               id="g1369-2-9-8"
               transform="matrix(1.0091933,0,0,1.0091933,-0.44585861,-232.09022)"
               inkscape:label="wings">
              <g
                 id="g1163-1-6-1"
                 transform="matrix(0.73955871,-0.66486141,0,1.4098297,-53.997234,-73.284165)"
                 style="stroke:#000000;stroke-width:0.94887">
                <path
                   inkscape:connector-curvature="0"
                   id="path1159-6-3-2"
                   d="m 100.65371,284.91444 h 13.75833 v 6.98739 h -13.75833 z"
                   style="fill:#b3b3b3;fill-opacity:1;stroke:#000000;stroke-width:0.251055" />
                <path
                   style="fill:#cccccc;fill-opacity:1;stroke:#000000;stroke-width:0.251055"
                   d="m 100.65371,284.91444 h 13.75833 v 2.23125 h -13.75833 z"
                   id="path1161-8-7-5"
                   inkscape:connector-curvature="0" />
              </g>
              <g
                 style="stroke:#000000;stroke-width:0.968895"
                 id="g1169-5-8-7"
                 inkscape:transform-center-x="-5.1396318"
                 inkscape:transform-center-y="1.2593331"
                 transform="rotate(13.767645,15.59698,-5.3526325)"
                 clip-path="url(#clipPath993-8-9-6)">
                <rect
                   y="246.72916"
                   x="79.375"
                   height="10.583334"
                   width="10.583333"
                   id="rect1165-7-8-4"
                   style="fill:#0d0d0d;fill-opacity:1;stroke:#000000;stroke-width:0.256353" />
              </g>
              <path
                 style="fill:#0d0d0d;fill-opacity:1;stroke:#000000;stroke-width:0.256353"
                 d="m 17.825152,263.11501 h 8.491257 l -3.734945,3.26837 h -8.025032 z"
                 id="path1171-1-2-4"
                 inkscape:connector-curvature="0" />
            </g>
          </g>
          <g
             transform="matrix(1.0348417,0,0,1.0348417,-1.5041705,-238.04168)"
             id="g1308-8-9-4"
             style="stroke:#000000;stroke-width:0.944881"
             inkscape:label="head">
            <path
               sodipodi:nodetypes="cccscc"
               style="fill:#e0e0e0;stroke:#000000;stroke-width:0.25"
               inkscape:connector-curvature="0"
               d="m 43.911747,244.21473 c 0,1.33603 -2.803181,3.39791 -4.287665,3.39791 l 0.03921,-0.86483 c -1.224787,0.15087 -2.179513,-1.63705 -2.179513,-3.38205 0,-1.0551 1.247522,-2.37309 2.20396,-2.37309 2.003086,0.29951 4.224008,2.80355 4.224008,3.22206 z"
               id="path1153-9-1-4" />
            <path
               sodipodi:nodetypes="ccssc"
               style="fill:#ffffff;stroke:#000000;stroke-width:0.25"
               inkscape:connector-curvature="0"
               d="m 43.812616,244.18909 c -0.606756,1.44454 -2.711975,2.90899 -4.330664,2.90899 -1.981664,0 -3.345468,-0.90271 -3.380765,-2.88335 -0.03641,-2.04195 1.573883,-3.37085 3.58658,-3.37089 2.015259,-5e-5 3.700576,2.17783 4.124849,3.34525 z"
               id="path1155-2-3-4" />
            <path
               style="fill:#0d0d0d;fill-opacity:1;stroke:#000000;stroke-width:0.25"
               inkscape:connector-curvature="0"
               d="m 40.997334,243.02474 c 0,0.2311 -0.186948,0.41805 -0.418413,0.41805 -0.230386,0 -0.818301,-0.41805 -0.818301,-0.41805 0,0 0.587552,-0.417 0.818301,-0.417 0.231465,-3.5e-4 0.418413,0.18695 0.418413,0.417 z"
               id="path1157-7-5-2" />
            <path
               style="fill:#b1742a;fill-opacity:1;stroke:#000000;stroke-width:0.25"
               d="m 42.012911,244.44134 1.490605,0.79542 3.489901,-0.2195 1.37229,0.29334 0.508511,-0.58899 -5.780289,-0.60696 z"
               id="path1173-9-9-9"
               inkscape:connector-curvature="0"
               sodipodi:nodetypes="ccccccc" />
            <path
               sodipodi:nodetypes="cccccc"
               inkscape:connector-curvature="0"
               id="path1175-5-8-3"
               d="m 43.381174,243.34004 -1.368263,1.1013 6.992071,0.35537 -0.485077,-0.90422 -1.114429,-0.013 z"
               style="fill:#fcb320;stroke:#000000;stroke-width:0.25" />
            <path
               sodipodi:nodetypes="cccc"
               inkscape:connector-curvature="0"
               id="path1177-4-4-0"
               d="m 48.155597,244.88693 -0.789168,0.21006 0.93456,0.19978 z"
               style="fill:#96412a;fill-opacity:1;stroke:#000000;stroke-width:0.25" />
          </g>
        </g>
        <g
           id="g968-1-3-5-3"
           transform="matrix(-0.82711203,0,0,-0.82711203,86.644688,66.303236)"
           style="stroke:#000000;stroke-width:0.977802"
           inkscape:label="seagull">
          <g
             transform="matrix(1.0007489,0,0,1.0007489,-0.16442922,-229.39224)"
             id="g1520-5-4-9-2"
             style="stroke:#000000;stroke-width:0.97707"
             inkscape:label="neck">
            <path
               style="fill:#ffffff;fill-opacity:1;stroke:#000000;stroke-width:0.97707"
               d="m 138.96875,58.125 v 45.125 h 11.31836 V 58.125 Z"
               transform="matrix(0.26458334,0,0,0.26458334,0,229.26665)"
               id="path1143-2-4-6-4"
               inkscape:connector-curvature="0" />
            <path
               style="fill:#e0e0e0;fill-opacity:1;stroke:#000000;stroke-width:0.97707"
               d="m 148.375,58.125 v 45.125 h 4.22656 V 58.125 Z"
               transform="matrix(0.26458334,0,0,0.26458334,0,229.26665)"
               id="path1145-7-6-3-1"
               inkscape:connector-curvature="0" />
          </g>
          <g
             id="g942-6-0-4-2"
             style="stroke:#000000;stroke-width:0.977802"
             inkscape:label="body">
            <path
               style="fill:#b1742a;stroke:#000000;stroke-width:0.25871"
               inkscape:connector-curvature="0"
               d="M 37.346489,41.836231 36.30707,33.129005 c 0,0 -0.177043,-0.409526 -0.791338,-0.409526 -0.614297,0 -0.604941,0.409526 -0.604941,0.409526 l 0.86618,9.882115 h 4.716879 l -1.062973,-0.804522 z"
               id="path1141-1-6-2-9"
               inkscape:label="leg-back" />
            <g
               style="stroke:#000000;stroke-width:0.968895"
               id="g1360-4-6-8-0"
               transform="matrix(1.0091933,0,0,1.0091933,-0.57824936,-231.69082)"
               inkscape:label="torso">
              <path
                 id="path1147-2-1-8-8"
                 d="m 18.82901,264.51643 4.06754,-0.15983 11.13485,-0.14032 5.25212,-3.42399 2.38519,-3.36777 0.32801,-0.93349 -7.31917,-7.11593 z"
                 inkscape:connector-curvature="0"
                 style="fill:#ffffff;fill-opacity:1;stroke:#000000;stroke-width:0.256353"
                 sodipodi:nodetypes="cccccccc" />
              <path
                 id="path1149-3-8-7-7"
                 d="M 18.942648,264.51643 H 34.63944 c 3.65092,-1.5413 7.4976,-4.67653 7.35728,-8.0254 -1.77734,2.61923 -3.53626,4.39866 -5.99969,5.57567 -5.18203,2.47594 -12.62718,1.6638 -17.054382,2.44973 z"
                 inkscape:connector-curvature="0"
                 style="fill:#e0e0e0;fill-opacity:1;stroke:#000000;stroke-width:0.256353"
                 sodipodi:nodetypes="cccac" />
            </g>
            <path
               style="display:inline;fill:#fcb320;stroke:#000000;stroke-width:0.25871"
               inkscape:connector-curvature="0"
               d="m 33.115365,41.836231 0.692943,-8.707226 c 0,0 -0.1767,-0.409526 -0.791349,-0.409526 -0.614296,0 -0.604588,0.409526 -0.604588,0.409526 L 31.54618,43.01112 h 4.716547 l -1.062984,-0.804522 z"
               id="path1151-2-4-5-4"
               inkscape:label="leg-front" />
            <g
               style="display:inline;stroke:#000000;stroke-width:0.968895"
               id="g1369-2-9-8-5"
               transform="matrix(1.0091933,0,0,1.0091933,-0.44585861,-232.09022)"
               inkscape:label="wings">
              <g
                 id="g1163-1-6-1-6"
                 transform="matrix(0.73955871,-0.66486141,0,1.4098297,-53.997234,-73.284165)"
                 style="stroke:#000000;stroke-width:0.94887">
                <path
                   inkscape:connector-curvature="0"
                   id="path1159-6-3-2-8"
                   d="m 100.65371,284.91444 h 13.75833 v 6.98739 h -13.75833 z"
                   style="fill:#b3b3b3;fill-opacity:1;stroke:#000000;stroke-width:0.251055" />
                <path
                   style="fill:#cccccc;fill-opacity:1;stroke:#000000;stroke-width:0.251055"
                   d="m 100.65371,284.91444 h 13.75833 v 2.23125 h -13.75833 z"
                   id="path1161-8-7-5-0"
                   inkscape:connector-curvature="0" />
              </g>
              <g
                 style="stroke:#000000;stroke-width:0.968895"
                 id="g1169-5-8-7-7"
                 inkscape:transform-center-x="-5.1396318"
                 inkscape:transform-center-y="1.2593331"
                 transform="rotate(13.767645,15.59698,-5.3526325)"
                 clip-path="url(#clipPath993-8-9-6-7)">
                <rect
                   y="246.72916"
                   x="79.375"
                   height="10.583334"
                   width="10.583333"
                   id="rect1165-7-8-4-7"
                   style="fill:#0d0d0d;fill-opacity:1;stroke:#000000;stroke-width:0.256353" />
              </g>
              <path
                 style="fill:#0d0d0d;fill-opacity:1;stroke:#000000;stroke-width:0.256353"
                 d="m 17.825152,263.11501 h 8.491257 l -3.734945,3.26837 h -8.025032 z"
                 id="path1171-1-2-4-4"
                 inkscape:connector-curvature="0" />
            </g>
          </g>
          <g
             transform="matrix(1.0348417,0,0,1.0348417,-1.5041705,-238.04168)"
             id="g1308-8-9-4-3"
             style="stroke:#000000;stroke-width:0.944881"
             inkscape:label="head">
            <path
               sodipodi:nodetypes="cccscc"
               style="fill:#e0e0e0;stroke:#000000;stroke-width:0.25"
               inkscape:connector-curvature="0"
               d="m 43.911747,244.21473 c 0,1.33603 -2.803181,3.39791 -4.287665,3.39791 l 0.03921,-0.86483 c -1.224787,0.15087 -2.179513,-1.63705 -2.179513,-3.38205 0,-1.0551 1.247522,-2.37309 2.20396,-2.37309 2.003086,0.29951 4.224008,2.80355 4.224008,3.22206 z"
               id="path1153-9-1-4-1" />
            <path
               sodipodi:nodetypes="ccssc"
               style="fill:#ffffff;stroke:#000000;stroke-width:0.25"
               inkscape:connector-curvature="0"
               d="m 43.812616,244.18909 c -0.606756,1.44454 -2.711975,2.90899 -4.330664,2.90899 -1.981664,0 -3.345468,-0.90271 -3.380765,-2.88335 -0.03641,-2.04195 1.573883,-3.37085 3.58658,-3.37089 2.015259,-5e-5 3.700576,2.17783 4.124849,3.34525 z"
               id="path1155-2-3-4-3" />
            <path
               style="fill:#0d0d0d;fill-opacity:1;stroke:#000000;stroke-width:0.25"
               inkscape:connector-curvature="0"
               d="m 40.997334,243.02474 c 0,0.2311 -0.186948,0.41805 -0.418413,0.41805 -0.230386,0 -0.818301,-0.41805 -0.818301,-0.41805 0,0 0.587552,-0.417 0.818301,-0.417 0.231465,-3.5e-4 0.418413,0.18695 0.418413,0.417 z"
               id="path1157-7-5-2-6" />
            <path
               style="fill:#b1742a;fill-opacity:1;stroke:#000000;stroke-width:0.25"
               d="m 42.012911,244.44134 1.490605,0.79542 3.489901,-0.2195 1.37229,0.29334 0.508511,-0.58899 -5.780289,-0.60696 z"
               id="path1173-9-9-9-3"
               inkscape:connector-curvature="0"
               sodipodi:nodetypes="ccccccc" />
            <path
               sodipodi:nodetypes="cccccc"
               inkscape:connector-curvature="0"
               id="path1175-5-8-3-0"
               d="m 43.381174,243.34004 -1.368263,1.1013 6.992071,0.35537 -0.485077,-0.90422 -1.114429,-0.013 z"
               style="fill:#fcb320;stroke:#000000;stroke-width:0.25" />
            <path
               sodipodi:nodetypes="cccc"
               inkscape:connector-curvature="0"
               id="path1177-4-4-0-1"
               d="m 48.155597,244.88693 -0.789168,0.21006 0.93456,0.19978 z"
               style="fill:#96412a;fill-opacity:1;stroke:#000000;stroke-width:0.25" />
          </g>
        </g>
        <path
           style="font-weight:600;font-size:11.2889px;line-height:125%;font-family:Dosis;-inkscape-font-specification:'Dosis Semi-Bold';letter-spacing:0px;word-spacing:0px;fill:#0c5a73;stroke-width:0.0834023px"
           d="m 69.142122,42.450132 c 0.281323,-0.236057 0.492284,-0.108172 0.583524,-0.184734 0.06336,-0.05317 0.05387,-0.172566 0.0083,-0.226921 -0.09502,-0.113242 -0.454882,-0.07373 -0.78436,0.202738 -0.334547,0.280718 -0.444824,0.643414 -0.173063,0.967286 0.505513,0.602446 1.201876,-0.24046 1.483138,0.09474 0.11973,0.142685 0.04116,0.316685 -0.143862,0.471931 -0.215433,0.180765 -0.353542,0.149995 -0.421972,0.207414 -0.07603,0.0638 -0.0412,0.177372 -0.0032,0.222668 0.104523,0.124566 0.43336,-0.08575 0.598099,-0.223982 0.271187,-0.227551 0.501836,-0.590909 0.220574,-0.926104 -0.456103,-0.54356 -1.148664,0.303873 -1.48504,-0.097 -0.13683,-0.163068 -0.06458,-0.354912 0.117895,-0.50803 z m -0.550131,1.974532 c 0.291461,-0.244565 0.358026,-0.643913 0.158482,-0.881722 l -0.18054,-0.215158 c -0.22615,-0.269516 -0.621491,-0.246545 -0.966175,0.04268 -0.255979,0.214791 -0.333297,0.457206 -0.276285,0.525151 0.03421,0.04077 0.12987,0.07242 0.193232,0.01926 0.06843,-0.05742 0.05704,-0.194522 0.236986,-0.345514 0.195152,-0.163752 0.409295,-0.181341 0.536623,-0.0296 l 0.04371,0.05209 -0.534767,0.448723 c -0.11405,0.0957 -0.224933,0.20032 -0.0672,0.388301 0.207147,0.246867 0.584747,0.223343 0.855933,-0.0042 z m -0.130437,-0.685602 0.06081,0.07248 c 0.104523,0.124566 0.05951,0.312849 -0.07987,0.429812 -0.144464,0.12122 -0.337696,0.117406 -0.438419,-0.0026 -0.04561,-0.05436 -0.03674,-0.08496 0.03676,-0.146632 z m -0.972044,1.610696 c 0.172342,-0.144612 0.329488,-0.38454 0.261073,-0.466074 -0.04561,-0.05436 -0.133671,-0.09239 -0.197031,-0.03923 -0.05069,0.04253 -0.0393,0.148759 -0.22431,0.304004 -0.185014,0.155245 -0.359234,0.08144 -0.456156,-0.03407 l -0.03421,-0.04077 0.111516,-0.09357 c 0.352287,-0.295605 0.536046,-0.565581 0.321299,-0.821507 -0.171039,-0.203836 -0.402922,-0.17136 -0.587937,-0.01611 -0.172342,0.144612 -0.22368,0.33049 -0.234467,0.497781 l -0.06652,-0.07927 c -0.0361,-0.04303 -0.119737,-0.03461 -0.188167,0.02281 -0.0735,0.06167 -0.09885,0.144694 -0.06274,0.187728 l 0.477005,0.568474 c 0.190043,0.226483 0.508077,0.322412 0.880641,0.0098 z m -0.831172,-0.491285 c -0.09122,-0.108712 -0.04558,-0.347703 0.08114,-0.454035 0.09377,-0.07869 0.202747,-0.09293 0.288266,0.009 0.121627,0.14495 -0.04312,0.31406 -0.235732,0.475685 l -0.06336,0.05317 z m -0.718657,1.98472 c -0.05194,-0.05676 -0.129876,-0.0261 -0.200846,0.03342 -0.0887,0.07443 -0.115319,0.135363 -0.0374,0.228219 0.214748,0.255926 0.589815,0.21909 0.92943,-0.06588 0.309202,-0.259451 0.444186,-0.608144 0.136318,-0.975048 l -0.553024,-0.659067 c -0.307868,-0.366903 -0.669635,-0.298773 -0.991509,-0.02869 -0.319339,0.267959 -0.454323,0.616652 -0.146454,0.983555 l 0.248955,0.296693 c 0.0361,0.04303 0.101364,0.05389 0.15712,0.0071 l 0.435922,-0.365786 c 0.05576,-0.04679 0.04436,-0.122133 0.0064,-0.167429 -0.04181,-0.04983 -0.11213,-0.07187 -0.16789,-0.02508 l -0.255979,0.214792 -0.155834,-0.185717 c -0.167238,-0.199305 -0.131104,-0.387863 0.05644,-0.545235 0.190083,-0.159499 0.376981,-0.158085 0.544218,0.04122 l 0.553028,0.659099 c 0.167238,0.199305 0.136174,0.383609 -0.05391,0.543108 -0.220496,0.185019 -0.379513,0.129334 -0.504944,0.01073 z m -2.492406,0.04585 c -0.05321,0.04466 -0.03549,0.122408 0.0082,0.174499 0.04562,0.05436 0.1172,0.08305 0.170419,0.0384 l 0.658957,-0.552929 1.145955,1.365697 c 0.04561,0.05436 0.130509,0.02171 0.198937,-0.03572 0.0659,-0.05529 0.115319,-0.135364 0.06971,-0.189718 l -1.25808,-1.499321 c -0.04371,-0.05209 -0.127341,-0.02823 -0.185633,0.02069 z"
           id="text3-3-0-7-3-9"
           aria-label="SeaGL"
           inkscape:label="seagl inverted" />
        <path
           style="font-weight:600;font-size:11.2889px;line-height:125%;font-family:Dosis;-inkscape-font-specification:'Dosis Semi-Bold';letter-spacing:0px;word-spacing:0px;fill:#0c5a73;stroke-width:0.0834023px"
           d="m 63.213336,55.171774 c -0.281323,0.236057 -0.492284,0.108172 -0.583524,0.184734 -0.06336,0.05317 -0.05387,0.172566 -0.0083,0.226921 0.09502,0.113242 0.454882,0.07373 0.78436,-0.202738 0.334547,-0.280718 0.444824,-0.643414 0.173063,-0.967286 -0.505513,-0.602446 -1.201876,0.24046 -1.483138,-0.09474 -0.11973,-0.142685 -0.04116,-0.316685 0.143862,-0.471931 0.215433,-0.180765 0.353542,-0.149995 0.421972,-0.207414 0.07603,-0.0638 0.0412,-0.177372 0.0032,-0.222668 -0.104523,-0.124566 -0.43336,0.08575 -0.598099,0.223982 -0.271187,0.227551 -0.501836,0.590909 -0.220574,0.926104 0.456103,0.54356 1.148664,-0.303873 1.48504,0.097 0.13683,0.163068 0.06458,0.354912 -0.117895,0.50803 z m 0.550131,-1.974532 c -0.291461,0.244565 -0.358026,0.643913 -0.158482,0.881722 l 0.18054,0.215158 c 0.22615,0.269516 0.621491,0.246545 0.966175,-0.04268 0.255979,-0.214791 0.333297,-0.457206 0.276285,-0.525151 -0.03421,-0.04077 -0.12987,-0.07242 -0.193232,-0.01926 -0.06843,0.05742 -0.05704,0.194522 -0.236986,0.345514 -0.195152,0.163752 -0.409295,0.181341 -0.536623,0.0296 l -0.04371,-0.05209 0.534767,-0.448723 c 0.11405,-0.0957 0.224933,-0.20032 0.0672,-0.388301 -0.207147,-0.246867 -0.584747,-0.223343 -0.855933,0.0042 z m 0.130437,0.685602 -0.06081,-0.07248 c -0.104523,-0.124566 -0.05951,-0.312849 0.07987,-0.429812 0.144464,-0.12122 0.337696,-0.117406 0.438419,0.0026 0.04561,0.05436 0.03674,0.08496 -0.03676,0.146632 z m 0.972044,-1.610696 c -0.172342,0.144612 -0.329488,0.38454 -0.261073,0.466074 0.04561,0.05436 0.133671,0.09239 0.197031,0.03923 0.05069,-0.04253 0.0393,-0.148759 0.22431,-0.304004 0.185014,-0.155245 0.359234,-0.08144 0.456156,0.03407 l 0.03421,0.04077 -0.111516,0.09357 c -0.352287,0.295605 -0.536046,0.565581 -0.321299,0.821507 0.171039,0.203836 0.402922,0.17136 0.587937,0.01611 0.172342,-0.144612 0.22368,-0.33049 0.234467,-0.497781 l 0.06652,0.07927 c 0.0361,0.04303 0.119737,0.03461 0.188167,-0.02281 0.0735,-0.06167 0.09885,-0.144694 0.06274,-0.187728 l -0.477005,-0.568474 c -0.190043,-0.226483 -0.508077,-0.322412 -0.880641,-0.0098 z m 0.831172,0.491285 c 0.09122,0.108712 0.04558,0.347703 -0.08114,0.454035 -0.09377,0.07869 -0.202747,0.09293 -0.288266,-0.009 -0.121627,-0.14495 0.04312,-0.31406 0.235732,-0.475685 l 0.06336,-0.05317 z m 0.718657,-1.98472 c 0.05194,0.05676 0.129876,0.0261 0.200846,-0.03342 0.0887,-0.07443 0.115319,-0.135363 0.0374,-0.228219 -0.214748,-0.255926 -0.589815,-0.21909 -0.92943,0.06588 -0.309202,0.259451 -0.444186,0.608144 -0.136318,0.975048 l 0.553024,0.659067 c 0.307868,0.366903 0.669635,0.298773 0.991509,0.02869 0.319339,-0.267959 0.454323,-0.616652 0.146454,-0.983555 l -0.248955,-0.296693 c -0.0361,-0.04303 -0.101364,-0.05389 -0.15712,-0.0071 l -0.435922,0.365786 c -0.05576,0.04679 -0.04436,0.122133 -0.0064,0.167429 0.04181,0.04983 0.11213,0.07187 0.16789,0.02508 l 0.255979,-0.214792 0.155834,0.185717 c 0.167238,0.199305 0.131104,0.387863 -0.05644,0.545235 -0.190083,0.159499 -0.376981,0.158085 -0.544218,-0.04122 l -0.553028,-0.659099 c -0.167238,-0.199305 -0.136174,-0.383609 0.05391,-0.543108 0.220496,-0.185019 0.379513,-0.129334 0.504944,-0.01073 z m 2.492406,-0.04585 c 0.05321,-0.04466 0.03549,-0.122408 -0.0082,-0.174499 -0.04562,-0.05436 -0.1172,-0.08305 -0.170419,-0.0384 l -0.658957,0.552929 -1.145955,-1.365697 c -0.04561,-0.05436 -0.130509,-0.02171 -0.198937,0.03572 -0.0659,0.05529 -0.115319,0.135364 -0.06971,0.189718 l 1.25808,1.499321 c 0.04371,0.05209 0.127341,0.02823 0.185633,-0.02069 z"
           id="text3-3-0-7-3-9-7"
           aria-label="SeaGL"
           inkscape:label="seagl" />
      </g>
      <text
         xml:space="preserve"
         style="font-style:normal;font-variant:normal;font-weight:normal;font-stretch:normal;font-size:8.46667px;font-family:Lato;-inkscape-font-specification:Lato;text-align:start;writing-mode:lr-tb;direction:ltr;text-anchor:start;fill:#000000;stroke:#004455;stroke-width:0.3556;stroke-dasharray:none"
         x="40.984283"
         y="22.695877"
         id="text17"
         inkscape:label="number13inverted"><tspan
           sodipodi:role="line"
           style="font-style:normal;font-variant:normal;font-weight:bold;font-stretch:normal;font-size:8.46667px;font-family:Lato;-inkscape-font-specification:'Lato Bold';fill:#1d7193;fill-opacity:1;stroke:#004455;stroke-width:0.3556"
           x="40.984283"
           y="22.695877"
           id="tspan21">13</tspan></text>
      <text
         xml:space="preserve"
         style="font-style:normal;font-variant:normal;font-weight:normal;font-stretch:normal;font-size:4.23333px;font-family:Lato;-inkscape-font-specification:Lato;text-align:start;writing-mode:lr-tb;direction:ltr;text-anchor:start;white-space:pre;inline-size:8.85799;display:inline;fill:#000000;stroke:#004455;stroke-width:0.3556;stroke-dasharray:none"
         x="-2.6373675"
         y="24.88777"
         id="text17-5"
         inkscape:label="number13inverted"
         transform="translate(53.662755,-5.562486)"><tspan
           x="-2.6373675"
           y="24.88777"
           id="tspan6"><tspan
             style="font-weight:bold;-inkscape-font-specification:'Lato Bold';fill:#1d7193"
             id="tspan5">th</tspan></tspan></text>
      <text
         xml:space="preserve"
         style="font-style:normal;font-variant:normal;font-weight:normal;font-stretch:normal;font-size:4.23333px;font-family:Lato;-inkscape-font-specification:Lato;text-align:start;writing-mode:lr-tb;direction:ltr;text-anchor:start;white-space:pre;inline-size:8.85799;display:inline;fill:#000000;stroke:#004455;stroke-width:0.3556;stroke-dasharray:none"
         x="-2.6373675"
         y="24.88777"
         id="text17-5-2"
         inkscape:label="number13inverted"
         transform="rotate(180,38.10918,51.921188)"><tspan
           x="-2.6373675"
           y="24.88777"
           id="tspan8"><tspan
             style="font-weight:bold;-inkscape-font-specification:'Lato Bold';fill:#1d7193"
             id="tspan7">th</tspan></tspan></text>
      <text
         xml:space="preserve"
         style="font-style:normal;font-variant:normal;font-weight:normal;font-stretch:normal;font-size:8.46667px;font-family:Lato;-inkscape-font-specification:Lato;text-align:start;writing-mode:lr-tb;direction:ltr;text-anchor:start;fill:#000000;stroke:#004455;stroke-width:0.3556;stroke-dasharray:none"
         x="-89.120605"
         y="-76.138153"
         id="text17-43"
         inkscape:label="number13"
         transform="scale(-1)"><tspan
           sodipodi:role="line"
           id="tspan17-5"
           style="font-style:normal;font-variant:normal;font-weight:bold;font-stretch:normal;font-size:8.46667px;font-family:Lato;-inkscape-font-specification:'Lato Bold';fill:#1d7193;fill-opacity:1;stroke:#004455;stroke-width:0.3556"
           x="-89.120605"
           y="-76.138153">13</tspan></text>
    </g>
    <text
       xml:space="preserve"
       style="font-style:normal;font-variant:normal;font-weight:normal;font-stretch:normal;font-size:10.2478px;font-family:Lato;-inkscape-font-specification:Lato;text-align:center;text-anchor:middle;display:inline;fill:#ffffff;fill-opacity:1;stroke:none;stroke-width:1.16195;stroke-dasharray:none;stroke-opacity:1"
       x="298.94116"
       y="69.187881"
       id="text971-5"
       inkscape:label="date"
       transform="scale(0.99955931,1.0004409)"><tspan
         sodipodi:role="line"
         style="font-style:normal;font-variant:normal;font-weight:bold;font-stretch:normal;font-size:10.2478px;font-family:Lato;-inkscape-font-specification:'Lato Bold';fill:#ffffff;stroke-width:1.16195"
         x="298.94116"
         y="69.187881"
         id="tspan3-4">November 7ᵗʰ &amp; 8ᵗʰ, 2025</tspan></text>
    <text
       xml:space="preserve"
       style="font-style:normal;font-variant:normal;font-weight:bold;font-stretch:normal;font-size:15.2289px;font-family:Lato;-inkscape-font-specification:'Lato Bold';text-align:start;writing-mode:lr-tb;direction:ltr;text-anchor:start;display:inline;fill:#ffbd00;fill-opacity:1;fill-rule:nonzero;stroke:#000000;stroke-width:0.713855;stroke-linecap:round;stroke-linejoin:bevel;stroke-dasharray:none;stroke-dashoffset:0;stroke-opacity:1"
       x="103.99715"
       y="52.638462"
       id="text118"
       inkscape:label="Everyone is invited"
       transform="scale(0.99955931,1.0004409)"><tspan
         sodipodi:role="line"
         id="tspan118"
         style="font-style:normal;font-variant:normal;font-weight:bold;font-stretch:normal;font-size:15.2289px;font-family:Lato;-inkscape-font-specification:'Lato Bold';text-align:center;text-anchor:middle;fill:#ffbd00;fill-opacity:1;fill-rule:nonzero;stroke:#000000;stroke-width:0.713855;stroke-dasharray:none;stroke-opacity:1"
         x="103.99715"
         y="52.638462">EVERYONE</tspan><tspan
         sodipodi:role="line"
         style="font-style:normal;font-variant:normal;font-weight:bold;font-stretch:normal;font-size:15.2289px;font-family:Lato;-inkscape-font-specification:'Lato Bold';text-align:center;text-anchor:middle;fill:#ffbd00;fill-opacity:1;fill-rule:nonzero;stroke:#000000;stroke-width:0.713855;stroke-dasharray:none;stroke-opacity:1"
         x="103.99715"
         y="71.674599"
         id="tspan119">IS</tspan><tspan
         sodipodi:role="line"
         style="font-style:normal;font-variant:normal;font-weight:bold;font-stretch:normal;font-size:15.2289px;font-family:Lato;-inkscape-font-specification:'Lato Bold';text-align:center;text-anchor:middle;fill:#ffbd00;fill-opacity:1;fill-rule:nonzero;stroke:#000000;stroke-width:0.713855;stroke-dasharray:none;stroke-opacity:1"
         x="103.99715"
         y="90.710747"
         id="tspan120">INVITED</tspan></text>
    <text
       xml:space="preserve"
       style="font-style:normal;font-variant:normal;font-weight:normal;font-stretch:normal;font-size:7.35696px;font-family:Dosis;-inkscape-font-specification:Dosis;text-align:start;writing-mode:lr-tb;direction:ltr;text-anchor:start;display:inline;fill:#93ac9d;fill-opacity:1;fill-rule:nonzero;stroke:#000000;stroke-width:1.03458;stroke-linecap:square;stroke-dasharray:none;stroke-opacity:1"
       x="236.13126"
       y="81.325233"
       id="text53"
       inkscape:label="location"
       transform="scale(0.99955931,1.0004409)"><tspan
         sodipodi:role="line"
         id="tspan53"
         style="fill:#93ac9d;fill-opacity:1;stroke:none;stroke-width:1.03458"
         x="236.13126"
         y="81.325233">Husky Union Building, University of Washington</tspan><tspan
         sodipodi:role="line"
         style="fill:#93ac9d;fill-opacity:1;stroke:none;stroke-width:1.03458"
         x="236.13126"
         y="90.521439"
         id="tspan56" /></text>
    <text
       xml:space="preserve"
       style="font-style:normal;font-variant:normal;font-weight:normal;font-stretch:normal;font-size:6.43738px;font-family:Dosis;-inkscape-font-specification:Dosis;text-align:start;writing-mode:lr-tb;direction:ltr;text-anchor:start;display:inline;fill:#6f917c;fill-opacity:1;fill-rule:nonzero;stroke:#000000;stroke-width:1.03458;stroke-linecap:square;stroke-dasharray:none;stroke-opacity:1"
       x="262.04691"
       y="88.677574"
       id="text53-9"
       inkscape:label="location-online"
       transform="scale(0.99955931,1.0004409)"><tspan
         sodipodi:role="line"
         style="font-size:6.43738px;text-align:start;text-anchor:start;fill:#6f917c;fill-opacity:1;stroke:none;stroke-width:1.03458"
         x="262.04691"
         y="88.677574"
         id="tspan56-4">*Online streaming also available</tspan></text>
  </g>
</svg>
