<?xml version="1.0" encoding="UTF-8" standalone="no"?>
<!-- Created with Inkscape (http://www.inkscape.org/) -->

<svg
   width="28in"
   height="44in"
   viewBox="0 0 711.20001 1117.6"
   version="1.1"
   id="svg1"
   xml:space="preserve"
   inkscape:version="1.4.2 (ebf0e940d0, 2025-05-08)"
   sodipodi:docname="seagl_outside_left.svg"
   xmlns:inkscape="http://www.inkscape.org/namespaces/inkscape"
   xmlns:sodipodi="http://sodipodi.sourceforge.net/DTD/sodipodi-0.dtd"
   xmlns="http://www.w3.org/2000/svg"
   xmlns:svg="http://www.w3.org/2000/svg"><sodipodi:namedview
     id="namedview1"
     pagecolor="#505050"
     bordercolor="#eeeeee"
     borderopacity="1"
     inkscape:showpageshadow="0"
     inkscape:pageopacity="0"
     inkscape:pagecheckerboard="0"
     inkscape:deskcolor="#505050"
     inkscape:document-units="mm"
     inkscape:zoom="0.15170511"
     inkscape:cx="2158.7935"
     inkscape:cy="2030.2547"
     inkscape:window-width="1916"
     inkscape:window-height="1041"
     inkscape:window-x="0"
     inkscape:window-y="18"
     inkscape:window-maximized="1"
     inkscape:current-layer="layer1" /><defs
     id="defs1"><clipPath
       id="c"><circle
         cx="92"
         cy="87.630997"
         r="85.827003"
         id="circle1" /></clipPath></defs><rect
     style="fill:#0c5a73;fill-opacity:1;stroke:#1d7193;stroke-width:1.70932;stroke-opacity:1;paint-order:stroke fill markers"
     id="rect2-1-6"
     width="709.49054"
     height="1115.8906"
     x="0.85466045"
     y="0.85465997" /><rect
     style="fill:#ffffff;stroke:#1d7193;stroke-width:1.17245;stroke-opacity:1;paint-order:stroke fill markers"
     id="rect2-1"
     width="710.0274"
     height="524.60754"
     x="0.58622754"
     y="0.58622754" /><rect
     style="fill:#fcb320;fill-opacity:1;stroke:#1d7193;stroke-width:0.363746;stroke-opacity:1;paint-order:stroke fill markers"
     id="rect2-3"
     width="710.83618"
     height="50.436253"
     x="0.18187299"
     y="519.29456" /><g
     inkscape:label="Layer 1"
     inkscape:groupmode="layer"
     id="layer1"><g
       id="g1"
       transform="matrix(2.7630408,0,0,2.7630408,101.40025,48.352353)"><circle
         fill="#1d7193"
         cx="92"
         cy="87.630997"
         r="85.827003"
         id="circle2" /><circle
         fill="#0c5a73"
         cx="92"
         cy="270.047"
         r="197.545"
         clip-path="url(#c)"
         id="circle3" /><g
         id="g6"
         transform="matrix(-1,0,0,1,184.004,0)"><path
           fill="#000000"
           d="m 92.002,0.056 c -48.347,0 -87.577,39.23 -87.577,87.577 0,48.347 39.23,87.577 87.577,87.577 48.347,0 87.577,-39.23 87.577,-87.577 0,-48.347 -39.23,-87.577 -87.577,-87.577 z m 0,3.5 c 46.455,0 84.077,37.622 84.077,84.077 0,46.455 -37.622,84.077 -84.077,84.077 -46.455,0 -84.077,-37.622 -84.077,-84.077 0,-46.455 37.622,-84.076 84.077,-84.076 z"
           id="path3" /><g
           id="g5"><g
             id="g4"><path
               fill="#ffffff"
               d="m 104.871,37.121 v 48.203 h 12.09 V 37.12 Z"
               id="path4" /><path
               fill="#e0e0e0"
               d="m 114.753,38.121 v 46.203 h 4.327 V 38.12 Z"
               id="path5" /><path
               fill="#b1742a"
               d="m 107.885,140.206 -4.019,-33.67 c 0,0 -0.685,-1.584 -3.06,-1.584 -2.375,0 -2.34,1.584 -2.34,1.584 l 3.35,38.213 h 18.24 l -4.11,-3.111 z"
               id="path6" /><path
               fill="#ffffff"
               d="m 34.714,114.766 15.873,-0.624 43.453,-0.547 20.496,-13.362 9.308,-13.143 1.28,-3.642 -28.562,-27.77 z"
               id="path7" /><path
               fill="#e0e0e0"
               d="m 35.157,114.766 h 61.256 c 14.247,-6.015 29.259,-18.25 28.711,-31.318 -6.936,10.221 -13.8,17.165 -23.413,21.758 -20.223,9.662 -49.277,6.493 -66.554,9.56 z"
               id="path8" /><path
               fill="#fcb320"
               d="m 91.524,140.206 2.68,-33.67 c 0,0 -0.684,-1.584 -3.06,-1.584 -2.376,0 -2.338,1.584 -2.338,1.584 l -3.35,38.213 h 18.239 l -4.11,-3.111 z"
               id="path9" /><path
               fill="#b3b3b3"
               d="M 41.52,101.356 81.229,65.66 v 38.443 L 41.521,139.8 Z"
               id="path10" /><path
               fill="#cccccc"
               d="M 41.52,101.356 81.229,65.66 v 12.276 l -39.707,35.697 z"
               id="path11" /><path
               fill="#0d0d0d"
               d="m 25.324,94.834 16.018,13.79 14.314,-13.79 z"
               id="path12" /><path
               fill="#565656"
               d="m 25.324,94.834 24.182,5.924 6.15,-5.924 z"
               id="path13" /><path
               fill="#0d0d0d"
               d="M 31.308,107.753 H 64.445 L 49.869,120.507 H 18.552 Z"
               id="path14" /><path
               fill="#e0e0e0"
               d="m 133.372,35.203 c 0,5.346 -11.217,13.597 -17.157,13.597 l 0.156,-3.46 c -4.9,0.603 -8.721,-6.551 -8.721,-13.534 0,-4.222 4.992,-9.496 8.82,-9.496 8.015,1.198 16.902,11.218 16.902,12.893 z"
               id="path15" /><path
               fill="#ffffff"
               d="m 132.975,35.1 c -2.428,5.781 -10.852,11.641 -17.33,11.641 -7.93,0 -13.386,-3.612 -13.528,-11.538 -0.145,-8.17 6.298,-13.489 14.352,-13.489 8.065,0 14.809,8.715 16.506,13.387 z"
               id="path16" /><path
               fill="#0d0d0d"
               d="m 121.71,30.441 c 0,0.925 -0.748,1.673 -1.675,1.673 -0.922,0 -3.274,-1.673 -3.274,-1.673 0,0 2.351,-1.668 3.274,-1.668 a 1.67,1.67 0 0 1 1.675,1.668 z"
               id="path17" /><path
               fill="#b1742a"
               d="m 125.774,36.11 5.964,3.183 13.966,-0.878 5.491,1.173 2.035,-2.356 -23.13,-2.43 z"
               id="path18" /><path
               fill="#fcb320"
               d="m 131.249,31.703 -5.475,4.407 27.98,1.422 -1.942,-3.618 -4.46,-0.052 z"
               id="path19" /><path
               fill="#96412a"
               d="m 150.354,37.893 -3.158,0.84 3.74,0.8 z"
               id="path20" /></g></g></g><path
         fill="#cccccc"
         d="m 3.208,159.78 h 34.723 v 38.468 H 3.208 l 12.375,-19.235 z m 177.584,0 h -34.723 v 38.468 h 34.723 l -12.375,-19.235 z"
         id="path21" /><path
         fill="#000000"
         d="M 0,158.032 13.5,179.012 0,200 h 39.679 v -41.968 z m 6.417,3.5 H 36.178 V 196.5 H 6.418 L 17.665,179.012 Z M 184,158.032 170.5,179.012 184,200 h -39.679 v -41.968 z m -6.417,3.5 H 147.822 V 196.5 h 29.76 l -11.247,-17.488 z"
         id="path22" /><path
         fill="#828282"
         d="m 21.76,190.161 16.171,7.14 v -19.957 m 124.31,12.817 -16.172,7.14 v -19.957"
         id="path23" /><path
         fill="#000000"
         d="m 36.178,177.343 v 17.273 l -13.713,-6.055 -1.41,3.205 18.624,8.22 v -22.643 z m 111.644,0 v 17.273 l 13.713,-6.055 1.41,3.205 -18.624,8.22 v -22.643 z"
         id="path24" /><path
         fill="#efefef"
         d="m 22.825,146.493 h 138.35 v 43.532 H 22.825 Z"
         id="path25" /><path
         fill="#000000"
         d="m 21.066,144.752 v 47.017 H 162.93 v -47.017 z m 3.518,3.485 h 134.835 v 40.047 H 24.584 Z"
         id="path26" /><path
         fill="#0c5a73"
         d="m 54.415,178.517 c -4.18,0 -5.084,-2.952 -6.44,-2.952 -0.941,0 -1.732,1.233 -1.732,2.13 0,1.868 3.427,4.41 8.323,4.41 4.971,0 8.586,-2.616 8.586,-7.96 0,-9.94 -12.24,-7.437 -12.24,-12.967 0,-2.355 1.96,-3.401 4.708,-3.401 3.202,0 4.18,1.42 5.198,1.42 1.13,0 1.657,-1.383 1.657,-2.13 0,-2.055 -4.407,-2.69 -6.855,-2.69 -4.03,0 -8.7,1.644 -8.7,7.174 0,8.969 12.24,6.39 12.24,13.005 0,2.69 -2.033,3.961 -4.745,3.961 z M 73.66,163.868 c -4.331,0 -7.834,3.326 -7.834,7.25 v 3.55 c 0,4.447 3.616,7.437 8.737,7.437 3.804,0 6.252,-1.72 6.252,-2.84 0,-0.673 -0.603,-1.757 -1.544,-1.757 -1.017,0 -1.92,1.42 -4.595,1.42 -2.9,0 -4.895,-1.57 -4.895,-4.073 v -0.86 h 7.946 c 1.695,0 3.427,-0.112 3.427,-3.213 0,-4.074 -3.465,-6.914 -7.494,-6.914 z m -3.88,7.698 v -1.195 c 0,-2.056 1.77,-3.513 3.842,-3.513 2.147,0 3.804,1.607 3.804,3.587 0,0.897 -0.302,1.121 -1.394,1.121 z m 20.262,-7.698 c -2.561,0 -5.687,1.047 -5.687,2.392 0,0.897 0.49,1.98 1.431,1.98 0.753,0 1.431,-1.12 4.18,-1.12 2.75,0 3.729,2.13 3.729,4.035 v 0.673 h -1.657 c -5.235,0 -8.813,1.121 -8.813,5.344 0,3.363 2.26,4.933 5.009,4.933 2.56,0 4.369,-1.383 5.687,-2.915 v 1.308 c 0,0.71 0.79,1.308 1.807,1.308 1.093,0 1.921,-0.598 1.921,-1.308 v -9.38 c 0,-3.737 -2.071,-7.25 -7.607,-7.25 z m 3.653,11.51 c 0,1.794 -2.147,3.737 -4.03,3.737 -1.393,0 -2.448,-0.747 -2.448,-2.429 0,-2.392 2.674,-2.69 5.536,-2.69 h 0.942 z M 114.483,162 c 0.038,0.971 0.942,1.308 1.996,1.308 1.318,0 1.996,-0.374 1.996,-1.906 0,-4.223 -3.54,-6.914 -8.586,-6.914 -4.595,0 -8.323,2.28 -8.323,8.334 v 10.874 c 0,6.054 3.653,8.334 8.436,8.334 4.745,0 8.473,-2.28 8.473,-8.334 v -4.895 c 0,-0.71 -0.49,-1.345 -1.318,-1.345 h -6.478 c -0.828,0 -1.28,0.822 -1.28,1.57 0,0.821 0.452,1.606 1.28,1.606 h 3.804 v 3.064 c 0,3.289 -1.695,4.821 -4.481,4.821 -2.825,0 -4.444,-1.532 -4.444,-4.82 v -10.875 c 0,-3.289 1.619,-4.82 4.444,-4.82 3.276,0 4.255,1.83 4.481,3.998 z m 22.069,19.806 c 0.79,0 1.205,-0.897 1.205,-1.757 0,-0.897 -0.414,-1.756 -1.205,-1.756 h -9.792 v -22.534 c 0,-0.897 -0.979,-1.27 -1.996,-1.27 -0.979,0 -1.996,0.373 -1.996,1.27 v 24.739 c 0,0.86 0.904,1.308 1.77,1.308 z"
         id="path27" /></g><g
       style="fill:none;stroke:#ffffff;stroke-width:2;stroke-linecap:round;stroke-linejoin:round;stroke-opacity:1"
       id="g3"
       transform="matrix(13.876273,0,0,13.876273,189.08473,684.56273)"><circle
         cx="12"
         cy="12"
         r="10"
         id="circle1-9"
         style="stroke:#ffffff;stroke-opacity:1" /><polyline
         points="12 8 8 12 12 16"
         id="polyline1-2"
         style="stroke:#ffffff;stroke-opacity:1" /><line
         x1="16"
         y1="12"
         x2="8"
         y2="12"
         id="line1-0"
         style="stroke:#ffffff;stroke-opacity:1" /></g></g></svg>
