<?xml version="1.0" encoding="UTF-8" standalone="no"?>
<!-- Created with Inkscape (http://www.inkscape.org/) -->

<svg
   width="1in"
   height="1in"
   viewBox="0 0 25.4 25.4"
   version="1.1"
   id="svg1"
   inkscape:version="1.3 (0e150ed, 2023-07-21)"
   sodipodi:docname="seagl_logo_monocrome.svg"
   xmlns:inkscape="http://www.inkscape.org/namespaces/inkscape"
   xmlns:sodipodi="http://sodipodi.sourceforge.net/DTD/sodipodi-0.dtd"
   xmlns="http://www.w3.org/2000/svg"
   xmlns:svg="http://www.w3.org/2000/svg">
  <sodipodi:namedview
     id="namedview1"
     pagecolor="#ffffff"
     bordercolor="#000000"
     borderopacity="0.25"
     inkscape:showpageshadow="2"
     inkscape:pageopacity="0.0"
     inkscape:pagecheckerboard="0"
     inkscape:deskcolor="#d1d1d1"
     inkscape:document-units="mm"
     inkscape:zoom="4.0567375"
     inkscape:cx="76.169583"
     inkscape:cy="75.553324"
     inkscape:window-width="1920"
     inkscape:window-height="1011"
     inkscape:window-x="0"
     inkscape:window-y="0"
     inkscape:window-maximized="1"
     inkscape:current-layer="layer1" />
  <defs
     id="defs1" />
  <g
     inkscape:label="Layer 1"
     inkscape:groupmode="layer"
     id="layer1">
    <rect
       style="fill:#ffffff;stroke:none;stroke-width:1.289;stroke-linecap:round;stroke-linejoin:round;stroke-miterlimit:10;paint-order:markers stroke fill"
       id="rect1"
       width="25.4"
       height="25.4"
       x="0"
       y="0" />
    <g
       id="circle186-8-7-5"
       transform="translate(-10.1625,45.763672)"
       inkscape:export-filename="../outreach/design/logo/monocrome/seagl_logo_monocrome_border_transparent_1000x1000.png"
       inkscape:export-xdpi="1000"
       inkscape:export-ydpi="1000">
      <path
         style="color:#000000;fill:#000000;-inkscape-stroke:none"
         d="m 22.863281,-45.763672 c -7.008435,0 -12.699218,5.690784 -12.699218,12.699219 0,7.008435 5.690783,12.701172 12.699218,12.701172 7.008435,0 12.699219,-5.692737 12.699219,-12.701172 0,-7.008435 -5.690784,-12.699219 -12.699219,-12.699219 z m 0,0.941406 c 6.499759,0 11.759766,5.258054 11.759766,11.757813 0,6.499759 -5.260007,11.759766 -11.759766,11.759766 -6.499758,0 -11.757812,-5.260007 -11.757812,-11.759766 0,-6.499759 5.258054,-11.757813 11.757812,-11.757813 z"
         id="path209-4" />
    </g>
    <path
       id="path240-2"
       style="color:#000000;fill:#000000;stroke-linejoin:round;-inkscape-stroke:none;paint-order:markers stroke fill"
       d="m 15.877397,4.222481 c -0.64284,1.3e-5 -1.249053,0.212034 -1.699121,0.619084 -0.450067,0.407045 -0.727272,1.016636 -0.715202,1.693436 0.0082,0.463152 0.142824,0.888818 0.387057,1.222148 V 8.880595 L 13.715255,8.749853 a 0.56853186,0.56853186 0 0 0 -0.789099,-0.0036 l -1.346688,1.286743 a 0.2430868,0.2430868 0 0 0 -0.133842,-0.150378 0.2430868,0.2430868 0 0 0 -0.136942,-0.01809 0.2430868,0.2430868 0 0 0 -0.12454,0.05943 l -4.103626,3.68918 H 6.549284 L 4.21351,13.359407 a 0.50005,0.50005 0 0 0 -0.380856,0.874882 l 0.970484,0.836125 a 0.50005,0.50005 0 0 0 -0.22841,0.09353 l -1.6407267,1.63866 a 0.50005,0.50005 0 0 0 0.3534668,0.853694 H 5.998414 v 1.980241 A 0.2430868,0.2430868 0 0 0 6.40459,19.81844 l 3.172417,-2.853056 c 0.613091,-0.05217 1.237669,-0.116101 1.857251,-0.210839 H 11.6575 l -0.334863,3.805969 a 0.56853186,0.56853186 0 0 0 0.566373,0.617016 h 2.345594 a 0.56853186,0.56853186 0 0 0 0.506945,-0.320393 h 1.596802 a 0.24816631,0.24816631 0 0 0 0.150378,-0.444935 L 15.959563,20.01171 a 0.24816631,0.24816631 0 0 0 -0.10542,-0.04703 L 14.998381,19.812234 14.557064,16.12357 c 1.436051,-0.831389 2.808724,-2.036679 2.988965,-3.28352 a 0.56853186,0.56853186 0 0 0 0.01137,-0.100252 c 0.0012,-0.01326 0.0037,-0.02652 0.0047,-0.03979 -0.0013,0.0019 -0.0028,0.0037 -0.0041,0.0057 a 0.56853186,0.56853186 0 0 0 -0.170532,-0.385506 l -0.777731,-0.75551 -0.384472,-0.373103 V 8.429483 c 0.366387,-0.07842 0.739694,-0.143717 1.0604,-0.345715 0.336245,-0.211785 0.580451,-0.518372 0.822172,-0.820105 l 2.533179,0.128674 A 0.56853186,0.56853186 0 0 0 21.172249,6.556729 L 20.922135,6.090091 A 0.56853186,0.56853186 0 0 0 20.428108,5.790885 L 19.889123,5.785185 18.043241,5.537138 C 17.582806,4.901285 16.887477,4.222466 15.877481,4.22249 Z m 0,0.568441 v 5.16e-4 c 0.05117,-1e-6 0.101689,0.0025 0.151929,0.0078 0.05024,0.0052 0.100141,0.01316 0.149345,0.02325 0.09841,0.0202 0.194742,0.04956 0.288354,0.08682 0.09361,0.03726 0.184398,0.08266 0.272335,0.133842 0.439685,0.255895 0.803107,0.66603 1.035079,1.034562 l 0.0031,-0.0026 2.070674,0.278019 0.573092,0.0062 0.249597,0.465088 -2.6479,-0.134358 -0.110588,-0.0057 c -0.04903,0.08538 -0.107272,0.170309 -0.173116,0.253215 -0.03495,0.044 -0.07313,0.08691 -0.112138,0.129708 -0.0232,0.02528 -0.04735,0.05012 -0.07183,0.07493 -0.02285,0.02325 -0.04534,0.04703 -0.06925,0.06976 -0.01957,0.01851 -0.0397,0.03669 -0.05994,0.05478 -0.02143,0.01931 -0.04351,0.038 -0.06563,0.05684 -0.02522,0.02132 -0.04998,0.0428 -0.07596,0.06356 -0.0038,0.0031 -0.0076,0.0062 -0.01137,0.0093 -0.01327,0.01051 -0.02736,0.02016 -0.04082,0.03049 -0.06815,0.05213 -0.138548,0.101959 -0.210839,0.148828 -0.01261,0.0082 -0.02501,0.01679 -0.03772,0.0248 -0.007,0.0045 -0.01405,0.009 -0.02119,0.01344 -0.08247,0.05106 -0.166632,0.09787 -0.252181,0.14056 -0.01918,0.0096 -0.03808,0.01879 -0.05736,0.02791 -0.0026,0.0012 -0.0052,0.0024 -0.0078,0.0036 -0.03847,0.01806 -0.07712,0.03548 -0.115755,0.05168 -0.0019,7.98e-4 -0.0038,0.0018 -0.0057,0.0026 -0.02161,0.0089 -0.04347,0.01651 -0.06511,0.02481 -0.02155,0.0083 -0.043,0.0172 -0.0646,0.0248 -0.03455,0.01219 -0.06888,0.02316 -0.103353,0.03359 -0.01416,0.0043 -0.02825,0.0095 -0.04237,0.01344 -0.0015,4.27e-4 -0.0031,6.1e-4 -0.0047,0.001 -0.02182,0.0061 -0.04339,0.01081 -0.06511,0.01602 -0.04722,0.0116 -0.09398,0.02105 -0.14056,0.02894 -0.02491,0.0043 -0.04975,0.0082 -0.07441,0.01137 -0.06498,0.0082 -0.129684,0.01447 -0.192236,0.01447 -0.03905,0 -0.07658,-0.002 -0.114722,-0.0036 v 3.42563 l 0.556555,0.54157 0.776697,0.754992 c -0.854798,1.259706 -1.704537,2.129435 -2.861841,2.719731 -0.05,0.02551 -0.09712,0.05357 -0.148311,0.07803 -0.126461,0.06042 -0.257568,0.114165 -0.389124,0.166915 -0.08861,0.03463 -0.178015,0.06807 -0.268201,0.100252 -0.107655,0.03842 -0.214263,0.07837 -0.324528,0.112655 l -0.0067,0.08682 -0.06098,0.762745 -0.259932,3.270601 1.036112,0.183968 0.0026,0.0021 0.52555,0.397909 h -0.409795 -1.934765 l 0.337964,-3.854545 0.05116,-0.582394 0.0067,-0.07803 c -0.678427,0.155436 -1.383868,0.249938 -2.088761,0.313676 l 1.311031,-1.179257 a 0.2430868,0.2430868 0 0 0 0.08216,-0.181901 v -3.363102 -0.875399 l 1.727544,-1.650545 1.100708,1.069702 V 7.552036 c -0.23943,-0.241107 -0.37864,-0.580542 -0.38654,-1.02681 -0.01873,-1.050537 0.809876,-1.734241 1.845365,-1.734261 z m 0.458887,0.859379 c -0.04401,0 -0.08873,0.01746 -0.136426,0.03876 -0.0477,0.0213 -0.09644,0.04908 -0.142627,0.07648 -0.09238,0.0548 -0.170015,0.109037 -0.170015,0.109037 l -0.05478,0.03928 0.05478,0.03721 c 0,0 0.07762,0.05617 0.170015,0.111104 0.0462,0.02747 0.09494,0.05512 0.142627,0.07648 0.04769,0.02136 0.09241,0.03669 0.136426,0.03669 0.1447,0 0.262,-0.116923 0.262,-0.261482 0,-0.14413 -0.117214,-0.263767 -0.262,-0.26355 z m 3.908805,1.257804 0.09302,0.260966 -0.596346,-0.127124 z m -16.086356,6.94738 0.02274,0.0026 3.085083,0.76016 -0.932759,0.898653 h 0.327628 2.526978 l -1.168404,1.022677 -0.02067,0.01809 -0.08992,0.07855 -0.10852,0.09457 -0.02687,0.02377 -0.423747,0.371036 -0.03566,0.03101 H 4.985556 3.2885016 L 4.928195,15.516908 h 0.910539 0.249597 l -0.08992,-0.07752 -0.04134,-0.03566 -1.391647,-1.19786 z m 9.297623,3.465421 0.201539,2.303219 -0.380339,-0.0677 z" />
  </g>
</svg>
