<?xml version="1.0" encoding="UTF-8" standalone="no"?>
<!-- Created with Inkscape (http://www.inkscape.org/) -->

<svg
   width="2cm"
   height="2cm"
   viewBox="0 0 20 20"
   version="1.1"
   id="svg8"
   inkscape:version="1.3 (0e150ed6c4, 2023-07-21)"
   sodipodi:docname="SeaGL mascot - monochrome5.svg"
   inkscape:export-filename="SeaGL mascot - monochrome6.png"
   inkscape:export-xdpi="325.12"
   inkscape:export-ydpi="325.12"
   xmlns:inkscape="http://www.inkscape.org/namespaces/inkscape"
   xmlns:sodipodi="http://sodipodi.sourceforge.net/DTD/sodipodi-0.dtd"
   xmlns="http://www.w3.org/2000/svg"
   xmlns:svg="http://www.w3.org/2000/svg"
   xmlns:rdf="http://www.w3.org/1999/02/22-rdf-syntax-ns#"
   xmlns:cc="http://creativecommons.org/ns#"
   xmlns:dc="http://purl.org/dc/elements/1.1/">
  <defs
     id="defs2">
    <clipPath
       clipPathUnits="userSpaceOnUse"
       id="clipPath1030">
      <rect
         style="fill:#ff00ff;fill-opacity:1;stroke-width:0.299415"
         id="rect1032"
         width="11.006667"
         height="9.4872961"
         x="286.91833"
         y="319.7312"
         transform="matrix(1,0,-0.62469505,0.7808688,0,0)" />
    </clipPath>
    <clipPath
       clipPathUnits="userSpaceOnUse"
       id="clipPath1474">
      <circle
         style="color:#000000;clip-rule:nonzero;display:inline;overflow:visible;visibility:visible;opacity:1;isolation:auto;mix-blend-mode:normal;color-interpolation:sRGB;color-interpolation-filters:linearRGB;solid-color:#000000;solid-opacity:1;fill:#ff00ff;fill-opacity:1;fill-rule:evenodd;stroke:none;stroke-width:1.49542;stroke-linecap:round;stroke-linejoin:round;stroke-miterlimit:4;stroke-dasharray:none;stroke-dashoffset:0;stroke-opacity:1;color-rendering:auto;image-rendering:auto;shape-rendering:auto;text-rendering:auto;enable-background:accumulate"
         id="circle1476"
         cx="33.866665"
         cy="306.49756"
         r="52.246082" />
    </clipPath>
  </defs>
  <sodipodi:namedview
     id="base"
     pagecolor="#ffffff"
     bordercolor="#8f8f8f"
     borderopacity="0.48627451"
     inkscape:pageopacity="0"
     inkscape:pageshadow="2"
     inkscape:zoom="4"
     inkscape:cx="54.75"
     inkscape:cy="41.625"
     inkscape:document-units="cm"
     inkscape:current-layer="layer1"
     showgrid="false"
     units="px"
     width="128px"
     inkscape:pagecheckerboard="true"
     inkscape:showpageshadow="false"
     borderlayer="true"
     inkscape:window-width="1920"
     inkscape:window-height="1016"
     inkscape:window-x="0"
     inkscape:window-y="0"
     inkscape:window-maximized="1"
     showguides="true"
     inkscape:guide-bbox="true"
     inkscape:snap-global="true"
     inkscape:object-paths="false"
     inkscape:snap-bbox="true"
     inkscape:object-nodes="true"
     inkscape:snap-nodes="true"
     inkscape:bbox-nodes="true"
     inkscape:bbox-paths="false"
     inkscape:snap-center="true"
     inkscape:snap-intersection-paths="false"
     inkscape:snap-smooth-nodes="false"
     inkscape:snap-bbox-edge-midpoints="false"
     inkscape:snap-page="true"
     inkscape:deskcolor="#d1d1d1"
     showborder="false" />
  <metadata
     id="metadata5">
    <rdf:RDF>
      <cc:Work
         rdf:about="">
        <dc:format>image/svg+xml</dc:format>
        <dc:type
           rdf:resource="http://purl.org/dc/dcmitype/StillImage" />
      </cc:Work>
    </rdf:RDF>
  </metadata>
  <g
     inkscape:groupmode="layer"
     id="layer4"
     inkscape:label="Background"
     sodipodi:insensitive="true">
    <circle
       style="font-variation-settings:normal;display:inline;opacity:1;fill:#ffffff;fill-opacity:1;stroke:none;stroke-width:0.105833;stroke-linecap:butt;stroke-linejoin:miter;stroke-miterlimit:4;stroke-dasharray:none;stroke-dashoffset:0;stroke-opacity:1"
       id="path15"
       cx="10"
       cy="24.816666"
       r="10"
       transform="translate(0,-14.816667)" />
  </g>
  <g
     inkscape:groupmode="layer"
     id="layer2"
     inkscape:label="2020 design"
     style="display:inline"
     transform="translate(0,-14.816667)">
    <g
       inkscape:groupmode="layer"
       id="layer1"
       inkscape:label="Outline"
       style="display:inline;fill:#000000;fill-opacity:1;stroke:#000000;stroke-width:0.705556;stroke-linecap:butt;stroke-linejoin:miter;stroke-dasharray:none">
      <path
         style="color:#000000;stroke:none;stroke-width:0.705556;-inkscape-stroke:none"
         d="m 17.119308,20.025548 -1.495632,-0.107823 1.326913,0.288686 z"
         id="path13" />
      <path
         style="color:#000000;stroke:none;stroke-width:0.705556;-inkscape-stroke:none"
         d="m 15.650704,19.548808 0.313479,0.647654 1.331473,0.42179 0.302466,-0.400183 -0.45235,-0.560765 z"
         id="path14"
         sodipodi:nodetypes="cccccc" />
      <path
         sodipodi:nodetypes="cccccc"
         inkscape:connector-curvature="0"
         id="path10"
         d="m 14.836041,19.321237 -0.603537,0.494401 3.084184,0.159535 -0.136674,-0.405004 -0.568864,-0.0068 z"
         style="display:inline;fill:#000000;fill-opacity:1;stroke:#000000;stroke-width:0.705556;stroke-linecap:butt;stroke-linejoin:miter;stroke-dasharray:none;stroke-opacity:1" />
      <path
         sodipodi:nodetypes="ccssc"
         style="display:inline;fill:#000000;fill-opacity:1;stroke:#000000;stroke-width:0.705556;stroke-linecap:butt;stroke-linejoin:miter;stroke-dasharray:none;stroke-opacity:1"
         inkscape:connector-curvature="0"
         d="m 15.026348,19.702397 c -0.267638,0.648489 -1.196244,1.305918 -1.910243,1.305918 -0.874108,0 -1.475678,-0.405249 -1.491248,-1.294407 -0.01606,-0.916683 0.694236,-1.513259 1.582031,-1.513277 0.888926,-2.2e-5 1.632315,0.977682 1.81946,1.501766 z"
         id="path9" />
      <path
         style="display:inline;fill:#000000;fill-opacity:1;stroke:#000000;stroke-width:0.705556;stroke-linecap:butt;stroke-linejoin:miter;stroke-dasharray:none;stroke-opacity:1"
         d="m 11.938021,20.089965 v 4.945543 h 1.173612 v -4.945543 z"
         id="path8"
         inkscape:connector-curvature="0"
         sodipodi:nodetypes="ccccc" />
      <path
         id="path7"
         d="M 13.445716,25.907113 14.0493,24.94172 11.034421,21.969266 8.5893358,24.338152 c 2.3690512,1.097328 2.4755782,2.033157 4.8563802,1.568961 z"
         inkscape:connector-curvature="0"
         style="display:inline;fill:#000000;fill-opacity:1;stroke:#000000;stroke-width:0.705556;stroke-linecap:butt;stroke-linejoin:miter;stroke-dasharray:none;stroke-opacity:1"
         sodipodi:nodetypes="ccccc" />
      <path
         style="display:inline;fill:#000000;fill-opacity:1;stroke:#000000;stroke-width:0.705556;stroke-linecap:butt;stroke-linejoin:miter;stroke-dasharray:none;stroke-opacity:1"
         d="m 5.2057689,27.636425 1.5110472,-1.475973 -3.2018347,1e-6 z"
         id="path5"
         inkscape:connector-curvature="0" />
      <path
         style="display:inline;fill:#000000;fill-opacity:1;stroke:#000000;stroke-width:0.705556;stroke-linecap:butt;stroke-linejoin:miter;stroke-dasharray:none;stroke-opacity:1"
         d="M 4.1466953,27.54336 H 7.6443749 L 6.1058934,28.908618 H 2.8002592 Z"
         id="path2"
         inkscape:connector-curvature="0" />
      <path
         style="display:inline;fill:#000000;fill-opacity:1;stroke:#000000;stroke-width:0.705556;stroke-linecap:butt;stroke-linejoin:miter;stroke-dasharray:none;stroke-opacity:1"
         inkscape:connector-curvature="0"
         d="m 10.502692,31.017146 0.282834,-3.604034 c 0,0 -0.07212,-0.169508 -0.323,-0.169508 -0.250733,0 -0.24677,0.169508 -0.24677,0.169508 l -0.3535475,4.090336 h 1.9251205 l -0.433871,-0.333002 z"
         id="path1" />
      <path
         style="display:inline;fill:#000000;stroke:#000000;stroke-width:0.211667;stroke-dasharray:none;stroke-opacity:1"
         inkscape:connector-curvature="0"
         d="m 12.22968,30.884858 -0.640619,0.486302 h 1.925256 L 13.08045,31.038158 Z"
         id="path17"
         sodipodi:nodetypes="ccccc" />
    </g>
    <g
       inkscape:groupmode="layer"
       id="layer3"
       inkscape:label="Fill"
       style="display:inline">
      <path
         style="display:inline;fill:#ffffff;fill-opacity:1;stroke-width:0.264583"
         d="m 11.938021,20.089965 v 4.945543 h 1.223221 v -4.945543 z"
         id="path1143"
         inkscape:connector-curvature="0" />
      <path
         style="display:inline;fill:#000000;fill-opacity:1;stroke-width:0.264583"
         d="m 12.954592,20.089965 v 4.945543 h 0.456782 v -4.945543 z"
         id="path1145"
         inkscape:connector-curvature="0" />
      <path
         style="display:inline;fill:#000000;stroke:#000000;stroke-width:0.105833;stroke-dasharray:none;stroke-opacity:1"
         inkscape:connector-curvature="0"
         d="m 12.22968,30.884854 -0.424252,-3.471742 c 0,0 -0.07226,-0.169508 -0.322995,-0.169508 -0.250733,0 -0.246915,0.169508 -0.246915,0.169508 l 0.353543,3.958044 h 1.925256 L 13.08045,31.038154 Z"
         id="path1141"
         sodipodi:nodetypes="ccsccccc" />
      <path
         id="path1147"
         d="m 4.506163,28.294076 1.6754824,-0.06676 4.5866166,-0.05861 2.163429,-1.430263 0.982496,-1.406779 0.135113,-0.389936 -3.014879,-2.972454 z"
         inkscape:connector-curvature="0"
         style="display:inline;fill:#ffffff;fill-opacity:1;stroke-width:0.264583"
         sodipodi:nodetypes="cccccccc" />
      <path
         id="path1149"
         d="m 4.5529722,28.294076 h 6.4657508 c 1.50387,-0.643828 3.088377,-1.953472 3.030577,-3.352356 -0.732114,1.094101 -1.45664,1.837401 -2.471365,2.329059 -2.1345579,1.034246 -5.2013299,0.695 -7.0249628,1.023297 z"
         inkscape:connector-curvature="0"
         style="display:inline;fill:#000000;fill-opacity:1;stroke-width:0.264583"
         sodipodi:nodetypes="cccac" />
      <path
         style="display:inline;fill:#ffffff;stroke-width:0.264583"
         inkscape:connector-curvature="0"
         d="m 10.502692,31.017146 0.282834,-3.604034 c 0,0 -0.07212,-0.169508 -0.323,-0.169508 -0.250733,0 -0.24677,0.169508 -0.24677,0.169508 l -0.3535475,4.090336 h 1.9251205 l -0.433871,-0.333002 z"
         id="path1151" />
      <path
         id="path1159"
         style="display:inline;fill:#000000;fill-opacity:1;stroke:none;stroke-width:0.264583"
         d="m 9.4159236,22.260376 -4.19125,3.821124 v 4.892189 l 4.19125,-3.821123 z"
         sodipodi:nodetypes="ccccc" />
      <path
         id="path16"
         style="display:inline;fill:#ffffff;fill-opacity:1;stroke:none;stroke-width:0.264583"
         d="M 9.0607861,23.096465 5.2502458,26.5705 v 0.918309 l 3.8105403,-3.474035 z"
         sodipodi:nodetypes="ccccc" />
      <path
         style="display:inline;fill:#ffffff;stroke-width:0.264583"
         d="m 5.2057689,27.636425 1.5110472,-1.475973 -3.2018347,1e-6 z"
         id="path4"
         inkscape:connector-curvature="0" />
      <path
         id="rect1167"
         clip-path="none"
         style="display:inline;fill:#000000;fill-opacity:1;stroke-width:0.264583"
         d="m 3.5149276,26.16037 2.5524511,0.634344 0.649456,-0.634344 z" />
      <path
         sodipodi:nodetypes="cccscc"
         style="display:inline;fill:#000000;stroke-width:0.264583"
         inkscape:connector-curvature="0"
         d="m 15.083859,19.727936 c 0,0.599777 -1.236475,1.525406 -1.891278,1.525406 l 0.01729,-0.388244 c -0.54025,0.06773 -0.961377,-0.734911 -0.961377,-1.518286 0,-0.47366 0.550278,-1.065338 0.97216,-1.065338 0.883557,0.134457 1.8632,1.258583 1.863201,1.446462 z"
         id="path1153" />
      <path
         sodipodi:nodetypes="ccssc"
         style="display:inline;fill:#ffffff;stroke-width:0.264583"
         inkscape:connector-curvature="0"
         d="m 15.026348,19.702397 c -0.267638,0.648489 -1.196244,1.305918 -1.910243,1.305918 -0.874108,0 -1.475678,-0.405249 -1.491248,-1.294407 -0.01606,-0.916683 0.694236,-1.513259 1.582031,-1.513277 0.888926,-2.2e-5 1.632315,0.977682 1.81946,1.501766 z"
         id="path1155" />
      <path
         style="display:inline;fill:#0d0d0d;fill-opacity:1;stroke-width:0.264583"
         inkscape:connector-curvature="0"
         d="m 13.971518,19.179531 c 0,0.174872 -0.138985,0.316328 -0.311083,0.316328 -0.171285,0 -0.608393,-0.316328 -0.608393,-0.316328 0,0 0.436835,-0.315534 0.608393,-0.315534 0.172096,-2.65e-4 0.311083,0.141465 0.311083,0.315534 z"
         id="path1157" />
      <path
         style="display:inline;fill:#000000;fill-opacity:1;stroke-width:0.264583"
         d="m 14.232504,19.815638 0.533492,0.401663 1.663396,-0.143119 0.605314,0.131687 0.224303,-0.264412 -2.549672,-0.272479 z"
         id="path1173"
         inkscape:connector-curvature="0"
         sodipodi:nodetypes="ccccccc" />
      <path
         sodipodi:nodetypes="cccccc"
         inkscape:connector-curvature="0"
         id="path1175"
         d="m 14.836041,19.321237 -0.603537,0.494401 3.084184,0.159535 -0.136674,-0.405004 -0.568864,-0.0068 z"
         style="display:inline;fill:#ffffff;stroke-width:0.264583" />
      <path
         sodipodi:nodetypes="ccccc"
         inkscape:connector-curvature="0"
         id="path1177"
         d="m 17.052314,19.941581 -0.310019,-0.06283 -0.03852,0.235934 0.392582,0.113671 z"
         style="display:inline;fill:#ffffff;fill-opacity:1;stroke-width:0.264585" />
      <path
         style="display:inline;fill:#ffffff;fill-opacity:1;stroke-width:0.264583"
         d="M 4.1466953,27.54336 H 7.6443749 L 6.1058934,28.908618 H 2.8002592 Z"
         id="path1171"
         inkscape:connector-curvature="0" />
      <path
         id="path6"
         style="display:inline;fill:#000000;fill-opacity:1;stroke-width:0.264583"
         d="M 4.1466469,27.543462 3.7756175,27.919718 H 7.2202713 L 7.6443051,27.543462 Z" />
    </g>
  </g>
</svg>
