<?xml version="1.0" encoding="UTF-8" standalone="no"?>
<!DOCTYPE svg PUBLIC "-//W3C//DTD SVG 1.1//EN" "http://www.w3.org/Graphics/SVG/1.1/DTD/svg11.dtd">
<svg width="100%" height="100%" viewBox="0 0 2550 3300" version="1.1" xmlns="http://www.w3.org/2000/svg" xmlns:xlink="http://www.w3.org/1999/xlink" xml:space="preserve" xmlns:serif="http://www.serif.com/" style="fill-rule:evenodd;clip-rule:evenodd;stroke-linecap:round;stroke-linejoin:round;stroke-miterlimit:1.5;">
    <g transform="matrix(1.401893,0,0,1.189781,-259.949397,602.284956)">
        <rect x="234" y="191" width="796" height="972" style="fill:rgb(4,99,7);"/>
    </g>
    <g transform="matrix(1.298878,0,0,1.102332,-196.843869,650.987631)">
        <rect x="234" y="191" width="796" height="972" style="fill:rgb(9,255,137);"/>
    </g>
    <g transform="matrix(3.011189,0,0,0.671262,-630.524774,-73.678007)">
        <rect x="234" y="191" width="796" height="972" style="fill:rgb(9,255,137);"/>
    </g>
    <g transform="matrix(0.397919,0,0,0.503903,268.993006,317.269895)">
        <rect x="366" y="188" width="209" height="77" style="fill:rgb(218,199,129);"/>
    </g>
    <g transform="matrix(0.397919,0,0,0.503903,267.993006,408.269895)">
        <rect x="366" y="188" width="209" height="77" style="fill:rgb(218,199,129);"/>
    </g>
    <g transform="matrix(0.397919,0,0,0.503903,273.993006,494.269895)">
        <rect x="366" y="188" width="209" height="77" style="fill:rgb(218,199,129);"/>
    </g>
    <g transform="matrix(1.466875,0,0,1.466875,540.109932,1272.926421)">
        <g transform="matrix(1,0,0,1,-266.666667,-243.75)">
            <clipPath id="_clip1">
                <rect x="0" y="0" width="533.333" height="487.5"/>
            </clipPath>
            <g clip-path="url(#_clip1)">
                <g transform="matrix(15.748031,0,0,15.748031,0,0.000002)">
                    <path d="M22.377,29.818L21.37,21.384L20.018,21.384L20.857,30.956L25.426,30.956L24.396,30.177L22.377,29.818Z" style="fill:rgb(177,116,42);fill-rule:nonzero;"/>
                </g>
                <g transform="matrix(15.748031,0,0,15.748031,0,0.000002)">
                    <path d="M24.527,0.137C22.51,0.137 20.896,1.469 20.932,3.516C20.948,4.385 21.219,5.047 21.685,5.517L21.685,10.729L19.541,8.645L4.048,23.446L19.348,22.714L25.936,17.766L26.695,15.601L25.182,14.129L24.588,12.438L24.588,6.638C26.119,6.397 28.438,4.948 28.662,3.49C28.237,2.32 26.547,0.137 24.527,0.137Z" style="fill:white;fill-rule:nonzero;"/>
                </g>
                <g transform="matrix(15.748031,0,0,15.748031,0,0.000002)">
                    <path d="M4.159,23.446L19.503,23.446C23.072,21.939 26.832,18.874 26.695,15.601C24.958,18.161 23.239,19.901 20.83,21.051C15.765,23.471 8.487,22.678 4.159,23.446ZM28.656,3.503C28.041,4.947 25.939,6.406 24.321,6.406C24.245,6.406 24.172,6.402 24.098,6.4L24.098,13.075L25.182,14.129L25.182,6.796C26.707,6.335 28.761,4.661 28.761,3.516L28.656,3.503Z" style="fill:rgb(224,224,224);fill-rule:nonzero;"/>
                </g>
                <g transform="matrix(15.748031,0,0,15.748031,0,0.000002)">
                    <path d="M5.753,23.162L10.727,17.153L15.7,14.22L15.7,20.775L5.753,29.716L5.753,23.162Z" style="fill:rgb(179,179,179);fill-rule:nonzero;"/>
                </g>
                <g transform="matrix(15.748031,0,0,15.748031,0,0.000002)">
                    <path d="M5.753,20.087L15.7,11.145L15.7,14.22L5.753,23.162L5.753,20.087Z" style="fill:rgb(204,204,204);fill-rule:nonzero;"/>
                </g>
                <g transform="matrix(15.748031,0,0,15.748031,0,0.000002)">
                    <path d="M1.696,18.453L5.456,21.689L3.195,21.689L0,24.884L7.845,24.884L11.495,21.689L5.934,21.689L7.753,19.937L6.248,18.947L1.696,18.453Z" style="fill:rgb(13,13,13);fill-rule:nonzero;"/>
                </g>
                <g transform="matrix(15.748031,0,0,15.748031,0,0.000002)">
                    <path d="M1.696,18.453L7.753,19.937L9.294,18.453L1.696,18.453Z" style="fill:rgb(86,86,86);fill-rule:nonzero;"/>
                </g>
                <g transform="matrix(15.748031,0,0,15.748031,0,0.000002)">
                    <path d="M26.858,3.743L28.352,4.54L31.85,4.32L33.226,4.614L33.736,4.024L27.942,3.416L26.858,3.743Z" style="fill:rgb(177,116,42);fill-rule:nonzero;"/>
                </g>
                <g transform="matrix(15.748031,0,0,15.748031,0,0.000002)">
                    <path d="M28.23,2.639L26.858,3.743L33.867,4.099L33.38,3.193L32.263,3.18L28.23,2.639Z" style="fill:rgb(252,179,32);fill-rule:nonzero;"/>
                </g>
                <g transform="matrix(15.748031,0,0,15.748031,0,0.000002)">
                    <path d="M33.015,4.19L32.224,4.4L33.161,4.601L33.015,4.19Z" style="fill:rgb(150,65,42);fill-rule:nonzero;"/>
                </g>
                <g transform="matrix(15.748031,0,0,15.748031,0,0.000002)">
                    <path d="M25.84,2.323C25.84,2.555 25.653,2.742 25.421,2.742C25.19,2.742 24.6,2.323 24.6,2.323C24.6,2.323 25.189,1.905 25.421,1.905C25.653,1.905 25.84,2.093 25.84,2.323Z" style="fill:rgb(13,13,13);fill-rule:nonzero;"/>
                </g>
                <g transform="matrix(15.748031,0,0,15.748031,0,0.000002)">
                    <path d="M18.279,29.818L18.95,21.384C18.95,21.384 18.779,20.988 18.183,20.988C17.588,20.988 17.598,21.384 17.598,21.384L16.759,30.956L21.327,30.956L20.298,30.177L18.279,29.818Z" style="fill:rgb(252,179,32);fill-rule:nonzero;"/>
                </g>
            </g>
        </g>
    </g>
    <g transform="matrix(0.423359,0,0,0.491512,792.938715,1204.084543)">
        <rect x="272" y="128" width="478" height="448" style="fill:rgb(169,189,213);"/>
    </g>
    <g transform="matrix(0.397919,0,0,0.503903,1196.993006,310.269895)">
        <rect x="366" y="188" width="209" height="77" style="fill:rgb(218,199,129);"/>
    </g>
    <g transform="matrix(0.397919,0,0,0.503903,1194.993006,396.269895)">
        <rect x="366" y="188" width="209" height="77" style="fill:rgb(218,199,129);"/>
    </g>
    <g transform="matrix(0.397919,0,0,0.503903,1190.993006,486.269895)">
        <rect x="366" y="188" width="209" height="77" style="fill:rgb(218,199,129);"/>
    </g>
    <g transform="matrix(1.644191,0,0,0.26293,-1587.873429,15.357467)">
        <rect x="1266" y="1385" width="519" height="1026" style="fill:rgb(54,54,54);"/>
    </g>
    <g transform="matrix(0.67979,0,0,0.713297,-886.364358,-121.222464)">
        <ellipse cx="1627" cy="1015.5" rx="61" ry="62.5" style="fill:rgb(56,54,53);"/>
    </g>
    <g transform="matrix(0.67979,0,0,0.713297,-95.364358,650.777536)">
        <ellipse cx="1627" cy="1015.5" rx="61" ry="62.5" style="fill:rgb(56,54,53);"/>
    </g>
    <g transform="matrix(1.291787,0,0,1.50775,-192.323651,-1008.582432)">
        <g transform="matrix(150,0,0,150,1498.555664,860)">
        </g>
        <text x="279px" y="860px" style="font-family:'SFProDisplay-Bold', 'SF Pro Display';font-weight:700;font-size:150px;fill:rgb(23,100,50);">C<tspan x="385.494px " y="860px ">a</tspan>ll F<tspan x="649.972px " y="860px ">o</tspan>r Pr<tspan x="964.767px " y="860px ">o</tspan>posals</text>
    </g>
    <g transform="matrix(2.583951,0,0,2.292463,569.030558,1892.56474)">
        <rect x="272" y="128" width="478" height="448" style="fill:rgb(41,41,41);"/>
    </g>
    <g transform="matrix(1.109788,0,0,1.109788,-274.549231,36.866336)">
        <g transform="matrix(194.050443,0,0,194.050443,1021.909339,1651)">
        </g>
        <text x="439px" y="1651px" style="font-family:'SFProDisplay-Bold', 'SF Pro Display';font-weight:700;font-size:194.05px;fill:rgb(4,99,7);">SeaGL</text>
    </g>
    <g transform="matrix(-0.000462,-0.49962,0.498192,-0.000461,89.365627,1131.056275)">
        <rect x="272" y="128" width="478" height="448" style="fill:rgb(168,190,214);"/>
    </g>
    <g transform="matrix(0.188537,0,0,0.188537,-25.708036,587.088831)">
        <g transform="matrix(0.856765,0,0,1,147.411378,0)">
            <g transform="matrix(836.231766,0,0,836.231766,2144.677025,1856.222602)">
            </g>
            <text x="1029.157px" y="1856.223px" style="font-family:'Arial-Black', 'Arial Black', sans-serif;font-weight:900;font-size:836.232px;fill:rgb(56,54,53);">14</text>
        </g>
    </g>
    <g transform="matrix(0.137691,0,0,0.137691,1252.274798,2104.410969)">
        <g transform="matrix(0.856765,0,0,1,191.648544,0)">
            <text x="1338px" y="1306px" style="font-family:'SFProDisplay-Bold', 'SF Pro Display';font-weight:700;font-size:544.696px;fill:rgb(229,241,255);">Community and Cultur<tspan x="6906.546px " y="1306px ">e</tspan></text>
        </g>
        <g transform="matrix(0.856765,0,0,1,191.648544,0)">
            <text x="1338px" y="1956.018px" style="font-family:'SFProDisplay-Bold', 'SF Pro Display';font-weight:700;font-size:544.696px;fill:rgb(229,241,255);">Education</text>
        </g>
        <g transform="matrix(0.856765,0,0,1,191.648544,0)">
            <text x="1338px" y="2606.036px" style="font-family:'SFProDisplay-Bold', 'SF Pro Display';font-weight:700;font-size:544.696px;fill:rgb(229,241,255);">H<tspan x="1728.212px 2026.358px 2213.637px 2538.114px 2963.789px 3261.936px 3449.214px " y="2606.036px 2606.036px 2606.036px 2606.036px 2606.036px 2606.036px 2606.036px ">ardware</tspan></text>
        </g>
        <g transform="matrix(0.856765,0,0,1,191.648544,0)">
            <text x="1338px" y="3256.054px" style="font-family:'SFProDisplay-Bold', 'SF Pro Display';font-weight:700;font-size:544.696px;fill:rgb(229,241,255);">Languages and T<tspan x="5493.625px " y="3256.054px ">o</tspan>ols</text>
        </g>
        <g transform="matrix(0.856765,0,0,1,191.648544,0)">
            <text x="1338px" y="3906.073px" style="font-family:'SFProDisplay-Bold', 'SF Pro Display';font-weight:700;font-size:544.696px;fill:rgb(229,241,255);">Cloud and Infr<tspan x="4802.411px " y="3906.073px ">a</tspan>structur<tspan x="7078.312px " y="3906.073px ">e</tspan></text>
        </g>
        <g transform="matrix(0.856765,0,0,1,191.648544,0)">
            <text x="1338px" y="4556.091px" style="font-family:'SFProDisplay-Bold', 'SF Pro Display';font-weight:700;font-size:544.696px;fill:rgb(229,241,255);">Open Sour<tspan x="3951.942px " y="4556.091px ">c</tspan>e AI and D<tspan x="6710.308px 7008.454px 7198.972px " y="4556.091px 4556.091px 4556.091px ">ata</tspan> Science</text>
        </g>
        <g transform="matrix(0.856765,0,0,1,191.648544,0)">
            <text x="1338px" y="5206.109px" style="font-family:'SFProDisplay-Bold', 'SF Pro Display';font-weight:700;font-size:544.696px;fill:rgb(229,241,255);">Open Sour<tspan x="3951.942px " y="5206.109px ">c</tspan>e C<tspan x="5045.368px 5343.514px 5530.793px " y="5206.109px 5206.109px 5206.109px ">are</tspan>ers</text>
        </g>
        <g transform="matrix(0.856765,0,0,1,191.648544,0)">
            <text x="1338px" y="5856.127px" style="font-family:'SFProDisplay-Bold', 'SF Pro Display';font-weight:700;font-size:544.696px;fill:rgb(229,241,255);">P<tspan x="1663.581px 1965.983px 2165.679px 2350.254px " y="5856.127px 5856.127px 5856.127px 5856.127px ">erfo</tspan>rmance Art</text>
        </g>
        <g transform="matrix(0.856765,0,0,1,191.648544,0)">
            <text x="1338px" y="6506.145px" style="font-family:'SFProDisplay-Bold', 'SF Pro Display';font-weight:700;font-size:544.696px;fill:rgb(229,241,255);">Security and Priv<tspan x="5509.877px " y="6506.145px ">a</tspan>cy</text>
        </g>
        <g transform="matrix(0.856765,0,0,1,191.648544,0)">
            <text x="1338px" y="7156.163px" style="font-family:'SFProDisplay-Bold', 'SF Pro Display';font-weight:700;font-size:544.696px;fill:rgb(229,241,255);">Sy<tspan x="1976.093px 2256.686px 2445.652px " y="7156.163px 7156.163px 7156.163px ">ste</tspan>ms and Platf<tspan x="5795.476px " y="7156.163px ">o</tspan>rms</text>
        </g>
        <g transform="matrix(0.856765,0,0,1,191.648544,0)">
            <text x="1338px" y="7806.181px" style="font-family:'SFProDisplay-Bold', 'SF Pro Display';font-weight:700;font-size:544.696px;fill:rgb(229,241,255);">Ev<tspan x="1928.438px " y="7806.181px ">e</tspan>rything Else</text>
        </g>
    </g>
    <g transform="matrix(0.581356,0,0,0.678547,211.39764,-525.135224)">
        <text x="689px" y="1489px" style="font-family:'SFProDisplay-Bold', 'SF Pro Display';font-weight:700;font-size:125px;fill:rgb(229,241,255);">Submission Due</text>
        <g transform="matrix(125,0,0,125,1274.205078,1638.169922)">
        </g>
        <text x="689px" y="1638.17px" style="font-family:'SFProDisplay-Bold', 'SF Pro Display';font-weight:700;font-size:125px;fill:rgb(229,241,255);">June 3<tspan x="1075.353px " y="1638.17px ">0</tspan>th</text>
    </g>
    <g transform="matrix(0.496811,0,0,0.532771,1115.7345,3012.909215)">
        <rect x="366" y="188" width="209" height="77" style="fill:rgb(218,199,129);"/>
    </g>
    <g transform="matrix(0.496811,0,0,0.532771,1115.7345,2912.909215)">
        <rect x="366" y="188" width="209" height="77" style="fill:rgb(218,199,129);"/>
    </g>
    <g transform="matrix(0.496811,0,0,0.532771,1115.7345,2821.909215)">
        <rect x="366" y="188" width="209" height="77" style="fill:rgb(218,199,129);"/>
    </g>
    <g transform="matrix(0.496811,0,0,0.532771,1115.7345,2741.909215)">
        <rect x="366" y="188" width="209" height="77" style="fill:rgb(218,199,129);"/>
    </g>
    <g transform="matrix(0.496811,0,0,0.532771,1115.7345,2647.909215)">
        <rect x="366" y="188" width="209" height="77" style="fill:rgb(218,199,129);"/>
    </g>
    <g transform="matrix(0.496811,0,0,0.532771,1115.7345,2563.909215)">
        <rect x="366" y="188" width="209" height="77" style="fill:rgb(218,199,129);"/>
    </g>
    <g transform="matrix(0.496811,0,0,0.532771,1115.7345,2481.909215)">
        <rect x="366" y="188" width="209" height="77" style="fill:rgb(218,199,129);"/>
    </g>
    <g transform="matrix(0.496811,0,0,0.532771,1115.7345,2396.909215)">
        <rect x="366" y="188" width="209" height="77" style="fill:rgb(218,199,129);"/>
    </g>
    <g transform="matrix(0.496811,0,0,0.532771,1115.7345,2310.909215)">
        <rect x="366" y="188" width="209" height="77" style="fill:rgb(218,199,129);"/>
    </g>
    <g transform="matrix(0.496811,0,0,0.532771,1115.7345,2220.909215)">
        <rect x="366" y="188" width="209" height="77" style="fill:rgb(218,199,129);"/>
    </g>
    <g transform="matrix(0.496811,0,0,0.532771,1115.7345,2133.909215)">
        <rect x="366" y="188" width="209" height="77" style="fill:rgb(218,199,129);"/>
    </g>
    <g transform="matrix(1.571491,0,0,1.228978,876.364674,545.698175)">
        <rect x="234" y="191" width="796" height="972" style="fill:rgb(9,255,137);"/>
    </g>
    <g transform="matrix(0.560939,0,0,0.332642,1439.289972,567.421883)">
        <rect x="272" y="128" width="478" height="448" style="fill:rgb(168,190,214);"/>
    </g>
    <g transform="matrix(0.783167,0,0,0.821889,1021.115248,725.612829)">
        <rect x="366" y="188" width="209" height="77" style="fill:rgb(218,199,129);"/>
    </g>
    <g transform="matrix(0.783167,0,0,0.821889,1022.551054,1137.739882)">
        <rect x="366" y="188" width="209" height="77" style="fill:rgb(218,199,129);"/>
    </g>
    <g transform="matrix(0.783167,0,0,0.821889,1018.243638,998.820651)">
        <rect x="366" y="188" width="209" height="77" style="fill:rgb(218,199,129);"/>
    </g>
    <g transform="matrix(0.783167,0,0,0.821889,1023.986859,855.270778)">
        <rect x="366" y="188" width="209" height="77" style="fill:rgb(218,199,129);"/>
    </g>
    <g transform="matrix(0.783167,0,0,0.821889,1741.889524,733.330564)">
        <rect x="366" y="188" width="209" height="77" style="fill:rgb(218,199,129);"/>
    </g>
    <g transform="matrix(0.783167,0,0,0.821889,1743.325329,1145.457617)">
        <rect x="366" y="188" width="209" height="77" style="fill:rgb(218,199,129);"/>
    </g>
    <g transform="matrix(0.783167,0,0,0.821889,1739.017913,1006.538386)">
        <rect x="366" y="188" width="209" height="77" style="fill:rgb(218,199,129);"/>
    </g>
    <g transform="matrix(0.783167,0,0,0.821889,1733.761134,870.988513)">
        <rect x="366" y="188" width="209" height="77" style="fill:rgb(218,199,129);"/>
    </g>
    <g transform="matrix(1.076162,0,0,0.562657,107.578638,39.105396)">
        <rect x="1266" y="1385" width="519" height="1026" style="fill:rgb(54,54,54);"/>
    </g>
    <g transform="matrix(1.103974,0,0,1.124288,-228.353323,-2191.08326)">
        <path d="M1582,2722L1582,2840.16L1700.16,2840.16L1700.16,2722L1582,2722ZM1750.8,2722L1750.8,2772.64L1767.68,2772.64L1767.68,2755.76L1818.32,2755.76L1818.32,2772.64L1784.56,2772.64L1784.56,2789.52L1852.08,2789.52L1852.08,2806.4L1868.96,2806.4L1868.96,2789.52L1852.08,2789.52L1852.08,2772.64L1835.2,2772.64L1835.2,2755.76L1852.08,2755.76L1852.08,2772.64L1868.96,2772.64L1868.96,2738.88L1818.32,2738.88L1818.32,2722L1784.56,2722L1784.56,2738.88L1767.68,2738.88L1767.68,2722L1750.8,2722ZM1885.84,2722L1885.84,2840.16L2004,2840.16L2004,2722L1885.84,2722ZM1683.28,2738.88L1683.28,2823.28L1598.88,2823.28L1598.88,2738.88L1683.28,2738.88ZM1987.12,2738.88L1987.12,2823.28L1902.72,2823.28L1902.72,2738.88L1987.12,2738.88ZM1615.76,2755.76L1615.76,2806.4L1666.4,2806.4L1666.4,2755.76L1615.76,2755.76ZM1717.04,2755.76L1717.04,2857.04L1733.92,2857.04L1733.92,2823.28L1750.8,2823.28L1750.8,2840.16L1767.68,2840.16L1767.68,2857.04L1801.44,2857.04L1801.44,2873.92L1852.08,2873.92L1852.08,2890.8L1784.56,2890.8L1784.56,2873.92L1767.68,2873.92L1767.68,2890.8L1717.04,2890.8L1717.04,2873.92L1700.16,2873.92L1700.16,2857.04L1615.76,2857.04L1615.76,2873.92L1700.16,2873.92L1700.16,2890.8L1717.04,2890.8L1717.04,2907.68L1733.92,2907.68L1733.92,2941.44L1717.04,2941.44L1717.04,2907.68L1700.16,2907.68L1700.16,2890.8L1683.28,2890.8L1683.28,2907.68L1700.16,2907.68L1700.16,2924.56L1683.28,2924.56L1683.28,2941.44L1700.16,2941.44L1700.16,2958.32L1683.28,2958.32L1683.28,2941.44L1632.64,2941.44L1632.64,2924.56L1615.76,2924.56L1615.76,2907.68L1598.88,2907.68L1598.88,2924.56L1582,2924.56L1582,3008.96L1598.88,3008.96L1598.88,2958.32L1615.76,2958.32L1615.76,2975.2L1632.64,2975.2L1632.64,2992.08L1615.76,2992.08L1615.76,3008.96L1649.52,3008.96L1649.52,2992.08L1683.28,2992.08L1683.28,3008.96L1700.16,3008.96L1700.16,2992.08L1683.28,2992.08L1683.28,2975.2L1717.04,2975.2L1717.04,3025.84L1733.92,3025.84L1733.92,3042.72L1750.8,3042.72L1750.8,3059.6L1733.92,3059.6L1733.92,3042.72L1717.04,3042.72L1717.04,3110.24L1733.92,3110.24L1733.92,3093.36L1750.8,3093.36L1750.8,3076.48L1767.68,3076.48L1767.68,3042.72L1750.8,3042.72L1750.8,3008.96L1733.92,3008.96L1733.92,2992.08L1750.8,2992.08L1750.8,2975.2L1717.04,2975.2L1717.04,2958.32L1750.8,2958.32L1750.8,2907.68L1767.68,2907.68L1767.68,2941.44L1818.32,2941.44L1818.32,2958.32L1835.2,2958.32L1835.2,2975.2L1852.08,2975.2L1852.08,3008.96L1835.2,3008.96L1835.2,3025.84L1852.08,3025.84L1852.08,3042.72L1835.2,3042.72L1835.2,3025.84L1818.32,3025.84L1818.32,3008.96L1784.56,3008.96L1784.56,2975.2L1801.44,2975.2L1801.44,2958.32L1767.68,2958.32L1767.68,3008.96L1784.56,3008.96L1784.56,3025.84L1801.44,3025.84L1801.44,3042.72L1784.56,3042.72L1784.56,3076.48L1801.44,3076.48L1801.44,3059.6L1818.32,3059.6L1818.32,3076.48L1835.2,3076.48L1835.2,3093.36L1852.08,3093.36L1852.08,3110.24L1818.32,3110.24L1818.32,3127.12L1868.96,3127.12L1868.96,3144L1885.84,3144L1885.84,3127.12L1902.72,3127.12L1902.72,3144L2004,3144L2004,3025.84L1953.36,3025.84L1953.36,3008.96L1936.48,3008.96L1936.48,2975.2L1953.36,2975.2L1953.36,2941.44L1936.48,2941.44L1936.48,2924.56L1902.72,2924.56L1902.72,2907.68L1953.36,2907.68L1953.36,2890.8L1919.6,2890.8L1919.6,2873.92L1970.24,2873.92L1970.24,2907.68L1987.12,2907.68L1987.12,2924.56L1953.36,2924.56L1953.36,2941.44L1970.24,2941.44L1970.24,2975.2L1987.12,2975.2L1987.12,2992.08L2004,2992.08L2004,2958.32L1987.12,2958.32L1987.12,2941.44L2004,2941.44L2004,2890.8L1987.12,2890.8L1987.12,2873.92L1970.24,2873.92L1970.24,2857.04L1885.84,2857.04L1885.84,2873.92L1902.72,2873.92L1902.72,2890.8L1868.96,2890.8L1868.96,2857.04L1835.2,2857.04L1835.2,2823.28L1818.32,2823.28L1818.32,2806.4L1784.56,2806.4L1784.56,2789.52L1767.68,2789.52L1767.68,2806.4L1733.92,2806.4L1733.92,2755.76L1717.04,2755.76ZM1919.6,2755.76L1919.6,2806.4L1970.24,2806.4L1970.24,2755.76L1919.6,2755.76ZM1835.2,2806.4L1835.2,2823.28L1852.08,2823.28L1852.08,2840.16L1868.96,2840.16L1868.96,2823.28L1852.08,2823.28L1852.08,2806.4L1835.2,2806.4ZM1784.56,2823.28L1784.56,2840.16L1767.68,2840.16L1767.68,2823.28L1784.56,2823.28ZM1818.32,2857.04L1801.44,2857.04L1801.44,2823.28L1818.32,2823.28L1818.32,2857.04ZM1582,2857.04L1582,2873.92L1598.88,2873.92L1598.88,2890.8L1615.76,2890.8L1615.76,2907.68L1649.52,2907.68L1649.52,2924.56L1666.4,2924.56L1666.4,2890.8L1615.76,2890.8L1615.76,2873.92L1598.88,2873.92L1598.88,2857.04L1582,2857.04ZM1852.08,2907.68L1852.08,2924.56L1868.96,2924.56L1868.96,2941.44L1902.72,2941.44L1902.72,2958.32L1885.84,2958.32L1885.84,2975.2L1852.08,2975.2L1852.08,2958.32L1835.2,2958.32L1835.2,2924.56L1801.44,2924.56L1801.44,2907.68L1852.08,2907.68ZM1852.08,2941.44L1852.08,2958.32L1868.96,2958.32L1868.96,2941.44L1852.08,2941.44ZM1632.64,2958.32L1615.76,2958.32L1615.76,2941.44L1632.64,2941.44L1632.64,2958.32ZM1666.4,2958.32L1666.4,2975.2L1649.52,2975.2L1649.52,2958.32L1666.4,2958.32ZM1919.6,2958.32L1919.6,2941.44L1936.48,2941.44L1936.48,2958.32L1919.6,2958.32ZM1953.36,2992.08L1953.36,3008.96L1970.24,3008.96L1970.24,2992.08L1953.36,2992.08ZM1919.6,3008.96L1919.6,3059.6L1868.96,3059.6L1868.96,3008.96L1919.6,3008.96ZM1582,3025.84L1582,3144L1700.16,3144L1700.16,3025.84L1582,3025.84ZM1885.84,3025.84L1885.84,3042.72L1902.72,3042.72L1902.72,3025.84L1885.84,3025.84ZM1683.28,3042.72L1683.28,3127.12L1598.88,3127.12L1598.88,3042.72L1683.28,3042.72ZM1936.48,3042.72L1936.48,3025.84L1953.36,3025.84L1953.36,3042.72L1970.24,3042.72L1970.24,3059.6L1953.36,3059.6L1953.36,3042.72L1936.48,3042.72ZM1615.76,3059.6L1615.76,3110.24L1666.4,3110.24L1666.4,3059.6L1615.76,3059.6ZM1835.2,3059.6L1818.32,3059.6L1818.32,3042.72L1835.2,3042.72L1835.2,3059.6ZM1868.96,3076.48L1868.96,3093.36L1902.72,3093.36L1902.72,3076.48L1919.6,3076.48L1919.6,3093.36L1936.48,3093.36L1936.48,3110.24L1868.96,3110.24L1868.96,3093.36L1852.08,3093.36L1852.08,3076.48L1868.96,3076.48ZM1936.48,3076.48L1936.48,3059.6L1953.36,3059.6L1953.36,3076.48L1936.48,3076.48ZM1767.68,3093.36L1767.68,3110.24L1750.8,3110.24L1750.8,3127.12L1717.04,3127.12L1717.04,3144L1784.56,3144L1784.56,3110.24L1801.44,3110.24L1801.44,3093.36L1767.68,3093.36ZM1987.12,3093.36L1987.12,3127.12L1953.36,3127.12L1953.36,3110.24L1970.24,3110.24L1970.24,3093.36L1987.12,3093.36Z" style="fill:rgb(179,190,203);"/>
    </g>
    <g transform="matrix(1,0,0,1,34,12)">
        <g transform="matrix(0.856765,0,0,1,223.190376,0)">
            <g transform="matrix(65.534876,0,0,65.534876,1930.49107,1437.550679)">
            </g>
            <text x="1558.21px" y="1437.551px" style="font-family:'GranthaSangamMN-Regular', 'Grantha Sangam MN';font-size:65.535px;fill:rgb(41,72,35);">s<tspan x="1588.46px 1623.02px 1656.886px " y="1437.551px 1437.551px 1437.551px ">eag</tspan>l.<tspan x="1720.991px 1756.254px 1777.95px " y="1437.551px 1437.551px 1437.551px ">org</tspan>/cfp</text>
        </g>
    </g>
    <g transform="matrix(0.504845,0,0,0.568609,2061.959521,1572.978294)">
        <rect x="272" y="128" width="478" height="448" style="fill:rgb(168,190,214);"/>
    </g>
    <g transform="matrix(0.967022,0,0,0.984983,739.887434,759.43449)">
        <ellipse cx="1627" cy="1015.5" rx="61" ry="62.5" style="fill:rgb(56,54,53);"/>
    </g>
    <g transform="matrix(0.001628,-0.390898,0.991489,0.004129,1503.913948,2184.433293)">
        <rect x="272" y="128" width="478" height="448" style="fill:rgb(168,190,214);"/>
    </g>
    <g transform="matrix(0.15165,-0.756907,0.754063,0.149659,99.960176,541.670594)">
        <path d="M686.477,2165.711L959.43,2367.132L822.953,2557.922L1043.777,2630.797L939.518,2956.703L718.694,2883.828L718.694,3119.657L381.306,3119.657L381.306,2883.828L160.482,2956.703L56.223,2630.797L277.047,2557.922L140.57,2367.132L413.523,2165.711L550,2356.5L686.477,2165.711Z" style="fill:rgb(239,143,188);stroke:rgb(205,102,174);stroke-width:21.62px;"/>
    </g>
    <g transform="matrix(0.26893,-0.415302,0.413085,0.268741,697.231189,50.626156)">
        <g transform="matrix(0.856765,0,0,1,52.137571,0)">
            <text x="364px" y="3006px" style="font-family:'SFProDisplay-Bold', 'SF Pro Display';font-weight:700;font-size:252.857px;fill:rgb(97,45,84);">Become a</text>
        </g>
        <g transform="matrix(0.856765,0,0,1,52.137571,0)">
            <g transform="matrix(252.856753,0,0,252.856753,1284.265354,3307.748977)">
            </g>
            <text x="364px" y="3307.749px" style="font-family:'SFProDisplay-Bold', 'SF Pro Display';font-weight:700;font-size:252.857px;fill:rgb(97,45,84);">speak<tspan x="1051.904px " y="3307.749px ">e</tspan>r</text>
        </g>
    </g>
    <g transform="matrix(1.236364,0,0,1.236364,-261.538322,1111.09977)">
        <g transform="matrix(0.856765,0,0,1,227.96769,0)">
            <g transform="matrix(75.29443,0,0,75.29443,1812.435894,726.166178)">
            </g>
            <text x="1591.563px" y="726.166px" style="font-family:'SFProDisplay-Bold', 'SF Pro Display';font-weight:700;font-size:75.294px;fill:rgb(62,70,80);">T<tspan x="1626.773px " y="726.166px ">o</tspan>pics</text>
        </g>
    </g>
    <g transform="matrix(0.698977,0,0,0.698977,-238.784612,1574.530085)">
        <text x="459px" y="2038px" style="font-family:'SFProDisplay-Bold', 'SF Pro Display';font-weight:700;font-size:194.05px;fill:rgb(66,61,77);">Oct<tspan x="778.312px " y="2038px ">o</tspan>ber</text>
        <g transform="matrix(194.050443,0,0,194.050443,1561.524881,2269.571915)">
        </g>
        <text x="459px" y="2269.572px" style="font-family:'SFProDisplay-Bold', 'SF Pro Display';font-weight:700;font-size:194.05px;fill:rgb(66,61,77);">23-2<tspan x="898.646px " y="2269.572px ">4</tspan>,2<tspan x="1194.838px 1320.194px 1436.738px " y="2269.572px 2269.572px 2269.572px ">026</tspan></text>
    </g>
    <g transform="matrix(0.636794,0,0,0.743254,-372.011727,1005.501498)">
        <rect x="689" y="1369.411" width="356.558" height="149.885" style="fill:rgb(118,209,235);"/>
        <rect x="1712.127" y="1369.411" width="588.192" height="149.885" style="fill:rgb(250,177,6);"/>
        <rect x="1137.918" y="1519.296" width="588.56" height="149.885" style="fill:rgb(255,247,189);"/>
        <rect x="1193.235" y="1669.18" width="646.086" height="149.885" style="fill:rgb(186,149,202);"/>
        <rect x="1954.616" y="1819.065" width="399.488" height="149.885" style="fill:rgb(239,137,137);"/>
        <rect x="689" y="1968.949" width="1306.645" height="149.885" style="fill:rgb(146,236,121);fill-opacity:0.61;"/>
        <rect x="689" y="2118.834" width="698.03" height="149.885" style="fill:rgb(180,182,179);fill-opacity:0.61;"/>
        <text x="689px" y="1489px" style="font-family:'SFProDisplay-Regular', 'SF Pro Display';font-size:125.599px;fill:rgb(35,31,32);">SeaGL is an annual community</text>
        <text x="689px" y="1638.885px" style="font-family:'SFProDisplay-Regular', 'SF Pro Display';font-size:125.599px;fill:rgb(35,31,32);">f<tspan x="724.079px " y="1638.885px ">o</tspan>cused conf<tspan x="1368.754px 1433.087px 1468.718px " y="1638.885px 1638.885px 1638.885px ">ere</tspan>nce supporting</text>
        <text x="689px" y="1788.769px" style="font-family:'SFProDisplay-Regular', 'SF Pro Display';font-size:125.599px;fill:rgb(35,31,32);">fr<tspan x="762.777px " y="1788.769px ">e</tspan>e/libr<tspan x="1088.426px " y="1788.769px ">e</tspan>/open sour<tspan x="1712.066px " y="1788.769px ">c</tspan>e softw<tspan x="2154.79px 2217.834px 2253.466px " y="1788.769px 1788.769px 1788.769px ">are</tspan>,</text>
        <text x="689px" y="1938.654px" style="font-family:'SFProDisplay-Regular', 'SF Pro Display';font-size:125.599px;fill:rgb(35,31,32);">har<tspan x="855.382px 924.927px 1013.545px 1076.59px 1112.221px 1176.554px 1202.312px " y="1938.654px 1938.654px 1938.654px 1938.654px 1938.654px 1938.654px 1938.654px ">dware, </tspan>and cultur<tspan x="1746.961px " y="1938.654px ">e</tspan> in Seattle.</text>
        <text x="689px" y="2088.538px" style="font-family:'SFProDisplay-Regular', 'SF Pro Display';font-size:125.599px;fill:rgb(35,31,32);">Univ<tspan x="927.074px " y="2088.538px ">e</tspan>rsity of W<tspan x="1476.814px " y="2088.538px ">a</tspan>shingt<tspan x="1862.809px " y="2088.538px ">o</tspan>n</text>
        <text x="689px" y="2238.423px" style="font-family:'SFProDisplay-Regular', 'SF Pro Display';font-size:125.599px;fill:rgb(35,31,32);">Husky Union Building</text>
    </g>
    <g transform="matrix(0.448828,0,0,0.523863,993.496168,756.943368)">
        <text x="689px" y="1489px" style="font-family:'SFProDisplay-Regular', 'SF Pro Display';font-size:127.26px;fill:rgb(41,72,35);">W<tspan x="799.731px " y="1489px ">e</tspan>&apos;r<tspan x="927.736px " y="1489px ">e</tspan> seeking pr<tspan x="1565.401px " y="1489px ">e</tspan>sent<tspan x="1859.13px " y="1489px ">a</tspan>tions that</text>
        <text x="689px" y="1640.866px" style="font-family:'SFProDisplay-Regular', 'SF Pro Display';font-size:127.26px;fill:rgb(41,72,35);">e<tspan x="752.941px " y="1640.866px ">x</tspan>plor<tspan x="1012.182px " y="1640.866px ">e</tspan> the int<tspan x="1431.182px " y="1640.866px ">e</tspan>rsections of</text>
        <text x="689px" y="1792.733px" style="font-family:'SFProDisplay-Regular', 'SF Pro Display';font-size:127.26px;fill:rgb(41,72,35);">t<tspan x="725.475px " y="1792.733px ">e</tspan>chnology<tspan x="1273.537px 1299.635px " y="1792.733px 1792.733px ">, </tspan>community<tspan x="1912.383px 1938.481px " y="1792.733px 1792.733px ">, </tspan>and</text>
        <text x="689px" y="1944.599px" style="font-family:'SFProDisplay-Regular', 'SF Pro Display';font-size:127.26px;fill:rgb(41,72,35);">fr<tspan x="763.753px " y="1944.599px ">e</tspan>edom.<tspan x="1160.445px " y="1944.599px "> </tspan>If y<tspan x="1339.839px " y="1944.599px ">o</tspan>u&apos;r<tspan x="1537.253px " y="1944.599px ">e</tspan> engaged in</text>
        <text x="689px" y="2096.466px" style="font-family:'SFProDisplay-Regular', 'SF Pro Display';font-size:127.26px;fill:rgb(41,72,35);">open sour<tspan x="1214.692px " y="2096.466px ">c</tspan>e,<tspan x="1369.727px " y="2096.466px "> </tspan>we&apos;<tspan x="1576.276px " y="2096.466px ">d</tspan> lo<tspan x="1764.493px 1824.084px " y="2096.466px 2096.466px ">ve</tspan> t<tspan x="1951.841px " y="2096.466px ">o</tspan> hear</text>
        <text x="689px" y="2248.332px" style="font-family:'SFProDisplay-Regular', 'SF Pro Display';font-size:127.26px;fill:rgb(41,72,35);">fr<tspan x="763.753px " y="2248.332px ">o</tspan>m y<tspan x="1019.577px " y="2248.332px ">o</tspan>u.</text>
    </g>
</svg>
