<?xml version="1.0" encoding="UTF-8" standalone="no"?>
<svg
   width="8.5in"
   height="11in"
   viewBox="0 0 816 1056"
   version="1.1"
   xml:space="preserve"
   style="clip-rule:evenodd;fill-rule:evenodd;stroke-linecap:round;stroke-linejoin:round;stroke-miterlimit:1.5"
   id="svg131"
   sodipodi:docname="call-for-proposal_fixed.svg"
   inkscape:version="1.4.4 (1:1.4.4+202605061436+dcaf3e7d9e)"
   inkscape:export-filename="../Downloads/call-for-proposal_fixed.svg"
   inkscape:export-xdpi="300"
   inkscape:export-ydpi="300"
   xmlns:inkscape="http://www.inkscape.org/namespaces/inkscape"
   xmlns:sodipodi="http://sodipodi.sourceforge.net/DTD/sodipodi-0.dtd"
   xmlns="http://www.w3.org/2000/svg"
   xmlns:svg="http://www.w3.org/2000/svg"><defs
   id="defs131" /><sodipodi:namedview
   id="namedview131"
   pagecolor="#505050"
   bordercolor="#eeeeee"
   borderopacity="1"
   inkscape:showpageshadow="0"
   inkscape:pageopacity="0"
   inkscape:pagecheckerboard="0"
   inkscape:deskcolor="#d1d1d1"
   inkscape:zoom="0.65053824"
   inkscape:cx="-20.752047"
   inkscape:cy="615.64406"
   inkscape:window-width="1676"
   inkscape:window-height="1010"
   inkscape:window-x="0"
   inkscape:window-y="18"
   inkscape:window-maximized="1"
   inkscape:current-layer="g111"
   inkscape:document-units="in"><inkscape:page
     x="0"
     y="0"
     width="816"
     height="1056"
     id="page2"
     margin="0"
     bleed="0" /></sodipodi:namedview>
    
    
    
    
    
    
    
    
    
    
    
    
    
    
    
    
    
    
    
    
    
    
    
    
    
    
    
    
    
    
    
    
    
    
    
    
    
    
    
    
    
    
    
    
    
    
    
    
    
    
    
    
    
    
<g
   id="g177"
   transform="translate(9.9999988)"><g
     transform="matrix(0.45647912,0,0,0.38741201,-105.37409,192.12905)"
     id="g1">
        <rect
   x="234"
   y="191"
   width="796"
   height="972"
   style="fill:#046307"
   id="rect1" />
    </g><g
     transform="matrix(0.42293576,0,0,0.3589372,-84.825913,207.98743)"
     id="g2">
        <rect
   x="234"
   y="191"
   width="796"
   height="972"
   style="fill:#09ff89"
   id="rect2" />
    </g><g
     transform="matrix(0.98049203,0,0,0.21857381,-226.03945,-27.975471)"
     id="g3">
        <rect
   x="234"
   y="191"
   width="796"
   height="972"
   style="fill:#09ff89"
   id="rect3" />
    </g><g
     transform="matrix(0.12956889,0,0,0.164079,66.858138,99.323516)"
     id="g4">
        <rect
   x="366"
   y="188"
   width="209"
   height="77"
   style="fill:#dac781"
   id="rect4" />
    </g><g
     transform="matrix(0.12956889,0,0,0.164079,66.532521,128.9546)"
     id="g5">
        <rect
   x="366"
   y="188"
   width="209"
   height="77"
   style="fill:#dac781"
   id="rect5" />
    </g><g
     transform="matrix(0.12956889,0,0,0.164079,68.486219,156.9576)"
     id="g6">
        <rect
   x="366"
   y="188"
   width="209"
   height="77"
   style="fill:#dac781"
   id="rect6" />
    </g><g
     transform="matrix(0.47763831,0,0,0.47763831,155.13821,410.5008)"
     id="g21">
        <g
   transform="translate(-266.66667,-243.75)"
   id="g20">
            <clipPath
   id="_clip1">
                <rect
   x="0"
   y="0"
   width="533.33301"
   height="487.5"
   id="rect7" />
            </clipPath>
            <g
   clip-path="url(#_clip1)"
   id="g19">
                <g
   transform="matrix(15.748031,0,0,15.748031,0,2e-6)"
   id="g7">
                    <path
   d="M 22.377,29.818 21.37,21.384 h -1.352 l 0.839,9.572 h 4.569 l -1.03,-0.779 z"
   style="fill:#b1742a;fill-rule:nonzero"
   id="path7" />
                </g>
                <g
   transform="matrix(15.748031,0,0,15.748031,0,2e-6)"
   id="g8">
                    <path
   d="m 24.527,0.137 c -2.017,0 -3.631,1.332 -3.595,3.379 0.016,0.869 0.287,1.531 0.753,2.001 v 5.212 L 19.541,8.645 4.048,23.446 l 15.3,-0.732 6.588,-4.948 0.759,-2.165 -1.513,-1.472 -0.594,-1.691 v -5.8 C 26.119,6.397 28.438,4.948 28.662,3.49 28.237,2.32 26.547,0.137 24.527,0.137 Z"
   style="fill:#ffffff;fill-rule:nonzero"
   id="path8" />
                </g>
                <g
   transform="matrix(15.748031,0,0,15.748031,0,2e-6)"
   id="g9">
                    <path
   d="m 4.159,23.446 h 15.344 c 3.569,-1.507 7.329,-4.572 7.192,-7.845 -1.737,2.56 -3.456,4.3 -5.865,5.45 -5.065,2.42 -12.343,1.627 -16.671,2.395 z M 28.656,3.503 c -0.615,1.444 -2.717,2.903 -4.335,2.903 -0.076,0 -0.149,-0.004 -0.223,-0.006 v 6.675 l 1.084,1.054 V 6.796 c 1.525,-0.461 3.579,-2.135 3.579,-3.28 z"
   style="fill:#e0e0e0;fill-rule:nonzero"
   id="path9" />
                </g>
                <g
   transform="matrix(15.748031,0,0,15.748031,0,2e-6)"
   id="g10">
                    <path
   d="M 5.753,23.162 10.727,17.153 15.7,14.22 v 6.555 l -9.947,8.941 z"
   style="fill:#b3b3b3;fill-rule:nonzero"
   id="path10" />
                </g>
                <g
   transform="matrix(15.748031,0,0,15.748031,0,2e-6)"
   id="g11">
                    <path
   d="M 5.753,20.087 15.7,11.145 v 3.075 l -9.947,8.942 z"
   style="fill:#cccccc;fill-rule:nonzero"
   id="path11" />
                </g>
                <g
   transform="matrix(15.748031,0,0,15.748031,0,2e-6)"
   id="g12">
                    <path
   d="m 1.696,18.453 3.76,3.236 H 3.195 L 0,24.884 h 7.845 l 3.65,-3.195 H 5.934 l 1.819,-1.752 -1.505,-0.99 z"
   style="fill:#0d0d0d;fill-rule:nonzero"
   id="path12" />
                </g>
                <g
   transform="matrix(15.748031,0,0,15.748031,0,2e-6)"
   id="g13">
                    <path
   d="m 1.696,18.453 6.057,1.484 1.541,-1.484 z"
   style="fill:#565656;fill-rule:nonzero"
   id="path13" />
                </g>
                <g
   transform="matrix(15.748031,0,0,15.748031,0,2e-6)"
   id="g14">
                    <path
   d="m 26.858,3.743 1.494,0.797 3.498,-0.22 1.376,0.294 0.51,-0.59 -5.794,-0.608 z"
   style="fill:#b1742a;fill-rule:nonzero"
   id="path14" />
                </g>
                <g
   transform="matrix(15.748031,0,0,15.748031,0,2e-6)"
   id="g15">
                    <path
   d="M 28.23,2.639 26.858,3.743 33.867,4.099 33.38,3.193 32.263,3.18 Z"
   style="fill:#fcb320;fill-rule:nonzero"
   id="path15" />
                </g>
                <g
   transform="matrix(15.748031,0,0,15.748031,0,2e-6)"
   id="g16">
                    <path
   d="M 33.015,4.19 32.224,4.4 33.161,4.601 Z"
   style="fill:#96412a;fill-rule:nonzero"
   id="path16" />
                </g>
                <g
   transform="matrix(15.748031,0,0,15.748031,0,2e-6)"
   id="g17">
                    <path
   d="m 25.84,2.323 c 0,0.232 -0.187,0.419 -0.419,0.419 -0.231,0 -0.821,-0.419 -0.821,-0.419 0,0 0.589,-0.418 0.821,-0.418 0.232,0 0.419,0.188 0.419,0.418 z"
   style="fill:#0d0d0d;fill-rule:nonzero"
   id="path17" />
                </g>
                <g
   transform="matrix(15.748031,0,0,15.748031,0,2e-6)"
   id="g18">
                    <path
   d="m 18.279,29.818 0.671,-8.434 c 0,0 -0.171,-0.396 -0.767,-0.396 -0.595,0 -0.585,0.396 -0.585,0.396 l -0.839,9.572 h 4.568 l -1.029,-0.779 z"
   style="fill:#fcb320;fill-rule:nonzero"
   id="path18" />
                </g>
            </g>
        </g>
    </g><g
     transform="matrix(0.13785256,0,0,0.16004429,237.46337,388.08476)"
     id="g22">
        <rect
   x="272"
   y="128"
   width="478"
   height="448"
   style="fill:#a9bdd5"
   id="rect21" />
    </g><g
     transform="matrix(0.12956889,0,0,0.164079,369.03,97.044202)"
     id="g23">
        <rect
   x="366"
   y="188"
   width="209"
   height="77"
   style="fill:#dac781"
   id="rect22" />
    </g><g
     transform="matrix(0.12956889,0,0,0.164079,368.37876,125.0472)"
     id="g24">
        <rect
   x="366"
   y="188"
   width="209"
   height="77"
   style="fill:#dac781"
   id="rect23" />
    </g><g
     transform="matrix(0.12956889,0,0,0.164079,367.0763,154.35267)"
     id="g25">
        <rect
   x="366"
   y="188"
   width="209"
   height="77"
   style="fill:#dac781"
   id="rect24" />
    </g><g
     transform="matrix(0.53537528,0,0,0.08561428,-537.76772,1.0159232)"
     id="g26">
        <rect
   x="1266"
   y="1385"
   width="519"
   height="1026"
   style="fill:#363636"
   id="rect25" />
    </g><g
     transform="matrix(0.22135066,0,0,0.23226108,-51.782537,207.91902)"
     id="g28">
        <ellipse
   cx="1627"
   cy="1015.5"
   rx="61"
   ry="62.5"
   style="fill:#383635"
   id="ellipse27" />
    </g><g
     transform="matrix(0.42062682,0,0,0.49094788,-83.354056,-332.3955)"
     id="g31">
        <g
   transform="matrix(150,0,0,150,1498.5557,860)"
   id="g29">
        </g>
        <text
   x="279"
   y="860"
   style="font-weight:700;font-size:150px;font-family:SFProDisplay-Bold, 'SF Pro Display';fill:#176432"
   id="text31"><tspan
     style="font-style:normal;font-variant:normal;font-weight:bold;font-stretch:normal;font-size:150px;font-family:Dosis;-inkscape-font-specification:'Dosis, Bold';font-variant-ligatures:normal;font-variant-caps:normal;font-variant-numeric:normal;font-variant-east-asian:normal"
     id="tspan132">Call For Proposals</tspan></text>
    </g><g
     transform="matrix(0.8413764,0,0,0.74646317,164.55524,612.26509)"
     id="g32">
        <rect
   x="272"
   y="128"
   width="478"
   height="448"
   style="fill:#292929"
   id="rect31" />
    </g><g
     transform="matrix(0.36136499,0,0,0.36136499,-110.12803,8.0195605)"
     id="g34">
        <g
   transform="matrix(194.05044,0,0,194.05044,1021.9093,1651)"
   id="g33">
        </g>
        <text
   x="439"
   y="1651"
   style="font-weight:700;font-size:194.05px;font-family:SFProDisplay-Bold, 'SF Pro Display';fill:#046307"
   id="text33"><tspan
     style="font-style:normal;font-variant:normal;font-weight:bold;font-stretch:normal;font-family:Dosis;-inkscape-font-specification:'Dosis Bold'"
     id="tspan174">SeaGL</tspan></text>
    </g><g
     transform="matrix(-1.504347e-4,-0.16268438,0.1622194,-1.5010908e-4,8.3685451,364.3056)"
     id="g35">
        <rect
   x="272"
   y="128"
   width="478"
   height="448"
   style="fill:#a8bed6"
   id="rect34" />
    </g><g
     transform="matrix(0.06139071,0,0,0.06139071,-29.101307,187.18094)"
     id="g38">
        <g
   transform="matrix(0.856765,0,0,1,147.41138,0)"
   id="g37">
            <g
   transform="matrix(836.23177,0,0,836.23177,2144.677,1856.2226)"
   id="g36">
            </g>
            <text
   x="1029.157"
   y="1856.223"
   style="font-weight:900;font-size:836.232px;font-family:Arial-Black, 'Arial Black', sans-serif;fill:#383635"
   id="text36">14</text>
        </g>
    </g><g
     transform="matrix(0.04483443,0,0,0.04483443,387.03065,681.24569)"
     id="g53">
        <g
   transform="matrix(0.856765,0,0,1,191.64854,0)"
   id="g39">
            <text
   x="1338"
   y="1306"
   style="font-weight:700;font-size:502.162px;line-height:622.76px;font-family:SFProDisplay-Bold, 'SF Pro Display';fill:#e5f1ff"
   id="text38"><tspan
     sodipodi:role="line"
     id="tspan142"
     x="1338"
     y="1306"
     style="font-style:normal;font-variant:normal;font-weight:bold;font-stretch:normal;font-size:502.162px;line-height:622.76px;font-family:Dosis;-inkscape-font-specification:'Dosis, Bold';font-variant-ligatures:normal;font-variant-caps:normal;font-variant-numeric:normal;font-variant-east-asian:normal">Community and Culture</tspan><tspan
     sodipodi:role="line"
     id="tspan143"
     x="1338"
     y="1942.6321"
     style="font-style:normal;font-variant:normal;font-weight:bold;font-stretch:normal;font-size:502.162px;line-height:622.76px;font-family:Dosis;-inkscape-font-specification:'Dosis Bold'">Education</tspan><tspan
     sodipodi:role="line"
     x="1338"
     y="2579.2642"
     id="tspan144"
     style="font-style:normal;font-variant:normal;font-weight:bold;font-stretch:normal;font-size:502.162px;line-height:622.76px;font-family:Dosis;-inkscape-font-specification:'Dosis Bold'">Hardware</tspan><tspan
     sodipodi:role="line"
     x="1338"
     y="3215.8965"
     id="tspan145"
     style="font-style:normal;font-variant:normal;font-weight:bold;font-stretch:normal;font-size:502.162px;line-height:622.76px;font-family:Dosis;-inkscape-font-specification:'Dosis Bold'">Languages and tools</tspan><tspan
     sodipodi:role="line"
     x="1338"
     y="3852.5286"
     id="tspan146"
     style="font-style:normal;font-variant:normal;font-weight:bold;font-stretch:normal;font-size:502.162px;line-height:622.76px;font-family:Dosis;-inkscape-font-specification:'Dosis Bold'">Cloud and infrastructure</tspan><tspan
     style="font-style:normal;font-variant:normal;font-weight:bold;font-stretch:normal;font-size:502.162px;line-height:622.76px;font-family:Dosis;-inkscape-font-specification:'Dosis Bold'"
     sodipodi:role="line"
     id="tspan153"
     x="1338"
     y="4489.1606">Open Source AI and Data Science</tspan><tspan
     sodipodi:role="line"
     x="1338"
     y="5125.793"
     id="tspan148"
     style="font-style:normal;font-variant:normal;font-weight:bold;font-stretch:normal;font-size:502.162px;line-height:622.76px;font-family:Dosis;-inkscape-font-specification:'Dosis Bold'">Open Source Careers</tspan><tspan
     sodipodi:role="line"
     x="1338"
     y="5762.4248"
     id="tspan149"
     style="font-style:normal;font-variant:normal;font-weight:bold;font-stretch:normal;font-size:502.162px;line-height:622.76px;font-family:Dosis;-inkscape-font-specification:'Dosis Bold'">Performance Art</tspan><tspan
     sodipodi:role="line"
     x="1338"
     y="6399.0571"
     id="tspan150"
     style="font-style:normal;font-variant:normal;font-weight:bold;font-stretch:normal;font-size:502.162px;line-height:622.76px;font-family:Dosis;-inkscape-font-specification:'Dosis Bold'">Security and Privacy</tspan><tspan
     sodipodi:role="line"
     x="1338"
     y="7035.6895"
     id="tspan151"
     style="font-style:normal;font-variant:normal;font-weight:bold;font-stretch:normal;font-size:502.162px;line-height:622.76px;font-family:Dosis;-inkscape-font-specification:'Dosis Bold'">System and Platforms</tspan><tspan
     sodipodi:role="line"
     x="1338"
     y="7672.3213"
     id="tspan152"
     style="font-style:normal;font-variant:normal;font-weight:bold;font-stretch:normal;font-size:502.162px;line-height:622.76px;font-family:Dosis;-inkscape-font-specification:'Dosis Bold'">Everything Else</tspan></text>
        </g>
        
        
        
        
        
        
        <g
   transform="matrix(0.856765,0,0,1,191.64854,0)"
   id="g48">
            
        </g>
        
        
        
    </g><g
     transform="matrix(0.18929895,0,0,0.22094592,56.475538,-176.93096)"
     id="g55">
        <text
   x="1175.4541"
   y="1502.1697"
   style="font-weight:700;font-size:142.513px;font-family:SFProDisplay-Bold, 'SF Pro Display';text-align:center;text-anchor:middle;fill:#e5f1ff;stroke-width:1.1401"
   id="text53"><tspan
     sodipodi:role="line"
     id="tspan139"
     x="1175.4541"
     y="1502.1697"
     style="font-style:normal;font-variant:normal;font-weight:bold;font-stretch:normal;font-size:142.513px;font-family:Dosis;-inkscape-font-specification:'Dosis, Bold';font-variant-ligatures:normal;font-variant-caps:normal;font-variant-numeric:normal;font-variant-east-asian:normal;stroke-width:1.1401">Submissions Due</tspan><tspan
     sodipodi:role="line"
     id="tspan140"
     x="1175.4541"
     y="1684.2478"
     style="font-style:normal;font-variant:normal;font-weight:bold;font-stretch:normal;font-size:142.513px;font-family:Dosis;-inkscape-font-specification:'Dosis, Bold';font-variant-ligatures:normal;font-variant-caps:normal;font-variant-numeric:normal;font-variant-east-asian:normal;stroke-width:1.1401">May 31st</tspan></text>
        <g
   transform="matrix(125,0,0,125,1094.9448,1638.1699)"
   id="g54">
        </g>
        
    </g><g
     transform="matrix(0.16176973,0,0,0.17347889,342.57091,977.06745)"
     id="g56">
        <rect
   x="366"
   y="188"
   width="209"
   height="77"
   style="fill:#dac781"
   id="rect55" />
    </g><g
     transform="matrix(0.16176973,0,0,0.17347889,342.57091,944.50583)"
     id="g57">
        <rect
   x="366"
   y="188"
   width="209"
   height="77"
   style="fill:#dac781"
   id="rect56" />
    </g><g
     transform="matrix(0.16176973,0,0,0.17347889,342.57091,914.87475)"
     id="g58">
        <rect
   x="366"
   y="188"
   width="209"
   height="77"
   style="fill:#dac781"
   id="rect57" />
    </g><g
     transform="matrix(0.16176973,0,0,0.17347889,342.57091,888.82545)"
     id="g59">
        <rect
   x="366"
   y="188"
   width="209"
   height="77"
   style="fill:#dac781"
   id="rect58" />
    </g><g
     transform="matrix(0.16176973,0,0,0.17347889,342.57091,858.21753)"
     id="g60">
        <rect
   x="366"
   y="188"
   width="209"
   height="77"
   style="fill:#dac781"
   id="rect59" />
    </g><g
     transform="matrix(0.16176973,0,0,0.17347889,342.57091,830.86576)"
     id="g61">
        <rect
   x="366"
   y="188"
   width="209"
   height="77"
   style="fill:#dac781"
   id="rect60" />
    </g><g
     transform="matrix(0.16176973,0,0,0.17347889,342.57091,804.16523)"
     id="g62">
        <rect
   x="366"
   y="188"
   width="209"
   height="77"
   style="fill:#dac781"
   id="rect61" />
    </g><g
     transform="matrix(0.16176973,0,0,0.17347889,342.57091,776.48785)"
     id="g63">
        <rect
   x="366"
   y="188"
   width="209"
   height="77"
   style="fill:#dac781"
   id="rect62" />
    </g><g
     transform="matrix(0.16176973,0,0,0.17347889,342.57091,748.48485)"
     id="g64">
        <rect
   x="366"
   y="188"
   width="209"
   height="77"
   style="fill:#dac781"
   id="rect63" />
    </g><g
     transform="matrix(0.16176973,0,0,0.17347889,342.57091,719.17939)"
     id="g65">
        <rect
   x="366"
   y="188"
   width="209"
   height="77"
   style="fill:#dac781"
   id="rect64" />
    </g><g
     transform="matrix(0.16176973,0,0,0.17347889,342.57091,690.85078)"
     id="g66">
        <rect
   x="366"
   y="188"
   width="209"
   height="77"
   style="fill:#dac781"
   id="rect65" />
    </g><g
     transform="matrix(0.51170298,0,0,0.40017519,264.62822,173.70348)"
     id="g67">
        <rect
   x="234"
   y="191"
   width="796"
   height="972"
   style="fill:#09ff89"
   id="rect66" />
    </g><g
     transform="matrix(0.18265085,0,0,0.10831364,447.92583,180.77706)"
     id="g68">
        <rect
   x="272"
   y="128"
   width="478"
   height="448"
   style="fill:#a8bed6"
   id="rect67" />
    </g><g
     transform="matrix(0.25501189,0,0,0.2676204,311.76134,232.28661)"
     id="g69">
        <rect
   x="366"
   y="188"
   width="209"
   height="77"
   style="fill:#dac781"
   id="rect68" />
    </g><g
     transform="matrix(0.25501189,0,0,0.2676204,312.22889,366.48188)"
     id="g70">
        <rect
   x="366"
   y="188"
   width="209"
   height="77"
   style="fill:#dac781"
   id="rect69" />
    </g><g
     transform="matrix(0.25501189,0,0,0.2676204,310.8263,321.24751)"
     id="g71">
        <rect
   x="366"
   y="188"
   width="209"
   height="77"
   style="fill:#dac781"
   id="rect70" />
    </g><g
     transform="matrix(0.25501189,0,0,0.2676204,312.69641,274.50534)"
     id="g72">
        <rect
   x="366"
   y="188"
   width="209"
   height="77"
   style="fill:#dac781"
   id="rect71" />
    </g><g
     transform="matrix(0.25501189,0,0,0.2676204,546.45714,234.79962)"
     id="g73">
        <rect
   x="366"
   y="188"
   width="209"
   height="77"
   style="fill:#dac781"
   id="rect72" />
    </g><g
     transform="matrix(0.25501189,0,0,0.2676204,546.92466,368.99489)"
     id="g74">
        <rect
   x="366"
   y="188"
   width="209"
   height="77"
   style="fill:#dac781"
   id="rect73" />
    </g><g
     transform="matrix(0.25501189,0,0,0.2676204,545.5221,323.76053)"
     id="g75">
        <rect
   x="366"
   y="188"
   width="209"
   height="77"
   style="fill:#dac781"
   id="rect74" />
    </g><g
     transform="matrix(0.25501189,0,0,0.2676204,543.8104,279.62329)"
     id="g76">
        <rect
   x="366"
   y="188"
   width="209"
   height="77"
   style="fill:#dac781"
   id="rect75" />
    </g><g
     transform="matrix(0.35041582,0,0,0.18321025,14.298998,8.7486348)"
     id="g77">
        <rect
   x="1266"
   y="1385"
   width="519"
   height="1026"
   style="fill:#363636"
   id="rect76" />
    </g><circle
     style="clip-rule:evenodd;fill:#505050;fill-opacity:1;fill-rule:evenodd;stroke:none;stroke-width:0.325616;stroke-linecap:round;stroke-linejoin:round;stroke-miterlimit:4.5;stroke-opacity:0.5"
     id="path140-0"
     cx="467.60907"
     cy="272.37854"
     r="7.0786138"
     inkscape:transform-center-x="150.16009"
     inkscape:transform-center-y="56.05977" /><g
     transform="matrix(0.35947186,0,0,0.36608643,-95.085902,-717.43699)"
     id="g78">
        <path
   d="m 1582,2722 v 118.16 h 118.16 V 2722 Z m 168.8,0 v 50.64 h 16.88 v -16.88 h 50.64 v 16.88 h -33.76 v 16.88 h 67.52 v 16.88 h 16.88 v -16.88 h -16.88 v -16.88 h -16.88 v -16.88 h 16.88 v 16.88 h 16.88 v -33.76 h -50.64 V 2722 h -33.76 v 16.88 h -16.88 V 2722 Z m 135.04,0 v 118.16 H 2004 V 2722 Z m -202.56,16.88 v 84.4 h -84.4 v -84.4 z m 303.84,0 v 84.4 h -84.4 v -84.4 z m -371.36,16.88 v 50.64 h 50.64 v -50.64 z m 101.28,0 v 101.28 h 16.88 v -33.76 h 16.88 v 16.88 h 16.88 v 16.88 h 33.76 v 16.88 h 50.64 v 16.88 h -67.52 v -16.88 h -16.88 v 16.88 h -50.64 v -16.88 h -16.88 v -16.88 h -84.4 v 16.88 h 84.4 v 16.88 h 16.88 v 16.88 h 16.88 v 33.76 h -16.88 v -33.76 h -16.88 v -16.88 h -16.88 v 16.88 h 16.88 v 16.88 h -16.88 v 16.88 h 16.88 v 16.88 h -16.88 v -16.88 h -50.64 v -16.88 h -16.88 v -16.88 h -16.88 v 16.88 H 1582 v 84.4 h 16.88 v -50.64 h 16.88 v 16.88 h 16.88 v 16.88 h -16.88 v 16.88 h 33.76 v -16.88 h 33.76 v 16.88 h 16.88 v -16.88 h -16.88 v -16.88 h 33.76 v 50.64 h 16.88 v 16.88 h 16.88 v 16.88 h -16.88 v -16.88 h -16.88 v 67.52 h 16.88 v -16.88 h 16.88 v -16.88 h 16.88 v -33.76 h -16.88 v -33.76 h -16.88 v -16.88 h 16.88 v -16.88 h -33.76 v -16.88 h 33.76 v -50.64 h 16.88 v 33.76 h 50.64 v 16.88 h 16.88 v 16.88 h 16.88 v 33.76 h -16.88 v 16.88 h 16.88 v 16.88 h -16.88 v -16.88 h -16.88 v -16.88 h -33.76 v -33.76 h 16.88 v -16.88 h -33.76 v 50.64 h 16.88 v 16.88 h 16.88 v 16.88 h -16.88 v 33.76 h 16.88 v -16.88 h 16.88 v 16.88 h 16.88 v 16.88 h 16.88 v 16.88 h -33.76 v 16.88 h 50.64 V 3144 h 16.88 v -16.88 h 16.88 V 3144 H 2004 v -118.16 h -50.64 v -16.88 h -16.88 v -33.76 h 16.88 v -33.76 h -16.88 v -16.88 h -33.76 v -16.88 h 50.64 v -16.88 h -33.76 v -16.88 h 50.64 v 33.76 h 16.88 v 16.88 h -33.76 v 16.88 h 16.88 v 33.76 h 16.88 v 16.88 H 2004 v -33.76 h -16.88 v -16.88 H 2004 v -50.64 h -16.88 v -16.88 h -16.88 v -16.88 h -84.4 v 16.88 h 16.88 v 16.88 h -33.76 v -33.76 h -33.76 v -33.76 h -16.88 v -16.88 h -33.76 v -16.88 h -16.88 v 16.88 h -33.76 v -50.64 z m 202.56,0 v 50.64 h 50.64 v -50.64 z m -84.4,50.64 v 16.88 h 16.88 v 16.88 h 16.88 v -16.88 h -16.88 v -16.88 z m -50.64,16.88 v 16.88 h -16.88 v -16.88 z m 33.76,33.76 h -16.88 v -33.76 h 16.88 z m -236.32,0 v 16.88 h 16.88 v 16.88 h 16.88 v 16.88 h 33.76 v 16.88 h 16.88 v -33.76 h -50.64 v -16.88 h -16.88 v -16.88 z m 270.08,50.64 v 16.88 h 16.88 v 16.88 h 33.76 v 16.88 h -16.88 v 16.88 h -33.76 v -16.88 h -16.88 v -33.76 h -33.76 v -16.88 z m 0,33.76 v 16.88 h 16.88 v -16.88 z m -219.44,16.88 h -16.88 v -16.88 h 16.88 z m 33.76,0 v 16.88 h -16.88 v -16.88 z m 253.2,0 v -16.88 h 16.88 v 16.88 z m 33.76,33.76 v 16.88 h 16.88 v -16.88 z m -33.76,16.88 v 50.64 h -50.64 v -50.64 z M 1582,3025.84 V 3144 h 118.16 v -118.16 z m 303.84,0 v 16.88 h 16.88 v -16.88 z m -202.56,16.88 v 84.4 h -84.4 v -84.4 z m 253.2,0 v -16.88 h 16.88 v 16.88 h 16.88 v 16.88 h -16.88 v -16.88 z m -320.72,16.88 v 50.64 h 50.64 v -50.64 z m 219.44,0 h -16.88 v -16.88 h 16.88 z m 33.76,16.88 v 16.88 h 33.76 v -16.88 h 16.88 v 16.88 h 16.88 v 16.88 h -67.52 v -16.88 h -16.88 v -16.88 z m 67.52,0 v -16.88 h 16.88 v 16.88 z m -168.8,16.88 v 16.88 h -16.88 v 16.88 h -33.76 V 3144 h 67.52 v -33.76 h 16.88 v -16.88 z m 219.44,0 v 33.76 h -33.76 v -16.88 h 16.88 v -16.88 z"
   style="fill:#b3becb"
   id="path77" />
    </g><g
     transform="matrix(0.32561624,0,0,0.32561624,-9.659402,-0.07732179)"
     id="g81">
        <g
   transform="matrix(0.856765,0,0,1,223.19038,0)"
   id="g80">
            <g
   transform="matrix(65.534876,0,0,65.534876,1930.4911,1437.5507)"
   id="g79">
            </g>
            <text
   x="1558.21"
   y="1437.551"
   style="font-size:65.535px;font-family:GranthaSangamMN-Regular, 'Grantha Sangam MN';fill:#294823"
   id="text80"><tspan
     style="font-style:normal;font-variant:normal;font-weight:600;font-stretch:normal;font-size:65.535px;font-family:Dosis;-inkscape-font-specification:'Dosis Semi-Bold';font-variant-ligatures:normal;font-variant-caps:normal;font-variant-numeric:normal;font-variant-east-asian:normal"
     id="tspan172">seagl.org/cfp</tspan></text>
        </g>
    </g><g
     transform="matrix(0.16438573,0,0,0.18514832,650.67713,508.20257)"
     id="g82">
        <rect
   x="272"
   y="128"
   width="478"
   height="448"
   style="fill:#a8bed6"
   id="rect81" />
    </g><g
     transform="matrix(0.31487806,0,0,0.32072646,220.18901,243.29949)"
     id="g83">
        <ellipse
   cx="1627"
   cy="1015.5"
   rx="61"
   ry="62.5"
   style="fill:#383635"
   id="ellipse82" />
    </g><g
     transform="matrix(5.3010323e-4,-0.12728274,0.32284492,0.00134447,468.96842,707.30225)"
     id="g84">
        <rect
   x="272"
   y="128"
   width="478"
   height="448"
   style="fill:#a8bed6"
   id="rect83" />
    </g><g
     transform="matrix(0.0493797,-0.24646121,0.24553516,0.0487314,-8.181697,172.39203)"
     id="g85">
        <path
   d="m 686.477,2165.711 272.953,201.421 -136.477,190.79 220.824,72.875 -104.259,325.906 -220.824,-72.875 v 235.829 H 381.306 V 2883.828 L 160.482,2956.703 56.223,2630.797 277.047,2557.922 140.57,2367.132 413.523,2165.711 550,2356.5 Z"
   style="fill:#ef8fbc;stroke:#cd66ae;stroke-width:21.62px"
   id="path84" />
    </g><g
     transform="matrix(0.08756797,-0.13522907,0.13450718,0.08750643,206.29945,12.499982)"
     id="g89">
        <g
   transform="matrix(0.856765,0,0,1,52.137571,0)"
   id="g86">
            <text
   x="414.03052"
   y="2982.9368"
   style="font-weight:700;font-size:252.857px;font-family:SFProDisplay-Bold, 'SF Pro Display';fill:#612d54"
   id="text85"><tspan
     sodipodi:role="line"
     id="tspan137"
     x="414.03052"
     y="2982.9368"
     style="font-style:normal;font-variant:normal;font-weight:bold;font-stretch:normal;font-size:252.857px;font-family:Dosis;-inkscape-font-specification:'Dosis Bold';font-variant-ligatures:normal;font-variant-caps:normal;font-variant-numeric:normal;font-variant-east-asian:normal">Become a</tspan><tspan
     sodipodi:role="line"
     id="tspan138"
     x="414.03052"
     y="3305.9932"
     style="font-style:normal;font-variant:normal;font-weight:bold;font-stretch:normal;font-size:252.857px;font-family:Dosis;-inkscape-font-specification:'Dosis Bold';font-variant-ligatures:normal;font-variant-caps:normal;font-variant-numeric:normal;font-variant-east-asian:normal">Speaker</tspan></text>
        </g>
        
    </g><g
     transform="matrix(0.40258019,0,0,0.40258019,-105.89147,357.80743)"
     id="g92">
        <g
   transform="matrix(0.856765,0,0,1,227.96769,0)"
   id="g91">
            <g
   transform="matrix(75.29443,0,0,75.29443,1812.4359,726.16618)"
   id="g90">
            </g>
            <text
   x="1591.563"
   y="726.16602"
   style="font-weight:700;font-size:75.294px;font-family:SFProDisplay-Bold, 'SF Pro Display';fill:#3e4650"
   id="text90">T<tspan
   x="1626.7729"
   y="726.16602"
   id="tspan90">o</tspan>pics</text>
        </g>
    </g><g
     transform="matrix(0.22759826,0,0,0.22759826,-98.482499,508.70786)"
     id="g94">
        <text
   x="459"
   y="2038"
   style="font-weight:700;font-size:194.05px;font-family:SFProDisplay-Bold, 'SF Pro Display';fill:#423d4d"
   id="text92"><tspan
     sodipodi:role="line"
     id="tspan176"
     x="459"
     y="2038">November</tspan><tspan
     sodipodi:role="line"
     id="tspan177"
     x="459"
     y="2280.5625">6-7, 2026</tspan></text>
        <g
   transform="matrix(194.05044,0,0,194.05044,1297.3586,2269.5719)"
   id="g93">
        </g>
        
    </g><g
     transform="matrix(0.20735046,0,0,0.24201557,-141.86341,323.4229)"
     id="g111">
        <rect
   x="689"
   y="1369.411"
   width="322.76273"
   height="149.88499"
   style="fill:#76d1eb;stroke-width:0.951429"
   id="rect94" />
        <rect
   x="1583.3563"
   y="1369.411"
   width="588.19202"
   height="149.88499"
   style="fill:#fab106"
   id="rect95" />
        <rect
   x="1071.9623"
   y="1519.296"
   width="569.24841"
   height="149.88499"
   style="fill:#fff7bd;stroke-width:0.983457"
   id="rect96" />
        <rect
   x="686.87378"
   y="1679.9437"
   width="1050.244"
   height="149.88499"
   style="fill:#ba95ca;stroke-width:1.27497"
   id="rect97" />
        <rect
   x="1828.9861"
   y="1819.0649"
   width="399.48801"
   height="149.88499"
   style="fill:#ef8989"
   id="rect98" />
        <rect
   x="684.17212"
   y="1993.7672"
   width="1581.8353"
   height="149.88499"
   style="fill:#92ec79;fill-opacity:0.61;stroke-width:1.10027"
   id="rect99" />
        <rect
   x="684.17212"
   y="2160.1978"
   width="1016.6714"
   height="149.88499"
   style="fill:#b4b6b3;fill-opacity:0.61;stroke-width:1.20685"
   id="rect100" />
        <text
   x="689"
   y="1489"
   style="font-style:normal;font-variant:normal;font-weight:normal;font-stretch:normal;font-size:125.599px;font-family:Dosis;-inkscape-font-specification:'Dosis, Normal';font-variant-ligatures:normal;font-variant-caps:normal;font-variant-numeric:normal;font-variant-east-asian:normal;fill:#231f20"
   id="text100"><tspan
     sodipodi:role="line"
     id="tspan154"
     x="689"
     y="1489">SeaGL is an annual community</tspan><tspan
     sodipodi:role="line"
     id="tspan155"
     x="689"
     y="1645.9988">focused conference supporting</tspan><tspan
     sodipodi:role="line"
     x="689"
     y="1802.9976"
     id="tspan156">free libre/opensource software,</tspan><tspan
     sodipodi:role="line"
     x="689"
     y="1959.9962"
     id="tspan157">hardware and culture in Seattle,</tspan><tspan
     sodipodi:role="line"
     x="689"
     y="2116.9951"
     id="tspan162">@ The University of Washington's</tspan><tspan
     sodipodi:role="line"
     x="689"
     y="2273.9937"
     id="tspan163">Husky Union Building</tspan></text>
        
        
        
        
        
    </g><g
     transform="matrix(0.14614568,0,0,0.1705783,302.76813,242.48834)"
     id="g131">
        <text
   x="689"
   y="1489"
   style="font-size:127.26px;font-family:SFProDisplay-Regular, 'SF Pro Display';fill:#294823"
   id="text114"><tspan
     sodipodi:role="line"
     id="tspan165"
     x="689"
     y="1489"
     style="font-style:normal;font-variant:normal;font-weight:normal;font-stretch:normal;font-size:127.26px;font-family:Dosis;-inkscape-font-specification:'Dosis, Normal';font-variant-ligatures:normal;font-variant-caps:normal;font-variant-numeric:normal;font-variant-east-asian:normal">We're seeking presentations that</tspan><tspan
     sodipodi:role="line"
     id="tspan166"
     x="689"
     y="1651.5906"
     style="font-style:normal;font-variant:normal;font-weight:normal;font-stretch:normal;font-size:127.26px;font-family:Dosis;-inkscape-font-specification:'Dosis, Normal';font-variant-ligatures:normal;font-variant-caps:normal;font-variant-numeric:normal;font-variant-east-asian:normal">explore the intersections of</tspan><tspan
     sodipodi:role="line"
     x="689"
     y="1814.181"
     id="tspan167"
     style="font-style:normal;font-variant:normal;font-weight:normal;font-stretch:normal;font-size:127.26px;font-family:Dosis;-inkscape-font-specification:'Dosis, Normal';font-variant-ligatures:normal;font-variant-caps:normal;font-variant-numeric:normal;font-variant-east-asian:normal">technology community and </tspan><tspan
     sodipodi:role="line"
     x="689"
     y="1976.7716"
     id="tspan168"
     style="font-style:normal;font-variant:normal;font-weight:normal;font-stretch:normal;font-size:127.26px;font-family:Dosis;-inkscape-font-specification:'Dosis, Normal';font-variant-ligatures:normal;font-variant-caps:normal;font-variant-numeric:normal;font-variant-east-asian:normal">freedom. if you're engaged in</tspan><tspan
     sodipodi:role="line"
     x="689"
     y="2139.3621"
     id="tspan170"
     style="font-style:normal;font-variant:normal;font-weight:normal;font-stretch:normal;font-size:127.26px;font-family:Dosis;-inkscape-font-specification:'Dosis, Normal';font-variant-ligatures:normal;font-variant-caps:normal;font-variant-numeric:normal;font-variant-east-asian:normal">Free Software, we'd love to hear </tspan><tspan
     sodipodi:role="line"
     x="689"
     y="2301.9526"
     style="font-style:normal;font-variant:normal;font-weight:normal;font-stretch:normal;font-size:127.26px;font-family:Dosis;-inkscape-font-specification:'Dosis, Normal';font-variant-ligatures:normal;font-variant-caps:normal;font-variant-numeric:normal;font-variant-east-asian:normal"
     id="tspan171">from you.</tspan></text>
        
        
        
        
        
    </g><circle
     style="fill:#505050;fill-opacity:1;stroke:none;stroke-width:0.325616;stroke-linecap:round;stroke-linejoin:round;stroke-miterlimit:4.5;stroke-opacity:0.5"
     id="path140"
     cx="151.08778"
     cy="130.6582"
     r="7.0786138"
     inkscape:transform-center-x="150.16007"
     inkscape:transform-center-y="56.059765" /></g></svg>
