<?xml version="1.0" encoding="utf-8"?>
<!-- Generator: Adobe Illustrator 24.0.1, SVG Export Plug-In . SVG Version: 6.00 Build 0)  -->
<svg version="1.1" xmlns="http://www.w3.org/2000/svg" xmlns:xlink="http://www.w3.org/1999/xlink" x="0px" y="0px"
	 viewBox="0 0 283.46 283.46" style="enable-background:new 0 0 283.46 283.46;" xml:space="preserve">
<style type="text/css">
	.st0{fill:#DBDDD9;}
	.st1{fill:#FFFFFF;}
	.st2{fill:none;stroke:#000000;stroke-width:3;stroke-miterlimit:10;}
	.st3{fill:#E30613;}
	.st4{fill:#894F28;}
	.st5{fill:#3E2215;}
	.st6{fill:#DEB27E;}
	.st7{opacity:0.25;fill:#312783;}
	.st8{opacity:0.53;fill:#F5F0DA;}
	.st9{fill:none;}
	.st10{fill:#EB941E;}
	.st11{fill:#1F201D;}
	.st12{fill:#E2E0DB;}
	.st13{fill:#B7B6B0;}
	.st14{fill:#2FAC66;}
	.st15{fill:#312783;}
	.st16{fill:#E94D2A;}
	.st17{fill:#F5EA61;}
	.st18{fill:#1D71B8;}
	.st19{fill:#2D3B49;}
</style>
<g id="bg">
</g>
<g id="CUT">
</g>
<g id="BACK">
</g>
<g id="ILLUSTRATION">
</g>
<g id="SYMBOLS">
</g>
<g id="CARDS">
	<g>
		<path class="st1" d="M217.23,267.73h-151c-8.01,0-14.5-6.49-14.5-14.5v-223c0-8.01,6.49-14.5,14.5-14.5h151
			c8.01,0,14.5,6.49,14.5,14.5v223C231.73,261.24,225.24,267.73,217.23,267.73z"/>
		<g>
			<g>
				<g>
					<path class="st11" d="M126.37,68.06c0.57,2.69,0.32,5.36-0.09,8.03c-0.2,1.3-0.48,2.59-0.74,3.98
						c2.37-0.85,4.01,0.27,5.57,2.04c0-1.22-0.02-2.23,0-3.23c0.09-3.25,0.85-6.31,2.6-9.1c3.17-5.06,7.74-7.38,13.64-6.68
						c5.04,0.6,8.46,3.52,10.42,8.16c1.55,3.68,1.73,7.52,1.35,11.44c-0.41,4.15-1.85,7.88-4.25,11.27
						c-1.42,2.01-3.22,3.69-4.82,5.55c-3.08,3.6-3.81,7.55-1.86,11.95c0.3,0.68,0.56,0.73,1.17,0.39c2.35-1.3,4.71-2.59,7.11-3.8
						c2.59-1.32,5.32-2.25,8.22-2.65c1.32-0.18,2.65,0.01,4-0.16c-0.38-1.39-0.81-2.73-0.94-4.14c-0.28-3.18,0.33-6.3,0.55-9.44
						c0.43-6.14,0.03-12.17-2.06-18c-1.43-3.99-3.77-7.34-7.49-9.56c-5.96-3.57-12.54-4.95-19.36-5.47
						c-2.53-0.19-5.07-0.15-7.6,0.01c-2.19,0.14-4.37,0.38-6.47,1.12c-1.83,0.65-3.43,1.65-4.88,3.07
						C123.91,63.14,125.67,64.74,126.37,68.06z"/>
					<path class="st14" d="M76.13,110.21c1.93,4.51,6.32,7.48,9.92,6.75C84.69,112.91,79.69,110.05,76.13,110.21z"/>
					<path class="st1" d="M119.92,76.79c2.03,0,2.03-3.15,0-3.15C117.89,73.64,117.89,76.79,119.92,76.79z"/>
					<path class="st14" d="M98.79,110.63c0.15-0.42-0.01-0.52-0.35-0.42c-0.65,0.19-1.29,0.39-1.93,0.63
						c-3.12,1.16-5.56,3.11-7.13,6.23c0.93-0.12,1.74-0.2,2.54-0.34C95.45,116.1,97.6,113.91,98.79,110.63z"/>
					<path class="st1" d="M112.79,87.8c3.51-2.22,7.2-4.16,10.56-6.61c0.19-0.14,0.34-0.28,0.41-0.56
						c0.89-3.68,1.63-7.38,1.27-11.19c-0.14-1.48-0.63-2.88-1.96-3.78c-1.82-1.23-4.85-0.54-6.13,1.38c-0.6,0.9-1.1,1.87-1.55,2.86
						c-1.5,3.34-2.38,6.84-2.64,10.49c-0.18,2.47-0.45,4.94-0.14,7.42C112.69,87.81,112.75,87.83,112.79,87.8z M116.99,70.67
						c0.61-1.17,1.57-1.81,2.6-1.9c1.41,0.01,2.67,1.27,2.67,2.38c0,0.14-0.02,0.27-0.15,0.35c-0.14,0.08-0.26,0.03-0.37-0.07
						c-0.06-0.06-0.12-0.11-0.18-0.17c-1.56-1.31-2.53-1.36-4.12-0.18c-0.19,0.14-0.38,0.46-0.61,0.27
						C116.54,71.13,116.88,70.88,116.99,70.67z M116.05,77.93c-0.05-1.45,0.31-2.73,1.11-3.88c0.35-0.5,0.79-0.9,1.32-1.19
						c1.56-0.85,2.87-0.38,3.54,1.28c0.92,2.26,0.32,5.54-1.29,7.07c-1.6,1.53-3.65,1.01-4.38-1.08
						C116.09,79.4,116.02,78.65,116.05,77.93z"/>
					<path class="st11" d="M143.59,156.07c-2.67,3.95-4.36,8.19-3.63,13.07c0.29,1.95,1.12,3.68,2.57,5.05
						c0.95,0.9,1.56,0.89,2.56,0.04c1.08-0.93,1.95-2.05,2.78-3.2c3-4.19,6.78-7.37,11.61-9.28c2.98-1.17,5.79-2.7,8.56-4.31
						c0.72-0.42,0.81-0.92,0.68-1.59c-0.31-1.7-0.59-3.41-0.96-5.11c-1.25-5.81-3.34-11.25-7.13-15.93
						c-0.93-1.15-1.9-2.28-3.14-3.31c-0.07,1.18-0.16,2.23-0.19,3.28c-0.05,1.55-0.3,3.07-0.77,4.55c-1.26,3.93-3.64,7.15-6.62,9.93
						C147.63,151.37,145.34,153.47,143.59,156.07z"/>
					<path class="st1" d="M156.43,201.29c2.79-4.91,3.76-10.3,3.96-15.86c0.1-2.75-0.15-5.49-0.46-8.23
						c-0.44-3.86-1.23-7.64-2.3-11.37c-0.11-0.4-0.22-0.47-0.59-0.28c-2.45,1.26-4.56,2.94-6.32,5.07
						c-1.44,1.74-2.67,3.65-4.32,5.21c-1.8,1.71-3.61,1.74-5.37,0.02c-1.01-0.99-1.7-2.18-2.23-3.47
						c-1.56-3.77-1.17-7.55,0.12-11.28c1.79-5.2,5.1-9.35,9.12-13.01c4.37-3.97,7.47-8.6,7.51-14.79c0.01-1.92-0.1-3.82-1.22-5.47
						c-1.13-1.67-2.13-3.4-2.83-5.29c-0.17-0.46-0.37-0.4-0.72-0.25c-0.97,0.41-1.95,0.8-2.93,1.19c-4.75,1.94-9.67,3.18-14.78,3.51
						c-3.53,0.23-7.07,0.01-10.54-0.79c-5.19-1.18-10.2-2.78-14.23-6.51c-0.29-0.27-0.45-0.21-0.61,0.09
						c-0.11,0.19-0.22,0.38-0.33,0.56c-2.6,4.33-4.26,9-5.01,13.98c-0.35,2.29-0.46,4.63-0.05,6.92c0.49,2.73,0.25,5.3-0.84,7.87
						c-3.63,8.58-5.64,17.56-6.33,26.83c-0.29,3.89-0.21,7.78,0.27,11.66c0.46,3.7,1.28,7.3,2.65,10.76
						c2.27,5.69,5.64,10.52,10.99,13.76c5.33,3.24,11.17,4.45,17.33,4.47c1.75,0.04,3.48-0.12,5.21-0.31
						c4.24-0.47,8.28-1.58,12.1-3.47C149.03,210.2,153.46,206.54,156.43,201.29z"/>
					<path class="st1" d="M110.56,118.95c2.03,1.63,4.29,2.84,6.71,3.77c5.89,2.24,11.96,3.08,18.22,2.17
						c4.55-0.66,8.88-2.11,13.07-3.96c3.78-1.68,7.47-3.59,11.4-4.92c3.58-1.21,7.24-1.7,10.96-0.73c3.22,0.83,5.91,2.53,7.96,5.44
						c0-0.35,0.02-0.49,0-0.62c-0.5-2.95-1.78-5.55-3.62-7.89c-2.22-2.82-5.09-4.3-8.72-4.33c-2.28-0.02-4.46,0.46-6.63,1.09
						c-3.54,1.04-6.69,2.91-9.95,4.56c-5.17,2.61-10.45,4.84-16.31,5.38c-2.73,0.25-5.42,0.17-8.09-0.47
						c-4.79-1.16-8.91-3.5-12.32-7.07c-0.29-0.31-0.45-0.44-0.77,0c-0.83,1.14-1.76,2.21-2.57,3.37
						C108.7,116.44,108.94,117.65,110.56,118.95z"/>
					<path class="st11" d="M97.67,150.12c0.28-2.01,0.57-4.03,0.87-6.04c0.35-2.41,0.69-4.83,1.08-7.24
						c0.49-3.04,1.26-6.01,2.13-8.96c-0.19-0.07-0.28,0.06-0.38,0.12c-2.13,1.28-4.38,2.02-6.9,1.5c-0.22-0.05-0.37-0.06-0.53,0.2
						c-0.57,0.9-1.47,1.33-2.46,1.6c-1.33,0.37-2.67,0.66-3.96,1.16c-0.39,0.15-0.62,0.34-0.59,0.83c0.11,1.9,0.24,3.79,0.6,5.67
						c0.37,1.95,1.09,3.79,1.77,5.64c0.22,0.59,0.09,1.08-0.52,1.35c-0.59,0.26-0.97-0.01-1.27-0.52c-0.69-1.15-1.03-2.43-1.38-3.71
						c-0.65-2.39-0.94-4.83-1.02-7.46c-0.49,0.41-0.85,0.7-1.2,1c-0.24,0.2-0.46,0.59-0.79,0.37c-0.35-0.23-0.19-0.63-0.06-0.97
						c0.8-2.03,2.25-3.34,4.32-4c1.26-0.4,2.56-0.67,3.76-1.26c1.44-0.7,1.74-1.6,0.96-2.96c-1.44-2.51-5.43-4.22-8.36-3.05
						c-3.98,1.59-5.92,5.23-6.1,9.39c-0.12,2.82,0.86,5.37,2.37,7.73c2.57,4.02,6.25,6.66,10.57,8.5c2.02,0.86,4.08,1.59,6.29,1.8
						C97.41,150.85,97.6,150.61,97.67,150.12z"/>
					<path class="st3" d="M92.85,187.75c-0.07,0.23-0.14,0.46-0.21,0.68c-1.35,4.35-2.95,8.59-5.17,12.58
						c-2.24,4.03-5.13,7.55-8.42,10.75c-0.56,0.54-0.4,0.75,0.14,1.09c1.7,1.05,3.51,1.81,5.46,2.24c2.9,0.63,4.55-0.06,6.12-2.6
						c2.2-3.54,3.75-7.36,5.01-11.32c0.2-0.64,0.15-1.19-0.07-1.8C94.31,195.63,93.46,191.75,92.85,187.75z"/>
					<path class="st3" d="M199.19,204.85c-4.45-5.71-7.61-12.09-9.66-19.03c-2.39-8.11-3.7-16.42-4.57-24.81
						c-0.44-4.24-0.8-8.5-1.15-12.75c-0.36-4.39-0.81-8.76-1.67-13.08c-0.74-3.75-1.7-7.45-3.62-10.8c-3.45-6.02-8.1-7.7-14.01-7.11
						c-3.89,0.39-7.46,1.96-10.97,3.62c-0.49,0.23-0.48,0.46-0.26,0.93c1.56,3.44,3.81,6.37,6.43,9.06
						c1.83,1.87,3.49,3.89,4.88,6.11c3.94,6.31,5.78,13.3,6.76,20.58c0.42,3.15,0.84,6.29,1.17,9.45c0.4,3.75,0.89,7.5,1.26,11.26
						c0.33,3.38,0.76,6.74,1.21,10.1c0.57,4.29,1.21,8.58,2.08,12.83c0.93,4.51,2.09,8.95,4.08,13.13c0.2,0.41,0.41,0.82,0.63,1.22
						c7.8-0.1,15.75-1.36,22.45-5.49C202.41,208.52,200.7,206.79,199.19,204.85z"/>
					<path class="st10" d="M160.97,219.01c-3.4,0.96-6.86,1.34-10.39,0.88c-0.53-0.07-0.99-0.08-1.2,0.6
						c-0.12,0.39-0.45,0.74-0.73,1.06c-1.57,1.82-3.62,3.03-5.57,4.36c-1.6,1.09-3.19,2.17-4.63,3.75c3.16,0.02,5.91,0.51,6.95,4.02
						c1.43-2.83,3.2-5.29,5.16-7.62c0.23-0.27,0.52-0.83,0.86-0.59c0.43,0.29-0.06,0.74-0.24,1.04c-1.21,2.15-2.48,4.27-3.71,6.4
						c-0.19,0.32-0.47,0.63-0.42,1.12c1.88-0.86,3.75-1.44,5.78-1.45c2-0.01,3.92,0.21,5.36,1.83c1.32-1.75,2.87-5.44,3.54-8.34
						c0.5-2.16,0.74-4.33,0.19-6.52C161.78,219,161.61,218.83,160.97,219.01z"/>
					<path class="st11" d="M173.82,196.79c-0.61-3.3-1.1-6.63-1.52-9.96c-0.37-2.91-0.76-5.81-1.09-8.73
						c-0.32-2.89-0.54-5.79-0.86-8.68c-0.34-3.05-0.75-6.09-1.1-9.13c-0.13-1.12-0.14-1.15-1.08-0.62c-2.83,1.6-5.64,3.23-8.65,4.46
						c-0.57,0.24-0.63,0.45-0.45,1.02c1.43,4.61,2.5,9.31,2.94,14.12c0.36,3.99,0.34,7.99-0.28,11.97
						c-0.65,4.13-1.89,8.04-4.04,11.65c-3.16,5.31-7.9,8.8-13.28,11.56c-0.78,0.4-1.59,0.75-2.54,1.2c0.73,0.21,1.29,0.36,1.84,0.54
						c2.59,0.82,5.21,1.49,7.92,1.68c2.56,0.18,5.11-0.05,7.61-0.63c6.91-1.58,12.25-5.37,15.97-11.42
						c0.19-0.31,0.24-0.59,0.16-0.99C174.81,202.16,174.32,199.48,173.82,196.79z"/>
					<path class="st10" d="M126.29,218.4c-3.41,0.07-6.81-0.12-10.09-1.07c-1.48-0.43-2.69-0.4-4.15,0.19
						c-2.7,1.08-5.54,1.78-8.31,2.69c-1.53,0.5-3.02,1.1-4.55,2.12c1.19-0.06,2.1,0.14,2.93,0.64c0.94,0.57,1.15,1.5,1.21,2.57
						c0.16-0.11,0.24-0.16,0.32-0.22c2.29-1.66,4.67-3.17,7.24-4.36c0.64-0.3,1.28-0.59,2-0.61c0.13,0,0.28-0.04,0.34,0.13
						c0.05,0.15-0.02,0.26-0.14,0.35c-0.13,0.09-0.26,0.19-0.4,0.27c-1.9,1.11-3.72,2.33-5.53,3.59c-0.97,0.67-1.96,1.32-2.96,2.25
						c2.07-0.24,3.95-0.47,5.85-0.19c1.95,0.29,3.81,0.7,4.8,2.77c0.9-0.95,1.84-1.82,2.84-2.61c2.16-1.7,4.54-3.07,6.77-4.67
						c0.97-0.7,1.97-1.38,2.6-2.44C127.62,218.87,127.34,218.38,126.29,218.4z"/>
					<path class="st10" d="M116.46,91.22c3.48,0.28,6.94,0.27,10.37-0.51c2.61-0.59,5.08-1.46,7.29-3.02
						c0.51-0.36,0.55-0.7,0.13-1.12c-0.19-0.19-0.39-0.4-0.62-0.53c-1.75-0.99-3.23-2.3-4.62-3.72c-1.22-1.24-2.51-1.36-3.96-0.42
						c-1.14,0.74-2.23,1.54-3.36,2.3c-2.86,1.91-5.96,3.46-8.73,5.52c-0.63,0.47-1.21,0.99-1.57,1.74c0.34,0.12,0.64,0.1,0.92,0.03
						C113.69,91.15,115.08,91.11,116.46,91.22z M126.28,86.11c0.48-0.25,0.99-0.42,1.52-0.54c0.3-0.07,0.49-0.01,0.62,0.22
						c0.16,0.28,0.02,0.54-0.21,0.71c-0.49,0.36-1.07,0.49-1.6,0.6c-0.34-0.02-0.64-0.04-0.73-0.36
						C125.81,86.44,126.02,86.25,126.28,86.11z"/>
					<path class="st1" d="M114.06,109.09c-0.23,0.37-0.03,0.55,0.16,0.77c0.9,1.02,1.89,1.96,2.98,2.79
						c5.29,4.03,11.3,5.22,17.77,4.38c4.01-0.52,7.74-1.99,11.35-3.76c0.5-0.25,0.58-0.5,0.36-1.01c-0.64-1.44-1.04-2.97-1.16-4.54
						c-0.24-3.2,0.75-6.04,2.63-8.61c1.38-1.9,3.06-3.55,4.51-5.38c2.67-3.38,4.23-7.21,4.67-11.5c0.32-3.12,0.18-6.18-0.87-9.16
						c-3.07-8.72-12.9-10.2-18.7-5.19c-4.12,3.56-5.53,8.27-5.13,13.64c0.13,1.68,0.73,2.73,2.2,3.63c2.3,1.41,2.57,3.25,1.2,5.59
						c-0.53,0.91-1.23,1.67-2,2.36c-2.94,2.63-6.39,3.53-10.26,3.08c-2.53-0.29-4.88-1.16-7.22-2.1c-1.04-0.42-2.07-0.78-3.28-0.5
						c0.47,1.44,0.95,2.87,1.41,4.31C115.9,101.7,116.29,105.47,114.06,109.09z M141.55,69.92c2.45-1.82,6.4-0.27,7.03,2.72
						c0.04,0.19,0.11,0.41-0.07,0.52c-0.19,0.12-0.35-0.03-0.49-0.17c-0.31-0.31-0.61-0.62-0.92-0.92c-1.52-1.48-3.32-1.76-5.2-0.81
						c-0.5,0.26-1,0.52-1.59,0.84C140.16,70.92,140.9,70.4,141.55,69.92z M139.82,75.62c0.78-2.13,3.83-3.84,6.05-1.92
						c0.92,0.8,1.48,1.86,1.55,3.05c0.13,2.19-0.3,4.27-1.83,5.97c-0.66,0.73-1.46,1.23-2.42,1.11c-1.52,0.07-2.52-0.59-3.11-1.89
						C139.12,79.87,139.05,77.73,139.82,75.62z"/>
					<path class="st1" d="M144.05,78.04c2.03,0,2.03-3.15,0-3.15C142.02,74.89,142.02,78.04,144.05,78.04z"/>
					<path class="st10" d="M117.99,92.9c1.16,0.59,2.37,1,3.61,1.32c3.94,1.03,7.64,0.67,10.9-1.97c1.09-0.88,2.08-1.87,2.57-3.37
						C129.75,92.15,123.98,92.97,117.99,92.9z"/>
					<path class="st11" d="M205.36,207.64c-1.64-1.56-3.14-3.27-4.5-5.07c-5.65-7.48-8.84-16.02-10.84-25.08
						c-0.84-3.81-1.52-7.65-2-11.52c-0.37-2.99-0.76-5.98-1.1-8.97c-0.27-2.4-0.44-4.82-0.7-7.22c-0.34-3.1-0.74-6.2-1.1-9.3
						c-0.36-3.04-0.89-6.05-1.58-9.03c-0.37-1.61-0.95-3.18-1.18-4.8c-0.4-2.87-0.67-5.76-1.52-8.55
						c-1.53-5.02-4.08-9.28-8.89-11.83c-0.21-0.11-0.34-0.26-0.42-0.47c-0.82-2.22-1.52-4.45-1.49-6.87
						c0.04-2.54,0.42-5.04,0.55-7.57c0.2-3.92,0.27-7.83-0.35-11.73c-0.85-5.34-2.72-10.14-6.3-14.09
						c-3.08-1.93-6.11-4.14-9.45-5.54c-3.54-1.48-7.4-2.33-11.21-2.66c-3.63-0.31-7.36-0.33-11-0.35c-3.24-0.02-6.58,0.18-9.4,1.94
						c-0.49,0.3-0.96,0.41-1.4,0.37c-3.49,2.08-5.97,5.11-7.59,8.89c-2.84,6.61-3.8,13.54-3.27,20.7c0.03,0.38-0.05,0.66-0.3,0.96
						c-0.56,0.67-1.08,1.37-1.58,2.08c-0.38,0.54-0.21,0.98,0.38,1.23c0.47,0.2,0.97,0.34,1.49,0.35c0.32,0,0.57,0.02,0.71,0.47
						c0.57,1.92,1.23,3.81,1.84,5.71c0.85,2.66,0.87,5.27-0.49,7.8c-0.87,1.61-2.05,3-3.18,4.43c-1.01,1.27-2.17,2.5-2.49,4.14
						c-0.17,0.86-0.59,1.54-1,2.26c-0.63,1.11-1.27,2.21-1.88,3.33c-0.57,1.05-1.2,2.07-2,2.96c-1.72,1.91-3.77,3.17-6.46,3.1
						c-0.73-0.02-1.25-0.24-1.53-1.02c-0.88-2.41-2.72-3.86-4.99-4.86c-1.51-0.66-1.48-0.65-0.95-2.3c0.21-0.64,0.49-0.88,1.19-0.92
						c1.81-0.09,3.64-0.17,5.33-0.94c2.94-1.33,4.58-3.81,5.78-6.66c0.21-0.5,0.44-0.99,0.49-1.54c0.06-0.69-0.43-1.17-1.1-1.06
						c-0.77,0.13-1.55,0.26-2.3,0.48c-3.19,0.92-6.12,2.26-7.99,5.21c-0.07,0.11-0.19,0.18-0.33,0.31c0.09-0.92,0.18-1.83,0.27-2.74
						c-0.18,0.04-0.37,0.06-0.58,0.06c-0.47,0-0.86-0.12-1.2-0.31c-0.17,1.34-0.39,2.7-0.58,4.1c-0.2-0.37-0.3-0.55-0.4-0.74
						c-1.58-2.79-3.72-4.9-6.92-5.79c-2.09-0.59-4.21-0.43-6.32-0.44c-0.32,0-0.67,0.12-0.81,0.46c-0.17,0.39,0.05,0.7,0.32,0.94
						c1.22,1.11,2.13,2.46,3.02,3.84c1.47,2.27,3.56,3.68,6.14,4.42c1.23,0.35,2.5,0.44,3.76,0.65c0.17,0.03,0.49-0.09,0.45,0.19
						c-0.09,0.61-0.21,1.24-0.45,1.8c-0.14,0.33-0.62,0.26-0.96,0.28c-1.56,0.11-2.95,0.65-4.23,1.51
						c-4.11,2.77-6.13,8.44-4.87,13.56c1.19,4.89,4.08,8.6,8.08,11.47c3.86,2.78,8.17,4.54,12.93,5.07c0.61,0.07,0.46,0.34,0.35,0.7
						c-1.42,4.86-2.58,9.78-3.38,14.78c-0.44,2.76-0.87,5.52-1.05,8.31c-0.1,1.49-0.1,3.01-0.4,4.47
						c-0.98,4.64-2.47,9.13-4.37,13.48c-2.44,5.57-5.52,10.72-10.04,14.9c-0.62,0.57-1.26,1.12-1.87,1.71
						c-0.93,0.9-0.91,1.71,0.1,2.53c0.52,0.43,1.09,0.83,1.68,1.15c2.4,1.29,4.92,2.33,7.64,2.58c2.51,0.22,4.96-0.16,6.69-2.34
						c0.13-0.16,0.29-0.25,0.46-0.31c1.38-0.49,2.79-0.85,4.24-1.06c2.76-0.4,5.53-0.28,8.31-0.22c2.53,0.06,4.36,1.56,6.65,2.37
						c-1.3,0.62-2.53,0.94-3.75,1.28c-3.76,1.06-7.45,2.28-10.85,4.25c-0.68,0.4-1.35,0.81-1.88,1.42
						c-0.29,0.34-0.43,0.72-0.26,1.13c0.16,0.37,0.54,0.38,0.9,0.43c1.28,0.16,2.56,0.02,3.84,0.09c1.55,0.08,2.02,0.91,1.25,2.26
						c-0.35,0.61-0.78,1.17-1.15,1.77c-0.2,0.32-0.25,0.68-0.03,1c0.24,0.35,0.62,0.3,0.97,0.23c0.32-0.06,0.63-0.16,0.95-0.22
						c2.26-0.46,4.51-1.01,6.84-0.87c2.05,0.12,4.07,0.37,4.71,2.87c0.19,0.74,0.79,0.87,1.42,0.66c0.31-0.11,0.59-0.39,0.83-0.64
						c1.54-1.56,3.22-2.93,4.99-4.21c2.12-1.52,4.4-2.8,6.41-4.48c1.29-1.08,2.48-2.25,2.39-4.13c-0.02-0.43,0.25-0.4,0.53-0.4
						c0.98,0,1.95-0.14,2.92-0.28c1.61-0.23,3.21-0.55,4.83-0.68c3.61-0.29,6.86,1.16,10.24,2.21c-0.55,0.86-1.2,1.5-1.9,2.11
						c-2.03,1.74-4.32,3.11-6.49,4.66c-1.65,1.18-3.16,2.51-4.2,4.29c-0.53,0.91-0.16,1.49,0.87,1.45c1.28-0.05,2.55-0.23,3.83-0.18
						c1.69,0.07,2.93,0.97,3.47,2.57c0.22,0.65,0.28,1.32,0.32,2c0.04,0.96,0.52,1.21,1.34,0.76c0.5-0.27,0.98-0.58,1.47-0.87
						c2.22-1.34,4.59-2.05,7.21-1.84c1.28,0.11,2.44,0.53,3.12,1.65c1.06,1.78,1.55,1,2.41-0.01c0.05-0.06,0.09-0.14,0.13-0.21
						c2.03-3.03,3.26-6.4,4.09-9.92c0.58-2.47,0.95-4.97,0.01-7.45c-0.08-0.2-0.02-0.33,0.15-0.38c0.98-0.28,1.81-0.89,2.91-0.9
						c6.98-0.08,13.83,2.11,20.82,1.62c3.86-0.27,7.66-1.19,11.27-2.55c1.87-0.7,3.69-1.53,5.45-2.47c1.12-0.59,3.26-0.9,3.74-2.18
						c0.01-0.02,0.02-0.04,0.02-0.07C208.63,209.78,206.43,208.66,205.36,207.64z M96.51,110.84c0.63-0.24,1.28-0.44,1.93-0.63
						c0.35-0.1,0.51-0.01,0.35,0.42c-1.19,3.28-3.34,5.47-6.87,6.1c-0.8,0.14-1.61,0.22-2.54,0.34
						C90.94,113.96,93.38,112.01,96.51,110.84z M76.13,110.21c3.56-0.15,8.57,2.7,9.92,6.75C82.45,117.69,78.06,114.72,76.13,110.21
						z M125.34,59.75c2.09-0.75,4.27-0.98,6.47-1.12c2.53-0.17,5.06-0.21,7.6-0.01c6.82,0.52,13.4,1.91,19.36,5.47
						c3.72,2.23,6.06,5.57,7.49,9.56c2.09,5.83,2.49,11.86,2.06,18c-0.22,3.14-0.83,6.26-0.55,9.44c0.12,1.41,0.56,2.75,0.94,4.14
						c-1.35,0.17-2.67-0.02-4,0.16c-2.91,0.4-5.63,1.33-8.22,2.65c-2.4,1.22-4.75,2.51-7.11,3.8c-0.61,0.34-0.87,0.28-1.17-0.39
						c-1.95-4.4-1.22-8.35,1.86-11.95c1.59-1.86,3.39-3.54,4.82-5.55c2.4-3.39,3.84-7.12,4.25-11.27c0.38-3.92,0.2-7.77-1.35-11.44
						c-1.96-4.64-5.38-7.57-10.42-8.16c-5.9-0.7-10.47,1.63-13.64,6.68c-1.75,2.79-2.51,5.85-2.6,9.1c-0.03,1.01,0,2.02,0,3.23
						c-1.56-1.77-3.19-2.89-5.57-2.04c0.26-1.39,0.54-2.68,0.74-3.98c0.41-2.67,0.66-5.34,0.09-8.03c-0.7-3.32-2.46-4.92-5.91-5.24
						C121.9,61.4,123.5,60.4,125.34,59.75z M112.76,80.39c0.26-3.66,1.14-7.15,2.64-10.49c0.45-0.99,0.95-1.95,1.55-2.86
						c1.28-1.93,4.31-2.61,6.13-1.38c1.33,0.9,1.82,2.3,1.96,3.78c0.36,3.81-0.38,7.51-1.27,11.19c-0.07,0.28-0.22,0.42-0.41,0.56
						c-3.36,2.45-7.05,4.39-10.56,6.61c-0.04,0.02-0.1,0.01-0.17,0.01C112.31,85.33,112.58,82.86,112.76,80.39z M112.33,91.48
						c-0.28,0.07-0.58,0.09-0.92-0.03c0.36-0.75,0.94-1.27,1.57-1.74c2.77-2.06,5.87-3.6,8.73-5.52c1.13-0.75,2.22-1.56,3.36-2.3
						c1.45-0.94,2.74-0.82,3.96,0.42c1.4,1.42,2.88,2.73,4.62,3.72c0.23,0.13,0.43,0.34,0.62,0.53c0.42,0.42,0.38,0.76-0.13,1.12
						c-2.21,1.55-4.68,2.42-7.29,3.02c-3.43,0.78-6.89,0.78-10.37,0.51C115.08,91.11,113.69,91.15,112.33,91.48z M135.07,88.89
						c-0.49,1.5-1.48,2.49-2.57,3.37c-3.27,2.64-6.97,2.99-10.9,1.97c-1.24-0.32-2.44-0.74-3.61-1.32
						C123.98,92.97,129.75,92.15,135.07,88.89z M113.27,93.57c1.21-0.28,2.24,0.08,3.28,0.5c2.33,0.94,4.69,1.81,7.22,2.1
						c3.87,0.45,7.33-0.45,10.26-3.08c0.77-0.69,1.47-1.45,2-2.36c1.36-2.34,1.09-4.18-1.2-5.59c-1.47-0.9-2.07-1.95-2.2-3.63
						c-0.4-5.37,1.01-10.08,5.13-13.64c5.8-5.01,15.63-3.54,18.7,5.19c1.05,2.98,1.19,6.04,0.87,9.16c-0.44,4.3-2,8.13-4.67,11.5
						c-1.45,1.84-3.13,3.48-4.51,5.38c-1.87,2.57-2.87,5.4-2.63,8.61c0.12,1.58,0.52,3.1,1.16,4.54c0.23,0.51,0.15,0.77-0.36,1.01
						c-3.61,1.77-7.34,3.24-11.35,3.76c-6.47,0.85-12.48-0.34-17.77-4.38c-1.09-0.83-2.08-1.76-2.98-2.79
						c-0.19-0.22-0.39-0.4-0.16-0.77c2.23-3.62,1.84-7.4,0.62-11.21C114.22,96.44,113.74,95.01,113.27,93.57z M109.9,114.73
						c0.81-1.16,1.74-2.23,2.57-3.37c0.32-0.44,0.47-0.3,0.77,0c3.41,3.57,7.53,5.9,12.32,7.07c2.67,0.65,5.37,0.72,8.09,0.47
						c5.85-0.54,11.14-2.77,16.31-5.38c3.26-1.64,6.42-3.52,9.95-4.56c2.16-0.64,4.35-1.11,6.63-1.09c3.63,0.03,6.49,1.51,8.72,4.33
						c1.84,2.34,3.12,4.94,3.62,7.89c0.02,0.13,0,0.27,0,0.62c-2.05-2.91-4.74-4.61-7.96-5.44c-3.72-0.96-7.38-0.48-10.96,0.73
						c-3.93,1.33-7.61,3.24-11.4,4.92c-4.2,1.86-8.52,3.31-13.07,3.96c-6.26,0.9-12.33,0.07-18.22-2.17
						c-2.42-0.92-4.68-2.14-6.71-3.77C108.94,117.65,108.7,116.44,109.9,114.73z M96.84,150.8c-2.21-0.21-4.27-0.94-6.29-1.8
						c-4.32-1.84-8-4.48-10.57-8.5c-1.51-2.35-2.49-4.91-2.37-7.73c0.18-4.16,2.12-7.8,6.1-9.39c2.93-1.17,6.92,0.54,8.36,3.05
						c0.78,1.36,0.48,2.25-0.96,2.96c-1.2,0.58-2.5,0.85-3.76,1.26c-2.08,0.66-3.53,1.97-4.32,4c-0.13,0.33-0.29,0.74,0.06,0.97
						c0.33,0.22,0.56-0.17,0.79-0.37c0.35-0.3,0.71-0.59,1.2-1c0.09,2.64,0.37,5.08,1.02,7.46c0.35,1.28,0.69,2.56,1.38,3.71
						c0.3,0.51,0.68,0.78,1.27,0.52c0.62-0.27,0.74-0.75,0.52-1.35c-0.68-1.85-1.4-3.69-1.77-5.64c-0.35-1.88-0.49-3.77-0.6-5.67
						c-0.03-0.49,0.2-0.68,0.59-0.83c1.29-0.5,2.64-0.79,3.96-1.16c0.99-0.27,1.89-0.7,2.46-1.6c0.16-0.26,0.31-0.24,0.53-0.2
						c2.52,0.52,4.77-0.22,6.9-1.5c0.11-0.06,0.19-0.19,0.38-0.12c-0.87,2.95-1.65,5.92-2.13,8.96c-0.38,2.41-0.73,4.82-1.08,7.24
						c-0.29,2.01-0.58,4.02-0.87,6.04C97.6,150.61,97.41,150.85,96.84,150.8z M95.77,201.17c-1.26,3.96-2.81,7.78-5.01,11.32
						c-1.57,2.54-3.22,3.23-6.12,2.6c-1.95-0.42-3.76-1.18-5.46-2.24c-0.54-0.33-0.7-0.54-0.14-1.09c3.29-3.2,6.18-6.72,8.42-10.75
						c2.22-3.99,3.82-8.23,5.17-12.58c0.07-0.23,0.14-0.46,0.21-0.68c0.62,4,1.46,7.87,2.85,11.62
						C95.92,199.98,95.97,200.53,95.77,201.17z M127.06,219.8c-0.63,1.05-1.63,1.74-2.6,2.44c-2.23,1.6-4.61,2.97-6.77,4.67
						c-1.01,0.79-1.94,1.66-2.84,2.61c-0.99-2.06-2.85-2.48-4.8-2.77c-1.9-0.28-3.78-0.05-5.85,0.19c0.99-0.94,1.99-1.58,2.96-2.25
						c1.81-1.25,3.64-2.47,5.53-3.59c0.14-0.08,0.27-0.18,0.4-0.27c0.12-0.08,0.19-0.2,0.14-0.35c-0.06-0.17-0.21-0.14-0.34-0.13
						c-0.72,0.02-1.37,0.31-2,0.61c-2.57,1.19-4.95,2.7-7.24,4.36c-0.08,0.06-0.17,0.12-0.32,0.22c-0.06-1.07-0.28-2-1.21-2.57
						c-0.83-0.5-1.74-0.7-2.93-0.64c1.53-1.02,3.02-1.62,4.55-2.12c2.77-0.9,5.62-1.61,8.31-2.69c1.46-0.58,2.67-0.61,4.15-0.19
						c3.28,0.95,6.68,1.14,10.09,1.07C127.34,218.38,127.62,218.87,127.06,219.8z M131.58,216.29c-1.73,0.19-3.47,0.35-5.21,0.31
						c-6.15-0.02-12-1.23-17.33-4.47c-5.34-3.25-8.72-8.07-10.99-13.76c-1.38-3.46-2.19-7.06-2.65-10.76
						c-0.49-3.88-0.56-7.78-0.27-11.66c0.69-9.27,2.7-18.25,6.33-26.83c1.08-2.56,1.33-5.14,0.84-7.87
						c-0.41-2.29-0.3-4.63,0.05-6.92c0.75-4.98,2.41-9.65,5.01-13.98c0.11-0.19,0.22-0.37,0.33-0.56c0.17-0.3,0.32-0.36,0.61-0.09
						c4.03,3.73,9.04,5.33,14.23,6.51c3.47,0.79,7.01,1.02,10.54,0.79c5.11-0.33,10.04-1.58,14.78-3.51
						c0.98-0.4,1.96-0.78,2.93-1.19c0.34-0.15,0.54-0.21,0.72,0.25c0.7,1.89,1.71,3.62,2.83,5.29c1.12,1.66,1.23,3.55,1.22,5.47
						c-0.03,6.18-3.14,10.81-7.51,14.79c-4.02,3.65-7.33,7.81-9.12,13.01c-1.29,3.73-1.68,7.51-0.12,11.28
						c0.53,1.29,1.22,2.48,2.23,3.47c1.76,1.71,3.57,1.69,5.37-0.02c1.65-1.57,2.88-3.48,4.32-5.21c1.76-2.13,3.87-3.81,6.32-5.07
						c0.37-0.19,0.47-0.11,0.59,0.28c1.06,3.73,1.85,7.51,2.3,11.37c0.32,2.74,0.56,5.48,0.46,8.23c-0.2,5.56-1.17,10.95-3.96,15.86
						c-2.97,5.24-7.4,8.9-12.75,11.53C139.86,214.71,135.82,215.83,131.58,216.29z M156.52,139.33c0.48-1.48,0.72-3,0.77-4.55
						c0.04-1.05,0.12-2.1,0.19-3.28c1.24,1.03,2.21,2.16,3.14,3.31c3.79,4.67,5.88,10.12,7.13,15.93c0.36,1.69,0.65,3.4,0.96,5.11
						c0.12,0.68,0.04,1.17-0.68,1.59c-2.77,1.61-5.58,3.14-8.56,4.31c-4.83,1.9-8.61,5.09-11.61,9.28c-0.82,1.15-1.7,2.27-2.78,3.2
						c-0.99,0.85-1.61,0.86-2.56-0.04c-1.45-1.37-2.28-3.1-2.57-5.05c-0.73-4.89,0.97-9.12,3.63-13.07c1.75-2.6,4.04-4.69,6.32-6.81
						C152.88,146.48,155.26,143.26,156.52,139.33z M161.72,226.08c-0.68,2.9-2.23,6.6-3.54,8.34c-1.44-1.62-3.35-1.84-5.36-1.83
						c-2.02,0.01-3.9,0.59-5.78,1.45c-0.05-0.49,0.24-0.8,0.42-1.12c1.23-2.14,2.49-4.26,3.71-6.4c0.17-0.3,0.67-0.75,0.24-1.04
						c-0.34-0.23-0.63,0.33-0.86,0.59c-1.96,2.33-3.74,4.79-5.16,7.62c-1.04-3.51-3.79-3.99-6.95-4.02
						c1.44-1.58,3.03-2.67,4.63-3.75c1.95-1.33,4.01-2.54,5.57-4.36c0.28-0.33,0.61-0.67,0.73-1.06c0.21-0.68,0.67-0.67,1.2-0.6
						c3.53,0.46,6.99,0.08,10.39-0.88c0.64-0.18,0.8-0.01,0.94,0.55C162.46,221.75,162.22,223.91,161.72,226.08z M175.2,205.83
						c-3.72,6.05-9.06,9.83-15.97,11.42c-2.5,0.57-5.05,0.8-7.61,0.63c-2.71-0.19-5.34-0.86-7.92-1.68
						c-0.55-0.17-1.11-0.32-1.84-0.54c0.95-0.45,1.76-0.8,2.54-1.2c5.38-2.76,10.12-6.25,13.28-11.56
						c2.15-3.61,3.39-7.52,4.04-11.65c0.62-3.98,0.64-7.98,0.28-11.97c-0.44-4.81-1.51-9.51-2.94-14.12
						c-0.18-0.57-0.12-0.78,0.45-1.02c3.01-1.23,5.82-2.87,8.65-4.46c0.94-0.53,0.95-0.5,1.08,0.62c0.35,3.05,0.77,6.08,1.1,9.13
						c0.32,2.89,0.54,5.79,0.86,8.68c0.33,2.91,0.72,5.82,1.09,8.73c0.42,3.33,0.91,6.66,1.52,9.96c0.5,2.69,0.99,5.37,1.54,8.05
						C175.44,205.23,175.39,205.52,175.2,205.83z M181.8,215.58c-0.22-0.4-0.43-0.81-0.63-1.22c-2-4.18-3.15-8.62-4.08-13.13
						c-0.87-4.25-1.51-8.54-2.08-12.83c-0.45-3.36-0.88-6.73-1.21-10.1c-0.36-3.76-0.86-7.5-1.26-11.26
						c-0.33-3.16-0.75-6.3-1.17-9.45c-0.98-7.28-2.81-14.27-6.76-20.58c-1.39-2.23-3.06-4.24-4.88-6.11
						c-2.62-2.69-4.88-5.62-6.43-9.06c-0.21-0.47-0.22-0.7,0.26-0.93c3.51-1.66,7.08-3.23,10.97-3.62
						c5.91-0.59,10.56,1.09,14.01,7.11c1.92,3.35,2.88,7.05,3.62,10.8c0.85,4.32,1.31,8.69,1.67,13.08
						c0.34,4.25,0.7,8.51,1.15,12.75c0.87,8.39,2.18,16.7,4.57,24.81c2.05,6.93,5.21,13.31,9.66,19.03
						c1.51,1.94,3.21,3.66,5.05,5.24C197.54,214.23,189.6,215.48,181.8,215.58z"/>
					<path class="st11" d="M143.16,83.84c0.97,0.12,1.77-0.38,2.42-1.11c1.53-1.7,1.96-3.78,1.83-5.97
						c-0.07-1.18-0.62-2.25-1.55-3.05c-2.21-1.92-5.27-0.21-6.05,1.92c-0.77,2.11-0.7,4.25,0.23,6.33
						C140.64,83.25,141.64,83.9,143.16,83.84z M144.05,74.89c2.03,0,2.03,3.15,0,3.15C142.02,78.04,142.02,74.89,144.05,74.89z"/>
					<path class="st11" d="M141.89,71.26c1.88-0.96,3.68-0.68,5.2,0.81c0.31,0.3,0.61,0.61,0.92,0.92c0.14,0.14,0.3,0.3,0.49,0.17
						c0.18-0.12,0.11-0.34,0.07-0.52c-0.63-2.99-4.58-4.54-7.03-2.72c-0.65,0.48-1.38,1-1.25,2.18
						C140.89,71.78,141.39,71.51,141.89,71.26z"/>
					<path class="st11" d="M120.73,81.21c1.61-1.53,2.2-4.81,1.29-7.07c-0.67-1.65-1.98-2.13-3.54-1.28
						c-0.53,0.29-0.98,0.69-1.32,1.19c-0.8,1.15-1.16,2.44-1.11,3.88c-0.03,0.72,0.05,1.46,0.3,2.2
						C117.08,82.22,119.13,82.73,120.73,81.21z M119.92,73.64c2.03,0,2.03,3.15,0,3.15C117.89,76.79,117.89,73.64,119.92,73.64z"/>
					<path class="st11" d="M117.44,71.08c1.59-1.17,2.57-1.13,4.12,0.18c0.06,0.05,0.12,0.11,0.18,0.17
						c0.11,0.1,0.23,0.15,0.37,0.07c0.14-0.08,0.16-0.21,0.15-0.35c0-1.11-1.26-2.37-2.67-2.38c-1.03,0.09-1.99,0.73-2.6,1.9
						c-0.11,0.21-0.44,0.46-0.16,0.69C117.06,71.54,117.25,71.22,117.44,71.08z"/>
					<path class="st11" d="M126.62,87.11c0.52-0.11,1.1-0.24,1.6-0.6c0.24-0.17,0.37-0.43,0.21-0.71c-0.13-0.23-0.32-0.29-0.62-0.22
						c-0.53,0.12-1.04,0.29-1.52,0.54c-0.26,0.14-0.47,0.33-0.39,0.64C125.97,87.06,126.27,87.09,126.62,87.11z"/>
				</g>
				<path class="st7" d="M175.01,199.07c-0.68-5.93-1.41-11.85-2.19-17.77c-0.8-6.12-1.66-12.22-2.57-18.33
					c0.4-0.33,0.64-0.79,0.55-1.43c-0.13-1.05-0.72-1.55-1.45-1.7c0.35-0.71-0.16-1.76-1.09-1.43c-4.37,1.59-8.32,4.01-12.01,6.81
					c-1.8,1.36-3.71,2.78-5.37,4.41c-0.73-0.2-1.33,0.57-1.17,1.24c-0.68,0.79-1.28,1.63-1.78,2.54c-0.96,0.82-1.9,1.66-2.79,2.56
					c-0.22,0.22-0.31,0.47-0.3,0.7c-1.79-0.09-3.69-1.12-3.39-3.18c0.19-1.26-1.74-1.8-1.93-0.53c-0.29,2,0.59,3.83,2.29,4.92
					c1.87,1.2,4.22,0.98,6.18,0.13c1.69-0.74,3.05-1.95,4.33-3.24c0.11,0.33,0.22,0.65,0.32,0.96c0.55,1.7,0.92,3.46,1.09,5.24
					c0.31,3.26,0,6.56-0.89,9.72c-1.74,6.15-5.77,11.41-11.11,14.88c-11.2,7.29-26.24,5.56-36.06-3.34
					c-5.42-4.91-9-11.54-10.44-18.68c-0.25-1.26-2.18-0.73-1.93,0.53c0.51,2.55,1.3,5.02,2.33,7.36c-0.04,0.05-0.07,0.1-0.1,0.15
					c-0.29,0.2-0.45,0.55-0.27,1c0.24,0.61,0.51,1.2,0.77,1.8c-0.26,0.21-0.4,0.54-0.27,0.97c2.16,6.74,6.6,12.64,12.54,16.51
					c3.01,1.96,6.34,3.32,9.81,4.09c3.59,1,7.37,1.24,11.07,0.55c0.16,0.28,0.43,0.48,0.82,0.44c1.47-0.13,2.88-0.42,4.27-0.89
					c2.19-0.51,4.36-1.11,6.48-1.85c0.01,0.19,0.07,0.37,0.16,0.52c-0.05-0.01-0.09-0.02-0.14-0.02c-1.26-0.24-1.8,1.69-0.53,1.93
					c10.18,1.9,21.82,2.87,30.48-3.97c1.85-1.46,3.47-3.3,4.26-5.54C175.92,204.59,175.31,201.73,175.01,199.07z M159.22,169.05
					c-0.03-0.11-0.08-0.19-0.13-0.27c0.14-0.1,0.27-0.2,0.41-0.29c1.85-1.27,3.81-2.37,5.83-3.34c0.43,4.27,0.87,8.54,1.3,12.81
					c0.5,4.89,1.22,9.86,0.9,14.79c-0.28,4.29-1.55,8.76-4.57,11.95c-2.77,2.92-6.64,4.4-10.5,5.22c-1.22,0.26-2.59,0.39-3.96,0.57
					c1.04-0.7,2.05-1.46,3-2.33c2.94-2.71,5.6-6.34,7.21-10.01c1.2-2.72,1.51-5.68,1.6-8.65
					C161.21,182.67,160.87,175.76,159.22,169.05z"/>
				<path class="st7" d="M162.71,219.06c-0.06-0.99-1.42-1.34-1.86-0.51c-0.38-0.65-1.16-0.71-1.62-0.19
					c-0.1-0.02-0.2-0.06-0.32-0.06c-0.51-0.02-0.87,0.25-1.09,0.63c0,0,0,0,0,0c-0.24-0.01-0.48,0.05-0.71,0.14
					c-0.61,0.01-1.22,0.04-1.83,0.08c-0.16-0.02-0.32-0.05-0.49-0.07c-1.8-0.2-4.83-0.44-5.89,1.42c-0.06,0.11-0.09,0.22-0.11,0.33
					c-0.53,0.15-1.05,0.33-1.54,0.6c-1.13,0.61-0.12,2.34,1.01,1.73c1.12-0.61,2.39-0.72,3.64-0.73c1.33-0.01,2.68,0.04,3.98,0.33
					c2.2,0.5,4.36,1.82,4.9,4.16c0.26,1.13,1.91,0.83,1.96-0.27C162.87,224.12,162.85,221.59,162.71,219.06z"/>
				<path class="st7" d="M127.02,217.8c-0.21-0.01-0.42-0.02-0.63-0.03c-0.09-0.02-0.19-0.02-0.3-0.01
					c-1.98-0.08-3.96-0.05-5.94,0.1c-0.14,0.01-0.27,0.05-0.39,0.1c-0.77-0.36-1.59-0.65-2.32-0.97c-1.36-0.6-2.89-1.22-4.35-0.61
					c-0.5,0.21-0.85,0.66-0.7,1.23c0.12,0.47,0.73,0.9,1.23,0.7c1.45-0.6,3.22,0.58,4.52,1.16c0.68,0.3,1.47,0.55,2.02,1.06
					c0.51,0.47,0.79,1.14,1.18,1.71c0.41,0.61,0.93,1.31,1.73,1.36c0.68,0.04,1.45-0.48,1.98-0.85c1.24-0.87,2.23-2.04,2.83-3.43
					C128.19,218.6,127.84,217.85,127.02,217.8z"/>
				<path class="st7" d="M95.89,197.28c-0.91-3.11-1.55-6.3-1.92-9.52c-0.14-1.24-2.04-1.32-2,0c0.14,5.02,0.29,10.12-0.64,15.08
					c-0.84,4.47-2.55,9.68-6.63,12.2c-1.09,0.68-0.09,2.41,1.01,1.73c0.24-0.15,0.47-0.31,0.69-0.47c0.27,0.32,0.72,0.48,1.22,0.21
					c4.37-2.38,6.56-6.99,8.41-11.38c0.47-1.12,0.98-2.26,0.98-3.5C96.99,200.14,96.3,198.69,95.89,197.28z"/>
				<path class="st7" d="M169.62,154.56c-0.96-4.47-2.04-8.94-3.89-13.14c-1.86-4.23-4.55-8.03-8.24-10.85
					c-0.8-0.61-1.91,0.57-1.37,1.37c2.56,3.76,5.11,7.96,6.4,12.36c0.6,2.05,0.79,4.23-0.08,6.24c-0.76,1.78-2.15,3.21-3.52,4.54
					c-2.91,2.82-5.7,5.6-8.01,8.96c-2.21,3.21-4.95,8.37-9.65,7.59c-1.26-0.21-1.8,1.72-0.53,1.93c0.47,0.08,0.93,0.11,1.39,0.1
					c-0.31,0.24-0.47,0.7-0.36,1.07c0.44,1.64,2.31,1.91,3.58,1.03c0.96-0.67,1.75-1.78,2.47-2.86c1.63-1.44,3-3.27,4.36-4.98
					c2.77-3.48,6.21-5.6,10.36-7.11c1.96-0.71,3.99-1.22,5.93-1.96C170.5,158.06,169.99,156.31,169.62,154.56z"/>
				<path class="st7" d="M100.63,128.21c-0.03,0.08-0.06,0.16-0.1,0.24c0,0,0,0,0,0c-2.09,5.06-5.52,14.29-12.56,12.92
					c-6.13-1.19-11.01-8.49-7.43-14.27c0.68-1.1-1.05-2.1-1.73-1.01c-1.69,2.73-1.82,5.75-0.94,8.51c-0.49,0.15-0.9,0.62-0.75,1.21
					c2.18,8.46,10.72,12.37,18.18,15.16c1.73,0.65,3.29,0.33,3.65-1.69c0.37-2.08,0.2-4.32,0.36-6.43
					c0.36-4.59,1.14-9.19,2.97-13.44c0.06-0.14,0.12-0.29,0.18-0.43C102.88,127.94,101.08,127.17,100.63,128.21z"/>
				<path class="st7" d="M205.92,209.26c-4.4-3.54-8.14-7.83-10.97-12.73c-3-5.19-4.82-10.93-6.2-16.74
					c-2.95-12.44-4.65-25.21-5.55-37.95c-0.3-4.27-0.62-8.66-1.89-12.74c0.74,0.03,1.48-0.69,0.93-1.43
					c-0.84-1.14-1.8-2.16-2.85-3.07c-0.11-0.19-0.21-0.39-0.33-0.58c0.15-0.33,0.15-0.72-0.19-1.05c-2.47-2.47-5.12-5.02-8.47-6.21
					c0.05-0.04,0.1-0.07,0.14-0.11c0.14,0.02,0.27,0.07,0.4,0.1c0.15,0.11,0.29,0.22,0.44,0.34c0.39,0.3,0.82,0.29,1.16,0.12
					c0.37,0.13,0.73,0.28,1.09,0.45c0,0,0.01,0,0.01,0.01c0.15,0.13,0.31,0.2,0.46,0.23c1.5,0.79,2.85,1.88,3.91,3.27
					c0.69,0.9,2.02,0.39,1.83-0.77c-1.1-6.46-6.31-11.69-12.56-13.24c0.43-0.09,0.85-0.17,1.27-0.27c0.54-0.14,0.82-0.71,0.7-1.23
					c-1-4.24-1.6-8.22-0.98-12.56c0.55-3.88,1-7.58,0.34-11.49c-0.65-3.79-2.05-7.42-3.72-10.87c-1.39-2.87-2.97-6.05-6.01-7.47
					c-0.22-0.1-0.46-0.11-0.68-0.06c-1.01-1.17-2.17-2.2-3.55-2.98c-1.12-0.63-2.13,1.09-1.01,1.73c3.14,1.77,5.01,4.97,6.46,8.17
					c1.62,3.58,2.63,7.44,3.24,11.32c1.3,8.33,0.63,16.83-0.01,25.19c-0.01,0.1,0.01,0.2,0.05,0.3c-0.36,0.31-0.55,0.85-0.24,1.26
					c0.96,1.25,1.93,2.63,2.1,4.1c-6.41,0.62-12.15,4.43-18.11,6.9c-3.94,1.63-8.13,2.49-12.33,3.11c-4.32,0.64-8.8,1.1-13.11,0.14
					c-4.2-0.93-8.03-3.05-11.09-6.07c-0.92-0.9-2.33,0.51-1.41,1.41c2.63,2.59,5.78,4.57,9.26,5.8c2.03,0.72,4.13,1.12,6.26,1.28
					c-0.06,0.54,0.25,1.11,0.95,1.1c7.52-0.13,14.83-1.58,22-3.65c-1.16,0.49-2.32,0.98-3.49,1.45c-4.23,1.7-8.61,3.13-13.23,3.02
					c-5.22-0.13-10.25-1.88-15.14-3.56c-0.4-0.14-0.74,0-0.96,0.25c-1.94-1.15-3.77-2.5-5.42-4.05c-0.58-0.54-1.29-0.25-1.57,0.28
					c-0.2,0.16-0.35,0.38-0.41,0.64c-0.46,0.32-0.7,1-0.21,1.53c6.57,7.22,16.8,9.76,26.27,9c5.83-0.47,11.51-2.02,17-3.98
					c2.78-0.99,5.51-2.12,8.26-3.19c2.5-0.98,5.05-1.82,7.75-1.88c0.03,0,0.06,0,0.09,0c10.89,9.12,9.56,25.59,11.07,38.36
					c1.69,14.32,6.7,27.98,13.13,40.81c1.8,3.6,3.64,7.25,5.75,10.69c0.99,1.63,2.26,1.8,4.06,1.44c1.86-0.37,3.6-1.18,5.13-2.29
					C206.18,210.49,206.47,209.7,205.92,209.26z"/>
				<path class="st7" d="M137.05,87.46c-0.54-1.17-2.26-0.15-1.73,1.01c0.89,1.93-1.61,4.17-2.97,5.16
					c-1.69,1.23-3.71,2.02-5.79,2.28c-2.23,0.28-4.51-0.02-6.64-0.75c-2.19-0.75-4.08-2.26-6.39-2.66c-1.26-0.22-1.8,1.71-0.53,1.93
					c1.51,0.26,2.76,1.05,4.11,1.72c1.22,0.6,2.49,1.08,3.81,1.39c2.63,0.63,5.42,0.65,8.03-0.09
					C132.75,96.38,139.25,92.2,137.05,87.46z"/>
				<path class="st1" d="M86.83,205.62c-0.5-0.26-1.07-0.11-1.37,0.36c-0.3,0.47-0.61,0.93-0.94,1.38
					c-0.16,0.22-0.32,0.44-0.48,0.65c-0.04,0.05-0.08,0.1-0.12,0.15c0.1-0.13-0.03,0.04-0.05,0.06c-0.09,0.11-0.18,0.22-0.27,0.34
					c-0.7,0.87-1.44,1.7-2.23,2.48c-0.37,0.37-0.4,1.05,0,1.41c0.4,0.37,1.02,0.4,1.41,0c1.65-1.66,3.13-3.5,4.39-5.47
					C87.47,206.55,87.29,205.87,86.83,205.62z"/>
				<path class="st1" d="M89.18,201.59c-0.12-0.21-0.36-0.41-0.6-0.46c-0.26-0.06-0.54-0.05-0.77,0.1c-0.23,0.15-0.37,0.34-0.46,0.6
					c-0.05,0.16-0.11,0.31-0.18,0.46c-0.17,0.38-0.36,0.76-0.57,1.11c-0.13,0.22-0.17,0.53-0.1,0.77c0.06,0.23,0.24,0.48,0.46,0.6
					c0.23,0.12,0.51,0.18,0.77,0.1c0.25-0.08,0.46-0.23,0.6-0.46c0.4-0.64,0.71-1.34,0.95-2.05
					C89.36,202.12,89.31,201.8,89.18,201.59z"/>
				<path class="st1" d="M109.34,220.1c-0.17-0.53-0.68-0.82-1.23-0.7c-1.42,0.33-2.81,0.74-4.18,1.23
					c-0.49,0.18-0.87,0.69-0.7,1.23c0.16,0.48,0.7,0.89,1.23,0.7c1.37-0.49,2.76-0.9,4.18-1.23
					C109.15,221.21,109.5,220.6,109.34,220.1z"/>
				<path class="st1" d="M110.08,218.37c-1.29,0-1.29,2,0,2C111.36,220.37,111.37,218.37,110.08,218.37z"/>
				<path class="st1" d="M148.24,224.01c-0.36-0.33-1.06-0.43-1.41,0c-0.31,0.38-0.64,0.75-0.99,1.09c-0.18,0.17-0.36,0.34-0.54,0.5
					c-0.09,0.08-0.18,0.15-0.27,0.23c-0.05,0.04-0.1,0.08-0.15,0.12c-0.01,0.01,0,0,0,0c-0.01,0,0,0-0.01,0.01
					c-0.79,0.59-1.64,1.09-2.55,1.49c-0.48,0.21-0.63,0.95-0.36,1.37c0.32,0.5,0.85,0.58,1.37,0.36c1.9-0.83,3.62-2.14,4.92-3.75
					C148.57,225.02,148.67,224.41,148.24,224.01z"/>
				<path class="st1" d="M163.38,191.32c-0.23,4.49-1.95,8.86-4.86,12.28c-0.83,0.98,0.58,2.4,1.41,1.41
					c3.27-3.85,5.19-8.65,5.45-13.7C165.45,190.03,163.45,190.04,163.38,191.32z"/>
				<path class="st1" d="M165.31,185.45c-0.02-0.27-0.1-0.51-0.29-0.71c-0.17-0.17-0.46-0.3-0.71-0.29
					c-0.26,0.01-0.53,0.1-0.71,0.29c-0.17,0.19-0.31,0.44-0.29,0.71c0.05,0.64,0.09,1.28,0.14,1.93c0.02,0.27,0.1,0.51,0.29,0.71
					c0.17,0.17,0.46,0.3,0.71,0.29c0.26-0.01,0.53-0.1,0.71-0.29c0.17-0.19,0.31-0.44,0.29-0.71
					C165.41,186.73,165.36,186.09,165.31,185.45z"/>
				<path class="st1" d="M153.23,148.81c-2.71,2.93-5.6,5.78-7.98,9c-2.23,3.01-3.84,6.64-3.54,10.46c0.1,1.28,2.1,1.29,2,0
					c-0.28-3.61,1.33-6.91,3.47-9.72c2.25-2.95,4.95-5.6,7.47-8.33C155.51,149.28,154.1,147.86,153.23,148.81z"/>
				<path class="st1" d="M157.66,144.41c-0.12-0.21-0.36-0.41-0.6-0.46c-0.26-0.06-0.54-0.05-0.77,0.1c-0.07,0.05-0.14,0.1-0.2,0.16
					c-0.12,0.12-0.21,0.27-0.26,0.44c-0.18,0.5-0.36,0.99-0.54,1.49c-0.04,0.13-0.05,0.27-0.02,0.4c0.01,0.13,0.05,0.26,0.12,0.37
					c0.12,0.21,0.36,0.41,0.6,0.46c0.26,0.06,0.54,0.05,0.77-0.1c0.07-0.05,0.14-0.1,0.2-0.16c0.12-0.12,0.21-0.27,0.26-0.44
					c0.18-0.5,0.36-0.99,0.54-1.49c0.04-0.13,0.05-0.27,0.02-0.4C157.77,144.65,157.73,144.53,157.66,144.41z"/>
				<path class="st1" d="M175.95,163.96c-0.8-4.66-1.56-9.33-2.4-13.99c-0.75-4.16-1.69-8.31-3.4-12.2
					c-1.73-3.92-4.28-7.42-7.76-9.95c-1.04-0.76-2.04,0.98-1.01,1.73c6.66,4.84,8.86,13.27,10.25,20.95
					c1.61,8.9,3.06,17.82,4.58,26.74c0.88,5.15,1.76,10.29,2.64,15.44c0.22,1.27,2.14,0.73,1.93-0.53
					C179.16,182.75,177.56,173.36,175.95,163.96z"/>
				<path class="st1" d="M185.48,207.7c-0.92-2.84-1.85-5.69-2.77-8.53c-0.17-0.51-0.69-0.85-1.23-0.7c-0.5,0.14-0.87,0.71-0.7,1.23
					c0.92,2.84,1.85,5.69,2.77,8.53c0.17,0.51,0.69,0.85,1.23,0.7C185.28,208.79,185.65,208.21,185.48,207.7z"/>
				<path class="st1" d="M85.54,125.91c-1.8-0.04-3.64,0.78-4.76,2.19c-0.17,0.22-0.29,0.42-0.29,0.71c0,0.25,0.11,0.54,0.29,0.71
					c0.36,0.33,1.07,0.44,1.41,0c0.23-0.29,0.49-0.53,0.76-0.77c0.03-0.02,0.06-0.05,0.1-0.07c0.07-0.05,0.14-0.09,0.21-0.14
					c0.16-0.1,0.33-0.19,0.5-0.27c0.02-0.01,0.04-0.02,0.06-0.03c0.04,0,0.22-0.08,0.26-0.1c0.17-0.06,0.34-0.11,0.52-0.15
					c0.09-0.02,0.17-0.04,0.26-0.05c0.03,0,0.08-0.01,0.1-0.01c0.19-0.02,0.38-0.02,0.57-0.02c0.52,0.01,1.02-0.47,1-1
					C86.52,126.36,86.1,125.93,85.54,125.91z"/>
				<path class="st1" d="M155.95,94.81c-0.57,2.08-2.36,3.49-3.72,5.06c-1.58,1.82-2.81,3.89-3.07,6.32c-0.06,0.54,0.5,1,1,1
					c0.59,0,0.94-0.46,1-1c0.5-4.59,5.56-6.59,6.72-10.85C158.21,94.1,156.29,93.57,155.95,94.81z"/>
				<path class="st1" d="M159.14,89.2c-1.29,0-1.29,2,0,2C160.43,91.2,160.43,89.2,159.14,89.2z"/>
				<path class="st1" d="M129.89,81.6c-1.32-0.94-2.98-0.77-4.38-0.13c-1.66,0.75-3.2,1.91-4.73,2.9c-3.25,2.11-6.46,4.3-9.61,6.56
					c-1.04,0.74-0.04,2.48,1.01,1.73c2.78-1.99,5.61-3.93,8.47-5.81c1.43-0.94,2.87-1.87,4.32-2.78c1.16-0.72,2.61-1.67,3.92-0.74
					C129.93,84.07,130.93,82.34,129.89,81.6z"/>
				<path class="st10" d="M171.05,47.77c-2.71,0.09-5.38,0.47-8,1.11c0.28-1.34,0.97-2.57,1.62-3.8c0.82-1.54,1.49-3.05,1.72-4.79
					c0.08-0.65-0.71-1.14-1.27-0.96c-0.48,0.15-0.95,0.31-1.43,0.47c-0.21-0.2-0.51-0.3-0.88-0.18c-2.32,0.74-4.47,1.87-6.37,3.34
					c-0.66,0.36-1.28,0.77-1.83,1.25c0.61-4.11,0.08-8.33-1.84-12.1c-0.01-0.03-0.04-0.04-0.05-0.06c-0.49-1.58-1.34-2.88-2.94-2.74
					c-1.44,0.13-2.51,1.46-3.43,2.43c-1.08,1.13-2.18,2.3-3.03,3.62c-1.36,2.08-1.82,4.53-2.43,6.91c-2.01-3.7-4.45-7.15-8.51-8.83
					c-0.61-0.25-1.28,0.38-1.27,0.96c0.06,2.93,0.13,5.86,0.19,8.8c-1.89-1.8-4.08-3.26-6.48-4.32c-0.25-0.11-0.48-0.1-0.69-0.04
					c-0.71-0.4-1.82,0.11-1.47,1.06c1.99,5.4,3.28,11.02,3.77,16.76c0.06,0.64,0.6,1.15,1.27,0.96c3.06-0.85,6.21-0.72,9.35-0.47
					c3.23,0.26,6.46,0.61,9.66,1.09c5.23,0.78,10.74,1.97,14.74,5.67c0.58,0.54,1.41,0.27,1.67-0.44c1.89-5.21,4.83-9.96,8.63-13.98
					C172.33,48.87,171.94,47.74,171.05,47.77z"/>
				<path class="st1" d="M136.67,44.65c-0.1-0.1-0.21-0.17-0.32-0.22c-0.13-0.15-0.29-0.28-0.48-0.34c-0.54-0.15-1.07,0.18-1.23,0.7
					c-0.89,2.88-0.09,6.13,2,8.3c0.49,0.51,1.53,0.31,1.67-0.44c0.01-0.06,0.02-0.13,0.03-0.19c0.21-0.13,0.38-0.32,0.44-0.57
					C139.3,49.29,138.53,46.55,136.67,44.65z"/>
				<path class="st1" d="M150,42.73c-0.12-0.5-0.28-0.98-0.48-1.46c-0.2-0.48-0.41-1.09-0.84-1.42c-1.18-0.91-1.88,0.65-2.35,1.46
					c-0.61,1.07-1.26,2.13-1.82,3.23c-0.23,0.45-0.41,0.92-0.55,1.38c-0.01,0.03-0.02,0.06-0.03,0.09
					c-0.03,0.09-0.06,0.17-0.08,0.26c-0.07,0.24-0.13,0.48-0.18,0.71c-0.29,1.47-0.21,2.96,0.16,4.41c0.05,0.19,0.14,0.32,0.24,0.43
					c0.15,0.58,0.33,1.17,0.54,1.76c0.29,0.83,1.28,0.83,1.74,0.36c0.31,0.11,0.65,0.05,0.92-0.28c0.05-0.07,0.1-0.14,0.16-0.2
					c0,0,0,0,0,0c0,0,0,0,0-0.01c0.07-0.1,0.15-0.19,0.22-0.29c0.34-0.01,0.68-0.15,0.82-0.47c0.91-2.12,1.66-4.31,1.8-6.63
					C150.35,44.95,150.25,43.81,150,42.73z"/>
				<path class="st1" d="M158.75,48.32c-0.3-0.22-0.78-0.31-1.11-0.08c-1.35,0.94-2.81,1.8-3.79,3.15
					c-0.85,1.17-1.28,2.67-1.22,4.11c0.02,0.52,0.44,1.02,1,1c0.21-0.01,0.41-0.1,0.58-0.22c0.2,0.02,0.41-0.02,0.59-0.12
					c1.19-0.69,2.31-1.52,3.13-2.64c0.41-0.56,0.7-1.22,0.86-1.89c0.1-0.41,0.15-0.83,0.2-1.24c0.05-0.38,0.08-0.72,0.12-1.01
					C159.17,48.97,159.1,48.58,158.75,48.32z"/>
			</g>
			<path class="st10" d="M90.41,90.73c-0.37-0.13-0.77-0.22-1.22-0.22c-0.06,0-0.1,0.01-0.16,0.02c-0.06,0-0.1-0.02-0.16-0.02
				c-4.46,0-4.5,6.86-0.12,6.99c0.33,0.1,0.68,0.17,1.08,0.17C94.12,97.67,94.32,91.32,90.41,90.73z"/>
			<path class="st7" d="M91.37,90.76c-0.57-0.33-1.01,0.49-0.5,0.86c0.53,0.4,0.82,1.09,0.77,1.75c-0.06,0.72-0.55,1.36-1.15,1.75
				c-1.14,0.74-3.48,1.18-4.24-0.31c-0.29-0.57-1.15-0.07-0.86,0.5c0.16,0.32,0.38,0.57,0.62,0.78c-0.03,0.15,0,0.3,0.13,0.42
				c0.03,0.03,0.07,0.05,0.1,0.08c0,0,0,0,0,0c0.01,0.01,0.03,0.02,0.04,0.03c0.84,0.7,1.91,0.98,2.96,1.2
				c0.61,0.13,1.24,0.19,1.83-0.06c0.49-0.21,0.87-0.6,1.17-1.03C93.54,94.87,93.49,91.98,91.37,90.76z"/>
			<path class="st7" d="M100.04,91.46c-0.85,0.03-1.63,0.31-2.41,0.65c-0.65,0.28-1.29,0.57-1.94,0.86
				c-0.08-0.06-0.18-0.1-0.28-0.09c-0.22,0.02-0.41,0.07-0.58,0.15c-0.16-0.47,0.02-1,0.24-1.43c0.31-0.6,0.68-1.18,1.07-1.72
				c0.79-1.09,1.76-2.07,2.84-2.89c0.27-0.2,0.38-0.69,0-0.86c-0.84-0.39-1.47,0.28-2.03,0.83c-0.63,0.62-1.28,1.23-1.9,1.87
				c-0.2,0.2-0.37,0.43-0.56,0.65c-1-0.43-0.96-1.82-0.89-2.73c0.11-1.24,0.32-2.47,0.63-3.68c0.13-0.52-0.46-0.79-0.84-0.49
				c-0.68,0.55-1.01,1.36-1.28,2.17c-0.31,0.94-0.62,1.89-0.91,2.84c-0.12,0.37-0.22,0.75-0.33,1.13c-0.01,0-0.01,0-0.02,0
				c-1.23-0.07-2.1-1.12-2.49-2.2c-0.46-1.27-0.5-2.65-0.7-3.98v0c-0.01-0.04-0.01-0.09-0.02-0.13c-0.09-0.56-0.99-0.42-0.98,0.13
				c0.02,1.82,0.29,3.63,0.81,5.37c0.03,0.11,0.07,0.22,0.11,0.33c-1.1,0.14-2.16-0.42-2.99-1.1c-0.94-0.76-1.79-1.64-2.58-2.55
				c-0.37-0.42-1.13,0.15-0.79,0.61c0.97,1.31,1.96,2.62,3.09,3.8c0.11,0.12,0.23,0.22,0.34,0.34c-0.15,0.37-0.34,0.8-0.72,0.99
				c-0.38,0.19-0.85,0.16-1.26,0.16c-1.13,0-2.26-0.01-3.39-0.01c-0.64,0.03-0.65,1,0,1c1.09-0.05,2.12,0.24,3.15,0.55
				c0.27,0.08,0.54,0.16,0.81,0.24c-0.01,0.03-0.02,0.05-0.02,0.08c-0.04,0.37-0.33,0.68-0.58,0.92c-0.32,0.31-0.68,0.6-1.04,0.86
				c-0.75,0.54-1.57,1-2.42,1.36c-0.52,0.22-0.15,1.07,0.39,0.91c1.22-0.36,2.43-0.75,3.63-1.16c0,0,0.01,0,0.01,0
				c0.03,0.03,0.05,0.06,0.09,0.08c0.71,0.43,0.54,1.42,0.26,2.05c-0.43,0.97-1.04,1.87-1.56,2.79c-0.29,0.5,0.37,0.99,0.79,0.61
				c0.7-0.65,1.32-1.38,1.9-2.13c1.37,1.1,1.07,3.28,0.8,4.83c-0.06,0.33,0.13,0.62,0.48,0.63c0.81,0.03,1.01-1.16,1.19-1.74
				c0.23-0.75,0.4-1.51,0.52-2.29c0.67,0.26,1.2,0.94,1.63,1.46c0.65,0.78,1.21,1.64,1.49,2.61c0.18,0.62,1.13,0.36,0.96-0.27
				c-0.3-1.18-0.61-2.37-0.91-3.55c0.26,0.18,0.67,0.14,0.78-0.25c-0.01,0.03-0.01,0,0.08,0.01c0.15,0.02,0.29,0.08,0.43,0.13
				c0.24,0.08,0.47,0.18,0.69,0.3c0.46,0.23,0.89,0.52,1.29,0.84c0.83,0.68,1.54,1.48,2.21,2.31c0.15,0.19,0.48,0.18,0.66,0.04
				c0.2-0.16,0.24-0.41,0.13-0.65c-0.83-1.71-1.98-3.25-3.36-4.55c0.38-0.8,1.43-0.97,2.25-1.01c1.18-0.06,2.37,0.01,3.54,0.19
				c0.63,0.1,0.89-0.76,0.27-0.96c-1.36-0.45-2.76-0.75-4.18-0.91c-0.01-0.07-0.03-0.14-0.07-0.21c-0.21-0.37,0.32-0.74,0.56-0.93
				c0.41-0.32,0.84-0.61,1.28-0.88c0.88-0.54,1.81-0.99,2.78-1.35C100.67,92.26,100.64,91.44,100.04,91.46z M93.47,93.99
				c-0.04,0.07-0.06,0.15-0.08,0.22c-0.02,0.03-0.06,0.05-0.08,0.08c-0.31,0.45-0.24,1.05,0.13,1.4c-0.13,0.02-0.27,0.04-0.39,0.09
				c-0.68,0.26-0.79,0.89-0.74,1.52c-0.02-0.01-0.04-0.03-0.06-0.04c-0.51-0.31-0.97-0.07-1.33,0.34c-0.22,0.25-0.5,0.61-0.57,0.98
				c-0.1-0.22-0.22-0.42-0.43-0.56c-0.48-0.32-1.08-0.27-1.62-0.2c-0.2,0.03-0.39,0.29-0.37,0.48c0.02,0.19,0.08,0.36,0.16,0.51
				c-0.09-0.04-0.18-0.07-0.27-0.11c-0.01-0.32-0.08-0.63-0.27-0.89c-0.36-0.5-0.95-0.69-1.39-1.09c-0.12-0.11-0.25-0.14-0.37-0.13
				c-0.06-0.26-0.21-0.51-0.33-0.75c-0.15-0.29-0.3-0.59-0.45-0.88c-0.11-0.2-0.28-0.27-0.46-0.24c0.09-0.05,0.18-0.11,0.25-0.19
				c0.37-0.43,0.42-1.17,0.4-1.71c0-0.14-0.08-0.25-0.17-0.34c0.14-0.04,0.28-0.1,0.41-0.2c0.38-0.29,0.55-0.77,0.75-1.19
				c0.05-0.11,0.11-0.23,0.15-0.34c0.29,0.12,0.58,0.06,0.85-0.16c0.34-0.28,0.67-0.57,1-0.86c0.06-0.05,0.09-0.12,0.11-0.18
				c0.1,0.11,0.2,0.21,0.32,0.3c0.61,0.43,1.4,0.47,2.12,0.46c0.01,0.03,0.01,0.06,0.02,0.09c0.32,0.7,1.13,0.87,1.82,0.97
				c0.13,0.02,0.24-0.04,0.34-0.13c-0.22,0.74-0.06,1.58,0.52,2.2c0.04,0.05,0.09,0.08,0.14,0.1c-0.08,0.08-0.14,0.18-0.12,0.31
				C93.46,93.89,93.46,93.94,93.47,93.99z"/>
			<g>
				<g>
					<path class="st9" d="M137.09,52.67c0.34,0.27,0.54,0.29,0.74-0.16c0.39-0.84,0.58-1.72,0.72-2.62c0.29-1.92-1.05-4.6-2.72-5.54
						c-0.27-0.15-0.41-0.13-0.54,0.17c-0.24,0.55-0.37,1.13-0.48,1.67c-0.04,0.28-0.08,0.51-0.11,0.75
						C134.41,49.29,135.25,51.19,137.09,52.67z"/>
					<path class="st9" d="M153.95,55.79c2.54-0.77,3.98-2.52,4.55-5.05c0.15-0.51,0.11-1.03,0.13-1.54
						c0.02-0.79-0.07-0.85-0.86-0.62c-3,0.86-4.84,3.7-4.45,6.83C153.38,55.88,153.57,55.91,153.95,55.79z"/>
					<path class="st9" d="M146.06,53.84c2.02-1.32,3.21-3.18,3.72-5.66c0.39-2.59-0.21-5.12-1.43-7.55
						c-0.21-0.42-0.4-0.32-0.67-0.06c-1.21,1.16-2.27,2.44-3.02,3.94c-1.58,3.15-1.46,6.21,0.52,9.17
						C145.44,54.05,145.67,54.09,146.06,53.84z"/>
					<path class="st9" d="M76.16,110.13c1.93,4.51,6.32,7.48,9.92,6.75C84.73,112.83,79.72,109.97,76.16,110.13z"/>
					<path class="st9" d="M119.95,76.71c2.03,0,2.03-3.15,0-3.15C117.93,73.56,117.92,76.71,119.95,76.71z"/>
					<path class="st9" d="M85.39,106.13c-0.18-0.28-0.28-0.58-0.29-0.91c-0.07-0.33-0.06-0.65,0.04-0.98
						c0.08-0.32,0.22-0.6,0.44-0.83c0.17-0.27,0.4-0.48,0.69-0.63c0.54-0.24,1.09-0.47,1.66-0.62c0.12-0.03,0.23-0.04,0.35-0.07
						c0.13-0.62,0.23-1.26,0.31-1.91c0.07-0.6-0.03-0.88-0.77-0.95c-0.56-0.05-0.84,0.05-1.13,0.47c-0.27,0.4-0.6,0.78-0.91,1.15
						c-0.14,0.17-0.3,0.34-0.54,0.13c-0.19-0.16-0.24-0.33-0.11-0.56c0.23-0.4,0.47-0.79,0.65-1.22c0.1-0.23,0.53-0.48,0.1-0.74
						c-0.42-0.26-0.53-1-1.3-0.72c-1.23,0.46-2.41,0.99-3.46,1.76c-1.48,1.08-2.03,2.9-1.27,4.49c0.86,1.79,2.51,2.42,4.34,2.68
						c0.54,0.03,1-0.08,1.42-0.3L85.39,106.13z"/>
					<path class="st9" d="M127,57c1.21-0.52,2.41-0.74,3.63-0.82c2.84-0.18,5.67-0.1,8.49,0.21c1.94,0.14,3.88,0.39,5.81,0.73
						c5.72,1,12.12,2.62,16.83,6.32c0.32,0.24,0.42,0.19,0.58-0.19c1.2-2.92,2.61-5.73,4.33-8.38c1.4-2.17,3.01-4.18,4.67-6.15
						c0.3-0.35,0.28-0.54-0.21-0.57c-0.12-0.01-0.24-0.04-0.35-0.05c-2.75-0.13-5.37,0.31-7.75,1.79c-0.29,0.18-0.59,0.27-0.88,0.04
						c-0.33-0.27-0.16-0.58-0.02-0.87c1.25-2.65,2.28-5.4,3.4-8.1c0.3-0.73,0.22-0.86-0.6-0.82c-4.22,0.24-7.65,1.99-10.2,5.4
						c-0.22,0.29-0.43,0.55-0.82,0.38c-0.4-0.17-0.44-0.5-0.35-0.9c0.34-1.51,0.52-3.04,0.48-4.6c-0.09-3.61-0.96-6.98-3.02-9.99
						c-0.65-0.95-0.99-1-1.95-0.36c-2.27,1.52-3.97,3.56-5.38,5.87c-1.24,2.03-1.82,4.29-2.32,6.58c-0.09,0.39-0.2,0.74-0.68,0.77
						c-0.47,0.03-0.52-0.35-0.61-0.67c-0.8-2.78-2.39-5.03-4.6-6.86c-0.94-0.78-1.98-1.38-3.17-1.71c-0.46-0.13-0.63-0.04-0.61,0.49
						c0.08,2.87,0.12,5.74,0.17,8.61c0.01,0.38,0.02,0.8-0.41,0.96c-0.4,0.15-0.62-0.18-0.83-0.43c-1.65-2.05-3.77-3.41-6.25-4.25
						c-0.34-0.11-0.78-0.4-1-0.19c-0.25,0.23,0.08,0.66,0.19,0.97c1.95,5.41,3.12,10.96,3.1,16.86C126.76,57.05,126.88,57.03,127,57
						z M158.06,47.32c0.19-0.04,0.39-0.04,0.59-0.04c0.73,0,1.05,0.26,1.15,1c0.12,0.85,0.07,1.7-0.13,2.54
						c-0.63,3.21-2.48,5.31-5.69,6.15c-0.32,0.08-0.65,0.15-1,0.12c-0.41-0.04-0.66-0.24-0.74-0.64
						C151.28,51.89,154.23,48.04,158.06,47.32z M142.52,47.14c0.66-3.04,2.18-5.4,4.25-7.41c1.15-1.11,2.09-0.92,2.78,0.55
						c1.02,2.14,1.62,4.39,1.5,6.78c-0.14,2.68-1.02,5.07-3.06,6.93c-0.5,0.45-1.05,0.85-1.65,1.16c-0.8,0.42-1.23,0.36-1.83-0.33
						c-1.5-1.71-2.11-3.74-2.11-5.97C142.39,48.22,142.48,47.59,142.52,47.14z M133.6,45.91c0.14-0.81,0.39-1.5,0.68-2.17
						c0.41-0.93,1.02-1.11,1.92-0.6c1.14,0.64,2,1.57,2.6,2.71c1.32,2.53,1.23,5.07-0.12,7.57c-0.45,0.83-0.96,1-1.76,0.5
						c-2.18-1.38-3.36-3.37-3.44-5.96C133.45,47.25,133.46,46.54,133.6,45.91z"/>
					<path class="st9" d="M112.83,87.72c3.51-2.22,7.2-4.16,10.56-6.61c0.19-0.14,0.34-0.28,0.41-0.56
						c0.89-3.68,1.63-7.38,1.27-11.19c-0.14-1.48-0.63-2.88-1.96-3.78c-1.82-1.23-4.85-0.54-6.13,1.38c-0.6,0.9-1.1,1.87-1.55,2.86
						c-1.5,3.34-2.38,6.84-2.64,10.49c-0.18,2.47-0.45,4.94-0.14,7.42C112.72,87.73,112.79,87.75,112.83,87.72z M117.02,70.59
						c0.61-1.17,1.57-1.81,2.6-1.9c1.41,0.01,2.67,1.27,2.67,2.38c0,0.14-0.02,0.27-0.15,0.35c-0.14,0.08-0.26,0.03-0.37-0.07
						c-0.06-0.06-0.12-0.11-0.18-0.17c-1.56-1.31-2.54-1.36-4.12-0.18c-0.19,0.14-0.38,0.46-0.61,0.27
						C116.58,71.05,116.91,70.8,117.02,70.59z M116.08,77.85c-0.05-1.45,0.31-2.73,1.11-3.88c0.35-0.5,0.79-0.9,1.32-1.19
						c1.56-0.85,2.87-0.38,3.54,1.28c0.92,2.26,0.32,5.54-1.29,7.07c-1.6,1.53-3.65,1.01-4.38-1.08
						C116.13,79.32,116.06,78.57,116.08,77.85z"/>
					<path class="st9" d="M126.41,67.98c0.57,2.69,0.32,5.36-0.09,8.03c-0.2,1.3-0.48,2.59-0.74,3.98c2.37-0.85,4.01,0.27,5.57,2.04
						c0-1.22-0.02-2.23,0-3.23c0.09-3.25,0.85-6.31,2.6-9.1c3.17-5.06,7.74-7.38,13.64-6.68c5.04,0.6,8.46,3.52,10.42,8.16
						c1.55,3.68,1.73,7.52,1.35,11.44c-0.41,4.15-1.85,7.88-4.25,11.27c-1.42,2.01-3.22,3.69-4.82,5.55
						c-3.08,3.6-3.81,7.55-1.86,11.95c0.3,0.68,0.56,0.73,1.17,0.39c2.35-1.3,4.71-2.59,7.11-3.8c2.59-1.32,5.32-2.25,8.22-2.65
						c1.32-0.18,2.65,0.01,4-0.16c-0.38-1.39-0.81-2.73-0.94-4.14c-0.28-3.18,0.33-6.3,0.55-9.44c0.43-6.14,0.03-12.17-2.06-18
						c-1.43-3.99-3.77-7.34-7.49-9.56c-5.96-3.57-12.54-4.95-19.36-5.47c-2.53-0.19-5.07-0.15-7.6,0.01
						c-2.19,0.14-4.37,0.38-6.47,1.12c-1.83,0.65-3.43,1.65-4.88,3.07C123.95,63.06,125.7,64.66,126.41,67.98z"/>
					<path class="st9" d="M98.82,110.55c0.15-0.42-0.01-0.52-0.35-0.42c-0.65,0.19-1.29,0.39-1.93,0.63
						c-3.12,1.16-5.56,3.11-7.13,6.23c0.93-0.12,1.74-0.2,2.54-0.34C95.48,116.02,97.64,113.83,98.82,110.55z"/>
					<path class="st9" d="M118.02,92.82c1.16,0.59,2.37,1,3.61,1.32c3.94,1.03,7.64,0.67,10.9-1.97c1.09-0.88,2.08-1.87,2.57-3.37
						C129.79,92.07,124.02,92.89,118.02,92.82z"/>
					<path class="st9" d="M92.88,187.67c-0.07,0.23-0.14,0.46-0.21,0.68c-1.35,4.35-2.95,8.59-5.17,12.58
						c-2.24,4.03-5.13,7.55-8.42,10.75c-0.56,0.54-0.4,0.75,0.14,1.09c1.7,1.05,3.51,1.81,5.46,2.24c2.9,0.63,4.55-0.06,6.12-2.6
						c2.2-3.54,3.75-7.36,5.01-11.32c0.2-0.64,0.15-1.19-0.07-1.8C94.34,195.55,93.5,191.67,92.88,187.67z"/>
					<path class="st9" d="M97.71,150.04c0.28-2.01,0.57-4.03,0.87-6.04c0.35-2.41,0.69-4.83,1.08-7.24
						c0.48-3.04,1.26-6.01,2.13-8.96c-0.19-0.07-0.28,0.06-0.38,0.12c-2.13,1.28-4.38,2.02-6.9,1.5c-0.22-0.05-0.37-0.06-0.53,0.2
						c-0.57,0.9-1.47,1.33-2.46,1.6c-1.33,0.37-2.67,0.66-3.96,1.16c-0.39,0.15-0.62,0.34-0.59,0.83c0.11,1.9,0.24,3.79,0.6,5.67
						c0.37,1.95,1.09,3.79,1.77,5.64c0.22,0.59,0.09,1.08-0.52,1.35c-0.59,0.26-0.97-0.01-1.27-0.52c-0.69-1.15-1.03-2.43-1.38-3.71
						c-0.65-2.39-0.94-4.83-1.02-7.46c-0.49,0.41-0.85,0.7-1.2,1c-0.24,0.2-0.46,0.59-0.79,0.37c-0.35-0.23-0.19-0.63-0.06-0.97
						c0.8-2.03,2.25-3.34,4.33-4c1.26-0.4,2.56-0.67,3.76-1.26c1.44-0.7,1.74-1.6,0.96-2.96c-1.44-2.51-5.43-4.22-8.36-3.05
						c-3.98,1.59-5.92,5.23-6.1,9.39c-0.12,2.82,0.86,5.37,2.37,7.73c2.57,4.02,6.25,6.66,10.57,8.5c2.02,0.86,4.08,1.59,6.29,1.8
						C97.45,150.77,97.64,150.53,97.71,150.04z"/>
					<path class="st9" d="M110.6,118.87c2.03,1.63,4.29,2.84,6.71,3.77c5.89,2.24,11.96,3.08,18.22,2.17
						c4.55-0.66,8.88-2.11,13.07-3.96c3.78-1.68,7.47-3.59,11.4-4.92c3.58-1.21,7.24-1.7,10.96-0.73c3.22,0.83,5.91,2.53,7.96,5.44
						c0-0.35,0.02-0.49,0-0.62c-0.5-2.95-1.78-5.55-3.62-7.89c-2.22-2.82-5.09-4.3-8.72-4.33c-2.28-0.02-4.46,0.46-6.63,1.09
						c-3.54,1.04-6.69,2.91-9.95,4.56c-5.17,2.61-10.45,4.84-16.31,5.38c-2.73,0.25-5.42,0.17-8.09-0.47
						c-4.79-1.16-8.91-3.5-12.32-7.07c-0.29-0.31-0.45-0.44-0.77,0c-0.83,1.14-1.76,2.21-2.57,3.37
						C108.74,116.36,108.97,117.57,110.6,118.87z"/>
					<path class="st9" d="M126.32,218.32c-3.41,0.07-6.81-0.12-10.09-1.07c-1.48-0.43-2.69-0.4-4.15,0.19
						c-2.7,1.08-5.54,1.78-8.31,2.69c-1.53,0.5-3.02,1.1-4.55,2.12c1.19-0.06,2.1,0.14,2.93,0.64c0.94,0.57,1.15,1.5,1.21,2.57
						c0.16-0.11,0.24-0.16,0.32-0.22c2.29-1.66,4.67-3.17,7.24-4.36c0.64-0.3,1.28-0.59,2-0.61c0.13,0,0.28-0.04,0.34,0.13
						c0.05,0.15-0.02,0.26-0.14,0.35c-0.13,0.09-0.26,0.19-0.4,0.27c-1.9,1.11-3.72,2.33-5.53,3.59c-0.97,0.67-1.96,1.32-2.96,2.25
						c2.07-0.24,3.95-0.47,5.85-0.19c1.95,0.29,3.81,0.7,4.8,2.77c0.9-0.95,1.84-1.82,2.84-2.61c2.16-1.7,4.54-3.07,6.77-4.67
						c0.97-0.7,1.97-1.38,2.6-2.44C127.66,218.79,127.38,218.3,126.32,218.32z"/>
					<path class="st9" d="M161.01,218.93c-3.4,0.96-6.86,1.34-10.39,0.88c-0.53-0.07-0.99-0.08-1.2,0.6
						c-0.12,0.39-0.45,0.74-0.73,1.06c-1.57,1.82-3.62,3.03-5.57,4.36c-1.6,1.09-3.19,2.17-4.63,3.75c3.16,0.02,5.91,0.51,6.95,4.02
						c1.43-2.83,3.2-5.29,5.16-7.62c0.23-0.27,0.52-0.83,0.86-0.59c0.43,0.29-0.06,0.74-0.23,1.04c-1.21,2.15-2.48,4.27-3.71,6.4
						c-0.19,0.32-0.47,0.63-0.42,1.12c1.88-0.86,3.75-1.44,5.78-1.45c2-0.01,3.92,0.21,5.36,1.83c1.32-1.75,2.87-5.44,3.54-8.34
						c0.5-2.16,0.74-4.33,0.19-6.52C161.81,218.92,161.65,218.75,161.01,218.93z"/>
					<path class="st9" d="M156.47,201.21c2.79-4.91,3.76-10.3,3.96-15.86c0.1-2.75-0.15-5.49-0.46-8.23
						c-0.44-3.86-1.23-7.64-2.3-11.37c-0.11-0.4-0.22-0.47-0.59-0.28c-2.45,1.26-4.56,2.94-6.32,5.07
						c-1.44,1.74-2.67,3.65-4.32,5.21c-1.8,1.71-3.61,1.74-5.37,0.02c-1.01-0.99-1.7-2.18-2.23-3.47
						c-1.56-3.77-1.17-7.55,0.12-11.28c1.79-5.2,5.1-9.35,9.12-13.01c4.37-3.97,7.47-8.6,7.51-14.79c0.01-1.92-0.1-3.82-1.22-5.47
						c-1.13-1.67-2.13-3.4-2.83-5.29c-0.17-0.46-0.37-0.4-0.72-0.25c-0.97,0.41-1.95,0.8-2.93,1.19c-4.75,1.94-9.67,3.18-14.78,3.51
						c-3.53,0.23-7.07,0.01-10.54-0.79c-5.19-1.18-10.2-2.78-14.23-6.51c-0.29-0.27-0.45-0.21-0.61,0.09
						c-0.11,0.19-0.22,0.38-0.33,0.56c-2.6,4.33-4.26,9-5.01,13.98c-0.35,2.29-0.46,4.63-0.05,6.92c0.49,2.73,0.25,5.3-0.84,7.87
						c-3.63,8.58-5.64,17.56-6.33,26.83c-0.29,3.89-0.21,7.78,0.27,11.66c0.46,3.7,1.28,7.3,2.65,10.76
						c2.27,5.69,5.64,10.52,10.99,13.76c5.33,3.24,11.17,4.45,17.33,4.47c1.75,0.04,3.48-0.12,5.21-0.31
						c4.24-0.47,8.28-1.58,12.1-3.47C149.07,210.12,153.49,206.46,156.47,201.21z"/>
					<path class="st9" d="M114.09,109.01c-0.23,0.37-0.03,0.55,0.16,0.77c0.9,1.02,1.89,1.96,2.98,2.79
						c5.29,4.03,11.3,5.22,17.77,4.38c4.01-0.52,7.74-1.99,11.35-3.76c0.5-0.25,0.58-0.5,0.36-1.01c-0.64-1.44-1.04-2.97-1.16-4.54
						c-0.24-3.2,0.75-6.04,2.63-8.61c1.38-1.9,3.06-3.55,4.51-5.38c2.67-3.38,4.23-7.21,4.67-11.5c0.32-3.12,0.18-6.18-0.87-9.16
						c-3.07-8.72-12.9-10.2-18.7-5.19c-4.12,3.56-5.53,8.27-5.13,13.64c0.13,1.68,0.73,2.73,2.2,3.63c2.3,1.41,2.57,3.25,1.2,5.59
						c-0.53,0.91-1.23,1.67-2,2.36c-2.94,2.63-6.39,3.53-10.26,3.08c-2.53-0.29-4.88-1.16-7.22-2.1c-1.04-0.42-2.07-0.78-3.28-0.5
						c0.47,1.44,0.95,2.87,1.41,4.31C115.93,101.62,116.33,105.39,114.09,109.01z M141.58,69.84c2.45-1.82,6.4-0.27,7.03,2.72
						c0.04,0.19,0.11,0.41-0.07,0.52c-0.19,0.12-0.35-0.03-0.49-0.17c-0.31-0.31-0.61-0.62-0.92-0.92c-1.52-1.48-3.32-1.76-5.2-0.81
						c-0.5,0.26-1,0.52-1.59,0.84C140.2,70.84,140.93,70.32,141.58,69.84z M139.86,75.54c0.77-2.13,3.83-3.84,6.05-1.92
						c0.92,0.8,1.48,1.86,1.55,3.05c0.13,2.19-0.3,4.27-1.83,5.97c-0.66,0.73-1.46,1.23-2.42,1.11c-1.52,0.07-2.52-0.59-3.11-1.89
						C139.16,79.79,139.09,77.65,139.86,75.54z"/>
					<path class="st9" d="M173.86,196.71c-0.61-3.3-1.1-6.63-1.52-9.96c-0.37-2.91-0.76-5.81-1.09-8.73
						c-0.32-2.89-0.54-5.79-0.86-8.68c-0.34-3.05-0.75-6.09-1.1-9.13c-0.13-1.12-0.14-1.15-1.08-0.62c-2.83,1.6-5.64,3.23-8.65,4.46
						c-0.57,0.24-0.63,0.45-0.45,1.02c1.43,4.61,2.5,9.31,2.94,14.12c0.36,3.99,0.34,7.99-0.28,11.97
						c-0.65,4.13-1.89,8.04-4.04,11.65c-3.16,5.31-7.91,8.8-13.28,11.56c-0.78,0.4-1.59,0.75-2.54,1.2
						c0.73,0.21,1.29,0.36,1.84,0.54c2.59,0.82,5.21,1.49,7.92,1.68c2.56,0.18,5.11-0.05,7.61-0.63
						c6.91-1.58,12.25-5.37,15.97-11.42c0.19-0.31,0.23-0.59,0.15-0.99C174.85,202.08,174.35,199.4,173.86,196.71z"/>
					<path class="st9" d="M143.62,155.99c-2.67,3.95-4.36,8.19-3.63,13.07c0.29,1.95,1.12,3.68,2.57,5.05
						c0.95,0.9,1.56,0.89,2.56,0.04c1.08-0.93,1.95-2.05,2.78-3.2c3-4.19,6.78-7.37,11.61-9.28c2.98-1.17,5.79-2.7,8.56-4.31
						c0.72-0.42,0.81-0.92,0.68-1.59c-0.31-1.7-0.59-3.41-0.96-5.11c-1.25-5.81-3.34-11.25-7.13-15.93
						c-0.93-1.15-1.9-2.28-3.14-3.31c-0.07,1.18-0.16,2.23-0.19,3.28c-0.05,1.55-0.3,3.07-0.77,4.55c-1.26,3.93-3.64,7.15-6.62,9.93
						C147.67,151.29,145.38,153.39,143.62,155.99z"/>
					<path class="st9" d="M199.23,204.77c-4.45-5.71-7.61-12.09-9.66-19.03c-2.39-8.11-3.7-16.42-4.57-24.81
						c-0.44-4.24-0.8-8.5-1.15-12.75c-0.36-4.39-0.81-8.76-1.67-13.08c-0.74-3.75-1.7-7.45-3.62-10.8c-3.45-6.02-8.1-7.7-14.01-7.11
						c-3.89,0.39-7.46,1.96-10.97,3.62c-0.49,0.23-0.48,0.46-0.26,0.93c1.56,3.44,3.81,6.37,6.43,9.06
						c1.83,1.87,3.49,3.89,4.88,6.11c3.94,6.31,5.78,13.3,6.76,20.58c0.42,3.15,0.84,6.29,1.17,9.45c0.4,3.75,0.89,7.5,1.26,11.26
						c0.33,3.38,0.76,6.74,1.21,10.1c0.57,4.29,1.21,8.58,2.08,12.83c0.93,4.51,2.08,8.95,4.08,13.13c0.2,0.41,0.41,0.82,0.63,1.22
						c7.8-0.1,15.75-1.36,22.45-5.49C202.44,208.44,200.74,206.71,199.23,204.77z"/>
					<path class="st9" d="M144.08,77.96c2.03,0,2.03-3.15,0-3.15C142.06,74.81,142.05,77.96,144.08,77.96z"/>
					<path class="st9" d="M116.5,91.14c3.48,0.28,6.94,0.27,10.37-0.51c2.61-0.59,5.08-1.46,7.29-3.02c0.51-0.36,0.55-0.7,0.13-1.12
						c-0.19-0.19-0.39-0.4-0.62-0.53c-1.75-0.99-3.23-2.3-4.62-3.72c-1.22-1.24-2.51-1.36-3.96-0.42c-1.14,0.74-2.23,1.54-3.36,2.3
						c-2.86,1.91-5.96,3.46-8.73,5.52c-0.63,0.47-1.21,0.99-1.57,1.74c0.34,0.12,0.64,0.1,0.92,0.03
						C113.73,91.07,115.12,91.03,116.5,91.14z M126.32,86.03c0.48-0.25,0.99-0.42,1.53-0.54c0.3-0.07,0.49-0.01,0.62,0.22
						c0.16,0.28,0.02,0.54-0.21,0.71c-0.49,0.36-1.08,0.49-1.6,0.6c-0.34-0.02-0.64-0.04-0.73-0.36
						C125.85,86.36,126.05,86.17,126.32,86.03z"/>
					<path d="M205.4,207.56c-1.64-1.56-3.14-3.27-4.5-5.07c-5.65-7.48-8.84-16.02-10.84-25.08c-0.84-3.81-1.52-7.65-2-11.52
						c-0.37-2.99-0.76-5.98-1.1-8.97c-0.27-2.4-0.44-4.82-0.7-7.22c-0.34-3.1-0.74-6.2-1.1-9.3c-0.36-3.04-0.89-6.05-1.58-9.03
						c-0.37-1.61-0.95-3.18-1.18-4.8c-0.4-2.87-0.67-5.76-1.52-8.55c-1.53-5.02-4.08-9.28-8.89-11.83
						c-0.21-0.11-0.34-0.26-0.42-0.47c-0.82-2.22-1.52-4.45-1.49-6.87c0.04-2.54,0.42-5.04,0.55-7.57c0.2-3.92,0.27-7.83-0.35-11.73
						c-0.8-5.02-2.63-9.88-6-13.75c-0.29-0.33-0.58-0.64-0.89-0.94c1.85-3.8,3.98-7.46,6.41-10.93c1.16-1.66,2.71-3.26,3.41-5.18
						c0.27-0.75-0.01-1.39-0.8-1.6c-0.08-0.02-0.17-0.03-0.25-0.05c-0.16-0.06-0.33-0.11-0.54-0.15c-0.14-0.03-0.27-0.05-0.41-0.06
						c-0.52-0.04-1.03-0.04-1.55-0.03c0,0,0,0-0.01,0c-1.64-0.1-3.3-0.03-4.86,0.45c0.9-1.66,1.63-3.4,2.16-5.21
						c0.26-0.9,0.71-2.04,0.13-2.9c-0.41-0.62-1.18-0.81-1.88-0.83c-0.9-0.03-1.83,0.22-2.69,0.45c-0.99,0.27-1.96,0.62-2.9,1.04
						c-1.33,0.59-2.56,1.36-3.71,2.24c0.04-2.03-0.14-4.07-0.58-6.06c-0.47-2.13-1.14-4.52-2.45-6.31
						c-1.21-1.64-3.08-2.32-4.97-1.33c-1.05,0.55-1.83,1.47-2.59,2.36c-0.8,0.93-1.59,1.87-2.32,2.86c-1.13,1.52-2.06,3.19-2.56,5
						c-1.24-2.21-2.92-4.19-5.21-5.35c-1.27-0.64-2.77-1.1-4.21-1c-0.71,0.05-1,0.52-1,1.19c0,0.91,0.07,1.82,0.11,2.73
						c0.06,1.57,0.12,3.14,0.19,4.71c-1.04-1.08-2.26-1.99-3.6-2.67c-1.23-0.63-3.4-1.7-4.66-0.58c-1.54,1.37,0.25,3.93,0.78,5.36
						c0.81,2.18,1.17,4.59,1.5,6.89c0.36,2.54,0.52,5.11,0.52,7.68c-0.11,0.04-0.22,0.06-0.33,0.1c-2.11,0.77-4.03,2.02-5.7,3.51
						c-2.14,1.9-3.77,4.31-4.9,6.93c-2.84,6.61-3.8,13.54-3.27,20.7c0.03,0.38-0.05,0.66-0.3,0.96c-0.56,0.67-1.08,1.37-1.58,2.08
						c-0.38,0.54-0.21,0.98,0.38,1.23c0.47,0.2,0.97,0.34,1.49,0.35c0.32,0,0.57,0.02,0.71,0.47c0.57,1.92,1.23,3.81,1.84,5.71
						c0.85,2.66,0.87,5.27-0.49,7.8c-0.87,1.61-2.05,3-3.18,4.43c-1.01,1.27-2.17,2.5-2.49,4.14c-0.17,0.86-0.59,1.54-1,2.26
						c-0.63,1.11-1.27,2.21-1.88,3.33c-0.57,1.05-1.2,2.07-2,2.96c-1.72,1.91-3.77,3.17-6.46,3.1c-0.73-0.02-1.25-0.24-1.53-1.02
						c-0.88-2.41-2.72-3.86-4.99-4.86c-1.51-0.66-1.48-0.65-0.95-2.3c0.21-0.64,0.49-0.88,1.19-0.92c1.81-0.09,3.64-0.17,5.33-0.94
						c2.94-1.33,4.58-3.81,5.78-6.66c0.21-0.5,0.44-0.99,0.49-1.54c0.06-0.69-0.43-1.17-1.1-1.06c-0.77,0.13-1.55,0.26-2.3,0.48
						c-3.19,0.92-6.12,2.26-7.99,5.21c-0.07,0.11-0.19,0.18-0.33,0.31c0.13-1.27,0.25-2.53,0.38-3.8c-0.26,0.1-0.56,0.17-0.89,0.17
						c-0.34,0-0.64-0.07-0.91-0.17c-0.18,1.61-0.43,3.23-0.66,4.93c-0.2-0.37-0.3-0.55-0.4-0.74c-1.58-2.79-3.72-4.9-6.92-5.79
						c-2.09-0.59-4.21-0.43-6.32-0.44c-0.32,0-0.67,0.12-0.81,0.46c-0.17,0.39,0.05,0.7,0.32,0.94c1.22,1.11,2.13,2.46,3.02,3.84
						c1.47,2.27,3.56,3.68,6.14,4.42c1.23,0.35,2.5,0.44,3.76,0.65c0.17,0.03,0.49-0.09,0.45,0.19c-0.09,0.61-0.21,1.24-0.45,1.8
						c-0.14,0.33-0.62,0.26-0.96,0.28c-1.56,0.11-2.95,0.65-4.23,1.51c-4.11,2.77-6.13,8.44-4.87,13.56
						c1.2,4.89,4.08,8.6,8.08,11.47c3.86,2.78,8.17,4.54,12.93,5.07c0.61,0.07,0.46,0.34,0.35,0.7c-1.42,4.86-2.58,9.78-3.38,14.78
						c-0.44,2.76-0.87,5.52-1.05,8.31c-0.1,1.49-0.1,3.01-0.4,4.47c-0.98,4.64-2.47,9.13-4.37,13.48
						c-2.44,5.57-5.52,10.72-10.04,14.9c-0.62,0.57-1.26,1.12-1.87,1.71c-0.93,0.9-0.91,1.71,0.1,2.53
						c0.52,0.43,1.09,0.83,1.68,1.15c2.4,1.29,4.92,2.33,7.64,2.58c2.51,0.22,4.96-0.16,6.69-2.34c0.13-0.16,0.29-0.25,0.46-0.31
						c1.38-0.49,2.79-0.85,4.24-1.06c2.76-0.4,5.53-0.28,8.31-0.22c2.53,0.06,4.36,1.56,6.65,2.37c-1.3,0.62-2.53,0.94-3.75,1.28
						c-3.76,1.06-7.45,2.28-10.85,4.25c-0.69,0.4-1.35,0.81-1.88,1.42c-0.29,0.34-0.43,0.72-0.26,1.13c0.16,0.37,0.54,0.38,0.9,0.43
						c1.28,0.16,2.56,0.02,3.84,0.09c1.55,0.08,2.02,0.91,1.25,2.26c-0.35,0.61-0.78,1.17-1.15,1.77c-0.2,0.32-0.25,0.68-0.03,1
						c0.24,0.35,0.62,0.3,0.97,0.23c0.32-0.06,0.63-0.16,0.95-0.22c2.26-0.46,4.51-1.01,6.84-0.87c2.05,0.12,4.07,0.37,4.71,2.87
						c0.19,0.74,0.79,0.87,1.42,0.66c0.31-0.11,0.59-0.39,0.83-0.64c1.54-1.56,3.22-2.93,4.99-4.21c2.12-1.52,4.4-2.8,6.41-4.48
						c1.29-1.08,2.48-2.25,2.39-4.13c-0.02-0.43,0.25-0.4,0.53-0.4c0.98,0,1.95-0.14,2.92-0.28c1.61-0.23,3.21-0.55,4.83-0.68
						c3.61-0.29,6.86,1.16,10.24,2.21c-0.55,0.86-1.2,1.5-1.9,2.11c-2.03,1.74-4.32,3.11-6.49,4.66c-1.65,1.18-3.16,2.51-4.2,4.29
						c-0.53,0.91-0.16,1.49,0.87,1.45c1.28-0.05,2.55-0.23,3.83-0.18c1.69,0.07,2.93,0.97,3.47,2.57c0.22,0.65,0.28,1.32,0.32,2
						c0.04,0.96,0.52,1.21,1.34,0.76c0.5-0.27,0.98-0.58,1.47-0.87c2.22-1.34,4.59-2.05,7.21-1.84c1.28,0.11,2.44,0.53,3.11,1.65
						c1.06,1.78,1.55,1,2.41-0.01c0.05-0.06,0.09-0.14,0.13-0.21c2.03-3.03,3.26-6.4,4.09-9.92c0.58-2.47,0.95-4.97,0.01-7.45
						c-0.08-0.2-0.02-0.33,0.15-0.38c0.98-0.28,1.81-0.89,2.91-0.9c6.98-0.08,13.83,2.11,20.82,1.62c3.86-0.27,7.66-1.19,11.27-2.55
						c1.87-0.7,3.69-1.53,5.45-2.47c1.12-0.59,3.26-0.9,3.74-2.18c0.01-0.02,0.02-0.04,0.02-0.07
						C208.67,209.7,206.47,208.58,205.4,207.56z M96.54,110.76c0.63-0.24,1.28-0.44,1.93-0.63c0.35-0.1,0.51-0.01,0.35,0.42
						c-1.19,3.28-3.34,5.47-6.87,6.1c-0.8,0.14-1.61,0.22-2.54,0.34C90.98,113.88,93.42,111.93,96.54,110.76z M76.16,110.13
						c3.56-0.15,8.57,2.7,9.92,6.75C82.49,117.61,78.09,114.64,76.16,110.13z M123.55,40.21c-0.11-0.32-0.45-0.74-0.19-0.97
						c0.22-0.21,0.66,0.08,1,0.19c2.48,0.83,4.6,2.19,6.25,4.25c0.21,0.26,0.43,0.58,0.83,0.43c0.44-0.16,0.42-0.59,0.41-0.96
						c-0.05-2.87-0.09-5.74-0.17-8.61c-0.01-0.53,0.15-0.62,0.61-0.49c1.18,0.34,2.23,0.93,3.17,1.71c2.21,1.83,3.8,4.08,4.6,6.86
						c0.09,0.32,0.14,0.7,0.61,0.67c0.48-0.03,0.59-0.38,0.68-0.77c0.5-2.29,1.08-4.55,2.32-6.58c1.41-2.31,3.12-4.35,5.38-5.87
						c0.96-0.64,1.3-0.59,1.95,0.36c2.06,3.01,2.92,6.38,3.02,9.99c0.04,1.55-0.14,3.09-0.48,4.6c-0.09,0.4-0.05,0.72,0.35,0.9
						c0.4,0.17,0.6-0.09,0.82-0.38c2.55-3.4,5.98-5.16,10.2-5.4c0.81-0.05,0.9,0.09,0.6,0.82c-1.12,2.71-2.15,5.45-3.4,8.1
						c-0.13,0.28-0.3,0.6,0.02,0.87c0.29,0.24,0.59,0.15,0.88-0.04c2.38-1.48,5-1.92,7.75-1.79c0.12,0.01,0.23,0.04,0.35,0.05
						c0.49,0.04,0.51,0.22,0.21,0.57c-1.66,1.97-3.27,3.98-4.67,6.15c-1.71,2.66-3.13,5.46-4.33,8.38
						c-0.16,0.38-0.26,0.43-0.58,0.19c-4.71-3.69-11.11-5.31-16.83-6.32c-1.93-0.34-3.86-0.58-5.81-0.73
						c-2.81-0.3-5.65-0.39-8.49-0.21c-1.23,0.08-2.43,0.3-3.63,0.82c-0.12,0.02-0.24,0.05-0.36,0.07
						C126.66,51.17,125.5,45.62,123.55,40.21z M125.37,59.67c2.09-0.75,4.27-0.98,6.47-1.12c2.53-0.17,5.06-0.21,7.6-0.01
						c6.82,0.52,13.4,1.91,19.36,5.47c3.72,2.23,6.06,5.57,7.49,9.56c2.09,5.83,2.49,11.86,2.06,18c-0.22,3.14-0.83,6.26-0.55,9.44
						c0.12,1.41,0.56,2.75,0.94,4.14c-1.35,0.17-2.67-0.02-4,0.16c-2.91,0.4-5.63,1.33-8.22,2.65c-2.4,1.22-4.75,2.51-7.11,3.8
						c-0.61,0.34-0.87,0.28-1.17-0.39c-1.95-4.4-1.22-8.35,1.86-11.95c1.59-1.86,3.39-3.54,4.82-5.55c2.4-3.39,3.84-7.12,4.25-11.27
						c0.38-3.92,0.2-7.77-1.35-11.44c-1.96-4.64-5.38-7.57-10.42-8.16c-5.9-0.7-10.47,1.63-13.64,6.68c-1.75,2.79-2.51,5.85-2.6,9.1
						c-0.03,1.01,0,2.02,0,3.23c-1.56-1.77-3.19-2.89-5.57-2.04c0.26-1.39,0.54-2.68,0.74-3.98c0.41-2.67,0.66-5.34,0.09-8.03
						c-0.7-3.32-2.46-4.92-5.91-5.24C121.94,61.32,123.54,60.32,125.37,59.67z M112.79,80.31c0.26-3.66,1.14-7.15,2.64-10.49
						c0.45-0.99,0.95-1.95,1.55-2.86c1.28-1.93,4.31-2.61,6.13-1.38c1.33,0.9,1.82,2.3,1.96,3.78c0.36,3.81-0.38,7.51-1.27,11.19
						c-0.07,0.28-0.22,0.42-0.41,0.56c-3.36,2.45-7.05,4.39-10.56,6.61c-0.04,0.02-0.1,0.01-0.17,0.01
						C112.35,85.25,112.62,82.78,112.79,80.31z M112.36,91.4c-0.28,0.07-0.58,0.09-0.92-0.03c0.36-0.75,0.94-1.27,1.57-1.74
						c2.77-2.06,5.87-3.6,8.73-5.52c1.13-0.75,2.22-1.56,3.36-2.3c1.45-0.94,2.74-0.82,3.96,0.42c1.4,1.42,2.88,2.73,4.62,3.72
						c0.23,0.13,0.43,0.34,0.62,0.53c0.42,0.42,0.38,0.76-0.13,1.12c-2.21,1.55-4.68,2.42-7.29,3.02
						c-3.43,0.78-6.89,0.78-10.37,0.51C115.12,91.03,113.73,91.07,112.36,91.4z M135.1,88.81c-0.49,1.5-1.48,2.49-2.57,3.37
						c-3.27,2.64-6.97,2.99-10.9,1.97c-1.24-0.32-2.44-0.74-3.61-1.32C124.02,92.89,129.79,92.07,135.1,88.81z M113.3,93.49
						c1.21-0.28,2.24,0.08,3.28,0.5c2.33,0.94,4.69,1.81,7.22,2.1c3.87,0.45,7.33-0.45,10.26-3.08c0.77-0.69,1.47-1.45,2-2.36
						c1.36-2.34,1.09-4.18-1.2-5.59c-1.47-0.9-2.07-1.95-2.2-3.63c-0.4-5.37,1.01-10.08,5.13-13.64c5.8-5.01,15.63-3.54,18.7,5.19
						c1.05,2.98,1.19,6.04,0.87,9.16c-0.44,4.3-2,8.13-4.67,11.5c-1.45,1.84-3.13,3.48-4.51,5.38c-1.87,2.57-2.87,5.4-2.63,8.61
						c0.12,1.58,0.52,3.1,1.16,4.54c0.23,0.51,0.15,0.77-0.36,1.01c-3.61,1.77-7.34,3.24-11.35,3.76
						c-6.47,0.85-12.48-0.34-17.77-4.38c-1.09-0.83-2.08-1.76-2.98-2.79c-0.19-0.22-0.39-0.4-0.16-0.77
						c2.23-3.62,1.84-7.4,0.62-11.21C114.25,96.36,113.77,94.93,113.3,93.49z M109.94,114.65c0.81-1.16,1.74-2.23,2.57-3.37
						c0.32-0.44,0.47-0.3,0.77,0c3.41,3.57,7.53,5.9,12.32,7.07c2.67,0.65,5.37,0.72,8.09,0.47c5.85-0.54,11.14-2.77,16.31-5.38
						c3.26-1.64,6.42-3.52,9.95-4.56c2.16-0.64,4.35-1.11,6.63-1.09c3.63,0.03,6.49,1.51,8.72,4.33c1.84,2.34,3.12,4.94,3.62,7.89
						c0.02,0.13,0,0.27,0,0.62c-2.05-2.91-4.74-4.61-7.96-5.44c-3.72-0.96-7.38-0.48-10.96,0.73c-3.93,1.33-7.62,3.24-11.4,4.92
						c-4.2,1.86-8.52,3.31-13.07,3.96c-6.26,0.9-12.33,0.07-18.22-2.17c-2.42-0.92-4.68-2.14-6.71-3.77
						C108.97,117.57,108.74,116.36,109.94,114.65z M96.88,150.72c-2.21-0.21-4.27-0.94-6.29-1.8c-4.32-1.84-8-4.48-10.57-8.5
						c-1.51-2.35-2.49-4.91-2.37-7.73c0.18-4.16,2.12-7.8,6.1-9.39c2.93-1.17,6.92,0.54,8.36,3.05c0.78,1.36,0.48,2.25-0.96,2.96
						c-1.2,0.58-2.5,0.85-3.76,1.26c-2.08,0.66-3.53,1.97-4.33,4c-0.13,0.33-0.29,0.74,0.06,0.97c0.33,0.22,0.56-0.17,0.79-0.37
						c0.35-0.3,0.71-0.59,1.2-1c0.08,2.64,0.37,5.08,1.02,7.46c0.35,1.28,0.69,2.56,1.38,3.71c0.3,0.51,0.68,0.78,1.27,0.52
						c0.62-0.27,0.74-0.75,0.52-1.35c-0.68-1.85-1.4-3.69-1.77-5.64c-0.35-1.88-0.49-3.77-0.6-5.67c-0.03-0.49,0.2-0.68,0.59-0.83
						c1.29-0.5,2.64-0.79,3.96-1.16c0.99-0.27,1.89-0.7,2.46-1.6c0.16-0.26,0.31-0.24,0.53-0.2c2.52,0.52,4.77-0.22,6.9-1.5
						c0.11-0.06,0.19-0.19,0.38-0.12c-0.87,2.95-1.65,5.92-2.13,8.96c-0.38,2.41-0.73,4.82-1.08,7.24
						c-0.29,2.01-0.58,4.02-0.87,6.04C97.64,150.53,97.45,150.77,96.88,150.72z M95.81,201.09c-1.26,3.96-2.81,7.78-5.01,11.32
						c-1.57,2.54-3.22,3.23-6.12,2.6c-1.95-0.42-3.76-1.18-5.46-2.24c-0.54-0.33-0.7-0.54-0.14-1.09c3.29-3.2,6.18-6.72,8.42-10.75
						c2.22-3.99,3.82-8.23,5.17-12.58c0.07-0.23,0.14-0.46,0.21-0.68c0.62,4,1.46,7.87,2.85,11.62
						C95.96,199.9,96.01,200.45,95.81,201.09z M127.1,219.72c-0.63,1.05-1.63,1.74-2.6,2.44c-2.23,1.6-4.61,2.97-6.77,4.67
						c-1.01,0.79-1.94,1.66-2.84,2.61c-0.99-2.06-2.85-2.48-4.8-2.77c-1.9-0.28-3.78-0.05-5.85,0.19c0.99-0.94,1.99-1.58,2.96-2.25
						c1.81-1.25,3.64-2.47,5.53-3.59c0.14-0.08,0.27-0.18,0.4-0.27c0.12-0.08,0.19-0.2,0.14-0.35c-0.06-0.17-0.21-0.14-0.34-0.13
						c-0.72,0.02-1.37,0.31-2,0.61c-2.57,1.19-4.95,2.7-7.24,4.36c-0.08,0.06-0.17,0.12-0.32,0.22c-0.06-1.07-0.28-2-1.21-2.57
						c-0.83-0.5-1.74-0.7-2.93-0.64c1.53-1.02,3.02-1.62,4.55-2.12c2.77-0.9,5.62-1.61,8.31-2.69c1.46-0.58,2.67-0.61,4.15-0.19
						c3.28,0.95,6.68,1.14,10.09,1.07C127.38,218.3,127.66,218.79,127.1,219.72z M131.62,216.21c-1.73,0.19-3.47,0.35-5.21,0.31
						c-6.15-0.02-12-1.23-17.33-4.47c-5.34-3.25-8.72-8.07-10.99-13.76c-1.38-3.46-2.19-7.06-2.65-10.76
						c-0.49-3.88-0.56-7.78-0.27-11.66c0.69-9.27,2.7-18.25,6.33-26.83c1.08-2.56,1.33-5.14,0.84-7.87
						c-0.42-2.29-0.3-4.63,0.05-6.92c0.75-4.98,2.41-9.65,5.01-13.98c0.11-0.19,0.22-0.37,0.33-0.56c0.17-0.3,0.32-0.36,0.61-0.09
						c4.03,3.73,9.04,5.33,14.23,6.51c3.47,0.79,7,1.02,10.54,0.79c5.11-0.33,10.04-1.58,14.78-3.51c0.98-0.4,1.96-0.78,2.93-1.19
						c0.34-0.15,0.54-0.21,0.72,0.25c0.7,1.89,1.71,3.62,2.83,5.29c1.12,1.66,1.23,3.55,1.22,5.47c-0.03,6.18-3.14,10.81-7.51,14.79
						c-4.02,3.65-7.33,7.81-9.12,13.01c-1.29,3.73-1.68,7.51-0.12,11.28c0.53,1.29,1.22,2.48,2.23,3.47
						c1.76,1.71,3.57,1.69,5.37-0.02c1.65-1.57,2.88-3.48,4.32-5.21c1.76-2.13,3.87-3.81,6.32-5.07c0.37-0.19,0.47-0.11,0.59,0.28
						c1.06,3.73,1.85,7.51,2.3,11.37c0.31,2.74,0.56,5.48,0.46,8.23c-0.2,5.56-1.17,10.95-3.96,15.86
						c-2.97,5.24-7.4,8.9-12.75,11.53C139.9,214.63,135.86,215.75,131.62,216.21z M156.56,139.25c0.48-1.48,0.72-3,0.77-4.55
						c0.04-1.05,0.12-2.1,0.19-3.28c1.24,1.03,2.21,2.16,3.14,3.31c3.79,4.67,5.88,10.12,7.13,15.93c0.36,1.69,0.65,3.4,0.96,5.11
						c0.12,0.68,0.04,1.17-0.68,1.59c-2.77,1.61-5.58,3.14-8.56,4.31c-4.83,1.9-8.61,5.09-11.61,9.28c-0.82,1.15-1.7,2.27-2.78,3.2
						c-0.99,0.85-1.61,0.86-2.56-0.04c-1.45-1.37-2.28-3.1-2.57-5.05c-0.73-4.89,0.97-9.12,3.63-13.07c1.75-2.6,4.04-4.69,6.32-6.81
						C152.92,146.4,155.29,143.18,156.56,139.25z M161.76,226c-0.68,2.9-2.23,6.6-3.54,8.34c-1.44-1.62-3.35-1.84-5.36-1.83
						c-2.02,0.01-3.9,0.59-5.78,1.45c-0.05-0.49,0.24-0.8,0.42-1.12c1.23-2.14,2.49-4.26,3.71-6.4c0.17-0.3,0.67-0.75,0.23-1.04
						c-0.34-0.23-0.63,0.33-0.86,0.59c-1.96,2.33-3.73,4.79-5.16,7.62c-1.04-3.51-3.79-3.99-6.95-4.02
						c1.44-1.58,3.03-2.67,4.63-3.75c1.96-1.33,4.01-2.54,5.57-4.36c0.28-0.33,0.61-0.67,0.73-1.06c0.21-0.68,0.67-0.67,1.2-0.6
						c3.53,0.46,6.99,0.08,10.39-0.88c0.64-0.18,0.8-0.01,0.94,0.55C162.5,221.67,162.26,223.83,161.76,226z M175.24,205.75
						c-3.72,6.05-9.06,9.83-15.97,11.42c-2.5,0.57-5.05,0.8-7.61,0.63c-2.71-0.19-5.34-0.86-7.92-1.68
						c-0.55-0.17-1.11-0.32-1.84-0.54c0.95-0.45,1.76-0.8,2.54-1.2c5.38-2.76,10.12-6.25,13.28-11.56
						c2.15-3.61,3.39-7.52,4.04-11.65c0.63-3.98,0.65-7.98,0.28-11.97c-0.44-4.81-1.51-9.51-2.94-14.12
						c-0.18-0.57-0.12-0.78,0.45-1.02c3.01-1.23,5.82-2.87,8.65-4.46c0.94-0.53,0.95-0.5,1.08,0.62c0.35,3.05,0.77,6.08,1.1,9.13
						c0.32,2.89,0.54,5.79,0.86,8.68c0.33,2.91,0.72,5.82,1.09,8.73c0.42,3.33,0.91,6.66,1.52,9.96c0.5,2.69,0.99,5.37,1.54,8.05
						C175.47,205.15,175.43,205.44,175.24,205.75z M181.83,215.5c-0.22-0.4-0.43-0.81-0.63-1.22c-2-4.18-3.15-8.62-4.08-13.13
						c-0.87-4.25-1.51-8.54-2.08-12.83c-0.45-3.36-0.88-6.73-1.21-10.1c-0.36-3.76-0.86-7.5-1.26-11.26
						c-0.33-3.16-0.75-6.3-1.17-9.45c-0.98-7.28-2.81-14.27-6.76-20.58c-1.39-2.23-3.06-4.24-4.88-6.11
						c-2.62-2.69-4.88-5.62-6.43-9.06c-0.21-0.47-0.22-0.7,0.26-0.93c3.51-1.66,7.08-3.23,10.97-3.62
						c5.91-0.59,10.56,1.09,14.01,7.11c1.92,3.35,2.88,7.05,3.62,10.8c0.85,4.32,1.31,8.69,1.67,13.08
						c0.34,4.25,0.7,8.51,1.15,12.75c0.87,8.39,2.18,16.7,4.57,24.81c2.05,6.93,5.21,13.31,9.66,19.03
						c1.51,1.94,3.21,3.66,5.05,5.24C197.58,214.15,189.63,215.4,181.83,215.5z"/>
					<path d="M143.2,83.76c0.97,0.12,1.77-0.38,2.42-1.11c1.53-1.7,1.96-3.78,1.83-5.97c-0.07-1.18-0.62-2.25-1.55-3.05
						c-2.21-1.92-5.27-0.21-6.05,1.92c-0.77,2.11-0.7,4.25,0.23,6.33C140.67,83.17,141.67,83.82,143.2,83.76z M144.08,74.81
						c2.03,0,2.03,3.15,0,3.15C142.05,77.96,142.06,74.81,144.08,74.81z"/>
					<path d="M141.93,71.18c1.88-0.96,3.68-0.68,5.2,0.81c0.31,0.3,0.61,0.61,0.92,0.92c0.14,0.14,0.3,0.3,0.49,0.17
						c0.18-0.12,0.11-0.34,0.07-0.52c-0.63-2.99-4.58-4.54-7.03-2.72c-0.65,0.48-1.38,1-1.24,2.18
						C140.93,71.7,141.42,71.43,141.93,71.18z"/>
					<path d="M120.77,81.13c1.61-1.53,2.2-4.81,1.29-7.07c-0.67-1.65-1.98-2.13-3.54-1.28c-0.53,0.29-0.98,0.69-1.32,1.19
						c-0.8,1.15-1.16,2.44-1.11,3.88c-0.03,0.72,0.05,1.46,0.3,2.2C117.12,82.14,119.17,82.65,120.77,81.13z M119.95,73.56
						c2.03,0,2.03,3.15,0,3.15C117.92,76.71,117.93,73.56,119.95,73.56z"/>
					<path d="M117.47,71c1.59-1.17,2.57-1.13,4.12,0.18c0.06,0.05,0.12,0.11,0.18,0.17c0.11,0.1,0.23,0.15,0.37,0.07
						c0.14-0.08,0.15-0.21,0.15-0.35c0-1.11-1.27-2.37-2.67-2.38c-1.03,0.09-1.99,0.73-2.6,1.9c-0.11,0.21-0.44,0.46-0.16,0.69
						C117.1,71.46,117.28,71.14,117.47,71z"/>
					<path d="M126.65,87.03c0.52-0.11,1.1-0.24,1.6-0.6c0.24-0.17,0.37-0.43,0.21-0.71c-0.13-0.23-0.32-0.29-0.62-0.22
						c-0.53,0.12-1.04,0.29-1.53,0.54c-0.26,0.14-0.47,0.33-0.39,0.64C126.01,86.98,126.31,87.01,126.65,87.03z"/>
					<path d="M146.34,55.15c0.6-0.32,1.15-0.71,1.65-1.16c2.05-1.85,2.92-4.24,3.06-6.93c0.13-2.39-0.48-4.64-1.5-6.78
						c-0.7-1.47-1.64-1.67-2.78-0.55c-2.07,2.01-3.59,4.37-4.25,7.41c-0.04,0.45-0.13,1.08-0.13,1.71c0.01,2.23,0.62,4.26,2.11,5.97
						C145.1,55.51,145.54,55.58,146.34,55.15z M144.66,44.5c0.75-1.5,1.81-2.78,3.02-3.94c0.27-0.26,0.46-0.35,0.67,0.06
						c1.22,2.43,1.82,4.97,1.43,7.55c-0.52,2.48-1.71,4.34-3.72,5.66c-0.39,0.25-0.62,0.21-0.87-0.17
						C143.21,50.72,143.08,47.65,144.66,44.5z"/>
					<path d="M136.92,53.93c0.79,0.5,1.31,0.33,1.76-0.5c1.35-2.5,1.44-5.03,0.12-7.57c-0.6-1.15-1.46-2.07-2.6-2.71
						c-0.9-0.51-1.51-0.33-1.92,0.6c-0.29,0.67-0.54,1.36-0.68,2.17c-0.14,0.62-0.15,1.34-0.12,2.05
						C133.57,50.56,134.75,52.55,136.92,53.93z M134.7,46.92c0.03-0.24,0.07-0.47,0.11-0.75c0.11-0.54,0.24-1.12,0.48-1.67
						c0.13-0.3,0.27-0.32,0.54-0.17c1.67,0.94,3.01,3.63,2.72,5.54c-0.13,0.9-0.33,1.79-0.72,2.62c-0.21,0.45-0.41,0.43-0.74,0.16
						C135.25,51.19,134.41,49.29,134.7,46.92z"/>
					<path d="M152.98,57.08c0.34,0.03,0.67-0.03,1-0.12c3.21-0.84,5.06-2.93,5.69-6.15c0.2-0.84,0.25-1.69,0.13-2.54
						c-0.1-0.73-0.42-0.99-1.15-1c-0.2,0-0.4,0-0.59,0.04c-3.83,0.72-6.78,4.58-5.82,9.12C152.32,56.84,152.57,57.04,152.98,57.08z
						 M157.77,48.58c0.79-0.23,0.89-0.18,0.86,0.62c-0.02,0.51,0.02,1.03-0.13,1.54c-0.57,2.53-2.02,4.28-4.55,5.05
						c-0.38,0.12-0.57,0.09-0.63-0.38C152.93,52.28,154.77,49.44,157.77,48.58z"/>
				</g>
				<g>
					<path class="st11" d="M155.07,166.01c-1.32,0.69-2.6,1.46-3.81,2.33c-2.19,1.56-4.29,3.72-4.99,6.16
						c-0.42,1.45-2.25,2.34-3.59,1.46c-2.07-1.35-3.45-3.23-3.92-5.68c-0.51-2.65-0.08-5.16,0.67-7.72
						c0.47-1.62,0.89-3.26,1.52-4.83c0.27-0.68,0.59-1.4,0.97-2.09c-1.33,0.21-2.61,0.61-3.75,1.28c0.87-2.8,1.07-5.79,0.38-8.67
						c-0.97-4.07-3.73-7.75-7.48-9.65c-3.87-1.95-8.66-1.85-12.38,0.41c-1.95,1.18-3.4,2.89-4.52,4.86
						c-1.15,2.03-2.17,4.24-2.39,6.59c-0.44,4.6,2.24,8.33,5.35,11.44c-0.88-0.02-1.77,0.05-2.66,0.14
						c-2.25,0.24-4.52,0.82-6.42,2.09c-3.16,2.1-4.97,5.94-4.88,9.71c0.1,4.16,2.34,7.99,5.57,10.54c3.5,2.76,7.96,3.5,12.13,1.85
						c2.2-0.87,4.14-2.35,5.68-4.14c0.75-0.88,1.49-1.84,1.82-2.96c0.03-0.11,0.04-0.21,0.06-0.32c0.35,1.4,0.49,2.9,0.66,4.18
						c0.35,2.64,0.45,5.29,0.36,7.95c-0.02,0.66,0.57,1.16,1.21,1.03c3.04-0.62,6.08-1.25,9.13-1.87c0.8-0.16,0.95-1.07,0.52-1.66
						c-1.95-2.6-3.64-5.39-5.04-8.33c-0.7-1.47-1.36-2.77-1.64-4.37c2.97,4.33,8.21,6.16,13.26,5.2c2.53-0.48,5.36-1.03,7.27-2.9
						c1.67-1.63,2.6-3.91,2.82-6.22c0.21-2.15-0.18-4.29-0.81-6.34C155.8,165.65,155.43,165.82,155.07,166.01z"/>
					<path class="st7" d="M155.07,166.01L155.07,166.01c-0.72,0.38-1.42,0.79-2.12,1.21c0.01,0.21,0.02,0.43,0.02,0.64
						c-0.01,1.5-0.06,3.13-0.6,4.54c-0.52,1.35-1.6,2.38-2.84,3.09c-4.77,2.72-11.16,1.27-14.88-2.56c-0.9-0.92-2.37,0.43-1.47,1.36
						c0.6,0.61,1.26,1.17,1.97,1.68c-0.45,0.4-0.59,1.17,0.07,1.59c5.78,3.67,13.41,3.15,18.55-1.43c1.15-1.03,2.29-2.28,2.64-3.82
						c0.4-1.78-0.36-3.53-0.94-5.17C155.33,166.77,155.2,166.39,155.07,166.01z"/>
					<path class="st7" d="M126.89,174.97c-2.04,4.01-5.6,7.22-10.19,7.8c-4.32,0.55-8.88-1.75-10.33-6
						c-0.41-1.2-2.37-0.79-1.95,0.43c0.75,2.21,2.15,4.04,3.93,5.36c-0.32,0.42-0.36,1.06,0.22,1.42c3.72,2.3,8.4,2.72,12.44,0.99
						c3.81-1.62,6.69-5.15,7.67-9.15C128.93,174.79,127.43,173.89,126.89,174.97z"/>
					<path class="st7" d="M133.25,141.76c-1.62-1.5-3.59-2.57-5.69-3.11c-1.83-0.88-3.78-1.13-5.6-0.08
						c-0.97,0.56-0.44,2.09,0.68,1.86c1.29-0.26,2.6-0.25,3.87,0c0.79,0.36,1.54,0.87,2.17,1.35c1.74,1.33,3.21,3.03,4.29,4.92
						c2.24,3.93,2.72,8.6,1.45,12.93c-0.36,1.24,1.54,1.85,1.9,0.61c0.55-1.88,0.8-3.84,0.77-5.78c0.52,0.05,1.04-0.23,1.02-0.9
						C137.97,149.23,136.5,144.78,133.25,141.76z"/>
					<path class="st8" d="M116.44,166.88c-1.08-0.71-2.32-0.48-3.4,0.05c-0.16,0-0.32,0.02-0.47,0.07c-0.95,0.28-1.78,0.7-2.53,1.37
						c-0.72,0.64-1.19,1.41-1.58,2.27c-0.91,1.97-0.71,5.07,1.7,5.82c1.39,0.44,2.88-0.18,3.89-1.12c0.64-0.6,1.18-1.33,1.7-2.04
						c0.43-0.58,0.83-1.18,1.2-1.8c0.25-0.42,0.51-0.85,0.63-1.33C117.88,168.92,117.57,167.62,116.44,166.88z"/>
					<path class="st8" d="M124.39,144.45c-0.39-0.45-0.95-0.82-1.53-0.98c-0.25-0.07-0.5-0.1-0.74-0.11
						c-0.79-0.21-1.64-0.03-2.32,0.56c-1.07,0.92-1.82,2.08-2.38,3.36c-0.24,0.54-0.37,1.11-0.48,1.69c-0.15,0.81-0.26,1.65,0,2.46
						c0.26,0.81,0.66,1.45,1.37,1.94c0.5,0.34,1.13,0.55,1.73,0.55c0.83,0.01,1.58-0.28,2.19-0.85c0.34-0.31,0.6-0.74,0.85-1.13
						c0.71-1.13,1.31-2.35,1.78-3.59C125.33,147.03,125.35,145.55,124.39,144.45z"/>
					<path class="st8" d="M138.9,164.63c0.14-0.69,0.32-1.37,0.52-2.06c0.18-0.61,0.35-1.22,0.53-1.83
						c-0.26,0.18-0.51,0.36-0.76,0.55c-0.25,0.22-0.43,0.48-0.55,0.78c-0.16,0.28-0.25,0.59-0.25,0.93
						c-0.03,0.35,0.03,0.67,0.17,0.98C138.62,164.22,138.74,164.43,138.9,164.63z"/>
					<path class="st1" d="M113.19,167.91c-0.26-0.44-0.87-0.71-1.35-0.42c-0.67,0.4-1.35,0.82-1.91,1.35
						c-0.63,0.6-1.06,1.33-1.41,2.12c-0.32,0.72-0.62,1.48-0.77,2.25c-0.17,0.94-0.05,1.84,0.31,2.72c0.2,0.48,0.92,0.67,1.35,0.42
						c0.5-0.29,0.63-0.83,0.42-1.35l-0.03-0.06c0,0-0.01-0.02-0.02-0.05c-0.02-0.07-0.04-0.14-0.06-0.21
						c-0.02-0.09-0.04-0.18-0.05-0.27c0-0.02-0.01-0.06-0.01-0.09c-0.01-0.16-0.01-0.32,0-0.48c0.01-0.08,0.02-0.17,0.03-0.25
						c0.01-0.02,0.02-0.09,0.02-0.1c0.17-0.65,0.42-1.29,0.7-1.9c0.01-0.03,0.01-0.03,0.02-0.04c0-0.01,0,0,0.01-0.02
						c0.04-0.08,0.08-0.16,0.12-0.23c0.08-0.14,0.16-0.27,0.24-0.41c0.04-0.06,0.08-0.12,0.12-0.17c0.02-0.02,0.07-0.09,0.09-0.11
						c0.1-0.11,0.2-0.21,0.31-0.31c0.47-0.43,0.85-0.66,1.45-1.02C113.22,168.99,113.48,168.4,113.19,167.91z"/>
					<path class="st1" d="M116.38,166.42c-0.08-0.16-0.2-0.28-0.35-0.38c-0.08-0.04-0.15-0.07-0.23-0.11
						c-0.17-0.05-0.35-0.06-0.52-0.02c-0.2,0.07-0.4,0.14-0.61,0.22c-0.14,0.02-0.25,0.08-0.36,0.17c-0.11,0.07-0.2,0.16-0.27,0.27
						c-0.08,0.11-0.12,0.23-0.13,0.36c-0.04,0.13-0.04,0.26,0,0.39l0.09,0.25c0.08,0.16,0.2,0.28,0.35,0.38
						c0.08,0.04,0.15,0.07,0.23,0.11c0.17,0.05,0.35,0.06,0.52,0.02c0.2-0.07,0.4-0.14,0.61-0.22c0.14-0.02,0.25-0.08,0.36-0.17
						c0.11-0.07,0.2-0.16,0.27-0.27c0.08-0.11,0.12-0.23,0.13-0.36c0.04-0.13,0.04-0.26,0-0.39
						C116.44,166.59,116.41,166.51,116.38,166.42z"/>
					<path class="st1" d="M120.07,144.99c-0.48-0.3-1.06-0.14-1.38,0.3c-1.59,2.2-2.69,5.08-1.75,7.77
						c0.17,0.49,0.63,0.91,1.19,0.76c0.47-0.13,0.95-0.66,0.76-1.19c-0.38-1.1-0.37-2.19-0.06-3.28c0.32-1.12,0.84-2.02,1.55-2.99
						C120.69,145.94,120.51,145.27,120.07,144.99z"/>
					<path class="st1" d="M122.93,142.63c-0.05-0.07-0.1-0.14-0.15-0.21c-0.12-0.13-0.26-0.22-0.43-0.27
						c-0.08-0.02-0.17-0.03-0.25-0.05c-0.18-0.01-0.36,0.03-0.52,0.11c-0.12,0.08-0.24,0.16-0.36,0.24
						c-0.12,0.06-0.22,0.14-0.29,0.25c-0.09,0.09-0.15,0.2-0.19,0.33c-0.05,0.13-0.06,0.26-0.04,0.39c0,0.14,0.03,0.26,0.1,0.39
						c0.05,0.07,0.1,0.14,0.15,0.21c0.12,0.13,0.26,0.22,0.43,0.27c0.09,0.02,0.17,0.03,0.25,0.05c0.18,0.01,0.36-0.03,0.52-0.11
						c0.12-0.08,0.24-0.16,0.36-0.24c0.12-0.06,0.22-0.14,0.29-0.25c0.09-0.09,0.15-0.2,0.19-0.33c0.05-0.13,0.06-0.26,0.04-0.39
						C123.04,142.88,123,142.75,122.93,142.63z"/>
					<path class="st1" d="M138.98,164.22c0.13-0.55,0.27-1.1,0.43-1.66c0.15-0.51,0.3-1.03,0.44-1.54c-0.62,0.44-1.16,0.99-1.52,1.7
						c-0.12,0.24-0.19,0.48-0.13,0.75c0.05,0.24,0.22,0.5,0.44,0.63C138.74,164.16,138.86,164.2,138.98,164.22z"/>
					<path d="M155.07,166.01c-0.24,0.13-0.47,0.27-0.7,0.4c0.06,0.22,0.12,0.45,0.18,0.67c0.65,2.61,0.78,5.45-0.54,7.87
						c-1.36,2.51-3.75,3.18-6.36,3.78c-2.03,0.47-4.23,0.83-6.26,0.17c-1.97-0.64-3.86-2-5.41-3.35c-0.72-0.63-1.39-1.3-2.01-2.03
						c-0.52-0.61-1.09-1.43-1.96-0.68c-0.36,0.31-0.45,0.82-0.48,1.29c-0.19,2.62,1.06,5.03,2.18,7.32
						c1.19,2.45,2.61,4.77,4.17,6.99c-2.14,0.44-4.27,0.88-6.41,1.31c0.02-2.57-0.12-5.14-0.48-7.68c-0.44-2.01-0.66-4.01-1.25-6
						c-0.13-0.45-0.27-0.92-0.58-1.27c-0.31-0.35-0.83-0.56-1.26-0.36c-0.35,0.17-0.54,0.55-0.68,0.91
						c-0.55,1.42-0.52,3.14-1.38,4.42c-1.03,1.51-2.45,2.84-4.02,3.77c-3.14,1.87-7.03,2.17-10.25,0.33
						c-5.81-3.33-8.97-11.8-3.66-17.06c1.42-1.41,3.28-2.17,5.22-2.56c2.4-0.48,4.47-0.46,6.85,0.05c0.42,0.09,0.94,0.05,1.19-0.3
						c0.2-0.28,0.16-0.66,0-0.96c-0.16-0.3-0.42-0.53-0.68-0.75c-2.85-2.45-5.78-5.39-6.56-9.23c-0.45-2.18,0.09-4.29,0.99-6.28
						c0.84-1.84,1.88-3.7,3.41-5.05c2.87-2.54,7.17-3.19,10.73-1.86c3.41,1.28,6.1,4.29,7.24,7.72c0.67,2,0.83,4.15,0.54,6.23
						c-0.3,2.17-1.37,4.04-1.78,6.16c-0.05,0.23-0.09,0.47-0.05,0.71c0.04,0.24,0.17,0.47,0.38,0.58c0.36,0.18,0.79-0.05,1.11-0.29
						c1.11-0.83,1.86-1.91,3.11-2.56c0.41-0.21,0.84-0.38,1.28-0.52c0.02-0.06,0.04-0.12,0.06-0.17c0.27-0.68,0.59-1.4,0.97-2.09
						c-1.33,0.21-2.61,0.61-3.75,1.28c0.87-2.8,1.07-5.79,0.38-8.67c-0.97-4.07-3.73-7.75-7.48-9.65
						c-3.87-1.95-8.66-1.85-12.38,0.41c-1.95,1.18-3.4,2.89-4.52,4.86c-1.15,2.03-2.17,4.24-2.39,6.59
						c-0.44,4.6,2.24,8.33,5.35,11.44c-0.88-0.02-1.77,0.05-2.66,0.14c-2.25,0.24-4.52,0.82-6.42,2.09
						c-3.16,2.1-4.97,5.94-4.88,9.71c0.1,4.16,2.34,7.99,5.57,10.54c3.5,2.76,7.96,3.5,12.13,1.85c2.2-0.87,4.14-2.35,5.68-4.14
						c0.75-0.88,1.49-1.84,1.82-2.96c0.03-0.11,0.04-0.21,0.06-0.32c0.35,1.4,0.49,2.9,0.66,4.18c0.35,2.64,0.45,5.29,0.36,7.95
						c-0.02,0.66,0.57,1.16,1.21,1.03c3.04-0.62,6.08-1.25,9.13-1.87c0.8-0.16,0.95-1.07,0.52-1.66c-1.95-2.61-3.64-5.39-5.04-8.33
						c-0.7-1.47-1.36-2.77-1.64-4.37c2.97,4.33,8.21,6.16,13.26,5.2c2.53-0.48,5.36-1.03,7.27-2.9c1.67-1.63,2.6-3.91,2.82-6.22
						c0.21-2.15-0.18-4.29-0.81-6.34C155.8,165.65,155.43,165.82,155.07,166.01z"/>
				</g>
				<path d="M158.75,162.27c-3.16,1.53-6.07,3.58-8.56,6.07c-1.23,1.23-2.31,2.56-3.34,3.95c-0.84,1.14-2.48,3.58-4.19,2.71
					c-1.39-0.71-2.25-2.57-2.66-3.98c-0.47-1.63-0.58-3.35-0.49-5.04c0.12-2.09,1.01-3.98,1.84-5.87c0.5-1.13,1.04-2.24,1.66-3.3
					c0.56-0.95,1.14-1.91,1.53-2.96c0.07-0.17,0.13-0.35,0.12-0.54c-0.01-0.18-0.09-0.38-0.26-0.46c-0.25-0.13-0.54,0.04-0.77,0.21
					c-1.83,1.4-2.86,3.47-3.79,5.52c-0.72,1.59-1.52,3.23-1.97,4.92c-0.77,2.84-0.54,6.37,0.55,9.11c0.96,2.4,3.24,5.45,6.19,4.35
					c2.8-1.05,4.3-4.36,6.23-6.44c2.53-2.72,5.55-4.9,8.89-6.52C160.92,163.43,159.9,161.71,158.75,162.27z"/>
			</g>
			<path d="M103.42,97.48c1.23-0.15,2.6-0.45,3.46-1.43c0.76-0.87,1.1-2.19,0.4-3.19c-0.72-1.04-2.11-1.44-3.29-1.65
				c-0.62-0.11-1.24-0.17-1.87-0.2c0.61-0.38,1.19-0.81,1.72-1.3c0.86-0.8,1.86-1.85,1.99-3.08c0.13-1.33-1.04-2.28-2.23-2.57
				c-1.31-0.32-2.61,0.04-3.82,0.56c-0.35,0.15-0.69,0.32-1.04,0.49c0.42-0.69,0.79-1.41,1.06-2.18c0.4-1.13,0.64-2.59-0.01-3.68
				c-0.69-1.14-2.14-1.28-3.26-0.75c-1.19,0.56-2.09,1.74-2.88,2.76c-0.29,0.37-0.57,0.76-0.83,1.15c-0.05-0.77-0.16-1.55-0.31-2.32
				c-0.21-1.07-0.53-2.22-1.35-2.99c-0.88-0.82-2.12-0.94-3.11-0.23c-1.02,0.73-1.43,1.99-1.66,3.18c-0.14,0.77-0.2,1.55-0.22,2.32
				c-0.39-0.8-0.86-1.55-1.44-2.23c-0.75-0.88-1.85-1.93-3.02-2.18c-1.29-0.27-2.33,0.78-2.56,1.98c-0.25,1.28,0.05,2.71,0.51,3.91
				c0.14,0.37,0.31,0.73,0.49,1.08c-0.55-0.33-1.14-0.61-1.75-0.83c-1.08-0.38-2.4-0.66-3.54-0.44c-1.32,0.26-1.68,1.73-1.49,2.89
				c0.21,1.24,1.19,2.14,2.11,2.91c0.39,0.33,0.8,0.63,1.22,0.92c-0.73,0.03-1.46,0.19-2.17,0.4c-1.14,0.33-2.38,0.69-3.1,1.7
				c-0.68,0.96-0.5,2.15,0.33,2.95c0.85,0.82,2.06,1.19,3.21,1.35c0.7,0.09,1.41,0.11,2.11,0.1c-1.61,0.96-3.17,2.15-3.91,3.86
				c-0.51,1.17-0.12,2.43,0.99,3.08c1.16,0.68,2.56,0.39,3.71-0.12c0.73-0.32,1.44-0.71,2.14-1.11c-0.28,0.51-0.53,1.04-0.74,1.58
				c-0.43,1.11-0.89,2.41-0.74,3.62c0.14,1.16,0.98,2.04,2.14,2.22c1.21,0.19,2.35-0.4,3.2-1.22c0.56-0.54,1.01-1.19,1.46-1.82
				c0.08-0.11,0.16-0.23,0.24-0.34c0.01,0.35,0.03,0.7,0.07,1.05c0.16,1.23,0.4,2.64,1.26,3.6c0.86,0.96,2.24,0.96,3.28,0.28
				c1.17-0.76,1.73-1.99,1.9-3.34c0.1-0.76,0.13-1.53,0.12-2.29c1,1.73,2.27,3.29,4.22,3.99c0.25,0.09,0.55-0.1,0.62-0.35v0
				c0.46,0,0.89-0.17,1.23-0.46c0.22,0.17,0.54,0.19,0.69-0.14c0.95-2.07-0.01-4.27-1.23-6.18c0.92,0.57,1.87,1.07,2.91,1.39
				c1.53,0.48,4.05,0.72,4.61-1.28c0.48-1.73-1.13-3.42-2.34-4.43c-0.42-0.36-0.87-0.67-1.34-0.95
				C102.2,97.59,102.81,97.56,103.42,97.48z M101.19,85.61c0.79-0.31,1.59-0.44,2.43-0.2c0.39,0.11,0.56,0.38,0.58,0.83
				c-0.11,0.6-0.52,1.1-0.95,1.57c-0.83,0.91-1.88,1.54-2.93,2.17c-1.94,1.15-4.05,1.86-6.18,2.55c-0.05,0.02-0.11,0.03-0.17,0.04
				c-0.24,0.04-0.53,0.41-0.67,0.18c-0.2-0.33-0.44-0.72-0.22-1.19c0.17-0.36,0.35-0.69,0.64-0.96
				C95.93,88.52,98.34,86.74,101.19,85.61z M94.9,81.76c0.6-0.8,1.36-1.44,2.29-1.84c1.05-0.46,1.42-0.21,1.42,1.06
				c-0.07,0.69-0.32,1.45-0.68,2.19c-1.02,2.08-2.37,3.93-3.94,5.63c-0.43,0.47-0.86,0.95-1.3,1.41c-0.25,0.26-0.55,0.42-0.93,0.38
				c-0.64-0.07-0.8-0.28-0.63-0.89C91.93,86.84,93.09,84.14,94.9,81.76z M92.65,94.29c0,1.84-1.79,3.4-3.5,3.26
				c-1.92,0-3.52-1.54-3.48-3.43c0.04-2,1.52-3.4,3.41-3.44C91.09,90.64,92.64,92.26,92.65,94.29z M88.22,78.74
				c0.14-0.48,0.43-0.83,0.92-0.97c0.49-0.14,0.89-0.05,1.18,0.44c0.63,1.06,0.75,2.22,0.78,3.4c0.07,2.59-0.28,5.13-0.92,7.63
				c-0.11,0.44-0.26,0.61-0.83,0.55c-0.63-0.07-0.88-0.25-1-0.86c-0.35-1.86-0.77-3.71-0.72-5.7C87.6,81.76,87.77,80.23,88.22,78.74
				z M80.72,79.8c0.21-0.53,0.52-0.66,1.05-0.46c1.14,0.42,1.85,1.31,2.44,2.3c1.45,2.41,2.52,4.97,3.25,7.69
				c0.14,0.53-0.06,0.75-0.47,1.01c-0.42,0.27-0.61,0.05-0.86-0.2c-2.23-2.23-4.15-4.68-5.23-7.69c-0.1-0.27-0.19-0.55-0.25-0.83
				c-0.06-0.3-0.08-0.61-0.12-0.9C80.53,80.39,80.61,80.09,80.72,79.8z M75.61,87.63c-0.24-0.22-0.46-0.48-0.65-0.74
				c-0.29-0.39-0.43-0.83-0.19-1.3c0.25-0.48,0.71-0.61,1.21-0.65c0.81,0.05,1.56,0.31,2.27,0.64c2.86,1.31,5.27,3.23,7.36,5.56
				c0.14,0.16,0.2,0.3,0.01,0.43c-0.26,0.19-0.15,0.77-0.72,0.64c-1.81-0.41-3.53-1.08-5.21-1.86
				C78.19,89.66,76.83,88.74,75.61,87.63z M73.93,95.1c-0.67-0.23-1.44-0.44-1.46-1.34c-0.02-0.86,0.74-1.06,1.34-1.32
				c1.09-0.46,2.24-0.54,3.32-0.48c2.62-0.09,5.01,0.64,7.4,1.3c0.23,0.06,0.3,0.2,0.29,0.47c0,0.74-0.47,0.92-1.07,1.03
				c-1.59,0.31-3.17,0.62-4.79,0.73C77.25,95.6,75.57,95.67,73.93,95.1z M76.92,102.37c-0.38,0.11-0.77,0.06-1.14,0.15
				c-0.16-0.02-0.31-0.04-0.46-0.07c-0.75-0.16-0.94-0.5-0.66-1.22c0.41-1.07,1.26-1.75,2.17-2.34c2.26-1.48,4.73-2.48,7.32-3.21
				c0.36-0.1,0.73-0.14,0.97,0.21c0.3,0.42,0.39,0.86-0.02,1.3c-0.85,0.92-1.82,1.68-2.82,2.4
				C80.62,100.76,78.9,101.82,76.92,102.37z M83.84,106.18c-0.57,0.79-1.18,1.53-1.98,2.11c-0.42,0.31-0.88,0.34-1.31,0.15
				c-0.44-0.19-0.5-0.64-0.5-1.09c-0.02-0.89,0.28-1.7,0.65-2.49c1.07-2.26,2.48-4.28,4.23-6.06c0.46-0.47,0.96-0.91,1.36-1.46
				c0.28,0.23,0.54,0.47,0.83,0.65c0.22,0.14,0.26,0.24,0.19,0.5C86.59,101.25,85.52,103.85,83.84,106.18z M90.31,108.85
				c-0.11,0.39-0.29,0.76-0.54,1.08c-0.58,0.76-1.34,0.75-1.92-0.02c-0.43-0.58-0.62-1.24-0.67-1.94c-0.13-1.96-0.06-3.91,0.36-5.83
				c0.23-1.07,0.54-2.13,0.78-3.2c0.08-0.38,0.25-0.48,0.63-0.47c1.1,0.03,1.09,0.02,1.26,1.15c0.28,1.86,0.49,3.72,0.45,5.69
				C90.69,106.45,90.65,107.66,90.31,108.85z M97.93,106.64c0.08,0.27,0.06,0.54,0.08,0.78c0,1.07-0.72,1.51-1.66,1.02
				c-1.07-0.55-1.67-1.55-2.31-2.49c-1.52-2.22-2.35-4.75-3.07-7.31c-0.1-0.35,0.01-0.5,0.27-0.64c0.17-0.09,0.34-0.19,0.48-0.32
				c0.21-0.18,0.37-0.15,0.55,0.03C94.79,100.3,96.88,103.13,97.93,106.64z M102.73,100.31c0.48,0.42,0.91,0.9,1.11,1.53
				c0.19,0.6,0.04,0.92-0.54,1.13c-0.27,0.09-0.54,0.2-0.85,0.18c-1.23-0.14-2.32-0.67-3.39-1.25c-2.2-1.2-4.08-2.8-5.81-4.59
				c-0.5-0.51-0.48-1.04-0.01-1.53c0.11-0.12,0.19-0.06,0.3-0.03C96.95,96.59,100.07,97.99,102.73,100.31z M101.65,95.9
				c-2.53,0.09-4.99-0.4-7.44-0.96c-0.52-0.12-0.69-0.25-0.65-0.78c0.03-0.37,0.24-0.46,0.49-0.55c1.07-0.4,2.19-0.61,3.3-0.82
				c1.72-0.32,3.45-0.46,5.2-0.36c1.06,0.06,2.13,0.14,3.03,0.81c0.85,0.64,0.79,1.54-0.14,2.11c-0.74,0.45-1.56,0.51-2.39,0.55
				C102.58,95.92,102.11,95.9,101.65,95.9z"/>
		</g>
		<g>
			<g>
				<g>
					<path d="M76.58,53.36c0.33,0.47,0.62,0.97,0.82,1.52c0.06-0.83-0.16-1.58-0.57-2.29c-0.34-0.6-0.76-1.14-1.2-1.66
						c-0.21-0.24-0.4-0.49-0.54-0.78c-0.3-0.61-0.17-1.12,0.41-1.47c0.56-0.34,1.18-0.52,1.82-0.65c0.62-0.13,1.26-0.14,1.89-0.28
						c-0.44-0.04-0.88-0.1-1.32-0.13c-1.05-0.08-2.11-0.04-3.15-0.23c-0.12-0.02-0.29,0.01-0.33-0.14
						c-0.03-0.12,0.12-0.18,0.19-0.26c0.25-0.24,0.52-0.45,0.83-0.61c0.24-0.12,0.23-0.25,0.09-0.45c-0.48-0.67-1.08-1.17-1.87-1.43
						c-0.84-0.28-1.69-0.34-2.54-0.07c-1.2,0.38-1.81,1.28-1.97,2.47c-0.11,0.8-0.17,1.61-0.04,2.42c0.12,0.78,0.49,1.38,1.06,1.88
						c0.47,0.41,0.98,0.77,1.43,1.2c1.58,1.51,1.95,3.17,1.04,5.15c-1.13,2.45-3.05,4.08-5.52,5.08c-0.74,0.3-1.54,0.3-2.33,0.13
						c-0.11-0.02-0.3-0.01-0.32-0.14c-0.02-0.15,0.16-0.16,0.27-0.22c1.46-0.71,2.81-1.58,3.92-2.78c0.76-0.82,1.35-1.74,1.71-2.81
						c0.04-0.11,0.13-0.22,0.03-0.39c-0.16,0.23-0.29,0.46-0.45,0.67c-1.62,2.18-3.64,3.88-6.16,4.95
						c-0.35,0.15-0.63,0.14-0.95-0.07c-1.81-1.2-2.82-2.85-3-5.03c-0.26-3.25,2.14-5.86,4.71-6.45c0.52-0.12,1.05-0.19,1.58-0.18
						c0.23,0.01,0.35-0.01,0.24-0.31c-1.33-3.52,1.14-7.57,4.87-8.01c1.98-0.23,3.69,0.29,5.12,1.68c0.53,0.52,0.9,1.16,1.18,1.85
						c0.11,0.27,0.26,0.38,0.56,0.39c1.23,0.07,2.35,0.43,3.16,1.42c0.22,0.27,0.49,0.6,0.37,0.91c-0.11,0.28-0.54,0.17-0.83,0.2
						c-0.83,0.1-1.65,0.27-2.46,0.47c-0.12,0.03-0.2,0.1-0.23,0.22c-0.08,0.31-0.16,0.61-0.27,0.91c-0.08,0.23,0.01,0.25,0.21,0.26
						c0.85,0.04,1.69,0.17,2.48,0.53c2,0.92,3.19,2.48,3.62,4.63c0.61,3.05-1.41,6.13-4.08,7.08c-1.76,0.63-3.48,0.56-5.12-0.41
						c-0.24-0.14-0.45-0.33-0.65-0.52c-0.07-0.07-0.13-0.19-0.25-0.14c-0.12,0.05-0.11,0.19-0.12,0.3c-0.06,0.64,0.12,1.23,0.38,1.8
						c0.69,1.49,1.82,2.55,3.24,3.32c0.09,0.05,0.18,0.09,0.27,0.14c0.12,0.07,0.18,0.18,0.15,0.32c-0.03,0.14-0.13,0.22-0.26,0.25
						c-0.14,0.02-0.28,0.03-0.42,0.03c-3.49,0-6.99,0-10.48,0c-0.26,0-0.63,0.11-0.71-0.27c-0.07-0.35,0.3-0.37,0.53-0.48
						c1.25-0.61,2.05-1.64,2.66-2.84c0.37-0.72,0.69-1.47,1.03-2.21c0.08-0.18,0.18-0.34,0.42-0.33c1.61,0.07,2.88-0.71,4.03-1.71
						c1.92-1.67,2.44-3.78,1.8-6.2c-0.02-0.07-0.03-0.14-0.05-0.21C76.52,53.39,76.55,53.37,76.58,53.36z"/>
				</g>
				<g>
					<path d="M74.45,46.3c0.01,0.32-0.26,0.61-0.59,0.62c-0.33,0.01-0.61-0.25-0.62-0.59c-0.01-0.33,0.29-0.66,0.6-0.66
						C74.15,45.68,74.44,45.98,74.45,46.3z"/>
				</g>
			</g>
			<g>
				<g>
					<path d="M208.89,230.11c-0.33-0.47-0.62-0.97-0.82-1.52c-0.06,0.83,0.16,1.58,0.57,2.29c0.34,0.6,0.76,1.14,1.2,1.66
						c0.21,0.24,0.4,0.49,0.54,0.78c0.3,0.61,0.17,1.12-0.41,1.47c-0.56,0.34-1.18,0.52-1.82,0.65c-0.62,0.13-1.26,0.14-1.89,0.28
						c0.44,0.04,0.88,0.1,1.32,0.13c1.05,0.08,2.11,0.04,3.15,0.23c0.12,0.02,0.29-0.01,0.33,0.14c0.03,0.12-0.12,0.18-0.19,0.26
						c-0.25,0.24-0.52,0.45-0.83,0.61c-0.24,0.12-0.23,0.25-0.09,0.45c0.48,0.67,1.08,1.17,1.87,1.43c0.84,0.28,1.69,0.34,2.54,0.07
						c1.2-0.38,1.81-1.28,1.97-2.47c0.11-0.8,0.17-1.61,0.04-2.42c-0.12-0.78-0.49-1.38-1.06-1.88c-0.47-0.41-0.98-0.77-1.43-1.2
						c-1.58-1.51-1.95-3.17-1.04-5.15c1.13-2.45,3.05-4.08,5.52-5.08c0.74-0.3,1.54-0.3,2.33-0.13c0.11,0.02,0.3,0.01,0.32,0.14
						c0.02,0.15-0.16,0.16-0.27,0.22c-1.46,0.71-2.81,1.58-3.92,2.78c-0.76,0.82-1.35,1.74-1.71,2.81
						c-0.04,0.11-0.13,0.22-0.03,0.39c0.16-0.23,0.29-0.46,0.45-0.67c1.62-2.18,3.64-3.88,6.16-4.95c0.35-0.15,0.63-0.14,0.95,0.07
						c1.81,1.2,2.82,2.85,3,5.03c0.26,3.25-2.14,5.86-4.71,6.45c-0.52,0.12-1.05,0.19-1.58,0.18c-0.23-0.01-0.35,0.01-0.24,0.31
						c1.33,3.52-1.14,7.57-4.87,8.01c-1.98,0.23-3.69-0.29-5.12-1.68c-0.53-0.52-0.9-1.16-1.18-1.85c-0.11-0.27-0.26-0.38-0.56-0.39
						c-1.23-0.07-2.35-0.43-3.16-1.42c-0.22-0.27-0.49-0.6-0.37-0.91c0.11-0.28,0.54-0.17,0.83-0.2c0.83-0.1,1.65-0.27,2.46-0.47
						c0.12-0.03,0.2-0.1,0.23-0.22c0.08-0.31,0.16-0.61,0.27-0.91c0.08-0.23-0.01-0.25-0.21-0.26c-0.85-0.04-1.69-0.17-2.48-0.53
						c-2-0.92-3.19-2.48-3.62-4.63c-0.61-3.05,1.41-6.13,4.08-7.08c1.76-0.63,3.48-0.56,5.12,0.41c0.24,0.14,0.45,0.33,0.65,0.52
						c0.07,0.07,0.13,0.19,0.25,0.14c0.12-0.05,0.11-0.19,0.12-0.3c0.06-0.64-0.12-1.23-0.38-1.8c-0.69-1.49-1.82-2.55-3.24-3.32
						c-0.09-0.05-0.18-0.09-0.27-0.14c-0.12-0.07-0.18-0.18-0.15-0.32c0.03-0.14,0.13-0.22,0.26-0.25c0.14-0.02,0.28-0.03,0.42-0.03
						c3.49,0,6.99,0,10.48,0c0.26,0,0.63-0.11,0.71,0.27c0.07,0.35-0.3,0.37-0.53,0.48c-1.25,0.61-2.05,1.64-2.66,2.84
						c-0.37,0.72-0.69,1.47-1.03,2.21c-0.08,0.18-0.18,0.34-0.42,0.33c-1.61-0.07-2.88,0.71-4.03,1.71c-1.92,1.67-2.44,3.78-1.8,6.2
						c0.02,0.07,0.03,0.14,0.05,0.21C208.94,230.08,208.91,230.09,208.89,230.11z"/>
				</g>
				<g>
					<path d="M211.01,237.16c-0.01-0.32,0.26-0.61,0.59-0.62c0.33-0.01,0.61,0.25,0.62,0.59c0.01,0.33-0.29,0.66-0.6,0.66
						C211.32,237.79,211.02,237.48,211.01,237.16z"/>
				</g>
			</g>
		</g>
		<g>
			<path d="M72.63,37.22c-0.53,0-1-0.02-1.47-0.09c0.21,1.04,1.51,1.45,2.7,1.45c1.51,0,3.34-0.68,4.13-1.53l1.04,1.28
				c-0.91,1.15-2.92,2.56-5.02,2.56c-1.23,0-1.96-0.28-2.6-0.58c-0.64-0.28-1.19-0.58-2-0.58c-0.45,0-0.89,0.08-1.23,0.19
				l-0.74-1.06l1.94-2.23c-2.32-0.96-3.55-3.13-3.55-6.39c0-4.53,2.38-6.98,6.79-6.98s6.79,2.45,6.79,6.98S77.05,37.22,72.63,37.22z
				 M72.26,25.53c-1.72,0-2.64,1.66-2.64,4.71s1.19,4.71,3.39,4.71c1.72,0,2.64-1.66,2.64-4.71S74.46,25.53,72.26,25.53z"/>
		</g>
		<g>
			<path d="M213.04,246.24c0.53,0,1,0.02,1.47,0.09c-0.21-1.04-1.51-1.45-2.7-1.45c-1.51,0-3.34,0.68-4.13,1.53l-1.04-1.28
				c0.91-1.15,2.92-2.56,5.02-2.56c1.23,0,1.96,0.28,2.6,0.58c0.64,0.28,1.19,0.58,2,0.58c0.45,0,0.89-0.08,1.23-0.19l0.74,1.06
				l-1.94,2.23c2.32,0.96,3.55,3.13,3.55,6.39c0,4.53-2.38,6.98-6.79,6.98s-6.79-2.45-6.79-6.98S208.63,246.24,213.04,246.24z
				 M213.42,257.94c1.72,0,2.64-1.66,2.64-4.71s-1.19-4.71-3.39-4.71c-1.72,0-2.64,1.66-2.64,4.71S211.21,257.94,213.42,257.94z"/>
		</g>
	</g>
</g>
</svg>
