<?xml version="1.0" encoding="utf-8"?>
<!-- Generator: Adobe Illustrator 24.0.1, SVG Export Plug-In . SVG Version: 6.00 Build 0)  -->
<svg version="1.1" xmlns="http://www.w3.org/2000/svg" xmlns:xlink="http://www.w3.org/1999/xlink" x="0px" y="0px"
	 viewBox="0 0 283.46 283.46" style="enable-background:new 0 0 283.46 283.46;" xml:space="preserve">
<style type="text/css">
	.st0{fill:#DBDDD9;}
	.st1{fill:#FFFFFF;}
	.st2{fill:none;stroke:#000000;stroke-width:3;stroke-miterlimit:10;}
	.st3{fill:#E30613;}
	.st4{fill:#894F28;}
	.st5{fill:#3E2215;}
	.st6{fill:#DEB27E;}
	.st7{opacity:0.25;fill:#312783;}
	.st8{opacity:0.53;fill:#F5F0DA;}
	.st9{fill:none;}
	.st10{fill:#EB941E;}
	.st11{fill:#1F201D;}
	.st12{fill:#E2E0DB;}
	.st13{fill:#B7B6B0;}
	.st14{fill:#2FAC66;}
	.st15{fill:#312783;}
	.st16{fill:#E94D2A;}
	.st17{fill:#F5EA61;}
	.st18{fill:#1D71B8;}
	.st19{fill:#2D3B49;}
</style>
<g id="bg">
</g>
<g id="CUT">
</g>
<g id="BACK">
</g>
<g id="ILLUSTRATION">
</g>
<g id="SYMBOLS">
</g>
<g id="CARDS">
	<g>
		<path class="st1" d="M217.23,267.73h-151c-8.01,0-14.5-6.49-14.5-14.5v-223c0-8.01,6.49-14.5,14.5-14.5h151
			c8.01,0,14.5,6.49,14.5,14.5v223C231.73,261.24,225.24,267.73,217.23,267.73z"/>
		<g>
			<g>
				<path class="st4" d="M167.63,189.29c-0.17-11.44-2.61-24.13-0.7-35.69c0.61-15.54,5.51-30.66,6.23-46.22
					c0.38-8.38-0.15-17.03-1.41-25.32c-1.29-8.51-4.39-15.4-7.95-23.02c-0.16-0.24-0.33-0.47-0.49-0.71
					c-0.27-0.42-0.1-1.08,0.34-1.31c1.54-0.8,4.58-2.81,6.11-1.1c0.03,0.04,0.01,0.11-0.04,0.11c-1.45-0.16-2.96,1.14-4.26,2.09
					c0.68,1.12,1.23,2.3,1.73,3.51c0.28,0.44,0.55,0.89,0.8,1.35c3.18-2.5,5.92-8.67,0.4-10.23c-3.52-1-6.82,2.1-10.39,1.74
					c-0.4-0.04-0.47-0.54-0.09-0.69c0.9-0.35,1.89-0.82,2.93-1.28c-6.75-6.79-18.39-8.14-27.33-5.57
					c-4.96,1.43-9.44,4.23-13.27,7.65c-0.96,0.86-1.83,1.77-2.58,2.76c2.73-0.56,6.38,0.68,5.74,2.44
					c-0.01,0.02-0.02,0.04-0.05,0.03c-0.6-0.06-0.73-0.41-1.29-0.73c-0.75-0.43-1.62-0.55-2.47-0.51c-1.3,0.06-2.32,0.65-3.42,1.16
					c-0.58,1.2-0.97,2.5-1.13,3.93c-0.2,1.88-0.71,3.64-1.11,5.48c-0.28,1.29-0.57,2.58-0.72,3.89c-0.21,1.81-0.18,4.39,2.19,4.54
					c0.57,0.04,1.25,0.51,1.17,1.17c-0.11,0.91-0.27,2.05-0.35,3.13c0.02,0.23,0.06,0.47,0.12,0.7c0.39,1.48,1.7,2.99,3.18,3.39
					c1.67,0.44,4.3,0.34,5.34-1.23c0.62-0.93,0.81-2.07,1.03-3.17c-1.54,0-2.97-0.73-4.31-1.84c-1.33-1.1-2.44-2.83-1.95-4.48
					c0.37-3.25,7.17-4.12,9.77-3.42c1.96,0.53,3.64,2.22,3.29,4.37c-0.36,2.27-2.78,4.02-4.73,4.91c-0.3,0.14-0.6,0.22-0.89,0.29
					c0.53,1.96,1.5,2.72,3.57,3.35c1.38,0.42,2.82,0.92,4.22,1.28c3.93,1,5.66-0.96,8.93-2.32c0.23-0.09,0.42,0.17,0.37,0.37
					c-1.07,4.36-7.48,4.83-10.94,3.73c-1.58-0.5-3.06-0.67-4.64-1.06c-0.86-0.21-1.52-0.37-2.14-1.07
					c-0.07-0.07-0.11-0.15-0.16-0.22c-0.58,1.03-1.49,1.84-2.62,2.37c5.61,4.48,15.45,3.79,21.73,1.35
					c0.07-0.03,0.14,0.08,0.08,0.13c-5.24,4.27-14.56,4.47-20.77,1.15c0.38,1.31,0.4,2.76,0.19,4.15c-0.44,2.87-1.6,7.14-3.67,9.59
					c1.98,1.18,3.57,2.7,4.15,4.46c3.5-6.73,12.7-9.39,19.82-6.04c4.21,1.98,6.5,5.23,7.03,9.83c0.12,1.02,0.12,1.96,0.05,2.86
					c1.52-2.17,2.98-4.45,4.93-6.24c0.15-0.14,0.39,0,0.34,0.2c-0.74,3.19-2.75,6-4.66,8.6c-0.87,1.18-1.78,2.39-2.8,3.5
					c-1.06,1.58-2.43,3.05-3.98,4.56c1.76,1.23,3.53,2.41,5.43,3.24c0.11,0.05,0.02,0.18-0.07,0.17c-3.21-0.44-5.52-1.54-8.18-3.29
					c-1.6-1.06-12.14-7.2-11.99-2.56c0.72,0.26,1.41,0.59,1.93,0.8c1.85,0.77,3.2,1.85,4.6,3.24c0.15,0.15-0.04,0.37-0.22,0.28
					c-1.93-0.92-4.03-1.81-6.05-2.52c-0.3-0.11-1.24-0.55-1.61-0.5c-0.71,0.11-0.88,0.78-0.53,1.43c0.21,0.38,0.53,0.71,0.86,1.03
					c1.63,1.11,3.28,2.18,4.85,3.37c0.13,0.1,0.06,0.35-0.12,0.29c-0.58-0.2-5.25-2.37-5.1-2.49c-1.17,0.91,1.85,3.62,2.38,4.11
					c2.91,2.7,6.61,4.86,10.37,6.12c3.79,1.27,8.01,1.82,11.98,1.18c6.07-0.97,8.11-4.93,10.98-9.66c0.23-0.37,0.81-0.13,0.7,0.29
					c-2.6,9.75-11.99,12.89-21.15,10.93c-2.52-0.54-6.17-1.75-9.46-3.56c-5.03,4.02-9.51,8.52-13.2,13.82
					c-0.54,0.77-1.58,0.8-2.12,0c-2.04-3.05-4.1-6.09-6.28-9.04c-1.11-1.49-2.31-2.89-3.31-4.4c0.3,2.79-0.38,5.71-0.72,8.49
					c-0.48,3.9-0.88,7.76-1.07,11.69c-0.37,7.59-0.38,15.23,1.67,22.61c1.92,6.91,5.52,13.45,11.16,17.99
					c5.87,4.73,13.28,6.53,20.63,7.45c-1.5-2.77-2.5-5.72-2.85-8.1c-1.26-8.52,2.04-18.32,7.84-24.65c0.04-0.05,0.15,0,0.12,0.07
					c-2.7,6.49-6.14,12.27-6.21,19.57c-0.09,7.95,4.9,18.48,13.27,20.93c0.55,0.16,0.38,0.88-0.13,0.94
					c-1.01,0.11-1.99,0.03-2.93-0.22c-0.15,1.7-1.45,3.04-2.68,4.34c-1.45,1.53-3.01,2.95-4.4,4.54c-0.77,0.89-1.54,1.8-2.16,2.79
					c-0.72,1.15-1.71,2.7-0.81,4.02c0.31,0.45,0.84,0.83,1.4,0.9c0.28,0.04,0.5-0.04,0.72-0.01c1.13-3.28,3.52-6.76,4.82-7.79
					c0.18-0.14,0.48-0.02,0.4,0.24c-0.54,1.85-1.69,3.51-2.51,5.25c-0.92,1.95-3.45,5.93,0.11,6.93c1.72,0.48,2.76-0.97,3.8-2.06
					c1.64-1.62,3.09-3.62,4.31-5.56c0.98-1.56,1.74-3.26,3.06-4.56c0.06-0.06,0.17-0.02,0.17,0.07c0,3.02-2.1,6.16-3.92,8.6
					c0.66-0.03,1.33-0.01,2-0.25c1.75-0.63,2.93-2.08,3.97-3.56c0.87-1.24,1.51-2.57,2.04-3.94c0.7-2.33,0.91-4.77,0.67-7.27
					c-0.28-2.99-0.77-5.83,0.12-8.78c0.92-3.03,2.77-5.69,3.71-8.73C167.45,196.66,167.69,192.94,167.63,189.29z M119.82,70.69
					c-1.68-0.18-2.32-1.94-2.4-3.4c-0.05-0.99,0.26-2.09,1.08-2.42c-0.95-0.38-1.99-0.6-2.84-0.82c-0.13-0.03-0.16-0.19-0.08-0.29
					c1.17-1.26,3.34-0.45,4.55,0.35c1.35,0.89,2.52,2.31,2.43,4.02C122.49,69.56,121.31,70.85,119.82,70.69z M149.77,58.94
					c0.07,0.09-0.02,0.19-0.11,0.15c-4.5-1.92-8.24-1.63-12.57,0.48c-0.06,0.03-0.14-0.03-0.1-0.1
					C139.89,55.19,146.52,55.1,149.77,58.94z M136.88,68.39c-0.08,0.06-0.21-0.04-0.17-0.13c2.01-4.84,8.55-8.3,13.45-6.14
					c0.08,0.04,0.03,0.16-0.04,0.16c-1.16,0.06-2.33,0.21-3.48,0.45c0.61,0.7,0.91,1.8,0.93,2.64c0.05,1.77-0.85,3.25-2.47,3.98
					c-1.56,0.7-3.71,0.72-4.94-0.62c-0.57-0.62-0.89-1.55-0.82-2.4C138.54,67.04,137.77,67.76,136.88,68.39z M156.1,86.89
					c-2.8-1.05-5.51-2.43-8.39-3.26c-2.51-0.73-5.51-0.54-7.79-1.79c-0.07-0.04-0.07-0.14,0-0.18c2.38-1.3,5.78-0.39,8.25,0.32
					c3.17,0.91,5.87,2.19,8.08,4.66C156.33,86.75,156.25,86.95,156.1,86.89z M157.66,79.73c-2.96-0.39-5.82-1.36-8.81-1.52
					c-3.03-0.16-5.92,0.61-8.9,0.97c-0.16,0.02-0.2-0.22-0.08-0.29c4.83-3.03,13.32-3.12,17.91,0.39
					C157.95,79.4,157.93,79.77,157.66,79.73z"/>
				<path class="st4" d="M110.4,187.29c-2.19-5.09-3.33-10.47-3.79-15.97c-2.34,7.18-5.76,14.02-4.08,21.85
					c2.06,9.64,9.39,14.7,17.99,18.17c0.3,0.12,0.29,0.61-0.08,0.6c-1.03-0.04-2.03-0.18-3.02-0.4c-3.91,1.27-8.24,1.28-12.22,2.59
					c-2.45,0.81-5.75,1.58-7.72,3.24c-2.36,1.98-2.36,2.47,0.1,2.57c0.54-0.37,1.08-0.68,1.5-0.91c2.62-1.43,5.63-2.63,8.59-3.07
					c0.1-0.01,0.18,0.12,0.07,0.17c-3.37,1.56-7.05,3.07-9.73,5.75c-1.11,1.1-1.24,1.34,0.3,1.43c0.93,0.05,1.98-0.17,2.88-0.38
					c1.1-0.25,2.09-0.81,3.17-0.9c2.26-2.54,7.81-4.23,9.73-4.61c0.18-0.04,0.31,0.22,0.13,0.31c-2.72,1.48-5.93,2.58-8.12,4.84
					c-0.39,0.4-0.76,0.97-0.53,1.47c0.27,0.57,1.07,0.56,1.69,0.43c3.85-0.77,7.23-2.48,10.89-3.82c3.83-1.41,7.68-2.9,11.27-4.87
					c2.65-1.45,2.81-1.24,3.01-4.06c0.12-1.7-0.33-3.66-0.58-5.39C122.41,203.45,114.71,197.3,110.4,187.29z"/>
				<path class="st4" d="M109.38,135.83c0.01-0.06,0.03-0.12,0.06-0.16c-0.01-0.02-0.02-0.05-0.02-0.07
					c-1.58,0.89-3.46,1.37-4.7,0.3c-0.03-0.03-0.03-0.08,0-0.11c0.69-0.65,1.55-0.69,2.38-1.13c0.86-0.47,1.79-1.15,2.51-1.8
					c1.7-1.54,2.49-3.38,2.7-5.49c-1.65,1.38-3.96,2.43-5.12,2.83c-0.02,0.01-0.05-0.01-0.06-0.03l-0.13-0.22
					c-0.08-0.14-0.06-0.33,0.06-0.45c0.92-0.95,2.04-1.72,3.01-2.62c0.64-0.59,3.38-2.99,1.25-3.3c-1.15-0.17-3.14,1-4.07,1.46
					c-0.98,0.48-1.95,1.15-3.03,1.36c-0.18,0.03-0.29-0.13-0.22-0.29c0.83-1.86,3.28-2.94,5.07-3.64c0.27-0.11,0.57-0.21,0.88-0.31
					c-3.34-2.34-8.34,0.82-10.09,3.56c-1.93,3.03-1.53,6.25,0.37,9.18c1.98,3.05,5.19,5.57,8.16,7.81
					C108.71,140.37,109.05,138.08,109.38,135.83z"/>
				<path class="st3" d="M106.7,119.3c2.32-0.27,4.63,0.21,4.79,2.54c0.81-0.04,1.57,0.17,2.13,0.9c0.89,1.16,0.66,2.31-0.1,3.35
					c1.71,2.39-0.03,5.83-1.78,7.72c-0.32,0.35-0.76,0.73-1.26,1.1c4.62,2.98,8.13,9.25,11.08,14.05
					c3.69-4.48,7.69-8.59,12.21-12.26c-3.74-2.47-6.53-5.77-5.76-9.77c-0.98-1.22-1.34-2.83,0.16-3.63
					c0.34-0.18,0.73-0.24,1.15-0.23c-0.42-2.52,2.93-3.14,5.28-2.88c3.79,0.42,6.95,2.55,10.06,4.75c5.78-6.15,8.29-17.27-1.9-20.63
					c-8.04-2.65-14.25,2.35-17.93,8.99c-0.2,0.36-0.87,0.22-0.82-0.22c0,0,0-0.01,0-0.01c-1.83-7.03-7.77-11.37-15.08-8.68
					c-6.83,2.52-9.11,10.01-6.79,16.46C103.56,120.03,105.11,119.48,106.7,119.3z"/>
				<path class="st4" d="M120.79,51.74c-2.5-0.98-5.36-2.37-6.96,0.87c-1.2,2.43,0.42,4.24,1.04,6.29
					C116.13,56.16,118.26,53.76,120.79,51.74z"/>
				<path class="st4" d="M130.83,74.73c-0.96-1.3-2.49-1.51-3.96-1.47c-1.38,0.04-3.29,0.27-4.47,1.1
					c-2.15,1.51,0.35,3.35,1.72,4.16c2.22,1.31,3.93,0.56,5.66-0.58C130.79,77,131.62,75.79,130.83,74.73z"/>
				<path class="st5" d="M188.15,153.52c3.25,5.53,6.7,10.21,6.24,17.27c-0.37,5.67-3.18,11.3-8.11,14.32
					c-4.35,2.66-10.18,2.93-14.35-0.26c-0.98-0.75-1.79-1.62-2.46-2.57c0.32,4.09,0.56,8.18,0.18,12.25
					c-0.45,4.89-3.05,9.43-4.42,14.08c15.02,1.1,31.31-3.92,37.89-18.67C209.11,176.5,202.76,157.68,188.15,153.52z"/>
				<path class="st4" d="M145.09,69.35c1.62-0.73,2.52-2.21,2.47-3.98c-0.02-0.84-0.32-1.95-0.93-2.64
					c1.15-0.24,2.32-0.39,3.48-0.45c0.08,0,0.13-0.12,0.04-0.16c-4.9-2.16-11.44,1.3-13.45,6.14c-0.04,0.09,0.09,0.19,0.17,0.13
					c0.89-0.63,1.66-1.36,2.46-2.06c-0.08,0.85,0.25,1.78,0.82,2.4C141.39,70.07,143.53,70.06,145.09,69.35z M144.34,64.03
					l0.03-0.03c0.12-0.13,0.29-0.21,0.47-0.25c0.33-0.09,0.7-0.03,0.97,0.25c0.58,0.58,0.24,1.42-0.45,1.69
					c-0.01,0-0.02,0.01-0.03,0.01c-0.41,0.16-0.91-0.12-1.13-0.46c-0.01-0.01-0.01-0.02-0.02-0.03
					C143.95,64.84,144.05,64.34,144.34,64.03z"/>
				<path class="st4" d="M120.14,64.12c-1.21-0.8-3.38-1.61-4.55-0.35c-0.09,0.09-0.05,0.25,0.08,0.29
					c0.85,0.22,1.89,0.44,2.84,0.82c-0.82,0.33-1.13,1.43-1.08,2.42c0.08,1.46,0.71,3.22,2.4,3.4c1.49,0.16,2.67-1.14,2.74-2.56
					C122.66,66.43,121.49,65.01,120.14,64.12z M121.67,66.94c0.01,0.02,0.01,0.03,0.02,0.05c0.22,0.63-0.69,1.16-1.13,0.66
					c-0.01-0.01-0.02-0.03-0.04-0.04C119.77,66.76,121.3,65.88,121.67,66.94z"/>
				<path class="st4" d="M139.88,78.89c-0.12,0.07-0.09,0.31,0.08,0.29c2.98-0.36,5.86-1.13,8.9-0.97c2.99,0.16,5.85,1.13,8.81,1.52
					c0.27,0.04,0.28-0.33,0.12-0.45C153.2,75.76,144.71,75.86,139.88,78.89z"/>
				<path class="st4" d="M148.17,81.98c-2.47-0.71-5.87-1.62-8.25-0.32c-0.07,0.04-0.07,0.14,0,0.18c2.28,1.25,5.28,1.07,7.79,1.79
					c2.87,0.83,5.58,2.21,8.39,3.26c0.15,0.06,0.23-0.15,0.14-0.25C154.03,84.17,151.33,82.89,148.17,81.98z"/>
				<path class="st4" d="M186.23,150.8c-0.95-0.15-1.76,0.73-1.27,1.65c1.97,3.65,4.78,6.69,6.13,10.69
					c1.73,5.1,1.47,10.87-1.45,15.5c-3.4,5.38-10.45,8.53-16.16,4.51c-2.79-1.97-3.99-4.79-4.56-7.86
					c-0.05-0.73-0.09-1.46-0.12-2.19c-0.28-6.32,0.45-12.81,0.41-19.16c0.76-7.15,1.28-14.34,2.34-21.47
					c1.42-9.57,3.64-18.93,3.66-28.66c0.02-8.48-0.57-17.16-2.2-25.49c-0.86-4.43-2.08-9.33-4.16-13.68
					c3.6-2.55,6.28-7.24,3.49-11.43c-2.39-3.6-6.15-2.87-9.68-1.48c-0.02-0.03-0.03-0.06-0.05-0.08c-7.45-7.8-21.22-9.14-31.03-5.74
					c-3.07,1.06-6.36,2.65-9.28,4.7c-2.72-2.3-7.19-2.71-9.43,0.43c-1.71,2.41-1.34,7.61,1.38,9.34c-0.53,1.57-0.76,3.25-0.64,5.02
					c-1.03,3.47-3.43,8.52-2.26,11.71c-1.26-0.12-2.6,0.03-3.82,0.13c-2.63,0.21-5.25,0.71-7.53,2.09
					c-0.07,0.04-0.05,0.17,0.04,0.16c2.5-0.33,4.94-0.94,7.48-0.99c1.72-0.03,3.48,0.5,5.18,0.42c0.41,0.3,0.9,0.55,1.49,0.74
					c0.03,0.51,0.1,1,0.22,1.48c-4.97,0.84-10.69,1.7-14.27,5.63c-0.05,0.06,0.01,0.15,0.09,0.11c4.54-2.39,9.16-3.54,14.2-4.3
					c0.03,0.3,0.09,0.59,0.15,0.88c-1.79,0.78-3.46,1.92-4.9,3.21c-1.51,1.36-3.46,3.2-3.99,5.23c-0.02,0.07,0.06,0.14,0.13,0.1
					c1.66-1.13,2.91-2.88,4.51-4.13c1.5-1.17,3.1-2.08,4.73-2.99c0.81,1.84,2.35,3.31,4.41,3.57c0.67,0.09,1.3,0.07,1.92-0.01
					c0.01,0.05,0.01,0.1,0.02,0.16c0.08,0.96,0.86,1.88,1.04,2.87c0.23,1.21,0.14,2.32-0.11,3.55c-0.58,2.86-2.27,5.47-2.92,8.26
					c-3.01-1.37-6.44-2.01-8.6-1.65c-9.38,1.56-13.79,11.47-10.63,19.92c0.07,0.18,0.17,0.32,0.29,0.43
					c-1.3,1.07-2.39,2.38-3.09,3.9c-3.84,8.33,4.65,14.4,10.71,18.63c-1.11,7.88-2.04,16.04-1.68,24
					c-4.85,8.3-8.13,18.79-4.86,28.11c2.09,5.97,6.74,11.37,12.61,13.86c-2.66,0.08-5.43,0.76-7.81,1.35
					c-4.2,1.04-9.55,2.87-12.93,5.67c-3.58,2.96-0.47,4.1,2.56,3.79c-0.55,0.64-0.91,1.36-0.81,2.12c0.34,2.66,5.32,2.01,8.22,0.62
					c-0.02,0.21-0.02,0.42,0.02,0.64c0.61,3.37,5.66,1.04,7.59,0.46c6.66-1.99,13.27-4.35,19.44-7.59c1.26-0.66,3.53-1.47,4.2-2.9
					c0.85-1.83-0.39-5.4-1.01-7.81c3.14,0.81,6.45,1.29,9.88,1.43c1.75,2.7,3.99,5.03,6.57,6.19c-1.64,2.54-3.47,4.5-5.62,6.74
					c-1.68,1.75-3.62,3.72-4.57,5.99c-1.26,2.97-0.15,5.89,3.23,6.13c-0.49,2.57,0.15,4.69,3.26,4.86c2.58,0.14,4.86-2.2,6.42-4.15
					c0.03,0.02,0.07,0.03,0.11,0.05c3.38,1.01,6.37-1,8.13-3.78c1.35-2.13,2.63-4.35,3.29-6.81c0.77-2.86,0.35-5.5,0.08-8.39
					c-0.13-1.4-0.02-2.78,0.23-4.15c16.89,1.41,35.45-5.05,41.54-22.29C211.55,173.52,203.04,153.45,186.23,150.8z M113.82,52.61
					c1.6-3.24,4.47-1.85,6.96-0.87c-2.53,2.02-4.65,4.42-5.92,7.16C114.24,56.85,112.62,55.03,113.82,52.61z M108.94,104.38
					c7.31-2.7,13.25,1.64,15.08,8.68c0,0,0,0.01,0,0.01c-0.05,0.44,0.62,0.58,0.82,0.22c3.68-6.64,9.89-11.65,17.93-8.99
					c10.2,3.37,7.68,14.49,1.9,20.63c-3.11-2.2-6.27-4.33-10.06-4.75c-2.35-0.26-5.7,0.35-5.28,2.88c-0.42-0.01-0.81,0.05-1.15,0.23
					c-1.5,0.8-1.14,2.41-0.16,3.63c-0.77,4,2.01,7.3,5.76,9.77c-4.52,3.67-8.52,7.78-12.21,12.26c-2.95-4.8-6.46-11.07-11.08-14.05
					c0.5-0.37,0.94-0.75,1.26-1.1c1.75-1.89,3.48-5.33,1.78-7.72c0.75-1.04,0.98-2.19,0.1-3.35c-0.56-0.73-1.33-0.94-2.13-0.9
					c-0.16-2.33-2.47-2.81-4.79-2.54c-1.59,0.19-3.14,0.73-4.54,1.54C99.84,114.39,102.11,106.9,108.94,104.38z M100.22,134.89
					c-1.9-2.92-2.3-6.15-0.37-9.18c1.75-2.74,6.75-5.89,10.09-3.56c-0.31,0.1-0.6,0.2-0.88,0.31c-1.79,0.69-4.24,1.78-5.07,3.64
					c-0.07,0.16,0.04,0.32,0.22,0.29c1.08-0.21,2.05-0.88,3.03-1.36c0.94-0.46,2.92-1.63,4.07-1.46c2.13,0.31-0.61,2.71-1.25,3.3
					c-0.97,0.9-2.1,1.67-3.01,2.62c-0.12,0.12-0.14,0.31-0.06,0.45l0.13,0.22c0.01,0.02,0.04,0.03,0.06,0.03
					c1.16-0.4,3.47-1.45,5.12-2.83c-0.22,2.12-1,3.96-2.7,5.49c-0.72,0.65-1.65,1.34-2.51,1.8c-0.82,0.44-1.69,0.48-2.38,1.13
					c-0.03,0.03-0.03,0.08,0,0.11c1.24,1.07,3.12,0.59,4.7-0.3c0.01,0.02,0.02,0.05,0.02,0.07c-0.03,0.04-0.05,0.1-0.06,0.16
					c-0.32,2.25-0.67,4.55-1,6.87C105.41,140.46,102.19,137.94,100.22,134.89z M129.43,215.79c-3.58,1.96-7.44,3.46-11.27,4.87
					c-3.65,1.34-7.04,3.04-10.89,3.82c-0.62,0.12-1.42,0.14-1.69-0.43c-0.24-0.5,0.14-1.07,0.53-1.47c2.19-2.26,5.4-3.37,8.12-4.84
					c0.18-0.1,0.05-0.35-0.13-0.31c-1.93,0.38-7.48,2.07-9.73,4.61c-1.08,0.08-2.07,0.64-3.17,0.9c-0.9,0.21-1.95,0.43-2.88,0.38
					c-1.54-0.09-1.41-0.32-0.3-1.43c2.68-2.67,6.37-4.18,9.73-5.75c0.1-0.05,0.02-0.19-0.07-0.17c-2.96,0.44-5.97,1.64-8.59,3.07
					c-0.42,0.23-0.96,0.54-1.5,0.91c-2.46-0.11-2.46-0.59-0.1-2.57c1.97-1.65,5.27-2.43,7.72-3.24c3.98-1.31,8.31-1.33,12.22-2.59
					c0.98,0.22,1.99,0.36,3.02,0.4c0.37,0.02,0.38-0.48,0.08-0.6c-8.6-3.46-15.93-8.53-17.99-18.17
					c-1.68-7.83,1.73-14.67,4.08-21.85c0.46,5.5,1.6,10.88,3.79,15.97c4.3,10.01,12,16.16,21.45,19.05
					c0.25,1.73,0.71,3.68,0.58,5.39C132.23,214.54,132.08,214.33,129.43,215.79z M162.65,208.9c-0.89,2.94-0.4,5.79-0.12,8.78
					c0.24,2.5,0.03,4.94-0.67,7.27c-0.53,1.38-1.17,2.7-2.04,3.94c-1.03,1.48-2.22,2.93-3.97,3.56c-0.67,0.24-1.34,0.22-2,0.25
					c1.83-2.44,3.92-5.58,3.92-8.6c0-0.09-0.11-0.13-0.17-0.07c-1.33,1.3-2.08,3-3.06,4.56c-1.22,1.94-2.67,3.94-4.31,5.56
					c-1.04,1.09-2.07,2.54-3.8,2.06c-3.56-1-1.03-4.98-0.11-6.93c0.82-1.74,1.97-3.4,2.51-5.25c0.07-0.25-0.23-0.38-0.4-0.24
					c-1.3,1.03-3.69,4.51-4.82,7.79c-0.22-0.03-0.44,0.05-0.72,0.01c-0.55-0.07-1.09-0.45-1.4-0.9c-0.91-1.33,0.08-2.87,0.81-4.02
					c0.63-0.99,1.39-1.91,2.16-2.79c1.38-1.59,2.95-3.01,4.4-4.54c1.23-1.3,2.54-2.64,2.68-4.34c0.94,0.24,1.92,0.33,2.93,0.22
					c0.51-0.06,0.68-0.77,0.13-0.94c-8.37-2.46-13.36-12.99-13.27-20.93c0.08-7.31,3.51-13.08,6.21-19.57
					c0.03-0.07-0.07-0.12-0.12-0.07c-5.79,6.34-9.09,16.14-7.84,24.65c0.35,2.38,1.35,5.33,2.85,8.1
					c-7.35-0.92-14.76-2.72-20.63-7.45c-5.64-4.54-9.24-11.09-11.16-17.99c-2.05-7.38-2.04-15.02-1.67-22.61
					c0.19-3.92,0.59-7.79,1.07-11.69c0.34-2.78,1.02-5.7,0.72-8.49c1,1.52,2.21,2.91,3.31,4.4c2.19,2.95,4.24,5.99,6.28,9.04
					c0.53,0.8,1.58,0.77,2.12,0c3.7-5.3,8.17-9.81,13.2-13.82c3.29,1.81,6.94,3.02,9.46,3.56c9.16,1.96,18.54-1.18,21.15-10.93
					c0.11-0.42-0.47-0.67-0.7-0.29c-2.86,4.73-4.9,8.69-10.98,9.66c-3.96,0.63-8.19,0.09-11.98-1.18
					c-3.76-1.26-7.46-3.42-10.37-6.12c-0.52-0.49-3.55-3.2-2.38-4.11c-0.15,0.12,4.51,2.29,5.1,2.49c0.18,0.06,0.25-0.19,0.12-0.29
					c-1.57-1.19-3.23-2.26-4.85-3.37c-0.32-0.33-0.65-0.65-0.86-1.03c-0.35-0.65-0.18-1.32,0.53-1.43c0.36-0.05,1.3,0.39,1.61,0.5
					c2.02,0.71,4.12,1.6,6.05,2.52c0.18,0.08,0.37-0.13,0.22-0.28c-1.41-1.39-2.75-2.47-4.6-3.24c-0.52-0.22-1.2-0.54-1.93-0.8
					c-0.15-4.64,10.39,1.51,11.99,2.56c2.66,1.75,4.97,2.85,8.18,3.29c0.09,0.01,0.18-0.12,0.07-0.17c-1.89-0.82-3.67-2-5.43-3.24
					c1.54-1.52,2.92-2.98,3.98-4.56c1.02-1.11,1.93-2.32,2.8-3.5c1.91-2.6,3.93-5.41,4.66-8.6c0.05-0.2-0.19-0.34-0.34-0.2
					c-1.95,1.78-3.41,4.07-4.93,6.24c0.07-0.89,0.07-1.84-0.05-2.86c-0.53-4.6-2.82-7.85-7.03-9.83
					c-7.12-3.35-16.31-0.69-19.82,6.04c-0.59-1.76-2.18-3.28-4.15-4.46c2.08-2.45,3.24-6.72,3.67-9.59c0.21-1.4,0.19-2.84-0.19-4.15
					c6.2,3.33,15.52,3.12,20.77-1.15c0.06-0.05,0-0.16-0.08-0.13c-6.29,2.44-16.12,3.13-21.73-1.35c1.12-0.53,2.04-1.35,2.62-2.37
					c0.06,0.07,0.1,0.15,0.16,0.22c0.62,0.69,1.28,0.85,2.14,1.07c1.58,0.39,3.06,0.56,4.64,1.06c3.46,1.09,9.87,0.62,10.94-3.73
					c0.05-0.2-0.15-0.47-0.37-0.37c-3.27,1.36-5,3.33-8.93,2.32c-1.4-0.36-2.84-0.85-4.22-1.28c-2.07-0.64-3.04-1.39-3.57-3.35
					c0.29-0.07,0.59-0.16,0.89-0.29c1.95-0.88,4.37-2.64,4.73-4.91c0.35-2.15-1.34-3.84-3.29-4.37c-2.6-0.71-9.4,0.17-9.77,3.42
					c-0.49,1.65,0.62,3.39,1.95,4.48c1.34,1.1,2.77,1.84,4.31,1.84c-0.22,1.1-0.42,2.24-1.03,3.17c-1.04,1.57-3.67,1.68-5.34,1.23
					c-1.49-0.4-2.79-1.9-3.18-3.39c-0.06-0.23-0.1-0.46-0.12-0.7c0.08-1.08,0.24-2.22,0.35-3.13c0.08-0.66-0.6-1.13-1.17-1.17
					c-2.37-0.15-2.4-2.73-2.19-4.54c0.15-1.31,0.44-2.6,0.72-3.89c0.4-1.84,0.9-3.6,1.11-5.48c0.16-1.43,0.55-2.73,1.13-3.93
					c1.1-0.51,2.13-1.1,3.42-1.16c0.85-0.04,1.73,0.08,2.47,0.51c0.55,0.32,0.69,0.67,1.29,0.73c0.02,0,0.04-0.02,0.05-0.03
					c0.64-1.77-3.01-3-5.74-2.44c0.75-0.98,1.62-1.9,2.58-2.76c3.82-3.42,8.31-6.23,13.27-7.65c8.94-2.57,20.57-1.22,27.33,5.57
					c-1.04,0.46-2.04,0.92-2.93,1.28c-0.37,0.15-0.31,0.65,0.09,0.69c3.57,0.36,6.87-2.74,10.39-1.74c5.52,1.57,2.78,7.73-0.4,10.23
					c-0.25-0.46-0.52-0.91-0.8-1.35c-0.5-1.21-1.05-2.39-1.73-3.51c1.3-0.95,2.82-2.25,4.26-2.09c0.06,0.01,0.08-0.07,0.04-0.11
					c-1.52-1.71-4.57,0.3-6.11,1.1c-0.44,0.23-0.62,0.9-0.34,1.31c0.16,0.24,0.33,0.47,0.49,0.71c3.56,7.62,6.66,14.51,7.95,23.02
					c1.26,8.29,1.79,16.94,1.41,25.32c-0.71,15.56-5.62,30.68-6.23,46.22c-1.91,11.57,0.53,24.25,0.7,35.69
					c0.05,3.66-0.19,7.37-1.27,10.88C165.42,203.21,163.57,205.86,162.65,208.9z M124.13,78.51c-1.37-0.81-3.87-2.65-1.72-4.16
					c1.18-0.83,3.08-1.05,4.47-1.1c1.47-0.04,3,0.17,3.96,1.47c0.79,1.07-0.04,2.28-1.05,3.2
					C128.05,79.07,126.34,79.82,124.13,78.51z M203.12,189.95c-6.58,14.75-22.87,19.77-37.89,18.67c1.38-4.65,3.97-9.19,4.42-14.08
					c0.37-4.07,0.14-8.17-0.18-12.25c0.67,0.95,1.48,1.82,2.46,2.57c4.17,3.19,9.99,2.92,14.35,0.26c4.93-3.02,7.74-8.65,8.11-14.32
					c0.46-7.06-2.99-11.74-6.24-17.27C202.76,157.68,209.11,176.5,203.12,189.95z"/>
				<path class="st4" d="M144.21,65.25c0.21,0.34,0.71,0.62,1.13,0.46c0.01,0,0.02-0.01,0.03-0.01c0.69-0.27,1.03-1.11,0.45-1.69
					c-0.28-0.28-0.65-0.34-0.97-0.25c-0.18,0.04-0.34,0.11-0.47,0.25l-0.03,0.03c-0.29,0.31-0.39,0.81-0.15,1.19
					C144.19,65.23,144.2,65.24,144.21,65.25z"/>
				<path class="st4" d="M120.52,67.6c0.01,0.01,0.02,0.03,0.04,0.04c0.44,0.5,1.35-0.03,1.13-0.66c-0.01-0.02-0.01-0.03-0.02-0.05
					C121.3,65.88,119.77,66.76,120.52,67.6z"/>
				<path class="st4" d="M137.09,59.57c4.34-2.11,8.07-2.4,12.57-0.48c0.1,0.04,0.19-0.06,0.11-0.15
					c-3.26-3.84-9.88-3.75-12.78,0.53C136.95,59.54,137.03,59.6,137.09,59.57z"/>
			</g>
			<path class="st5" d="M170.87,55.51c-1.96-0.79-6.14,1.04-6.15,3.41c0,0.14,0.13,0.22,0.26,0.2c0.25-0.04,0.5-0.14,0.75-0.25
				c-0.19,1.46,0.96,2.96,1.58,4.17c0.31,0.6,1.23,0.7,1.68,0.22C170.32,61.84,174.07,56.8,170.87,55.51z"/>
			<path class="st5" d="M116.79,54.9c-0.6-0.78-1.19-1.32-1.55-2.28c-0.21-0.56-0.28-1.18-0.74-1.6c-0.05-0.05-0.14-0.03-0.16,0.04
				c-0.05,0.16-0.06,0.32-0.09,0.48c-0.47-0.17-1.12,0.08-1.17,0.74c-0.19,2.26,0.68,4.45,1.3,6.58c0.24,0.84,1.27,0.7,1.57,0
				C116.42,57.75,117.67,56.05,116.79,54.9z"/>
			<path class="st5" d="M145.61,126.27c-2.71-2.14-6.82-4.84-10.35-5.18c-2.71-0.26-4.38,0.75-4.19,2.89
				c-3.45,0.03-1.77,6.32,0.07,8.29c2.04,2.19,6.79,6.8,10.51,7.03c-0.02,0.27,0.15,0.53,0.48,0.53c3.28-0.09,4.84-3.18,5.84-5.99
				C149.07,130.72,148.16,128.28,145.61,126.27z"/>
			<path class="st5" d="M112.07,123.69c-0.6-0.97-1.89-1.86-2.93-2.32c-2.23-0.97-4.94-0.15-6.87,1.15
				c-0.81,0.55-1.34,1.19-1.67,1.87c0.01-0.18,0.03-0.35,0.06-0.53c0.22-0.16,0.18-0.57-0.12-0.65c-0.1-0.05-0.21-0.03-0.3,0.06
				c-0.04,0.03-0.06,0.06-0.09,0.1c0,0,0,0,0,0l0,0c-0.02,0.04-0.04,0.08-0.04,0.13c-1.51,4.01-0.46,9.52,3.87,11.43
				c2.17,0.96,4.58,0.22,6.19-1.43c1.87-1.91,2.37-4.04,2.23-6.59C112.33,125.72,112.74,124.75,112.07,123.69z"/>
			<path class="st6" d="M145.55,140.4c-2.77-0.69-7.67-3.11-10.56-2.38c-2.41,0.61-4.33,3.86-5.86,5.54
				c-1.34,1.47-2.68,2.94-4.02,4.41c-0.89,0.98-1.79,1.96-2.68,2.94c-1.71,0.4-2.78-0.22-3.23-1.86c-2.94-2.95-5-7.88-7.24-11.41
				c-0.57-0.9-2.01-0.55-2.02,0.55c-0.12,16.07-3.99,32.68,2.11,48.17c4.79,12.16,17.07,20.59,30.29,20.82
				c0.95,0.02,1.61-1.1,1.1-1.92c-4.43-7.11-4.51-15.6-0.33-22.73c0.1,0.14,0.34,0.12,0.34-0.09c0.01-0.16,0.01-0.32,0.02-0.48
				c0.13-0.21,0.26-0.43,0.4-0.64c0.42-0.62,0.16-1.22-0.32-1.55c0.44-12.68,1.02-25.48,2.75-38.06
				C146.37,141.15,146.17,140.55,145.55,140.4z"/>
			<path class="st6" d="M162.69,82.17c-0.47-3.68-2.23-8.26-5.9-9.86c-3.82-1.67-9.16,0.45-12.77,1.68
				c-0.64,0.22-0.91,0.87-0.6,1.48c1.31,2.57,0.86,4.86-0.33,6.97c-0.81-1.19-2.09-2.24-3.01-2.91c-4.03-2.92-9.12-4.72-14.13-4.15
				c-2.13,0.24-4.57,0.87-6.46,1.9c-0.44,0.24-2.17,1.86-3.04,2.82c-0.27,0.12-0.5,0.33-0.62,0.63c-0.02,0-0.03-0.01-0.05-0.01
				c-0.03-0.01-0.06,0.01-0.08,0.03c-0.05,0.07-0.11,0.14-0.16,0.22c-0.07,0.09-0.02,0.21,0.04,0.28c0.06,0.08,0.12,0.13,0.17,0.18
				c0.39,5.79,6.92,4.82,8.11,9.93c0.88,3.78-1.41,7.51-2.2,11.03c-0.64,2.84,0.83,2.78,2,5.65c0.32,0.79,1.33,1.26,2.02,0.53
				c4.1-4.35,9.17-7.29,15.39-6.72c6.74,0.62,10.89,6.55,10.07,13.01c-0.11,0.91,1.2,1.1,1.61,0.44
				C158.74,105.72,164.18,93.79,162.69,82.17z"/>
			<path class="st6" d="M118.62,72.49c-2.17-0.35-4.01-1.99-4.93-3.99c-0.09-0.2-0.36-0.08-0.38,0.1c-0.08,0.91,0.05,1.73,0.34,2.47
				c-0.53-0.08-1.07,0.2-1.01,0.89c0.02,0.28,0.05,0.49,0.08,0.7c0.12,1.04,0.24,2.08,0.36,3.11c0.05,0.43,0.31,0.7,0.63,0.84
				c0.03,0.14,0.07,0.28,0.1,0.42c0.13,0.57,0.59,0.76,1.03,0.7c0.01,0.44,0.03,0.88,0.04,1.33c0.03,1.15,1.77,1.46,2.05,0.28
				c0.47-1.93,1.16-3.65,2.33-5.26C119.66,73.57,119.28,72.6,118.62,72.49z"/>
			<path class="st5" d="M132.11,209.29c-5.65,2.28-10.7,1.67-16.58,1.58c-0.22,0-0.27,0.28-0.11,0.39c0.24,0.16,0.49,0.29,0.73,0.44
				c-2.04,0.18-4.16,0.82-6.05,1.2c-4.82,0.99-12.32,1.62-15.29,6.08c-0.21,0.32,0.02,0.67,0.32,0.79c1.27,0.49,2.41,0.48,3.55,0.25
				c-1.62,1.28-3.1,2.8-1.92,3.37c0.58,0.28,1.21,0.27,1.85,0.09c2.63,0.11,5.07-0.8,7.47-1.84c-0.34,0.35-0.65,0.7-0.93,1.05
				c-0.8,1.02-0.3,2.39,1.04,2.5c2.74,0.23,5.42-1.26,7.94-2.2c3.67-1.36,7.31-2.81,10.91-4.34c4-1.7,8.45-3.11,8.87-8
				C133.99,209.81,132.93,208.95,132.11,209.29z"/>
			<path class="st5" d="M163.5,214.7c0.04-0.93-0.98-1.7-1.86-1.42c-3.78,1.21-7.49,0.62-11.28,1.36c-0.23,0.05-0.32,0.38-0.14,0.54
				c0.22,0.2,0.45,0.37,0.69,0.53c-2.48,4-7,6.44-9,10.83c-0.57,1.26-1.09,2.74-0.53,4.09c0.5,1.18,1.27,1.29,2.14,1.57
				c-0.02,1.71-0.04,3.43,1.83,4.35c1.91,0.94,3.97-0.34,5.34-1.62c0.8-0.75,1.59-1.54,2.36-2.37c0.08,1.01,1.23,1.98,2.23,1.27
				c0.91-0.65,1.72-1.36,2.45-2.11c3.38-3.06,6.35-6.58,5.21-11.35C163.24,218.51,163.42,216.61,163.5,214.7z"/>
			<path class="st7" d="M149.16,61.65c-3.85-4.51-11.59,2.18-12.3,6.39c-0.01,0.09,0.07,0.16,0.15,0.11c2-1.05,2.84-3.27,4.9-4.32
				c2.33-1.19,4.6-1.3,7.12-1.69C149.27,62.11,149.29,61.8,149.16,61.65z"/>
			<path class="st7" d="M120.85,62.51c-1.47-0.9-4.6-0.9-5.18,1.11c-0.02,0.06,0.01,0.13,0.06,0.16c1.32,0.71,2.82-0.42,4.13,0.54
				c1.22,0.9,1.7,2.71,2.56,3.91c0.11,0.15,0.34,0.14,0.4-0.05C123.48,66.04,122.81,63.71,120.85,62.51z"/>
			<path class="st7" d="M131.3,73.82c-1.46,1.27-4.13,3.33-6.1,2.79c-1.14-0.32-1.9-1.05-2.84-1.68c-0.53-0.36-0.73-0.48-1.32-0.39
				c-0.26,0.04-0.37,0.36-0.33,0.58c0.57,2.96,3.02,5.33,6.12,5c3.44-0.36,5.03-2.9,4.85-6.13
				C131.67,73.78,131.45,73.69,131.3,73.82z"/>
			<path class="st7" d="M142.94,84.75c-2.46,1.19-4.6,2.29-7.39,2.42c-2.64,0.12-7.08,0.01-9.27-1.75c-0.31-0.25-0.84-0.37-1.13,0
				c-0.71,0.9-1.53,1.52-2.31,2.36c-0.07,0.08-0.05,0.24,0.07,0.26c1.51,0.26,1.74-0.69,3.05-0.76c0.23-0.01,1.47,0.76,1.91,0.92
				c1.6,0.57,3.4,0.88,5.08,1.06c3.78,0.41,8.73-0.1,10.53-3.96C143.66,84.93,143.31,84.57,142.94,84.75z"/>
			<path class="st7" d="M148.53,87.53c-4.22,2.61-8.47,4.9-13.61,5.13c-4.19,0.19-7.55-1.91-11.39-3.12
				c-0.12-0.04-0.24,0.08-0.2,0.2c0.36,1.12,0.95,2.06,1.69,2.84c-0.39,1.21-0.83,2.35-1.42,3.48c-0.42,0.8-0.1,2.07,0.92,2.25
				c5.52,1.01,12.63,0.19,16.72-4.05c3.02-1.44,5.65-3.75,7.54-6.48C148.88,87.63,148.68,87.44,148.53,87.53z"/>
			<path class="st7" d="M132.37,80.75c-0.04,0.01-0.09,0.02-0.13,0.02c-0.34,0.06-0.5,0.52-0.32,0.79c0.03,0.04,0.05,0.08,0.08,0.12
				c0.27,0.43,0.93,0.41,1.13-0.08C133.34,81.11,132.87,80.66,132.37,80.75z"/>
			<path class="st7" d="M134.62,78.81l-0.06,0c-0.71,0.03-1,0.97-0.37,1.35c0.02,0.01,0.04,0.02,0.05,0.03
				C135.34,80.85,135.84,78.75,134.62,78.81z"/>
			<path class="st7" d="M136.04,82c-0.11-0.1-0.21-0.15-0.33-0.21c-0.16-0.23-0.52-0.23-0.62,0.08c-0.06,0.2-0.09,0.36-0.02,0.56
				c0.08,0.24,0.26,0.36,0.5,0.38c0.04,0,0.08,0.01,0.11,0.01C136.12,82.86,136.34,82.27,136.04,82z"/>
			<path class="st7" d="M119.84,82.4c-0.16-0.14-0.32-0.23-0.53-0.29c-0.32-0.09-0.6,0.16-0.62,0.47c-0.03,0.46,0.32,0.75,0.76,0.77
				C119.92,83.36,120.2,82.72,119.84,82.4z"/>
			<path class="st7" d="M120.23,80.46c-0.13,0.17-0.16,0.24-0.14,0.45c0.01,0.12,0.09,0.2,0.21,0.21c0.21,0.02,0.28-0.01,0.45-0.14
				C121.25,80.61,120.61,79.96,120.23,80.46z"/>
			<path class="st7" d="M122.67,82.64c-0.04-0.05-0.07-0.1-0.11-0.14c-0.15-0.21-0.33-0.27-0.58-0.24
				c-0.06,0.01-0.12,0.02-0.19,0.03c-0.1,0.02-0.15,0.12-0.16,0.21c-0.01,0.09-0.02,0.17-0.03,0.26c-0.02,0.18,0.12,0.35,0.25,0.44
				c0.05,0.03,0.1,0.07,0.15,0.1C122.39,83.58,122.96,83.03,122.67,82.64z"/>
			<path class="st7" d="M160.86,51.59c-5.63-5.67-15.99-8-23.64-5.75c-0.11,0.03-0.09,0.19,0.03,0.2c4.05,0.18,7.89,0.32,11.73,1.78
				c3.67,1.4,6.85,3.92,10.03,6.17C160.45,55.02,162.06,52.8,160.86,51.59z"/>
			<path class="st7" d="M156.24,108.82c-1.77,1.39-3.59,2.75-5.32,4.19c-0.03,0.02-0.02,0.06-0.01,0.09
				c0.15,0.33,0.39,0.47,0.66,0.5c-0.05,0.09-0.1,0.18-0.15,0.3c-0.17,0.44-0.31,0.88-0.46,1.33c-0.48,1.44,1.6,2.2,2.37,1
				c1.33-2.08,2.45-4.36,4-6.3C157.97,109.13,157.03,108.2,156.24,108.82z"/>
			<path class="st7" d="M149.11,107.23c0,0-0.01,0-0.01,0c-0.02-0.05-0.03-0.11-0.06-0.16c-0.32-0.73-1.31-0.17-1.19,0.5
				c0.19,1.08,0.33,2.23,0.38,3.39c-0.49,2.43-2.09,5.12-3.03,6.63c-1.34,2.17-3.2,3.96-4.49,6.14c-0.1,0.17,0.07,0.41,0.26,0.34
				c0.32-0.1,0.63-0.23,0.95-0.38c0.05,0.2,0.17,0.39,0.38,0.55c0.15,0.2,0.3,0.39,0.45,0.59c0.2,0.28,0.44,0.44,0.69,0.52
				c0.55,0.43,1.53,0.43,1.87-0.3c1.36-2.97,3.77-5.17,4.59-8.42C150.7,113.38,150.34,110.31,149.11,107.23z"/>
			<path class="st7" d="M165.42,130.91c-3.08,8.23-11.61,11.47-19.83,10.14c-2.15-0.35-4.24-0.96-6.24-1.79
				c-0.02-1.19-1.65-2.31-2.98-1.46c-0.68-0.38-1.34-0.78-1.99-1.22c0.09-0.61-0.25-1.29-0.92-1.5c-0.48-0.15-0.96-0.3-1.44-0.46
				c-2.13-2.19-2.99-4.69-3.71-8.04c-0.03-0.13-0.21-0.18-0.3-0.08c-2.69,3.17-1.67,6.38,0.89,9.18c-2.2,2.18-4.49,4.3-6.44,6.7
				c-0.45,0.56-0.93,1.17-1.37,1.81c-1.22-2.27-2.68-4.42-4.51-6.26c-1.55-1.56-3.86-3.7-6.17-3.77c-0.05,0-0.08,0.05-0.07,0.09
				c0.23,0.99,0.79,1.92,1.46,2.8c-0.72-0.19-1.54,0.12-1.92,0.74c0.04-0.57,0.05-1.13,0-1.68c-0.09-0.94-1.18-1.15-1.64-0.44
				l-0.03-0.01c-0.03,0.06-0.04,0.12-0.07,0.18c-0.01,0.01-0.02,0.02-0.02,0.04c-0.4,1.05-1.01,1.99-1.77,2.82
				c-0.5,0.54-1.29,1.06-1.53,1.76c-0.01,0.04,0.02,0.09,0.05,0.1c0.2,0.05,0.41,0.04,0.62,0c-0.2,0.39-0.17,0.87,0.27,1.29
				c0.55,0.53,1.14,0.98,1.8,1.37c0.82,0.49,1.72-0.15,1.79-1.03c0.07-0.91,0.22-1.87,0.35-2.82c0.06,0.69,0.17,1.32,0.35,1.91
				c-0.03-0.01-0.06-0.03-0.08-0.04c-0.22-0.1-0.45,0.11-0.33,0.33c2.96,5.8,7.29,10.08,9.06,16.59c0.29,1.06,1.8,1.57,2.58,0.68
				c5.32-6.1,9.83-12.08,16.02-17.25c2.66,1.32,5.19,2.22,6.78,2.55c9.52,1.93,20.03-3.03,21.8-13.11
				C165.94,130.73,165.53,130.61,165.42,130.91z M132.19,138.57c0.09,0.06,0.18,0.12,0.27,0.18c-1.39,0.69-2.51,2.17-3.71,3.38
				c-0.16,0.16-0.32,0.33-0.48,0.49C129.43,141.14,130.67,139.74,132.19,138.57z"/>
			<path class="st7" d="M159.22,214.19c-1.52-0.59-2.79-1.33-4.39-1.88c-2.7-0.92-4.71-2.72-6.58-4.8c-3.45-3.83-5-8.24-7.19-12.79
				c-0.02-0.05-0.11-0.03-0.1,0.03c0.12,1.51,0.31,3.13,0.6,4.77c-0.38-0.74-1.18-1.27-2.08-0.96c-5.89,2.05-12.47,2.33-17.9-1.16
				c-4.92-3.16-6.96-8.13-10.52-12.43c-0.06-0.07-0.15,0.01-0.14,0.08c0.03,0.23,0.09,0.46,0.13,0.69c-0.55-1-1.09-2-1.64-3.02
				c-0.06-0.11-0.23-0.03-0.2,0.08c1.29,5.99,4.34,11.5,7.82,16.48c3.91,5.6,7.83,10.39,8.78,17.4c0.14,1.02,1.53,1.41,2.3,0.94
				c3.29-2.01,5.63-2.38,5.13-6.85c-0.68-6-4.16-7.18-8.9-9.24c0.85,0.35,1.71,0.65,2.59,0.9c0.06,0.14,0.16,0.26,0.33,0.35
				c1.74,0.85,3.44,1.82,5.31,2.3c2.74,0.71,5.28,0.67,7.91,1.96c1.27,0.63,2.54-0.19,2.7-1.35c0.77,2.05,1.79,3.96,3.14,5.5
				c1.71,1.96,3.9,3.57,6.32,4.53c3.02,1.21,4.13,0.89,6.71-0.63C159.74,214.87,159.6,214.34,159.22,214.19z M122.54,200.74
				c-0.44-0.21-0.92-0.14-1.31,0.07c-0.54-0.6-1.07-1.21-1.58-1.83c1.1,0.78,2.27,1.45,3.49,2.03
				C122.94,200.93,122.74,200.84,122.54,200.74z"/>
			<path class="st7" d="M186.22,205.65c-6.04-1.53-10.37-5.62-12.53-11.44c-1.62-4.34-1.32-9.39-3.66-13.4
				c-0.25-0.42-0.8-0.27-0.96,0.13c-1.52,3.81-1.37,8.3-0.02,12.51c-0.04,0.09-0.07,0.19-0.09,0.3c-0.96,4.61-2.49,8.83-4.76,12.98
				c-0.48,0.87,0.11,2.1,1.18,2.06c3.31-0.13,6.58,0.49,9.88,0.27c3.58-0.24,7.06-1.04,10.66-1.19
				C187.16,207.82,187.5,205.98,186.22,205.65z"/>
			<path class="st5" d="M130.15,72.92c-1.64-1.09-5.43-0.77-7.34,0.73c0,0,0-0.01,0.01-0.01c-1-0.07-1.59,0.77-1.65,1.72
				c-0.05,0.83,0.26,1.56,0.77,2.14c0.26,0.61,0.79,1.12,1.56,1.38c0.96,0.68,2.15,0.95,3.4,0.75c1.54-0.25,3.12-0.89,3.86-2.24
				C131.94,76.02,131.82,74.03,130.15,72.92z"/>
			<path class="st8" d="M153.62,128.96c-3.86,0.15-6.69,0.57-10.07-1.7c-2.23-1.49-4.09-3.1-6.94-2.78
				c-0.35,0.04-0.46,0.43-0.17,0.64c5.14,3.83,10.59,12.66,18.18,7.52C156.14,131.6,155.7,128.88,153.62,128.96z"/>
			<path class="st8" d="M164.05,100.28c-0.04-0.61-0.93-0.79-1.1-0.15c-1.31,4.77-4.2,9.84-6.67,14.14
				c-1.15,1.99-2.28,4.01-3.62,5.88c-1.28,1.78-2.74,2.91-3.13,5.07c-0.03,0.17,0.07,0.31,0.24,0.32c4.31,0.28,8.91-5.36,11-8.63
				C164.28,111.42,164.51,106.65,164.05,100.28z"/>
			<path class="st8" d="M110,125.09c-1.59-1.05-3.7,0.28-5.01,1.29c-1.41,1.08-2.78,2.31-2.55,4.22c0.02,0.16,0.14,0.28,0.32,0.24
				c1.55-0.37,2.46-1.43,3.8-2.21c1.26-0.73,3.03-1.04,3.75-2.38C110.52,125.83,110.39,125.35,110,125.09z"/>
			<path class="st8" d="M118.39,109.4c-1.99-3.41-6.94-3.58-10.06-1.7c-2.76,1.66-4.75,4.99-4.1,8.26c0.08,0.4,0.47,0.77,0.87,0.87
				c0.16,0.04,0.33,0.1,0.5,0.05c0.6-0.18,0.7-0.45,1.07-0.9c0.94-1.15,1.78-1.62,3.04-2.35c0.98-0.57,1.71-1.26,2.93-1.2
				c1.29,0.07,2.37,0.7,3.7,0.56C118.07,112.81,119.38,111.09,118.39,109.4z"/>
			<path class="st8" d="M134.85,106c-1.82,0.67-3.94,2.42-4.85,4.15c-0.25,0.48-0.87,2.44,0.09,2.64c0.83,0.18,1.45-0.03,2.2-0.35
				c1.55-0.66,2.78-0.98,4.49-0.96c1.42,0.01,2.52,0.45,3.83,0.89c1.33,0.45,2.47,0.14,3.43,0.06c0.69-0.06,1.23-0.52,1.25-1.25
				C145.44,105.92,139.1,104.45,134.85,106z"/>
			<path class="st8" d="M129.87,74.13c-1.64-1.26-5.17-1.2-6.94-0.23c-0.65,0.35-1.42,1.02-1.56,1.78
				c-0.06,0.36-0.01,1.12,0.47,1.22c0.71,0.14,1.51-0.24,2.22-0.3c1.24-0.1,2.36,0.04,3.58,0.24c0.94,0.15,2.36,0.37,2.89-0.7
				C130.91,75.36,130.49,74.61,129.87,74.13z"/>
			<path class="st8" d="M152.86,55.6c-3.3-5.55-7.93-8.89-14.53-8.71c-5.63,0.15-13.42,2.79-16.5,7.86
				c-0.09,0.14,0.03,0.33,0.19,0.33c4.91-0.02,9.7-2.04,14.74-2.08c4.87-0.04,11.29,0.77,15.46,3.24
				C152.62,56.48,153.1,56,152.86,55.6z"/>
			<path class="st8" d="M193.72,159.01c-0.47-0.65-1.64-0.29-1.37,0.58c2.39,7.7,4.93,14.2-0.1,21.41
				c-3.53,5.05-9.5,7.65-15.58,7.95c-0.33,0.02-0.55,0.36-0.38,0.66c4.99,8.54,16.77,5.08,21.57-1.87
				C203.82,179.09,199.2,166.62,193.72,159.01z"/>
			<path class="st8" d="M119.62,208.02c-2.36-5.2-6.59-8.11-9.77-12.78c-1.74-2.56-2.99-5.34-3.35-8.43
				c-0.36-3.08,0.5-6.04-0.06-9.07c-0.02-0.11-0.19-0.15-0.26-0.07c-4.26,4.82-4.05,12.74-1.57,18.34
				c2.78,6.28,7.74,11.26,14.38,12.83C119.5,208.97,119.82,208.46,119.62,208.02z"/>
			<path class="st8" d="M157.53,209.67c-0.89-6.05-4.07-11.04-6.27-16.67c-1.32-3.36-2.16-5.85-1.38-9.52
				c0.59-2.76,2.19-5.19,2.01-8.04c-0.02-0.35-0.35-0.51-0.66-0.38c-5.79,2.54-8.92,13.29-8.76,19.13
				c0.22,7.81,5.57,15.09,12.55,17.98C156.64,212.83,157.72,210.98,157.53,209.67z"/>
			<path class="st8" d="M114.33,213.68c-0.26-0.22-0.54-0.39-0.82-0.54c-0.1-0.33-0.34-0.61-0.72-0.73
				c-2.97-0.9-5.66,0.03-8.37,1.31c-2.32,1.09-5.83,2.5-7.19,4.75c-0.07,0.11-0.01,0.3,0.13,0.32c1.65,0.25,3.46-0.37,5.19-0.97
				c-0.51,0.72-0.86,1.48-0.9,2.26c-0.01,0.23,0.17,0.41,0.37,0.48c1.94,0.66,4.7-0.72,6.5-1.41c2.06-0.79,4.93-1.59,6.06-3.66
				C114.86,214.95,114.84,214.11,114.33,213.68z"/>
			<path class="st8" d="M153.79,220.87c-0.13-0.43-0.5-0.73-0.94-0.78c0.46-1.31-1-2.36-2.25-1.81c-1.07,0.48-2,0.84-2.87,1.68
				c-0.74,0.71-1.37,1.59-1.99,2.4c-1.18,1.53-2.5,3.35-2.2,5.37c0.11,0.71,1.02,1.12,1.65,0.94c1.06-0.31,1.89-1.12,2.64-1.99
				c0.02,0.27,0.06,0.54,0.14,0.81c0.12,0.4,0.52,0.62,0.92,0.52c1.59-0.38,2.44-1.63,3.33-2.91
				C153.09,223.9,154.27,222.44,153.79,220.87z"/>
			<path class="st1" d="M146.58,192.44c-0.09-3.72,0.45-7.4,0.46-11.11c0-0.19-0.25-0.24-0.35-0.09c-2.18,3.26-2.91,7.33-2.82,11.2
				c0.08,3.24,0.12,7.7,2.6,10.01c0.31,0.29,0.88,0.19,0.98-0.26C148.17,199.02,146.67,195.7,146.58,192.44z"/>
			<path class="st1" d="M148.52,204.07c-0.24-0.16-0.66-0.29-0.9-0.06c-0.64,0.64-0.08,1.53,0.61,1.82
				c0.43,0.18,0.83-0.26,0.85-0.65C149.1,204.76,148.88,204.32,148.52,204.07z"/>
			<path class="st1" d="M106.93,194.52c-0.99-3.23-1.47-6.72-1.56-10.09c-0.01-0.32-0.45-0.37-0.55-0.07
				c-1.25,3.61-1.4,7.14-0.3,10.83c0.69,2.29,1.65,6.21,4.36,6.54c0.18,0.02,0.36-0.15,0.41-0.31
				C109.92,199.1,107.6,196.71,106.93,194.52z"/>
			<path class="st1" d="M111.91,202.68c-0.27-0.4-0.59-0.72-1.12-0.63c-0.27,0.05-0.68,0.26-0.65,0.6c0.06,0.63,0.44,1.24,1.15,1.24
				c0.23,0,0.48-0.13,0.59-0.34c0.01-0.02,0.02-0.04,0.03-0.06C112.03,203.24,112.08,202.92,111.91,202.68z"/>
			<path class="st1" d="M110.45,213.46c-1.53-0.43-3.34,0.18-4.82,0.6c-1.49,0.43-3.16,0.81-4.38,1.81
				c-0.11,0.09-0.02,0.28,0.12,0.28c1.55,0,3.07-0.62,4.59-0.91c1.5-0.29,3.26-0.28,4.59-1.06
				C110.84,214.02,110.77,213.55,110.45,213.46z"/>
			<path class="st1" d="M111.41,215.24c-0.49-0.59-2.07-0.35-2.34,0.38c-0.04,0.12,0.03,0.25,0.13,0.32
				c0.28,0.18,0.69,0.11,1.01,0.11c0.37,0,0.78,0.06,1.11-0.15C111.57,215.75,111.59,215.46,111.41,215.24z"/>
			<path class="st1" d="M150.84,218.2c-1.06,0.04-1.68,1.26-2.19,2.07c-0.69,1.09-1.2,2.1-1.51,3.35c-0.06,0.24,0.25,0.45,0.43,0.25
				c0.79-0.88,1.47-1.8,2.21-2.73c0.56-0.69,1.61-1.53,1.52-2.48C151.28,218.42,151.11,218.19,150.84,218.2z"/>
			<path class="st1" d="M152.09,221.42c-0.09-0.17-0.21-0.26-0.39-0.3c-0.31-0.07-0.56,0.06-0.74,0.3
				c-0.21,0.29-0.44,0.54-0.52,0.89c-0.11,0.49,0.39,0.87,0.83,0.63c0.32-0.17,0.5-0.46,0.73-0.73
				C152.18,221.97,152.24,221.69,152.09,221.42z"/>
			<path class="st1" d="M194.31,179.86c-0.04-0.15-0.21-0.22-0.34-0.14c-1.96,1.15-2.74,3.33-4.42,4.85
				c-2.1,1.9-4.49,3.01-7.07,4.09c-0.09,0.04-0.13,0.21,0,0.23c2.79,0.45,5.76-0.57,7.97-2.28
				C192.45,185.06,195.09,182.61,194.31,179.86z"/>
			<path class="st1" d="M194.98,176.59c-0.11,0.39-0.18,0.71-0.05,1.1c0.07,0.22,0.34,0.37,0.55,0.23c0.38-0.26,0.53-0.58,0.69-1
				C196.45,176.19,195.21,175.82,194.98,176.59z"/>
			<path class="st1" d="M195.92,162.29c-0.5-1.21-1.16-2.31-2.02-3.29c-0.15-0.18-0.38,0.02-0.35,0.21c0.21,1.35,0.54,2.68,0.9,4
				c0.31,1.13,0.35,2.38,1.27,3.19c0.33,0.29,0.74,0.14,0.9-0.24C197.14,164.89,196.41,163.48,195.92,162.29z"/>
			<path class="st1" d="M108.82,106.33c-3.46,1.41-7.75,6.83-4.9,10.56c0.13,0.17,0.45,0.25,0.57,0c1.3-2.87,1.44-6.37,4.98-7.61
				c1.48-0.52,3.41-0.33,4.83,0.34c1.21,0.57,1.92,1.66,3.25,1.95c0.79,0.17,1.56-0.36,1.57-1.2
				C119.19,105.83,111.91,105.07,108.82,106.33z"/>
			<path class="st1" d="M142.75,108.05c-2.1-2.9-4.84-3.58-8.22-2.39c-2.18,0.76-5.89,3.58-5.69,6.12c0.02,0.24,0.23,0.43,0.47,0.36
				c0.74-0.2,1.05-0.57,1.64-1.06c1.03-0.85,2.19-1.39,3.41-1.89c2.26-0.93,5.3-1.03,7.58-0.11
				C142.51,109.3,143.09,108.53,142.75,108.05z"/>
			<path class="st1" d="M126.83,74.01c-1.34-0.26-3.35-0.15-4.08,1.25c-0.05,0.1-0.01,0.21,0.1,0.24c0.53,0.18,1.07,0.16,1.6,0.28
				c0.59,0.13,1.19,0.26,1.77,0.44C127.64,76.68,128.28,74.29,126.83,74.01z"/>
			<path class="st1" d="M137.95,48.85c-1.34-1.93-4.91-0.64-6.73-0.05c-3.07,1-5.92,2.61-8.26,4.83c-0.1,0.1,0,0.27,0.14,0.23
				c2.81-0.81,5.37-2.25,8.17-3.07c1.97-0.58,5.33,0.02,6.64-1.63C137.98,49.07,138.02,48.95,137.95,48.85z"/>
			<path class="st1" d="M141.03,48.75c-0.57-0.15-0.98-0.14-1.48,0.19c-0.16,0.11-0.18,0.3-0.06,0.44c0.39,0.47,0.78,0.58,1.37,0.61
				C141.57,50.03,141.71,48.93,141.03,48.75z"/>
			<path class="st1" d="M164.72,53.61c-0.74,0.03-1.32,0.44-2.01,0.6c-0.2,0.05-0.21,0.37,0,0.41c0.37,0.07,0.75,0.24,1.13,0.22
				c0.38-0.02,0.8-0.11,1.12-0.31C165.36,54.28,165.22,53.59,164.72,53.61z"/>
			<path class="st1" d="M167.16,53.8c-0.24-0.08-0.42-0.07-0.67-0.06c-0.48,0.02-0.48,0.73,0,0.75c0.25,0.01,0.43,0.03,0.67-0.06
				C167.47,54.32,167.47,53.91,167.16,53.8z"/>
			<path class="st1" d="M102.22,123.8c-5.85,3.33-4.14,10.12-0.54,14.47c0.13,0.15,0.35-0.01,0.31-0.18
				c-1.05-4.35-2.99-10.23,0.42-14.03C102.55,123.92,102.39,123.71,102.22,123.8z"/>
			<path class="st1" d="M150.92,130.52c-6.38-1.61-10.17-7.99-16.86-8.9c-0.24-0.03-0.36,0.24-0.16,0.39
				c3.01,2.22,5.74,4.71,8.7,6.97c2.39,1.83,5.27,2.39,8.24,2.19C151.19,131.14,151.3,130.62,150.92,130.52z"/>
			<path class="st1" d="M154.82,130.16c-0.37-0.2-0.86-0.22-1.26-0.03c-0.17,0.08-0.4,0.31-0.34,0.53c0.16,0.66,1.12,0.68,1.6,0.41
				C155.16,130.88,155.16,130.34,154.82,130.16z"/>
			<path class="st1" d="M159,115.35c-0.12-0.48-0.64-0.6-1.03-0.42c-1.15,0.52-1.71,1.96-2.38,2.97c-0.77,1.15-1.68,2.13-2.35,3.33
				c-0.12,0.22,0.08,0.47,0.32,0.41c1.54-0.34,2.66-1.26,3.74-2.43C158.23,118.19,159.35,116.8,159,115.35z"/>
			<path class="st1" d="M161.36,110.77c-0.28-0.34-0.82-0.32-1.15-0.07c-0.34,0.26-0.52,0.73-0.71,1.1c-0.19,0.36-0.11,0.7,0.13,1
				c-0.08-0.05-0.17-0.1-0.25-0.15c-0.19,0.25,0.17,0.56,0.42,0.42c0.13-0.02,0.19-0.05,0.2-0.07c0.28,0.08,0.58,0,0.8-0.2
				c0.38-0.35,0.59-0.7,0.79-1.18C161.71,111.33,161.54,111,161.36,110.77z"/>
			<g>
				<path class="st9" d="M167.63,189.29c-0.17-11.44-2.61-24.13-0.7-35.69c0.61-15.54,5.51-30.66,6.23-46.22
					c0.38-8.38-0.15-17.03-1.41-25.32c-1.29-8.51-4.39-15.4-7.95-23.02c-0.16-0.24-0.33-0.47-0.49-0.71
					c-0.27-0.42-0.1-1.08,0.34-1.31c1.54-0.8,4.58-2.81,6.11-1.1c0.03,0.04,0.01,0.11-0.04,0.11c-1.45-0.16-2.96,1.14-4.26,2.09
					c0.68,1.12,1.23,2.3,1.73,3.51c0.28,0.44,0.55,0.89,0.8,1.35c3.18-2.5,5.92-8.67,0.4-10.23c-3.52-1-6.82,2.1-10.39,1.74
					c-0.4-0.04-0.47-0.54-0.09-0.69c0.9-0.35,1.89-0.82,2.93-1.28c-6.75-6.79-18.39-8.14-27.33-5.57
					c-4.96,1.43-9.44,4.23-13.27,7.65c-0.96,0.86-1.83,1.77-2.58,2.76c2.73-0.56,6.38,0.68,5.74,2.44
					c-0.01,0.02-0.02,0.04-0.05,0.03c-0.6-0.06-0.73-0.41-1.29-0.73c-0.75-0.43-1.62-0.55-2.47-0.51c-1.3,0.06-2.32,0.65-3.42,1.16
					c-0.58,1.2-0.97,2.5-1.13,3.93c-0.2,1.88-0.71,3.64-1.11,5.48c-0.28,1.29-0.57,2.58-0.72,3.89c-0.21,1.81-0.18,4.39,2.19,4.54
					c0.57,0.04,1.25,0.51,1.17,1.17c-0.11,0.91-0.27,2.05-0.35,3.13c0.02,0.23,0.06,0.47,0.12,0.7c0.39,1.48,1.7,2.99,3.18,3.39
					c1.67,0.44,4.3,0.34,5.34-1.23c0.62-0.93,0.81-2.07,1.03-3.17c-1.54,0-2.97-0.73-4.31-1.84c-1.33-1.1-2.44-2.83-1.95-4.48
					c0.37-3.25,7.17-4.12,9.77-3.42c1.96,0.53,3.64,2.22,3.29,4.37c-0.36,2.27-2.78,4.02-4.73,4.91c-0.3,0.14-0.6,0.22-0.89,0.29
					c0.53,1.96,1.5,2.72,3.57,3.35c1.38,0.42,2.82,0.92,4.22,1.28c3.93,1,5.66-0.96,8.93-2.32c0.23-0.09,0.42,0.17,0.37,0.37
					c-1.07,4.36-7.48,4.83-10.94,3.73c-1.58-0.5-3.06-0.67-4.64-1.06c-0.86-0.21-1.52-0.37-2.14-1.07
					c-0.07-0.07-0.11-0.15-0.16-0.22c-0.58,1.03-1.49,1.84-2.62,2.37c5.61,4.48,15.45,3.79,21.73,1.35
					c0.07-0.03,0.14,0.08,0.08,0.13c-5.24,4.27-14.56,4.47-20.77,1.15c0.38,1.31,0.4,2.76,0.19,4.15c-0.44,2.87-1.6,7.14-3.67,9.59
					c1.98,1.18,3.57,2.7,4.15,4.46c3.5-6.73,12.7-9.39,19.82-6.04c4.21,1.98,6.5,5.23,7.03,9.83c0.12,1.02,0.12,1.96,0.05,2.86
					c1.52-2.17,2.98-4.45,4.93-6.24c0.15-0.14,0.39,0,0.34,0.2c-0.74,3.19-2.75,6-4.66,8.6c-0.87,1.18-1.78,2.39-2.8,3.5
					c-1.06,1.58-2.43,3.05-3.98,4.56c1.76,1.23,3.53,2.41,5.43,3.24c0.11,0.05,0.02,0.18-0.07,0.17c-3.21-0.44-5.52-1.54-8.18-3.29
					c-1.6-1.06-12.14-7.2-11.99-2.56c0.72,0.26,1.41,0.59,1.93,0.8c1.85,0.77,3.2,1.85,4.6,3.24c0.15,0.15-0.04,0.37-0.22,0.28
					c-1.93-0.92-4.03-1.81-6.05-2.52c-0.3-0.11-1.24-0.55-1.61-0.5c-0.71,0.11-0.88,0.78-0.53,1.43c0.21,0.38,0.53,0.71,0.86,1.03
					c1.63,1.11,3.28,2.18,4.85,3.37c0.13,0.1,0.06,0.35-0.12,0.29c-0.58-0.2-5.25-2.37-5.1-2.49c-1.17,0.91,1.85,3.62,2.38,4.11
					c2.91,2.7,6.61,4.86,10.37,6.12c3.79,1.27,8.01,1.82,11.98,1.18c6.07-0.97,8.11-4.93,10.98-9.66c0.23-0.37,0.81-0.13,0.7,0.29
					c-2.6,9.75-11.99,12.89-21.15,10.93c-2.52-0.54-6.17-1.75-9.46-3.56c-5.03,4.02-9.51,8.52-13.2,13.82
					c-0.54,0.77-1.58,0.8-2.12,0c-2.04-3.05-4.1-6.09-6.28-9.04c-1.11-1.49-2.31-2.89-3.31-4.4c0.3,2.79-0.38,5.71-0.72,8.49
					c-0.48,3.9-0.88,7.76-1.07,11.69c-0.37,7.59-0.38,15.23,1.67,22.61c1.92,6.91,5.52,13.45,11.16,17.99
					c5.87,4.73,13.28,6.53,20.63,7.45c-1.5-2.77-2.5-5.72-2.85-8.1c-1.26-8.52,2.04-18.32,7.84-24.65c0.04-0.05,0.15,0,0.12,0.07
					c-2.7,6.49-6.14,12.27-6.21,19.57c-0.09,7.95,4.9,18.48,13.27,20.93c0.55,0.16,0.38,0.88-0.13,0.94
					c-1.01,0.11-1.99,0.03-2.93-0.22c-0.15,1.7-1.45,3.04-2.68,4.34c-1.45,1.53-3.01,2.95-4.4,4.54c-0.77,0.89-1.54,1.8-2.16,2.79
					c-0.72,1.15-1.71,2.7-0.81,4.02c0.31,0.45,0.84,0.83,1.4,0.9c0.28,0.04,0.5-0.04,0.72-0.01c1.13-3.28,3.52-6.76,4.82-7.79
					c0.18-0.14,0.48-0.02,0.4,0.24c-0.54,1.85-1.69,3.51-2.51,5.25c-0.92,1.95-3.45,5.93,0.11,6.93c1.72,0.48,2.76-0.97,3.8-2.06
					c1.64-1.62,3.09-3.62,4.31-5.56c0.98-1.56,1.74-3.26,3.06-4.56c0.06-0.06,0.17-0.02,0.17,0.07c0,3.02-2.1,6.16-3.92,8.6
					c0.66-0.03,1.33-0.01,2-0.25c1.75-0.63,2.93-2.08,3.97-3.56c0.87-1.24,1.51-2.57,2.04-3.94c0.7-2.33,0.91-4.77,0.67-7.27
					c-0.28-2.99-0.77-5.83,0.12-8.78c0.92-3.03,2.77-5.69,3.71-8.73C167.45,196.66,167.69,192.94,167.63,189.29z M119.82,70.69
					c-1.68-0.18-2.32-1.94-2.4-3.4c-0.05-0.99,0.26-2.09,1.08-2.42c-0.95-0.38-1.99-0.6-2.84-0.82c-0.13-0.03-0.16-0.19-0.08-0.29
					c1.17-1.26,3.34-0.45,4.55,0.35c1.35,0.89,2.52,2.31,2.43,4.02C122.49,69.56,121.31,70.85,119.82,70.69z M149.77,58.94
					c0.07,0.09-0.02,0.19-0.11,0.15c-4.5-1.92-8.24-1.63-12.57,0.48c-0.06,0.03-0.14-0.03-0.1-0.1
					C139.89,55.19,146.52,55.1,149.77,58.94z M136.88,68.39c-0.08,0.06-0.21-0.04-0.17-0.13c2.01-4.84,8.55-8.3,13.45-6.14
					c0.08,0.04,0.03,0.16-0.04,0.16c-1.16,0.06-2.33,0.21-3.48,0.45c0.61,0.7,0.91,1.8,0.93,2.64c0.05,1.77-0.85,3.25-2.47,3.98
					c-1.56,0.7-3.71,0.72-4.94-0.62c-0.57-0.62-0.89-1.55-0.82-2.4C138.54,67.04,137.77,67.76,136.88,68.39z M156.1,86.89
					c-2.8-1.05-5.51-2.43-8.39-3.26c-2.51-0.73-5.51-0.54-7.79-1.79c-0.07-0.04-0.07-0.14,0-0.18c2.38-1.3,5.78-0.39,8.25,0.32
					c3.17,0.91,5.87,2.19,8.08,4.66C156.33,86.75,156.25,86.95,156.1,86.89z M157.66,79.73c-2.96-0.39-5.82-1.36-8.81-1.52
					c-3.03-0.16-5.92,0.61-8.9,0.97c-0.16,0.02-0.2-0.22-0.08-0.29c4.83-3.03,13.32-3.12,17.91,0.39
					C157.95,79.4,157.93,79.77,157.66,79.73z"/>
				<path class="st9" d="M110.4,187.29c-2.19-5.09-3.33-10.47-3.79-15.97c-2.34,7.18-5.76,14.02-4.08,21.85
					c2.06,9.64,9.39,14.7,17.99,18.17c0.3,0.12,0.29,0.61-0.08,0.6c-1.03-0.04-2.03-0.18-3.02-0.4c-3.91,1.27-8.24,1.28-12.22,2.59
					c-2.45,0.81-5.75,1.58-7.72,3.24c-2.36,1.98-2.36,2.47,0.1,2.57c0.54-0.37,1.08-0.68,1.5-0.91c2.62-1.43,5.63-2.63,8.59-3.07
					c0.1-0.01,0.18,0.12,0.07,0.17c-3.37,1.56-7.05,3.07-9.73,5.75c-1.11,1.1-1.24,1.34,0.3,1.43c0.93,0.05,1.98-0.17,2.88-0.38
					c1.1-0.25,2.09-0.81,3.17-0.9c2.26-2.54,7.81-4.23,9.73-4.61c0.18-0.04,0.31,0.22,0.13,0.31c-2.72,1.48-5.93,2.58-8.12,4.84
					c-0.39,0.4-0.76,0.97-0.53,1.47c0.27,0.57,1.07,0.56,1.69,0.43c3.85-0.77,7.23-2.48,10.89-3.82c3.83-1.41,7.68-2.9,11.27-4.87
					c2.65-1.45,2.81-1.24,3.01-4.06c0.12-1.7-0.33-3.66-0.58-5.39C122.41,203.45,114.71,197.3,110.4,187.29z"/>
				<path class="st9" d="M109.38,135.83c0.01-0.06,0.03-0.12,0.06-0.16c-0.01-0.02-0.02-0.05-0.02-0.07
					c-1.58,0.89-3.46,1.37-4.7,0.3c-0.03-0.03-0.03-0.08,0-0.11c0.69-0.65,1.55-0.69,2.38-1.13c0.86-0.47,1.79-1.15,2.51-1.8
					c1.7-1.54,2.49-3.38,2.7-5.49c-1.65,1.38-3.96,2.43-5.12,2.83c-0.02,0.01-0.05-0.01-0.06-0.03l-0.13-0.22
					c-0.08-0.14-0.06-0.33,0.06-0.45c0.92-0.95,2.04-1.72,3.01-2.62c0.64-0.59,3.38-2.99,1.25-3.3c-1.15-0.17-3.14,1-4.07,1.46
					c-0.98,0.48-1.95,1.15-3.03,1.36c-0.18,0.03-0.29-0.13-0.22-0.29c0.83-1.86,3.28-2.94,5.07-3.64c0.27-0.11,0.57-0.21,0.88-0.31
					c-3.34-2.34-8.34,0.82-10.09,3.56c-1.93,3.03-1.53,6.25,0.37,9.18c1.98,3.05,5.19,5.57,8.16,7.81
					C108.71,140.37,109.05,138.08,109.38,135.83z"/>
				<path class="st9" d="M106.7,119.3c2.32-0.27,4.63,0.21,4.79,2.54c0.81-0.04,1.57,0.17,2.13,0.9c0.89,1.16,0.66,2.31-0.1,3.35
					c1.71,2.39-0.03,5.83-1.78,7.72c-0.32,0.35-0.76,0.73-1.26,1.1c4.62,2.98,8.13,9.25,11.08,14.05
					c3.69-4.48,7.69-8.59,12.21-12.26c-3.74-2.47-6.53-5.77-5.76-9.77c-0.98-1.22-1.34-2.83,0.16-3.63
					c0.34-0.18,0.73-0.24,1.15-0.23c-0.42-2.52,2.93-3.14,5.28-2.88c3.79,0.42,6.95,2.55,10.06,4.75c5.78-6.15,8.29-17.27-1.9-20.63
					c-8.04-2.65-14.25,2.35-17.93,8.99c-0.2,0.36-0.87,0.22-0.82-0.22c0,0,0-0.01,0-0.01c-1.83-7.03-7.77-11.37-15.08-8.68
					c-6.83,2.52-9.11,10.01-6.79,16.46C103.56,120.03,105.11,119.48,106.7,119.3z"/>
				<path class="st9" d="M120.79,51.74c-2.5-0.98-5.36-2.37-6.96,0.87c-1.2,2.43,0.42,4.24,1.04,6.29
					C116.13,56.16,118.26,53.76,120.79,51.74z"/>
				<path class="st9" d="M130.83,74.73c-0.96-1.3-2.49-1.51-3.96-1.47c-1.38,0.04-3.29,0.27-4.47,1.1
					c-2.15,1.51,0.35,3.35,1.72,4.16c2.22,1.31,3.93,0.56,5.66-0.58C130.79,77,131.62,75.79,130.83,74.73z"/>
				<path class="st9" d="M188.15,153.52c3.25,5.53,6.7,10.21,6.24,17.27c-0.37,5.67-3.18,11.3-8.11,14.32
					c-4.35,2.66-10.18,2.93-14.35-0.26c-0.98-0.75-1.79-1.62-2.46-2.57c0.32,4.09,0.56,8.18,0.18,12.25
					c-0.45,4.89-3.05,9.43-4.42,14.08c15.02,1.1,31.31-3.92,37.89-18.67C209.11,176.5,202.76,157.68,188.15,153.52z"/>
				<path d="M145.09,69.35c1.62-0.73,2.52-2.21,2.47-3.98c-0.02-0.84-0.32-1.95-0.93-2.64c1.15-0.24,2.32-0.39,3.48-0.45
					c0.08,0,0.13-0.12,0.04-0.16c-4.9-2.16-11.44,1.3-13.45,6.14c-0.04,0.09,0.09,0.19,0.17,0.13c0.89-0.63,1.66-1.36,2.46-2.06
					c-0.08,0.85,0.25,1.78,0.82,2.4C141.39,70.07,143.53,70.06,145.09,69.35z M144.34,64.03l0.03-0.03
					c0.12-0.13,0.29-0.21,0.47-0.25c0.33-0.09,0.7-0.03,0.97,0.25c0.58,0.58,0.24,1.42-0.45,1.69c-0.01,0-0.02,0.01-0.03,0.01
					c-0.41,0.16-0.91-0.12-1.13-0.46c-0.01-0.01-0.01-0.02-0.02-0.03C143.95,64.84,144.05,64.34,144.34,64.03z"/>
				<path d="M120.14,64.12c-1.21-0.8-3.38-1.61-4.55-0.35c-0.09,0.09-0.05,0.25,0.08,0.29c0.85,0.22,1.89,0.44,2.84,0.82
					c-0.82,0.33-1.13,1.43-1.08,2.42c0.08,1.46,0.71,3.22,2.4,3.4c1.49,0.16,2.67-1.14,2.74-2.56
					C122.66,66.43,121.49,65.01,120.14,64.12z M121.67,66.94c0.01,0.02,0.01,0.03,0.02,0.05c0.22,0.63-0.69,1.16-1.13,0.66
					c-0.01-0.01-0.02-0.03-0.04-0.04C119.77,66.76,121.3,65.88,121.67,66.94z"/>
				<path d="M139.88,78.89c-0.12,0.07-0.09,0.31,0.08,0.29c2.98-0.36,5.86-1.13,8.9-0.97c2.99,0.16,5.85,1.13,8.81,1.52
					c0.27,0.04,0.28-0.33,0.12-0.45C153.2,75.76,144.71,75.86,139.88,78.89z"/>
				<path d="M148.17,81.98c-2.47-0.71-5.87-1.62-8.25-0.32c-0.07,0.04-0.07,0.14,0,0.18c2.28,1.25,5.28,1.07,7.79,1.79
					c2.87,0.83,5.58,2.21,8.39,3.26c0.15,0.06,0.23-0.15,0.14-0.25C154.03,84.17,151.33,82.89,148.17,81.98z"/>
				<path d="M186.23,150.8c-0.95-0.15-1.76,0.73-1.27,1.65c1.97,3.65,4.78,6.69,6.13,10.69c1.73,5.1,1.47,10.87-1.45,15.5
					c-3.4,5.38-10.45,8.53-16.16,4.51c-2.79-1.97-3.99-4.79-4.56-7.86c-0.05-0.73-0.09-1.46-0.12-2.19
					c-0.28-6.32,0.45-12.81,0.41-19.16c0.76-7.15,1.28-14.34,2.34-21.47c1.42-9.57,3.64-18.93,3.66-28.66
					c0.02-8.48-0.57-17.16-2.2-25.49c-0.86-4.43-2.08-9.33-4.16-13.68c3.6-2.55,6.28-7.24,3.49-11.43c-2.39-3.6-6.15-2.87-9.68-1.48
					c-0.02-0.03-0.03-0.06-0.05-0.08c-7.45-7.8-21.22-9.14-31.03-5.74c-3.07,1.06-6.36,2.65-9.28,4.7c-2.72-2.3-7.19-2.71-9.43,0.43
					c-1.71,2.41-1.34,7.61,1.38,9.34c-0.53,1.57-0.76,3.25-0.64,5.02c-1.03,3.47-3.43,8.52-2.26,11.71
					c-1.26-0.12-2.6,0.03-3.82,0.13c-2.63,0.21-5.25,0.71-7.53,2.09c-0.07,0.04-0.05,0.17,0.04,0.16c2.5-0.33,4.94-0.94,7.48-0.99
					c1.72-0.03,3.48,0.5,5.18,0.42c0.41,0.3,0.9,0.55,1.49,0.74c0.03,0.51,0.1,1,0.22,1.48c-4.97,0.84-10.69,1.7-14.27,5.63
					c-0.05,0.06,0.01,0.15,0.09,0.11c4.54-2.39,9.16-3.54,14.2-4.3c0.03,0.3,0.09,0.59,0.15,0.88c-1.79,0.78-3.46,1.92-4.9,3.21
					c-1.51,1.36-3.46,3.2-3.99,5.23c-0.02,0.07,0.06,0.14,0.13,0.1c1.66-1.13,2.91-2.88,4.51-4.13c1.5-1.17,3.1-2.08,4.73-2.99
					c0.81,1.84,2.35,3.31,4.41,3.57c0.67,0.09,1.3,0.07,1.92-0.01c0.01,0.05,0.01,0.1,0.02,0.16c0.08,0.96,0.86,1.88,1.04,2.87
					c0.23,1.21,0.14,2.32-0.11,3.55c-0.58,2.86-2.27,5.47-2.92,8.26c-3.01-1.37-6.44-2.01-8.6-1.65
					c-9.38,1.56-13.79,11.47-10.63,19.92c0.07,0.18,0.17,0.32,0.29,0.43c-1.3,1.07-2.39,2.38-3.09,3.9
					c-3.84,8.33,4.65,14.4,10.71,18.63c-1.11,7.88-2.04,16.04-1.68,24c-4.85,8.3-8.13,18.79-4.86,28.11
					c2.09,5.97,6.74,11.37,12.61,13.86c-2.66,0.08-5.43,0.76-7.81,1.35c-4.2,1.04-9.55,2.87-12.93,5.67
					c-3.58,2.96-0.47,4.1,2.56,3.79c-0.55,0.64-0.91,1.36-0.81,2.12c0.34,2.66,5.32,2.01,8.22,0.62c-0.02,0.21-0.02,0.42,0.02,0.64
					c0.61,3.37,5.66,1.04,7.59,0.46c6.66-1.99,13.27-4.35,19.44-7.59c1.26-0.66,3.53-1.47,4.2-2.9c0.85-1.83-0.39-5.4-1.01-7.81
					c3.14,0.81,6.45,1.29,9.88,1.43c1.75,2.7,3.99,5.03,6.57,6.19c-1.64,2.54-3.47,4.5-5.62,6.74c-1.68,1.75-3.62,3.72-4.57,5.99
					c-1.26,2.97-0.15,5.89,3.23,6.13c-0.49,2.57,0.15,4.69,3.26,4.86c2.58,0.14,4.86-2.2,6.42-4.15c0.03,0.02,0.07,0.03,0.11,0.05
					c3.38,1.01,6.37-1,8.13-3.78c1.35-2.13,2.63-4.35,3.29-6.81c0.77-2.86,0.35-5.5,0.08-8.39c-0.13-1.4-0.02-2.78,0.23-4.15
					c16.89,1.41,35.45-5.05,41.54-22.29C211.55,173.52,203.04,153.45,186.23,150.8z M113.82,52.61c1.6-3.24,4.47-1.85,6.96-0.87
					c-2.53,2.02-4.65,4.42-5.92,7.16C114.24,56.85,112.62,55.03,113.82,52.61z M108.94,104.38c7.31-2.7,13.25,1.64,15.08,8.68
					c0,0,0,0.01,0,0.01c-0.05,0.44,0.62,0.58,0.82,0.22c3.68-6.64,9.89-11.65,17.93-8.99c10.2,3.37,7.68,14.49,1.9,20.63
					c-3.11-2.2-6.27-4.33-10.06-4.75c-2.35-0.26-5.7,0.35-5.28,2.88c-0.42-0.01-0.81,0.05-1.15,0.23c-1.5,0.8-1.14,2.41-0.16,3.63
					c-0.77,4,2.01,7.3,5.76,9.77c-4.52,3.67-8.52,7.78-12.21,12.26c-2.95-4.8-6.46-11.07-11.08-14.05c0.5-0.37,0.94-0.75,1.26-1.1
					c1.75-1.89,3.48-5.33,1.78-7.72c0.75-1.04,0.98-2.19,0.1-3.35c-0.56-0.73-1.33-0.94-2.13-0.9c-0.16-2.33-2.47-2.81-4.79-2.54
					c-1.59,0.19-3.14,0.73-4.54,1.54C99.84,114.39,102.11,106.9,108.94,104.38z M100.22,134.89c-1.9-2.92-2.3-6.15-0.37-9.18
					c1.75-2.74,6.75-5.89,10.09-3.56c-0.31,0.1-0.6,0.2-0.88,0.31c-1.79,0.69-4.24,1.78-5.07,3.64c-0.07,0.16,0.04,0.32,0.22,0.29
					c1.08-0.21,2.05-0.88,3.03-1.36c0.94-0.46,2.92-1.63,4.07-1.46c2.13,0.31-0.61,2.71-1.25,3.3c-0.97,0.9-2.1,1.67-3.01,2.62
					c-0.12,0.12-0.14,0.31-0.06,0.45l0.13,0.22c0.01,0.02,0.04,0.03,0.06,0.03c1.16-0.4,3.47-1.45,5.12-2.83
					c-0.22,2.12-1,3.96-2.7,5.49c-0.72,0.65-1.65,1.34-2.51,1.8c-0.82,0.44-1.69,0.48-2.38,1.13c-0.03,0.03-0.03,0.08,0,0.11
					c1.24,1.07,3.12,0.59,4.7-0.3c0.01,0.02,0.02,0.05,0.02,0.07c-0.03,0.04-0.05,0.1-0.06,0.16c-0.32,2.25-0.67,4.55-1,6.87
					C105.41,140.46,102.19,137.94,100.22,134.89z M129.43,215.79c-3.58,1.96-7.44,3.46-11.27,4.87c-3.65,1.34-7.04,3.04-10.89,3.82
					c-0.62,0.12-1.42,0.14-1.69-0.43c-0.24-0.5,0.14-1.07,0.53-1.47c2.19-2.26,5.4-3.37,8.12-4.84c0.18-0.1,0.05-0.35-0.13-0.31
					c-1.93,0.38-7.48,2.07-9.73,4.61c-1.08,0.08-2.07,0.64-3.17,0.9c-0.9,0.21-1.95,0.43-2.88,0.38c-1.54-0.09-1.41-0.32-0.3-1.43
					c2.68-2.67,6.37-4.18,9.73-5.75c0.1-0.05,0.02-0.19-0.07-0.17c-2.96,0.44-5.97,1.64-8.59,3.07c-0.42,0.23-0.96,0.54-1.5,0.91
					c-2.46-0.11-2.46-0.59-0.1-2.57c1.97-1.65,5.27-2.43,7.72-3.24c3.98-1.31,8.31-1.33,12.22-2.59c0.98,0.22,1.99,0.36,3.02,0.4
					c0.37,0.02,0.38-0.48,0.08-0.6c-8.6-3.46-15.93-8.53-17.99-18.17c-1.68-7.83,1.73-14.67,4.08-21.85
					c0.46,5.5,1.6,10.88,3.79,15.97c4.3,10.01,12,16.16,21.45,19.05c0.25,1.73,0.71,3.68,0.58,5.39
					C132.23,214.54,132.08,214.33,129.43,215.79z M162.65,208.9c-0.89,2.94-0.4,5.79-0.12,8.78c0.24,2.5,0.03,4.94-0.67,7.27
					c-0.53,1.38-1.17,2.7-2.04,3.94c-1.03,1.48-2.22,2.93-3.97,3.56c-0.67,0.24-1.34,0.22-2,0.25c1.83-2.44,3.92-5.58,3.92-8.6
					c0-0.09-0.11-0.13-0.17-0.07c-1.33,1.3-2.08,3-3.06,4.56c-1.22,1.94-2.67,3.94-4.31,5.56c-1.04,1.09-2.07,2.54-3.8,2.06
					c-3.56-1-1.03-4.98-0.11-6.93c0.82-1.74,1.97-3.4,2.51-5.25c0.07-0.25-0.23-0.38-0.4-0.24c-1.3,1.03-3.69,4.51-4.82,7.79
					c-0.22-0.03-0.44,0.05-0.72,0.01c-0.55-0.07-1.09-0.45-1.4-0.9c-0.91-1.33,0.08-2.87,0.81-4.02c0.63-0.99,1.39-1.91,2.16-2.79
					c1.38-1.59,2.95-3.01,4.4-4.54c1.23-1.3,2.54-2.64,2.68-4.34c0.94,0.24,1.92,0.33,2.93,0.22c0.51-0.06,0.68-0.77,0.13-0.94
					c-8.37-2.46-13.36-12.99-13.27-20.93c0.08-7.31,3.51-13.08,6.21-19.57c0.03-0.07-0.07-0.12-0.12-0.07
					c-5.79,6.34-9.09,16.14-7.84,24.65c0.35,2.38,1.35,5.33,2.85,8.1c-7.35-0.92-14.76-2.72-20.63-7.45
					c-5.64-4.54-9.24-11.09-11.16-17.99c-2.05-7.38-2.04-15.02-1.67-22.61c0.19-3.92,0.59-7.79,1.07-11.69
					c0.34-2.78,1.02-5.7,0.72-8.49c1,1.52,2.21,2.91,3.31,4.4c2.19,2.95,4.24,5.99,6.28,9.04c0.53,0.8,1.58,0.77,2.12,0
					c3.7-5.3,8.17-9.81,13.2-13.82c3.29,1.81,6.94,3.02,9.46,3.56c9.16,1.96,18.54-1.18,21.15-10.93c0.11-0.42-0.47-0.67-0.7-0.29
					c-2.86,4.73-4.9,8.69-10.98,9.66c-3.96,0.63-8.19,0.09-11.98-1.18c-3.76-1.26-7.46-3.42-10.37-6.12
					c-0.52-0.49-3.55-3.2-2.38-4.11c-0.15,0.12,4.51,2.29,5.1,2.49c0.18,0.06,0.25-0.19,0.12-0.29c-1.57-1.19-3.23-2.26-4.85-3.37
					c-0.32-0.33-0.65-0.65-0.86-1.03c-0.35-0.65-0.18-1.32,0.53-1.43c0.36-0.05,1.3,0.39,1.61,0.5c2.02,0.71,4.12,1.6,6.05,2.52
					c0.18,0.08,0.37-0.13,0.22-0.28c-1.41-1.39-2.75-2.47-4.6-3.24c-0.52-0.22-1.2-0.54-1.93-0.8c-0.15-4.64,10.39,1.51,11.99,2.56
					c2.66,1.75,4.97,2.85,8.18,3.29c0.09,0.01,0.18-0.12,0.07-0.17c-1.89-0.82-3.67-2-5.43-3.24c1.54-1.52,2.92-2.98,3.98-4.56
					c1.02-1.11,1.93-2.32,2.8-3.5c1.91-2.6,3.93-5.41,4.66-8.6c0.05-0.2-0.19-0.34-0.34-0.2c-1.95,1.78-3.41,4.07-4.93,6.24
					c0.07-0.89,0.07-1.84-0.05-2.86c-0.53-4.6-2.82-7.85-7.03-9.83c-7.12-3.35-16.31-0.69-19.82,6.04
					c-0.59-1.76-2.18-3.28-4.15-4.46c2.08-2.45,3.24-6.72,3.67-9.59c0.21-1.4,0.19-2.84-0.19-4.15c6.2,3.33,15.52,3.12,20.77-1.15
					c0.06-0.05,0-0.16-0.08-0.13c-6.29,2.44-16.12,3.13-21.73-1.35c1.12-0.53,2.04-1.35,2.62-2.37c0.06,0.07,0.1,0.15,0.16,0.22
					c0.62,0.69,1.28,0.85,2.14,1.07c1.58,0.39,3.06,0.56,4.64,1.06c3.46,1.09,9.87,0.62,10.94-3.73c0.05-0.2-0.15-0.47-0.37-0.37
					c-3.27,1.36-5,3.33-8.93,2.32c-1.4-0.36-2.84-0.85-4.22-1.28c-2.07-0.64-3.04-1.39-3.57-3.35c0.29-0.07,0.59-0.16,0.89-0.29
					c1.95-0.88,4.37-2.64,4.73-4.91c0.35-2.15-1.34-3.84-3.29-4.37c-2.6-0.71-9.4,0.17-9.77,3.42c-0.49,1.65,0.62,3.39,1.95,4.48
					c1.34,1.1,2.77,1.84,4.31,1.84c-0.22,1.1-0.42,2.24-1.03,3.17c-1.04,1.57-3.67,1.68-5.34,1.23c-1.49-0.4-2.79-1.9-3.18-3.39
					c-0.06-0.23-0.1-0.46-0.12-0.7c0.08-1.08,0.24-2.22,0.35-3.13c0.08-0.66-0.6-1.13-1.17-1.17c-2.37-0.15-2.4-2.73-2.19-4.54
					c0.15-1.31,0.44-2.6,0.72-3.89c0.4-1.84,0.9-3.6,1.11-5.48c0.16-1.43,0.55-2.73,1.13-3.93c1.1-0.51,2.13-1.1,3.42-1.16
					c0.85-0.04,1.73,0.08,2.47,0.51c0.55,0.32,0.69,0.67,1.29,0.73c0.02,0,0.04-0.02,0.05-0.03c0.64-1.77-3.01-3-5.74-2.44
					c0.75-0.98,1.62-1.9,2.58-2.76c3.82-3.42,8.31-6.23,13.27-7.65c8.94-2.57,20.57-1.22,27.33,5.57c-1.04,0.46-2.04,0.92-2.93,1.28
					c-0.37,0.15-0.31,0.65,0.09,0.69c3.57,0.36,6.87-2.74,10.39-1.74c5.52,1.57,2.78,7.73-0.4,10.23c-0.25-0.46-0.52-0.91-0.8-1.35
					c-0.5-1.21-1.05-2.39-1.73-3.51c1.3-0.95,2.82-2.25,4.26-2.09c0.06,0.01,0.08-0.07,0.04-0.11c-1.52-1.71-4.57,0.3-6.11,1.1
					c-0.44,0.23-0.62,0.9-0.34,1.31c0.16,0.24,0.33,0.47,0.49,0.71c3.56,7.62,6.66,14.51,7.95,23.02
					c1.26,8.29,1.79,16.94,1.41,25.32c-0.71,15.56-5.62,30.68-6.23,46.22c-1.91,11.57,0.53,24.25,0.7,35.69
					c0.05,3.66-0.19,7.37-1.27,10.88C165.42,203.21,163.57,205.86,162.65,208.9z M124.13,78.51c-1.37-0.81-3.87-2.65-1.72-4.16
					c1.18-0.83,3.08-1.05,4.47-1.1c1.47-0.04,3,0.17,3.96,1.47c0.79,1.07-0.04,2.28-1.05,3.2
					C128.05,79.07,126.34,79.82,124.13,78.51z M203.12,189.95c-6.58,14.75-22.87,19.77-37.89,18.67c1.38-4.65,3.97-9.19,4.42-14.08
					c0.37-4.07,0.14-8.17-0.18-12.25c0.67,0.95,1.48,1.82,2.46,2.57c4.17,3.19,9.99,2.92,14.35,0.26c4.93-3.02,7.74-8.65,8.11-14.32
					c0.46-7.06-2.99-11.74-6.24-17.27C202.76,157.68,209.11,176.5,203.12,189.95z"/>
				<path class="st1" d="M144.21,65.25c0.21,0.34,0.71,0.62,1.13,0.46c0.01,0,0.02-0.01,0.03-0.01c0.69-0.27,1.03-1.11,0.45-1.69
					c-0.28-0.28-0.65-0.34-0.97-0.25c-0.18,0.04-0.34,0.11-0.47,0.25l-0.03,0.03c-0.29,0.31-0.39,0.81-0.15,1.19
					C144.19,65.23,144.2,65.24,144.21,65.25z"/>
				<path class="st1" d="M120.52,67.6c0.01,0.01,0.02,0.03,0.04,0.04c0.44,0.5,1.35-0.03,1.13-0.66c-0.01-0.02-0.01-0.03-0.02-0.05
					C121.3,65.88,119.77,66.76,120.52,67.6z"/>
				<path d="M137.09,59.57c4.34-2.11,8.07-2.4,12.57-0.48c0.1,0.04,0.19-0.06,0.11-0.15c-3.26-3.84-9.88-3.75-12.78,0.53
					C136.95,59.54,137.03,59.6,137.09,59.57z"/>
			</g>
		</g>
		<g>
			<g>
				<g>
					<path class="st3" d="M76.5,31.97h2.22v2.49l-1.2-0.02l0.71,1.71c0.18,0.42,0.27,0.55,0.6,0.55c0.27,0,0.69-0.07,0.98-0.11
						l-0.04,2.86l-5-0.04l-2.89,0.04l-0.04-2.86l0.53,0.07c0.6,0.07,0.89,0.11,1.31,0.11l-1.02-2.44c-0.6-0.02-1.09-0.02-1.29-0.02
						c-0.42,0-2.24,0.02-4.02,0.07l-1.02,2.4c0.22,0,0.64-0.04,1.27-0.09l0.53-0.04l-0.04,2.82l-2.93-0.04l-3.06,0.04l-0.04-2.86
						c0.44,0.09,0.73,0.13,0.95,0.13c0.4,0,0.53-0.18,0.69-0.56l0.73-1.73l-1.27,0.02v-3.15c0,0,1.11,0.09,2.53,0.22l1.64-3.82
						c0.98-2.29,1-4.35,1-4.71l4.6,0.44L76.5,31.97z M71.38,31.97h0.31l-1.6-3.86l-1.6,3.69C69.64,31.91,70.73,31.97,71.38,31.97z"
						/>
				</g>
			</g>
			<g>
				<g>
					<path class="st3" d="M206.29,251.49h-2.22V249l1.2,0.02l-0.71-1.71c-0.18-0.42-0.27-0.55-0.6-0.55c-0.27,0-0.69,0.07-0.98,0.11
						l0.04-2.86l5,0.04l2.89-0.04l0.04,2.86l-0.53-0.07c-0.6-0.07-0.89-0.11-1.31-0.11l1.02,2.44c0.6,0.02,1.09,0.02,1.29,0.02
						c0.42,0,2.24-0.02,4.02-0.07l1.02-2.4c-0.22,0-0.64,0.04-1.27,0.09l-0.53,0.04l0.04-2.82l2.93,0.04l3.06-0.04l0.04,2.86
						c-0.44-0.09-0.73-0.13-0.95-0.13c-0.4,0-0.53,0.18-0.69,0.56l-0.73,1.73l1.27-0.02v3.15c0,0-1.11-0.09-2.53-0.22l-1.64,3.82
						c-0.98,2.29-1,4.35-1,4.71l-4.6-0.44L206.29,251.49z M211.42,251.49h-0.31l1.6,3.86l1.6-3.69
						C213.16,251.56,212.07,251.49,211.42,251.49z"/>
				</g>
			</g>
			<g>
				<path class="st3" d="M70.54,60.52c-0.05-0.46-0.21-0.88-0.4-1.28c-0.46-1.03-1.02-2-1.84-2.79c-0.42-0.41-0.82-0.85-1.18-1.33
					c-1.18-1.56-0.62-3.6,1.2-4.3c1-0.38,2-0.5,2.96,0.16c0.27,0.19,0.53,0.39,0.69,0.68c0.08,0.15,0.15,0.32,0.02,0.46
					c-0.12,0.15-0.28,0.05-0.42,0c-0.09-0.03-0.19-0.07-0.37-0.14c0.14,0.2,0.24,0.32,0.31,0.45c0.09,0.16,0.19,0.32,0.24,0.49
					c0.08,0.24-0.02,0.34-0.26,0.26c-0.21-0.07-0.42-0.16-0.66-0.26c0.01,0.2,0.17,0.31,0.22,0.47c0.02,0.07,0.07,0.14,0.03,0.2
					c-0.06,0.09-0.15,0.05-0.22,0.02c-0.32-0.11-0.63-0.23-0.95-0.35c-0.63-0.23-1.19,0.05-1.38,0.7c-0.15,0.51-0.06,1,0.19,1.45
					c0.64,1.16,1.48,2.18,2.29,3.21c0.14,0.18,0.24,0.06,0.35-0.03c1.2-0.94,2.38-1.9,3.44-2.99c0.21-0.21,0.35-0.26,0.6-0.05
					c0.42,0.35,0.96,0.37,1.48,0.42c-0.78-0.3-1.35-0.87-1.86-1.5c-0.24-0.29-0.53-0.54-0.83-0.77c-0.35-0.28-0.73-0.39-1.17-0.25
					c-0.11,0.03-0.26,0.13-0.33,0c-0.07-0.12,0.07-0.22,0.15-0.31c0.11-0.13,0.24-0.25,0.38-0.4c-0.24-0.02-0.42,0.11-0.61,0.15
					c-0.08,0.02-0.16,0.05-0.23-0.01c-0.08-0.08-0.03-0.17,0-0.26c0.13-0.36,0.39-0.62,0.73-0.84c-0.14,0-0.29,0-0.43,0
					c-0.07,0-0.15,0.02-0.19-0.06c-0.05-0.09,0.03-0.15,0.08-0.21c0.14-0.14,0.3-0.24,0.49-0.31c0.81-0.32,1.61-0.13,2.4,0.05
					c0.48,0.11,0.93,0.3,1.39,0.46c0.47,0.16,0.66,0.09,0.92-0.33c0.46-0.73,0.81-1.51,0.98-2.36c0.09-0.47,0.04-0.58-0.4-0.73
					c-0.05-0.02-0.1-0.03-0.15-0.04c-0.11-0.03-0.19-0.07-0.16-0.21c0.03-0.15,0.13-0.16,0.26-0.14c0.27,0.05,0.53,0.15,0.79,0.23
					c0.11,0.04,0.25,0.1,0.3-0.07c0.05-0.16-0.05-0.24-0.2-0.29c-0.31-0.11-0.64-0.15-0.96-0.16c-0.14-0.01-0.28-0.02-0.28-0.2
					c0-0.2,0.16-0.18,0.29-0.19c0.33-0.02,0.65,0.01,0.98,0.05c0.12,0.02,0.29,0.04,0.3-0.16c0.01-0.19-0.15-0.15-0.27-0.17
					c-0.51-0.09-1.02-0.08-1.51,0.1c-0.14,0.05-0.26,0-0.38-0.06c-0.25-0.13-0.46-0.31-0.67-0.48c-0.53-0.41-1.09-0.4-1.67-0.11
					c-0.05,0.03-0.11,0.06-0.16,0.1c-0.5,0.44-1.03,0.64-1.7,0.38c-0.26-0.1-0.57-0.06-0.85-0.01c-0.11,0.02-0.24,0.02-0.22,0.19
					c0.02,0.17,0.16,0.17,0.28,0.16c0.07,0,0.14-0.02,0.21-0.03c0.27-0.03,0.53-0.03,0.79,0.02c0.11,0.02,0.2,0.04,0.18,0.19
					c-0.01,0.13-0.08,0.18-0.2,0.17c-0.3-0.02-0.58,0.08-0.88,0.13c-0.1,0.02-0.22,0.04-0.19,0.18c0.03,0.14,0.13,0.21,0.27,0.17
					c0.22-0.06,0.43-0.13,0.65-0.18c0.1-0.03,0.21-0.03,0.26,0.1c0.05,0.14-0.03,0.21-0.15,0.25c-0.14,0.05-0.28,0.12-0.42,0.17
					c-0.21,0.08-0.22,0.2-0.11,0.38c0.3,0.48,0.72,0.83,1.18,1.14c0.09,0.06,0.29,0.1,0.23,0.23c-0.05,0.13-0.22,0.02-0.33-0.01
					c-1.39-0.3-2.34-1.46-2.41-2.94c-0.03-0.57,0.03-1.12,0.18-1.67c0.06-0.2,0.04-0.34-0.09-0.51c-0.23-0.31-0.28-0.65-0.13-1.01
					c0.15-0.34,0.5-0.56,0.87-0.48c0.22,0.05,0.36-0.02,0.52-0.15c1.53-1.23,3.83-1.46,5.5-0.55c0.34,0.19,0.65,0.42,0.93,0.69
					c0.09,0.09,0.16,0.17,0.31,0.14c0.42-0.08,0.75,0.08,0.94,0.45c0.2,0.38,0.15,0.77-0.15,1.08c-0.2,0.2-0.21,0.37-0.13,0.62
					c0.38,1.15,0.71,2.32,0.91,3.52c0.39,2.33,0.34,4.62-0.78,6.77c-0.59,1.12-1.46,2.01-2.4,2.84c-1.76,1.57-3.55,3.11-5.31,4.67
					c-0.52,0.46-1.01,0.95-1.51,1.43c-0.15,0.15-0.27,0.14-0.42,0.01c-2.45-2.11-4.93-4.2-7.35-6.34c-1.4-1.24-2.66-2.64-3.52-4.33
					c-1.22-2.4-1.39-4.86-0.21-7.31c0.98-2.02,2.64-3.2,4.9-3.46c1.68-0.2,3.2,0.22,4.56,1.2c0.86,0.61,1.34,1.47,1.5,2.5
					c0.02,0.1,0.01,0.2,0.01,0.31c0,0.15-0.06,0.25-0.21,0.3c-0.14,0.05-0.23-0.03-0.32-0.12c-0.51-0.57-1.14-0.95-1.9-1.09
					c-1.43-0.26-2.67,0.41-3.25,1.75c-0.73,1.69-0.49,3.28,0.42,4.83c0.67,1.15,1.51,2.18,2.37,3.19
					C68.78,57.76,69.81,59.04,70.54,60.52z M73.87,46.05c0.22-0.01,0.38-0.11,0.39-0.34c0.01-0.22-0.1-0.37-0.34-0.38
					c-0.24-0.01-0.39,0.14-0.41,0.36C73.49,45.91,73.65,46.03,73.87,46.05z M77.68,46.05c0.21-0.01,0.35-0.13,0.35-0.35
					c-0.01-0.22-0.15-0.35-0.37-0.35c-0.21,0-0.35,0.14-0.35,0.34C77.31,45.9,77.42,46.04,77.68,46.05z"/>
				<path class="st3" d="M76.91,48.48c0.09,0,0.16-0.01,0.22,0c0.09,0.01,0.23-0.05,0.27,0.07c0.04,0.15-0.09,0.22-0.2,0.27
					c-0.4,0.2-0.81,0.22-1.19-0.03c-0.16-0.1-0.27-0.11-0.44-0.02c-0.36,0.2-0.74,0.22-1.11,0.03c-0.09-0.05-0.19-0.11-0.17-0.22
					c0.02-0.14,0.16-0.1,0.25-0.1c0.29,0.01,0.57,0.01,0.83-0.16c0.26-0.17,0.28-0.22,0.04-0.42c-0.19-0.17-0.39-0.33-0.51-0.56
					c-0.2-0.35-0.13-0.5,0.26-0.6c0.42-0.11,0.83-0.07,1.24,0.03c0.27,0.07,0.33,0.19,0.2,0.45c-0.12,0.25-0.3,0.46-0.49,0.66
					c-0.17,0.18-0.12,0.29,0.06,0.41C76.4,48.45,76.66,48.52,76.91,48.48z"/>
			</g>
			<g>
				<path class="st3" d="M212.41,223.27c0.05,0.46,0.21,0.88,0.4,1.28c0.46,1.03,1.02,2,1.84,2.79c0.42,0.41,0.82,0.85,1.18,1.33
					c1.18,1.56,0.62,3.6-1.2,4.3c-1,0.38-2,0.5-2.96-0.16c-0.27-0.19-0.53-0.39-0.69-0.68c-0.08-0.15-0.15-0.32-0.02-0.46
					c0.12-0.15,0.28-0.05,0.42,0c0.09,0.03,0.19,0.07,0.37,0.14c-0.14-0.2-0.24-0.32-0.31-0.45c-0.09-0.16-0.19-0.32-0.24-0.49
					c-0.08-0.24,0.02-0.34,0.26-0.26c0.21,0.07,0.42,0.16,0.66,0.26c-0.01-0.2-0.17-0.31-0.22-0.47c-0.02-0.07-0.07-0.14-0.03-0.2
					c0.06-0.09,0.15-0.05,0.22-0.02c0.32,0.11,0.63,0.23,0.95,0.35c0.63,0.23,1.19-0.05,1.38-0.7c0.15-0.51,0.06-1-0.19-1.45
					c-0.64-1.16-1.48-2.18-2.29-3.21c-0.14-0.18-0.24-0.06-0.35,0.03c-1.2,0.94-2.38,1.9-3.44,2.99c-0.21,0.21-0.35,0.26-0.6,0.05
					c-0.42-0.35-0.96-0.37-1.48-0.42c0.78,0.3,1.35,0.87,1.86,1.5c0.24,0.29,0.53,0.54,0.83,0.77c0.35,0.28,0.73,0.39,1.17,0.25
					c0.11-0.03,0.26-0.13,0.33,0c0.07,0.12-0.07,0.22-0.15,0.31c-0.11,0.13-0.24,0.25-0.38,0.4c0.24,0.02,0.42-0.11,0.61-0.15
					c0.08-0.02,0.16-0.05,0.23,0.01c0.08,0.08,0.03,0.17,0,0.26c-0.13,0.36-0.39,0.62-0.73,0.84c0.14,0,0.29,0,0.43,0
					c0.07,0,0.15-0.02,0.19,0.06c0.05,0.09-0.03,0.15-0.08,0.21c-0.14,0.14-0.3,0.24-0.49,0.31c-0.81,0.32-1.61,0.13-2.4-0.05
					c-0.48-0.11-0.93-0.3-1.39-0.46c-0.47-0.16-0.66-0.09-0.92,0.33c-0.46,0.73-0.81,1.51-0.98,2.36c-0.09,0.47-0.04,0.58,0.4,0.73
					c0.05,0.02,0.1,0.03,0.15,0.04c0.11,0.03,0.19,0.07,0.16,0.21c-0.03,0.15-0.13,0.16-0.26,0.14c-0.27-0.05-0.53-0.15-0.79-0.23
					c-0.11-0.04-0.25-0.1-0.3,0.07c-0.05,0.16,0.05,0.24,0.2,0.29c0.31,0.11,0.64,0.15,0.96,0.16c0.14,0.01,0.28,0.02,0.28,0.2
					c0,0.2-0.16,0.18-0.29,0.19c-0.33,0.02-0.65-0.01-0.98-0.05c-0.12-0.02-0.29-0.04-0.3,0.16c-0.01,0.19,0.15,0.15,0.27,0.17
					c0.51,0.09,1.02,0.08,1.51-0.1c0.14-0.05,0.26,0,0.38,0.06c0.25,0.13,0.46,0.31,0.67,0.48c0.53,0.41,1.09,0.4,1.67,0.11
					c0.05-0.03,0.11-0.06,0.16-0.1c0.5-0.44,1.03-0.64,1.7-0.38c0.26,0.1,0.57,0.06,0.85,0.01c0.11-0.02,0.24-0.02,0.22-0.19
					c-0.02-0.17-0.16-0.17-0.28-0.16c-0.07,0-0.14,0.02-0.21,0.03c-0.27,0.03-0.53,0.03-0.79-0.02c-0.11-0.02-0.2-0.04-0.18-0.19
					c0.01-0.13,0.08-0.18,0.2-0.17c0.3,0.02,0.58-0.08,0.88-0.13c0.1-0.02,0.22-0.04,0.19-0.18c-0.03-0.14-0.13-0.21-0.27-0.17
					c-0.22,0.06-0.43,0.13-0.65,0.18c-0.1,0.03-0.21,0.03-0.26-0.1c-0.05-0.14,0.03-0.21,0.15-0.25c0.14-0.05,0.28-0.12,0.42-0.17
					c0.21-0.08,0.22-0.2,0.11-0.38c-0.3-0.48-0.72-0.83-1.18-1.14c-0.09-0.06-0.29-0.1-0.23-0.23c0.05-0.13,0.22-0.02,0.33,0.01
					c1.39,0.3,2.34,1.46,2.41,2.94c0.03,0.57-0.03,1.12-0.18,1.67c-0.06,0.2-0.04,0.34,0.09,0.51c0.23,0.31,0.28,0.65,0.13,1.01
					c-0.15,0.34-0.5,0.56-0.87,0.48c-0.22-0.05-0.36,0.02-0.52,0.15c-1.53,1.23-3.83,1.46-5.5,0.55c-0.34-0.19-0.65-0.42-0.93-0.69
					c-0.09-0.09-0.16-0.17-0.31-0.14c-0.42,0.08-0.75-0.08-0.94-0.45c-0.2-0.38-0.15-0.77,0.15-1.08c0.2-0.2,0.21-0.37,0.13-0.62
					c-0.38-1.15-0.71-2.32-0.91-3.52c-0.39-2.33-0.34-4.62,0.78-6.77c0.59-1.12,1.46-2.01,2.4-2.84c1.76-1.57,3.55-3.11,5.31-4.67
					c0.52-0.46,1.01-0.95,1.51-1.43c0.15-0.15,0.27-0.14,0.42-0.01c2.45,2.11,4.93,4.2,7.35,6.34c1.4,1.24,2.66,2.64,3.52,4.33
					c1.22,2.4,1.39,4.86,0.21,7.31c-0.98,2.02-2.64,3.2-4.9,3.46c-1.68,0.2-3.2-0.22-4.56-1.2c-0.86-0.61-1.34-1.47-1.5-2.5
					c-0.02-0.1-0.01-0.2-0.01-0.31c0-0.15,0.06-0.25,0.21-0.3c0.14-0.05,0.23,0.03,0.32,0.12c0.51,0.57,1.14,0.95,1.9,1.09
					c1.43,0.26,2.67-0.41,3.25-1.75c0.73-1.69,0.49-3.28-0.42-4.83c-0.67-1.15-1.51-2.18-2.37-3.19
					C214.18,226.04,213.15,224.76,212.41,223.27z M209.09,237.74c-0.22,0.01-0.38,0.11-0.39,0.34c-0.01,0.22,0.1,0.37,0.34,0.38
					c0.24,0.01,0.39-0.14,0.41-0.36C209.46,237.88,209.31,237.76,209.09,237.74z M205.28,237.75c-0.21,0.01-0.35,0.13-0.35,0.35
					c0.01,0.22,0.15,0.35,0.37,0.35c0.21,0,0.35-0.14,0.35-0.34C205.65,237.89,205.53,237.75,205.28,237.75z"/>
				<path class="st3" d="M206.05,235.31c-0.09,0-0.16,0.01-0.22,0c-0.09-0.01-0.23,0.05-0.27-0.07c-0.04-0.15,0.09-0.22,0.2-0.27
					c0.4-0.2,0.81-0.22,1.19,0.03c0.16,0.1,0.27,0.11,0.44,0.02c0.36-0.2,0.74-0.22,1.11-0.03c0.09,0.05,0.19,0.11,0.17,0.22
					c-0.02,0.14-0.16,0.1-0.25,0.1c-0.29-0.01-0.57-0.01-0.83,0.16c-0.26,0.17-0.28,0.22-0.04,0.42c0.19,0.17,0.39,0.33,0.51,0.56
					c0.2,0.35,0.13,0.5-0.26,0.6c-0.42,0.11-0.83,0.07-1.24-0.03c-0.27-0.07-0.33-0.19-0.2-0.45c0.12-0.25,0.3-0.46,0.49-0.66
					c0.17-0.18,0.12-0.29-0.06-0.41C206.56,235.35,206.3,235.28,206.05,235.31z"/>
			</g>
		</g>
	</g>
</g>
</svg>
