<?xml version="1.0" encoding="utf-8"?>
<!-- Generator: Adobe Illustrator 24.0.1, SVG Export Plug-In . SVG Version: 6.00 Build 0)  -->
<svg version="1.1" xmlns="http://www.w3.org/2000/svg" xmlns:xlink="http://www.w3.org/1999/xlink" x="0px" y="0px"
	 viewBox="0 0 283.46 283.46" style="enable-background:new 0 0 283.46 283.46;" xml:space="preserve">
<style type="text/css">
	.st0{fill:#DBDDD9;}
	.st1{fill:#FFFFFF;}
	.st2{fill:none;stroke:#000000;stroke-width:3;stroke-miterlimit:10;}
	.st3{fill:#E30613;}
	.st4{fill:#894F28;}
	.st5{fill:#3E2215;}
	.st6{fill:#DEB27E;}
	.st7{opacity:0.25;fill:#312783;}
	.st8{opacity:0.53;fill:#F5F0DA;}
	.st9{fill:none;}
	.st10{fill:#EB941E;}
	.st11{fill:#1F201D;}
	.st12{fill:#E2E0DB;}
	.st13{fill:#B7B6B0;}
	.st14{fill:#2FAC66;}
	.st15{fill:#312783;}
	.st16{fill:#E94D2A;}
	.st17{fill:#F5EA61;}
	.st18{fill:#1D71B8;}
	.st19{fill:#2D3B49;}
</style>
<g id="bg">
</g>
<g id="CUT">
</g>
<g id="BACK">
</g>
<g id="ILLUSTRATION">
</g>
<g id="SYMBOLS">
</g>
<g id="CARDS">
	<g>
		<path class="st1" d="M217.23,267.73h-151c-8.01,0-14.5-6.49-14.5-14.5v-223c0-8.01,6.49-14.5,14.5-14.5h151
			c8.01,0,14.5,6.49,14.5,14.5v223C231.73,261.24,225.24,267.73,217.23,267.73z"/>
		<g>
			<g>
				<g>
					<path class="st11" d="M132.74,67.98c0.57,2.69,0.32,5.36-0.09,8.03c-0.2,1.3-0.48,2.59-0.74,3.98
						c2.37-0.85,4.01,0.27,5.57,2.04c0-1.22-0.02-2.23,0-3.23c0.09-3.25,0.85-6.31,2.6-9.1c3.17-5.06,7.74-7.38,13.64-6.68
						c5.04,0.6,8.46,3.52,10.42,8.16c1.55,3.68,1.73,7.52,1.35,11.44c-0.41,4.15-1.85,7.88-4.25,11.27
						c-1.42,2.01-3.22,3.69-4.82,5.55c-3.08,3.6-3.81,7.55-1.86,11.95c0.3,0.68,0.56,0.73,1.17,0.39c2.35-1.3,4.71-2.59,7.11-3.8
						c2.59-1.32,5.32-2.25,8.22-2.65c1.32-0.18,2.65,0.01,4-0.16c-0.38-1.39-0.81-2.73-0.94-4.14c-0.28-3.18,0.33-6.3,0.55-9.44
						c0.43-6.14,0.03-12.17-2.06-18c-1.43-3.99-3.77-7.34-7.49-9.56c-5.96-3.57-12.54-4.95-19.36-5.47
						c-2.53-0.19-5.07-0.15-7.6,0.01c-2.19,0.14-4.37,0.38-6.47,1.12c-1.83,0.65-3.43,1.65-4.88,3.07
						C130.28,63.06,132.03,64.66,132.74,67.98z"/>
					<path class="st14" d="M82.49,110.13c1.93,4.51,6.32,7.48,9.92,6.75C91.06,112.83,86.05,109.97,82.49,110.13z"/>
					<path class="st1" d="M126.28,76.71c2.03,0,2.03-3.15,0-3.15C124.26,73.56,124.25,76.71,126.28,76.71z"/>
					<path class="st14" d="M105.15,110.55c0.15-0.42-0.01-0.52-0.35-0.42c-0.65,0.19-1.29,0.39-1.93,0.63
						c-3.12,1.16-5.56,3.11-7.13,6.23c0.93-0.12,1.74-0.2,2.54-0.34C101.81,116.02,103.97,113.83,105.15,110.55z"/>
					<path class="st1" d="M119.16,87.72c3.51-2.22,7.2-4.16,10.56-6.61c0.19-0.14,0.34-0.28,0.41-0.56
						c0.89-3.68,1.63-7.38,1.27-11.19c-0.14-1.48-0.63-2.88-1.96-3.78c-1.82-1.23-4.85-0.54-6.13,1.38c-0.6,0.9-1.1,1.87-1.55,2.86
						c-1.5,3.34-2.38,6.84-2.64,10.49c-0.18,2.47-0.45,4.94-0.14,7.42C119.05,87.73,119.12,87.75,119.16,87.72z M123.35,70.59
						c0.61-1.17,1.57-1.81,2.6-1.9c1.41,0.01,2.67,1.27,2.67,2.38c0,0.14-0.02,0.27-0.15,0.35c-0.14,0.08-0.26,0.03-0.37-0.07
						c-0.06-0.06-0.12-0.11-0.18-0.17c-1.56-1.31-2.53-1.36-4.12-0.18c-0.19,0.14-0.38,0.46-0.61,0.27
						C122.91,71.05,123.24,70.8,123.35,70.59z M122.41,77.85c-0.05-1.45,0.31-2.73,1.11-3.88c0.35-0.5,0.79-0.9,1.32-1.19
						c1.56-0.85,2.87-0.38,3.54,1.28c0.92,2.26,0.32,5.54-1.29,7.07c-1.6,1.53-3.65,1.01-4.38-1.08
						C122.46,79.32,122.38,78.57,122.41,77.85z"/>
					<path class="st11" d="M149.95,155.99c-2.67,3.95-4.36,8.19-3.63,13.07c0.29,1.95,1.12,3.68,2.57,5.05
						c0.95,0.9,1.56,0.89,2.56,0.04c1.08-0.93,1.95-2.05,2.78-3.2c3-4.19,6.78-7.37,11.61-9.28c2.98-1.17,5.79-2.7,8.56-4.31
						c0.72-0.42,0.81-0.92,0.68-1.59c-0.31-1.7-0.59-3.41-0.96-5.11c-1.25-5.81-3.34-11.25-7.13-15.93
						c-0.93-1.15-1.9-2.28-3.14-3.31c-0.07,1.18-0.16,2.23-0.19,3.28c-0.05,1.55-0.3,3.07-0.77,4.55c-1.26,3.93-3.64,7.15-6.62,9.93
						C153.99,151.29,151.71,153.39,149.95,155.99z"/>
					<path class="st1" d="M162.8,201.21c2.79-4.91,3.76-10.3,3.96-15.86c0.1-2.75-0.15-5.49-0.46-8.23
						c-0.44-3.86-1.23-7.64-2.3-11.37c-0.11-0.4-0.22-0.47-0.59-0.28c-2.45,1.26-4.56,2.94-6.32,5.07
						c-1.44,1.74-2.67,3.65-4.32,5.21c-1.8,1.71-3.61,1.74-5.37,0.02c-1.01-0.99-1.7-2.18-2.23-3.47
						c-1.56-3.77-1.17-7.55,0.12-11.28c1.79-5.2,5.1-9.35,9.12-13.01c4.37-3.97,7.47-8.6,7.51-14.79c0.01-1.92-0.1-3.82-1.22-5.47
						c-1.13-1.67-2.13-3.4-2.83-5.29c-0.17-0.46-0.37-0.4-0.72-0.25c-0.97,0.41-1.95,0.8-2.93,1.19c-4.75,1.94-9.67,3.18-14.78,3.51
						c-3.53,0.23-7.07,0.01-10.54-0.79c-5.19-1.18-10.2-2.78-14.23-6.51c-0.29-0.27-0.45-0.21-0.61,0.09
						c-0.11,0.19-0.22,0.38-0.33,0.56c-2.6,4.33-4.26,9-5.01,13.98c-0.35,2.29-0.46,4.63-0.05,6.92c0.49,2.73,0.25,5.3-0.84,7.87
						c-3.63,8.58-5.64,17.56-6.33,26.83c-0.29,3.89-0.21,7.78,0.27,11.66c0.46,3.7,1.28,7.3,2.65,10.76
						c2.27,5.69,5.64,10.52,10.99,13.76c5.33,3.24,11.17,4.45,17.33,4.47c1.75,0.04,3.48-0.12,5.21-0.31
						c4.24-0.47,8.28-1.58,12.1-3.47C155.4,210.12,159.82,206.46,162.8,201.21z"/>
					<path class="st1" d="M116.93,118.87c2.03,1.63,4.29,2.84,6.71,3.77c5.89,2.24,11.96,3.08,18.22,2.17
						c4.55-0.66,8.88-2.11,13.07-3.96c3.78-1.68,7.47-3.59,11.4-4.92c3.58-1.21,7.24-1.7,10.96-0.73c3.22,0.83,5.91,2.53,7.96,5.44
						c0-0.35,0.02-0.49,0-0.62c-0.5-2.95-1.78-5.55-3.62-7.89c-2.22-2.82-5.09-4.3-8.72-4.33c-2.28-0.02-4.46,0.46-6.63,1.09
						c-3.54,1.04-6.69,2.91-9.95,4.56c-5.17,2.61-10.45,4.84-16.31,5.38c-2.73,0.25-5.42,0.17-8.09-0.47
						c-4.79-1.16-8.91-3.5-12.32-7.07c-0.29-0.31-0.45-0.44-0.77,0c-0.83,1.14-1.76,2.21-2.57,3.37
						C115.07,116.36,115.3,117.57,116.93,118.87z"/>
					<path class="st11" d="M104.04,150.04c0.28-2.01,0.57-4.03,0.87-6.04c0.35-2.41,0.69-4.83,1.08-7.24
						c0.49-3.04,1.26-6.01,2.13-8.96c-0.19-0.07-0.28,0.06-0.38,0.12c-2.13,1.28-4.38,2.02-6.9,1.5c-0.22-0.05-0.37-0.06-0.53,0.2
						c-0.57,0.9-1.47,1.33-2.46,1.6c-1.33,0.37-2.67,0.66-3.96,1.16c-0.39,0.15-0.62,0.34-0.59,0.83c0.11,1.9,0.24,3.79,0.6,5.67
						c0.37,1.95,1.09,3.79,1.77,5.64c0.22,0.59,0.09,1.08-0.52,1.35c-0.59,0.26-0.97-0.01-1.27-0.52c-0.69-1.15-1.03-2.43-1.38-3.71
						c-0.65-2.39-0.94-4.83-1.02-7.46c-0.49,0.41-0.85,0.7-1.2,1c-0.24,0.2-0.46,0.59-0.79,0.37c-0.35-0.23-0.19-0.63-0.06-0.97
						c0.8-2.03,2.25-3.34,4.32-4c1.26-0.4,2.56-0.67,3.76-1.26c1.44-0.7,1.74-1.6,0.96-2.96c-1.44-2.51-5.43-4.22-8.36-3.05
						c-3.98,1.59-5.92,5.23-6.1,9.39c-0.12,2.82,0.86,5.37,2.37,7.73c2.57,4.02,6.25,6.66,10.57,8.5c2.02,0.86,4.08,1.59,6.29,1.8
						C103.78,150.77,103.97,150.53,104.04,150.04z"/>
					<path class="st3" d="M99.21,187.67c-0.07,0.23-0.14,0.46-0.21,0.68c-1.35,4.35-2.95,8.59-5.17,12.58
						c-2.24,4.03-5.13,7.55-8.42,10.75c-0.56,0.54-0.4,0.75,0.14,1.09c1.7,1.05,3.51,1.81,5.46,2.24c2.9,0.63,4.55-0.06,6.12-2.6
						c2.2-3.54,3.75-7.36,5.01-11.32c0.2-0.64,0.15-1.19-0.07-1.8C100.67,195.55,99.83,191.67,99.21,187.67z"/>
					<path class="st3" d="M205.56,204.77c-4.45-5.71-7.61-12.09-9.66-19.03c-2.39-8.11-3.7-16.42-4.57-24.81
						c-0.44-4.24-0.8-8.5-1.15-12.75c-0.36-4.39-0.81-8.76-1.67-13.08c-0.74-3.75-1.7-7.45-3.62-10.8c-3.45-6.02-8.1-7.7-14.01-7.11
						c-3.89,0.39-7.46,1.96-10.97,3.62c-0.49,0.23-0.48,0.46-0.26,0.93c1.56,3.44,3.81,6.37,6.43,9.06
						c1.83,1.87,3.49,3.89,4.88,6.11c3.94,6.31,5.78,13.3,6.76,20.58c0.42,3.15,0.84,6.29,1.17,9.45c0.4,3.75,0.89,7.5,1.26,11.26
						c0.33,3.38,0.76,6.74,1.21,10.1c0.57,4.29,1.21,8.58,2.08,12.83c0.93,4.51,2.09,8.95,4.08,13.13c0.2,0.41,0.41,0.82,0.63,1.22
						c7.8-0.1,15.75-1.36,22.45-5.49C208.77,208.44,207.07,206.71,205.56,204.77z"/>
					<path class="st10" d="M167.34,218.93c-3.4,0.96-6.86,1.34-10.39,0.88c-0.53-0.07-0.99-0.08-1.2,0.6
						c-0.12,0.39-0.45,0.74-0.73,1.06c-1.57,1.82-3.62,3.03-5.57,4.36c-1.6,1.09-3.19,2.17-4.63,3.75c3.16,0.02,5.91,0.51,6.95,4.02
						c1.43-2.83,3.2-5.29,5.16-7.62c0.23-0.27,0.52-0.83,0.86-0.59c0.43,0.29-0.06,0.74-0.24,1.04c-1.21,2.15-2.48,4.27-3.71,6.4
						c-0.19,0.32-0.47,0.63-0.42,1.12c1.88-0.86,3.75-1.44,5.78-1.45c2-0.01,3.92,0.21,5.36,1.83c1.32-1.75,2.87-5.44,3.54-8.34
						c0.5-2.16,0.74-4.33,0.19-6.52C168.14,218.92,167.98,218.75,167.34,218.93z"/>
					<path class="st11" d="M180.19,196.71c-0.61-3.3-1.1-6.63-1.52-9.96c-0.37-2.91-0.76-5.81-1.09-8.73
						c-0.32-2.89-0.54-5.79-0.86-8.68c-0.34-3.05-0.75-6.09-1.1-9.13c-0.13-1.12-0.14-1.15-1.08-0.62c-2.83,1.6-5.64,3.23-8.65,4.46
						c-0.57,0.24-0.63,0.45-0.45,1.02c1.43,4.61,2.5,9.31,2.94,14.12c0.36,3.99,0.34,7.99-0.28,11.97
						c-0.65,4.13-1.89,8.04-4.04,11.65c-3.16,5.31-7.9,8.8-13.28,11.56c-0.78,0.4-1.59,0.75-2.54,1.2c0.73,0.21,1.29,0.36,1.84,0.54
						c2.59,0.82,5.21,1.49,7.92,1.68c2.56,0.18,5.11-0.05,7.61-0.63c6.91-1.58,12.25-5.37,15.97-11.42
						c0.19-0.31,0.24-0.59,0.16-0.99C181.18,202.08,180.68,199.4,180.19,196.71z"/>
					<path class="st10" d="M132.65,218.32c-3.41,0.07-6.81-0.12-10.09-1.07c-1.48-0.43-2.69-0.4-4.15,0.19
						c-2.7,1.08-5.54,1.78-8.31,2.69c-1.53,0.5-3.02,1.1-4.55,2.12c1.19-0.06,2.1,0.14,2.93,0.64c0.94,0.57,1.15,1.5,1.21,2.57
						c0.16-0.11,0.24-0.16,0.32-0.22c2.29-1.66,4.67-3.17,7.24-4.36c0.64-0.3,1.28-0.59,2-0.61c0.13,0,0.28-0.04,0.34,0.13
						c0.05,0.15-0.02,0.26-0.14,0.35c-0.13,0.09-0.26,0.19-0.4,0.27c-1.9,1.11-3.72,2.33-5.53,3.59c-0.97,0.67-1.96,1.32-2.96,2.25
						c2.07-0.24,3.95-0.47,5.85-0.19c1.95,0.29,3.81,0.7,4.8,2.77c0.9-0.95,1.84-1.82,2.84-2.61c2.16-1.7,4.54-3.07,6.77-4.67
						c0.97-0.7,1.97-1.38,2.6-2.44C133.99,218.79,133.71,218.3,132.65,218.32z"/>
					<path class="st10" d="M122.83,91.14c3.48,0.28,6.94,0.27,10.37-0.51c2.61-0.59,5.08-1.46,7.29-3.02
						c0.51-0.36,0.55-0.7,0.13-1.12c-0.19-0.19-0.39-0.4-0.62-0.53c-1.75-0.99-3.23-2.3-4.62-3.72c-1.22-1.24-2.51-1.36-3.96-0.42
						c-1.14,0.74-2.23,1.54-3.36,2.3c-2.86,1.91-5.96,3.46-8.73,5.52c-0.63,0.47-1.21,0.99-1.57,1.74c0.34,0.12,0.64,0.1,0.92,0.03
						C120.06,91.07,121.45,91.03,122.83,91.14z M132.65,86.03c0.48-0.25,0.99-0.42,1.52-0.54c0.3-0.07,0.49-0.01,0.62,0.22
						c0.16,0.28,0.02,0.54-0.21,0.71c-0.49,0.36-1.07,0.49-1.6,0.6c-0.34-0.02-0.64-0.04-0.73-0.36
						C132.18,86.36,132.38,86.17,132.65,86.03z"/>
					<path class="st1" d="M120.42,109.01c-0.23,0.37-0.03,0.55,0.16,0.77c0.9,1.02,1.89,1.96,2.98,2.79
						c5.29,4.03,11.3,5.22,17.77,4.38c4.01-0.52,7.74-1.99,11.35-3.76c0.5-0.25,0.58-0.5,0.36-1.01c-0.64-1.44-1.04-2.97-1.16-4.54
						c-0.24-3.2,0.75-6.04,2.63-8.61c1.38-1.9,3.06-3.55,4.51-5.38c2.67-3.38,4.23-7.21,4.67-11.5c0.32-3.12,0.18-6.18-0.87-9.16
						c-3.07-8.72-12.9-10.2-18.7-5.19c-4.12,3.56-5.53,8.27-5.13,13.64c0.13,1.68,0.73,2.73,2.2,3.63c2.3,1.41,2.57,3.25,1.2,5.59
						c-0.53,0.91-1.23,1.67-2,2.36c-2.94,2.63-6.39,3.53-10.26,3.08c-2.53-0.29-4.88-1.16-7.22-2.1c-1.04-0.42-2.07-0.78-3.28-0.5
						c0.47,1.44,0.95,2.87,1.41,4.31C122.26,101.62,122.66,105.39,120.42,109.01z M147.91,69.84c2.45-1.82,6.4-0.27,7.03,2.72
						c0.04,0.19,0.11,0.41-0.07,0.52c-0.19,0.12-0.35-0.03-0.49-0.17c-0.31-0.31-0.61-0.62-0.92-0.92c-1.52-1.48-3.32-1.76-5.2-0.81
						c-0.5,0.26-1,0.52-1.59,0.84C146.53,70.84,147.26,70.32,147.91,69.84z M146.19,75.54c0.78-2.13,3.83-3.84,6.05-1.92
						c0.92,0.8,1.48,1.86,1.55,3.05c0.13,2.19-0.3,4.27-1.83,5.97c-0.66,0.73-1.46,1.23-2.42,1.11c-1.52,0.07-2.52-0.59-3.11-1.89
						C145.49,79.79,145.42,77.65,146.19,75.54z"/>
					<path class="st1" d="M150.41,77.96c2.03,0,2.03-3.15,0-3.15C148.39,74.81,148.38,77.96,150.41,77.96z"/>
					<path class="st10" d="M124.35,92.82c1.16,0.59,2.37,1,3.61,1.32c3.94,1.03,7.64,0.67,10.9-1.97c1.09-0.88,2.08-1.87,2.57-3.37
						C136.11,92.07,130.35,92.89,124.35,92.82z"/>
					<path class="st11" d="M211.73,207.56c-1.64-1.56-3.14-3.27-4.5-5.07c-5.65-7.48-8.84-16.02-10.84-25.08
						c-0.84-3.81-1.52-7.65-2-11.52c-0.37-2.99-0.76-5.98-1.1-8.97c-0.27-2.4-0.44-4.82-0.7-7.22c-0.34-3.1-0.74-6.2-1.1-9.3
						c-0.36-3.04-0.89-6.05-1.58-9.03c-0.37-1.61-0.95-3.18-1.18-4.8c-0.4-2.87-0.67-5.76-1.52-8.55
						c-1.53-5.02-4.08-9.28-8.89-11.83c-0.21-0.11-0.34-0.26-0.42-0.47c-0.82-2.22-1.52-4.45-1.49-6.87
						c0.04-2.54,0.42-5.04,0.55-7.57c0.2-3.92,0.27-7.83-0.35-11.73c-0.85-5.34-2.72-10.14-6.3-14.09
						c-3.08-1.93-6.11-4.14-9.45-5.54c-3.54-1.48-7.4-2.33-11.21-2.66c-3.63-0.31-7.36-0.33-11-0.35c-3.24-0.02-6.58,0.18-9.4,1.94
						c-0.49,0.3-0.96,0.41-1.4,0.37c-3.49,2.08-5.97,5.11-7.59,8.89c-2.84,6.61-3.8,13.54-3.27,20.7c0.03,0.38-0.05,0.66-0.3,0.96
						c-0.56,0.67-1.08,1.37-1.58,2.08c-0.38,0.54-0.21,0.98,0.38,1.23c0.47,0.2,0.97,0.34,1.49,0.35c0.32,0,0.57,0.02,0.71,0.47
						c0.57,1.92,1.23,3.81,1.84,5.71c0.85,2.66,0.87,5.27-0.49,7.8c-0.87,1.61-2.05,3-3.18,4.43c-1.01,1.27-2.17,2.5-2.49,4.14
						c-0.17,0.86-0.59,1.54-1,2.26c-0.63,1.11-1.27,2.21-1.88,3.33c-0.57,1.05-1.2,2.07-2,2.96c-1.72,1.91-3.77,3.17-6.46,3.1
						c-0.73-0.02-1.25-0.24-1.53-1.02c-0.88-2.41-2.72-3.86-4.99-4.86c-1.51-0.66-1.48-0.65-0.95-2.3c0.21-0.64,0.49-0.88,1.19-0.92
						c1.81-0.09,3.64-0.17,5.33-0.94c2.94-1.33,4.58-3.81,5.78-6.66c0.21-0.5,0.44-0.99,0.49-1.54c0.06-0.69-0.43-1.17-1.1-1.06
						c-0.77,0.13-1.55,0.26-2.3,0.48c-3.19,0.92-6.12,2.26-7.99,5.21c-0.07,0.11-0.19,0.18-0.33,0.31c0.09-0.92,0.18-1.83,0.27-2.74
						c-0.18,0.04-0.37,0.06-0.58,0.06c-0.47,0-0.86-0.12-1.2-0.31c-0.17,1.34-0.39,2.7-0.58,4.1c-0.2-0.37-0.3-0.55-0.4-0.74
						c-1.58-2.79-3.72-4.9-6.92-5.79c-2.09-0.59-4.21-0.43-6.32-0.44c-0.32,0-0.67,0.12-0.81,0.46c-0.17,0.39,0.05,0.7,0.32,0.94
						c1.22,1.11,2.13,2.46,3.02,3.84c1.47,2.27,3.56,3.68,6.14,4.42c1.23,0.35,2.5,0.44,3.76,0.65c0.17,0.03,0.49-0.09,0.45,0.19
						c-0.09,0.61-0.21,1.24-0.45,1.8c-0.14,0.33-0.62,0.26-0.96,0.28c-1.56,0.11-2.95,0.65-4.23,1.51
						c-4.11,2.77-6.13,8.44-4.87,13.56c1.19,4.89,4.08,8.6,8.08,11.47c3.86,2.78,8.17,4.54,12.93,5.07c0.61,0.07,0.46,0.34,0.35,0.7
						c-1.42,4.86-2.58,9.78-3.38,14.78c-0.44,2.76-0.87,5.52-1.05,8.31c-0.1,1.49-0.1,3.01-0.4,4.47
						c-0.98,4.64-2.47,9.13-4.37,13.48c-2.44,5.57-5.52,10.72-10.04,14.9c-0.62,0.57-1.26,1.12-1.87,1.71
						c-0.93,0.9-0.91,1.71,0.1,2.53c0.52,0.43,1.09,0.83,1.68,1.15c2.4,1.29,4.92,2.33,7.64,2.58c2.51,0.22,4.96-0.16,6.69-2.34
						c0.13-0.16,0.29-0.25,0.46-0.31c1.38-0.49,2.79-0.85,4.24-1.06c2.76-0.4,5.53-0.28,8.31-0.22c2.53,0.06,4.36,1.56,6.65,2.37
						c-1.3,0.62-2.53,0.94-3.75,1.28c-3.76,1.06-7.45,2.28-10.85,4.25c-0.68,0.4-1.35,0.81-1.88,1.42
						c-0.29,0.34-0.43,0.72-0.26,1.13c0.16,0.37,0.54,0.38,0.9,0.43c1.28,0.16,2.56,0.02,3.84,0.09c1.55,0.08,2.02,0.91,1.25,2.26
						c-0.35,0.61-0.78,1.17-1.15,1.77c-0.2,0.32-0.25,0.68-0.03,1c0.24,0.35,0.62,0.3,0.97,0.23c0.32-0.06,0.63-0.16,0.95-0.22
						c2.26-0.46,4.51-1.01,6.84-0.87c2.05,0.12,4.07,0.37,4.71,2.87c0.19,0.74,0.79,0.87,1.42,0.66c0.31-0.11,0.59-0.39,0.83-0.64
						c1.54-1.56,3.22-2.93,4.99-4.21c2.12-1.52,4.4-2.8,6.41-4.48c1.29-1.08,2.48-2.25,2.39-4.13c-0.02-0.43,0.25-0.4,0.53-0.4
						c0.98,0,1.95-0.14,2.92-0.28c1.61-0.23,3.21-0.55,4.83-0.68c3.61-0.29,6.86,1.16,10.24,2.21c-0.55,0.86-1.2,1.5-1.9,2.11
						c-2.03,1.74-4.32,3.11-6.49,4.66c-1.65,1.18-3.16,2.51-4.2,4.29c-0.53,0.91-0.16,1.49,0.87,1.45c1.28-0.05,2.55-0.23,3.83-0.18
						c1.69,0.07,2.93,0.97,3.47,2.57c0.22,0.65,0.28,1.32,0.32,2c0.04,0.96,0.52,1.21,1.34,0.76c0.5-0.27,0.98-0.58,1.47-0.87
						c2.22-1.34,4.59-2.05,7.21-1.84c1.28,0.11,2.44,0.53,3.12,1.65c1.06,1.78,1.55,1,2.41-0.01c0.05-0.06,0.09-0.14,0.13-0.21
						c2.03-3.03,3.26-6.4,4.09-9.92c0.58-2.47,0.95-4.97,0.01-7.45c-0.08-0.2-0.02-0.33,0.15-0.38c0.98-0.28,1.81-0.89,2.91-0.9
						c6.98-0.08,13.83,2.11,20.82,1.62c3.86-0.27,7.66-1.19,11.27-2.55c1.87-0.7,3.69-1.53,5.45-2.47c1.12-0.59,3.26-0.9,3.74-2.18
						c0.01-0.02,0.02-0.04,0.02-0.07C215,209.7,212.8,208.58,211.73,207.56z M102.87,110.76c0.63-0.24,1.28-0.44,1.93-0.63
						c0.35-0.1,0.51-0.01,0.35,0.42c-1.19,3.28-3.34,5.47-6.87,6.1c-0.8,0.14-1.61,0.22-2.54,0.34
						C97.31,113.88,99.75,111.93,102.87,110.76z M82.49,110.13c3.56-0.15,8.57,2.7,9.92,6.75
						C88.82,117.61,84.42,114.64,82.49,110.13z M131.7,59.67c2.09-0.75,4.27-0.98,6.47-1.12c2.53-0.17,5.06-0.21,7.6-0.01
						c6.82,0.52,13.4,1.91,19.36,5.47c3.72,2.23,6.06,5.57,7.49,9.56c2.09,5.83,2.49,11.86,2.06,18c-0.22,3.14-0.83,6.26-0.55,9.44
						c0.12,1.41,0.56,2.75,0.94,4.14c-1.35,0.17-2.67-0.02-4,0.16c-2.91,0.4-5.63,1.33-8.22,2.65c-2.4,1.22-4.75,2.51-7.11,3.8
						c-0.61,0.34-0.87,0.28-1.17-0.39c-1.95-4.4-1.22-8.35,1.86-11.95c1.59-1.86,3.39-3.54,4.82-5.55c2.4-3.39,3.84-7.12,4.25-11.27
						c0.38-3.92,0.2-7.77-1.35-11.44c-1.96-4.64-5.38-7.57-10.42-8.16c-5.9-0.7-10.47,1.63-13.64,6.68c-1.75,2.79-2.51,5.85-2.6,9.1
						c-0.03,1.01,0,2.02,0,3.23c-1.56-1.77-3.19-2.89-5.57-2.04c0.26-1.39,0.54-2.68,0.74-3.98c0.41-2.67,0.66-5.34,0.09-8.03
						c-0.7-3.32-2.46-4.92-5.91-5.24C128.27,61.32,129.87,60.32,131.7,59.67z M119.12,80.31c0.26-3.66,1.14-7.15,2.64-10.49
						c0.45-0.99,0.95-1.95,1.55-2.86c1.28-1.93,4.31-2.61,6.13-1.38c1.33,0.9,1.82,2.3,1.96,3.78c0.36,3.81-0.38,7.51-1.27,11.19
						c-0.07,0.28-0.22,0.42-0.41,0.56c-3.36,2.45-7.05,4.39-10.56,6.61c-0.04,0.02-0.1,0.01-0.17,0.01
						C118.68,85.25,118.95,82.78,119.12,80.31z M118.69,91.4c-0.28,0.07-0.58,0.09-0.92-0.03c0.36-0.75,0.94-1.27,1.57-1.74
						c2.77-2.06,5.87-3.6,8.73-5.52c1.13-0.75,2.22-1.56,3.36-2.3c1.45-0.94,2.74-0.82,3.96,0.42c1.4,1.42,2.88,2.73,4.62,3.72
						c0.23,0.13,0.43,0.34,0.62,0.53c0.42,0.42,0.38,0.76-0.13,1.12c-2.21,1.55-4.68,2.42-7.29,3.02
						c-3.43,0.78-6.89,0.78-10.37,0.51C121.45,91.03,120.06,91.07,118.69,91.4z M141.43,88.81c-0.49,1.5-1.48,2.49-2.57,3.37
						c-3.27,2.64-6.97,2.99-10.9,1.97c-1.24-0.32-2.44-0.74-3.61-1.32C130.35,92.89,136.11,92.07,141.43,88.81z M119.63,93.49
						c1.21-0.28,2.24,0.08,3.28,0.5c2.33,0.94,4.69,1.81,7.22,2.1c3.87,0.45,7.33-0.45,10.26-3.08c0.77-0.69,1.47-1.45,2-2.36
						c1.36-2.34,1.09-4.18-1.2-5.59c-1.47-0.9-2.07-1.95-2.2-3.63c-0.4-5.37,1.01-10.08,5.13-13.64c5.8-5.01,15.63-3.54,18.7,5.19
						c1.05,2.98,1.19,6.04,0.87,9.16c-0.44,4.3-2,8.13-4.67,11.5c-1.45,1.84-3.13,3.48-4.51,5.38c-1.87,2.57-2.87,5.4-2.63,8.61
						c0.12,1.58,0.52,3.1,1.16,4.54c0.23,0.51,0.15,0.77-0.36,1.01c-3.61,1.77-7.34,3.24-11.35,3.76
						c-6.47,0.85-12.48-0.34-17.77-4.38c-1.09-0.83-2.08-1.76-2.98-2.79c-0.19-0.22-0.39-0.4-0.16-0.77
						c2.23-3.62,1.84-7.4,0.62-11.21C120.58,96.36,120.1,94.93,119.63,93.49z M116.27,114.65c0.81-1.16,1.74-2.23,2.57-3.37
						c0.32-0.44,0.47-0.3,0.77,0c3.41,3.57,7.53,5.9,12.32,7.07c2.67,0.65,5.37,0.72,8.09,0.47c5.85-0.54,11.14-2.77,16.31-5.38
						c3.26-1.64,6.42-3.52,9.95-4.56c2.16-0.64,4.35-1.11,6.63-1.09c3.63,0.03,6.49,1.51,8.72,4.33c1.84,2.34,3.12,4.94,3.62,7.89
						c0.02,0.13,0,0.27,0,0.62c-2.05-2.91-4.74-4.61-7.96-5.44c-3.72-0.96-7.38-0.48-10.96,0.73c-3.93,1.33-7.61,3.24-11.4,4.92
						c-4.2,1.86-8.52,3.31-13.07,3.96c-6.26,0.9-12.33,0.07-18.22-2.17c-2.42-0.92-4.68-2.14-6.71-3.77
						C115.3,117.57,115.07,116.36,116.27,114.65z M103.21,150.72c-2.21-0.21-4.27-0.94-6.29-1.8c-4.32-1.84-8-4.48-10.57-8.5
						c-1.51-2.35-2.49-4.91-2.37-7.73c0.18-4.16,2.12-7.8,6.1-9.39c2.93-1.17,6.92,0.54,8.36,3.05c0.78,1.36,0.48,2.25-0.96,2.96
						c-1.2,0.58-2.5,0.85-3.76,1.26c-2.08,0.66-3.53,1.97-4.32,4c-0.13,0.33-0.29,0.74,0.06,0.97c0.33,0.22,0.56-0.17,0.79-0.37
						c0.35-0.3,0.71-0.59,1.2-1c0.09,2.64,0.37,5.08,1.02,7.46c0.35,1.28,0.69,2.56,1.38,3.71c0.3,0.51,0.68,0.78,1.27,0.52
						c0.62-0.27,0.74-0.75,0.52-1.35c-0.68-1.85-1.4-3.69-1.77-5.64c-0.35-1.88-0.49-3.77-0.6-5.67c-0.03-0.49,0.2-0.68,0.59-0.83
						c1.29-0.5,2.64-0.79,3.96-1.16c0.99-0.27,1.89-0.7,2.46-1.6c0.16-0.26,0.31-0.24,0.53-0.2c2.52,0.52,4.77-0.22,6.9-1.5
						c0.11-0.06,0.19-0.19,0.38-0.12c-0.87,2.95-1.65,5.92-2.13,8.96c-0.38,2.41-0.73,4.82-1.08,7.24
						c-0.29,2.01-0.58,4.02-0.87,6.04C103.97,150.53,103.78,150.77,103.21,150.72z M102.14,201.09c-1.26,3.96-2.81,7.78-5.01,11.32
						c-1.57,2.54-3.22,3.23-6.12,2.6c-1.95-0.42-3.76-1.18-5.46-2.24c-0.54-0.33-0.7-0.54-0.14-1.09c3.29-3.2,6.18-6.72,8.42-10.75
						c2.22-3.99,3.82-8.23,5.17-12.58c0.07-0.23,0.14-0.46,0.21-0.68c0.62,4,1.46,7.87,2.85,11.62
						C102.29,199.9,102.34,200.45,102.14,201.09z M133.43,219.72c-0.63,1.05-1.63,1.74-2.6,2.44c-2.23,1.6-4.61,2.97-6.77,4.67
						c-1.01,0.79-1.94,1.66-2.84,2.61c-0.99-2.06-2.85-2.48-4.8-2.77c-1.9-0.28-3.78-0.05-5.85,0.19c0.99-0.94,1.99-1.58,2.96-2.25
						c1.81-1.25,3.64-2.47,5.53-3.59c0.14-0.08,0.27-0.18,0.4-0.27c0.12-0.08,0.19-0.2,0.14-0.35c-0.06-0.17-0.21-0.14-0.34-0.13
						c-0.72,0.02-1.37,0.31-2,0.61c-2.57,1.19-4.95,2.7-7.24,4.36c-0.08,0.06-0.17,0.12-0.32,0.22c-0.06-1.07-0.28-2-1.21-2.57
						c-0.83-0.5-1.74-0.7-2.93-0.64c1.53-1.02,3.02-1.62,4.55-2.12c2.77-0.9,5.62-1.61,8.31-2.69c1.46-0.58,2.67-0.61,4.15-0.19
						c3.28,0.95,6.68,1.14,10.09,1.07C133.71,218.3,133.99,218.79,133.43,219.72z M137.95,216.21c-1.73,0.19-3.47,0.35-5.21,0.31
						c-6.15-0.02-12-1.23-17.33-4.47c-5.34-3.25-8.72-8.07-10.99-13.76c-1.38-3.46-2.19-7.06-2.65-10.76
						c-0.49-3.88-0.56-7.78-0.27-11.66c0.69-9.27,2.7-18.25,6.33-26.83c1.08-2.56,1.33-5.14,0.84-7.87
						c-0.41-2.29-0.3-4.63,0.05-6.92c0.75-4.98,2.41-9.65,5.01-13.98c0.11-0.19,0.22-0.37,0.33-0.56c0.17-0.3,0.32-0.36,0.61-0.09
						c4.03,3.73,9.04,5.33,14.23,6.51c3.47,0.79,7.01,1.02,10.54,0.79c5.11-0.33,10.04-1.58,14.78-3.51
						c0.98-0.4,1.96-0.78,2.93-1.19c0.34-0.15,0.54-0.21,0.72,0.25c0.7,1.89,1.71,3.62,2.83,5.29c1.12,1.66,1.23,3.55,1.22,5.47
						c-0.03,6.18-3.14,10.81-7.51,14.79c-4.02,3.65-7.33,7.81-9.12,13.01c-1.29,3.73-1.68,7.51-0.12,11.28
						c0.53,1.29,1.22,2.48,2.23,3.47c1.76,1.71,3.57,1.69,5.37-0.02c1.65-1.57,2.88-3.48,4.32-5.21c1.76-2.13,3.87-3.81,6.32-5.07
						c0.37-0.19,0.47-0.11,0.59,0.28c1.06,3.73,1.85,7.51,2.3,11.37c0.32,2.74,0.56,5.48,0.46,8.23c-0.2,5.56-1.17,10.95-3.96,15.86
						c-2.97,5.24-7.4,8.9-12.75,11.53C146.23,214.63,142.19,215.75,137.95,216.21z M162.89,139.25c0.48-1.48,0.72-3,0.77-4.55
						c0.04-1.05,0.12-2.1,0.19-3.28c1.24,1.03,2.21,2.16,3.14,3.31c3.79,4.67,5.88,10.12,7.13,15.93c0.36,1.69,0.65,3.4,0.96,5.11
						c0.12,0.68,0.04,1.17-0.68,1.59c-2.77,1.61-5.58,3.14-8.56,4.31c-4.83,1.9-8.61,5.09-11.61,9.28c-0.82,1.15-1.7,2.27-2.78,3.2
						c-0.99,0.85-1.61,0.86-2.56-0.04c-1.45-1.37-2.28-3.1-2.57-5.05c-0.73-4.89,0.97-9.12,3.63-13.07c1.75-2.6,4.04-4.69,6.32-6.81
						C159.25,146.4,161.62,143.18,162.89,139.25z M168.09,226c-0.68,2.9-2.23,6.6-3.54,8.34c-1.44-1.62-3.35-1.84-5.36-1.83
						c-2.02,0.01-3.9,0.59-5.78,1.45c-0.05-0.49,0.24-0.8,0.42-1.12c1.23-2.14,2.49-4.26,3.71-6.4c0.17-0.3,0.67-0.75,0.24-1.04
						c-0.34-0.23-0.63,0.33-0.86,0.59c-1.96,2.33-3.74,4.79-5.16,7.62c-1.04-3.51-3.79-3.99-6.95-4.02
						c1.44-1.58,3.03-2.67,4.63-3.75c1.95-1.33,4.01-2.54,5.57-4.36c0.28-0.33,0.61-0.67,0.73-1.06c0.21-0.68,0.67-0.67,1.2-0.6
						c3.53,0.46,6.99,0.08,10.39-0.88c0.64-0.18,0.8-0.01,0.94,0.55C168.83,221.67,168.59,223.83,168.09,226z M181.57,205.75
						c-3.72,6.05-9.06,9.83-15.97,11.42c-2.5,0.57-5.05,0.8-7.61,0.63c-2.71-0.19-5.34-0.86-7.92-1.68
						c-0.55-0.17-1.11-0.32-1.84-0.54c0.95-0.45,1.76-0.8,2.54-1.2c5.38-2.76,10.12-6.25,13.28-11.56
						c2.15-3.61,3.39-7.52,4.04-11.65c0.62-3.98,0.64-7.98,0.28-11.97c-0.44-4.81-1.51-9.51-2.94-14.12
						c-0.18-0.57-0.12-0.78,0.45-1.02c3.01-1.23,5.82-2.87,8.65-4.46c0.94-0.53,0.95-0.5,1.08,0.62c0.35,3.05,0.77,6.08,1.1,9.13
						c0.32,2.89,0.54,5.79,0.86,8.68c0.33,2.91,0.72,5.82,1.09,8.73c0.42,3.33,0.91,6.66,1.52,9.96c0.5,2.69,0.99,5.37,1.54,8.05
						C181.8,205.15,181.76,205.44,181.57,205.75z M188.16,215.5c-0.22-0.4-0.43-0.81-0.63-1.22c-2-4.18-3.15-8.62-4.08-13.13
						c-0.87-4.25-1.51-8.54-2.08-12.83c-0.45-3.36-0.88-6.73-1.21-10.1c-0.36-3.76-0.86-7.5-1.26-11.26
						c-0.33-3.16-0.75-6.3-1.17-9.45c-0.98-7.28-2.81-14.27-6.76-20.58c-1.39-2.23-3.06-4.24-4.88-6.11
						c-2.62-2.69-4.88-5.62-6.43-9.06c-0.21-0.47-0.22-0.7,0.26-0.93c3.51-1.66,7.08-3.23,10.97-3.62
						c5.91-0.59,10.56,1.09,14.01,7.11c1.92,3.35,2.88,7.05,3.62,10.8c0.85,4.32,1.31,8.69,1.67,13.08
						c0.34,4.25,0.7,8.51,1.15,12.75c0.87,8.39,2.18,16.7,4.57,24.81c2.05,6.93,5.21,13.31,9.66,19.03
						c1.51,1.94,3.21,3.66,5.05,5.24C203.91,214.15,195.96,215.4,188.16,215.5z"/>
					<path class="st11" d="M149.53,83.76c0.97,0.12,1.77-0.38,2.42-1.11c1.53-1.7,1.96-3.78,1.83-5.97
						c-0.07-1.18-0.62-2.25-1.55-3.05c-2.21-1.92-5.27-0.21-6.05,1.92c-0.77,2.11-0.7,4.25,0.23,6.33
						C147,83.17,148,83.82,149.53,83.76z M150.41,74.81c2.03,0,2.03,3.15,0,3.15C148.38,77.96,148.39,74.81,150.41,74.81z"/>
					<path class="st11" d="M148.26,71.18c1.88-0.96,3.68-0.68,5.2,0.81c0.31,0.3,0.61,0.61,0.92,0.92c0.14,0.14,0.3,0.3,0.49,0.17
						c0.18-0.12,0.11-0.34,0.07-0.52c-0.63-2.99-4.58-4.54-7.03-2.72c-0.65,0.48-1.38,1-1.25,2.18
						C147.26,71.7,147.75,71.43,148.26,71.18z"/>
					<path class="st11" d="M127.1,81.13c1.61-1.53,2.2-4.81,1.29-7.07c-0.67-1.65-1.98-2.13-3.54-1.28
						c-0.53,0.29-0.98,0.69-1.32,1.19c-0.8,1.15-1.16,2.44-1.11,3.88c-0.03,0.72,0.05,1.46,0.3,2.2
						C123.45,82.14,125.5,82.65,127.1,81.13z M126.28,73.56c2.03,0,2.03,3.15,0,3.15C124.25,76.71,124.26,73.56,126.28,73.56z"/>
					<path class="st11" d="M123.8,71c1.59-1.17,2.57-1.13,4.12,0.18c0.06,0.05,0.12,0.11,0.18,0.17c0.11,0.1,0.23,0.15,0.37,0.07
						c0.14-0.08,0.16-0.21,0.15-0.35c0-1.11-1.26-2.37-2.67-2.38c-1.03,0.09-1.99,0.73-2.6,1.9c-0.11,0.21-0.44,0.46-0.16,0.69
						C123.43,71.46,123.61,71.14,123.8,71z"/>
					<path class="st11" d="M132.98,87.03c0.52-0.11,1.1-0.24,1.6-0.6c0.24-0.17,0.37-0.43,0.21-0.71c-0.13-0.23-0.32-0.29-0.62-0.22
						c-0.53,0.12-1.04,0.29-1.52,0.54c-0.26,0.14-0.47,0.33-0.39,0.64C132.34,86.98,132.64,87.01,132.98,87.03z"/>
				</g>
				<path class="st7" d="M181.38,198.99c-0.68-5.93-1.41-11.85-2.19-17.77c-0.8-6.12-1.66-12.22-2.57-18.33
					c0.4-0.33,0.64-0.79,0.55-1.43c-0.13-1.05-0.72-1.55-1.45-1.7c0.35-0.71-0.16-1.76-1.09-1.43c-4.37,1.59-8.32,4.01-12.01,6.81
					c-1.8,1.36-3.71,2.78-5.37,4.41c-0.73-0.2-1.33,0.57-1.17,1.24c-0.68,0.79-1.28,1.63-1.78,2.54c-0.96,0.82-1.9,1.66-2.79,2.56
					c-0.22,0.22-0.31,0.47-0.3,0.7c-1.79-0.09-3.69-1.12-3.39-3.18c0.19-1.26-1.74-1.8-1.93-0.53c-0.29,2,0.59,3.83,2.29,4.92
					c1.87,1.2,4.22,0.98,6.18,0.13c1.69-0.74,3.05-1.95,4.33-3.24c0.11,0.33,0.22,0.65,0.32,0.96c0.55,1.7,0.92,3.46,1.09,5.24
					c0.31,3.26,0,6.56-0.89,9.72c-1.74,6.15-5.77,11.41-11.11,14.88c-11.2,7.29-26.24,5.56-36.06-3.34
					c-5.42-4.91-9-11.54-10.44-18.68c-0.25-1.26-2.18-0.73-1.93,0.53c0.51,2.55,1.3,5.02,2.33,7.36c-0.04,0.05-0.07,0.1-0.1,0.15
					c-0.29,0.2-0.45,0.55-0.27,1c0.24,0.61,0.51,1.2,0.77,1.8c-0.26,0.21-0.4,0.54-0.27,0.97c2.16,6.74,6.6,12.64,12.54,16.51
					c3.01,1.96,6.34,3.32,9.81,4.09c3.59,1,7.37,1.24,11.07,0.55c0.16,0.28,0.43,0.48,0.82,0.44c1.47-0.13,2.88-0.42,4.27-0.89
					c2.19-0.51,4.36-1.11,6.48-1.85c0.01,0.19,0.07,0.37,0.16,0.52c-0.05-0.01-0.09-0.02-0.14-0.02c-1.26-0.24-1.8,1.69-0.53,1.93
					c10.18,1.9,21.82,2.87,30.48-3.97c1.85-1.46,3.47-3.3,4.26-5.54C182.28,204.51,181.68,201.65,181.38,198.99z M165.59,168.97
					c-0.03-0.11-0.08-0.19-0.13-0.27c0.14-0.1,0.27-0.2,0.41-0.29c1.85-1.27,3.81-2.37,5.83-3.34c0.43,4.27,0.87,8.54,1.3,12.81
					c0.5,4.89,1.22,9.86,0.9,14.79c-0.28,4.29-1.55,8.76-4.57,11.95c-2.77,2.92-6.64,4.4-10.5,5.22c-1.22,0.26-2.59,0.39-3.96,0.57
					c1.04-0.7,2.05-1.46,3-2.33c2.94-2.71,5.6-6.34,7.21-10.01c1.2-2.72,1.51-5.68,1.6-8.65
					C167.58,182.59,167.24,175.68,165.59,168.97z"/>
				<path class="st7" d="M169.07,218.98c-0.06-0.99-1.42-1.34-1.86-0.51c-0.38-0.65-1.16-0.71-1.62-0.19
					c-0.1-0.02-0.2-0.06-0.32-0.06c-0.51-0.02-0.87,0.25-1.09,0.63c0,0,0,0,0,0c-0.24-0.01-0.48,0.05-0.71,0.14
					c-0.61,0.01-1.22,0.04-1.83,0.08c-0.16-0.02-0.32-0.05-0.49-0.07c-1.8-0.2-4.83-0.44-5.89,1.42c-0.06,0.11-0.09,0.22-0.11,0.33
					c-0.53,0.15-1.05,0.33-1.54,0.6c-1.13,0.61-0.12,2.34,1.01,1.73c1.12-0.61,2.39-0.72,3.64-0.73c1.33-0.01,2.68,0.04,3.98,0.33
					c2.2,0.5,4.36,1.82,4.9,4.16c0.26,1.13,1.91,0.83,1.96-0.27C169.23,224.04,169.22,221.51,169.07,218.98z"/>
				<path class="st7" d="M133.39,217.72c-0.21-0.01-0.42-0.02-0.63-0.03c-0.09-0.02-0.19-0.02-0.3-0.01
					c-1.98-0.08-3.96-0.05-5.94,0.1c-0.14,0.01-0.27,0.05-0.39,0.1c-0.77-0.36-1.59-0.65-2.32-0.97c-1.36-0.6-2.89-1.22-4.35-0.61
					c-0.5,0.21-0.85,0.66-0.7,1.23c0.12,0.47,0.73,0.9,1.23,0.7c1.45-0.6,3.22,0.58,4.52,1.16c0.68,0.3,1.47,0.55,2.02,1.06
					c0.51,0.47,0.79,1.14,1.18,1.71c0.41,0.61,0.93,1.31,1.73,1.36c0.68,0.04,1.45-0.48,1.98-0.85c1.24-0.87,2.23-2.04,2.83-3.43
					C134.56,218.52,134.21,217.77,133.39,217.72z"/>
				<path class="st7" d="M102.25,197.2c-0.91-3.11-1.55-6.3-1.92-9.52c-0.14-1.24-2.04-1.32-2,0c0.14,5.02,0.29,10.12-0.64,15.08
					c-0.84,4.47-2.55,9.68-6.63,12.2c-1.09,0.68-0.09,2.41,1.01,1.73c0.24-0.15,0.47-0.31,0.69-0.47c0.27,0.32,0.72,0.48,1.22,0.21
					c4.37-2.38,6.56-6.99,8.41-11.38c0.47-1.12,0.98-2.26,0.98-3.5C103.36,200.06,102.67,198.61,102.25,197.2z"/>
				<path class="st7" d="M175.98,154.48c-0.96-4.47-2.04-8.94-3.89-13.14c-1.86-4.23-4.55-8.03-8.24-10.85
					c-0.8-0.61-1.91,0.57-1.37,1.37c2.56,3.76,5.11,7.96,6.4,12.36c0.6,2.05,0.79,4.23-0.08,6.24c-0.76,1.78-2.15,3.21-3.52,4.54
					c-2.91,2.82-5.7,5.6-8.01,8.96c-2.21,3.21-4.95,8.37-9.65,7.59c-1.26-0.21-1.8,1.72-0.53,1.93c0.47,0.08,0.93,0.11,1.39,0.1
					c-0.31,0.24-0.47,0.7-0.36,1.07c0.44,1.64,2.31,1.91,3.58,1.03c0.96-0.67,1.75-1.78,2.47-2.86c1.63-1.44,3-3.27,4.36-4.98
					c2.77-3.48,6.21-5.6,10.36-7.11c1.96-0.71,3.99-1.22,5.93-1.96C176.86,157.98,176.36,156.23,175.98,154.48z"/>
				<path class="st7" d="M106.99,128.13c-0.03,0.08-0.06,0.16-0.1,0.24c0,0,0,0,0,0c-2.09,5.06-5.52,14.29-12.56,12.92
					c-6.13-1.19-11.01-8.49-7.43-14.27c0.68-1.1-1.05-2.1-1.73-1.01c-1.69,2.73-1.82,5.75-0.94,8.51c-0.49,0.15-0.9,0.62-0.75,1.21
					c2.18,8.46,10.72,12.37,18.18,15.16c1.73,0.65,3.29,0.33,3.65-1.69c0.37-2.08,0.2-4.32,0.36-6.43
					c0.36-4.59,1.14-9.19,2.97-13.44c0.06-0.14,0.12-0.29,0.18-0.43C109.25,127.86,107.45,127.09,106.99,128.13z"/>
				<path class="st7" d="M212.29,209.18c-4.4-3.54-8.14-7.83-10.97-12.73c-3-5.19-4.82-10.93-6.2-16.74
					c-2.95-12.44-4.65-25.21-5.55-37.95c-0.3-4.27-0.62-8.66-1.89-12.74c0.74,0.03,1.48-0.69,0.93-1.43
					c-0.84-1.14-1.8-2.16-2.85-3.07c-0.11-0.19-0.21-0.39-0.33-0.58c0.15-0.33,0.15-0.72-0.19-1.05c-2.47-2.47-5.12-5.02-8.47-6.21
					c0.05-0.04,0.1-0.07,0.14-0.11c0.14,0.02,0.27,0.07,0.4,0.1c0.15,0.11,0.29,0.22,0.44,0.34c0.39,0.3,0.82,0.29,1.16,0.12
					c0.37,0.13,0.73,0.28,1.09,0.45c0,0,0.01,0,0.01,0.01c0.15,0.13,0.31,0.2,0.46,0.23c1.5,0.79,2.85,1.88,3.91,3.27
					c0.69,0.9,2.02,0.39,1.83-0.77c-1.1-6.46-6.31-11.69-12.56-13.24c0.43-0.09,0.85-0.17,1.27-0.27c0.54-0.14,0.82-0.71,0.7-1.23
					c-1-4.24-1.6-8.22-0.98-12.56c0.55-3.88,1-7.58,0.34-11.49c-0.65-3.79-2.05-7.42-3.72-10.87c-1.39-2.87-2.97-6.05-6.01-7.47
					c-0.22-0.1-0.46-0.11-0.68-0.06c-1.01-1.17-2.17-2.2-3.55-2.98c-1.12-0.63-2.13,1.09-1.01,1.73c3.14,1.77,5.01,4.97,6.46,8.17
					c1.62,3.58,2.63,7.44,3.24,11.32c1.3,8.33,0.63,16.83-0.01,25.19c-0.01,0.1,0.01,0.2,0.05,0.3c-0.36,0.31-0.55,0.85-0.24,1.26
					c0.96,1.25,1.93,2.63,2.1,4.1c-6.41,0.62-12.15,4.43-18.11,6.9c-3.94,1.63-8.13,2.49-12.33,3.11c-4.32,0.64-8.8,1.1-13.11,0.14
					c-4.2-0.93-8.03-3.05-11.09-6.07c-0.92-0.9-2.33,0.51-1.41,1.41c2.63,2.59,5.78,4.57,9.26,5.8c2.03,0.72,4.13,1.12,6.26,1.28
					c-0.06,0.54,0.25,1.11,0.95,1.1c7.52-0.13,14.83-1.58,22-3.65c-1.16,0.49-2.32,0.98-3.49,1.45c-4.23,1.7-8.61,3.13-13.23,3.02
					c-5.22-0.13-10.25-1.88-15.14-3.56c-0.4-0.14-0.74,0-0.96,0.25c-1.94-1.15-3.77-2.5-5.42-4.05c-0.58-0.54-1.29-0.25-1.57,0.28
					c-0.2,0.16-0.35,0.38-0.41,0.64c-0.46,0.32-0.7,1-0.21,1.53c6.57,7.22,16.8,9.76,26.27,9c5.83-0.47,11.51-2.02,17-3.98
					c2.78-0.99,5.51-2.12,8.26-3.19c2.5-0.98,5.05-1.82,7.75-1.88c0.03,0,0.06,0,0.09,0c10.89,9.12,9.56,25.59,11.07,38.36
					c1.69,14.32,6.7,27.98,13.13,40.81c1.8,3.6,3.64,7.25,5.75,10.69c0.99,1.63,2.26,1.8,4.06,1.44c1.86-0.37,3.6-1.18,5.13-2.29
					C212.55,210.41,212.84,209.62,212.29,209.18z"/>
				<path class="st7" d="M143.42,87.38c-0.54-1.17-2.26-0.15-1.73,1.01c0.89,1.93-1.61,4.17-2.97,5.16
					c-1.69,1.23-3.71,2.02-5.79,2.28c-2.23,0.28-4.51-0.02-6.64-0.75c-2.19-0.75-4.08-2.26-6.39-2.66c-1.26-0.22-1.8,1.71-0.53,1.93
					c1.51,0.26,2.76,1.05,4.11,1.72c1.22,0.6,2.49,1.08,3.81,1.39c2.63,0.63,5.42,0.65,8.03-0.09
					C139.11,96.3,145.61,92.12,143.42,87.38z"/>
				<path class="st1" d="M93.19,205.54c-0.5-0.26-1.07-0.11-1.37,0.36c-0.3,0.47-0.61,0.93-0.94,1.38
					c-0.16,0.22-0.32,0.44-0.48,0.65c-0.04,0.05-0.08,0.1-0.12,0.15c0.1-0.13-0.03,0.04-0.05,0.06c-0.09,0.11-0.18,0.22-0.27,0.34
					c-0.7,0.87-1.44,1.7-2.23,2.48c-0.37,0.37-0.4,1.05,0,1.41c0.4,0.37,1.02,0.4,1.41,0c1.65-1.66,3.13-3.5,4.39-5.47
					C93.84,206.47,93.66,205.79,93.19,205.54z"/>
				<path class="st1" d="M95.55,201.51c-0.12-0.21-0.36-0.41-0.6-0.46c-0.26-0.06-0.54-0.05-0.77,0.1c-0.23,0.15-0.37,0.34-0.46,0.6
					c-0.05,0.16-0.11,0.31-0.18,0.46c-0.17,0.38-0.36,0.76-0.57,1.11c-0.13,0.22-0.17,0.53-0.1,0.77c0.06,0.23,0.24,0.48,0.46,0.6
					c0.23,0.12,0.51,0.18,0.77,0.1c0.25-0.08,0.46-0.23,0.6-0.46c0.4-0.64,0.71-1.34,0.95-2.05
					C95.73,202.04,95.67,201.72,95.55,201.51z"/>
				<path class="st1" d="M115.71,220.02c-0.17-0.53-0.68-0.82-1.23-0.7c-1.42,0.33-2.81,0.74-4.18,1.23
					c-0.49,0.18-0.87,0.69-0.7,1.23c0.16,0.48,0.7,0.89,1.23,0.7c1.37-0.49,2.76-0.9,4.18-1.23
					C115.52,221.13,115.87,220.52,115.71,220.02z"/>
				<path class="st1" d="M116.44,218.29c-1.29,0-1.29,2,0,2C117.73,220.29,117.73,218.29,116.44,218.29z"/>
				<path class="st1" d="M154.61,223.93c-0.36-0.33-1.06-0.43-1.41,0c-0.31,0.38-0.64,0.75-0.99,1.09c-0.18,0.17-0.36,0.34-0.54,0.5
					c-0.09,0.08-0.18,0.15-0.27,0.23c-0.05,0.04-0.1,0.08-0.15,0.12c-0.01,0.01,0,0,0,0c-0.01,0,0,0-0.01,0.01
					c-0.79,0.59-1.64,1.09-2.55,1.49c-0.48,0.21-0.63,0.95-0.36,1.37c0.32,0.5,0.85,0.58,1.37,0.36c1.9-0.83,3.62-2.14,4.92-3.75
					C154.94,224.94,155.04,224.33,154.61,223.93z"/>
				<path class="st1" d="M169.75,191.24c-0.23,4.49-1.95,8.86-4.86,12.28c-0.83,0.98,0.58,2.4,1.41,1.41
					c3.27-3.85,5.19-8.65,5.45-13.7C171.81,189.95,169.81,189.96,169.75,191.24z"/>
				<path class="st1" d="M171.68,185.37c-0.02-0.27-0.1-0.51-0.29-0.71c-0.17-0.17-0.46-0.3-0.71-0.29
					c-0.26,0.01-0.53,0.1-0.71,0.29c-0.17,0.19-0.31,0.44-0.29,0.71c0.05,0.64,0.09,1.28,0.14,1.93c0.02,0.27,0.1,0.51,0.29,0.71
					c0.17,0.17,0.46,0.3,0.71,0.29c0.26-0.01,0.53-0.1,0.71-0.29c0.17-0.19,0.31-0.44,0.29-0.71
					C171.77,186.65,171.73,186.01,171.68,185.37z"/>
				<path class="st1" d="M159.59,148.73c-2.71,2.93-5.6,5.78-7.98,9c-2.23,3.01-3.84,6.64-3.54,10.46c0.1,1.28,2.1,1.29,2,0
					c-0.28-3.61,1.33-6.91,3.47-9.72c2.25-2.95,4.95-5.6,7.47-8.33C161.88,149.2,160.47,147.78,159.59,148.73z"/>
				<path class="st1" d="M164.03,144.33c-0.12-0.21-0.36-0.41-0.6-0.46c-0.26-0.06-0.54-0.05-0.77,0.1c-0.07,0.05-0.14,0.1-0.2,0.16
					c-0.12,0.12-0.21,0.27-0.26,0.44c-0.18,0.5-0.36,0.99-0.54,1.49c-0.04,0.13-0.05,0.27-0.02,0.4c0.01,0.13,0.05,0.26,0.12,0.37
					c0.12,0.21,0.36,0.41,0.6,0.46c0.26,0.06,0.54,0.05,0.77-0.1c0.07-0.05,0.14-0.1,0.2-0.16c0.12-0.12,0.21-0.27,0.26-0.44
					c0.18-0.5,0.36-0.99,0.54-1.49c0.04-0.13,0.05-0.27,0.02-0.4C164.14,144.57,164.1,144.45,164.03,144.33z"/>
				<path class="st1" d="M182.32,163.88c-0.8-4.66-1.56-9.33-2.4-13.99c-0.75-4.16-1.69-8.31-3.4-12.2
					c-1.73-3.92-4.28-7.42-7.76-9.95c-1.04-0.76-2.04,0.98-1.01,1.73c6.66,4.84,8.86,13.27,10.25,20.95
					c1.61,8.9,3.06,17.82,4.58,26.74c0.88,5.15,1.76,10.29,2.64,15.44c0.22,1.27,2.14,0.73,1.93-0.53
					C185.53,182.67,183.92,173.28,182.32,163.88z"/>
				<path class="st1" d="M191.84,207.62c-0.92-2.84-1.85-5.69-2.77-8.53c-0.17-0.51-0.69-0.85-1.23-0.7
					c-0.5,0.14-0.87,0.71-0.7,1.23c0.92,2.84,1.85,5.69,2.77,8.53c0.17,0.51,0.69,0.85,1.23,0.7
					C191.65,208.71,192.01,208.13,191.84,207.62z"/>
				<path class="st1" d="M91.91,125.83c-1.8-0.04-3.64,0.78-4.76,2.19c-0.17,0.22-0.29,0.42-0.29,0.71c0,0.25,0.11,0.54,0.29,0.71
					c0.36,0.33,1.07,0.44,1.41,0c0.23-0.29,0.49-0.53,0.76-0.77c0.03-0.02,0.06-0.05,0.1-0.07c0.07-0.05,0.14-0.09,0.21-0.14
					c0.16-0.1,0.33-0.19,0.5-0.27c0.02-0.01,0.04-0.02,0.06-0.03c0.04,0,0.22-0.08,0.26-0.1c0.17-0.06,0.34-0.11,0.52-0.15
					c0.09-0.02,0.17-0.04,0.26-0.05c0.03,0,0.08-0.01,0.1-0.01c0.19-0.02,0.38-0.02,0.57-0.02c0.52,0.01,1.02-0.47,1-1
					C92.88,126.28,92.47,125.85,91.91,125.83z"/>
				<path class="st1" d="M162.31,94.73c-0.57,2.08-2.36,3.49-3.72,5.06c-1.58,1.82-2.81,3.89-3.07,6.32c-0.06,0.54,0.5,1,1,1
					c0.59,0,0.94-0.46,1-1c0.5-4.59,5.56-6.59,6.72-10.85C164.58,94.02,162.65,93.49,162.31,94.73z"/>
				<path class="st1" d="M165.51,89.12c-1.29,0-1.29,2,0,2C166.8,91.12,166.8,89.12,165.51,89.12z"/>
				<path class="st1" d="M136.25,81.52c-1.32-0.94-2.98-0.77-4.38-0.13c-1.66,0.75-3.2,1.91-4.73,2.9c-3.25,2.11-6.46,4.3-9.61,6.56
					c-1.04,0.74-0.04,2.48,1.01,1.73c2.78-1.99,5.61-3.93,8.47-5.81c1.43-0.94,2.87-1.87,4.32-2.78c1.16-0.72,2.61-1.67,3.92-0.74
					C136.29,83.99,137.29,82.26,136.25,81.52z"/>
				<path class="st10" d="M170.91,38.66c-2.59,0.31-4.84,1.89-5.91,4.3c-0.6,1.36-0.47,2.48-0.55,3.91
					c-0.09,1.76-2.54,3.4-4.22,2.99c-1.67-0.4-2.61-1.99-2.84-3.58c-0.24-1.69,0.37-3.25,0.49-4.91c0.12-1.74-0.49-3.38-1.09-4.98
					c-0.68-1.86-1.37-3.71-2.05-5.57c-0.2-0.53-0.91-1.02-1.47-0.6c-1.33,1.02-2.59,2.1-3.76,3.3c-0.98,1.01-2.11,2.13-2.66,3.45
					c-0.63,1.55-0.24,3.24-0.22,4.86c0.01,0.8,0.01,1.64-0.11,2.44c-0.16,1-1.02,1.32-1.81,1.79c-0.6,0.36-1.31,0.94-2,1.09
					c-1.02,0.22-1.86-0.49-2.58-1.12c-0.57-0.5-1.44-1.2-1.67-1.96c-0.23-0.77,0.14-1.41,0.46-2.09c0.54-1.13,0.92-2.28,0.39-3.49
					c-0.64-1.47-1.98-2.8-3.03-3.99c-0.23-0.26-0.49-0.33-0.74-0.31c-0.59-0.49-1.71-0.26-1.65,0.71c0.35,4.88,0.96,9.83,0.97,14.73
					c0,1.14-0.05,2.29-0.35,3.39c-0.29,1.05-1.02,1.74-1.41,2.69c-0.27,0.66-0.08,1.44,0.58,1.8c0.79,0.43,1.9,0.09,2.72-0.02
					c2.49-0.33,4.97-0.79,7.48-0.88c2.61-0.1,5.16,0.32,7.73,0.75c2.34,0.38,4.85,0.56,7.12,1.27c2.32,0.72,4.48,2.34,6.58,3.54
					c0.64,0.37,1.53-0.09,1.5-0.86c-0.03-0.88-0.2-1.73-0.64-2.51c-0.15-0.28-0.57-0.61-0.63-0.89c-0.07-0.34,0.06-0.35,0.3-0.68
					c1.06-1.48,1.46-3.5,2.02-5.21c1.34-4.03,2.68-8.05,4.01-12.08C172.06,39.36,171.55,38.58,170.91,38.66z"/>
				<path class="st3" d="M153.42,38.75c-0.13-0.16-0.3-0.25-0.47-0.29c-0.03-0.03-0.04-0.07-0.07-0.11c-0.36-0.36-1.06-0.41-1.41,0
					c-1.14,1.3-2.29,2.7-2.52,4.47c-0.25,1.91,0.68,3.65,1.63,5.24c0.35,0.58,1.09,0.63,1.57,0.2c1.28-1.13,2.3-2.69,2.59-4.4
					C155.05,42.03,154.61,40.2,153.42,38.75z"/>
			</g>
			<path class="st3" d="M104.23,93.81c-0.02-0.71-0.25-1.38-0.51-2.04c-1.12-2.82-1.27-5.73-0.11-8.57c0.1-0.25-0.11-0.56-0.35-0.62
				c-0.99-0.25-1.47,0.82-1.9,1.51c-0.14,0.23-0.28,0.46-0.42,0.69c-0.48-2.48-1.51-4.81-4.11-5.77c-2.84-1.05-5.92,0.4-7.17,3.07
				c-1.93-0.61-4.19-0.12-5.74,1.18c-1.91,1.61-1.81,4.11-1.37,6.37c-0.2-0.23-0.41-0.45-0.65-0.66c-0.49-0.42-1.2,0.29-0.71,0.71
				c3.24,2.79,2.28,7.82,4.23,11.32c1,1.81,2.7,2.91,4.71,3.31c2.12,0.42,4.55,0.4,6.61-0.3c1.01-0.34,1.89-0.88,2.69-1.53
				c0.15,0.25,0.5,0.39,0.78,0.13c1.61-1.51,2.78-3.4,3.43-5.51c0.04-0.14,0.02-0.25-0.03-0.35c0.08-0.27,0.17-0.54,0.24-0.81
				C104.06,95.25,104.25,94.53,104.23,93.81z"/>
			<path class="st14" d="M96.12,105.08c-1.01-0.19-2.04-0.17-3.05,0.06c-0.17-0.04-0.36-0.01-0.48,0.12c-0.19,0.21-0.19,0.5,0,0.71
				c0.52,0.57,1.28,1.01,2.08,0.97c0.8-0.04,1.5-0.5,1.8-1.24C96.57,105.46,96.37,105.12,96.12,105.08z"/>
			<path class="st7" d="M102.79,99.34c-0.11,0.18-0.23,0.37-0.38,0.54c-0.19,0.22-0.14,0.47-0.01,0.65c0.04-0.1,0.08-0.21,0.14-0.29
				c0.41-0.57,0.76-1.18,1.05-1.82c0.3-0.79,0.5-1.62,0.63-2.46c0.01-0.05,0.01-0.09,0.02-0.14c0-0.32,0.08-0.61,0.19-0.9
				c-0.08-0.66-0.22-1.31-0.37-1.95c0.03-0.34,0.07-0.68,0.09-1.03c0.02-0.29-0.22-0.46-0.46-0.48c-0.27-1.07-0.51-2.14-0.57-3.25
				c-0.1-1.67,0.07-3.34,0.23-5.01c0.06-0.6-0.79-0.61-0.98-0.13c-1.12,2.85-0.2,6.03-0.13,8.97c0.07,3.01-0.49,6.26-2.77,8.42
				c-2.18,2.06-5.34,2.67-8.24,2.25c-1.36-0.19-2.74-0.58-3.88-1.37c-1.19-0.82-1.79-2.02-2.06-3.41c-0.31-1.59-0.33-3.2-0.87-4.74
				c-0.51-1.47-1.32-2.79-2.37-3.94c-0.43-0.48-1.14,0.23-0.71,0.71c1.07,1.17,1.86,2.57,2.3,4.09c0.43,1.49,0.41,3.05,0.77,4.55
				c0.37,1.55,1.26,2.7,2.43,3.53c-0.32,0.12-0.49,0.65-0.12,0.94c1.66,1.26,3.77,1.59,5.81,1.64c1.14,0.02,2.32,0.02,3.44-0.25
				c1.01-0.24,1.96-0.72,2.82-1.31c1.45-1,2.77-2.31,3.77-3.78C102.63,99.38,102.71,99.38,102.79,99.34z"/>
			<path class="st7" d="M96.1,81.71c-2.39-1.11-4.89-0.14-6.9,1.3c0.03-0.14,0.06-0.28,0.06-0.44c0-0.35-0.44-0.66-0.75-0.43
				c-2.67,1.93-4.01,5.35-3.32,8.59c0.1,0.47,0.66,0.44,0.89,0.13c0.03,0.05,0.06,0.1,0.09,0.15c0.2,0.25,0.65,0.16,0.79-0.1
				c0.35-0.69,0.12-1.51,0.12-2.25c-0.01-0.77,0.06-1.55,0.28-2.29c0.22-0.71,0.61-1.28,1.06-1.86c0.12-0.15,0.23-0.3,0.33-0.45
				c0.13,0.18,0.36,0.27,0.59,0.09c0.12-0.09,0.25-0.18,0.38-0.27c0.12,0.05,0.27,0.07,0.42,0c1.69-0.74,3.73-1.12,5.43-0.2
				c1.04,0.56,1.58,1.46,1.9,2.47c-0.29-0.24-0.8-0.14-0.81,0.36c-0.05,1.35-1.21,2.37-1.98,3.37c-0.75,0.98-1.36,2.04-1.85,3.17
				c-0.72-0.62-1.5-1.16-2.34-1.59c-0.5-0.26-1.06-0.43-1.55-0.71c-0.56-0.32-0.69-0.91-0.82-1.5c-0.14-0.63-1.11-0.36-0.96,0.27
				c0.13,0.57,0.28,1.15,0.67,1.6c0.42,0.49,1.02,0.68,1.59,0.93c1.21,0.53,2.3,1.28,3.25,2.19c0.29,0.28,0.7,0.13,0.84-0.22
				c0.25-0.65,0.55-1.27,0.89-1.87c0.17,0.2,0.47,0.28,0.7,0.02c1.33-1.48,2.67-3.23,2.58-5.3c0.1,0.41,0.17,0.83,0.24,1.25
				c0.08,0.51,0.83,0.44,0.96,0C99.6,85.62,98.49,82.83,96.1,81.71z"/>
			<g>
				<g>
					<path class="st9" d="M137.34,56.45c0.37-0.11,0.75-0.2,1.13-0.27c3.39-0.58,6.8-0.41,10.19-0.06c3.54,0.36,7.01,1.09,10.36,2.3
						c1.39,0.5,2.79,1.02,3.93,2.03c0.83,0.37,1.64,0.77,2.43,1.21c0.47-0.65,0.51-1.49,0.06-2.32c-0.41-0.75-1.04-1.31-1.75-1.75
						c-3.34-2.07-7.07-3.08-10.87-3.81c-2.72-0.52-5.48-0.84-8.27-0.85c-2.24-0.01-4.48,0.06-6.68,0.53
						c-1.13,0.24-2.22,0.6-3.14,1.36c-0.65,0.54-0.94,1.32-0.81,2.07C135.06,56.67,136.21,56.56,137.34,56.45z"/>
					<path class="st9" d="M135.24,52.64c0.01,0.42,0.14,0.42,0.45,0.28c0.8-0.36,1.65-0.58,2.51-0.72c2.75-0.45,5.52-0.42,8.29-0.31
						c3.39,0.13,6.7,0.74,9.96,1.6c3.01,0.8,5.97,1.76,8.53,3.64c0.2,0.15,0.3,0.13,0.37-0.12c0.14-0.49,0.3-0.98,0.46-1.47
						c1.63-5.25,3.26-10.51,4.89-15.76c0.05-0.15,0.21-0.3,0.09-0.44c-0.15-0.16-0.33,0-0.49,0.05c-1.74,0.58-3.19,1.65-4.59,2.81
						c-0.7,0.58-0.9,1.09-0.56,2.02c0.82,2.28-0.26,4.82-2.35,5.87c-2.69,1.35-6.21-0.6-6.65-3.69c-0.23-1.63,0.25-3.1,1.13-4.45
						c0.27-0.41,0.35-0.81,0.29-1.29c-0.42-3.59-1.77-6.85-3.59-9.94c-0.19-0.33-0.34-0.22-0.55-0.04
						c-2.77,2.43-4.94,5.29-6.34,8.73c-0.14,0.34-0.16,0.64-0.03,0.97c0.48,1.24,0.47,2.51,0.22,3.8c-0.52,2.61-3.86,4.45-6.33,3.45
						c-2.66-1.07-3.79-4.59-2.1-7.05c0.67-0.98,0.59-1.63-0.06-2.42c-0.06-0.08-0.1-0.17-0.16-0.25c-1.02-1.51-2.21-2.84-3.87-3.9
						c0.03,1.27,0.07,2.41,0.1,3.55C135,42.59,135.13,47.62,135.24,52.64z M148.37,42.54c0.36-2.4,1.71-4.05,3.67-5.27
						c0.49-0.3,0.94-0.28,1.33,0.18c1.29,1.53,2.31,3.2,2.22,5.3c-0.12,2.69-1.15,4.91-3.5,6.38c-0.91,0.57-1.45,0.43-2.16-0.43
						C148.41,46.87,148.12,44.75,148.37,42.54z"/>
					<path class="st9" d="M151.59,48.04c3.21-2.17,3.93-6.14,1.29-9.42c-0.18-0.22-0.35-0.29-0.6-0.11
						c-1.53,1.06-2.62,2.4-2.97,5.07c-0.12,1.12,0.42,2.79,1.5,4.33C151.05,48.24,151.26,48.26,151.59,48.04z"/>
					<path class="st9" d="M126.26,76.71c2.03,0,2.03-3.15,0-3.15C124.23,73.56,124.23,76.71,126.26,76.71z"/>
					<path class="st9" d="M119.13,87.72c3.51-2.22,7.2-4.16,10.56-6.61c0.19-0.14,0.34-0.28,0.41-0.56
						c0.89-3.68,1.63-7.38,1.27-11.19c-0.14-1.48-0.63-2.88-1.96-3.78c-1.82-1.23-4.85-0.54-6.13,1.38c-0.6,0.9-1.1,1.87-1.55,2.86
						c-1.5,3.34-2.38,6.84-2.64,10.49c-0.18,2.47-0.45,4.94-0.14,7.42C119.03,87.73,119.09,87.75,119.13,87.72z M123.33,70.59
						c0.61-1.17,1.57-1.81,2.6-1.9c1.41,0.01,2.67,1.27,2.68,2.38c0,0.14-0.02,0.27-0.15,0.35c-0.14,0.08-0.26,0.03-0.37-0.07
						c-0.06-0.06-0.12-0.11-0.18-0.17c-1.56-1.31-2.54-1.36-4.12-0.18c-0.19,0.14-0.38,0.46-0.61,0.27
						C122.89,71.05,123.22,70.8,123.33,70.59z M122.39,77.85c-0.05-1.45,0.31-2.73,1.11-3.88c0.35-0.5,0.79-0.9,1.32-1.19
						c1.56-0.85,2.87-0.38,3.54,1.28c0.92,2.26,0.32,5.54-1.29,7.07c-1.6,1.53-3.65,1.01-4.38-1.08
						C122.44,79.32,122.36,78.57,122.39,77.85z"/>
					<path class="st9" d="M82.47,110.13c1.93,4.51,6.32,7.48,9.92,6.75C91.04,112.83,86.03,109.97,82.47,110.13z"/>
					<path class="st9" d="M132.71,67.98c0.57,2.69,0.32,5.36-0.09,8.03c-0.2,1.3-0.48,2.59-0.74,3.98c2.37-0.85,4.01,0.27,5.57,2.04
						c0-1.22-0.02-2.23,0-3.23c0.09-3.25,0.85-6.31,2.6-9.1c3.17-5.06,7.74-7.38,13.64-6.68c5.04,0.6,8.46,3.52,10.42,8.16
						c1.55,3.68,1.73,7.52,1.35,11.44c-0.41,4.15-1.85,7.88-4.25,11.27c-1.42,2.01-3.22,3.69-4.82,5.55
						c-3.08,3.6-3.81,7.55-1.86,11.95c0.3,0.68,0.56,0.73,1.17,0.39c2.35-1.3,4.71-2.59,7.11-3.8c2.59-1.32,5.32-2.25,8.22-2.65
						c1.32-0.18,2.65,0.01,4-0.16c-0.38-1.39-0.81-2.73-0.94-4.14c-0.28-3.18,0.33-6.3,0.55-9.44c0.43-6.14,0.03-12.17-2.06-18
						c-1.43-3.99-3.77-7.34-7.49-9.56c-5.96-3.57-12.54-4.95-19.36-5.47c-2.53-0.19-5.07-0.15-7.6,0.01
						c-2.19,0.14-4.37,0.38-6.47,1.12c-1.83,0.65-3.43,1.65-4.88,3.07C130.25,63.06,132.01,64.66,132.71,67.98z"/>
					<path class="st9" d="M122.81,91.14c3.48,0.28,6.94,0.27,10.37-0.51c2.61-0.59,5.08-1.46,7.29-3.02
						c0.51-0.36,0.55-0.7,0.13-1.12c-0.19-0.19-0.39-0.4-0.62-0.53c-1.74-0.99-3.23-2.3-4.62-3.72c-1.22-1.24-2.51-1.36-3.96-0.42
						c-1.14,0.74-2.23,1.54-3.36,2.3c-2.86,1.91-5.96,3.46-8.73,5.52c-0.63,0.47-1.21,0.99-1.57,1.74c0.34,0.12,0.64,0.1,0.92,0.03
						C120.03,91.07,121.42,91.03,122.81,91.14z M132.62,86.03c0.48-0.25,0.99-0.42,1.53-0.54c0.3-0.07,0.49-0.01,0.62,0.22
						c0.16,0.28,0.02,0.54-0.21,0.71c-0.49,0.36-1.07,0.49-1.6,0.6c-0.34-0.02-0.64-0.04-0.73-0.36
						C132.15,86.36,132.36,86.17,132.62,86.03z"/>
					<path class="st9" d="M103.49,98.17c-1.21-0.76-2.58-1.07-3.97-1.33c-0.53-0.1-0.75,0.22-1.02,0.58
						c-0.32,0.42,0.1,0.59,0.23,0.83c0.25,0.45,0.59,0.84,0.89,1.26c0.14,0.19,0.33,0.39,0.04,0.62c-0.26,0.2-0.46,0.06-0.65-0.1
						c-0.43-0.37-0.85-0.77-1.28-1.14c-0.5-0.43-0.8,0.18-1.21,0.26c-0.3,0.06-0.37,0.3-0.3,0.57c0.23,0.96,0.48,1.9,0.85,2.81
						c0.3,0.3,0.51,0.66,0.63,1.08c0.01,0.07,0.02,0.14,0.03,0.21c0.08,0.14,0.15,0.28,0.25,0.41c0.77,1.06,1.77,1.77,3.17,1.62
						c2.06-0.22,4.05-2.45,4.06-4.55C105.21,99.94,104.64,98.89,103.49,98.17z"/>
					<path class="st9" d="M105.13,110.55c0.15-0.42-0.01-0.52-0.35-0.42c-0.65,0.19-1.29,0.39-1.93,0.63
						c-3.12,1.16-5.56,3.11-7.13,6.23c0.93-0.12,1.74-0.2,2.54-0.34C101.79,116.02,103.94,113.83,105.13,110.55z"/>
					<path class="st9" d="M97.69,95.43c0-1.61-1.04-2.67-2.62-2.67c-1.59,0-2.91,1.27-2.9,2.79c0.01,1.41,1.36,2.63,2.9,2.61
						C96.56,98.14,97.69,96.96,97.69,95.43z"/>
					<path class="st9" d="M91.55,105.62c-0.1-0.33-0.12-0.65-0.04-0.98c0.01-0.33,0.11-0.63,0.29-0.91c0.08-0.16,0.19-0.29,0.3-0.42
						c0.1-0.13,0.2-0.27,0.32-0.39c0.03-0.03,0.06-0.05,0.09-0.07c0.18-0.15,0.36-0.3,0.56-0.43c0.06-0.04,0.12-0.08,0.19-0.11
						c0.31-0.15,0.65-0.31,0.99-0.38c0.04-0.01,0.08-0.01,0.12-0.02c0.1-0.01,0.19-0.02,0.29-0.04c0.11-0.55,0.19-1.12,0.26-1.69
						c0.07-0.6-0.03-0.88-0.77-0.95c-0.56-0.05-0.84,0.05-1.13,0.47c-0.27,0.4-0.6,0.78-0.91,1.15c-0.14,0.17-0.3,0.34-0.54,0.13
						c-0.18-0.16-0.24-0.33-0.11-0.56c0.23-0.4,0.47-0.79,0.65-1.22c0.1-0.23,0.53-0.48,0.1-0.74c-0.42-0.26-0.53-1-1.3-0.72
						c-1.23,0.46-2.41,0.99-3.46,1.76c-1.48,1.08-2.03,2.9-1.27,4.49c0.86,1.79,2.51,2.42,4.34,2.68c0.55,0.03,1.02-0.09,1.45-0.31
						C91.75,106.17,91.62,105.91,91.55,105.62z"/>
					<path class="st9" d="M90.31,96.65c0.22-0.03,0.45-0.07,0.51-0.41c0.22-1.25,0.09-1.52-1.1-2.02c-0.15-0.06-0.31-0.11-0.45-0.18
						c-0.16-0.08-0.35-0.13-0.28-0.41c0.07-0.31,0.27-0.29,0.49-0.26c0.43,0.06,0.86,0.11,1.29,0.19c0.42,0.08,0.65-0.12,0.87-0.44
						c0.23-0.33,0.06-0.51-0.13-0.77c-0.58-0.84-1.33-1.52-2.09-2.18c-0.7-0.6-1.51-1.06-2.41-1.31c-1.95-0.54-3.5,0.23-4.28,2.23
						c-1.08,2.76-0.34,4.96,2.49,5.67c0.63,0.16,1.27,0.29,1.94,0.28C88.21,96.92,89.26,96.8,90.31,96.65z"/>
					<path class="st9" d="M97.91,92.36c0.28,0.28,0.36,0.84,0.96,0.71c0.32-0.07,0.65-0.17,0.96-0.14c0.36,0.04,0.96-0.33,1.05,0.21
						c0.09,0.5-0.56,0.46-0.91,0.59c-1.1,0.38-1.09,0.36-0.85,1.51c0.07,0.32,0.15,0.42,0.48,0.49c0.62,0.13,1.24,0.13,2,0.13
						c0.6,0.05,1.33-0.05,2.05-0.16c2.5-0.4,3.8-1.8,3.67-4.11c-0.1-1.76-1.06-3.08-2.57-3.89c-1.43-0.77-2.73-0.16-3.93,0.68
						c-1.21,0.85-1.94,2.1-2.77,3.28C97.9,91.86,97.65,92.1,97.91,92.36z"/>
					<path class="st9" d="M92.42,91.19c0.21,0.26,0.29,0.77,0.84,0.55c0.49-0.2,1.09-0.24,1.01-1.03c-0.03-0.26,0.1-0.53,0.15-0.79
						c0.04-0.22,0.08-0.44,0.38-0.44c0.28,0,0.36,0.22,0.41,0.43c0.08,0.34,0.15,0.69,0.19,1.04c0.05,0.44,0.38,0.51,0.71,0.49
						c0.26-0.01,0.55,0.31,0.79-0.2c0.79-1.68,1.35-3.41,1.44-4.88c0.01-2.25-0.81-3.4-2.48-3.84c-0.72-0.19-1.46-0.2-2.18-0.06
						c-2.61,0.48-4.19,2.91-3.24,5.22C90.94,88.93,91.56,90.13,92.42,91.19z"/>
					<path class="st9" d="M116.91,118.87c2.03,1.63,4.29,2.84,6.71,3.77c5.89,2.24,11.96,3.08,18.22,2.17
						c4.55-0.66,8.88-2.11,13.07-3.96c3.78-1.68,7.47-3.59,11.4-4.92c3.58-1.21,7.24-1.7,10.96-0.73c3.22,0.83,5.91,2.53,7.96,5.44
						c0-0.35,0.02-0.49,0-0.62c-0.5-2.95-1.78-5.55-3.62-7.89c-2.22-2.82-5.09-4.3-8.72-4.33c-2.28-0.02-4.46,0.46-6.63,1.09
						c-3.54,1.04-6.69,2.91-9.95,4.56c-5.17,2.61-10.45,4.84-16.31,5.38c-2.73,0.25-5.42,0.17-8.09-0.47
						c-4.79-1.16-8.91-3.5-12.32-7.07c-0.29-0.31-0.45-0.44-0.77,0c-0.83,1.14-1.76,2.21-2.57,3.37
						C115.04,116.36,115.28,117.57,116.91,118.87z"/>
					<path class="st9" d="M149.93,155.99c-2.66,3.95-4.36,8.19-3.63,13.07c0.29,1.95,1.12,3.68,2.57,5.05
						c0.95,0.9,1.56,0.89,2.56,0.04c1.08-0.93,1.95-2.05,2.78-3.2c3-4.19,6.78-7.37,11.61-9.28c2.98-1.17,5.79-2.7,8.56-4.31
						c0.72-0.42,0.81-0.92,0.68-1.59c-0.31-1.7-0.59-3.41-0.96-5.11c-1.25-5.81-3.34-11.25-7.13-15.93
						c-0.93-1.15-1.9-2.28-3.14-3.31c-0.07,1.18-0.16,2.23-0.19,3.28c-0.05,1.55-0.3,3.07-0.77,4.55c-1.26,3.93-3.64,7.15-6.62,9.93
						C153.97,151.29,151.68,153.39,149.93,155.99z"/>
					<path class="st9" d="M162.77,201.21c2.79-4.91,3.76-10.3,3.96-15.86c0.1-2.75-0.15-5.49-0.46-8.23
						c-0.44-3.86-1.23-7.64-2.3-11.37c-0.11-0.4-0.22-0.47-0.59-0.28c-2.45,1.26-4.56,2.94-6.32,5.07
						c-1.44,1.74-2.67,3.65-4.32,5.21c-1.8,1.71-3.62,1.74-5.37,0.02c-1.01-0.99-1.7-2.18-2.23-3.47
						c-1.56-3.77-1.17-7.55,0.12-11.28c1.79-5.2,5.1-9.35,9.12-13.01c4.37-3.97,7.47-8.6,7.51-14.79c0.01-1.92-0.1-3.82-1.22-5.47
						c-1.13-1.67-2.13-3.4-2.83-5.29c-0.17-0.46-0.37-0.4-0.72-0.25c-0.97,0.41-1.95,0.8-2.93,1.19c-4.75,1.94-9.67,3.18-14.78,3.51
						c-3.53,0.23-7.07,0.01-10.54-0.79c-5.19-1.18-10.2-2.78-14.23-6.51c-0.29-0.27-0.45-0.21-0.61,0.09
						c-0.11,0.19-0.22,0.38-0.33,0.56c-2.6,4.33-4.26,9-5.01,13.98c-0.35,2.29-0.46,4.63-0.05,6.92c0.49,2.73,0.25,5.3-0.84,7.87
						c-3.63,8.58-5.64,17.56-6.33,26.83c-0.29,3.89-0.21,7.78,0.27,11.66c0.46,3.7,1.28,7.3,2.65,10.76
						c2.27,5.69,5.64,10.52,10.99,13.76c5.33,3.24,11.17,4.45,17.33,4.47c1.75,0.04,3.48-0.12,5.21-0.31
						c4.24-0.47,8.28-1.58,12.1-3.47C155.37,210.12,159.8,206.46,162.77,201.21z"/>
					<path class="st9" d="M132.63,218.32c-3.41,0.07-6.81-0.12-10.09-1.07c-1.48-0.43-2.69-0.4-4.15,0.19
						c-2.7,1.08-5.54,1.78-8.31,2.69c-1.53,0.5-3.02,1.1-4.55,2.12c1.19-0.06,2.1,0.14,2.93,0.64c0.94,0.57,1.15,1.5,1.21,2.57
						c0.16-0.11,0.24-0.16,0.32-0.22c2.29-1.66,4.67-3.17,7.24-4.36c0.64-0.3,1.28-0.59,2-0.61c0.13,0,0.28-0.04,0.34,0.13
						c0.05,0.15-0.02,0.26-0.14,0.35c-0.13,0.09-0.26,0.19-0.4,0.27c-1.9,1.11-3.72,2.33-5.53,3.59c-0.97,0.67-1.96,1.32-2.96,2.25
						c2.07-0.24,3.95-0.47,5.85-0.19c1.95,0.29,3.81,0.7,4.8,2.77c0.9-0.95,1.84-1.82,2.84-2.61c2.16-1.7,4.54-3.07,6.77-4.67
						c0.97-0.7,1.97-1.38,2.6-2.44C133.96,218.79,133.68,218.3,132.63,218.32z"/>
					<path class="st9" d="M99.19,187.67c-0.07,0.23-0.14,0.46-0.21,0.68c-1.35,4.35-2.95,8.59-5.17,12.58
						c-2.24,4.03-5.13,7.55-8.42,10.75c-0.56,0.54-0.4,0.75,0.14,1.09c1.7,1.05,3.51,1.81,5.46,2.24c2.9,0.63,4.55-0.06,6.12-2.6
						c2.2-3.54,3.75-7.36,5.01-11.32c0.2-0.64,0.15-1.19-0.07-1.8C100.65,195.55,99.81,191.67,99.19,187.67z"/>
					<path class="st9" d="M180.16,196.71c-0.61-3.3-1.1-6.63-1.52-9.96c-0.37-2.91-0.76-5.81-1.09-8.73
						c-0.32-2.89-0.54-5.79-0.86-8.68c-0.34-3.05-0.75-6.09-1.1-9.13c-0.13-1.12-0.14-1.15-1.08-0.62c-2.83,1.6-5.64,3.23-8.65,4.46
						c-0.57,0.24-0.63,0.45-0.45,1.02c1.43,4.61,2.5,9.31,2.94,14.12c0.36,3.99,0.34,7.99-0.28,11.97
						c-0.65,4.13-1.89,8.04-4.04,11.65c-3.16,5.31-7.91,8.8-13.28,11.56c-0.78,0.4-1.59,0.75-2.54,1.2
						c0.73,0.21,1.29,0.36,1.84,0.54c2.59,0.82,5.21,1.49,7.92,1.68c2.56,0.18,5.11-0.05,7.61-0.63
						c6.91-1.58,12.25-5.37,15.97-11.42c0.19-0.31,0.24-0.59,0.16-0.99C181.16,202.08,180.66,199.4,180.16,196.71z"/>
					<path class="st9" d="M205.54,204.77c-4.45-5.71-7.61-12.09-9.66-19.03c-2.39-8.11-3.7-16.42-4.57-24.81
						c-0.44-4.24-0.8-8.5-1.15-12.75c-0.36-4.39-0.81-8.76-1.67-13.08c-0.74-3.75-1.7-7.45-3.62-10.8c-3.45-6.02-8.1-7.7-14.01-7.11
						c-3.89,0.39-7.46,1.96-10.97,3.62c-0.49,0.23-0.48,0.46-0.26,0.93c1.56,3.44,3.81,6.37,6.43,9.06
						c1.83,1.87,3.49,3.89,4.88,6.11c3.94,6.31,5.78,13.3,6.76,20.58c0.42,3.15,0.84,6.29,1.17,9.45c0.4,3.75,0.89,7.5,1.26,11.26
						c0.33,3.38,0.76,6.74,1.21,10.1c0.57,4.29,1.21,8.58,2.08,12.83c0.93,4.51,2.08,8.95,4.08,13.13c0.2,0.41,0.41,0.82,0.63,1.22
						c7.8-0.1,15.75-1.36,22.45-5.49C208.75,208.44,207.04,206.71,205.54,204.77z"/>
					<path class="st9" d="M104.01,150.04c0.28-2.01,0.57-4.03,0.87-6.04c0.35-2.41,0.69-4.83,1.08-7.24
						c0.48-3.04,1.26-6.01,2.13-8.96c-0.19-0.07-0.28,0.06-0.38,0.12c-2.13,1.28-4.38,2.02-6.9,1.5c-0.22-0.05-0.37-0.06-0.53,0.2
						c-0.57,0.9-1.47,1.33-2.46,1.6c-1.33,0.37-2.67,0.66-3.96,1.16c-0.39,0.15-0.62,0.34-0.59,0.83c0.11,1.9,0.24,3.79,0.6,5.67
						c0.37,1.95,1.09,3.79,1.77,5.64c0.22,0.59,0.09,1.08-0.52,1.35c-0.59,0.26-0.97-0.01-1.27-0.52c-0.69-1.15-1.03-2.43-1.38-3.71
						c-0.65-2.39-0.94-4.83-1.02-7.46c-0.49,0.41-0.85,0.7-1.2,1c-0.24,0.2-0.46,0.59-0.79,0.37c-0.35-0.23-0.19-0.63-0.06-0.97
						c0.8-2.03,2.25-3.34,4.32-4c1.26-0.4,2.56-0.67,3.76-1.26c1.44-0.7,1.74-1.6,0.96-2.96c-1.44-2.51-5.43-4.22-8.36-3.05
						c-3.98,1.59-5.92,5.23-6.1,9.39c-0.12,2.82,0.86,5.37,2.37,7.73c2.57,4.02,6.25,6.66,10.57,8.5c2.02,0.86,4.08,1.59,6.29,1.8
						C103.75,150.77,103.95,150.53,104.01,150.04z"/>
					<path class="st9" d="M167.32,218.93c-3.4,0.96-6.86,1.34-10.39,0.88c-0.53-0.07-0.99-0.08-1.2,0.6
						c-0.12,0.39-0.45,0.74-0.73,1.06c-1.57,1.82-3.62,3.03-5.57,4.36c-1.6,1.09-3.19,2.17-4.63,3.75c3.16,0.02,5.91,0.51,6.95,4.02
						c1.43-2.83,3.2-5.29,5.16-7.62c0.23-0.27,0.52-0.83,0.86-0.59c0.43,0.29-0.06,0.74-0.24,1.04c-1.21,2.15-2.48,4.27-3.71,6.4
						c-0.19,0.32-0.47,0.63-0.42,1.12c1.88-0.86,3.75-1.44,5.78-1.45c2-0.01,3.92,0.21,5.36,1.83c1.32-1.75,2.87-5.44,3.54-8.34
						c0.5-2.16,0.74-4.33,0.19-6.52C168.12,218.92,167.95,218.75,167.32,218.93z"/>
					<path class="st9" d="M120.4,109.01c-0.23,0.37-0.03,0.55,0.16,0.77c0.9,1.02,1.89,1.96,2.98,2.79
						c5.29,4.03,11.3,5.22,17.77,4.38c4.01-0.52,7.74-1.99,11.35-3.76c0.5-0.25,0.58-0.5,0.36-1.01c-0.64-1.44-1.04-2.97-1.16-4.54
						c-0.24-3.2,0.75-6.04,2.63-8.61c1.38-1.9,3.06-3.55,4.51-5.38c2.67-3.38,4.23-7.21,4.67-11.5c0.32-3.12,0.18-6.18-0.87-9.16
						c-3.07-8.72-12.9-10.2-18.7-5.19c-4.12,3.56-5.53,8.27-5.13,13.64c0.13,1.68,0.73,2.73,2.2,3.63c2.3,1.41,2.57,3.25,1.2,5.59
						c-0.53,0.91-1.23,1.67-2,2.36c-2.94,2.63-6.39,3.53-10.26,3.08c-2.53-0.29-4.88-1.16-7.22-2.1c-1.04-0.42-2.07-0.78-3.28-0.5
						c0.47,1.44,0.95,2.87,1.41,4.31C122.24,101.62,122.63,105.39,120.4,109.01z M147.89,69.84c2.45-1.82,6.4-0.27,7.03,2.72
						c0.04,0.19,0.11,0.41-0.07,0.52c-0.19,0.12-0.35-0.03-0.49-0.17c-0.31-0.31-0.61-0.62-0.92-0.92c-1.52-1.48-3.32-1.76-5.2-0.81
						c-0.5,0.26-1,0.52-1.59,0.84C146.5,70.84,147.24,70.32,147.89,69.84z M146.16,75.54c0.78-2.13,3.83-3.84,6.05-1.92
						c0.92,0.8,1.48,1.86,1.55,3.05c0.13,2.19-0.3,4.27-1.83,5.97c-0.66,0.73-1.46,1.23-2.42,1.11c-1.52,0.07-2.52-0.59-3.11-1.89
						C145.47,79.79,145.4,77.65,146.16,75.54z"/>
					<path class="st9" d="M124.33,92.82c1.16,0.59,2.37,1,3.61,1.32c3.94,1.03,7.64,0.67,10.9-1.97c1.09-0.88,2.08-1.87,2.57-3.37
						C136.09,92.07,130.32,92.89,124.33,92.82z"/>
					<path class="st9" d="M150.39,77.96c2.03,0,2.03-3.15,0-3.15C148.36,74.81,148.36,77.96,150.39,77.96z"/>
					<path d="M211.71,207.56c-1.64-1.56-3.14-3.27-4.5-5.07c-5.65-7.48-8.84-16.02-10.84-25.08c-0.84-3.81-1.52-7.65-2-11.52
						c-0.37-2.99-0.76-5.98-1.1-8.97c-0.27-2.4-0.44-4.82-0.7-7.22c-0.34-3.1-0.74-6.2-1.1-9.3c-0.36-3.04-0.89-6.05-1.58-9.03
						c-0.37-1.61-0.95-3.18-1.18-4.8c-0.4-2.87-0.67-5.76-1.52-8.55c-1.53-5.02-4.08-9.28-8.89-11.83
						c-0.21-0.11-0.34-0.26-0.42-0.47c-0.82-2.22-1.52-4.45-1.49-6.87c0.04-2.54,0.42-5.04,0.55-7.57c0.2-3.92,0.27-7.83-0.35-11.73
						c-0.16-1.03-0.37-2.05-0.62-3.05c-1.22-4.9-3.78-10.1-7.93-13.16c-0.39-0.29-0.8-0.54-1.21-0.8c0.32-0.34,0.59-0.73,0.7-1.2
						c0.21-0.9-0.27-1.71-0.43-2.56c-0.34-1.89,0.55-4,1.17-5.75c1.34-3.77,2.64-7.55,3.74-11.4c0.32-1.14,1.37-3.55-0.38-4.09
						c-0.64-0.19-1.32,0.04-1.89,0.32c-0.85,0.41-1.65,0.94-2.43,1.47c-0.71,0.48-1.4,0.99-2.07,1.53
						c-0.66,0.53-1.52,1.11-1.98,1.83c-0.42,0.67-0.23,1.4,0.03,2.08c0.32,0.87,0.59,1.75,0.13,2.62c-0.9,1.72-3.13,1.8-4.46,0.56
						c-1.49-1.38-1.37-3.6-0.37-5.23c0.03-0.05,0.04-0.09,0.05-0.13c0.65-0.67,0.77-1.68,0.63-2.63c-0.21-1.42-0.58-2.84-1.01-4.21
						c-0.42-1.34-0.95-2.66-1.6-3.91c-0.33-0.63-0.71-1.25-1.12-1.84c-0.33-0.47-0.7-1.11-1.31-1.25c-0.59-0.14-1.04,0.23-1.47,0.58
						c-0.58,0.48-1.15,0.98-1.69,1.5c-1.02,0.99-1.97,2.05-2.84,3.17c-0.85,1.1-1.72,2.27-2.29,3.54c-0.25,0.56-0.43,1.14-0.48,1.75
						c-0.07,0.82,0.14,1.63,0.25,2.44c0.2,1.39-0.02,2.92-1.01,3.98c-0.66,0.71-1.6,1.14-2.54,1.08c-0.05-0.01-0.1,0-0.15-0.01
						c-0.04,0-0.08-0.02-0.13-0.02c-0.79-0.16-1.5-0.63-2.06-1.42c-0.06-0.08-0.1-0.16-0.15-0.25c-0.28-0.55-0.4-1.19-0.33-1.83
						c0.06-0.62,0.29-1.22,0.64-1.74c0.37-0.54,0.89-0.99,1.07-1.65c0.37-1.29-0.72-2.4-1.48-3.3c-0.99-1.16-2.05-2.3-3.19-3.31
						c-0.75-0.66-2.08-1.33-2.79-0.21c-0.27,0.42-0.29,0.93-0.29,1.42c0,0.91,0.03,1.83,0.05,2.74c0.06,3.73,0.12,7.46,0.19,11.2
						c0.02,0.91,0.03,1.82,0.05,2.74c0.01,0.83,0.11,1.76-0.24,2.54c-0.29,0.65-0.74,1.18-0.93,1.89c-0.15,0.54-0.18,1.1-0.12,1.65
						c-0.56,0.15-1.11,0.32-1.65,0.53c-4.75,1.88-8.41,5.71-10.42,10.36c-2.84,6.61-3.8,13.54-3.27,20.7
						c0.03,0.38-0.05,0.66-0.3,0.96c-0.56,0.67-1.08,1.37-1.58,2.08c-0.38,0.54-0.21,0.98,0.38,1.23c0.47,0.2,0.97,0.34,1.49,0.35
						c0.32,0,0.57,0.02,0.71,0.47c0.57,1.92,1.23,3.81,1.84,5.71c0.85,2.66,0.87,5.27-0.49,7.8c-0.87,1.61-2.05,3-3.18,4.43
						c-1.01,1.27-2.17,2.5-2.49,4.14c-0.17,0.86-0.59,1.54-1,2.26c-0.63,1.11-1.27,2.21-1.88,3.33c-0.57,1.05-1.2,2.07-2,2.96
						c-1.72,1.91-3.77,3.17-6.46,3.1c-0.73-0.02-1.24-0.24-1.53-1.02c-0.88-2.41-2.72-3.86-4.99-4.86c-1.51-0.66-1.48-0.65-0.95-2.3
						c0.21-0.64,0.49-0.88,1.19-0.92c1.81-0.09,3.64-0.17,5.33-0.94c2.94-1.33,4.58-3.81,5.78-6.66c0.21-0.5,0.44-0.99,0.49-1.54
						c0.06-0.69-0.43-1.17-1.1-1.06c-0.77,0.13-1.55,0.26-2.3,0.48c-3.19,0.92-6.12,2.26-7.99,5.21c-0.07,0.11-0.19,0.18-0.33,0.31
						c0.26-2.63,0.52-5.21,0.79-7.9c-0.04,0.01-0.07,0.04-0.11,0.05c-0.2,0.1-0.41,0.16-0.63,0.18c-0.15,0.16-0.32,0.3-0.52,0.41
						c-0.19,0.08-0.39,0.16-0.58,0.25c-0.05,0.01-0.1,0.01-0.15,0.02c-0.02,2.67-0.5,5.29-0.89,8.1c-0.2-0.37-0.3-0.55-0.4-0.74
						c-1.58-2.79-3.72-4.9-6.92-5.79c-2.09-0.59-4.21-0.43-6.32-0.44c-0.32,0-0.67,0.12-0.81,0.46c-0.17,0.39,0.05,0.7,0.32,0.94
						c1.22,1.11,2.13,2.46,3.02,3.84c1.47,2.27,3.56,3.68,6.14,4.42c1.23,0.35,2.5,0.44,3.76,0.65c0.17,0.03,0.49-0.09,0.45,0.19
						c-0.09,0.61-0.21,1.24-0.45,1.8c-0.14,0.33-0.62,0.26-0.96,0.28c-1.56,0.11-2.95,0.65-4.23,1.51
						c-4.11,2.77-6.13,8.44-4.87,13.56c1.19,4.89,4.08,8.6,8.08,11.47c3.86,2.78,8.17,4.54,12.93,5.07c0.61,0.07,0.46,0.34,0.35,0.7
						c-1.42,4.86-2.58,9.78-3.38,14.78c-0.44,2.76-0.87,5.52-1.05,8.31c-0.1,1.49-0.1,3.01-0.4,4.47
						c-0.98,4.64-2.47,9.13-4.37,13.48c-2.44,5.57-5.52,10.72-10.04,14.9c-0.62,0.57-1.26,1.12-1.87,1.71
						c-0.93,0.9-0.91,1.71,0.1,2.53c0.52,0.43,1.09,0.83,1.68,1.15c2.4,1.29,4.92,2.33,7.64,2.58c2.51,0.22,4.96-0.16,6.69-2.34
						c0.13-0.16,0.29-0.25,0.46-0.31c1.38-0.49,2.79-0.85,4.24-1.06c2.76-0.4,5.53-0.28,8.31-0.22c2.53,0.06,4.36,1.56,6.65,2.37
						c-1.3,0.62-2.53,0.94-3.75,1.28c-3.76,1.06-7.45,2.28-10.85,4.25c-0.68,0.4-1.35,0.81-1.88,1.42
						c-0.29,0.34-0.43,0.72-0.26,1.13c0.16,0.37,0.54,0.38,0.9,0.43c1.28,0.16,2.56,0.02,3.84,0.09c1.55,0.08,2.02,0.91,1.25,2.26
						c-0.35,0.61-0.78,1.17-1.15,1.77c-0.2,0.32-0.25,0.68-0.03,1c0.24,0.35,0.62,0.3,0.97,0.23c0.32-0.06,0.63-0.16,0.95-0.22
						c2.26-0.46,4.51-1.01,6.84-0.87c2.05,0.12,4.07,0.37,4.71,2.87c0.19,0.74,0.79,0.87,1.42,0.66c0.31-0.11,0.59-0.39,0.83-0.64
						c1.54-1.56,3.22-2.93,4.99-4.21c2.12-1.52,4.4-2.8,6.41-4.48c1.29-1.08,2.48-2.25,2.39-4.13c-0.02-0.43,0.25-0.4,0.53-0.4
						c0.98,0,1.95-0.14,2.92-0.28c1.61-0.23,3.21-0.55,4.83-0.68c3.61-0.29,6.86,1.16,10.24,2.21c-0.55,0.86-1.2,1.5-1.9,2.11
						c-2.03,1.74-4.32,3.11-6.49,4.66c-1.65,1.18-3.16,2.51-4.2,4.29c-0.53,0.91-0.16,1.49,0.87,1.45c1.28-0.05,2.55-0.23,3.83-0.18
						c1.69,0.07,2.93,0.97,3.47,2.57c0.22,0.65,0.28,1.32,0.32,2c0.04,0.96,0.52,1.21,1.34,0.76c0.5-0.27,0.98-0.58,1.47-0.87
						c2.22-1.34,4.59-2.05,7.21-1.84c1.28,0.11,2.44,0.53,3.11,1.65c1.06,1.78,1.55,1,2.41-0.01c0.05-0.06,0.09-0.14,0.13-0.21
						c2.03-3.03,3.26-6.4,4.09-9.92c0.58-2.47,0.95-4.97,0.01-7.45c-0.08-0.2-0.02-0.33,0.15-0.38c0.98-0.28,1.81-0.89,2.91-0.9
						c6.98-0.08,13.83,2.11,20.82,1.62c3.86-0.27,7.66-1.19,11.27-2.55c1.87-0.7,3.69-1.53,5.45-2.47c1.12-0.59,3.26-0.9,3.74-2.18
						c0.01-0.02,0.02-0.04,0.02-0.07C214.98,209.7,212.77,208.58,211.71,207.56z M102.85,110.76c0.63-0.24,1.28-0.44,1.93-0.63
						c0.35-0.1,0.51-0.01,0.35,0.42c-1.19,3.28-3.34,5.47-6.87,6.1c-0.8,0.14-1.61,0.22-2.54,0.34
						C97.28,113.88,99.73,111.93,102.85,110.76z M82.47,110.13c3.56-0.15,8.57,2.7,9.92,6.75C88.79,117.61,84.4,114.64,82.47,110.13
						z M138.64,37.91c0.06,0.08,0.09,0.18,0.16,0.25c0.65,0.79,0.73,1.44,0.06,2.42c-1.69,2.47-0.57,5.98,2.1,7.05
						c2.47,0.99,5.8-0.84,6.33-3.45c0.26-1.29,0.27-2.56-0.22-3.8c-0.13-0.33-0.1-0.63,0.03-0.97c1.39-3.43,3.57-6.29,6.34-8.73
						c0.21-0.18,0.36-0.29,0.55,0.04c1.81,3.09,3.17,6.34,3.59,9.94c0.06,0.48-0.03,0.89-0.29,1.29c-0.88,1.35-1.37,2.81-1.13,4.45
						c0.44,3.09,3.96,5.04,6.65,3.69c2.09-1.05,3.17-3.59,2.35-5.87c-0.33-0.93-0.14-1.44,0.56-2.02c1.4-1.15,2.85-2.22,4.59-2.81
						c0.16-0.05,0.34-0.22,0.49-0.05c0.12,0.14-0.04,0.29-0.09,0.44c-1.63,5.25-3.26,10.51-4.89,15.76
						c-0.15,0.49-0.31,0.98-0.46,1.47c-0.07,0.25-0.17,0.27-0.37,0.12c-2.56-1.88-5.52-2.84-8.53-3.64
						c-3.26-0.86-6.57-1.48-9.96-1.6c-2.78-0.1-5.54-0.13-8.29,0.31c-0.86,0.14-1.71,0.36-2.51,0.72c-0.32,0.14-0.44,0.14-0.45-0.28
						c-0.11-5.03-0.24-10.05-0.37-15.07c-0.03-1.14-0.06-2.28-0.1-3.55C136.43,35.07,137.63,36.4,138.64,37.91z M134.72,54.8
						c0.91-0.76,2.01-1.11,3.14-1.36c2.2-0.47,4.43-0.53,6.68-0.53c2.79,0.01,5.55,0.32,8.27,0.85c3.8,0.73,7.53,1.74,10.87,3.81
						c0.71,0.44,1.34,0.99,1.75,1.75c0.46,0.83,0.42,1.67-0.06,2.32c-0.79-0.44-1.6-0.84-2.43-1.21c-1.13-1.01-2.53-1.53-3.93-2.03
						c-3.35-1.2-6.82-1.93-10.36-2.3c-3.39-0.35-6.79-0.51-10.19,0.06c-0.38,0.07-0.76,0.16-1.13,0.27
						c-1.13,0.11-2.28,0.22-3.42,0.42C133.78,56.13,134.07,55.34,134.72,54.8z M131.68,59.67c2.09-0.75,4.27-0.98,6.47-1.12
						c2.53-0.17,5.06-0.21,7.6-0.01c6.82,0.52,13.4,1.91,19.36,5.47c3.72,2.23,6.06,5.57,7.49,9.56c2.09,5.83,2.49,11.86,2.06,18
						c-0.22,3.14-0.83,6.26-0.55,9.44c0.12,1.41,0.56,2.75,0.94,4.14c-1.35,0.17-2.67-0.02-4,0.16c-2.91,0.4-5.63,1.33-8.22,2.65
						c-2.4,1.22-4.75,2.51-7.11,3.8c-0.61,0.34-0.87,0.28-1.17-0.39c-1.95-4.4-1.22-8.35,1.86-11.95c1.59-1.86,3.39-3.54,4.82-5.55
						c2.4-3.39,3.84-7.12,4.25-11.27c0.38-3.92,0.2-7.77-1.35-11.44c-1.96-4.64-5.38-7.57-10.42-8.16
						c-5.9-0.7-10.47,1.63-13.64,6.68c-1.75,2.79-2.51,5.85-2.6,9.1c-0.03,1.01,0,2.02,0,3.23c-1.56-1.77-3.19-2.89-5.57-2.04
						c0.26-1.39,0.54-2.68,0.74-3.98c0.41-2.67,0.66-5.34,0.09-8.03c-0.7-3.32-2.46-4.92-5.91-5.24
						C128.24,61.32,129.85,60.32,131.68,59.67z M119.1,80.31c0.26-3.66,1.14-7.15,2.64-10.49c0.45-0.99,0.95-1.95,1.55-2.86
						c1.28-1.93,4.31-2.61,6.13-1.38c1.33,0.9,1.82,2.3,1.96,3.78c0.36,3.81-0.38,7.51-1.27,11.19c-0.07,0.28-0.22,0.42-0.41,0.56
						c-3.36,2.45-7.05,4.39-10.56,6.61c-0.04,0.02-0.1,0.01-0.17,0.01C118.65,85.25,118.92,82.78,119.1,80.31z M118.67,91.4
						c-0.28,0.07-0.58,0.09-0.92-0.03c0.36-0.75,0.94-1.27,1.57-1.74c2.77-2.06,5.87-3.6,8.73-5.52c1.13-0.75,2.22-1.56,3.36-2.3
						c1.45-0.94,2.74-0.82,3.96,0.42c1.4,1.42,2.88,2.73,4.62,3.72c0.23,0.13,0.43,0.34,0.62,0.53c0.42,0.42,0.38,0.76-0.13,1.12
						c-2.21,1.55-4.68,2.42-7.29,3.02c-3.43,0.78-6.89,0.78-10.37,0.51C121.42,91.03,120.03,91.07,118.67,91.4z M141.41,88.81
						c-0.49,1.5-1.48,2.49-2.57,3.37c-3.27,2.64-6.97,2.99-10.9,1.97c-1.24-0.32-2.44-0.74-3.61-1.32
						C130.32,92.89,136.09,92.07,141.41,88.81z M119.61,93.49c1.21-0.28,2.24,0.08,3.28,0.5c2.33,0.94,4.69,1.81,7.22,2.1
						c3.87,0.45,7.33-0.45,10.26-3.08c0.77-0.69,1.47-1.45,2-2.36c1.36-2.34,1.09-4.18-1.2-5.59c-1.47-0.9-2.07-1.95-2.2-3.63
						c-0.4-5.37,1.01-10.08,5.13-13.64c5.8-5.01,15.63-3.54,18.7,5.19c1.05,2.98,1.19,6.04,0.87,9.16c-0.44,4.3-2,8.13-4.67,11.5
						c-1.45,1.84-3.13,3.48-4.51,5.38c-1.87,2.57-2.87,5.4-2.63,8.61c0.12,1.58,0.52,3.1,1.16,4.54c0.23,0.51,0.15,0.77-0.36,1.01
						c-3.61,1.77-7.34,3.24-11.35,3.76c-6.47,0.85-12.48-0.34-17.77-4.38c-1.09-0.83-2.08-1.76-2.98-2.79
						c-0.19-0.22-0.39-0.4-0.16-0.77c2.23-3.62,1.84-7.4,0.62-11.21C120.56,96.36,120.08,94.93,119.61,93.49z M116.24,114.65
						c0.81-1.16,1.74-2.23,2.57-3.37c0.32-0.44,0.47-0.3,0.77,0c3.41,3.57,7.53,5.9,12.32,7.07c2.67,0.65,5.37,0.72,8.09,0.47
						c5.85-0.54,11.14-2.77,16.31-5.38c3.26-1.64,6.42-3.52,9.95-4.56c2.16-0.64,4.35-1.11,6.63-1.09c3.63,0.03,6.49,1.51,8.72,4.33
						c1.84,2.34,3.12,4.94,3.62,7.89c0.02,0.13,0,0.27,0,0.62c-2.05-2.91-4.74-4.61-7.96-5.44c-3.72-0.96-7.38-0.48-10.96,0.73
						c-3.93,1.33-7.62,3.24-11.4,4.92c-4.2,1.86-8.52,3.31-13.07,3.96c-6.26,0.9-12.33,0.07-18.22-2.17
						c-2.42-0.92-4.68-2.14-6.71-3.77C115.28,117.57,115.04,116.36,116.24,114.65z M103.18,150.72c-2.21-0.21-4.27-0.94-6.29-1.8
						c-4.32-1.84-8-4.48-10.57-8.5c-1.51-2.35-2.49-4.91-2.37-7.73c0.18-4.16,2.12-7.8,6.1-9.39c2.93-1.17,6.92,0.54,8.36,3.05
						c0.78,1.36,0.48,2.25-0.96,2.96c-1.2,0.58-2.5,0.85-3.76,1.26c-2.08,0.66-3.53,1.97-4.32,4c-0.13,0.33-0.29,0.74,0.06,0.97
						c0.33,0.22,0.56-0.17,0.79-0.37c0.35-0.3,0.71-0.59,1.2-1c0.09,2.64,0.37,5.08,1.02,7.46c0.35,1.28,0.69,2.56,1.38,3.71
						c0.3,0.51,0.68,0.78,1.27,0.52c0.62-0.27,0.74-0.75,0.52-1.35c-0.68-1.85-1.4-3.69-1.77-5.64c-0.35-1.88-0.49-3.77-0.6-5.67
						c-0.03-0.49,0.2-0.68,0.59-0.83c1.29-0.5,2.64-0.79,3.96-1.16c0.99-0.27,1.89-0.7,2.46-1.6c0.16-0.26,0.31-0.24,0.53-0.2
						c2.52,0.52,4.77-0.22,6.9-1.5c0.11-0.06,0.19-0.19,0.38-0.12c-0.87,2.95-1.65,5.92-2.13,8.96c-0.38,2.41-0.73,4.82-1.08,7.24
						c-0.29,2.01-0.58,4.02-0.87,6.04C103.95,150.53,103.75,150.77,103.18,150.72z M102.11,201.09c-1.26,3.96-2.81,7.78-5.01,11.32
						c-1.57,2.54-3.22,3.23-6.12,2.6c-1.95-0.42-3.76-1.18-5.46-2.24c-0.54-0.33-0.7-0.54-0.14-1.09c3.29-3.2,6.18-6.72,8.42-10.75
						c2.22-3.99,3.82-8.23,5.17-12.58c0.07-0.23,0.14-0.46,0.21-0.68c0.62,4,1.46,7.87,2.85,11.62
						C102.26,199.9,102.32,200.45,102.11,201.09z M133.4,219.72c-0.63,1.05-1.63,1.74-2.6,2.44c-2.23,1.6-4.61,2.97-6.77,4.67
						c-1.01,0.79-1.94,1.66-2.84,2.61c-0.99-2.06-2.85-2.48-4.8-2.77c-1.9-0.28-3.78-0.05-5.85,0.19c0.99-0.94,1.99-1.58,2.96-2.25
						c1.81-1.25,3.64-2.47,5.53-3.59c0.14-0.08,0.27-0.18,0.4-0.27c0.12-0.08,0.19-0.2,0.14-0.35c-0.06-0.17-0.21-0.14-0.34-0.13
						c-0.72,0.02-1.37,0.31-2,0.61c-2.57,1.19-4.95,2.7-7.24,4.36c-0.08,0.06-0.17,0.12-0.32,0.22c-0.06-1.07-0.28-2-1.21-2.57
						c-0.83-0.5-1.74-0.7-2.93-0.64c1.53-1.02,3.02-1.62,4.55-2.12c2.77-0.9,5.62-1.61,8.31-2.69c1.46-0.58,2.67-0.61,4.15-0.19
						c3.28,0.95,6.68,1.14,10.09,1.07C133.68,218.3,133.96,218.79,133.4,219.72z M137.93,216.21c-1.73,0.19-3.47,0.35-5.21,0.31
						c-6.15-0.02-12-1.23-17.33-4.47c-5.34-3.25-8.72-8.07-10.99-13.76c-1.38-3.46-2.19-7.06-2.65-10.76
						c-0.49-3.88-0.56-7.78-0.27-11.66c0.69-9.27,2.7-18.25,6.33-26.83c1.08-2.56,1.33-5.14,0.84-7.87
						c-0.41-2.29-0.3-4.63,0.05-6.92c0.75-4.98,2.41-9.65,5.01-13.98c0.11-0.19,0.22-0.37,0.33-0.56c0.17-0.3,0.32-0.36,0.61-0.09
						c4.03,3.73,9.04,5.33,14.23,6.51c3.47,0.79,7.01,1.02,10.54,0.79c5.11-0.33,10.04-1.58,14.78-3.51
						c0.98-0.4,1.96-0.78,2.93-1.19c0.34-0.15,0.54-0.21,0.72,0.25c0.7,1.89,1.71,3.62,2.83,5.29c1.12,1.66,1.23,3.55,1.22,5.47
						c-0.03,6.18-3.14,10.81-7.51,14.79c-4.02,3.65-7.33,7.81-9.12,13.01c-1.29,3.73-1.68,7.51-0.12,11.28
						c0.53,1.29,1.22,2.48,2.23,3.47c1.76,1.71,3.57,1.69,5.37-0.02c1.65-1.57,2.88-3.48,4.32-5.21c1.76-2.13,3.87-3.81,6.32-5.07
						c0.37-0.19,0.47-0.11,0.59,0.28c1.06,3.73,1.85,7.51,2.3,11.37c0.32,2.74,0.56,5.48,0.46,8.23c-0.2,5.56-1.17,10.95-3.96,15.86
						c-2.97,5.24-7.4,8.9-12.75,11.53C146.2,214.63,142.16,215.75,137.93,216.21z M162.86,139.25c0.48-1.48,0.72-3,0.77-4.55
						c0.04-1.05,0.12-2.1,0.19-3.28c1.24,1.03,2.21,2.16,3.14,3.31c3.79,4.67,5.88,10.12,7.13,15.93c0.36,1.69,0.65,3.4,0.96,5.11
						c0.12,0.68,0.04,1.17-0.68,1.59c-2.77,1.61-5.58,3.14-8.56,4.31c-4.84,1.9-8.61,5.09-11.61,9.28c-0.82,1.15-1.7,2.27-2.78,3.2
						c-0.99,0.85-1.61,0.86-2.56-0.04c-1.45-1.37-2.28-3.1-2.57-5.05c-0.73-4.89,0.97-9.12,3.63-13.07c1.75-2.6,4.04-4.69,6.32-6.81
						C159.23,146.4,161.6,143.18,162.86,139.25z M168.06,226c-0.68,2.9-2.23,6.6-3.54,8.34c-1.44-1.62-3.35-1.84-5.36-1.83
						c-2.02,0.01-3.9,0.59-5.78,1.45c-0.05-0.49,0.24-0.8,0.42-1.12c1.23-2.14,2.49-4.26,3.71-6.4c0.17-0.3,0.67-0.75,0.24-1.04
						c-0.34-0.23-0.63,0.33-0.86,0.59c-1.96,2.33-3.74,4.79-5.16,7.62c-1.04-3.51-3.79-3.99-6.95-4.02
						c1.44-1.58,3.03-2.67,4.63-3.75c1.95-1.33,4.01-2.54,5.57-4.36c0.28-0.33,0.61-0.67,0.73-1.06c0.21-0.68,0.67-0.67,1.2-0.6
						c3.53,0.46,6.99,0.08,10.39-0.88c0.64-0.18,0.8-0.01,0.94,0.55C168.81,221.67,168.57,223.83,168.06,226z M181.55,205.75
						c-3.72,6.05-9.06,9.83-15.97,11.42c-2.5,0.57-5.05,0.8-7.61,0.63c-2.71-0.19-5.34-0.86-7.92-1.68
						c-0.55-0.17-1.11-0.32-1.84-0.54c0.95-0.45,1.76-0.8,2.54-1.2c5.38-2.76,10.12-6.25,13.28-11.56
						c2.15-3.61,3.39-7.52,4.04-11.65c0.62-3.98,0.64-7.98,0.28-11.97c-0.44-4.81-1.51-9.51-2.94-14.12
						c-0.18-0.57-0.12-0.78,0.45-1.02c3.01-1.23,5.82-2.87,8.65-4.46c0.94-0.53,0.95-0.5,1.08,0.62c0.35,3.05,0.77,6.08,1.1,9.13
						c0.32,2.89,0.54,5.79,0.86,8.68c0.33,2.91,0.72,5.82,1.09,8.73c0.42,3.33,0.91,6.66,1.52,9.96c0.5,2.69,0.99,5.37,1.54,8.05
						C181.78,205.15,181.74,205.44,181.55,205.75z M188.14,215.5c-0.22-0.4-0.43-0.81-0.63-1.22c-2-4.18-3.15-8.62-4.08-13.13
						c-0.87-4.25-1.51-8.54-2.08-12.83c-0.45-3.36-0.88-6.73-1.21-10.1c-0.36-3.76-0.86-7.5-1.26-11.26
						c-0.33-3.16-0.75-6.3-1.17-9.45c-0.98-7.28-2.81-14.27-6.76-20.58c-1.39-2.23-3.06-4.24-4.88-6.11
						c-2.62-2.69-4.88-5.62-6.43-9.06c-0.21-0.47-0.22-0.7,0.26-0.93c3.51-1.66,7.08-3.23,10.97-3.62
						c5.91-0.59,10.56,1.09,14.01,7.11c1.92,3.35,2.88,7.05,3.62,10.8c0.85,4.32,1.31,8.69,1.67,13.08
						c0.34,4.25,0.7,8.51,1.15,12.75c0.87,8.39,2.18,16.7,4.57,24.81c2.05,6.93,5.21,13.31,9.66,19.03
						c1.51,1.94,3.21,3.66,5.05,5.24C203.88,214.15,195.94,215.4,188.14,215.5z"/>
					<path d="M149.5,83.76c0.97,0.12,1.77-0.38,2.42-1.11c1.53-1.7,1.96-3.78,1.83-5.97c-0.07-1.18-0.62-2.25-1.55-3.05
						c-2.21-1.92-5.27-0.21-6.05,1.92c-0.77,2.11-0.7,4.25,0.23,6.33C146.98,83.17,147.98,83.82,149.5,83.76z M150.39,74.81
						c2.03,0,2.03,3.15,0,3.15C148.36,77.96,148.36,74.81,150.39,74.81z"/>
					<path d="M148.23,71.18c1.88-0.96,3.68-0.68,5.2,0.81c0.31,0.3,0.61,0.61,0.92,0.92c0.14,0.14,0.3,0.3,0.49,0.17
						c0.18-0.12,0.11-0.34,0.07-0.52c-0.63-2.99-4.58-4.54-7.03-2.72c-0.65,0.48-1.38,1-1.24,2.18
						C147.23,71.7,147.73,71.43,148.23,71.18z"/>
					<path d="M127.08,81.13c1.61-1.53,2.2-4.81,1.29-7.07c-0.67-1.65-1.98-2.13-3.54-1.28c-0.53,0.29-0.98,0.69-1.32,1.19
						c-0.8,1.15-1.16,2.44-1.11,3.88c-0.03,0.72,0.05,1.46,0.3,2.2C123.43,82.14,125.48,82.65,127.08,81.13z M126.26,73.56
						c2.03,0,2.03,3.15,0,3.15C124.23,76.71,124.23,73.56,126.26,73.56z"/>
					<path d="M123.78,71c1.59-1.17,2.57-1.13,4.12,0.18c0.06,0.05,0.12,0.11,0.18,0.17c0.11,0.1,0.23,0.15,0.37,0.07
						c0.14-0.08,0.15-0.21,0.15-0.35c0-1.11-1.26-2.37-2.68-2.38c-1.03,0.09-1.99,0.73-2.6,1.9c-0.11,0.21-0.44,0.46-0.16,0.69
						C123.4,71.46,123.59,71.14,123.78,71z"/>
					<path d="M132.96,87.03c0.52-0.11,1.1-0.24,1.6-0.6c0.24-0.17,0.37-0.43,0.21-0.71c-0.13-0.23-0.32-0.29-0.62-0.22
						c-0.53,0.12-1.04,0.29-1.53,0.54c-0.26,0.14-0.47,0.33-0.39,0.64C132.31,86.98,132.61,87.01,132.96,87.03z"/>
					<path d="M152.08,49.12c2.35-1.47,3.39-3.69,3.5-6.38c0.09-2.1-0.92-3.76-2.22-5.3c-0.38-0.45-0.84-0.48-1.33-0.18
						c-1.96,1.22-3.31,2.87-3.67,5.27c-0.25,2.21,0.03,4.33,1.55,6.16C150.63,49.55,151.17,49.69,152.08,49.12z M149.31,43.58
						c0.35-2.67,1.45-4.02,2.97-5.07c0.25-0.18,0.42-0.11,0.6,0.11c2.64,3.29,1.92,7.25-1.29,9.42c-0.33,0.22-0.55,0.2-0.78-0.13
						C149.73,46.37,149.19,44.7,149.31,43.58z"/>
				</g>
				<g>
					<path class="st3" d="M149.07,175.73c-4.48-2.87-4.5-9.18-3.44-13.85c0.46-2.03,1.4-4.01,2.43-5.8
						c0.62-1.07,1.33-2.13,2.19-3.05c-4.44-3.7-8.71-7.59-12.78-11.68c-0.82-0.82-1.63-1.65-2.43-2.49
						c-0.62-0.65-1.32-1.62-2.34-1.33c-0.88,0.25-1.12,1.16-1.4,1.92c-0.39,1.05-0.82,2.09-1.29,3.11
						c-1.88,4.13-4.31,7.98-6.81,11.77c-2.84,4.3-5.77,8.53-8.27,13.04c-0.09,0.16-0.11,0.32-0.09,0.45
						c-0.12,0.3-0.09,0.65,0.22,0.92c8.62,7.34,17.01,14.95,25.14,22.83c0.38,0.37,1.04,0.09,1.22-0.33
						c2.3-5.31,5.02-10.42,8.12-15.29C149.38,175.89,149.22,175.82,149.07,175.73z"/>
					<path class="st7" d="M148.57,155.26c0.3-0.48,0.63-0.94,0.97-1.39c-1.09-1.03-2.19-2.05-3.28-3.08
						c-4.18-3.92-8.36-7.84-12.54-11.76c-0.68-0.64-1.65,0.43-1.11,1.13c3.25,4.25,7.45,7.66,11.46,11.17
						C145.55,152.65,147.05,153.96,148.57,155.26z"/>
					<path class="st7" d="M146.52,173.05c-3.18,4.6-6.06,9.41-8.58,14.41c-0.29,0.57,0.17,1.02,0.68,1.06
						c-0.04,0.73,0.21,1.45,0.89,1.87c0.4,0.25,1.05,0.2,1.22-0.33c1.1-3.42,2.93-6.5,4.84-9.52c1.06-1.68,2.14-3.35,3.2-5.03
						C147.83,174.84,147.08,174,146.52,173.05z"/>
					<path class="st8" d="M126.04,164.7c0.46-0.8,0.92-1.6,1.37-2.4c0.88-1.54,1.77-3.08,2.65-4.62c1.8-3.14,3.6-6.27,5.4-9.41
						c0.54-0.94-0.17-2.24-1.08-2.62c-1.11-0.46-2.08,0.14-2.62,1.08c-3.47,6.05-7,12.06-10.41,18.14c-0.45,0.8-0.68,1.61-0.29,2.51
						c0.33,0.76,1.04,1.3,1.61,1.88c1.23,1.23,2.45,2.46,3.68,3.69c2.55,2.55,5.09,5.1,7.64,7.66c0.76,0.76,1.89,1.06,2.81,0.34
						c0.77-0.61,1.11-2.04,0.34-2.81l-6.36-6.38c-1.04-1.04-2.07-2.08-3.11-3.12c-0.52-0.52-1.04-1.04-1.56-1.56
						c-0.23-0.23-0.65-0.56-0.98-0.87c0.12-0.18,0.26-0.36,0.32-0.48C125.64,165.39,125.84,165.05,126.04,164.7z"/>
					<path class="st1" d="M129.22,151.73c-2.72,5.02-5.66,9.92-8.79,14.7c-0.56,0.86,0.71,1.83,1.28,0.97
						c3.2-4.89,6.2-9.92,8.99-15.06C131.2,151.44,129.71,150.84,129.22,151.73z"/>
					<path class="st1" d="M132.68,148.37c0.12-0.17,0.18-0.38,0.16-0.59c-0.03-0.19-0.14-0.42-0.31-0.53
						c-0.17-0.12-0.38-0.19-0.59-0.16c-0.21,0.04-0.4,0.13-0.53,0.31c-0.45,0.63-0.74,1.36-0.85,2.12c-0.03,0.21,0.04,0.44,0.16,0.6
						c0.12,0.15,0.33,0.28,0.52,0.3c0.21,0.02,0.44-0.02,0.6-0.16c0.16-0.14,0.27-0.31,0.3-0.52c0.02-0.13,0.05-0.26,0.08-0.38
						c0.08-0.26,0.18-0.52,0.31-0.76C132.58,148.52,132.63,148.44,132.68,148.37z"/>
					<path class="st1" d="M130.85,177.24c-1.82-1.59-3.52-3.32-5.09-5.16c-0.28-0.33-0.77-0.41-1.12-0.14
						c-0.33,0.26-0.42,0.79-0.14,1.12c1.66,1.94,3.46,3.77,5.38,5.45c0.33,0.29,0.87,0.17,1.12-0.15
						C131.28,178,131.18,177.53,130.85,177.24z"/>
					<path d="M151.43,174.23c-0.72,0.73-1.8,0.71-2.67,0.23c-1.03-0.57-1.49-1.61-1.84-2.68c-0.76-2.3-1.26-4.79-0.79-7.2
						c0.79-4.02,2.94-8.21,5.76-11.18c0.89-0.93-0.53-2.35-1.41-1.41c-0.21,0.23-0.4,0.47-0.61,0.71
						c-4.29-3.6-8.44-7.37-12.39-11.34c-0.82-0.82-1.63-1.65-2.43-2.49c-0.62-0.65-1.32-1.62-2.34-1.33
						c-0.88,0.25-1.12,1.16-1.4,1.92c-0.39,1.05-0.82,2.09-1.29,3.11c-1.88,4.13-4.31,7.98-6.81,11.77
						c-2.84,4.3-5.77,8.53-8.27,13.04c-0.09,0.16-0.11,0.32-0.09,0.45c-0.12,0.3-0.09,0.65,0.22,0.92
						c8.62,7.34,17.01,14.95,25.14,22.83c0.38,0.37,1.04,0.09,1.22-0.33c2.19-5.05,4.77-9.92,7.68-14.57
						c1.32,0.28,2.72,0.01,3.74-1.02C153.75,174.72,152.34,173.31,151.43,174.23z M140.42,189.58
						c-7.76-7.48-15.74-14.73-23.94-21.72c4.15-7.44,9.53-14.13,13.52-21.67c0.99-1.88,1.89-3.81,2.65-5.8
						c0.02-0.06,0.41-1.26,0.42-1.26c0.18-0.03,0.92,0.96,1.09,1.13c0.85,0.88,1.7,1.75,2.57,2.61c3.25,3.24,6.61,6.36,10.08,9.35
						c0.68,0.58,1.36,1.16,2.05,1.73c-1.15,1.54-2.1,3.22-2.88,4.99c-1.16,2.64-2.16,5.39-2,8.32c0.14,2.58,0.74,6.1,2.61,8.03
						c0.3,0.32,0.66,0.57,1.03,0.79C144.91,180.4,142.5,184.91,140.42,189.58z"/>
				</g>
			</g>
			<path d="M104.59,91.72c-0.2-1.28-0.48-2.55-0.63-3.84c-0.15-1.33-0.11-2.63,0.06-3.95c0.1-0.78,0.33-2.14-0.91-2
				c-0.54,0.06-1.05,0.41-1.47,0.83c-0.27-1.58-1.22-2.97-2.56-3.86c-1.72-1.15-3.94-1.37-5.93-0.98c-1.04,0.2-1.98,0.65-2.75,1.39
				c-0.35,0.34-0.65,0.73-0.93,1.12c-0.14,0.19-0.27,0.4-0.41,0.59c-0.24,0.32-0.29,0.21-0.67,0.12c-1.88-0.46-3.86,0.34-5.25,1.59
				c-1.46,1.31-2.4,3.32-2.04,5.28c-0.44,0.19-0.76,0.61-0.88,1.11c-0.2,0.82,0.25,1.55,0.75,2.17c0.64,0.8,1.17,1.55,1.5,2.53
				c0.31,0.95,0.47,1.95,0.62,2.93c0.26,1.79,0.49,3.64,1.4,5.25c0.95,1.68,2.58,2.6,4.44,2.94c0.7,0.13,1.43,0.21,2.16,0.28
				c-0.01,0.06,0,0.13,0.02,0.19c0.6,1.63,1.91,3.2,3.79,3.19c0.81,0,1.64-0.31,2.17-0.93c0.66-0.77,0.74-1.8,0.74-2.77
				c0-0.01-0.01-0.02-0.01-0.04c0.23-0.06,0.45-0.14,0.67-0.23c0.92-0.37,1.6-0.98,2.29-1.68c1.41-1.41,2.82-2.9,3.55-4.8
				C105.11,96.11,104.93,93.84,104.59,91.72z M86.81,90.67c-1.28-0.4-2.41-0.89-3.52-1.44c-0.11-0.05-0.15-0.15-0.19-0.26
				c-0.98-2.65-0.41-4.66,2.31-5.95c0.87-0.41,1.8-0.57,2.76-0.49c0.41,0.03,0.64,0.12,0.48,0.67c-0.21,0.73-0.43,1.38-0.98,1.97
				c-0.74,0.8-0.98,1.87-1,2.94C86.66,88.94,86.56,89.77,86.81,90.67z M92.14,87.09c0.18,1.05,0.18,1.05-0.85,1.25
				c-0.45,0.09-0.9,0.17-1.34,0.11c-0.62,0.06-1.18-0.07-1.72-0.31c-0.48-0.22-0.61-0.56-0.47-1.07c0.27-0.94,0.8-1.68,1.62-2.19
				c1.81-1.12,3.74-1.46,5.8-0.79c0.64,0.21,1.32,0.53,1.43,1.24c0.11,0.67-0.53,1.04-0.99,1.43c-0.48,0.4-1.08,0.61-1.66,0.84
				c-0.25,0.1-0.4-0.01-0.54-0.17c-0.23-0.26-0.45-0.51-0.68-0.77c-0.11-0.12-0.24-0.2-0.4-0.12c-0.17,0.09-0.24,0.24-0.21,0.43
				C92.12,87.02,92.13,87.05,92.14,87.09z M87.49,88.83c3.19,1.04,7.35,0.06,9.54-2.21c0.44,0.78,0.32,1.82-0.26,2.44
				c-1.23,1.32-2.41,2.69-3.28,4.29c-0.44,0.8-0.42,0.83-1.18,0.34c-1.43-0.93-2.77-2-4.39-2.61c-0.13-0.05-0.2-0.15-0.22-0.3
				C87.58,90.15,87.39,89.53,87.49,88.83z M94.74,83.06c-1.9-0.48-3.63,0-5.4,0.67c0.78-3.07,3.29-4.93,6.39-4.63
				c2.13,0.21,3.5,1.44,4.31,3.76c0.2,0.58,0.23,1.19,0.35,1.78c0.07,0.33-0.03,0.56-0.23,0.83c-0.6,0.81-1.29,1.53-2.1,2.26
				c-0.1-0.65-0.13-1.23-0.28-1.79C97.35,84.34,96.33,83.46,94.74,83.06z M95.49,106.64c-0.63,0.45-1.79,0.15-2.37-0.59
				c-0.16-0.21-0.3-0.44-0.38-0.73c0.89,0.03,1.77,0.02,2.63-0.05c0.32-0.03,0.64-0.06,0.96-0.11
				C96.2,105.73,96,106.28,95.49,106.64z M96.31,102.49c-0.21,0.83-0.66,1.33-1.48,1.53c-3.78,0.92-9.29-0.59-10.46-6.15
				c-0.27-1.27-0.35-2.55-0.54-3.83c-0.22-1.51-0.86-2.81-1.8-3.98c-0.19-0.23-0.37-0.46-0.53-0.87c0.67,0.37,1.22,0.69,1.78,0.97
				c1.54,0.78,3.21,1.22,4.78,1.93c0.59,0.27,1.17,0.54,1.68,0.93c1.21,0.91,2.61,1.54,3.83,2.44
				C95.6,96.98,96.86,100.28,96.31,102.49z M96.88,103.61c-0.06-0.27,0.13-0.46,0.19-0.68c0.58-2,0.01-3.81-0.88-5.57
				c-0.5-0.99-1.37-1.67-2.06-2.5c-0.24-0.28-0.25-0.49-0.09-0.8c0.78-1.52,1.79-2.89,3.03-4.04c2-1.85,3.73-3.89,5.19-6.18
				c0.11-0.17,0.25-0.32,0.48-0.63c-0.11,0.55-0.2,0.93-0.27,1.31c-0.33,1.63-0.06,3.2,0.38,4.77c0.46,1.6,0.83,3.22,0.77,4.92
				C103.45,98.51,101.29,102.25,96.88,103.61z"/>
		</g>
		<g>
			<g>
				<g>
					<path class="st3" d="M71.13,42.07c0.14,0,0.22,0.11,0.3,0.2c0.91,0.97,1.79,1.98,2.65,2.99c1.65,1.93,3.36,3.81,5.04,5.71
						c1.04,1.18,2.08,2.36,3.12,3.54c0.16,0.18,0.15,0.32-0.01,0.5c-3.38,3.86-6.82,7.67-10.16,11.55
						c-0.24,0.28-0.49,0.54-0.73,0.82c-0.16,0.18-0.29,0.18-0.45,0c-2.43-2.77-4.85-5.53-7.28-8.3c-1.15-1.31-2.31-2.63-3.46-3.94
						c-0.34-0.39-0.33-0.41,0.01-0.79c2.26-2.48,4.44-5.02,6.67-7.53c1.34-1.51,2.67-3.03,4.01-4.54
						C70.91,42.19,70.98,42.08,71.13,42.07z M74.3,56.46c0.01-0.49-0.04-0.99-0.13-1.47c-0.14-0.79-0.35-1.57-0.91-2.19
						c-0.57-0.64-1.23-0.73-1.97-0.32c-1.24,0.7-1.84,1.81-2.12,3.15c-0.38,1.8-1.23,3.36-2.52,4.67c-0.12,0.12-0.12,0.18,0,0.3
						c1.12,1.15,2.34,2.19,3.64,3.12c0.14,0.1,0.24,0.12,0.38,0.02c1.02-0.71,1.89-1.57,2.52-2.64
						C74.04,59.68,74.26,58.09,74.3,56.46z M76.54,59.07c0.03-0.02,0.05-0.03,0.06-0.05c0.04-0.21,0.11-0.41,0.13-0.62
						c0.1-1.51-0.03-2.99-0.73-4.37c-0.35-0.7-0.77-1.36-1.16-2.04c-0.21-0.37-0.16-0.48,0.24-0.61c0.36-0.12,0.73-0.17,1.1-0.23
						c0.31-0.05,0.37-0.15,0.33-0.45c-0.01-0.11-0.06-0.2-0.11-0.29c-0.32-0.51-0.74-0.93-1.3-1.16c-0.41-0.17-0.67-0.43-0.87-0.82
						c-0.98-1.98-3.34-2.29-4.87-1.11c-0.9,0.69-1.36,1.63-1.44,2.74c-0.08,1.15-0.43,2.18-1.1,3.12c-0.52,0.72-0.96,1.49-1.25,2.34
						c-0.28,0.84-0.51,1.68-0.44,2.58c0.03,0.33,0.05,0.67,0.19,1.06c0.11-1.04,0.31-1.98,0.66-2.88c0.46-1.2,1.16-2.27,1.84-3.34
						c0.3-0.47,0.52-0.96,0.63-1.52c0.1-0.53,0.08-1.08,0.17-1.61c0.35-2.03,1.8-2.79,3.67-2.26c0.86,0.24,1.42,0.83,1.71,1.68
						c0.07,0.2,0.18,0.34,0.4,0.41c0.37,0.12,0.68,0.36,0.95,0.64c0.26,0.28,0.22,0.45-0.14,0.56c-0.35,0.11-0.71,0.19-1.07,0.26
						c-0.25,0.04-0.3,0.18-0.25,0.39c0.03,0.12,0.09,0.23,0.14,0.35c0.26,0.52,0.6,0.99,0.9,1.48c0.7,1.17,1.23,2.4,1.45,3.76
						C76.49,57.72,76.52,58.39,76.54,59.07z M71.98,49.13c-0.25-0.01-0.49,0.23-0.5,0.49c-0.01,0.25,0.2,0.48,0.46,0.5
						c0.28,0.02,0.5-0.19,0.51-0.47C72.46,49.38,72.24,49.14,71.98,49.13z"/>
				</g>
			</g>
			<g>
				<g>
					<path class="st3" d="M212.34,241.84c-0.14,0-0.22-0.11-0.3-0.2c-0.91-0.97-1.79-1.98-2.65-2.99c-1.65-1.93-3.36-3.81-5.04-5.71
						c-1.04-1.18-2.08-2.36-3.12-3.54c-0.16-0.18-0.15-0.32,0.01-0.5c3.38-3.86,6.82-7.67,10.16-11.55
						c0.24-0.28,0.49-0.54,0.73-0.82c0.16-0.18,0.29-0.18,0.45,0c2.43,2.77,4.85,5.53,7.28,8.3c1.15,1.31,2.31,2.63,3.46,3.94
						c0.34,0.39,0.33,0.41-0.01,0.79c-2.26,2.48-4.44,5.02-6.67,7.53c-1.34,1.51-2.67,3.03-4.01,4.54
						C212.55,241.71,212.48,241.83,212.34,241.84z M209.17,227.45c-0.01,0.49,0.04,0.99,0.13,1.47c0.14,0.79,0.35,1.57,0.91,2.19
						c0.57,0.64,1.23,0.73,1.97,0.32c1.24-0.7,1.84-1.81,2.12-3.15c0.38-1.8,1.23-3.36,2.52-4.67c0.12-0.12,0.12-0.18,0-0.3
						c-1.12-1.15-2.34-2.19-3.64-3.12c-0.14-0.1-0.24-0.12-0.38-0.02c-1.02,0.71-1.89,1.57-2.52,2.64
						C209.43,224.23,209.21,225.82,209.17,227.45z M206.93,224.83c-0.03,0.02-0.05,0.03-0.06,0.05c-0.04,0.21-0.11,0.41-0.13,0.62
						c-0.1,1.51,0.03,2.99,0.73,4.37c0.35,0.7,0.77,1.36,1.16,2.04c0.21,0.37,0.16,0.48-0.24,0.61c-0.36,0.12-0.73,0.17-1.1,0.23
						c-0.31,0.05-0.37,0.15-0.33,0.45c0.01,0.11,0.06,0.2,0.11,0.29c0.32,0.51,0.74,0.93,1.3,1.16c0.41,0.17,0.67,0.43,0.87,0.82
						c0.98,1.98,3.34,2.29,4.87,1.11c0.9-0.69,1.36-1.63,1.44-2.74c0.08-1.15,0.43-2.18,1.1-3.12c0.52-0.72,0.96-1.49,1.25-2.34
						c0.28-0.84,0.51-1.68,0.44-2.58c-0.03-0.33-0.05-0.67-0.19-1.06c-0.11,1.04-0.31,1.98-0.66,2.88c-0.46,1.2-1.16,2.27-1.84,3.34
						c-0.3,0.47-0.52,0.96-0.63,1.52c-0.1,0.53-0.08,1.08-0.17,1.61c-0.35,2.03-1.8,2.79-3.67,2.26c-0.86-0.24-1.42-0.83-1.71-1.68
						c-0.07-0.2-0.18-0.34-0.4-0.41c-0.37-0.12-0.68-0.36-0.95-0.64c-0.26-0.28-0.22-0.45,0.14-0.56c0.35-0.11,0.71-0.19,1.07-0.26
						c0.25-0.04,0.3-0.18,0.25-0.39c-0.03-0.12-0.09-0.23-0.14-0.35c-0.26-0.52-0.6-0.99-0.9-1.48c-0.7-1.17-1.23-2.4-1.45-3.76
						C206.97,226.19,206.94,225.52,206.93,224.83z M211.48,234.78c0.25,0.01,0.49-0.23,0.5-0.49c0.01-0.25-0.2-0.48-0.46-0.5
						c-0.28-0.02-0.5,0.19-0.51,0.47C211.01,234.52,211.22,234.77,211.48,234.78z"/>
				</g>
			</g>
		</g>
		<g>
			<path class="st3" d="M70.94,37.48c-0.54,0-1.02-0.02-1.5-0.1c0.21,1.06,1.54,1.48,2.75,1.48c1.54,0,3.4-0.69,4.21-1.56l1.06,1.31
				c-0.92,1.17-2.98,2.61-5.11,2.61c-1.25,0-2-0.29-2.65-0.6c-0.65-0.29-1.21-0.6-2.04-0.6c-0.46,0-0.9,0.08-1.25,0.19l-0.75-1.08
				l1.98-2.27c-2.36-0.98-3.61-3.19-3.61-6.51c0-4.61,2.42-7.11,6.92-7.11c4.5,0,6.92,2.5,6.92,7.11
				C77.86,34.98,75.44,37.48,70.94,37.48z M70.56,25.57c-1.75,0-2.69,1.69-2.69,4.8c0,3.11,1.21,4.8,3.46,4.8
				c1.75,0,2.69-1.69,2.69-4.8C74.02,27.26,72.8,25.57,70.56,25.57z"/>
		</g>
		<g>
			<path class="st3" d="M212.44,246.33c0.52,0,0.99,0.02,1.46,0.09c-0.21-1.03-1.5-1.44-2.68-1.44c-1.5,0-3.32,0.67-4.1,1.52
				l-1.03-1.27c0.9-1.14,2.9-2.55,4.98-2.55c1.22,0,1.95,0.28,2.59,0.58c0.64,0.28,1.18,0.58,1.99,0.58c0.45,0,0.88-0.07,1.22-0.19
				l0.73,1.05l-1.93,2.21c2.3,0.96,3.52,3.11,3.52,6.35c0,4.5-2.36,6.93-6.75,6.93s-6.75-2.44-6.75-6.93
				S208.06,246.33,212.44,246.33z M212.82,257.95c1.71,0,2.62-1.65,2.62-4.68s-1.18-4.68-3.37-4.68c-1.71,0-2.62,1.65-2.62,4.68
				S210.63,257.95,212.82,257.95z"/>
		</g>
	</g>
</g>
</svg>
