<?xml version="1.0" encoding="utf-8"?>
<!-- Generator: Adobe Illustrator 24.0.1, SVG Export Plug-In . SVG Version: 6.00 Build 0)  -->
<svg version="1.1" xmlns="http://www.w3.org/2000/svg" xmlns:xlink="http://www.w3.org/1999/xlink" x="0px" y="0px"
	 viewBox="0 0 283.46 283.46" style="enable-background:new 0 0 283.46 283.46;" xml:space="preserve">
<style type="text/css">
	.st0{fill:#DBDDD9;}
	.st1{fill:#FFFFFF;}
	.st2{fill:none;stroke:#000000;stroke-width:3;stroke-miterlimit:10;}
	.st3{fill:#E30613;}
	.st4{fill:#894F28;}
	.st5{fill:#3E2215;}
	.st6{fill:#DEB27E;}
	.st7{opacity:0.25;fill:#312783;}
	.st8{opacity:0.53;fill:#F5F0DA;}
	.st9{fill:none;}
	.st10{fill:#EB941E;}
	.st11{fill:#1F201D;}
	.st12{fill:#E2E0DB;}
	.st13{fill:#B7B6B0;}
	.st14{fill:#2FAC66;}
	.st15{fill:#312783;}
	.st16{fill:#E94D2A;}
	.st17{fill:#F5EA61;}
	.st18{fill:#1D71B8;}
	.st19{fill:#2D3B49;}
</style>
<g id="bg">
</g>
<g id="CUT">
</g>
<g id="BACK">
</g>
<g id="ILLUSTRATION">
</g>
<g id="SYMBOLS">
</g>
<g id="CARDS">
	<g>
		<path class="st1" d="M217.23,267.73h-151c-8.01,0-14.5-6.49-14.5-14.5v-223c0-8.01,6.49-14.5,14.5-14.5h151
			c8.01,0,14.5,6.49,14.5,14.5v223C231.73,261.24,225.24,267.73,217.23,267.73z"/>
		<g>
			<g>
				<g>
					<g>
						<g>
							<g>
								<path class="st11" d="M123.45,81.3c1.36-0.08,2.56,0.4,3.67,1.15c0.65,0.43,1.28,0.9,2.02,1.41
									c0.22-2.26,0.56-4.37,1.33-6.4c1.46-3.85,4.02-6.56,8.01-7.76c2.47-0.74,4.98-1.03,7.57-0.7c3.75,0.49,6.82,2.15,9.16,5.1
									c1.73,2.17,2.85,4.51,3.46,6.99c1.71,6.39,0.02,13.56-4.8,18.26c-3.26,3.18-7.46,5.21-10.23,8.92
									c-2.46,3.3-3.57,7.78-1.45,11.47c0.38-0.33,0.76-0.65,1.15-0.96c5.33-4.28,11.09-7.86,17.39-10.55
									c3.14-1.34,6.38-2.34,9.84-2.42c0.63-0.01,0.61-0.35,0.55-0.81c-0.27-1.94-0.41-3.9-0.36-5.86
									c0.11-4.3,0.48-8.59,0.25-12.89c-0.18-3.34-0.77-6.58-2.14-9.66c-0.29-0.66-0.69-1.21-1.25-1.69
									c-1.28-1.08-2.69-1.94-4.17-2.7c-6.25-3.19-12.93-4.92-19.87-5.7c-4.59-0.51-9.16-0.47-13.73,0.32
									c-2.58,0.45-4.88,1.28-6.53,3.43c-0.19,0.24-0.51,0.41-0.23,0.82c0.99,1.48,1.07,3.16,0.9,4.86
									c-0.15,1.58-0.61,3.09-1.05,4.6C122.8,81.06,122.81,81.34,123.45,81.3z"/>
								<path class="st1" d="M120.95,74.91c0.67,0.08,1.11,0.53,1.64,1.08c0.15-1.11,0.03-2.05-0.16-2.98
									c-0.04-0.2-0.09-0.46-0.34-0.52c-0.28-0.07-0.46,0.14-0.59,0.35c-0.31,0.51-0.56,1.06-0.74,1.63
									C120.7,74.68,120.68,74.88,120.95,74.91z"/>
								<path class="st10" d="M125.06,92.24c2.58-0.37,5-1.25,7.23-2.62c0.25-0.15,0.62-0.31,0.12-0.61c-2-1.21-3.58-2.91-5.32-4.43
									c-1.72-1.5-3.53-2-5.67-0.84c-4.74,2.56-9.7,4.66-14.57,6.95c-1.18,0.56-2.3,1.23-3.36,2.36c3.35-0.37,6.52-0.47,9.69-0.48
									C117.14,92.56,121.11,92.81,125.06,92.24z"/>
								<path class="st10" d="M126.84,96.49c2.82-0.63,5.26-1.88,7.05-4.23c0.35-0.47,0.59-0.98,0.53-1.59
									c-0.05-0.53-0.28-0.7-0.74-0.33c-0.9,0.72-1.9,1.27-2.95,1.73c-3.98,1.75-8.19,2.07-12.46,1.99
									c-2.75-0.05-5.49-0.18-8.24-0.27l-0.05,0.15c0.65,0.28,1.29,0.57,1.94,0.83C116.75,96.69,121.67,97.64,126.84,96.49z"/>
								<path class="st10" d="M84.74,122.94c-0.65-4.59-1.29-9.19-1.97-13.78c-0.23-1.55-0.46-3.09-0.7-4.63
									c-0.47,0.03-0.95-0.03-1.4-0.19c-0.32,0.47-0.75,0.83-1.27,1.08c0.3,1.9,0.6,3.81,0.89,5.71c0.66,4.32,1.3,8.64,1.95,12.96
									c0.03,0.18-0.01,0.48,0.25,0.41c0.73-0.2,1.45-0.45,2.16-0.71c0.2-0.07,0.11-0.28,0.1-0.44
									C84.76,123.21,84.76,123.07,84.74,122.94z"/>
								<path class="st11" d="M176.91,122.07c-2.47-0.64-4.98-0.52-7.46-0.26c-4.51,0.48-8.84,1.72-13.04,3.44
									c-3.62,1.49-7.19,3.13-11.09,3.77c-0.44,0.07-0.56,0.28-0.5,0.72c0.2,1.64,0.31,3.3,0.56,4.94
									c0.78,5.1,1.58,10.2,2.41,15.29c0.35,2.16,0.79,4.32,1.23,6.71c0.51-0.64,0.83-1.11,1.21-1.53
									c2.17-2.33,4.32-4.69,6.54-6.97c2.54-2.61,3.15-5.66,2.39-9.12c-0.4-1.8-1.26-3.41-1.99-5.08c-0.24-0.54-0.35-1.08,0.3-1.4
									c0.64-0.32,0.95,0.14,1.22,0.61c1.28,2.27,2.22,4.63,2.55,7.26c0.39,3.22-0.48,5.99-2.58,8.38
									c-1.71,1.94-3.52,3.79-5.31,5.65c-1.63,1.7-3.05,3.56-4.04,5.7c-2.32,5-2.23,9.85,1.07,14.43c0.65,0.9,1.39,1.76,2.44,2.25
									c1.06,0.49,1.99,0.21,2.61-0.78c0.41-0.65,0.63-1.39,0.83-2.12c0.92-3.49,3.16-5.77,6.47-7.03
									c2.06-0.79,4.15-1.47,6.21-2.26c5.12-1.98,9.94-4.38,13.48-8.83c3.37-4.23,4.92-8.95,4.07-14.3
									c-1.04-6.6-3.91-12.47-7.48-18.04C178.5,122.74,177.81,122.31,176.91,122.07z"/>
								<path class="st1" d="M165.57,108.76c-8.22,2.66-15.41,7.16-22.04,12.61c-0.81,0.67-1.63,1.38-2.14,2.34
									c-0.78,1.44-0.2,2.93,1.3,3.32c0.55,0.14,1.1,0.18,1.69,0.12c2.88-0.31,5.54-1.35,8.18-2.43
									c6.18-2.54,12.42-4.81,19.21-5.06c2.75-0.1,5.43,0,8,1.4c0.2-0.7-0.03-1.31-0.1-1.91c-0.25-2.23-0.76-4.4-1.79-6.41
									c-0.99-1.92-2.26-3.57-4.46-4.3C170.74,107.55,168.12,107.93,165.57,108.76z"/>
								<path class="st11" d="M166.21,206.72c-3.51-4.94-6.44-10.22-9.01-15.7c-0.72-1.54-1.42-3.1-2.21-4.82
									c-0.86,3.44-2.33,6.37-4.36,9.05c-3.68,4.87-8.23,8.54-14.15,10.26c-4.54,1.32-9.19,1.55-13.89,0.93
									c-5.03-0.66-9.63-2.36-13.79-5.3c-1.28-0.9-2.44-1.92-3.54-3.03c4.94,9.69,14.18,13.67,22.86,12.73
									c-0.3-0.5-0.21-0.75,0.35-0.79c0.82-0.05,1.63,0.09,2.43,0.25c2.81,0.59,5.6,1.39,8.52,1.23c0.5-0.03,0.84-0.02,0.72-0.68
									c-0.07-0.4,0.13-0.77,0.55-0.9c0.41-0.13,0.55,0.24,0.74,0.49c0.6,0.79,1.35,1.42,2.16,1.98c3.75,2.6,7.95,3.22,12.31,2.47
									c4.25-0.73,7.83-2.71,10.31-6.4C166.66,207.87,166.69,207.4,166.21,206.72z"/>
								<path class="st10" d="M159.24,216.1c-3.45,1.19-6.97,1.37-10.52,0.61c-0.63-0.13-0.81,0.07-0.92,0.62
									c-0.18,0.96-0.68,1.76-1.38,2.45c-1.18,1.17-2.62,1.93-4.08,2.66c-3.07,1.53-6.07,3.18-8.93,5.08
									c-0.34,0.23-0.7,0.45-0.98,0.83c0.63,0.08,1.18,0.13,1.71,0.22c1.5,0.25,2.83,0.81,3.65,2.18c0.19,0.31,0.34,0.4,0.58,0.05
									c0.17-0.25,0.38-0.46,0.57-0.69c1.81-2.24,3.84-4.22,6.21-5.86c0.27-0.18,0.59-0.47,0.85-0.14
									c0.25,0.31-0.13,0.54-0.34,0.72c-1.76,1.56-3.19,3.42-4.68,5.22c-0.74,0.89-1.47,1.8-2.01,2.9c0.15-0.01,0.23,0,0.3-0.03
									c2.45-1.12,5.03-1.52,7.7-1.43c2.54,0.09,4.78,0.96,6.7,2.62c0.45,0.39,0.67,0.37,1-0.08c1.48-2.02,2.9-4.08,4.09-6.29
									c1.9-3.54,2.66-7.22,1.33-11.16C159.93,216.09,159.76,215.92,159.24,216.1z"/>
								<path class="st10" d="M125.45,212.97c-3.03,0.01-5.93-0.67-8.75-1.72c-0.72-0.27-0.83-0.04-0.81,0.61
									c0.05,1.3-0.54,2.25-1.74,2.77c-0.65,0.28-1.3,0.56-1.97,0.79c-3.83,1.3-7.73,2.42-11.44,4.08
									c-1.62,0.72-3.25,1.44-4.81,2.41c0.12,0.06,0.16,0.1,0.21,0.1c2.21,0.29,4.08,1.13,5.17,3.23c0.28,0.53,0.49,0.08,0.65-0.09
									c2.94-3.18,6.73-5.02,10.62-6.68c0.15-0.06,0.3-0.12,0.46-0.16c0.2-0.04,0.39-0.03,0.48,0.19c0.07,0.18-0.03,0.32-0.16,0.42
									c-0.15,0.11-0.32,0.21-0.48,0.31c-2.05,1.28-4.12,2.54-6.15,3.86c-1.55,1.01-2.96,2.2-4.16,3.8c0.51-0.16,0.89-0.3,1.28-0.4
									c3.78-0.98,7.39-0.99,10.47,1.88c0.29,0.27,0.44,0.17,0.66-0.05c0.7-0.68,1.48-1.28,2.27-1.87
									c2.23-1.65,4.64-3.05,6.79-4.81c1.16-0.95,2.15-1.98,2.31-3.6c0.16-1.59-0.07-3.14-0.29-4.7
									C126.02,212.97,125.73,212.97,125.45,212.97z"/>
								<path class="st3" d="M168.46,209.49c-0.18-0.2-0.36-0.48-0.61-0.06c-0.92,1.55-2.12,2.86-3.6,4.04
									c3.32,0.46,6.51,1.03,9.96,1.03C171.96,212.98,170.12,211.34,168.46,209.49z"/>
								<path class="st3" d="M205.76,207.55c-1.63-0.76-3.22-1.61-4.61-2.77c-3.01-2.51-5.29-5.65-7.31-8.94
									c-5.16-8.41-8.83-17.46-11.08-27.08c-0.66-2.8-1.19-5.62-1.69-8.47c-0.12,0.04-0.21,0.05-0.27,0.09
									c-2.87,2.4-6.2,4-9.6,5.49c-2.67,1.17-5.5,1.89-8.19,3.02c-2.58,1.09-4.28,2.91-4.98,5.65c-0.2,0.76-0.42,1.52-0.8,2.22
									c-0.54,1.02-1.27,1.89-2.42,2.16c-0.68,0.16-0.77,0.36-0.52,0.98c2.29,5.8,4.64,11.57,7.71,17.01
									c2.61,4.63,5.37,9.15,9.24,12.9c4.46,4.32,9.86,6.38,15.94,6.77c2.6,0.17,5.22,0.11,7.81-0.3c3.5-0.55,6.86-1.47,9.9-3.34
									c1.19-0.73,2.27-1.59,2.99-2.84c0.35-0.61,0.23-1.09-0.29-1.51C207.03,208.17,206.4,207.85,205.76,207.55z M194.82,209.21
									c-1.41-0.24-2.87-0.66-4.3-1.19c-5.27-1.93-9.52-5.24-13.08-9.56c-4.88-5.92-8.02-12.71-10.27-19.97
									c-0.1-0.31-0.16-0.63-0.21-0.95c-0.02-0.15,0-0.34,0.2-0.4c0.19-0.05,0.32,0.05,0.39,0.21c0.13,0.27,0.24,0.55,0.34,0.83
									c2.07,5.78,4.46,11.42,8.06,16.44c3.37,4.69,7.36,8.74,12.54,11.47c1.89,1,3.89,1.69,5.96,2.18
									c0.21,0.05,0.42,0.11,0.63,0.16c0.24,0.06,0.5,0.11,0.49,0.44C195.57,209.09,195.34,209.2,194.82,209.21z"/>
								<path class="st11" d="M103,127.52c-0.98,0.3-1.78,0.56-2.59,0.79c-2.97,0.83-6.01,0.92-9.06,0.8
									c-0.37-0.01-0.67-0.07-0.81,0.42c-0.35,1.24-1,2.35-1.72,3.41c-0.35,0.51-0.44,1.04-0.35,1.62
									c0.08,0.51,0.17,1.02,0.24,1.53c0.57,3.95,1.15,7.9,1.69,11.86c0.08,0.59,0.3,0.86,0.84,1.02c1.25,0.37,2.49,0.79,3.74,1.17
									c1.04,0.32,1.03,0.3,1.23-0.76c0.99-5.32,2.23-10.58,4.18-15.65C101.16,131.67,102.05,129.66,103,127.52z"/>
								<path class="st10" d="M86.8,136.28c-1.18,1.97-2.3,3.73-1.93,6c0.44,2.71,0.81,5.42,1.22,8.14
									c0.57,3.81,1.16,7.63,1.71,11.44c0.49,3.36,0.94,6.72,1.43,10.08c0.59,4.03,1.28,8.05,1.8,12.09
									c0.62,4.77,1.39,9.51,2.11,14.26c0.62,4.11,1.25,8.21,1.84,12.33c0.24,1.69,0.24,1.72,1.95,1.6
									c0.7-0.05,0.96-0.36,0.86-1.06c-0.32-2.09-0.62-4.19-0.93-6.28c-1.2-8.17-2.4-16.34-3.59-24.51
									c-1.06-7.23-2.05-14.47-3.16-21.69C88.98,151.28,87.88,143.9,86.8,136.28z"/>
								<path class="st10" d="M94.23,215.06c0.08,0.67,0.61,0.91,1.33,0.9c1.1-0.18,2.29-0.26,3.45-0.58
									c0.52-0.15,0.7-0.5,0.59-0.99c-0.11-0.47-0.44-0.79-0.94-0.71c-1.12,0.17-2.27,0.17-3.38,0.41
									C94.68,214.2,94.14,214.35,94.23,215.06z"/>
								<path class="st1" d="M109.57,199.8c6.84,4.8,14.5,6.27,22.66,5.16c11.13-1.51,19.34-10.43,21.76-20.04
									c0.15-0.6,0.13-1.14-0.12-1.73c-0.43-1-0.84-2.01-1.12-3.06c-0.23-0.88-0.61-1.52-1.48-1.86c-0.37-0.14-0.7-0.43-0.99-0.71
									c-2.9-2.79-4.41-6.22-4.59-10.23c-0.13-2.87,0.61-5.55,1.84-8.11c0.18-0.37,0.33-0.73,0.23-1.17
									c-0.75-3.31-1.39-6.65-1.98-9.99c-1.06-5.99-2.05-12-2.71-18.05c-0.06-0.55-0.25-0.9-0.84-1.02
									c-0.9-0.2-1.67-0.64-2.27-1.36c-1.29-1.55-1.28-3.64,0.02-5.52c0.23-0.33,0.48-0.64,0.74-0.94
									c-2.18-3.33-2.07-7.61-0.44-11.15c3.66-7.97,13.61-10.2,16.3-18.86c1.17-3.79,1.07-7.96-0.52-11.61
									c-0.11-0.25-0.1-0.49-0.04-0.7c-0.03-0.07-0.05-0.14-0.08-0.2c-2.3-5.17-6.34-8.03-12.21-8.01
									c-0.99-0.05-2.01,0.15-3.02,0.34c-3.88,0.73-6.86,2.68-8.49,6.39c-0.97,2.22-1.49,4.53-1.49,6.97c0,0.79,0.29,1.31,0.88,1.8
									c1.06,0.88,2.28,1.48,3.41,2.24c0.83,0.57,1.22,1.33,1.18,2.36c-0.03,0.79-0.29,1.49-0.68,2.15
									c-1.01,1.72-2.52,2.91-4.23,3.86c-2.35,1.32-4.92,1.81-7.58,2.01c-0.7,0.05-1.52-0.12-2.06,0.28
									c-0.47,0.35-0.09,1.13-0.2,1.71c-0.02,0.11-0.04,0.21-0.06,0.32c-0.46,3.06-2.15,5.48-3.9,7.93
									c-1.83,2.56-3.69,5.1-5.47,7.69c-3.48,5.05-6.7,10.31-9,16.01c-3.38,8.4-5.25,17.13-5.91,26.14
									c-0.35,4.73-0.35,9.45,0.15,14.17c0.54,5.2,1.69,10.24,3.65,15.09C102.78,192.72,105.39,196.86,109.57,199.8z M137.95,79.25
									c0.32-1.56,1.17-3.17,2.74-3.75c1.33-0.49,2.73,0.02,3.46,1.23c0.67,1.12,0.74,2.54,0.48,3.8
									c-0.28,1.32-1.01,2.55-2.14,3.31c-1.21,0.81-2.88,0.87-3.8-0.4c-0.13-0.18-0.23-0.38-0.32-0.59
									C137.8,81.77,137.71,80.46,137.95,79.25z"/>
								<path class="st11" d="M88.49,129.21c0.71-1.84-0.47-3.55-2.43-3.51c-2.14,0.05-3.89,1.11-5.56,2.3
									c-1.86,1.34-2.78,3.22-2.87,5.5c-0.14,3.49,1.34,6.37,3.45,9c0.54,0.67,1.09,1.35,2.07,1.75c-0.04-0.36-0.03-0.61-0.1-0.84
									c-0.54-2.01-0.25-3.92,0.64-5.78c0.81-1.7,1.81-3.28,2.8-4.87C87.21,131.6,87.99,130.48,88.49,129.21z"/>
								<path class="st10" d="M208.54,206.88c-0.72-0.55-1.52-0.96-2.33-1.34c-2.08-0.96-3.9-2.26-5.45-3.95
									c-2.61-2.84-4.74-6.04-6.62-9.39c-5.73-10.16-9.24-21.09-11.07-32.58c-0.14-0.88,0.07-1.52,0.66-2.19
									c3.36-3.84,5.05-8.35,5.02-13.45c-0.02-2.73-0.54-5.41-1.37-8.01c-1.29-4.04-3.08-7.85-5.25-11.48
									c-0.16-0.27-0.49-0.58-0.34-0.88c0.58-1.14,0.22-2.31,0.13-3.45c-0.22-2.67-0.71-5.29-1.82-7.74
									c-1.13-2.49-2.64-4.7-5.3-5.71c-1.07-0.41-1.46-0.85-1.6-2.06c-0.48-4.14-0.25-8.27-0.04-12.39
									c0.3-5.72-0.07-11.31-2.41-16.63c-0.01-0.02-0.01-0.04-0.02-0.06c-11.78-9.17-31.43-14.34-45.84-8.4
									c0.31-0.13,0.53-0.41,0.49-0.86c-0.23-2.38-0.45-5.18,1.64-6.8c1.01-0.79,1.17-1.49,0.99-2.74
									c-0.19-1.32-0.28-2.65-0.32-3.98c0.2,0.61,0.42,1.21,0.68,1.81c0.4,0.91,1.66,0.46,1.83-0.36c0.38,0.19,0.81,0.09,1.09-0.2
									c2.36,1.76,5.84,2.02,8.68,0.7c2.34-1.1,3.32-3.12,3.29-5.64c-0.03-2.03-1.05-5.4,1.05-6.76c0.51-0.33,0.56-0.87,0.36-1.28
									c1.2-1.51,2.48-2.96,3.83-4.35c0.56-0.58,1.13-1.16,1.7-1.73c0.44-0.44,1.51-1.87,2.27-1.57c0.54,0.21,1.03,1.49,1.3,1.97
									c0.42,0.74,0.81,1.49,1.19,2.26c1.37,2.76,3.39,6.37,2.02,9.46c-1,2.25-2.8,4.15-2.6,6.77c0.1,1.27,2.1,1.29,2,0
									c-0.13-1.63,0.76-2.94,1.55-4.29c0.78-1.35,1.46-2.74,1.53-4.33c0.09-1.96-0.67-3.86-1.41-5.63
									c-0.78-1.86-1.67-3.68-2.67-5.44c-0.73-1.29-1.56-2.92-3.29-2.8c-1.65,0.12-2.86,1.75-3.92,2.83
									c-2.45,2.49-4.8,5.08-6.77,7.97c-0.21,0.26-0.41,0.53-0.58,0.84c-0.31,0.54-0.08,1.03,0.31,1.29
									c-0.02,0.16-0.05,0.33-0.06,0.49c-0.18,2,0.59,4.12,0.02,6.07c-0.7,2.37-4.08,3.11-6.23,2.7c-1.77-0.34-3.2-1.5-3.87-3.1
									c-0.1-0.34-0.19-0.67-0.32-1c-0.01-0.04-0.04-0.06-0.06-0.1c0.08-0.13,0.14-0.27,0.16-0.45c0.11-1.41,0.9-2.64,1.44-3.92
									c0.56-1.34,0.82-2.67,0.52-4.12c-0.31-1.48-1.11-2.82-1.92-4.08c-1.01-1.57-2.04-3.14-3.06-4.71
									c-0.64-0.99-2.01-0.33-1.83,0.77c1.07,6.49-0.35,13.04-0.25,19.56c0.02,1.49,0.14,2.97,0.35,4.44
									c0.15,1.02-0.03,0.88-0.71,1.47c-0.39,0.34-0.72,0.74-1,1.17c-1.25,1.99-1.14,4.57-0.92,6.82c0.08,0.78,0.85,1.08,1.42,0.9
									c-0.35,0.15-0.71,0.29-1.05,0.45c-0.32,0.15-0.64,0.23-0.96,0.28c-0.06,0.04-0.11,0.09-0.18,0.13
									c-0.2,0.12-0.36,0.33-0.52,0.52c-3.52,4.01-4.9,8.71-4.36,13.98c0.07,0.66-0.09,0.99-0.68,1.26c-1.98,0.9-3.98,1.76-6,2.56
									c-2.53,1.01-5.04,2.06-7.37,3.49c-1.43,0.88-2.58,2-3.11,3.65c-0.32,1,0.12,1.62,1.17,1.59c0.78-0.02,1.56-0.2,2.35-0.24
									c0.93-0.04,1.83-0.44,2.8-0.02c3.86,1.64,7.77,3.13,11.93,3.83c0.5,0.08,0.59,0.31,0.62,0.75c0.09,1.37-0.24,2.63-0.77,3.88
									c-0.95,2.21-2.43,4.06-3.89,5.92c-3.48,4.44-6.91,8.91-9.5,13.94c-0.6,1.17-1.44,1.82-2.6,2.27
									c-3.75,1.46-7.61,1.98-11.6,1.59c-0.4-0.04-0.55-0.25-0.68-0.58c-0.53-1.27-1.42-2.22-2.74-2.63
									c-0.66-0.21-0.89-0.54-0.98-1.19c-0.42-3.12-0.88-6.24-1.34-9.36c-0.46-3.14-0.93-6.28-1.39-9.42
									c-0.54,0.39-1.18,0.6-1.84,0.64c0.24,1.54,0.47,3.09,0.7,4.63c0.67,4.59,1.31,9.19,1.97,13.78
									c0.02,0.13,0.02,0.27,0.03,0.41c0,0.16,0.09,0.37-0.1,0.44c-0.71,0.26-1.43,0.51-2.16,0.71c-0.26,0.07-0.23-0.24-0.25-0.41
									c-0.65-4.32-1.3-8.64-1.95-12.96c-0.29-1.9-0.6-3.81-0.89-5.71c-0.4,0.19-0.86,0.31-1.38,0.31c-0.17,0-0.34-0.03-0.51-0.06
									c0.26,1.8,0.51,3.6,0.77,5.39c0.66,4.54,1.36,9.08,2.08,13.61c0.11,0.69-0.08,1.05-0.64,1.45c-2.74,1.95-4.17,4.63-4.1,8
									c0.08,3.76,1.71,6.93,4.07,9.75c0.87,1.04,1.81,2.09,3.18,2.45c0.66,0.17,0.8,0.56,0.88,1.09c0.39,2.74,0.76,5.49,1.15,8.23
									c0.88,6.08,1.77,12.15,2.67,18.22c0.95,6.4,1.93,12.79,2.88,19.18c0.87,5.83,1.73,11.66,2.58,17.5
									c0.15,1.02,0.26,1.95-0.41,3c-1.21,1.89,0.24,4.16,2.49,4.16c1.45,0.01,2.86-0.32,4.27-0.61c1.18-0.24,1.92-0.95,2.11-2.1
									c0.21-1.2-0.11-2.32-1.19-3.01c-0.49-0.32-0.64-0.71-0.71-1.19c-0.88-5.91-1.77-11.82-2.62-17.74
									c-1.01-6.99-1.99-13.98-3-20.97c-0.98-6.8-1.99-13.6-3-20.4c-0.08-0.51,0.06-0.58,0.5-0.45c1.22,0.36,2.45,0.73,3.68,1.05
									c0.46,0.12,0.53,0.32,0.47,0.75c-0.36,2.37-0.61,4.75-0.7,7.14c-0.17,4.6-0.15,9.19,0.42,13.77
									c0.66,5.27,1.9,10.36,3.92,15.28c0.77,1.89,1.8,3.65,2.52,5.57c2.31,6.23,5.79,11.57,11.73,14.97
									c0.21,0.12,0.4,0.25,0.47,0.52c0.41,1.6,0.05,2.38-1.49,2.96c-3.41,1.28-6.95,2.18-10.34,3.55
									c-3.41,1.38-6.72,2.96-9.8,5.01c-0.48,0.32-0.88,0.71-0.7,1.34c0.18,0.65,0.75,0.6,1.27,0.61c1.28,0.03,2.56,0.1,3.81,0.35
									c1.97,0.39,3.52,1.7,2.57,4.19c-0.2,0.51-0.26,1.02,0.21,1.43c0.47,0.41,0.97,0.24,1.45,0.01c1.25-0.6,2.54-1.11,3.89-1.44
									c3.35-0.8,6.43-0.61,8.88,2.23c0.51,0.59,1,0.54,1.69-0.11c1.73-1.64,3.67-2.98,5.66-4.28c1.48-0.96,2.92-1.99,4.32-3.08
									c2.01-1.56,3.06-3.54,2.92-6.14c-0.06-1.09-0.15-2.17-0.31-3.24c-0.08-0.53-0.01-0.93,0.68-0.88
									c0.18,0.01,0.37-0.09,0.56-0.09c0.97-0.01,1.91-0.52,2.89-0.23c2.79,0.83,5.64,1.14,8.55,0.98c0.72-0.04,1.3,0.13,1.87,0.59
									c0.71,0.58,1.53,1.04,2.38,1.41c1.43,0.62,1.52,0.98,0.67,2.35c-0.26,0.42-0.6,0.78-1,1.06c-1,0.71-2.07,1.31-3.16,1.86
									c-3.38,1.7-6.78,3.37-9.78,5.71c-0.85,0.67-1.73,1.34-2.33,2.27c-0.24,0.37-0.42,0.77-0.15,1.22c0.24,0.41,0.62,0.4,1,0.37
									c1.04-0.08,2.07,0.04,3.09,0.19c3.1,0.47,3.48,1.58,3,3.89c-0.1,0.49-0.02,0.93,0.38,1.26c0.4,0.33,0.82,0.18,1.23-0.01
									c1.61-0.73,3.23-1.43,4.97-1.82c3.94-0.9,7.51-0.45,10.43,2.66c0.61,0.65,1.27,0.56,1.94-0.24c2.41-2.9,4.56-5.97,6.08-9.44
									c0.89-2.04,1.39-4.16,1.34-6.41c-0.04-1.6-0.33-3.13-0.77-4.65c-0.16-0.55-0.01-0.69,0.52-0.61
									c1.26,0.2,2.53,0.34,3.79,0.56c3.44,0.6,6.91,0.88,10.39,0.69c0.77-0.04,1.43,0.1,2.12,0.37c2.79,1.09,5.69,1.67,8.67,1.77
									c2.61,0.08,5.22,0.1,7.82-0.29c3.33-0.5,6.56-1.33,9.55-2.91c1.79-0.94,3.47-2.06,4.62-3.8
									C210.51,209.74,210.22,208.15,208.54,206.88z M186.48,141.54c0.85,5.35-0.7,10.07-4.07,14.3
									c-3.54,4.45-8.37,6.85-13.48,8.83c-2.05,0.79-4.15,1.48-6.21,2.26c-3.31,1.27-5.55,3.55-6.47,7.03
									c-0.19,0.73-0.42,1.47-0.83,2.12c-0.62,0.99-1.54,1.27-2.61,0.78c-1.05-0.49-1.78-1.34-2.44-2.25
									c-3.31-4.58-3.39-9.43-1.07-14.43c0.99-2.14,2.41-4,4.04-5.7c1.79-1.87,3.6-3.72,5.31-5.65c2.1-2.38,2.98-5.16,2.58-8.38
									c-0.32-2.63-1.27-4.99-2.55-7.26c-0.27-0.47-0.58-0.93-1.22-0.61c-0.65,0.32-0.54,0.87-0.3,1.4
									c0.73,1.67,1.59,3.28,1.99,5.08c0.76,3.45,0.15,6.51-2.39,9.12c-2.22,2.28-4.37,4.63-6.54,6.97
									c-0.38,0.41-0.71,0.88-1.21,1.53c-0.44-2.39-0.88-4.54-1.23-6.71c-0.83-5.09-1.64-10.19-2.41-15.29
									c-0.25-1.64-0.35-3.3-0.56-4.94c-0.05-0.44,0.06-0.65,0.5-0.72c3.91-0.64,7.48-2.28,11.09-3.77
									c4.2-1.73,8.53-2.96,13.04-3.44c2.48-0.26,4.99-0.39,7.46,0.26c0.9,0.23,1.59,0.66,2.09,1.43
									C182.57,129.07,185.44,134.95,186.48,141.54z M173.41,108.43c2.2,0.72,3.47,2.38,4.46,4.3c1.04,2,1.54,4.18,1.79,6.41
									c0.07,0.61,0.3,1.22,0.1,1.91c-2.57-1.4-5.24-1.5-8-1.4c-6.79,0.25-13.03,2.51-19.21,5.06c-2.64,1.09-5.3,2.13-8.18,2.43
									c-0.59,0.06-1.14,0.03-1.69-0.12c-1.5-0.39-2.08-1.88-1.3-3.32c0.51-0.96,1.33-1.67,2.14-2.34
									c6.63-5.46,13.82-9.95,22.04-12.61C168.12,107.93,170.74,107.55,173.41,108.43z M122.94,80.57c0.44-1.51,0.9-3.03,1.05-4.6
									c0.16-1.7,0.09-3.38-0.9-4.86c-0.28-0.42,0.05-0.58,0.23-0.82c1.65-2.15,3.95-2.99,6.53-3.43
									c4.57-0.79,9.14-0.83,13.73-0.32c6.95,0.77,13.62,2.5,19.87,5.7c1.48,0.76,2.9,1.62,4.17,2.7c0.56,0.47,0.95,1.03,1.25,1.69
									c1.37,3.07,1.97,6.32,2.14,9.66c0.23,4.3-0.13,8.59-0.25,12.89c-0.05,1.96,0.09,3.91,0.36,5.86
									c0.06,0.46,0.08,0.8-0.55,0.81c-3.46,0.07-6.7,1.07-9.84,2.42c-6.29,2.69-12.06,6.28-17.39,10.55
									c-0.39,0.31-0.77,0.63-1.15,0.96c-2.12-3.68-1.01-8.17,1.45-11.47c2.77-3.71,6.97-5.74,10.23-8.92
									c4.82-4.7,6.52-11.87,4.8-18.26c-0.61-2.47-1.73-4.81-3.46-6.99c-2.35-2.95-5.41-4.61-9.16-5.1
									c-2.59-0.34-5.1-0.05-7.57,0.7c-4,1.2-6.56,3.91-8.01,7.76c-0.77,2.03-1.11,4.14-1.33,6.4c-0.74-0.52-1.37-0.98-2.02-1.41
									c-1.11-0.74-2.31-1.23-3.67-1.15C122.81,81.34,122.8,81.06,122.94,80.57z M120.76,74.48c0.18-0.57,0.43-1.12,0.74-1.63
									c0.13-0.21,0.3-0.42,0.59-0.35c0.25,0.06,0.3,0.31,0.34,0.52c0.19,0.93,0.31,1.87,0.16,2.98c-0.53-0.56-0.96-1.01-1.64-1.08
									C120.68,74.88,120.7,74.68,120.76,74.48z M121.2,76.21c1.29,0,1.29,2,0,2C119.91,78.21,119.91,76.21,121.2,76.21z
									 M103.48,93.04c1.07-1.13,2.18-1.81,3.36-2.36c4.87-2.29,9.83-4.4,14.57-6.95c2.14-1.15,3.95-0.66,5.67,0.84
									c1.74,1.52,3.32,3.22,5.32,4.43c0.51,0.31,0.13,0.46-0.12,0.61c-2.23,1.37-4.64,2.25-7.23,2.62
									c-3.95,0.57-7.93,0.32-11.89,0.33C109.99,92.57,106.83,92.67,103.48,93.04z M111.93,94.78c-0.65-0.26-1.29-0.55-1.94-0.83
									l0.05-0.15c2.75,0.09,5.49,0.21,8.24,0.27c4.27,0.08,8.48-0.24,12.46-1.99c1.05-0.46,2.05-1.01,2.95-1.73
									c0.46-0.37,0.69-0.2,0.74,0.33c0.06,0.6-0.18,1.12-0.53,1.59c-1.78,2.35-4.23,3.61-7.05,4.23
									C121.67,97.64,116.75,96.69,111.93,94.78z M83.7,137.63c-0.89,1.86-1.18,3.77-0.64,5.78c0.06,0.23,0.06,0.48,0.1,0.84
									c-0.98-0.4-1.54-1.08-2.07-1.75c-2.11-2.63-3.58-5.51-3.45-9c0.09-2.28,1-4.16,2.87-5.5c1.66-1.2,3.42-2.26,5.56-2.3
									c1.96-0.04,3.14,1.68,2.43,3.51c-0.5,1.27-1.27,2.4-1.99,3.55C85.51,134.35,84.51,135.94,83.7,137.63z M99.59,214.38
									c0.11,0.49-0.07,0.85-0.59,0.99c-1.15,0.32-2.35,0.4-3.45,0.58c-0.72,0.01-1.24-0.23-1.33-0.9
									c-0.09-0.7,0.45-0.85,1.04-0.98c1.12-0.24,2.26-0.24,3.38-0.41C99.15,213.59,99.48,213.91,99.59,214.38z M93.27,180.35
									c1.19,8.17,2.4,16.34,3.59,24.51c0.31,2.1,0.61,4.19,0.93,6.28c0.11,0.7-0.16,1.01-0.86,1.06c-1.71,0.13-1.71,0.09-1.95-1.6
									c-0.59-4.11-1.22-8.22-1.84-12.33c-0.71-4.75-1.49-9.5-2.11-14.26c-0.52-4.04-1.21-8.06-1.8-12.09
									c-0.49-3.36-0.94-6.72-1.43-10.08c-0.56-3.82-1.14-7.63-1.71-11.44c-0.41-2.71-0.78-5.43-1.22-8.14
									c-0.37-2.27,0.75-4.03,1.93-6c1.08,7.62,2.18,15.01,3.31,22.39C91.21,165.89,92.21,173.12,93.27,180.35z M94.97,150.14
									c-1.25-0.38-2.48-0.8-3.74-1.17c-0.54-0.16-0.76-0.44-0.84-1.02c-0.53-3.96-1.12-7.91-1.69-11.86
									c-0.07-0.51-0.16-1.02-0.24-1.53c-0.09-0.59,0-1.12,0.35-1.62c0.72-1.06,1.38-2.16,1.72-3.41c0.14-0.5,0.45-0.44,0.81-0.42
									c3.05,0.12,6.09,0.03,9.06-0.8c0.81-0.23,1.61-0.49,2.59-0.79c-0.95,2.14-1.84,4.15-2.63,6.2
									c-1.95,5.07-3.19,10.33-4.18,15.65C96,150.44,96.02,150.46,94.97,150.14z M100.9,188.08c-1.96-4.84-3.11-9.89-3.65-15.09
									c-0.49-4.73-0.49-9.45-0.15-14.17c0.66-9.01,2.53-17.74,5.91-26.14c2.29-5.71,5.52-10.97,9-16.01
									c1.78-2.59,3.64-5.13,5.47-7.69c1.76-2.45,3.44-4.87,3.9-7.93c0.02-0.11,0.04-0.21,0.06-0.32c0.11-0.58-0.26-1.37,0.2-1.71
									c0.54-0.4,1.36-0.22,2.06-0.28c2.65-0.2,5.23-0.69,7.58-2.01c1.7-0.96,3.22-2.14,4.23-3.86c0.39-0.66,0.65-1.36,0.68-2.15
									c0.04-1.02-0.34-1.79-1.18-2.36c-1.12-0.76-2.35-1.36-3.41-2.24c-0.59-0.49-0.88-1.01-0.88-1.8c0-2.44,0.52-4.75,1.49-6.97
									c1.63-3.72,4.61-5.66,8.49-6.39c1.01-0.19,2.03-0.39,3.02-0.34c5.87-0.01,9.91,2.84,12.21,8.01
									c0.03,0.07,0.05,0.14,0.08,0.2c-0.06,0.22-0.07,0.45,0.04,0.7c1.59,3.65,1.69,7.83,0.52,11.61
									c-2.68,8.66-12.63,10.89-16.3,18.86c-1.63,3.54-1.74,7.82,0.44,11.15c-0.26,0.3-0.51,0.61-0.74,0.94
									c-1.3,1.88-1.31,3.98-0.02,5.52c0.6,0.72,1.37,1.16,2.27,1.36c0.59,0.13,0.78,0.47,0.84,1.02
									c0.66,6.05,1.65,12.05,2.71,18.05c0.59,3.34,1.23,6.68,1.98,9.99c0.1,0.44-0.06,0.79-0.23,1.17
									c-1.23,2.56-1.97,5.24-1.84,8.11c0.18,4.01,1.69,7.44,4.59,10.23c0.29,0.28,0.62,0.57,0.99,0.71
									c0.88,0.35,1.25,0.98,1.48,1.86c0.27,1.05,0.69,2.06,1.12,3.06c0.25,0.59,0.27,1.13,0.12,1.73
									c-2.42,9.61-10.63,18.53-21.76,20.04c-8.16,1.11-15.82-0.37-22.66-5.16C105.39,196.86,102.78,192.72,100.9,188.08z
									 M126.36,218.05c-0.16,1.61-1.16,2.65-2.31,3.6c-2.15,1.76-4.56,3.16-6.79,4.81c-0.79,0.58-1.56,1.18-2.27,1.87
									c-0.22,0.21-0.37,0.32-0.66,0.05c-3.08-2.87-6.69-2.86-10.47-1.88c-0.39,0.1-0.77,0.24-1.28,0.4
									c1.2-1.61,2.61-2.79,4.16-3.8c2.03-1.32,4.1-2.58,6.15-3.86c0.16-0.1,0.33-0.2,0.48-0.31c0.14-0.1,0.24-0.24,0.16-0.42
									c-0.09-0.22-0.28-0.24-0.48-0.19c-0.16,0.04-0.31,0.1-0.46,0.16c-3.89,1.67-7.68,3.5-10.62,6.68
									c-0.16,0.17-0.37,0.62-0.65,0.09c-1.09-2.1-2.96-2.93-5.17-3.23c-0.05-0.01-0.09-0.04-0.21-0.1
									c1.56-0.97,3.19-1.68,4.81-2.41c3.71-1.66,7.6-2.78,11.44-4.08c0.67-0.23,1.32-0.51,1.97-0.79
									c1.21-0.52,1.79-1.47,1.74-2.77c-0.02-0.66,0.09-0.88,0.81-0.61c2.82,1.05,5.71,1.73,8.75,1.72c0.28,0,0.57-0.01,0.62,0.37
									C126.29,214.9,126.52,216.46,126.36,218.05z M158.77,227.74c-1.19,2.21-2.61,4.27-4.09,6.29c-0.34,0.46-0.55,0.48-1,0.08
									c-1.91-1.66-4.16-2.53-6.7-2.62c-2.67-0.09-5.25,0.31-7.7,1.43c-0.07,0.03-0.15,0.02-0.3,0.03c0.54-1.1,1.27-2,2.01-2.9
									c1.49-1.8,2.91-3.67,4.68-5.22c0.21-0.18,0.58-0.41,0.34-0.72c-0.27-0.34-0.59-0.05-0.85,0.14
									c-2.37,1.64-4.41,3.63-6.21,5.86c-0.19,0.23-0.4,0.45-0.57,0.69c-0.24,0.35-0.39,0.26-0.58-0.05
									c-0.83-1.38-2.15-1.93-3.65-2.18c-0.53-0.09-1.08-0.14-1.71-0.22c0.29-0.38,0.64-0.61,0.98-0.83
									c2.86-1.9,5.86-3.54,8.93-5.08c1.46-0.73,2.9-1.49,4.08-2.66c0.69-0.69,1.2-1.48,1.38-2.45c0.1-0.55,0.29-0.75,0.92-0.62
									c3.56,0.76,7.08,0.58,10.52-0.61c0.52-0.18,0.69-0.01,0.86,0.48C161.43,220.52,160.67,224.2,158.77,227.74z M155.91,214.92
									c-4.37,0.75-8.57,0.12-12.31-2.47c-0.81-0.56-1.56-1.18-2.16-1.98c-0.19-0.25-0.33-0.62-0.74-0.49
									c-0.42,0.13-0.62,0.5-0.55,0.9c0.12,0.66-0.22,0.66-0.72,0.68c-2.93,0.16-5.71-0.64-8.52-1.23c-0.8-0.17-1.6-0.3-2.43-0.25
									c-0.56,0.03-0.66,0.28-0.35,0.79c-8.68,0.93-17.91-3.04-22.86-12.73c1.1,1.1,2.27,2.12,3.54,3.03
									c4.15,2.93,8.75,4.63,13.79,5.3c4.7,0.62,9.34,0.38,13.89-0.93c5.92-1.72,10.47-5.39,14.15-10.26
									c2.03-2.68,3.5-5.61,4.36-9.05c0.79,1.73,1.49,3.28,2.21,4.82c2.58,5.48,5.5,10.76,9.01,15.7c0.48,0.68,0.45,1.15,0.01,1.8
									C163.74,212.21,160.15,214.2,155.91,214.92z M164.24,213.47c1.47-1.18,2.68-2.49,3.6-4.04c0.25-0.42,0.44-0.14,0.61,0.06
									c1.66,1.85,3.51,3.49,5.75,5.01C170.75,214.51,167.57,213.93,164.24,213.47z M207.88,210.12c-0.71,1.25-1.8,2.1-2.99,2.84
									c-3.04,1.87-6.41,2.8-9.9,3.34c-2.6,0.4-5.21,0.46-7.81,0.3c-6.08-0.39-11.49-2.46-15.94-6.77
									c-3.87-3.74-6.63-8.27-9.24-12.9c-3.07-5.44-5.42-11.21-7.71-17.01c-0.24-0.62-0.15-0.82,0.52-0.98
									c1.15-0.28,1.88-1.15,2.42-2.16c0.38-0.7,0.6-1.46,0.8-2.22c0.7-2.74,2.4-4.56,4.98-5.65c2.68-1.14,5.52-1.86,8.19-3.02
									c3.4-1.48,6.73-3.09,9.6-5.49c0.05-0.05,0.14-0.05,0.27-0.09c0.5,2.85,1.04,5.67,1.69,8.47
									c2.25,9.62,5.92,18.67,11.08,27.08c2.02,3.29,4.3,6.43,7.31,8.94c1.39,1.16,2.98,2,4.61,2.77c0.64,0.3,1.27,0.62,1.83,1.06
									C208.11,209.02,208.22,209.51,207.88,210.12z"/>
								<path class="st11" d="M195.08,208.43c-0.21-0.05-0.42-0.11-0.63-0.16c-2.07-0.49-4.07-1.19-5.96-2.18
									c-5.17-2.73-9.17-6.78-12.54-11.47c-3.6-5.01-5.99-10.66-8.06-16.44c-0.1-0.28-0.22-0.56-0.34-0.83
									c-0.07-0.16-0.2-0.26-0.39-0.21c-0.2,0.06-0.23,0.24-0.2,0.4c0.05,0.32,0.12,0.64,0.21,0.95
									c2.26,7.26,5.39,14.05,10.27,19.97c3.56,4.32,7.81,7.62,13.08,9.56c1.43,0.52,2.89,0.94,4.3,1.19
									c0.52,0,0.74-0.12,0.75-0.34C195.58,208.53,195.32,208.49,195.08,208.43z"/>
								<path class="st11" d="M138.69,83.44c0.91,1.27,2.59,1.21,3.8,0.4c1.13-0.76,1.86-1.99,2.14-3.31
									c0.27-1.26,0.19-2.67-0.48-3.8c-0.72-1.21-2.12-1.72-3.46-1.23c-1.57,0.58-2.42,2.19-2.74,3.75
									c-0.25,1.21-0.15,2.52,0.42,3.6C138.46,83.06,138.56,83.26,138.69,83.44z M142.43,77.33c1.29,0,1.29,2,0,2
									C141.14,79.33,141.14,77.33,142.43,77.33z"/>
								<path class="st11" d="M142.43,79.33c1.29,0,1.29-2,0-2C141.14,77.33,141.14,79.33,142.43,79.33z"/>
								<path class="st11" d="M121.2,78.21c1.29,0,1.29-2,0-2C119.91,76.21,119.91,78.21,121.2,78.21z"/>
							</g>
							<path class="st3" d="M159.31,122.3c-0.9,0.49-1.66,1.14-2.27,1.91c-0.21-0.05-0.44-0.03-0.68,0.11
								c-2.89,1.73-6.01,2.97-9.31,3.64c-1.25,0.25-2.78,0.25-2.85,1.87c-0.07,1.59,0.39,3.33,0.61,4.9c1,7.22,2.35,14.39,3.7,21.56
								c0.18,0.93,1.37,0.86,1.83,0.24c3.35-4.58,10.23-7.9,9.5-14.52c-0.37-3.38-2.13-6.46-2.63-9.83
								c-0.46-3.07,0.18-6.56,3.12-8.16C161.46,123.41,160.45,121.68,159.31,122.3z"/>
							<path class="st7" d="M135.36,90.61c-0.12-0.33-0.36-0.52-0.63-0.61c-0.28-0.37-0.8-0.51-1.28-0.27
								c-0.06,0.03-0.12,0.05-0.18,0.08c0.72-0.73,0.01-2.05-0.87-1.73c-0.08-0.53-0.4-1.01-1.06-1.35c-0.72-0.36-1.43,0.1-1.5,0.86
								c-0.25,2.54-3.38,2.98-5.38,3.09c-2.47,0.14-4.94,0.15-7.41,0.22c-4.81,0.12-9.62,0.35-14.34,1.29
								c-1.26,0.25-0.73,2.18,0.53,1.93c1.81-0.36,3.63-0.6,5.46-0.77c-0.35,0.58-0.09,1.54,0.8,1.57
								c7.86,0.24,15.99,0.35,23.33-2.71c-0.07,0.31-0.17,0.62-0.31,0.93c-0.3,0.64,0.1,1.23,0.61,1.43
								c-0.73,1.25-2.06,2.25-3.41,2.79c-2.69,1.08-6.19,1.61-8.87,0.26c-1.15-0.58-2.16,1.15-1.01,1.73
								c3.39,1.71,7.68,1.17,11.06-0.33C134.02,97.63,136.69,94.17,135.36,90.61z M113.51,93.02c2.29-0.1,4.59-0.14,6.89-0.2
								c0.38-0.01,0.78-0.02,1.2-0.02C118.92,93.03,116.2,93.06,113.51,93.02z"/>
							<path class="st7" d="M195.27,206.95c-2.18-0.84-4.27-1.91-6.26-3.14c-1.03-0.77-2.02-1.61-2.96-2.5
								c-2.79-2.65-5.36-5.59-7.76-8.59c-1.42-1.77-2.75-3.64-3.93-5.6c-2.03-4.57-3.14-9.52-3.28-14.53c1.63-1.12,3.33-2.14,5-3.17
								c3.2-1.97,6.96-4.6,5.87-8.94c-0.28-1.1-1.46-1.3-2.3-0.79c0.34-0.29,0.68-0.57,1.01-0.89c2.77-2.75,4.62-6.2,5.53-9.88
								c0.6-1.34,0.75-2.74,0.63-4.15c0.19-3.26-0.32-6.57-1.54-9.66c-0.64-1.6-1.43-3.11-2.34-4.53c-0.01-0.02-0.01-0.03-0.02-0.05
								c-0.53-1.61-1.05-3.24-1.66-4.83c-0.49-1.26-1.13-2.43-2.3-3.15l0.02-0.22c0.03-0.37-0.19-0.81-0.44-1.06
								c-0.09-0.09-0.2-0.16-0.31-0.23c0.4,0.11,0.79,0.23,1.18,0.37c1.11,0.4,2.13-0.81,1.85-1.85c-1.03-3.8-2.86-8.1-5.95-10.69
								c-1.44-1.21-3.13-1.95-5.03-1.89c-2.16,0.07-4.38,0.63-6.51,0.97c-0.41,0.07-0.69,0.32-0.86,0.64
								c-0.25-0.04-0.5-0.07-0.75-0.1c1.67-0.68,3.38-1.24,5.15-1.65c0.84-0.19,1.79-0.24,2.53-0.69c0.94-0.57,1.11-1.56,1.23-2.57
								c0.29-2.41,0.54-4.82,0.7-7.24c0.28-4.17,0.22-8.4-0.65-12.5c0.83-0.08,1.62-0.79,1.35-1.85c-0.01-0.05-0.03-0.11-0.05-0.16
								c0.01-0.1,0.02-0.19,0-0.3c-0.24-1.23-0.64-2.36-1.17-3.4c-0.41-1.09-0.88-2.16-1.38-3.22c-0.94-0.7-1.93-1.36-2.96-2.01
								c0.01,0.1,0.04,0.2,0.09,0.29c-0.27-0.21-0.56-0.42-0.84-0.61c0.06,0,0.12-0.03,0.17-0.04c-1.75-1.06-3.6-2.04-5.53-2.92
								c-0.03,0.02-0.06,0.05-0.09,0.07c-0.88-0.36-1.77-0.69-2.64-0.99c-6.73-2.28-13.88-4.21-21.06-4.05
								c-2.55,0.1-5.05,0.42-7.46,1c-0.06,0.02-0.12,0.03-0.18,0.05c-0.17,0.04-0.33,0.09-0.5,0.13c-1.92,0.54-3.77,1.28-5.55,2.23
								c-1.13,0.61-0.13,2.34,1.01,1.73c8.13-4.38,17.67-3.54,26.29-1.26c3.39,0.9,7.47,1.96,11.07,3.68
								c0.03,0.13,0.08,0.26,0.16,0.39c3.87,6.77,4.92,14.91,2.16,22.29c-1.27,3.4-3.38,6.47-6.07,8.91
								c-2.5,2.27-5.42,4.01-8.19,5.92c-3.16,2.17-6.15,4.56-8.29,7.79c-0.97,1.47,1.09,2.84,2.27,1.86
								c0.39,0.18,0.85,0.18,1.27-0.14c2.97-2.24,6.01-4.53,9.19-6.55c4.62-1.9,10.45-2.09,13.93,2.03
								c0.71,0.85,1.24,1.85,1.51,2.92c0.28,1.13,0.37,2.17,1.54,2.74c1.11,0.54,2.5,0.13,3.68,0.15c0.87,0.01,1.72,0.13,2.56,0.31
								c-0.36,0.03-0.73,0.16-0.98,0.43l-0.23,0.3c-0.01,0.02-0.02,0.04-0.03,0.06c-0.62-0.1-1.24-0.18-1.83-0.26
								c-1.76-0.24-3.52-0.42-5.29-0.52c-1.45-0.09-2.1,2.16-0.76,2.8c7.55,3.6,12.36,11.84,11.87,20.19
								c-0.14,2.29-0.68,4.67-1.82,6.68c-1.17,2.06-3.02,3.42-5.08,4.52c-4.33,2.3-8.8,3.97-12.67,7.07
								c-4.27,3.43-7.37,8.22-7.89,13.74c-0.08,0.88,0.5,1.35,1.18,1.42c-0.11,0.21-0.2,0.42-0.29,0.63
								c-0.02-0.04-0.03-0.07-0.05-0.11c-0.73-1.38-2.73-0.66-2.8,0.76c-0.4,8.95-7.64,15.75-15.81,18.28
								c-8.68,2.68-18.95,2.18-26.02-4c-3.58-3.13-6.26-7.09-8.37-11.32c-0.86-1.73-3.45-0.21-2.59,1.51
								c0.63,1.26,1.32,2.49,2.07,3.7c-0.45,0.44-0.66,1.15-0.35,1.85c4.19,9.51,13.98,15.61,24.08,16.83
								c10.25,1.24,20.6-2.93,26.78-11.27c2.3-3.11,4.2-7.1,4.25-11.04c0.42,0.76,0.82,1.53,1.19,2.32c0,0,0,0,0,0
								c-0.79-0.03-1.6,0.48-1.57,1.46c0.19,6.17,3.23,12.18,2.34,18.38c-0.34,2.36-1.27,4.78-3.2,6.29
								c-2.26,1.77-5.44,1.75-7.83,0.29c-1.65-1.01-3.16,1.58-1.51,2.59c2.32,1.42,5.14,1.8,7.74,1.14
								c0.02,0.25,0.12,0.48,0.25,0.69c-1.15,0.05-2.3,0.13-3.44,0.08c-1.93-0.09-1.93,2.91,0,3c2.02,0.09,4.11-0.38,6.11-0.01
								c1.72,0.32,2.73,1.18,3.24,2.84c0.1,0.33,0.23,0.69,0.32,1.07c-0.14,0.7-0.33,1.38-0.58,2.05c-0.16,0.43-0.34,0.86-0.53,1.28
								c-0.2,0.29-0.4,0.57-0.58,0.84c-1.23,1.94-2.47,3.88-3.7,5.82c-0.44,0.68-0.14,1.65,0.54,2.05c0.76,0.45,1.57,0.12,2.05-0.54
								c1.54-2.1,3.05-4.25,4.18-6.57l0.19-0.29c0.69-1.09,1.43-2.13,1.52-3.46c0.03-0.42-0.01-0.84-0.08-1.27
								c0.04-0.28,0.11-0.54,0.13-0.83c0.22-2.14-0.05-4.64-1.16-6.53c-0.19-0.33-0.46-0.6-0.77-0.79c1.1-0.52,2.16-1.13,3.15-1.83
								c2.04-1.43,6.52-4.49,4.5-7.37c-1.56-2.22-3.15-4.34-4.56-6.63c1.1,0.14,2.32-0.99,1.55-2.2c-4.19-6.6-3.13-15.23,2.34-20.74
								c0.1-0.1,0.2-0.19,0.3-0.29c0.74,4.56,2.59,8.85,5.01,12.82c2.86,6.15,7.22,11.6,12.8,15.74c0.89,0.66,1.81,1.26,2.74,1.84
								c2.13,1.54,4.45,2.79,7.03,3.48C196.38,210.35,197.04,207.63,195.27,206.95z"/>
							<path class="st7" d="M127.13,213.37c-0.45-1.66-2.07-1.42-3.39-1.25c-0.44,0.06-0.89,0.11-1.34,0.16
								c-0.77-0.32-1.57-0.51-2.4-0.65c-0.9-0.16-2.05-0.25-2.79-0.84c-0.63-0.5-1.5-0.62-2.12,0c-0.37,0.37-0.53,1.04-0.36,1.57
								c-0.17,0.58-0.03,1.26,0.63,1.68c1.46,0.95,3.17,1.32,4.9,1.34c0.52,0.01,1.04-0.02,1.57-0.06c0.14,0.1,0.27,0.22,0.37,0.36
								c0.39,0.54,0.26,1.32,0.02,1.9c-0.34,0.83-0.99,1.5-1.61,2.13c-0.76,0.77-1.53,1.53-2.3,2.3c-1.61,1.61-3.22,3.22-4.83,4.84
								c-1.17,1.17,0.39,3.36,1.82,2.36c2.49-1.75,4.98-3.5,7.47-5.25c1.04-0.73,2.2-1.42,3.05-2.39c0.98-1.1,1.33-2.39,1.37-3.85
								c0.02-0.74,0.02-1.49,0.02-2.23C127.19,214.82,127.31,214.03,127.13,213.37z"/>
							<path class="st7" d="M90.74,153.78c-0.44-2.47-0.89-4.93-1.35-7.39c0.36,0.77,0.81,1.51,1.37,2.18
								c0.94,1.13,2.22,2.1,3.62,2.57c1.75,0.59,3.67-0.56,3.24-2.57c-0.37-1.75-2.23-2.03-3.14-3.36c-0.96-1.4-1.53-3.18-2.1-4.77
								c-1.05-2.95-1.82-6.75,0.47-9.34c1.28-1.44-0.84-3.57-2.12-2.12c-2.69,3.04-2.74,6.96-1.76,10.71
								c-0.08,0.12-0.15,0.26-0.19,0.43c-0.16,0.59-0.23,1.19-0.27,1.79c-0.2-1.01-0.39-2.02-0.59-3.03
								c-0.01-0.12-0.03-0.23-0.07-0.35c-0.08-0.37-0.15-0.75-0.22-1.13c-0.36-1.78-2.79-1.17-2.95,0.4
								c-0.25,2.45-0.49,4.9-0.74,7.35c-0.14,1.41,1.45,1.77,2.37,1.11c3.08,16.21,5.56,32.53,7.39,48.93
								c0.61,5.44,1.15,10.89,1.62,16.35c0.17,1.91,3.17,1.93,3,0C96.65,192.18,94.12,172.9,90.74,153.78z"/>
							<path class="st7" d="M89.03,127.8c-0.13-0.26-0.31-0.49-0.48-0.73c-0.04-0.06-0.11-0.21-0.18-0.28
								c0.22-1.7-2.44-2.36-2.93-0.57c-0.21,0.75-0.06,1.47,0.35,2.13c0.16,0.25,0.37,0.46,0.51,0.72c0,0,0.02,0.03,0.04,0.06
								c-0.04,0.07-0.09,0.23-0.13,0.3c-0.75,1.47-1.89,2.76-2.88,4.08c-2.02,2.69-3.65,5.85-2.87,9.3c0.42,1.88,3.31,1.09,2.89-0.8
								c-0.66-2.96,1.57-5.69,3.25-7.87c0.92-1.2,1.95-2.44,2.52-3.86C89.45,129.45,89.43,128.6,89.03,127.8z"/>
							<path class="st7" d="M82.66,104.44c-0.65,0.15-1.35,0.11-1.99-0.11c-0.25,0.36-0.56,0.65-0.92,0.88
								c1.45,6.25,1.12,12.85,2.9,19.06c0.53,1.85,3.43,1.07,2.89-0.8C83.76,117.28,84.1,110.69,82.66,104.44z"/>
						</g>
						<path class="st1" d="M127.28,83.54c-3.1-2.23-6.66,0.65-9.4,2.05c-3.18,1.62-6.58,2.78-9.81,4.3
							c-1.82,0.86-3.58,1.85-5.19,3.07c-0.51,0.38-0.01,1.25,0.5,0.86c3.44-2.61,7.53-4.08,11.47-5.75c1.98-0.84,3.9-1.78,5.76-2.86
							c1.82-1.06,4.19-2.23,6.16-0.81C127.3,84.78,127.8,83.91,127.28,83.54z"/>
						<path class="st1" d="M151.57,147.13c-0.19-1.11-0.37-2.21-0.56-3.32c-0.37-2.17-0.73-4.34-1.1-6.52
							c-0.37-2.17-0.73-4.34-1.1-6.52c-0.1-0.58-0.35-1.42-1.09-1.41c-0.82,0.01-0.71,0.96-0.62,1.63
							c-0.16,0.11-0.27,0.29-0.24,0.53c0.47,3.37,1.03,6.72,1.67,10.06c0.32,1.63,0.65,3.26,1.01,4.88c0.3,1.37,0.55,2.82,1.57,3.86
							c0.29,0.3,0.87,0.08,0.85-0.35C151.93,149.02,151.73,148.08,151.57,147.13z"/>
						<path class="st1" d="M163.52,140.89c-0.11,2.74-0.79,5.42-2.07,7.85c-1.3,2.47-3.18,4.53-5.04,6.6
							c-3.25,3.6-6.53,7.64-6.51,12.75c0,1.29,2,1.29,2,0c-0.02-5.51,4.35-9.46,7.69-13.32c3.47-4,5.7-8.53,5.93-13.88
							C165.58,139.6,163.58,139.6,163.52,140.89z"/>
						<path class="st1" d="M164.52,136.14c-0.25-0.6-0.5-1.21-0.75-1.81c-0.03-0.13-0.09-0.24-0.18-0.34
							c-0.07-0.11-0.16-0.19-0.28-0.26c-0.21-0.13-0.53-0.18-0.77-0.1c-0.24,0.08-0.48,0.23-0.6,0.46c-0.12,0.22-0.2,0.53-0.1,0.77
							c0.25,0.6,0.5,1.21,0.75,1.81c0.03,0.13,0.09,0.24,0.18,0.34c0.07,0.11,0.16,0.19,0.28,0.26c0.21,0.13,0.53,0.18,0.77,0.1
							c0.24-0.08,0.48-0.23,0.6-0.46C164.53,136.69,164.62,136.39,164.52,136.14z"/>
						<path class="st1" d="M85.94,124.75c-3.23,0.65-6.15,2.76-7.73,5.66c-1.76,3.23-1.75,7.13-0.19,10.43
							c0.55,1.16,2.28,0.15,1.73-1.01c-1.28-2.7-1.2-6,0.29-8.6c1.37-2.39,3.74-4.02,6.43-4.55
							C87.74,126.43,87.2,124.5,85.94,124.75z"/>
						<path class="st1" d="M145.5,217.96c-1.24,2.38-3.61,3.76-5.94,4.91c-2.57,1.27-5.25,2.44-7.23,4.59
							c-0.87,0.94,0.54,2.36,1.41,1.41c3.86-4.18,10.69-4.52,13.48-9.91C147.82,217.83,146.09,216.81,145.5,217.96z"/>
						<path class="st1" d="M146.73,224.12c-0.5-0.29-1.06-0.09-1.37,0.36c-1.95,2.83-4.27,5.38-6.87,7.63
							c-0.41,0.35-0.36,1.05,0,1.41c0.41,0.41,1,0.35,1.41,0c2.73-2.36,5.14-5.07,7.19-8.03
							C147.4,225.05,147.17,224.38,146.73,224.12z"/>
						<path class="st1" d="M113.65,218.56c-3.91,2.02-8.36,3.88-11.12,7.47c-0.33,0.43-0.42,1,0,1.41c0.34,0.34,1.08,0.43,1.41,0
							c2.67-3.45,6.95-5.21,10.72-7.15C115.81,219.7,114.8,217.97,113.65,218.56z"/>
						<path class="st1" d="M114.1,212.55c-0.6,1.25-1.85,1.84-3.07,2.35c-1.62,0.67-3.26,1.3-4.9,1.94
							c-3.39,1.34-6.77,2.69-10.16,4.03c-1.18,0.47-0.67,2.4,0.53,1.93c3.73-1.48,7.46-2.96,11.19-4.44
							c1.66-0.66,3.35-1.26,4.97-2.01c1.31-0.6,2.53-1.47,3.16-2.8C116.37,212.4,114.65,211.38,114.1,212.55z"/>
						<path class="st1" d="M178.41,205.76c-5.74-4.16-10.22-10.02-12.73-16.65c-0.45-1.19-2.39-0.68-1.93,0.53
							c2.72,7.16,7.46,13.35,13.65,17.85C178.44,208.25,179.44,206.51,178.41,205.76z"/>
						<path class="st1" d="M184.99,208.89c-0.49-0.11-0.97-0.27-1.43-0.45c-0.47-0.21-0.93-0.45-1.37-0.73
							c-0.44-0.28-1.12-0.1-1.37,0.36c-0.26,0.5-0.11,1.06,0.36,1.37c1,0.64,2.12,1.12,3.28,1.39c0.51,0.12,1.11-0.16,1.23-0.7
							C185.8,209.61,185.53,209.02,184.99,208.89z"/>
						<path class="st1" d="M185.61,194.77c-3.89-5.12-6.89-10.85-8.84-16.98c-0.39-1.22-2.32-0.7-1.93,0.53
							c2,6.29,5.05,12.21,9.04,17.46C184.66,196.79,186.39,195.79,185.61,194.77z"/>
						<path class="st1" d="M189.52,199.36c-0.03-0.08-0.07-0.16-0.1-0.24c-0.09-0.15-0.21-0.27-0.36-0.36l-0.64-0.48
							c-0.11-0.07-0.24-0.11-0.37-0.12c-0.13-0.03-0.27-0.02-0.4,0.02c-0.13,0.03-0.24,0.09-0.34,0.18
							c-0.11,0.07-0.19,0.16-0.26,0.28c-0.03,0.08-0.07,0.16-0.1,0.24c-0.05,0.18-0.05,0.35,0,0.53c0.03,0.08,0.07,0.16,0.1,0.24
							c0.09,0.15,0.21,0.27,0.36,0.36l0.64,0.48c0.11,0.07,0.24,0.11,0.37,0.12c0.13,0.03,0.27,0.02,0.4-0.02
							c0.13-0.03,0.24-0.09,0.34-0.18c0.11-0.07,0.19-0.16,0.26-0.28c0.03-0.08,0.07-0.16,0.1-0.24
							C189.57,199.71,189.57,199.53,189.52,199.36z"/>
					</g>
					<path class="st10" d="M180.38,40.37c-3.04,1.12-5.49,3.15-7.84,5.33c-1.01,0.94-2.11,1.88-2.63,3.19
						c-0.61,1.52-0.19,3.09-0.09,4.66c0.19,3.05-2.48,5.2-5.4,5.28c-3.3,0.09-6.1-2.26-8.13-4.62c-0.05-0.05-0.1-0.08-0.14-0.12
						c-0.32-0.65-0.6-1.34-0.78-2.08c-0.06-0.24-0.18-0.39-0.33-0.51c0.47-1.42,1.44-2.6,2.04-3.96c0.66-1.51,0.6-2.94,0.15-4.51
						c-0.94-3.35-1.98-6.77-4.08-9.6c-0.37-0.49-1.09-0.72-1.57-0.2c-1.59,1.7-3.18,3.4-4.77,5.1c-1.38,1.48-3.09,2.93-3.8,4.89
						c-0.63,1.74-0.41,3.64-0.38,5.45c0.02,0.98,0,1.98-0.31,2.92c-0.26,0.8-0.72,1.52-1.21,2.22c-2.03,0.84-4.21,1.18-6.41,1.03
						c-0.06-0.04-0.13-0.07-0.19-0.11c-0.29-0.18-0.57-0.37-0.85-0.56c-0.15-0.1-0.29-0.21-0.44-0.31
						c-0.06-0.04-0.11-0.09-0.17-0.13c-0.02-0.02-0.04-0.03-0.05-0.04c-0.01-0.01-0.03-0.03-0.08-0.07
						c-0.35-0.28-0.84-0.37-1.22-0.13c-0.13-0.11-0.25-0.21-0.38-0.31c-0.01-0.01-0.02-0.02-0.02-0.03c0,0,0,0,0,0.01
						c-0.07-0.05-0.13-0.11-0.2-0.16c-0.41-0.28-1.01-0.11-1.29,0.26c-0.03,0.04-0.05,0.09-0.07,0.13c-0.07-0.14-0.15-0.28-0.2-0.43
						c-0.15-0.43-0.49-0.63-0.85-0.67c-0.12-0.5-0.74-0.83-1.22-0.67c-0.54,0.18-0.81,0.68-0.7,1.23c0.05,0.23,0.1,0.45,0.17,0.67
						c-0.13,0.2-0.19,0.45-0.14,0.75c0.15,0.95,0.3,1.89,0.46,2.84c-0.48-0.63-1.46-0.34-1.69,0.33c-0.33,0.07-0.62,0.29-0.68,0.68
						c-0.16,1.01-0.22,2.16,0.23,3.06c-0.32,0.2-0.53,0.57-0.39,1.05c0.03,0.09,0.05,0.18,0.07,0.27c0.01,0.52,0.01,1.05,0.02,1.57
						c0,0.01,0.01,0.02,0.01,0.03l0,0.29c0,0.18,0.05,0.34,0.14,0.48c-0.83,0.63-0.32,2.2,0.78,1.77c3.58-1.39,7.45-1.57,11.25-1.63
						c4.05-0.06,8.11,0.17,12.12,0.75c3.71,0.53,7.64,1.15,11.06,2.75c3.38,1.58,6.26,3.98,9.04,6.43c0.6,0.53,1.39,0.28,1.67-0.44
						c0.48-1.26,0.71-2.55,0.85-3.86c0.23-0.12,0.42-0.32,0.47-0.6c0.12-0.61,0.24-1.22,0.36-1.84c0.05-0.27,0.04-0.53-0.1-0.77
						c-0.04-0.07-0.11-0.13-0.17-0.2c-0.02-0.18-0.04-0.36-0.07-0.55c-0.02-0.09-0.06-0.18-0.12-0.26c0.34-2.89,1.32-5.7,2.28-8.43
						c1.95-5.57,4.35-10.96,7.15-16.16C181.89,41.13,181.24,40.05,180.38,40.37z M141.26,58.7c0.08-0.17,0.14-0.35,0.22-0.52
						c0.28,0.26,0.58,0.48,0.9,0.68C142.01,58.81,141.64,58.76,141.26,58.7z M164.74,63.63c0.18,0.02,0.32-0.01,0.45-0.06
						c0.54,0.16,1.07,0.33,1.6,0.5c-0.1,0.08-0.18,0.18-0.24,0.29c-0.61-0.25-1.22-0.49-1.84-0.73
						C164.72,63.63,164.73,63.63,164.74,63.63z M146.65,59.28c0.03-0.06,0.06-0.12,0.07-0.18c0.94,0.11,1.89,0.13,2.85,0.04
						c0.33,0.1,0.65,0.2,0.98,0.29c0.16,0.1,0.33,0.18,0.49,0.27C149.58,59.52,148.11,59.4,146.65,59.28z"/>
					<path class="st7" d="M179.57,40.83c-2.26,3.65-4.35,7.41-5.91,11.41c-0.62,1.58-1.12,3.2-1.56,4.84
						c-0.1,0.18-0.19,0.36-0.3,0.54c-1.09,1.82-2.38,3.56-3.92,5.02c-6.6-1.76-13.18-3.61-19.83-5.16
						c-6.97-1.63-14.15-1.75-21.27-1.79c-1.29-0.01-1.29,1.99,0,2c7.12,0.04,14.26,0.17,21.21,1.83c6.01,1.44,11.98,3.08,17.96,4.68
						c-2.45,1.65-5.28,2.41-8.24,2.48c-1.29,0.03-1.29,2.03,0,2c0.8-0.02,1.59-0.08,2.38-0.19c-0.04,0.45,0.16,0.89,0.7,0.97
						c0.97,0.13,1.97,0.35,2.94,0.67c1.49,1.03,3.03,2,4.59,2.92c0.45,0.54,0.83,1.15,1.11,1.84c0.34,0.85,1.66,1.04,1.93,0
						c0.33-1.28,0.66-2.56,0.99-3.85c0.25-0.98,0.81-2.2,0.67-3.23c-0.1-0.75-0.7-1.22-1.46-1.52c0.27-0.12,0.5-0.34,0.56-0.63
						c0.6-2.59,1.14-5.2,1.82-7.77c2.88-5.13,4.43-10.93,7.35-16.06C181.93,40.71,180.24,39.73,179.57,40.83z"/>
					<path class="st7" d="M152.13,38.08c-0.62-1.01-2.02-0.32-1.83,0.77c0.47,2.65,0.94,5.32,0.78,8.02
						c-0.07,1.15-0.09,2.31-1.06,3.07c-0.51,0.41-1.86,1.38-2.37,0.48c-0.64-1.12-2.37-0.11-1.73,1.01
						c0.78,1.37,2.46,1.59,3.82,1.01c0.36-0.15,0.71-0.34,1.03-0.56c0.36,0.28,0.86,0.35,1.28-0.05c1.71-1.66,2.54-4.05,2.5-6.41
						C154.52,42.79,153.48,40.29,152.13,38.08z"/>
					<path class="st7" d="M131.42,38.46c-1.23-2.08-2.54-4.12-3.88-6.13c-0.71-1.07-2.44-0.07-1.73,1.01
						c1.22,1.84,2.41,3.7,3.55,5.59c1.02,1.68,2.14,3.59,1.49,5.61c-0.4,1.23,1.53,1.75,1.93,0.53
						C133.53,42.75,132.58,40.45,131.42,38.46z"/>
					<path class="st1" d="M151.28,37.65c-2.79,1.19-4.8,3.72-5.74,6.56c-0.97,2.93-0.99,7.02,2.14,8.66c0.57,0.3,1.08-0.56,0.5-0.86
						c-2.84-1.48-2.49-5.33-1.56-7.88c0.91-2.47,2.72-4.58,5.16-5.61C152.38,38.27,151.87,37.41,151.28,37.65z"/>
					<path class="st1" d="M152.2,31.12c-3.21,2.41-6.26,5.17-8.77,8.32c-1.15,1.44-2.32,3.15-2.56,5.02
						c-0.12,0.93,0.17,1.65,0.64,2.44c0.48,0.81,0.63,1.67,0.41,2.59c-0.52,2.16-2.6,3.28-4.61,3.75c-0.63,0.15-0.36,1.11,0.27,0.96
						c1.68-0.39,3.34-1.18,4.41-2.58c1.01-1.32,1.38-3.17,0.67-4.72c-0.18-0.39-0.44-0.73-0.62-1.11c-0.26-0.55-0.22-1.16-0.07-1.73
						c0.26-0.98,0.76-1.9,1.31-2.74c1.11-1.69,2.55-3.18,3.97-4.61c1.7-1.7,3.52-3.28,5.45-4.73
						C153.21,31.6,152.71,30.73,152.2,31.12z"/>
					<path class="st1" d="M126.92,31.68c-0.14-0.53-1.02-0.44-0.98,0.13c0.33,5.26,0.31,10.54-0.07,15.8
						c-0.02,0.27,0.15,0.42,0.36,0.46c-0.29,2.89-0.56,5.79-0.49,8.66c0.01,0.64,1.01,0.64,1,0
						C126.54,48.38,129.12,39.94,126.92,31.68z"/>
					<path class="st1" d="M157.84,61.15c-5.63-0.9-11.27-1.8-16.95-2.37c-2.85-0.29-5.71-0.49-8.57-0.56
						c-1.47-0.04-2.95-0.04-4.42,0c-1,0.02-2.15-0.01-3.01,0.59c-1.1,0.77-1.07,2.45-1.18,3.65c-0.15,1.61-0.17,3.22-0.07,4.83
						c0.04,0.64,1.04,0.64,1,0c-0.08-1.29-0.08-2.58-0.01-3.87c0.04-0.64,0.1-1.29,0.18-1.93c0.08-0.62,0.09-1.46,0.63-1.86
						c0.84-0.63,2.33-0.42,3.31-0.44c1.35-0.02,2.7-0.01,4.05,0.03c5.32,0.16,10.62,0.76,15.89,1.51c2.97,0.42,5.92,0.9,8.88,1.37
						C158.2,62.22,158.47,61.26,157.84,61.15z"/>
					<path class="st1" d="M180.5,40.33c-3.58,1.73-6.84,4.13-9.54,7.04c-0.59,0.64-1.39,1.34-1.7,2.17c-0.35,0.91,0.2,1.58,0.5,2.4
						c0.6,1.6-0.09,3.51-1.52,4.41c-0.54,0.34-0.04,1.21,0.5,0.86c1.35-0.85,2.17-2.33,2.23-3.93c0.03-0.78-0.17-1.51-0.51-2.21
						c-0.26-0.54-0.47-0.94-0.08-1.5c0.29-0.42,0.67-0.8,1.01-1.18c2.71-3,5.99-5.44,9.63-7.2
						C181.59,40.92,181.08,40.05,180.5,40.33z"/>
				</g>
				<g>
					<path class="st9" d="M84.72,122.94c-0.65-4.59-1.29-9.19-1.97-13.78c-0.23-1.54-0.46-3.09-0.7-4.63
						c-0.47,0.02-0.94-0.04-1.39-0.19c-0.32,0.47-0.75,0.83-1.27,1.08c0.3,1.9,0.6,3.81,0.89,5.71c0.66,4.32,1.3,8.64,1.95,12.96
						c0.03,0.17-0.01,0.47,0.24,0.41c0.73-0.2,1.45-0.45,2.16-0.71c0.2-0.07,0.11-0.28,0.1-0.44
						C84.74,123.21,84.74,123.07,84.72,122.94z"/>
					<path class="st9" d="M186.47,141.54c-1.04-6.6-3.91-12.47-7.48-18.04c-0.49-0.77-1.19-1.2-2.09-1.43
						c-1.24-0.32-2.48-0.45-3.73-0.47c-1.24-0.02-2.48,0.08-3.72,0.21c-4.51,0.48-8.84,1.72-13.04,3.44
						c-3.62,1.49-7.19,3.13-11.09,3.77c-0.44,0.07-0.56,0.28-0.5,0.72c0.2,1.64,0.31,3.3,0.56,4.94c0.78,5.1,1.58,10.2,2.41,15.29
						c0.35,2.16,0.79,4.31,1.23,6.69c0.5-0.64,0.82-1.1,1.2-1.51c2.17-2.33,4.32-4.69,6.54-6.97c2.54-2.61,3.15-5.66,2.39-9.12
						c-0.4-1.8-1.26-3.41-1.99-5.08c-0.24-0.54-0.35-1.08,0.3-1.4c0.16-0.08,0.3-0.11,0.43-0.1c0.38,0.01,0.6,0.36,0.8,0.71
						c1.28,2.27,2.22,4.63,2.55,7.26c0.39,3.22-0.48,5.99-2.58,8.38c-1.71,1.94-3.52,3.79-5.31,5.65c-1.63,1.7-3.05,3.56-4.04,5.7
						c-2.32,5-2.23,9.85,1.07,14.43c0.65,0.9,1.39,1.76,2.44,2.25c0.39,0.18,0.77,0.26,1.12,0.23c0.58-0.05,1.09-0.39,1.48-1.01
						c0.41-0.65,0.63-1.39,0.83-2.12c0.92-3.49,3.16-5.77,6.47-7.03c2.06-0.79,4.15-1.47,6.21-2.26c5.12-1.98,9.94-4.38,13.48-8.83
						C185.76,151.61,187.31,146.9,186.47,141.54z"/>
					<path class="st9" d="M119.11,92.61c1.98-0.01,3.96-0.09,5.94-0.37c2.58-0.37,5-1.25,7.23-2.62c0.25-0.15,0.62-0.31,0.12-0.61
						c-2-1.21-3.58-2.91-5.32-4.43c-1.07-0.94-2.18-1.48-3.38-1.48c-0.72,0-1.48,0.2-2.28,0.64c-4.74,2.56-9.7,4.66-14.57,6.95
						c-1.18,0.55-2.29,1.23-3.36,2.36c3.35-0.37,6.51-0.47,9.68-0.48c0,0,0.01,0,0.01,0c0,0,0,0,0,0
						C115.15,92.56,117.13,92.62,119.11,92.61z"/>
					<path class="st9" d="M142.68,127.03c0.27,0.07,0.55,0.12,0.83,0.14c0.28,0.02,0.56,0.01,0.85-0.02
						c2.88-0.31,5.54-1.35,8.18-2.43c6.18-2.54,12.42-4.81,19.21-5.06c0.35-0.01,0.69-0.02,1.04-0.03c2.39-0.03,4.71,0.2,6.96,1.42
						c0.2-0.7-0.03-1.3-0.1-1.91c-0.25-2.23-0.76-4.4-1.79-6.41c-0.99-1.92-2.26-3.57-4.46-4.3c-1-0.33-1.99-0.48-2.98-0.5
						c-1.64-0.03-3.26,0.31-4.85,0.83c-8.22,2.66-15.41,7.16-22.04,12.61c-0.81,0.67-1.63,1.38-2.14,2.34
						C140.61,125.15,141.19,126.64,142.68,127.03z"/>
					<path class="st9" d="M96.85,204.86c-1.2-8.17-2.4-16.34-3.59-24.51c-1.06-7.23-2.05-14.47-3.16-21.69
						c-1.13-7.38-2.23-14.75-3.31-22.37c-1.17,1.96-2.29,3.71-1.92,5.98c0.44,2.71,0.81,5.42,1.22,8.14
						c0.57,3.81,1.16,7.63,1.71,11.44c0.49,3.36,0.94,6.72,1.43,10.08c0.59,4.03,1.28,8.05,1.8,12.09
						c0.62,4.77,1.39,9.51,2.11,14.26c0.62,4.11,1.25,8.21,1.84,12.33c0.18,1.27,0.22,1.6,0.96,1.64c0.24,0.01,0.56-0.01,0.98-0.04
						c0.7-0.05,0.96-0.36,0.86-1.06C97.45,209.05,97.16,206.95,96.85,204.86z"/>
					<path class="st9" d="M83.68,137.63c0.81-1.7,1.81-3.28,2.8-4.87c0.72-1.15,1.49-2.28,1.99-3.55c0.71-1.83-0.46-3.55-2.42-3.51
						c-2.14,0.05-3.89,1.11-5.55,2.3c-1.86,1.34-2.78,3.22-2.87,5.5c-0.14,3.49,1.34,6.37,3.45,9c0.54,0.67,1.09,1.34,2.06,1.74
						c-0.04-0.36-0.03-0.61-0.1-0.83C82.51,141.4,82.79,139.49,83.68,137.63z"/>
					<path class="st9" d="M91.34,129.11c-0.09,0-0.17-0.01-0.25-0.01c-0.25,0-0.44,0.06-0.55,0.43c-0.35,1.24-1,2.35-1.72,3.41
						c-0.35,0.51-0.44,1.04-0.35,1.62c0.08,0.51,0.17,1.02,0.24,1.53c0.57,3.95,1.15,7.9,1.69,11.86c0.08,0.59,0.3,0.86,0.84,1.02
						c1.25,0.37,2.49,0.79,3.74,1.17c0.38,0.12,0.62,0.19,0.78,0.18c0.26-0.02,0.3-0.28,0.43-0.94c0.99-5.32,2.23-10.58,4.18-15.65
						c0.79-2.05,1.68-4.06,2.63-6.2c-0.97,0.3-1.77,0.56-2.57,0.78c-2.23,0.62-4.5,0.83-6.78,0.84
						C92.87,129.15,92.11,129.14,91.34,129.11z"/>
					<path class="st9" d="M141.43,210.48c0.6,0.79,1.35,1.42,2.16,1.98c2.81,1.95,5.87,2.78,9.07,2.77
						c1.06-0.01,2.14-0.11,3.23-0.29c4.25-0.73,7.83-2.71,10.31-6.4c0.44-0.65,0.47-1.12-0.01-1.8c-3.51-4.94-6.44-10.22-9.01-15.7
						c-0.72-1.54-1.42-3.08-2.2-4.8c-0.86,3.43-2.33,6.36-4.36,9.03c-3.68,4.87-8.23,8.54-14.15,10.26
						c-2.84,0.83-5.73,1.23-8.64,1.26c-1.75,0.02-3.5-0.09-5.27-0.32c-5.03-0.66-9.63-2.36-13.79-5.3c-1.27-0.89-2.42-1.9-3.51-3
						c4.33,8.46,11.93,12.56,19.57,12.82c1.09,0.04,2.18,0,3.26-0.12c-0.3-0.5-0.21-0.75,0.35-0.79c0.21-0.01,0.41-0.01,0.62,0
						c0.62,0.02,1.22,0.13,1.82,0.26c2.46,0.51,4.9,1.19,7.43,1.25c0.36,0.01,0.72,0,1.08-0.02c0.5-0.03,0.84-0.02,0.72-0.68
						c-0.07-0.4,0.13-0.77,0.55-0.9c0.1-0.03,0.19-0.03,0.26-0.01C141.17,210.03,141.29,210.28,141.43,210.48z"/>
					<path class="st9" d="M123,96.98c1.26-0.04,2.54-0.2,3.83-0.49c2.82-0.63,5.26-1.88,7.05-4.23c0.35-0.47,0.59-0.98,0.53-1.59
						c-0.04-0.39-0.17-0.58-0.42-0.51c-0.09,0.03-0.19,0.09-0.3,0.18c-0.9,0.72-1.9,1.27-2.95,1.73c-3.49,1.54-7.15,1.97-10.87,2
						c-0.53,0-1.07,0-1.6-0.01c-2.74-0.05-5.48-0.17-8.22-0.27l-0.05,0.15c0.65,0.28,1.29,0.57,1.94,0.83
						C115.54,96.21,119.21,97.1,123,96.98z"/>
					<path class="st9" d="M154.66,234.03c1.48-2.02,2.9-4.08,4.09-6.29c1.9-3.54,2.66-7.22,1.33-11.16
						c-0.12-0.37-0.25-0.55-0.52-0.55c-0.09,0-0.2,0.02-0.32,0.07c-2.16,0.74-4.34,1.09-6.54,1.06c-1.32-0.02-2.66-0.17-3.99-0.45
						c-0.15-0.03-0.28-0.04-0.38-0.04c-0.32,0.03-0.44,0.24-0.52,0.66c-0.18,0.96-0.68,1.76-1.38,2.45
						c-1.18,1.17-2.62,1.93-4.08,2.66c-3.07,1.53-6.07,3.18-8.93,5.08c-0.34,0.23-0.7,0.45-0.98,0.83c0.63,0.08,1.18,0.13,1.71,0.22
						c1.5,0.25,2.83,0.81,3.65,2.18c0.09,0.15,0.18,0.25,0.26,0.27c0.09,0.01,0.18-0.05,0.3-0.22c0.17-0.25,0.38-0.46,0.57-0.69
						c1.81-2.24,3.84-4.22,6.21-5.86c0.17-0.12,0.36-0.28,0.55-0.29c0.11-0.01,0.22,0.03,0.32,0.15c0.25,0.31-0.13,0.54-0.34,0.72
						c-1.76,1.56-3.19,3.42-4.68,5.22c-0.74,0.89-1.47,1.8-2.01,2.9c0.14-0.01,0.22,0,0.29-0.03c2.15-0.98,4.4-1.41,6.72-1.44
						c0.33,0,0.67,0,1,0.01c2.54,0.09,4.78,0.96,6.7,2.62c0.22,0.19,0.39,0.28,0.54,0.27C154.36,234.37,154.5,234.25,154.66,234.03z
						"/>
					<path class="st9" d="M103.01,132.68c-3.38,8.4-5.25,17.13-5.91,26.14c-0.35,4.73-0.35,9.45,0.15,14.17
						c0.54,5.2,1.69,10.24,3.65,15.09c1.88,4.64,4.49,8.78,8.67,11.71c5.56,3.9,11.65,5.6,18.11,5.51c1.49-0.02,3-0.14,4.53-0.35
						c11.13-1.51,19.34-10.43,21.76-20.04c0.15-0.6,0.13-1.14-0.12-1.73c-0.43-1-0.84-2.01-1.12-3.06
						c-0.23-0.88-0.61-1.52-1.48-1.86c-0.37-0.14-0.7-0.43-0.99-0.71c-2.9-2.79-4.41-6.22-4.59-10.23
						c-0.13-2.87,0.61-5.55,1.84-8.11c0.18-0.37,0.33-0.73,0.23-1.17c-0.75-3.31-1.39-6.65-1.98-9.99c-1.06-5.99-2.05-12-2.71-18.05
						c-0.06-0.55-0.25-0.9-0.84-1.02c-0.9-0.2-1.67-0.64-2.27-1.36c-1.29-1.55-1.28-3.64,0.02-5.52c0.23-0.33,0.48-0.65,0.75-0.95
						c-2.18-3.33-2.06-7.6-0.44-11.14c3.66-7.97,13.61-10.2,16.3-18.86c1.17-3.79,1.07-7.96-0.52-11.61
						c-0.1-0.24-0.1-0.47-0.04-0.68c-0.03-0.08-0.06-0.15-0.09-0.23c-2.3-5.17-6.34-8.03-12.21-8.01c-0.99-0.05-2.01,0.15-3.02,0.34
						c-1.75,0.33-3.31,0.93-4.65,1.8c0,0,0.01,0,0.01,0c-1.63,1.06-2.94,2.55-3.83,4.59c-0.97,2.22-1.49,4.53-1.49,6.97
						c0,0.79,0.29,1.31,0.88,1.8c1.06,0.88,2.28,1.48,3.41,2.24c0.83,0.57,1.22,1.33,1.18,2.36c-0.03,0.79-0.29,1.49-0.68,2.15
						c-1.01,1.72-2.52,2.91-4.23,3.86c-2.35,1.32-4.92,1.81-7.58,2.01c-0.18,0.01-0.37,0.01-0.55,0.01c-0.18,0-0.36-0.01-0.54,0
						c-0.36,0.01-0.7,0.07-0.97,0.27c-0.47,0.35-0.09,1.13-0.2,1.71c-0.02,0.11-0.04,0.21-0.06,0.32c-0.18,1.16-0.53,2.23-1,3.24
						c-0.16,0.37-0.34,0.74-0.52,1.1c-0.01,0-0.03,0.01-0.04,0.01c-0.68,1.23-1.5,2.4-2.35,3.58c-0.33,0.47-0.67,0.93-1,1.4
						c-0.05,0.1-0.09,0.19-0.14,0.29c-0.26,0.32-0.51,0.65-0.77,0.97c-1.2,1.67-2.4,3.34-3.56,5.03
						C108.52,121.72,105.3,126.98,103.01,132.68z M137.94,79.25c0.32-1.56,1.17-3.17,2.74-3.75c0.34-0.12,0.68-0.18,1.01-0.18
						c0.99-0.01,1.92,0.51,2.46,1.42c0.67,1.12,0.74,2.54,0.48,3.8c-0.28,1.32-1.01,2.55-2.14,3.31c-0.61,0.41-1.33,0.62-2.01,0.58
						c-0.69-0.04-1.34-0.34-1.8-0.98c-0.13-0.18-0.23-0.38-0.32-0.59C137.78,81.77,137.69,80.46,137.94,79.25z"/>
					<path class="st9" d="M117.25,226.45c2.23-1.65,4.64-3.05,6.79-4.81c1.16-0.95,2.15-1.98,2.31-3.6c0.16-1.59-0.07-3.14-0.29-4.7
						c-0.05-0.38-0.34-0.37-0.62-0.37c-3.03,0.01-5.93-0.67-8.75-1.72c-0.18-0.07-0.32-0.1-0.43-0.11
						c-0.32-0.01-0.38,0.23-0.36,0.72c0.05,1.3-0.54,2.25-1.74,2.77c-0.65,0.28-1.3,0.56-1.97,0.79c-3.83,1.3-7.73,2.42-11.44,4.08
						c-1.62,0.72-3.25,1.44-4.81,2.41c0.12,0.06,0.16,0.1,0.21,0.1c2.21,0.29,4.08,1.13,5.17,3.23c0.1,0.19,0.19,0.25,0.28,0.25
						c0.14-0.02,0.26-0.23,0.36-0.34c2.94-3.18,6.73-5.02,10.62-6.68c0.15-0.06,0.3-0.12,0.46-0.16c0.05-0.01,0.1-0.02,0.15-0.02
						c0.14-0.01,0.27,0.04,0.34,0.21c0.07,0.18-0.03,0.32-0.16,0.42c-0.15,0.11-0.32,0.21-0.48,0.31c-2.05,1.28-4.12,2.54-6.15,3.86
						c-1.54,1.01-2.95,2.19-4.15,3.8c0.5-0.16,0.88-0.3,1.26-0.4c1.42-0.37,2.81-0.6,4.17-0.59c2.25,0.01,4.39,0.68,6.32,2.48
						c0.14,0.13,0.25,0.17,0.35,0.16c0.1-0.02,0.19-0.1,0.3-0.21C115.69,227.64,116.46,227.04,117.25,226.45z"/>
					<path class="st9" d="M124.05,65.68c-0.04,0.23-0.04,0.45-0.02,0.68c0.02,0.21,0.02,0.43,0.02,0.64
						c0.79-0.59,1.62-1.11,2.51-1.54c0.77-0.37,1.43-0.39,2.25-0.56c1.05-0.22,2.11-0.41,3.18-0.55c2.12-0.28,4.26-0.37,6.4-0.34
						c1.76,0.03,3.52,0.15,5.28,0.33c4.31,0.44,8.54,1.31,12.66,2.63c4.85,1.55,10.9,3.56,13.88,8.02c0.03-0.11,0.06-0.21,0.09-0.32
						c0.08-0.26,0.1-0.51,0.08-0.76c0.21,0.08,0.3-0.03,0.39-0.39c0.37-1.42,0.79-2.82,1.21-4.23c0.47-1.59,0.38-1.86-1.1-2.63
						c-3.44-1.79-7.11-2.93-10.84-3.88c-4.19-1.06-8.42-1.96-12.48-2.53c-5.72-0.98-11.25-1.55-16.81-1.83
						c-1.74-0.09-3.49-0.11-5.22,0.16c-0.63,0.1-1.1,0.36-1.19,1.06c-0.25,1.87-0.4,3.74-0.52,5.62
						C123.78,65.57,123.87,65.67,124.05,65.68z"/>
					<path class="st9" d="M126.61,40.62c0.05,2.77,0.05,5.52-0.14,8.31C128.41,46.88,128.42,42.15,126.61,40.62z"/>
					<path class="st9" d="M127.06,57.01c5.67-0.18,11.28,0.47,16.88,1.22c5.69,0.77,11.32,1.86,16.87,3.33
						c3.49,0.92,6.92,1.98,10.15,3.59c0.53,0.26,0.72,0.15,0.87-0.39c0.44-1.54,0.89-3.08,1.39-4.61c0.31-0.96,0.64-1.87-0.19-2.77
						c-0.22-0.24-0.28-0.66-0.37-1c-0.97-3.77,0.78-7.77,4.31-9.42c1.16-0.54,1.84-1.27,2.34-2.37c0.59-1.27,1.29-2.49,1.8-3.83
						c-0.12-0.02-0.17-0.04-0.22-0.03c-0.14,0.02-0.28,0.04-0.4,0.09c-4.33,1.67-7.91,4.31-10.51,8.19
						c-0.41,0.61-0.41,1.2-0.06,1.79c1.47,2.53-0.41,6.24-2.52,7.4c-3.01,1.66-7.77,0.65-9.94-2.18c-0.68-0.89-1.28-1.8-1.28-2.99
						c0.01-1.88,0.58-3.55,1.85-4.93c0.52-0.56,0.69-1.13,0.61-1.88c-0.39-3.64-1.64-7-3.22-10.26c-0.63-1.3-1.36-2.54-2.24-3.69
						c-0.72-0.94-0.98-0.98-1.89-0.28c-1.01,0.77-2.05,1.52-3.01,2.36c-2.74,2.38-5.15,5.03-6.72,8.36c-0.59,1.26-0.8,2.44-0.1,3.8
						c1.02,1.97,0.56,5.23-1.86,6.78c-1.2,0.77-2.46,1.07-3.85,1.07c-2.12,0-4.02-1.29-4.9-3.38c-0.81-1.93-0.43-4.59,1.01-5.88
						c0.96-0.85,1.04-1.68,0.6-2.79c-0.99-2.48-2.16-4.87-3.62-7.1c-0.74-1.12-1.49-2.25-2.75-3.24c0.35,2.3,0.46,4.42,0.52,6.54
						c0.01,0.21,0.14,0.34,0.3,0.47c3.22,2.75,3.1,8.48,0.02,11.13c-0.31,0.27-0.47,0.6-0.51,1.01c-0.13,1.63-0.29,3.25-0.39,4.88
						C125.97,57.07,126.01,57.05,127.06,57.01z M144.66,42.82c1.06-2.46,2.64-4.49,5.15-5.62c1.64-0.74,2.44-0.46,3.38,1.1
						c1.64,2.71,2.37,5.64,2.08,8.68c-0.51,2.47-1.52,4.47-3.64,5.75c-3,1.81-6.31,0.61-7.44-2.71
						C143.36,47.57,143.65,45.15,144.66,42.82z"/>
					<path class="st9" d="M124.04,74.47c0,0,0.01,0,0.01,0c0,0.06-0.01,0.13-0.01,0.19c0,0.3-0.01,0.61-0.04,0.91
						c-0.01,0.13,0,0.26-0.02,0.38c-0.15,1.58-0.61,3.09-1.05,4.6c-0.13,0.43-0.13,0.7,0.3,0.74c0.06,0,0.12,0,0.2,0
						c0.01,0,0.01,0,0.01,0c1.36-0.08,2.56,0.4,3.67,1.15c0.65,0.43,1.28,0.89,2.01,1.41c0.22-2.26,0.56-4.36,1.33-6.39
						c1.46-3.85,4.02-6.56,8.01-7.76c2.47-0.74,4.98-1.03,7.57-0.7c3.75,0.49,6.82,2.15,9.16,5.1c1.02,1.28,1.81,2.63,2.43,4.02
						c0.01,0,0.02,0.01,0.04,0.01c0.13,0.3,0.24,0.6,0.35,0.9c0.03,0.09,0.07,0.17,0.1,0.26c0.21,0.59,0.41,1.19,0.56,1.8
						c1.71,6.39,0.02,13.56-4.8,18.26c-3.26,3.18-7.46,5.21-10.23,8.92c-2.46,3.3-3.57,7.78-1.46,11.46
						c0.38-0.32,0.76-0.64,1.14-0.95c5.33-4.28,11.09-7.86,17.39-10.55c3.14-1.34,6.38-2.34,9.84-2.42
						c0.63-0.01,0.61-0.35,0.55-0.81c-0.27-1.94-0.41-3.9-0.36-5.86c0.08-3.18,0.3-6.35,0.32-9.53c0-0.28-0.01-0.57-0.01-0.85
						c-0.01-0.83-0.01-1.67-0.06-2.5c-0.17-3.11-0.7-6.15-1.89-9.04c-0.23,0.06-0.46,0.12-0.69,0.16c0.22-0.08,0.43-0.2,0.62-0.33
						c-0.06-0.15-0.12-0.3-0.19-0.45c-0.29-0.66-0.69-1.21-1.25-1.69c-1.28-1.08-2.69-1.94-4.17-2.7
						c-6.25-3.19-12.93-4.92-19.87-5.7c-4.59-0.51-9.16-0.47-13.73,0.32c-2.58,0.45-4.88,1.28-6.53,3.43
						c-0.19,0.24-0.51,0.41-0.23,0.82C123.78,72.15,124.02,73.29,124.04,74.47z"/>
					<path class="st9" d="M121.06,73.69c-0.11,0.26-0.22,0.52-0.3,0.79c-0.06,0.21-0.08,0.4,0.19,0.43c0.67,0.07,1.1,0.52,1.63,1.07
						c0.07-0.53,0.08-1.01,0.05-1.48c0-0.03,0-0.06,0-0.09c-0.04-0.48-0.11-0.94-0.21-1.39c-0.04-0.2-0.09-0.46-0.34-0.52
						c-0.28-0.07-0.46,0.14-0.59,0.35c-0.17,0.27-0.31,0.55-0.44,0.84C121.05,73.69,121.06,73.69,121.06,73.69z"/>
					<path class="st9" d="M151.36,51.43c1.57-1.15,2.32-2.77,2.69-5.02c0.3-2.56-0.41-5.2-2.11-7.63c-0.53-0.76-0.99-0.82-1.76-0.45
						c-3.31,1.61-6.2,6.9-4.67,11.31C146.45,52.38,149,53.16,151.36,51.43z"/>
					<path class="st9" d="M168.44,209.49c-0.11-0.12-0.22-0.27-0.35-0.28c-0.08,0-0.16,0.06-0.25,0.22
						c-0.92,1.55-2.12,2.86-3.6,4.04c3.32,0.46,6.5,1.03,9.95,1.03C171.95,212.97,170.1,211.34,168.44,209.49z"/>
					<path class="st9" d="M99.58,214.38c-0.11-0.47-0.43-0.78-0.93-0.71c-1.12,0.17-2.26,0.17-3.38,0.41
						c-0.58,0.12-1.13,0.27-1.04,0.98c0.08,0.67,0.6,0.91,1.32,0.9c1.1-0.18,2.29-0.26,3.44-0.58
						C99.51,215.23,99.69,214.87,99.58,214.38z"/>
					<path class="st9" d="M204.88,212.95c1.19-0.73,2.27-1.59,2.99-2.84c0.35-0.61,0.23-1.09-0.29-1.51
						c-0.56-0.44-1.19-0.76-1.83-1.06c-1.63-0.76-3.22-1.61-4.61-2.77c-3.01-2.51-5.29-5.65-7.31-8.94
						c-5.16-8.41-8.83-17.46-11.08-27.08c-0.65-2.8-1.19-5.62-1.69-8.47c-0.12,0.04-0.2,0.05-0.25,0.09c-2.87,2.4-6.2,4-9.6,5.49
						c-2.67,1.17-5.5,1.89-8.19,3.02c-2.58,1.09-4.28,2.91-4.98,5.65c-0.2,0.76-0.42,1.52-0.8,2.22c-0.54,1.02-1.27,1.89-2.42,2.16
						c-0.68,0.16-0.77,0.36-0.52,0.98c2.29,5.8,4.64,11.57,7.71,17.01c2.61,4.63,5.37,9.15,9.24,12.9
						c4.46,4.32,9.86,6.38,15.94,6.77c0.65,0.04,1.3,0.07,1.95,0.08c1.95,0.03,3.91-0.07,5.85-0.38
						C198.47,215.75,201.83,214.82,204.88,212.95z M194.81,209.21c-1.41-0.24-2.87-0.66-4.3-1.19c-5.27-1.93-9.52-5.24-13.08-9.56
						c-4.88-5.92-8.02-12.71-10.27-19.97c-0.1-0.31-0.16-0.63-0.21-0.95c-0.02-0.15,0-0.34,0.2-0.4c0.05-0.01,0.09-0.02,0.13-0.01
						c0.13,0.01,0.22,0.1,0.27,0.22c0.13,0.27,0.24,0.55,0.34,0.83c2.07,5.78,4.46,11.42,8.06,16.44
						c3.37,4.69,7.36,8.74,12.54,11.47c1.89,1,3.89,1.69,5.96,2.18c0.21,0.05,0.42,0.11,0.63,0.16c0.24,0.06,0.5,0.11,0.49,0.44
						c0,0.23-0.23,0.34-0.75,0.34c0,0,0,0,0,0C194.81,209.21,194.81,209.21,194.81,209.21z"/>
					<path class="st9" d="M174.18,56.84c1.18-3,2.21-6,3.54-9.04C174.2,50.02,172.6,54.14,174.18,56.84z"/>
					<path d="M208.54,206.88c-0.72-0.55-1.52-0.96-2.33-1.34c-2.08-0.96-3.9-2.26-5.45-3.95c-2.61-2.84-4.74-6.04-6.62-9.39
						c-5.73-10.16-9.24-21.09-11.07-32.58c-0.14-0.88,0.07-1.52,0.66-2.19c3.36-3.84,5.05-8.35,5.02-13.45
						c-0.02-2.73-0.54-5.41-1.37-8.01c-1.29-4.04-3.08-7.85-5.25-11.48c-0.16-0.27-0.49-0.58-0.34-0.88
						c0.58-1.14,0.22-2.31,0.13-3.45c-0.22-2.67-0.71-5.29-1.82-7.74c-1.13-2.49-2.64-4.7-5.3-5.71c-1.07-0.41-1.46-0.85-1.6-2.06
						c-0.48-4.14-0.25-8.27-0.04-12.39c0.06-1.24,0.08-2.48,0.07-3.7c0-0.05,0-0.1,0-0.15c0-0.27,0-0.55-0.01-0.82
						c-0.01,0-0.01,0-0.02-0.01c-0.11-3.51-0.6-7-1.81-10.32c-0.12-0.33-0.26-0.64-0.4-0.94c0.29-0.31,0.52-0.68,0.64-1.15
						c0.59-2.25,1.3-4.46,2.01-6.68c0.2-0.62,0.2-1.29-0.26-1.73c-0.53-0.52-0.55-1-0.3-1.61c0.14-0.33,0.22-0.68,0.33-1.03
						c1.68-5.69,3.76-11.23,6.17-16.65c0.97-2.18,2.02-4.31,3.02-6.48c0.45-0.99,0.14-1.52-0.92-1.71
						c-0.78-0.14-1.48,0.11-2.19,0.37c-2.81,1.02-5.22,2.68-7.37,4.72c-1.5,1.42-2.84,2.95-3.7,4.86c-0.33,0.73-0.27,1.36,0.1,2.05
						c1.27,2.35,0.2,5.09-2.31,6.03c-2.59,0.97-6.23-0.1-7.89-2.32c-0.63-0.84-0.91-1.75-0.69-2.81c0.26-1.22,0.7-2.33,1.59-3.23
						c0.69-0.69,0.96-1.5,0.9-2.49c-0.17-2.75-0.97-5.34-1.93-7.88c-0.99-2.63-2.25-5.13-4-7.35c-1.09-1.39-1.75-1.49-3.24-0.59
						c-1.74,1.05-3.34,2.29-4.82,3.68c-2.79,2.6-5.14,5.51-6.36,9.2c-0.33,0.99-0.39,1.89,0.2,2.86c0.69,1.13,0.83,2.45,0.44,3.69
						c-0.9,2.85-4.83,3.92-7.14,2.01c-1.82-1.5-2.01-4.51-0.19-6.12c1.15-1.02,1.26-2.03,0.87-3.38c-0.81-2.82-2.03-5.45-3.57-7.94
						c-0.91-1.47-1.9-2.86-3.33-3.87c-0.51-0.36-1.09-0.61-1.71-0.27c-0.65,0.35-0.64,0.99-0.56,1.61c0.28,2.26,0.34,4.52,0.42,6.79
						c0.23,5.99-0.17,11.95-0.58,17.91c-0.03,0.41-0.13,0.65-0.55,0.8c-0.63,0.22-0.92,0.71-1.03,1.38
						c-0.41,2.33-0.36,4.69-0.62,7.03c-0.08,0.76,0.07,1.41,0.43,1.97c-1.39,1.27-2.55,2.78-3.41,4.48
						c-1.57,3.12-2.07,6.63-1.72,10.09c0.07,0.66-0.09,0.99-0.68,1.26c-1.98,0.9-3.98,1.76-6,2.56c-2.53,1.01-5.04,2.06-7.37,3.49
						c-1.43,0.88-2.58,2-3.11,3.65c-0.32,1,0.12,1.62,1.17,1.59c0,0,0,0,0,0c0,0,0.01,0,0.01,0c0.78-0.02,1.56-0.2,2.35-0.24
						c0.58-0.03,1.15-0.19,1.73-0.21c0.35-0.01,0.7,0.03,1.06,0.19c3.86,1.64,7.77,3.13,11.93,3.83c0.5,0.08,0.59,0.31,0.62,0.75
						c0.09,1.37-0.24,2.63-0.77,3.88c-0.95,2.21-2.43,4.06-3.89,5.92c-3.48,4.44-6.91,8.91-9.5,13.94c-0.6,1.17-1.44,1.82-2.6,2.27
						c-2.81,1.09-5.68,1.66-8.63,1.71c-0.98,0.02-1.97-0.02-2.96-0.12c-0.4-0.04-0.55-0.25-0.68-0.58
						c-0.53-1.27-1.42-2.22-2.74-2.63c-0.66-0.21-0.89-0.54-0.98-1.19c-0.42-3.12-0.88-6.24-1.34-9.36
						c-0.46-3.14-0.93-6.28-1.39-9.42c-0.54,0.39-1.19,0.6-1.86,0.64c0.24,1.54,0.47,3.09,0.7,4.63c0.67,4.59,1.31,9.19,1.97,13.78
						c0.02,0.13,0.02,0.27,0.03,0.41c0,0.16,0.09,0.37-0.1,0.44c-0.71,0.26-1.43,0.51-2.16,0.71c-0.25,0.06-0.21-0.24-0.24-0.41
						c-0.65-4.32-1.3-8.64-1.95-12.96c-0.29-1.9-0.6-3.81-0.89-5.71c-0.4,0.19-0.86,0.31-1.38,0.31c-0.17,0-0.35-0.03-0.53-0.06
						c0.26,1.8,0.51,3.6,0.77,5.39c0.66,4.54,1.36,9.08,2.08,13.61c0.11,0.69-0.08,1.05-0.64,1.45c-2.74,1.95-4.17,4.63-4.1,8
						c0.08,3.76,1.71,6.93,4.07,9.75c0.87,1.04,1.81,2.09,3.18,2.45c0.66,0.17,0.8,0.56,0.88,1.09c0.39,2.74,0.76,5.49,1.15,8.23
						c0.88,6.08,1.77,12.15,2.67,18.22c0.95,6.4,1.93,12.79,2.88,19.18c0.87,5.83,1.73,11.66,2.58,17.5c0.15,1.02,0.26,1.95-0.41,3
						c-1.21,1.89,0.24,4.16,2.49,4.16c0,0,0.01,0,0.01,0c0,0,0,0,0.01,0c1.45,0.01,2.86-0.32,4.27-0.61
						c1.18-0.24,1.92-0.95,2.11-2.1c0.21-1.2-0.11-2.32-1.19-3.01c-0.49-0.32-0.64-0.71-0.71-1.19c-0.88-5.91-1.77-11.82-2.62-17.74
						c-1.01-6.99-1.99-13.98-3-20.97c-0.98-6.8-1.99-13.6-3-20.4c-0.06-0.38,0.01-0.51,0.22-0.5c0.07,0,0.16,0.02,0.27,0.05
						c1.22,0.36,2.45,0.73,3.68,1.05c0.46,0.12,0.53,0.32,0.47,0.75c-0.36,2.37-0.61,4.75-0.7,7.14c-0.17,4.6-0.15,9.19,0.42,13.77
						c0.66,5.27,1.9,10.36,3.92,15.28c0.77,1.89,1.8,3.65,2.52,5.57c2.31,6.23,5.79,11.57,11.73,14.97c0.21,0.12,0.4,0.25,0.47,0.52
						c0.41,1.6,0.05,2.38-1.49,2.96c-3.41,1.28-6.95,2.18-10.34,3.55c-3.41,1.38-6.72,2.96-9.8,5.01c-0.48,0.32-0.88,0.71-0.7,1.34
						c0.18,0.65,0.75,0.6,1.27,0.61c1.28,0.03,2.56,0.1,3.81,0.35c1.97,0.39,3.52,1.7,2.57,4.19c-0.2,0.51-0.26,1.02,0.21,1.43
						c0.24,0.21,0.48,0.27,0.72,0.24c0.25-0.02,0.49-0.12,0.74-0.24c1.25-0.6,2.54-1.11,3.89-1.44c1.04-0.25,2.06-0.4,3.04-0.41
						c2.16-0.01,4.14,0.69,5.82,2.64c0.26,0.3,0.51,0.43,0.79,0.41c0.28-0.02,0.57-0.19,0.92-0.52c1.73-1.64,3.67-2.98,5.66-4.28
						c1.48-0.96,2.92-1.99,4.32-3.08c2.01-1.56,3.06-3.54,2.92-6.14c-0.06-1.09-0.15-2.17-0.31-3.24c-0.08-0.53-0.01-0.93,0.68-0.88
						c0.18,0.01,0.37-0.09,0.56-0.09c0.73-0.01,1.43-0.29,2.16-0.32c0.24-0.01,0.48,0.02,0.72,0.09c2.1,0.62,4.23,0.95,6.39,1.01
						c0.72,0.02,1.44,0.01,2.16-0.03c0.72-0.04,1.3,0.13,1.86,0.59c0.71,0.58,1.53,1.04,2.38,1.41c1.43,0.62,1.52,0.98,0.67,2.35
						c-0.26,0.42-0.6,0.78-1,1.06c-1,0.71-2.07,1.31-3.16,1.86c-3.38,1.7-6.78,3.37-9.78,5.71c-0.85,0.67-1.73,1.34-2.33,2.27
						c-0.24,0.37-0.42,0.77-0.15,1.22c0.18,0.31,0.44,0.38,0.73,0.38c0.09,0,0.19,0,0.29-0.01c0.26-0.02,0.51-0.03,0.77-0.02
						c0.77,0.01,1.55,0.1,2.31,0.21c3.1,0.47,3.48,1.58,3,3.89c-0.1,0.49-0.02,0.93,0.38,1.26c0.2,0.17,0.41,0.21,0.62,0.19
						c0.21-0.02,0.42-0.1,0.63-0.19c1.61-0.73,3.23-1.43,4.97-1.82c1.23-0.28,2.42-0.43,3.57-0.41c2.53,0.05,4.84,0.93,6.85,3.07
						c0.31,0.33,0.63,0.47,0.95,0.43c0.33-0.04,0.67-0.26,1-0.67c2.41-2.9,4.56-5.97,6.08-9.44c0.89-2.04,1.39-4.16,1.34-6.41
						c-0.04-1.6-0.33-3.13-0.77-4.65c-0.12-0.41-0.06-0.59,0.19-0.62c0.08-0.01,0.19,0,0.32,0.02c1.26,0.2,2.53,0.34,3.79,0.56
						c2.58,0.45,5.18,0.72,7.79,0.75c0.87,0.01,1.74-0.01,2.61-0.06c0.76-0.04,1.42,0.1,2.1,0.36c2.79,1.09,5.69,1.67,8.67,1.77
						c0.66,0.02,1.31,0.04,1.97,0.04c1.96,0.02,3.91-0.04,5.87-0.34c3.33-0.5,6.56-1.33,9.55-2.91c1.79-0.94,3.47-2.06,4.62-3.8
						C210.51,209.74,210.22,208.15,208.54,206.88z M186.47,141.54c0.85,5.35-0.7,10.07-4.07,14.3c-3.54,4.45-8.37,6.85-13.48,8.83
						c-2.05,0.79-4.15,1.48-6.21,2.26c-3.31,1.27-5.55,3.55-6.47,7.03c-0.19,0.73-0.42,1.47-0.83,2.12
						c-0.39,0.62-0.89,0.96-1.48,1.01c-0.35,0.03-0.72-0.05-1.12-0.23c-1.05-0.49-1.78-1.34-2.44-2.25
						c-3.31-4.58-3.39-9.43-1.07-14.43c0.99-2.14,2.41-4,4.04-5.7c1.79-1.87,3.6-3.72,5.31-5.65c2.1-2.38,2.98-5.16,2.58-8.38
						c-0.32-2.63-1.27-4.99-2.55-7.26c-0.2-0.36-0.43-0.7-0.8-0.71c-0.12-0.01-0.27,0.02-0.43,0.1c-0.65,0.32-0.54,0.87-0.3,1.4
						c0.73,1.67,1.59,3.28,1.99,5.08c0.76,3.45,0.15,6.51-2.39,9.12c-2.22,2.28-4.37,4.63-6.54,6.97c-0.38,0.41-0.7,0.88-1.2,1.51
						c-0.44-2.39-0.88-4.53-1.23-6.69c-0.83-5.09-1.64-10.19-2.41-15.29c-0.25-1.64-0.35-3.3-0.56-4.94
						c-0.05-0.44,0.06-0.65,0.5-0.72c3.91-0.64,7.48-2.28,11.09-3.77c4.2-1.73,8.53-2.96,13.04-3.44c1.24-0.13,2.48-0.23,3.72-0.21
						c1.24,0.02,2.49,0.15,3.73,0.47c0.9,0.23,1.59,0.66,2.09,1.43C182.55,129.07,185.42,134.95,186.47,141.54z M173.4,108.43
						c2.2,0.72,3.47,2.38,4.46,4.3c1.04,2,1.54,4.18,1.79,6.41c0.07,0.61,0.3,1.21,0.1,1.91c-2.24-1.22-4.57-1.45-6.96-1.42
						c-0.35,0-0.69,0.01-1.04,0.03c-6.79,0.25-13.03,2.51-19.21,5.06c-2.64,1.09-5.3,2.13-8.18,2.43c-0.29,0.03-0.57,0.04-0.85,0.02
						c-0.28-0.02-0.56-0.06-0.83-0.14c-1.5-0.39-2.08-1.88-1.3-3.32c0.51-0.96,1.33-1.67,2.14-2.34
						c6.63-5.46,13.82-9.95,22.04-12.61c1.59-0.52,3.21-0.86,4.85-0.83C171.4,107.95,172.4,108.1,173.4,108.43z M174.18,56.84
						c-1.58-2.71,0.02-6.83,3.54-9.04C176.39,50.85,175.36,53.84,174.18,56.84z M126.03,56.02c0.1-1.63,0.26-3.25,0.39-4.88
						c0.03-0.41,0.19-0.74,0.51-1.01c3.07-2.65,3.2-8.37-0.02-11.13c-0.15-0.13-0.29-0.26-0.3-0.47c-0.06-2.12-0.17-4.24-0.52-6.54
						c1.26,0.99,2.01,2.12,2.75,3.24c1.46,2.23,2.64,4.62,3.62,7.1c0.44,1.11,0.36,1.94-0.6,2.79c-1.45,1.29-1.83,3.95-1.01,5.88
						c0.88,2.09,2.78,3.38,4.9,3.38c1.39,0,2.66-0.3,3.85-1.07c2.42-1.55,2.88-4.8,1.86-6.78c-0.7-1.36-0.49-2.54,0.1-3.8
						c1.56-3.33,3.97-5.99,6.72-8.36c0.96-0.83,2-1.58,3.01-2.36c0.91-0.69,1.17-0.66,1.89,0.28c0.88,1.15,1.61,2.39,2.24,3.69
						c1.58,3.26,2.83,6.62,3.22,10.26c0.08,0.75-0.09,1.32-0.61,1.88c-1.27,1.38-1.84,3.05-1.85,4.93c-0.01,1.19,0.59,2.1,1.28,2.99
						c2.17,2.82,6.94,3.84,9.94,2.18c2.11-1.17,3.99-4.88,2.52-7.4c-0.35-0.6-0.34-1.19,0.06-1.79c2.61-3.89,6.18-6.52,10.51-8.19
						c0.13-0.05,0.27-0.07,0.4-0.09c0.05-0.01,0.1,0.01,0.22,0.03c-0.51,1.34-1.21,2.56-1.8,3.83c-0.5,1.1-1.18,1.83-2.34,2.37
						c-3.53,1.65-5.28,5.65-4.31,9.42c0.09,0.35,0.15,0.76,0.37,1c0.83,0.9,0.5,1.81,0.19,2.77c-0.5,1.52-0.95,3.06-1.39,4.61
						c-0.15,0.54-0.34,0.66-0.87,0.39c-3.24-1.61-6.67-2.67-10.15-3.59c-5.55-1.47-11.18-2.56-16.87-3.33
						c-5.6-0.75-11.21-1.4-16.88-1.22C126.01,57.05,125.97,57.07,126.03,56.02z M126.61,40.62c1.81,1.53,1.8,6.26-0.14,8.31
						C126.66,46.14,126.66,43.39,126.61,40.62z M124.33,59.64c0.1-0.7,0.56-0.96,1.19-1.06c1.73-0.27,3.48-0.25,5.22-0.16
						c5.56,0.28,11.1,0.86,16.81,1.83c4.06,0.57,8.29,1.46,12.48,2.53c3.73,0.95,7.41,2.09,10.84,3.88c1.48,0.77,1.57,1.03,1.1,2.63
						c-0.41,1.41-0.83,2.81-1.21,4.23c-0.09,0.36-0.18,0.47-0.39,0.39c0.02,0.25-0.01,0.5-0.08,0.76c-0.03,0.11-0.06,0.21-0.09,0.32
						c-2.98-4.46-9.03-6.47-13.88-8.02c-4.13-1.32-8.36-2.18-12.66-2.63c-1.75-0.18-3.52-0.3-5.28-0.33
						c-2.14-0.03-4.28,0.06-6.4,0.34c-1.07,0.14-2.12,0.33-3.18,0.55c-0.82,0.17-1.48,0.18-2.25,0.56
						c-0.89,0.43-1.73,0.95-2.51,1.54c0.01-0.21,0.01-0.43-0.02-0.64c-0.02-0.23-0.01-0.45,0.02-0.68
						c-0.18-0.01-0.27-0.11-0.25-0.42C123.92,63.38,124.07,61.51,124.33,59.64z M122.94,80.57c0.44-1.51,0.9-3.03,1.05-4.6
						c0.01-0.13,0.01-0.26,0.02-0.38c0.02-0.31,0.04-0.61,0.04-0.91c0-0.06,0.01-0.13,0.01-0.19c0,0-0.01,0-0.01,0
						c-0.03-1.18-0.26-2.32-0.96-3.37c-0.28-0.42,0.05-0.58,0.23-0.82c1.65-2.15,3.95-2.99,6.53-3.43
						c4.57-0.79,9.14-0.83,13.73-0.32c6.95,0.77,13.62,2.5,19.87,5.7c1.48,0.76,2.9,1.62,4.17,2.7c0.56,0.47,0.95,1.03,1.25,1.69
						c0.07,0.15,0.12,0.3,0.19,0.45c-0.19,0.13-0.4,0.25-0.62,0.33c0.23-0.04,0.46-0.11,0.69-0.16c1.19,2.89,1.72,5.92,1.89,9.04
						c0.04,0.83,0.05,1.67,0.06,2.5c0,0.28,0.02,0.57,0.01,0.85c-0.02,3.18-0.23,6.35-0.32,9.53c-0.05,1.96,0.09,3.91,0.36,5.86
						c0.06,0.46,0.08,0.8-0.55,0.81c-3.46,0.07-6.7,1.07-9.84,2.42c-6.29,2.69-12.06,6.28-17.39,10.55
						c-0.39,0.31-0.77,0.63-1.14,0.95c-2.11-3.68-1-8.16,1.46-11.46c2.77-3.71,6.97-5.74,10.23-8.92c4.82-4.7,6.52-11.87,4.8-18.26
						c-0.15-0.61-0.34-1.21-0.56-1.8c-0.03-0.09-0.07-0.17-0.1-0.26c-0.11-0.3-0.22-0.6-0.35-0.9c-0.01,0-0.02-0.01-0.04-0.01
						c-0.62-1.39-1.41-2.74-2.43-4.02c-2.35-2.95-5.41-4.61-9.16-5.1c-2.59-0.34-5.1-0.05-7.57,0.7c-4,1.2-6.56,3.91-8.01,7.76
						c-0.77,2.02-1.11,4.13-1.33,6.39c-0.73-0.51-1.36-0.97-2.01-1.41c-1.11-0.74-2.31-1.23-3.67-1.15c0,0-0.01,0-0.01,0
						c-0.07,0-0.14,0-0.2,0C122.81,81.27,122.81,81,122.94,80.57z M120.76,74.48c0.08-0.27,0.19-0.53,0.3-0.79c0,0-0.01,0-0.01-0.01
						c0.13-0.29,0.27-0.57,0.44-0.84c0.13-0.21,0.3-0.42,0.59-0.35c0.25,0.06,0.3,0.31,0.34,0.52c0.09,0.46,0.17,0.91,0.21,1.39
						c0,0.03,0,0.06,0,0.09c0.03,0.47,0.02,0.95-0.05,1.48c-0.52-0.55-0.96-0.99-1.63-1.07C120.68,74.88,120.7,74.68,120.76,74.48z
						 M121.19,76.21c1.29,0,1.29,2,0,2C119.9,78.21,119.9,76.21,121.19,76.21z M103.48,93.04c1.07-1.13,2.18-1.8,3.36-2.36
						c4.87-2.29,9.83-4.4,14.57-6.95c0.8-0.43,1.56-0.63,2.28-0.64c1.2,0,2.31,0.54,3.38,1.48c1.74,1.52,3.32,3.22,5.32,4.43
						c0.51,0.31,0.13,0.46-0.12,0.61c-2.23,1.37-4.64,2.25-7.23,2.62c-1.97,0.28-3.95,0.36-5.94,0.37
						c-1.98,0.01-3.96-0.05-5.94-0.05h-0.01C109.99,92.57,106.82,92.67,103.48,93.04z M111.93,94.78c-0.65-0.26-1.29-0.55-1.94-0.83
						l0.05-0.15c2.74,0.09,5.48,0.21,8.22,0.27c0.53,0.01,1.07,0.01,1.6,0.01c3.72-0.03,7.39-0.47,10.87-2
						c1.05-0.46,2.05-1.01,2.95-1.73c0.11-0.09,0.21-0.15,0.3-0.18c0.25-0.07,0.38,0.12,0.42,0.51c0.06,0.6-0.18,1.12-0.53,1.59
						c-1.78,2.35-4.23,3.61-7.05,4.23c-1.29,0.29-2.57,0.44-3.83,0.49C119.21,97.1,115.54,96.21,111.93,94.78z M83.68,137.63
						c-0.89,1.86-1.18,3.77-0.64,5.78c0.06,0.23,0.06,0.47,0.1,0.83c-0.97-0.4-1.52-1.08-2.06-1.74c-2.11-2.63-3.58-5.51-3.45-9
						c0.09-2.28,1-4.16,2.87-5.5c1.66-1.19,3.41-2.25,5.55-2.3c1.96-0.04,3.13,1.68,2.42,3.51c-0.5,1.27-1.27,2.4-1.99,3.55
						C85.5,134.35,84.5,135.94,83.68,137.63z M99.58,214.38c0.11,0.49-0.07,0.85-0.59,0.99c-1.15,0.32-2.34,0.4-3.44,0.58
						c-0.72,0.01-1.24-0.24-1.32-0.9c-0.09-0.7,0.45-0.85,1.04-0.98c1.12-0.24,2.26-0.24,3.38-0.41
						C99.14,213.6,99.47,213.91,99.58,214.38z M93.25,180.35c1.19,8.17,2.4,16.34,3.59,24.51c0.31,2.1,0.61,4.19,0.93,6.28
						c0.11,0.7-0.16,1.01-0.86,1.06c-0.42,0.03-0.74,0.05-0.98,0.04c-0.73-0.04-0.77-0.37-0.96-1.64
						c-0.59-4.11-1.22-8.22-1.84-12.33c-0.71-4.75-1.49-9.5-2.11-14.26c-0.52-4.04-1.21-8.06-1.8-12.09
						c-0.49-3.36-0.94-6.72-1.43-10.08c-0.56-3.82-1.14-7.63-1.71-11.44c-0.41-2.71-0.78-5.43-1.22-8.14
						c-0.37-2.26,0.75-4.02,1.92-5.98c1.08,7.62,2.18,15,3.31,22.37C91.2,165.89,92.2,173.12,93.25,180.35z M95.76,150.32
						c-0.16,0.01-0.4-0.06-0.78-0.18c-1.25-0.38-2.48-0.8-3.74-1.17c-0.54-0.16-0.76-0.44-0.84-1.02
						c-0.53-3.96-1.12-7.91-1.69-11.86c-0.07-0.51-0.16-1.02-0.24-1.53c-0.09-0.59,0-1.12,0.35-1.62c0.72-1.06,1.38-2.16,1.72-3.41
						c0.1-0.37,0.3-0.43,0.55-0.43c0.08,0,0.16,0.01,0.25,0.01c0.76,0.03,1.53,0.05,2.29,0.04c2.29-0.01,4.55-0.22,6.78-0.84
						c0.81-0.22,1.6-0.49,2.57-0.78c-0.95,2.14-1.84,4.15-2.63,6.2c-1.95,5.07-3.19,10.33-4.18,15.65
						C96.06,150.04,96.02,150.29,95.76,150.32z M100.9,188.08c-1.96-4.84-3.11-9.89-3.65-15.09c-0.49-4.73-0.49-9.45-0.15-14.17
						c0.66-9.01,2.53-17.74,5.91-26.14c2.29-5.71,5.52-10.97,9-16.01c1.17-1.69,2.36-3.36,3.56-5.03c0.26-0.32,0.51-0.65,0.77-0.97
						c0.05-0.09,0.09-0.19,0.14-0.29c0.33-0.47,0.67-0.93,1-1.4c0.84-1.17,1.66-2.34,2.35-3.58c0.01,0,0.03-0.01,0.04-0.01
						c0.19-0.36,0.36-0.73,0.52-1.1c0.47-1.01,0.82-2.08,1-3.24c0.02-0.11,0.04-0.21,0.06-0.32c0.11-0.58-0.26-1.37,0.2-1.71
						c0.27-0.2,0.61-0.26,0.97-0.27c0.18-0.01,0.36,0,0.54,0c0.19,0,0.37,0,0.55-0.01c2.65-0.2,5.23-0.69,7.58-2.01
						c1.7-0.96,3.22-2.14,4.23-3.86c0.39-0.66,0.65-1.36,0.68-2.15c0.04-1.02-0.34-1.79-1.18-2.36c-1.12-0.76-2.35-1.36-3.41-2.24
						c-0.59-0.49-0.88-1.01-0.88-1.8c0-2.44,0.52-4.75,1.49-6.97c0.89-2.04,2.2-3.52,3.83-4.59c0,0-0.01,0-0.01,0
						c1.34-0.88,2.9-1.47,4.65-1.8c1.01-0.19,2.03-0.39,3.02-0.34c5.87-0.01,9.91,2.84,12.21,8.01c0.03,0.08,0.06,0.15,0.09,0.23
						c-0.05,0.21-0.06,0.44,0.04,0.68c1.59,3.65,1.69,7.83,0.52,11.61c-2.68,8.66-12.63,10.89-16.3,18.86
						c-1.63,3.54-1.74,7.81,0.44,11.14c-0.27,0.3-0.52,0.61-0.75,0.95c-1.3,1.88-1.31,3.98-0.02,5.52c0.6,0.72,1.37,1.16,2.27,1.36
						c0.59,0.13,0.78,0.47,0.84,1.02c0.66,6.05,1.65,12.05,2.71,18.05c0.59,3.34,1.23,6.68,1.98,9.99c0.1,0.44-0.06,0.79-0.23,1.17
						c-1.23,2.56-1.97,5.24-1.84,8.11c0.18,4.01,1.69,7.44,4.59,10.23c0.29,0.28,0.62,0.57,0.99,0.71c0.88,0.35,1.25,0.98,1.48,1.86
						c0.27,1.05,0.69,2.06,1.12,3.06c0.25,0.59,0.27,1.13,0.12,1.73c-2.42,9.61-10.63,18.53-21.76,20.04
						c-1.53,0.21-3.04,0.32-4.53,0.35c-6.46,0.09-12.56-1.61-18.11-5.51C105.39,196.86,102.78,192.72,100.9,188.08z M126.35,218.05
						c-0.16,1.61-1.16,2.65-2.31,3.6c-2.15,1.76-4.56,3.16-6.79,4.81c-0.79,0.58-1.56,1.18-2.27,1.87c-0.11,0.11-0.2,0.19-0.3,0.21
						c-0.1,0.02-0.21-0.02-0.35-0.16c-1.93-1.8-4.06-2.47-6.32-2.48c-1.35-0.01-2.75,0.22-4.17,0.59c-0.38,0.1-0.76,0.24-1.26,0.4
						c1.2-1.6,2.61-2.79,4.15-3.8c2.03-1.32,4.1-2.58,6.15-3.86c0.16-0.1,0.33-0.2,0.48-0.31c0.14-0.1,0.24-0.24,0.16-0.42
						c-0.07-0.17-0.2-0.22-0.34-0.21c-0.05,0-0.1,0.01-0.15,0.02c-0.16,0.04-0.31,0.1-0.46,0.16c-3.89,1.67-7.68,3.5-10.62,6.68
						c-0.1,0.11-0.22,0.32-0.36,0.34c-0.08,0.01-0.18-0.06-0.28-0.25c-1.09-2.1-2.96-2.93-5.17-3.23c-0.05-0.01-0.09-0.04-0.21-0.1
						c1.56-0.97,3.19-1.68,4.81-2.41c3.71-1.66,7.6-2.78,11.44-4.08c0.67-0.23,1.32-0.51,1.97-0.79c1.21-0.52,1.79-1.47,1.74-2.77
						c-0.02-0.49,0.04-0.74,0.36-0.72c0.11,0.01,0.25,0.04,0.43,0.11c2.82,1.05,5.71,1.73,8.75,1.72c0.28,0,0.57-0.01,0.62,0.37
						C126.28,214.9,126.51,216.46,126.35,218.05z M158.76,227.74c-1.19,2.21-2.61,4.27-4.09,6.29c-0.17,0.23-0.3,0.34-0.45,0.36
						c-0.15,0.01-0.31-0.08-0.54-0.27c-1.91-1.66-4.16-2.53-6.7-2.62c-0.33-0.01-0.67-0.02-1-0.01c-2.32,0.03-4.57,0.46-6.72,1.44
						c-0.06,0.03-0.15,0.02-0.29,0.03c0.54-1.1,1.27-2,2.01-2.9c1.49-1.8,2.91-3.67,4.68-5.22c0.21-0.18,0.58-0.41,0.34-0.72
						c-0.1-0.13-0.21-0.17-0.32-0.15c-0.19,0.01-0.38,0.17-0.55,0.29c-2.37,1.64-4.41,3.63-6.21,5.86c-0.19,0.23-0.4,0.45-0.57,0.69
						c-0.12,0.17-0.21,0.23-0.3,0.22c-0.09-0.02-0.17-0.12-0.26-0.27c-0.83-1.38-2.15-1.93-3.65-2.18
						c-0.53-0.09-1.08-0.14-1.71-0.22c0.29-0.38,0.64-0.61,0.98-0.83c2.86-1.9,5.86-3.54,8.93-5.08c1.46-0.73,2.9-1.49,4.08-2.66
						c0.69-0.69,1.2-1.48,1.38-2.45c0.08-0.41,0.2-0.63,0.52-0.66c0.11-0.01,0.23,0,0.38,0.04c1.34,0.28,2.67,0.44,3.99,0.45
						c2.2,0.03,4.39-0.32,6.54-1.06c0.13-0.04,0.23-0.07,0.32-0.07c0.27,0,0.4,0.19,0.52,0.55
						C161.41,220.52,160.66,224.2,158.76,227.74z M155.89,214.92c-1.09,0.19-2.17,0.29-3.23,0.29c-3.2,0.02-6.26-0.82-9.07-2.77
						c-0.81-0.56-1.56-1.18-2.16-1.98c-0.15-0.19-0.26-0.45-0.49-0.51c-0.07-0.02-0.16-0.02-0.26,0.01c-0.42,0.13-0.62,0.5-0.55,0.9
						c0.12,0.66-0.22,0.66-0.72,0.68c-0.36,0.02-0.72,0.03-1.08,0.02c-2.53-0.05-4.97-0.73-7.43-1.25c-0.6-0.13-1.21-0.23-1.82-0.26
						c-0.2-0.01-0.41-0.01-0.62,0c-0.56,0.03-0.66,0.28-0.35,0.79c-1.08,0.12-2.17,0.16-3.26,0.12
						c-7.64-0.27-15.24-4.36-19.57-12.82c1.09,1.09,2.25,2.11,3.51,3c4.15,2.93,8.75,4.63,13.79,5.3c1.76,0.23,3.52,0.34,5.27,0.32
						c2.91-0.03,5.79-0.43,8.64-1.26c5.92-1.72,10.47-5.39,14.15-10.26c2.02-2.68,3.5-5.6,4.36-9.03c0.79,1.72,1.48,3.27,2.2,4.8
						c2.58,5.48,5.5,10.76,9.01,15.7c0.48,0.68,0.45,1.15,0.01,1.8C163.72,212.21,160.14,214.2,155.89,214.92z M164.24,213.47
						c1.47-1.18,2.68-2.49,3.6-4.04c0.09-0.15,0.18-0.21,0.25-0.22c0.13,0,0.24,0.15,0.35,0.28c1.66,1.85,3.51,3.49,5.75,5.01
						C170.74,214.5,167.56,213.93,164.24,213.47z M207.86,210.12c-0.71,1.25-1.8,2.1-2.99,2.84c-3.04,1.87-6.41,2.8-9.9,3.34
						c-1.94,0.3-3.9,0.41-5.85,0.38c-0.65-0.01-1.3-0.04-1.95-0.08c-6.08-0.39-11.49-2.46-15.94-6.77
						c-3.87-3.74-6.63-8.27-9.24-12.9c-3.07-5.44-5.42-11.21-7.71-17.01c-0.24-0.62-0.15-0.82,0.52-0.98
						c1.15-0.28,1.88-1.15,2.42-2.16c0.38-0.7,0.6-1.46,0.8-2.22c0.7-2.74,2.4-4.56,4.98-5.65c2.68-1.14,5.52-1.86,8.19-3.02
						c3.4-1.48,6.73-3.09,9.6-5.49c0.05-0.04,0.14-0.05,0.25-0.09c0.5,2.85,1.04,5.67,1.69,8.47c2.25,9.62,5.92,18.67,11.08,27.08
						c2.02,3.29,4.3,6.43,7.31,8.94c1.39,1.16,2.98,2,4.61,2.77c0.64,0.3,1.27,0.62,1.83,1.06
						C208.09,209.02,208.21,209.51,207.86,210.12z"/>
					<path d="M195.57,208.86c0.01-0.33-0.25-0.38-0.49-0.44c-0.21-0.05-0.42-0.11-0.63-0.16c-2.07-0.49-4.07-1.19-5.96-2.18
						c-5.17-2.73-9.17-6.78-12.54-11.47c-3.6-5.01-5.99-10.66-8.06-16.44c-0.1-0.28-0.22-0.56-0.34-0.83
						c-0.06-0.12-0.15-0.21-0.27-0.22c-0.04-0.01-0.09,0-0.13,0.01c-0.2,0.06-0.23,0.24-0.2,0.4c0.05,0.32,0.12,0.64,0.21,0.95
						c2.26,7.26,5.39,14.05,10.27,19.97c3.56,4.32,7.81,7.62,13.08,9.56c1.43,0.52,2.89,0.94,4.3,1.19c0,0,0.01,0,0.01,0
						c0,0,0,0,0,0C195.34,209.2,195.57,209.09,195.57,208.86z"/>
					<path d="M138.68,83.44c0.46,0.64,1.11,0.94,1.8,0.98c0.68,0.04,1.41-0.17,2.01-0.58c1.13-0.76,1.86-1.99,2.14-3.31
						c0.27-1.26,0.19-2.67-0.48-3.8c-0.54-0.91-1.47-1.42-2.46-1.42c-0.33,0-0.67,0.06-1.01,0.18c-1.57,0.58-2.42,2.19-2.74,3.75
						c-0.25,1.21-0.15,2.52,0.42,3.6C138.45,83.06,138.55,83.26,138.68,83.44z M142.41,79.33c-1.29,0-1.29-2,0-2
						C143.7,77.33,143.7,79.33,142.41,79.33z"/>
					<path class="st1" d="M142.41,79.33c1.29,0,1.29-2,0-2C141.13,77.33,141.13,79.33,142.41,79.33z"/>
					<path class="st1" d="M121.19,78.21c1.29,0,1.29-2,0-2C119.9,76.21,119.9,78.21,121.19,78.21z"/>
					<path d="M151.62,52.73c2.12-1.28,3.13-3.28,3.64-5.75c0.29-3.05-0.44-5.97-2.08-8.68c-0.94-1.56-1.74-1.84-3.38-1.1
						c-2.51,1.13-4.09,3.16-5.15,5.62c-1.01,2.33-1.3,4.75-0.47,7.2C145.31,53.34,148.63,54.55,151.62,52.73z M150.18,38.33
						c0.77-0.37,1.23-0.31,1.76,0.45c1.7,2.43,2.42,5.07,2.11,7.63c-0.37,2.25-1.12,3.87-2.69,5.02c-2.36,1.73-4.9,0.95-5.85-1.79
						C143.97,45.23,146.87,39.94,150.18,38.33z"/>
				</g>
			</g>
			<g>
				<path class="st11" d="M96.66,89.32c-0.52-1.87-1.39-3.47-3.05-4.56c-2.42-1.59-5.7-2.07-8.26-0.87
					c0.76-1.84,1.08-3.86,0.79-5.86c-0.41-2.82-2.05-5.48-4.47-7c-2.5-1.56-5.75-1.79-8.42-0.49c-1.4,0.68-2.48,1.75-3.36,3.01
					c-0.9,1.3-1.73,2.74-2.03,4.32c-0.58,3.09,1,5.78,2.92,8.09c-0.59-0.07-1.2-0.08-1.81-0.07c-1.54,0.02-3.12,0.28-4.48,1.02
					c-2.27,1.23-3.74,3.72-3.9,6.28c-0.19,2.83,1.09,5.56,3.12,7.49c2.2,2.09,5.18,2.86,8.11,2.01c1.55-0.45,2.95-1.33,4.1-2.45
					c0.56-0.55,1.12-1.15,1.42-1.9c0.03-0.07,0.04-0.14,0.06-0.21c0.15,0.97,0.15,1.99,0.19,2.87c0.07,1.81-0.02,3.62-0.25,5.41
					c-0.06,0.44,0.31,0.82,0.76,0.77c2.1-0.23,4.2-0.47,6.3-0.7c0.55-0.06,0.71-0.67,0.45-1.09c-1.16-1.89-2.13-3.88-2.9-5.96
					c-0.38-1.04-0.75-1.96-0.84-3.07c1.74,3.12,5.18,4.68,8.67,4.35c1.75-0.17,3.7-0.37,5.11-1.52c1.23-1,2-2.49,2.29-4.04
					C97.55,93.2,97.18,91.2,96.66,89.32z"/>
				<path class="st7" d="M96.44,91.87c-0.12-0.45-0.23-0.92-0.35-1.39c-0.11-2-0.78-3.93-2.38-5.27c-0.58-0.49-1.48,0.37-0.96,0.95
					c1.13,1.27,1.58,2.94,1.99,4.57c0.02,0.5,0,0.99-0.05,1.48c-0.1,1.01-0.23,2.12-0.69,3.04c-0.43,0.88-1.23,1.52-2.12,1.92
					c-3.4,1.55-7.64,0.17-9.93-2.65c-0.55-0.68-1.63,0.15-1.08,0.83c0.37,0.45,0.78,0.87,1.23,1.26c-0.33,0.24-0.47,0.76-0.05,1.08
					c3.69,2.84,8.89,2.97,12.66,0.18c0.84-0.63,1.69-1.4,2.02-2.43C97.15,94.26,96.74,93.02,96.44,91.87z"/>
				<path class="st7" d="M76.59,95.42c-1.63,2.59-4.24,4.55-7.39,4.66c-2.96,0.11-5.91-1.73-6.63-4.71
					c-0.2-0.84-1.56-0.68-1.35,0.17c0.37,1.55,1.21,2.87,2.33,3.87c-0.25,0.27-0.31,0.7,0.06,0.98c2.38,1.79,5.53,2.36,8.37,1.44
					c2.68-0.86,4.85-3.08,5.77-5.73C77.99,95.42,77.03,94.72,76.59,95.42z"/>
				<path class="st7" d="M82.96,73.3c-1-1.12-2.27-1.97-3.66-2.46c-1.19-0.71-2.49-1-3.79-0.4c-0.69,0.32-0.43,1.39,0.35,1.3
					c0.89-0.1,1.78-0.01,2.62,0.24c0.51,0.3,0.99,0.69,1.39,1.05c1.1,1.01,1.99,2.25,2.6,3.6c1.27,2.8,1.31,6,0.19,8.85
					c-0.32,0.82,0.93,1.35,1.25,0.53c0.49-1.24,0.78-2.55,0.88-3.87c0.35,0.07,0.72-0.09,0.75-0.55
					C85.7,78.66,84.98,75.55,82.96,73.3z"/>
				<path class="st8" d="M70.01,89.29c-0.69-0.55-1.54-0.47-2.31-0.18c-0.11-0.01-0.22,0-0.32,0.02c-0.66,0.13-1.25,0.36-1.8,0.77
					c-0.53,0.39-0.89,0.88-1.21,1.44c-0.74,1.28-0.8,3.39,0.79,4.05c0.91,0.38,1.96,0.06,2.71-0.52c0.47-0.36,0.88-0.83,1.28-1.27
					c0.33-0.37,0.64-0.75,0.93-1.14c0.2-0.27,0.4-0.55,0.51-0.86C70.86,90.76,70.73,89.86,70.01,89.29z"/>
				<path class="st8" d="M76.78,74.57c-0.24-0.33-0.59-0.62-0.98-0.76c-0.17-0.06-0.33-0.1-0.5-0.12c-0.52-0.19-1.11-0.12-1.61,0.23
					c-0.78,0.56-1.36,1.3-1.82,2.13c-0.2,0.35-0.32,0.73-0.43,1.11c-0.15,0.54-0.28,1.1-0.15,1.67c0.13,0.56,0.36,1.02,0.81,1.4
					c0.32,0.26,0.73,0.44,1.14,0.48c0.56,0.06,1.09-0.09,1.53-0.44c0.25-0.19,0.45-0.47,0.65-0.71c0.55-0.72,1.03-1.51,1.43-2.33
					C77.26,76.39,77.37,75.38,76.78,74.57z"/>
				<path class="st8" d="M90.16,86.92c-0.12-0.28-0.29-0.51-0.53-0.69c-0.36-0.26-0.81-0.42-1.26-0.34
					c-0.46,0.08-0.93,0.2-1.36,0.36c-0.43,0.17-0.84,0.4-1.24,0.65c-0.18,0.13-0.32,0.3-0.42,0.49c-0.13,0.18-0.21,0.39-0.23,0.61
					c-0.04,0.23-0.02,0.46,0.06,0.68c0.04,0.22,0.13,0.42,0.28,0.6c0.28,0.33,0.66,0.6,1.11,0.65c0.15,0,0.3,0,0.46,0
					c0.25-0.03,0.47-0.12,0.67-0.25c0.29-0.16,0.59-0.29,0.91-0.38c0.07-0.01,0.13-0.03,0.2-0.04c0.44-0.07,0.85-0.29,1.13-0.65
					c0.15-0.17,0.24-0.37,0.28-0.59c0.08-0.21,0.1-0.44,0.06-0.67C90.24,87.21,90.2,87.06,90.16,86.92z"/>
				<path class="st1" d="M67.75,89.79c-0.15-0.32-0.55-0.53-0.89-0.37c-0.48,0.23-0.96,0.47-1.38,0.8c-0.47,0.37-0.8,0.83-1.09,1.35
					c-0.26,0.47-0.51,0.96-0.66,1.48c-0.18,0.62-0.15,1.24,0.05,1.86c0.11,0.34,0.58,0.51,0.89,0.37c0.36-0.17,0.48-0.53,0.37-0.89
					l-0.01-0.04c0,0,0-0.01-0.01-0.04c-0.01-0.05-0.02-0.1-0.03-0.15c-0.01-0.06-0.01-0.12-0.02-0.19c0-0.01,0-0.04,0-0.06
					c0-0.11,0.01-0.22,0.03-0.32c0.01-0.06,0.02-0.11,0.04-0.17c0-0.01,0.02-0.06,0.02-0.06c0.16-0.43,0.37-0.85,0.59-1.25
					c0.01-0.02,0.01-0.02,0.01-0.02c0-0.01,0,0,0.01-0.01c0.03-0.05,0.06-0.1,0.1-0.15c0.06-0.09,0.12-0.18,0.19-0.26
					c0.03-0.04,0.06-0.07,0.09-0.11c0.01-0.01,0.05-0.06,0.06-0.07c0.07-0.07,0.15-0.13,0.23-0.19c0.34-0.27,0.62-0.39,1.05-0.6
					C67.7,90.52,67.91,90.14,67.75,89.79z"/>
				<path class="st1" d="M69.99,88.98c-0.05-0.11-0.12-0.2-0.21-0.28c-0.05-0.03-0.1-0.06-0.15-0.09c-0.11-0.05-0.23-0.06-0.35-0.05
					c-0.14,0.04-0.28,0.07-0.43,0.11c-0.09,0.01-0.18,0.04-0.25,0.09c-0.08,0.04-0.15,0.09-0.2,0.17c-0.06,0.07-0.1,0.15-0.11,0.23
					c-0.03,0.09-0.04,0.18-0.03,0.27l0.05,0.18c0.05,0.11,0.12,0.2,0.21,0.28c0.05,0.03,0.1,0.06,0.15,0.09
					c0.11,0.05,0.23,0.06,0.35,0.05c0.14-0.04,0.28-0.07,0.43-0.11c0.09-0.01,0.18-0.04,0.25-0.09c0.08-0.04,0.15-0.09,0.2-0.17
					c0.06-0.07,0.1-0.15,0.11-0.23c0.03-0.09,0.04-0.17,0.03-0.27C70.03,89.09,70.01,89.04,69.99,88.98z"/>
				<path class="st1" d="M73.82,74.68c-0.3-0.24-0.71-0.16-0.96,0.12c-1.21,1.39-2.14,3.28-1.67,5.16c0.09,0.34,0.37,0.66,0.76,0.59
					c0.33-0.06,0.68-0.39,0.59-0.76c-0.19-0.77-0.12-1.51,0.16-2.22c0.29-0.74,0.7-1.31,1.23-1.93
					C74.19,75.36,74.1,74.89,73.82,74.68z"/>
				<path class="st1" d="M75.91,73.25c-0.03-0.05-0.06-0.1-0.09-0.15c-0.07-0.09-0.16-0.16-0.27-0.21
					c-0.06-0.02-0.11-0.03-0.17-0.05c-0.12-0.02-0.24,0-0.36,0.05c-0.09,0.05-0.17,0.09-0.26,0.14c-0.09,0.03-0.16,0.08-0.21,0.15
					c-0.07,0.06-0.12,0.13-0.15,0.21c-0.04,0.08-0.06,0.17-0.05,0.26c-0.01,0.09,0.01,0.18,0.05,0.27c0.03,0.05,0.06,0.1,0.09,0.15
					c0.07,0.09,0.16,0.16,0.27,0.21c0.06,0.02,0.11,0.03,0.17,0.05c0.12,0.02,0.24,0,0.36-0.05c0.09-0.05,0.17-0.09,0.26-0.14
					c0.09-0.03,0.16-0.08,0.21-0.15c0.07-0.06,0.12-0.13,0.15-0.21c0.04-0.08,0.06-0.17,0.05-0.26
					C75.96,73.43,75.95,73.34,75.91,73.25z"/>
				<path class="st1" d="M89.05,86.4c-0.07-0.16-0.19-0.3-0.36-0.36c-0.18-0.07-0.34-0.05-0.53,0c-1.14,0.31-2.39,0.73-3.05,1.79
					c-0.1,0.16-0.16,0.31-0.14,0.5c0.02,0.17,0.12,0.35,0.26,0.45c0.28,0.2,0.75,0.2,0.95-0.12c0.07-0.11,0.14-0.21,0.22-0.3
					c0.02-0.02,0.04-0.05,0.06-0.07c0.05-0.05,0.04-0.05-0.03,0.02c0.03-0.05,0.1-0.09,0.14-0.13c0.1-0.08,0.2-0.16,0.3-0.22
					c0.04-0.02,0.19-0.15,0.05-0.03c0.04-0.03,0.1-0.05,0.14-0.08c0.51-0.26,1.06-0.41,1.61-0.56c0.15-0.04,0.31-0.22,0.36-0.36
					C89.11,86.77,89.12,86.55,89.05,86.4z"/>
				<path d="M96.66,89.32c-0.52-1.87-1.39-3.47-3.05-4.56c-2.42-1.59-5.7-2.07-8.26-0.87c0.76-1.84,1.08-3.86,0.79-5.86
					c-0.41-2.82-2.05-5.48-4.47-7c-2.5-1.56-5.75-1.79-8.42-0.49c-1.39,0.68-2.48,1.75-3.36,3.01c-0.9,1.3-1.73,2.74-2.03,4.32
					c-0.58,3.09,1,5.78,2.92,8.09c-0.59-0.07-1.2-0.08-1.81-0.07c-1.54,0.02-3.12,0.28-4.48,1.02c-2.27,1.23-3.74,3.72-3.9,6.28
					c-0.19,2.83,1.09,5.56,3.12,7.49c2.2,2.09,5.18,2.86,8.11,2.01c1.55-0.45,2.95-1.33,4.1-2.45c0.56-0.55,1.12-1.15,1.42-1.9
					c0.03-0.07,0.04-0.14,0.06-0.21c0.15,0.97,0.15,1.99,0.19,2.87c0.07,1.81-0.02,3.62-0.25,5.41c-0.06,0.44,0.31,0.82,0.76,0.77
					c2.1-0.23,4.2-0.47,6.3-0.7c0.55-0.06,0.71-0.67,0.45-1.09c-1.16-1.89-2.13-3.88-2.9-5.96c-0.38-1.04-0.75-1.96-0.84-3.07
					c1.74,3.12,5.18,4.68,8.67,4.35c1.75-0.17,3.7-0.37,5.11-1.52c1.23-1,2-2.49,2.29-4.04C97.55,93.2,97.18,91.2,96.66,89.32z
					 M94.97,97.08c-1.08,1.62-2.74,1.92-4.54,2.17c-1.41,0.19-2.92,0.3-4.26-0.27c-1.3-0.56-2.5-1.59-3.46-2.6
					c-0.45-0.47-0.86-0.97-1.24-1.5c-0.32-0.44-0.65-1.04-1.29-0.58c-0.26,0.19-0.36,0.53-0.41,0.84c-0.29,1.77,0.41,3.47,1.03,5.1
					c0.66,1.73,1.47,3.4,2.4,5c-1.48,0.16-2.95,0.33-4.43,0.49c0.18-1.74,0.23-3.49,0.15-5.24c-0.18-1.39-0.2-2.76-0.47-4.14
					c-0.06-0.31-0.13-0.64-0.32-0.9s-0.53-0.43-0.83-0.32c-0.25,0.09-0.4,0.34-0.52,0.58c-0.46,0.93-0.55,2.1-1.21,2.91
					c-0.79,0.96-1.84,1.77-2.96,2.31c-2.24,1.07-4.9,1.04-6.97-0.41c-3.73-2.61-5.35-8.55-1.43-11.79c1.05-0.87,2.36-1.27,3.7-1.41
					c1.66-0.18,3.06-0.03,4.64,0.46c0.28,0.09,0.63,0.09,0.82-0.13c0.15-0.17,0.15-0.44,0.06-0.65c-0.09-0.21-0.25-0.38-0.41-0.55
					c-1.78-1.84-3.58-4.01-3.88-6.66c-0.17-1.51,0.32-2.9,1.06-4.19c0.68-1.19,1.51-2.39,2.62-3.21c2.1-1.54,5.06-1.72,7.39-0.6
					c2.23,1.08,3.87,3.28,4.43,5.68c0.33,1.4,0.3,2.86-0.02,4.26c-0.34,1.45-1.18,2.65-1.59,4.07c-0.05,0.16-0.09,0.32-0.08,0.48
					c0.01,0.16,0.08,0.33,0.22,0.41c0.23,0.15,0.54,0.02,0.77-0.13c0.8-0.5,1.38-1.18,2.27-1.54c0.81-0.33,1.7-0.47,2.58-0.44
					c1.77,0.06,3.54,0.76,4.84,1.96c1.41,1.3,1.9,3.44,2.18,5.27C96.11,93.59,96.02,95.52,94.97,97.08z"/>
			</g>
		</g>
		<g>
			<g>
				<g>
					<path d="M76.58,53.36c0.33,0.47,0.62,0.97,0.82,1.52c0.06-0.83-0.16-1.58-0.57-2.29c-0.34-0.6-0.76-1.14-1.2-1.66
						c-0.21-0.24-0.4-0.49-0.54-0.78c-0.3-0.61-0.17-1.12,0.41-1.47c0.56-0.34,1.18-0.52,1.82-0.65c0.62-0.13,1.26-0.14,1.89-0.28
						c-0.44-0.04-0.88-0.1-1.32-0.13c-1.05-0.08-2.11-0.04-3.15-0.23c-0.12-0.02-0.29,0.01-0.33-0.14
						c-0.03-0.12,0.12-0.18,0.19-0.26c0.25-0.24,0.52-0.45,0.83-0.61c0.24-0.12,0.23-0.25,0.09-0.45c-0.48-0.67-1.08-1.17-1.87-1.43
						c-0.84-0.28-1.69-0.34-2.54-0.07c-1.2,0.38-1.81,1.28-1.97,2.47c-0.11,0.8-0.17,1.61-0.04,2.42c0.12,0.78,0.49,1.38,1.06,1.88
						c0.47,0.41,0.98,0.77,1.43,1.2c1.58,1.51,1.95,3.17,1.04,5.15c-1.13,2.45-3.05,4.08-5.52,5.08c-0.74,0.3-1.54,0.3-2.33,0.13
						c-0.11-0.02-0.3-0.01-0.32-0.14c-0.02-0.15,0.16-0.16,0.27-0.22c1.46-0.71,2.81-1.58,3.92-2.78c0.76-0.82,1.35-1.74,1.71-2.81
						c0.04-0.11,0.13-0.22,0.03-0.39c-0.16,0.23-0.29,0.46-0.45,0.67c-1.62,2.18-3.64,3.88-6.16,4.95
						c-0.35,0.15-0.63,0.14-0.95-0.07c-1.81-1.2-2.82-2.85-3-5.03c-0.26-3.25,2.14-5.86,4.71-6.45c0.52-0.12,1.05-0.19,1.58-0.18
						c0.23,0.01,0.35-0.01,0.24-0.31c-1.33-3.52,1.14-7.57,4.87-8.01c1.98-0.23,3.69,0.29,5.12,1.68c0.53,0.52,0.9,1.16,1.18,1.85
						c0.11,0.27,0.26,0.38,0.56,0.39c1.23,0.07,2.35,0.43,3.16,1.42c0.22,0.27,0.49,0.6,0.37,0.91c-0.11,0.28-0.54,0.17-0.83,0.2
						c-0.83,0.1-1.65,0.27-2.46,0.47c-0.12,0.03-0.2,0.1-0.23,0.22c-0.08,0.31-0.16,0.61-0.27,0.91c-0.08,0.23,0.01,0.25,0.21,0.26
						c0.85,0.04,1.69,0.17,2.48,0.53c2,0.92,3.19,2.48,3.62,4.63c0.61,3.05-1.41,6.13-4.08,7.08c-1.76,0.63-3.48,0.56-5.12-0.41
						c-0.24-0.14-0.45-0.33-0.65-0.52c-0.07-0.07-0.13-0.19-0.25-0.14c-0.12,0.05-0.11,0.19-0.12,0.3c-0.06,0.64,0.12,1.23,0.38,1.8
						c0.69,1.49,1.82,2.55,3.24,3.32c0.09,0.05,0.18,0.09,0.27,0.14c0.12,0.07,0.18,0.18,0.15,0.32c-0.03,0.14-0.13,0.22-0.26,0.25
						c-0.14,0.02-0.28,0.03-0.42,0.03c-3.49,0-6.99,0-10.48,0c-0.26,0-0.63,0.11-0.71-0.27c-0.07-0.35,0.3-0.37,0.53-0.48
						c1.25-0.61,2.05-1.64,2.66-2.84c0.37-0.72,0.69-1.47,1.03-2.21c0.08-0.18,0.18-0.34,0.42-0.33c1.61,0.07,2.88-0.71,4.03-1.71
						c1.92-1.67,2.44-3.78,1.8-6.2c-0.02-0.07-0.03-0.14-0.05-0.21C76.52,53.39,76.55,53.37,76.58,53.36z"/>
				</g>
				<g>
					<path d="M74.45,46.3c0.01,0.32-0.26,0.61-0.59,0.62c-0.33,0.01-0.61-0.25-0.62-0.59c-0.01-0.33,0.29-0.66,0.6-0.66
						C74.15,45.68,74.44,45.98,74.45,46.3z"/>
				</g>
			</g>
			<g>
				<g>
					<path d="M208.89,230.11c-0.33-0.47-0.62-0.97-0.82-1.52c-0.06,0.83,0.16,1.58,0.57,2.29c0.34,0.6,0.76,1.14,1.2,1.66
						c0.21,0.24,0.4,0.49,0.54,0.78c0.3,0.61,0.17,1.12-0.41,1.47c-0.56,0.34-1.18,0.52-1.82,0.65c-0.62,0.13-1.26,0.14-1.89,0.28
						c0.44,0.04,0.88,0.1,1.32,0.13c1.05,0.08,2.11,0.04,3.15,0.23c0.12,0.02,0.29-0.01,0.33,0.14c0.03,0.12-0.12,0.18-0.19,0.26
						c-0.25,0.24-0.52,0.45-0.83,0.61c-0.24,0.12-0.23,0.25-0.09,0.45c0.48,0.67,1.08,1.17,1.87,1.43c0.84,0.28,1.69,0.34,2.54,0.07
						c1.2-0.38,1.81-1.28,1.97-2.47c0.11-0.8,0.17-1.61,0.04-2.42c-0.12-0.78-0.49-1.38-1.06-1.88c-0.47-0.41-0.98-0.77-1.43-1.2
						c-1.58-1.51-1.95-3.17-1.04-5.15c1.13-2.45,3.05-4.08,5.52-5.08c0.74-0.3,1.54-0.3,2.33-0.13c0.11,0.02,0.3,0.01,0.32,0.14
						c0.02,0.15-0.16,0.16-0.27,0.22c-1.46,0.71-2.81,1.58-3.92,2.78c-0.76,0.82-1.35,1.74-1.71,2.81
						c-0.04,0.11-0.13,0.22-0.03,0.39c0.16-0.23,0.29-0.46,0.45-0.67c1.62-2.18,3.64-3.88,6.16-4.95c0.35-0.15,0.63-0.14,0.95,0.07
						c1.81,1.2,2.82,2.85,3,5.03c0.26,3.25-2.14,5.86-4.71,6.45c-0.52,0.12-1.05,0.19-1.58,0.18c-0.23-0.01-0.35,0.01-0.24,0.31
						c1.33,3.52-1.14,7.57-4.87,8.01c-1.98,0.23-3.69-0.29-5.12-1.68c-0.53-0.52-0.9-1.16-1.18-1.85c-0.11-0.27-0.26-0.38-0.56-0.39
						c-1.23-0.07-2.35-0.43-3.16-1.42c-0.22-0.27-0.49-0.6-0.37-0.91c0.11-0.28,0.54-0.17,0.83-0.2c0.83-0.1,1.65-0.27,2.46-0.47
						c0.12-0.03,0.2-0.1,0.23-0.22c0.08-0.31,0.16-0.61,0.27-0.91c0.08-0.23-0.01-0.25-0.21-0.26c-0.85-0.04-1.69-0.17-2.48-0.53
						c-2-0.92-3.19-2.48-3.62-4.63c-0.61-3.05,1.41-6.13,4.08-7.08c1.76-0.63,3.48-0.56,5.12,0.41c0.24,0.14,0.45,0.33,0.65,0.52
						c0.07,0.07,0.13,0.19,0.25,0.14c0.12-0.05,0.11-0.19,0.12-0.3c0.06-0.64-0.12-1.23-0.38-1.8c-0.69-1.49-1.82-2.55-3.24-3.32
						c-0.09-0.05-0.18-0.09-0.27-0.14c-0.12-0.07-0.18-0.18-0.15-0.32c0.03-0.14,0.13-0.22,0.26-0.25c0.14-0.02,0.28-0.03,0.42-0.03
						c3.49,0,6.99,0,10.48,0c0.26,0,0.63-0.11,0.71,0.27c0.07,0.35-0.3,0.37-0.53,0.48c-1.25,0.61-2.05,1.64-2.66,2.84
						c-0.37,0.72-0.69,1.47-1.03,2.21c-0.08,0.18-0.18,0.34-0.42,0.33c-1.61-0.07-2.88,0.71-4.03,1.71c-1.92,1.67-2.44,3.78-1.8,6.2
						c0.02,0.07,0.03,0.14,0.05,0.21C208.94,230.08,208.91,230.09,208.89,230.11z"/>
				</g>
				<g>
					<path d="M211.01,237.16c-0.01-0.32,0.26-0.61,0.59-0.62c0.33-0.01,0.61,0.25,0.62,0.59c0.01,0.33-0.29,0.66-0.6,0.66
						C211.32,237.79,211.02,237.48,211.01,237.16z"/>
				</g>
			</g>
		</g>
		<g>
			<path d="M81.04,26.32c-0.27-0.04-0.55-0.09-0.84-0.09c-0.91,0-1.57,0.51-2.35,1.29l-3.7,3.7l4.81,3.53
				c0.44,0.4,0.78,0.53,1.11,0.53s0.64-0.13,1.09-0.27l0.07,4.43c-0.69,0.27-1.55,0.42-2.39,0.42c-2.22,0-2.97-0.78-4.3-2.64
				l-2.93-4.15c-0.33-0.49-0.6-0.73-1.02-0.73h-0.44v4.43c0.4,0,0.71-0.02,1.29-0.09l0.53-0.07l0.18,2.84l-4.21-0.07l-4.43,0.07
				l-0.04-2.9l0.53,0.09c0.58,0.11,1.33,0.13,1.73,0.13V26.15c-0.4,0-1.15,0.02-1.73,0.13l-0.53,0.09l0.04-2.9l4.43,0.07l4.21-0.07
				l-0.18,2.86l-0.53-0.07c-0.58-0.07-0.89-0.11-1.29-0.11v3.55h1.77l2.35-2.35c0.38-0.38,0.8-0.8,0.8-1c0-0.09-0.04-0.11-0.18-0.11
				c-0.11,0-0.38,0.02-0.58,0.04l0.27-2.82l3.33,0.04l3.1-0.04L81.04,26.32z"/>
		</g>
		<g>
			<path d="M204.42,257.13c0.27,0.04,0.55,0.09,0.84,0.09c0.91,0,1.57-0.51,2.35-1.29l3.7-3.7l-4.81-3.53
				c-0.44-0.4-0.78-0.53-1.11-0.53s-0.64,0.13-1.09,0.27l-0.07-4.43c0.69-0.27,1.55-0.42,2.39-0.42c2.22,0,2.97,0.78,4.3,2.64
				l2.93,4.15c0.33,0.49,0.6,0.73,1.02,0.73h0.44v-4.43c-0.4,0-0.71,0.02-1.29,0.09l-0.53,0.07l-0.18-2.84l4.21,0.07l4.43-0.07
				l0.04,2.9l-0.53-0.09c-0.58-0.11-1.33-0.13-1.73-0.13v10.64c0.4,0,1.15-0.02,1.73-0.13l0.53-0.09l-0.04,2.9l-4.43-0.07
				l-4.21,0.07l0.18-2.86l0.53,0.07c0.58,0.07,0.89,0.11,1.29,0.11v-3.55h-1.77l-2.35,2.35c-0.38,0.38-0.8,0.8-0.8,1
				c0,0.09,0.04,0.11,0.18,0.11c0.11,0,0.38-0.02,0.58-0.04l-0.27,2.82l-3.33-0.04l-3.1,0.04L204.42,257.13z"/>
		</g>
	</g>
</g>
</svg>
