<?xml version="1.0" encoding="utf-8"?>
<!-- Generator: Adobe Illustrator 24.0.1, SVG Export Plug-In . SVG Version: 6.00 Build 0)  -->
<svg version="1.1" xmlns="http://www.w3.org/2000/svg" xmlns:xlink="http://www.w3.org/1999/xlink" x="0px" y="0px"
	 viewBox="0 0 283.46 283.46" style="enable-background:new 0 0 283.46 283.46;" xml:space="preserve">
<style type="text/css">
	.st0{fill:#DBDDD9;}
	.st1{fill:#FFFFFF;}
	.st2{fill:none;stroke:#000000;stroke-width:3;stroke-miterlimit:10;}
	.st3{fill:#E30613;}
	.st4{fill:#894F28;}
	.st5{fill:#3E2215;}
	.st6{fill:#DEB27E;}
	.st7{opacity:0.25;fill:#312783;}
	.st8{opacity:0.53;fill:#F5F0DA;}
	.st9{fill:none;}
	.st10{fill:#EB941E;}
	.st11{fill:#1F201D;}
	.st12{fill:#E2E0DB;}
	.st13{fill:#B7B6B0;}
	.st14{fill:#2FAC66;}
	.st15{fill:#312783;}
	.st16{fill:#E94D2A;}
	.st17{fill:#F5EA61;}
	.st18{fill:#1D71B8;}
	.st19{fill:#2D3B49;}
</style>
<g id="bg">
</g>
<g id="CUT">
</g>
<g id="BACK">
</g>
<g id="ILLUSTRATION">
</g>
<g id="SYMBOLS">
</g>
<g id="CARDS">
	<g>
		<path class="st1" d="M217.23,267.73h-151c-8.01,0-14.5-6.49-14.5-14.5v-223c0-8.01,6.49-14.5,14.5-14.5h151
			c8.01,0,14.5,6.49,14.5,14.5v223C231.73,261.24,225.24,267.73,217.23,267.73z"/>
		<g>
			<g>
				<g>
					<path class="st11" d="M128.17,67.98c0.57,2.69,0.32,5.36-0.09,8.03c-0.2,1.3-0.48,2.59-0.74,3.98
						c2.37-0.85,4.01,0.27,5.57,2.04c0-1.22-0.02-2.23,0-3.23c0.09-3.25,0.85-6.31,2.6-9.1c3.17-5.06,7.74-7.38,13.64-6.68
						c5.04,0.6,8.46,3.52,10.42,8.16c1.55,3.68,1.73,7.52,1.35,11.44c-0.41,4.15-1.85,7.88-4.25,11.27
						c-1.42,2.01-3.22,3.69-4.82,5.55c-3.08,3.6-3.81,7.55-1.86,11.95c0.3,0.68,0.56,0.73,1.17,0.39c2.35-1.3,4.71-2.59,7.11-3.8
						c2.59-1.32,5.32-2.25,8.22-2.65c1.32-0.18,2.65,0.01,4-0.16c-0.38-1.39-0.81-2.73-0.94-4.14c-0.28-3.18,0.33-6.3,0.55-9.44
						c0.43-6.14,0.03-12.17-2.06-18c-1.43-3.99-3.77-7.34-7.49-9.56c-5.96-3.57-12.54-4.95-19.36-5.47
						c-2.53-0.19-5.07-0.15-7.6,0.01c-2.19,0.14-4.37,0.38-6.47,1.12c-1.83,0.65-3.43,1.65-4.88,3.07
						C125.71,63.06,127.47,64.66,128.17,67.98z"/>
					<path class="st14" d="M77.93,110.13c1.93,4.51,6.32,7.48,9.92,6.75C86.49,112.83,81.49,109.97,77.93,110.13z"/>
					<path class="st1" d="M121.72,76.71c2.03,0,2.03-3.15,0-3.15C119.69,73.56,119.69,76.71,121.72,76.71z"/>
					<path class="st14" d="M100.59,110.55c0.15-0.42-0.01-0.52-0.35-0.42c-0.65,0.19-1.29,0.39-1.93,0.63
						c-3.12,1.16-5.56,3.11-7.13,6.23c0.93-0.12,1.74-0.2,2.54-0.34C97.25,116.02,99.4,113.83,100.59,110.55z"/>
					<path class="st1" d="M114.59,87.72c3.51-2.22,7.2-4.16,10.56-6.61c0.19-0.14,0.34-0.28,0.41-0.56
						c0.89-3.68,1.63-7.38,1.27-11.19c-0.14-1.48-0.63-2.88-1.96-3.78c-1.82-1.23-4.85-0.54-6.13,1.38c-0.6,0.9-1.1,1.87-1.55,2.86
						c-1.5,3.34-2.38,6.84-2.64,10.49c-0.18,2.47-0.45,4.94-0.14,7.42C114.49,87.73,114.55,87.75,114.59,87.72z M118.79,70.59
						c0.61-1.17,1.57-1.81,2.6-1.9c1.41,0.01,2.67,1.27,2.67,2.38c0,0.14-0.02,0.27-0.15,0.35c-0.14,0.08-0.26,0.03-0.37-0.07
						c-0.06-0.06-0.12-0.11-0.18-0.17c-1.56-1.31-2.53-1.36-4.12-0.18c-0.19,0.14-0.38,0.46-0.61,0.27
						C118.35,71.05,118.68,70.8,118.79,70.59z M117.85,77.85c-0.05-1.45,0.31-2.73,1.11-3.88c0.35-0.5,0.79-0.9,1.32-1.19
						c1.56-0.85,2.87-0.38,3.54,1.28c0.92,2.26,0.32,5.54-1.29,7.07c-1.6,1.53-3.65,1.01-4.38-1.08
						C117.89,79.32,117.82,78.57,117.85,77.85z"/>
					<path class="st11" d="M145.39,155.99c-2.67,3.95-4.36,8.19-3.63,13.07c0.29,1.95,1.12,3.68,2.57,5.05
						c0.95,0.9,1.56,0.89,2.56,0.04c1.08-0.93,1.95-2.05,2.78-3.2c3-4.19,6.78-7.37,11.61-9.28c2.98-1.17,5.79-2.7,8.56-4.31
						c0.72-0.42,0.81-0.92,0.68-1.59c-0.31-1.7-0.59-3.41-0.96-5.11c-1.25-5.81-3.34-11.25-7.13-15.93
						c-0.93-1.15-1.9-2.28-3.14-3.31c-0.07,1.18-0.16,2.23-0.19,3.28c-0.05,1.55-0.3,3.07-0.77,4.55c-1.26,3.93-3.64,7.15-6.62,9.93
						C149.43,151.29,147.14,153.39,145.39,155.99z"/>
					<path class="st1" d="M158.23,201.21c2.79-4.91,3.76-10.3,3.96-15.86c0.1-2.75-0.15-5.49-0.46-8.23
						c-0.44-3.86-1.23-7.64-2.3-11.37c-0.11-0.4-0.22-0.47-0.59-0.28c-2.45,1.26-4.56,2.94-6.32,5.07
						c-1.44,1.74-2.67,3.65-4.32,5.21c-1.8,1.71-3.61,1.74-5.37,0.02c-1.01-0.99-1.7-2.18-2.23-3.47
						c-1.56-3.77-1.17-7.55,0.12-11.28c1.79-5.2,5.1-9.35,9.12-13.01c4.37-3.97,7.47-8.6,7.51-14.79c0.01-1.92-0.1-3.82-1.22-5.47
						c-1.13-1.67-2.13-3.4-2.83-5.29c-0.17-0.46-0.37-0.4-0.72-0.25c-0.97,0.41-1.95,0.8-2.93,1.19c-4.75,1.94-9.67,3.18-14.78,3.51
						c-3.53,0.23-7.07,0.01-10.54-0.79c-5.19-1.18-10.2-2.78-14.23-6.51c-0.29-0.27-0.45-0.21-0.61,0.09
						c-0.11,0.19-0.22,0.38-0.33,0.56c-2.6,4.33-4.26,9-5.01,13.98c-0.35,2.29-0.46,4.63-0.05,6.92c0.49,2.73,0.25,5.3-0.84,7.87
						c-3.63,8.58-5.64,17.56-6.33,26.83c-0.29,3.89-0.21,7.78,0.27,11.66c0.46,3.7,1.28,7.3,2.65,10.76
						c2.27,5.69,5.64,10.52,10.99,13.76c5.33,3.24,11.17,4.45,17.33,4.47c1.75,0.04,3.48-0.12,5.21-0.31
						c4.24-0.47,8.28-1.58,12.1-3.47C150.83,210.12,155.26,206.46,158.23,201.21z"/>
					<path class="st1" d="M112.37,118.87c2.03,1.63,4.29,2.84,6.71,3.77c5.89,2.24,11.96,3.08,18.22,2.17
						c4.55-0.66,8.88-2.11,13.07-3.96c3.78-1.68,7.47-3.59,11.4-4.92c3.58-1.21,7.24-1.7,10.96-0.73c3.22,0.83,5.91,2.53,7.96,5.44
						c0-0.35,0.02-0.49,0-0.62c-0.5-2.95-1.78-5.55-3.62-7.89c-2.22-2.82-5.09-4.3-8.72-4.33c-2.28-0.02-4.46,0.46-6.63,1.09
						c-3.54,1.04-6.69,2.91-9.95,4.56c-5.17,2.61-10.45,4.84-16.31,5.38c-2.73,0.25-5.42,0.17-8.09-0.47
						c-4.79-1.16-8.91-3.5-12.32-7.07c-0.29-0.31-0.45-0.44-0.77,0c-0.83,1.14-1.76,2.21-2.57,3.37
						C110.5,116.36,110.74,117.57,112.37,118.87z"/>
					<path class="st11" d="M99.47,150.04c0.28-2.01,0.57-4.03,0.87-6.04c0.35-2.41,0.69-4.83,1.08-7.24
						c0.49-3.04,1.26-6.01,2.13-8.96c-0.19-0.07-0.28,0.06-0.38,0.12c-2.13,1.28-4.38,2.02-6.9,1.5c-0.22-0.05-0.37-0.06-0.53,0.2
						c-0.57,0.9-1.47,1.33-2.46,1.6c-1.33,0.37-2.67,0.66-3.96,1.16c-0.39,0.15-0.62,0.34-0.59,0.83c0.11,1.9,0.24,3.79,0.6,5.67
						c0.37,1.95,1.09,3.79,1.77,5.64c0.22,0.59,0.09,1.08-0.52,1.35c-0.59,0.26-0.97-0.01-1.27-0.52c-0.69-1.15-1.03-2.43-1.38-3.71
						c-0.65-2.39-0.94-4.83-1.02-7.46c-0.49,0.41-0.85,0.7-1.2,1c-0.24,0.2-0.46,0.59-0.79,0.37c-0.35-0.23-0.19-0.63-0.06-0.97
						c0.8-2.03,2.25-3.34,4.32-4c1.26-0.4,2.56-0.67,3.76-1.26c1.44-0.7,1.74-1.6,0.96-2.96c-1.44-2.51-5.43-4.22-8.36-3.05
						c-3.98,1.59-5.92,5.23-6.1,9.39c-0.12,2.82,0.86,5.37,2.37,7.73c2.57,4.02,6.25,6.66,10.57,8.5c2.02,0.86,4.08,1.59,6.29,1.8
						C99.21,150.77,99.4,150.53,99.47,150.04z"/>
					<path class="st3" d="M94.65,187.67c-0.07,0.23-0.14,0.46-0.21,0.68c-1.35,4.35-2.95,8.59-5.17,12.58
						c-2.24,4.03-5.13,7.55-8.42,10.75c-0.56,0.54-0.4,0.75,0.14,1.09c1.7,1.05,3.51,1.81,5.46,2.24c2.9,0.63,4.55-0.06,6.12-2.6
						c2.2-3.54,3.75-7.36,5.01-11.32c0.2-0.64,0.15-1.19-0.07-1.8C96.11,195.55,95.27,191.67,94.65,187.67z"/>
					<path class="st3" d="M201,204.77c-4.45-5.71-7.61-12.09-9.66-19.03c-2.39-8.11-3.7-16.42-4.57-24.81
						c-0.44-4.24-0.8-8.5-1.15-12.75c-0.36-4.39-0.81-8.76-1.67-13.08c-0.74-3.75-1.7-7.45-3.62-10.8c-3.45-6.02-8.1-7.7-14.01-7.11
						c-3.89,0.39-7.46,1.96-10.97,3.62c-0.49,0.23-0.48,0.46-0.26,0.93c1.56,3.44,3.81,6.37,6.43,9.06
						c1.83,1.87,3.49,3.89,4.88,6.11c3.94,6.31,5.78,13.3,6.76,20.58c0.42,3.15,0.84,6.29,1.17,9.45c0.4,3.75,0.89,7.5,1.26,11.26
						c0.33,3.38,0.76,6.74,1.21,10.1c0.57,4.29,1.21,8.58,2.08,12.83c0.93,4.51,2.09,8.95,4.08,13.13c0.2,0.41,0.41,0.82,0.63,1.22
						c7.8-0.1,15.75-1.36,22.45-5.49C204.21,208.44,202.5,206.71,201,204.77z"/>
					<path class="st10" d="M162.77,218.93c-3.4,0.96-6.86,1.34-10.39,0.88c-0.53-0.07-0.99-0.08-1.2,0.6
						c-0.12,0.39-0.45,0.74-0.73,1.06c-1.57,1.82-3.62,3.03-5.57,4.36c-1.6,1.09-3.19,2.17-4.63,3.75c3.16,0.02,5.91,0.51,6.95,4.02
						c1.43-2.83,3.2-5.29,5.16-7.62c0.23-0.27,0.52-0.83,0.86-0.59c0.43,0.29-0.06,0.74-0.24,1.04c-1.21,2.15-2.48,4.27-3.71,6.4
						c-0.19,0.32-0.47,0.63-0.42,1.12c1.88-0.86,3.75-1.44,5.78-1.45c2-0.01,3.92,0.21,5.36,1.83c1.32-1.75,2.87-5.44,3.54-8.34
						c0.5-2.16,0.74-4.33,0.19-6.52C163.58,218.92,163.41,218.75,162.77,218.93z"/>
					<path class="st11" d="M175.62,196.71c-0.61-3.3-1.1-6.63-1.52-9.96c-0.37-2.91-0.76-5.81-1.09-8.73
						c-0.32-2.89-0.54-5.79-0.86-8.68c-0.34-3.05-0.75-6.09-1.1-9.13c-0.13-1.12-0.14-1.15-1.08-0.62c-2.83,1.6-5.64,3.23-8.65,4.46
						c-0.57,0.24-0.63,0.45-0.45,1.02c1.43,4.61,2.5,9.31,2.94,14.12c0.36,3.99,0.34,7.99-0.28,11.97
						c-0.65,4.13-1.89,8.04-4.04,11.65c-3.16,5.31-7.9,8.8-13.28,11.56c-0.78,0.4-1.59,0.75-2.54,1.2c0.73,0.21,1.29,0.36,1.84,0.54
						c2.59,0.82,5.21,1.49,7.92,1.68c2.56,0.18,5.11-0.05,7.61-0.63c6.91-1.58,12.25-5.37,15.97-11.42
						c0.19-0.31,0.24-0.59,0.16-0.99C176.61,202.08,176.12,199.4,175.62,196.71z"/>
					<path class="st10" d="M128.09,218.32c-3.41,0.07-6.81-0.12-10.09-1.07c-1.48-0.43-2.69-0.4-4.15,0.19
						c-2.7,1.08-5.54,1.78-8.31,2.69c-1.53,0.5-3.02,1.1-4.55,2.12c1.19-0.06,2.1,0.14,2.93,0.64c0.94,0.57,1.15,1.5,1.21,2.57
						c0.16-0.11,0.24-0.16,0.32-0.22c2.29-1.66,4.67-3.17,7.24-4.36c0.64-0.3,1.28-0.59,2-0.61c0.13,0,0.28-0.04,0.34,0.13
						c0.05,0.15-0.02,0.26-0.14,0.35c-0.13,0.09-0.26,0.19-0.4,0.27c-1.9,1.11-3.72,2.33-5.53,3.59c-0.97,0.67-1.96,1.32-2.96,2.25
						c2.07-0.24,3.95-0.47,5.85-0.19c1.95,0.29,3.81,0.7,4.8,2.77c0.9-0.95,1.84-1.82,2.84-2.61c2.16-1.7,4.54-3.07,6.77-4.67
						c0.97-0.7,1.97-1.38,2.6-2.44C129.42,218.79,129.14,218.3,128.09,218.32z"/>
					<path class="st10" d="M118.26,91.14c3.48,0.28,6.94,0.27,10.37-0.51c2.61-0.59,5.08-1.46,7.29-3.02
						c0.51-0.36,0.55-0.7,0.13-1.12c-0.19-0.19-0.39-0.4-0.62-0.53c-1.75-0.99-3.23-2.3-4.62-3.72c-1.22-1.24-2.51-1.36-3.96-0.42
						c-1.14,0.74-2.23,1.54-3.36,2.3c-2.86,1.91-5.96,3.46-8.73,5.52c-0.63,0.47-1.21,0.99-1.57,1.74c0.34,0.12,0.64,0.1,0.92,0.03
						C115.49,91.07,116.88,91.03,118.26,91.14z M128.08,86.03c0.48-0.25,0.99-0.42,1.52-0.54c0.3-0.07,0.49-0.01,0.62,0.22
						c0.16,0.28,0.02,0.54-0.21,0.71c-0.49,0.36-1.07,0.49-1.6,0.6c-0.34-0.02-0.64-0.04-0.73-0.36
						C127.61,86.36,127.82,86.17,128.08,86.03z"/>
					<path class="st1" d="M115.86,109.01c-0.23,0.37-0.03,0.55,0.16,0.77c0.9,1.02,1.89,1.96,2.98,2.79
						c5.29,4.03,11.3,5.22,17.77,4.38c4.01-0.52,7.74-1.99,11.35-3.76c0.5-0.25,0.58-0.5,0.36-1.01c-0.64-1.44-1.04-2.97-1.16-4.54
						c-0.24-3.2,0.75-6.04,2.63-8.61c1.38-1.9,3.06-3.55,4.51-5.38c2.67-3.38,4.23-7.21,4.67-11.5c0.32-3.12,0.18-6.18-0.87-9.16
						c-3.07-8.72-12.9-10.2-18.7-5.19c-4.12,3.56-5.53,8.27-5.13,13.64c0.13,1.68,0.73,2.73,2.2,3.63c2.3,1.41,2.57,3.25,1.2,5.59
						c-0.53,0.91-1.23,1.67-2,2.36c-2.94,2.63-6.39,3.53-10.26,3.08c-2.53-0.29-4.88-1.16-7.22-2.1c-1.04-0.42-2.07-0.78-3.28-0.5
						c0.47,1.44,0.95,2.87,1.41,4.31C117.7,101.62,118.09,105.39,115.86,109.01z M143.35,69.84c2.45-1.82,6.4-0.27,7.03,2.72
						c0.04,0.19,0.11,0.41-0.07,0.52c-0.19,0.12-0.35-0.03-0.49-0.17c-0.31-0.31-0.61-0.62-0.92-0.92c-1.52-1.48-3.32-1.76-5.2-0.81
						c-0.5,0.26-1,0.52-1.59,0.84C141.96,70.84,142.7,70.32,143.35,69.84z M141.62,75.54c0.78-2.13,3.83-3.84,6.05-1.92
						c0.92,0.8,1.48,1.86,1.55,3.05c0.13,2.19-0.3,4.27-1.83,5.97c-0.66,0.73-1.46,1.23-2.42,1.11c-1.52,0.07-2.52-0.59-3.11-1.89
						C140.93,79.79,140.85,77.65,141.62,75.54z"/>
					<path class="st1" d="M145.85,77.96c2.03,0,2.03-3.15,0-3.15C143.82,74.81,143.82,77.96,145.85,77.96z"/>
					<path class="st10" d="M119.79,92.82c1.16,0.59,2.37,1,3.61,1.32c3.94,1.03,7.64,0.67,10.9-1.97c1.09-0.88,2.08-1.87,2.57-3.37
						C131.55,92.07,125.78,92.89,119.79,92.82z"/>
					<path class="st11" d="M207.16,207.56c-1.64-1.56-3.14-3.27-4.5-5.07c-5.65-7.48-8.84-16.02-10.84-25.08
						c-0.84-3.81-1.52-7.65-2-11.52c-0.37-2.99-0.76-5.98-1.1-8.97c-0.27-2.4-0.44-4.82-0.7-7.22c-0.34-3.1-0.74-6.2-1.1-9.3
						c-0.36-3.04-0.89-6.05-1.58-9.03c-0.37-1.61-0.95-3.18-1.18-4.8c-0.4-2.87-0.67-5.76-1.52-8.55
						c-1.53-5.02-4.08-9.28-8.89-11.83c-0.21-0.11-0.34-0.26-0.42-0.47c-0.82-2.22-1.52-4.45-1.49-6.87
						c0.04-2.54,0.42-5.04,0.55-7.57c0.2-3.92,0.27-7.83-0.35-11.73c-0.85-5.34-2.72-10.14-6.3-14.09
						c-3.08-1.93-6.11-4.14-9.45-5.54c-3.54-1.48-7.4-2.33-11.21-2.66c-3.63-0.31-7.36-0.33-11-0.35c-3.24-0.02-6.58,0.18-9.4,1.94
						c-0.49,0.3-0.96,0.41-1.4,0.37c-3.49,2.08-5.97,5.11-7.59,8.89c-2.84,6.61-3.8,13.54-3.27,20.7c0.03,0.38-0.05,0.66-0.3,0.96
						c-0.56,0.67-1.08,1.37-1.58,2.08c-0.38,0.54-0.21,0.98,0.38,1.23c0.47,0.2,0.97,0.34,1.49,0.35c0.32,0,0.57,0.02,0.71,0.47
						c0.57,1.92,1.23,3.81,1.84,5.71c0.85,2.66,0.87,5.27-0.49,7.8c-0.87,1.61-2.05,3-3.18,4.43c-1.01,1.27-2.17,2.5-2.49,4.14
						c-0.17,0.86-0.59,1.54-1,2.26c-0.63,1.11-1.27,2.21-1.88,3.33c-0.57,1.05-1.2,2.07-2,2.96c-1.72,1.91-3.77,3.17-6.46,3.1
						c-0.73-0.02-1.25-0.24-1.53-1.02c-0.88-2.41-2.72-3.86-4.99-4.86c-1.51-0.66-1.48-0.65-0.95-2.3c0.21-0.64,0.49-0.88,1.19-0.92
						c1.81-0.09,3.64-0.17,5.33-0.94c2.94-1.33,4.58-3.81,5.78-6.66c0.21-0.5,0.44-0.99,0.49-1.54c0.06-0.69-0.43-1.17-1.1-1.06
						c-0.77,0.13-1.55,0.26-2.3,0.48c-3.19,0.92-6.12,2.26-7.99,5.21c-0.07,0.11-0.19,0.18-0.33,0.31c0.09-0.92,0.18-1.83,0.27-2.74
						c-0.18,0.04-0.37,0.06-0.58,0.06c-0.47,0-0.86-0.12-1.2-0.31c-0.17,1.34-0.39,2.7-0.58,4.1c-0.2-0.37-0.3-0.55-0.4-0.74
						c-1.58-2.79-3.72-4.9-6.92-5.79c-2.09-0.59-4.21-0.43-6.32-0.44c-0.32,0-0.67,0.12-0.81,0.46c-0.17,0.39,0.05,0.7,0.32,0.94
						c1.22,1.11,2.13,2.46,3.02,3.84c1.47,2.27,3.56,3.68,6.14,4.42c1.23,0.35,2.5,0.44,3.76,0.65c0.17,0.03,0.49-0.09,0.45,0.19
						c-0.09,0.61-0.21,1.24-0.45,1.8c-0.14,0.33-0.62,0.26-0.96,0.28c-1.56,0.11-2.95,0.65-4.23,1.51
						c-4.11,2.77-6.13,8.44-4.87,13.56c1.19,4.89,4.08,8.6,8.08,11.47c3.86,2.78,8.17,4.54,12.93,5.07c0.61,0.07,0.46,0.34,0.35,0.7
						c-1.42,4.86-2.58,9.78-3.38,14.78c-0.44,2.76-0.87,5.52-1.05,8.31c-0.1,1.49-0.1,3.01-0.4,4.47
						c-0.98,4.64-2.47,9.13-4.37,13.48c-2.44,5.57-5.52,10.72-10.04,14.9c-0.62,0.57-1.26,1.12-1.87,1.71
						c-0.93,0.9-0.91,1.71,0.1,2.53c0.52,0.43,1.09,0.83,1.68,1.15c2.4,1.29,4.92,2.33,7.64,2.58c2.51,0.22,4.96-0.16,6.69-2.34
						c0.13-0.16,0.29-0.25,0.46-0.31c1.38-0.49,2.79-0.85,4.24-1.06c2.76-0.4,5.53-0.28,8.31-0.22c2.53,0.06,4.36,1.56,6.65,2.37
						c-1.3,0.62-2.53,0.94-3.75,1.28c-3.76,1.06-7.45,2.28-10.85,4.25c-0.68,0.4-1.35,0.81-1.88,1.42
						c-0.29,0.34-0.43,0.72-0.26,1.13c0.16,0.37,0.54,0.38,0.9,0.43c1.28,0.16,2.56,0.02,3.84,0.09c1.55,0.08,2.02,0.91,1.25,2.26
						c-0.35,0.61-0.78,1.17-1.15,1.77c-0.2,0.32-0.25,0.68-0.03,1c0.24,0.35,0.62,0.3,0.97,0.23c0.32-0.06,0.63-0.16,0.95-0.22
						c2.26-0.46,4.51-1.01,6.84-0.87c2.05,0.12,4.07,0.37,4.71,2.87c0.19,0.74,0.79,0.87,1.42,0.66c0.31-0.11,0.59-0.39,0.83-0.64
						c1.54-1.56,3.22-2.93,4.99-4.21c2.12-1.52,4.4-2.8,6.41-4.48c1.29-1.08,2.48-2.25,2.39-4.13c-0.02-0.43,0.25-0.4,0.53-0.4
						c0.98,0,1.95-0.14,2.92-0.28c1.61-0.23,3.21-0.55,4.83-0.68c3.61-0.29,6.86,1.16,10.24,2.21c-0.55,0.86-1.2,1.5-1.9,2.11
						c-2.03,1.74-4.32,3.11-6.49,4.66c-1.65,1.18-3.16,2.51-4.2,4.29c-0.53,0.91-0.16,1.49,0.87,1.45c1.28-0.05,2.55-0.23,3.83-0.18
						c1.69,0.07,2.93,0.97,3.47,2.57c0.22,0.65,0.28,1.32,0.32,2c0.04,0.96,0.52,1.21,1.34,0.76c0.5-0.27,0.98-0.58,1.47-0.87
						c2.22-1.34,4.59-2.05,7.21-1.84c1.28,0.11,2.44,0.53,3.12,1.65c1.06,1.78,1.55,1,2.41-0.01c0.05-0.06,0.09-0.14,0.13-0.21
						c2.03-3.03,3.26-6.4,4.09-9.92c0.58-2.47,0.95-4.97,0.01-7.45c-0.08-0.2-0.02-0.33,0.15-0.38c0.98-0.28,1.81-0.89,2.91-0.9
						c6.98-0.08,13.83,2.11,20.82,1.62c3.86-0.27,7.66-1.19,11.27-2.55c1.87-0.7,3.69-1.53,5.45-2.47c1.12-0.59,3.26-0.9,3.74-2.18
						c0.01-0.02,0.02-0.04,0.02-0.07C210.44,209.7,208.23,208.58,207.16,207.56z M98.31,110.76c0.63-0.24,1.28-0.44,1.93-0.63
						c0.35-0.1,0.51-0.01,0.35,0.42c-1.19,3.28-3.34,5.47-6.87,6.1c-0.8,0.14-1.61,0.22-2.54,0.34
						C92.74,113.88,95.18,111.93,98.31,110.76z M77.93,110.13c3.56-0.15,8.57,2.7,9.92,6.75C84.25,117.61,79.86,114.64,77.93,110.13
						z M127.14,59.67c2.09-0.75,4.27-0.98,6.47-1.12c2.53-0.17,5.06-0.21,7.6-0.01c6.82,0.52,13.4,1.91,19.36,5.47
						c3.72,2.23,6.06,5.57,7.49,9.56c2.09,5.83,2.49,11.86,2.06,18c-0.22,3.14-0.83,6.26-0.55,9.44c0.12,1.41,0.56,2.75,0.94,4.14
						c-1.35,0.17-2.67-0.02-4,0.16c-2.91,0.4-5.63,1.33-8.22,2.65c-2.4,1.22-4.75,2.51-7.11,3.8c-0.61,0.34-0.87,0.28-1.17-0.39
						c-1.95-4.4-1.22-8.35,1.86-11.95c1.59-1.86,3.39-3.54,4.82-5.55c2.4-3.39,3.84-7.12,4.25-11.27c0.38-3.92,0.2-7.77-1.35-11.44
						c-1.96-4.64-5.38-7.57-10.42-8.16c-5.9-0.7-10.47,1.63-13.64,6.68c-1.75,2.79-2.51,5.85-2.6,9.1c-0.03,1.01,0,2.02,0,3.23
						c-1.56-1.77-3.19-2.89-5.57-2.04c0.26-1.39,0.54-2.68,0.74-3.98c0.41-2.67,0.66-5.34,0.09-8.03c-0.7-3.32-2.46-4.92-5.91-5.24
						C123.7,61.32,125.31,60.32,127.14,59.67z M114.56,80.31c0.26-3.66,1.14-7.15,2.64-10.49c0.45-0.99,0.95-1.95,1.55-2.86
						c1.28-1.93,4.31-2.61,6.13-1.38c1.33,0.9,1.82,2.3,1.96,3.78c0.36,3.81-0.38,7.51-1.27,11.19c-0.07,0.28-0.22,0.42-0.41,0.56
						c-3.36,2.45-7.05,4.39-10.56,6.61c-0.04,0.02-0.1,0.01-0.17,0.01C114.11,85.25,114.38,82.78,114.56,80.31z M114.13,91.4
						c-0.28,0.07-0.58,0.09-0.92-0.03c0.36-0.75,0.94-1.27,1.57-1.74c2.77-2.06,5.87-3.6,8.73-5.52c1.13-0.75,2.22-1.56,3.36-2.3
						c1.45-0.94,2.74-0.82,3.96,0.42c1.4,1.42,2.88,2.73,4.62,3.72c0.23,0.13,0.43,0.34,0.62,0.53c0.42,0.42,0.38,0.76-0.13,1.12
						c-2.21,1.55-4.68,2.42-7.29,3.02c-3.43,0.78-6.89,0.78-10.37,0.51C116.88,91.03,115.49,91.07,114.13,91.4z M136.87,88.81
						c-0.49,1.5-1.48,2.49-2.57,3.37c-3.27,2.64-6.97,2.99-10.9,1.97c-1.24-0.32-2.44-0.74-3.61-1.32
						C125.78,92.89,131.55,92.07,136.87,88.81z M115.07,93.49c1.21-0.28,2.24,0.08,3.28,0.5c2.33,0.94,4.69,1.81,7.22,2.1
						c3.87,0.45,7.33-0.45,10.26-3.08c0.77-0.69,1.47-1.45,2-2.36c1.36-2.34,1.09-4.18-1.2-5.59c-1.47-0.9-2.07-1.95-2.2-3.63
						c-0.4-5.37,1.01-10.08,5.13-13.64c5.8-5.01,15.63-3.54,18.7,5.19c1.05,2.98,1.19,6.04,0.87,9.16c-0.44,4.3-2,8.13-4.67,11.5
						c-1.45,1.84-3.13,3.48-4.51,5.38c-1.87,2.57-2.87,5.4-2.63,8.61c0.12,1.58,0.52,3.1,1.16,4.54c0.23,0.51,0.15,0.77-0.36,1.01
						c-3.61,1.77-7.34,3.24-11.35,3.76c-6.47,0.85-12.48-0.34-17.77-4.38c-1.09-0.83-2.08-1.76-2.98-2.79
						c-0.19-0.22-0.39-0.4-0.16-0.77c2.23-3.62,1.84-7.4,0.62-11.21C116.02,96.36,115.54,94.93,115.07,93.49z M111.7,114.65
						c0.81-1.16,1.74-2.23,2.57-3.37c0.32-0.44,0.47-0.3,0.77,0c3.41,3.57,7.53,5.9,12.32,7.07c2.67,0.65,5.37,0.72,8.09,0.47
						c5.85-0.54,11.14-2.77,16.31-5.38c3.26-1.64,6.42-3.52,9.95-4.56c2.16-0.64,4.35-1.11,6.63-1.09c3.63,0.03,6.49,1.51,8.72,4.33
						c1.84,2.34,3.12,4.94,3.62,7.89c0.02,0.13,0,0.27,0,0.62c-2.05-2.91-4.74-4.61-7.96-5.44c-3.72-0.96-7.38-0.48-10.96,0.73
						c-3.93,1.33-7.61,3.24-11.4,4.92c-4.2,1.86-8.52,3.31-13.07,3.96c-6.26,0.9-12.33,0.07-18.22-2.17
						c-2.42-0.92-4.68-2.14-6.71-3.77C110.74,117.57,110.5,116.36,111.7,114.65z M98.64,150.72c-2.21-0.21-4.27-0.94-6.29-1.8
						c-4.32-1.84-8-4.48-10.57-8.5c-1.51-2.35-2.49-4.91-2.37-7.73c0.18-4.16,2.12-7.8,6.1-9.39c2.93-1.17,6.92,0.54,8.36,3.05
						c0.78,1.36,0.48,2.25-0.96,2.96c-1.2,0.58-2.5,0.85-3.76,1.26c-2.08,0.66-3.53,1.97-4.32,4c-0.13,0.33-0.29,0.74,0.06,0.97
						c0.33,0.22,0.56-0.17,0.79-0.37c0.35-0.3,0.71-0.59,1.2-1c0.09,2.64,0.37,5.08,1.02,7.46c0.35,1.28,0.69,2.56,1.38,3.71
						c0.3,0.51,0.68,0.78,1.27,0.52c0.62-0.27,0.74-0.75,0.52-1.35c-0.68-1.85-1.4-3.69-1.77-5.64c-0.35-1.88-0.49-3.77-0.6-5.67
						c-0.03-0.49,0.2-0.68,0.59-0.83c1.29-0.5,2.64-0.79,3.96-1.16c0.99-0.27,1.89-0.7,2.46-1.6c0.16-0.26,0.31-0.24,0.53-0.2
						c2.52,0.52,4.77-0.22,6.9-1.5c0.11-0.06,0.19-0.19,0.38-0.12c-0.87,2.95-1.65,5.92-2.13,8.96c-0.38,2.41-0.73,4.82-1.08,7.24
						c-0.29,2.01-0.58,4.02-0.87,6.04C99.4,150.53,99.21,150.77,98.64,150.72z M97.57,201.09c-1.26,3.96-2.81,7.78-5.01,11.32
						c-1.57,2.54-3.22,3.23-6.12,2.6c-1.95-0.42-3.76-1.18-5.46-2.24c-0.54-0.33-0.7-0.54-0.14-1.09c3.29-3.2,6.18-6.72,8.42-10.75
						c2.22-3.99,3.82-8.23,5.17-12.58c0.07-0.23,0.14-0.46,0.21-0.68c0.62,4,1.46,7.87,2.85,11.62
						C97.72,199.9,97.77,200.45,97.57,201.09z M128.86,219.72c-0.63,1.05-1.63,1.74-2.6,2.44c-2.23,1.6-4.61,2.97-6.77,4.67
						c-1.01,0.79-1.94,1.66-2.84,2.61c-0.99-2.06-2.85-2.48-4.8-2.77c-1.9-0.28-3.78-0.05-5.85,0.19c0.99-0.94,1.99-1.58,2.96-2.25
						c1.81-1.25,3.64-2.47,5.53-3.59c0.14-0.08,0.27-0.18,0.4-0.27c0.12-0.08,0.19-0.2,0.14-0.35c-0.06-0.17-0.21-0.14-0.34-0.13
						c-0.72,0.02-1.37,0.31-2,0.61c-2.57,1.19-4.95,2.7-7.24,4.36c-0.08,0.06-0.17,0.12-0.32,0.22c-0.06-1.07-0.28-2-1.21-2.57
						c-0.83-0.5-1.74-0.7-2.93-0.64c1.53-1.02,3.02-1.62,4.55-2.12c2.77-0.9,5.62-1.61,8.31-2.69c1.46-0.58,2.67-0.61,4.15-0.19
						c3.28,0.95,6.68,1.14,10.09,1.07C129.14,218.3,129.42,218.79,128.86,219.72z M133.38,216.21c-1.73,0.19-3.47,0.35-5.21,0.31
						c-6.15-0.02-12-1.23-17.33-4.47c-5.34-3.25-8.72-8.07-10.99-13.76c-1.38-3.46-2.19-7.06-2.65-10.76
						c-0.49-3.88-0.56-7.78-0.27-11.66c0.69-9.27,2.7-18.25,6.33-26.83c1.08-2.56,1.33-5.14,0.84-7.87
						c-0.41-2.29-0.3-4.63,0.05-6.92c0.75-4.98,2.41-9.65,5.01-13.98c0.11-0.19,0.22-0.37,0.33-0.56c0.17-0.3,0.32-0.36,0.61-0.09
						c4.03,3.73,9.04,5.33,14.23,6.51c3.47,0.79,7.01,1.02,10.54,0.79c5.11-0.33,10.04-1.58,14.78-3.51
						c0.98-0.4,1.96-0.78,2.93-1.19c0.34-0.15,0.54-0.21,0.72,0.25c0.7,1.89,1.71,3.62,2.83,5.29c1.12,1.66,1.23,3.55,1.22,5.47
						c-0.03,6.18-3.14,10.81-7.51,14.79c-4.02,3.65-7.33,7.81-9.12,13.01c-1.29,3.73-1.68,7.51-0.12,11.28
						c0.53,1.29,1.22,2.48,2.23,3.47c1.76,1.71,3.57,1.69,5.37-0.02c1.65-1.57,2.88-3.48,4.32-5.21c1.76-2.13,3.87-3.81,6.32-5.07
						c0.37-0.19,0.47-0.11,0.59,0.28c1.06,3.73,1.85,7.51,2.3,11.37c0.32,2.74,0.56,5.48,0.46,8.23c-0.2,5.56-1.17,10.95-3.96,15.86
						c-2.97,5.24-7.4,8.9-12.75,11.53C141.66,214.63,137.62,215.75,133.38,216.21z M158.32,139.25c0.48-1.48,0.72-3,0.77-4.55
						c0.04-1.05,0.12-2.1,0.19-3.28c1.24,1.03,2.21,2.16,3.14,3.31c3.79,4.67,5.88,10.12,7.13,15.93c0.36,1.69,0.65,3.4,0.96,5.11
						c0.12,0.68,0.04,1.17-0.68,1.59c-2.77,1.61-5.58,3.14-8.56,4.31c-4.83,1.9-8.61,5.09-11.61,9.28c-0.82,1.15-1.7,2.27-2.78,3.2
						c-0.99,0.85-1.61,0.86-2.56-0.04c-1.45-1.37-2.28-3.1-2.57-5.05c-0.73-4.89,0.97-9.12,3.63-13.07c1.75-2.6,4.04-4.69,6.32-6.81
						C154.69,146.4,157.06,143.18,158.32,139.25z M163.52,226c-0.68,2.9-2.23,6.6-3.54,8.34c-1.44-1.62-3.35-1.84-5.36-1.83
						c-2.02,0.01-3.9,0.59-5.78,1.45c-0.05-0.49,0.24-0.8,0.42-1.12c1.23-2.14,2.49-4.26,3.71-6.4c0.17-0.3,0.67-0.75,0.24-1.04
						c-0.34-0.23-0.63,0.33-0.86,0.59c-1.96,2.33-3.74,4.79-5.16,7.62c-1.04-3.51-3.79-3.99-6.95-4.02
						c1.44-1.58,3.03-2.67,4.63-3.75c1.95-1.33,4.01-2.54,5.57-4.36c0.28-0.33,0.61-0.67,0.73-1.06c0.21-0.68,0.67-0.67,1.2-0.6
						c3.53,0.46,6.99,0.08,10.39-0.88c0.64-0.18,0.8-0.01,0.94,0.55C164.26,221.67,164.03,223.83,163.52,226z M177,205.75
						c-3.72,6.05-9.06,9.83-15.97,11.42c-2.5,0.57-5.05,0.8-7.61,0.63c-2.71-0.19-5.34-0.86-7.92-1.68
						c-0.55-0.17-1.11-0.32-1.84-0.54c0.95-0.45,1.76-0.8,2.54-1.2c5.38-2.76,10.12-6.25,13.28-11.56
						c2.15-3.61,3.39-7.52,4.04-11.65c0.62-3.98,0.64-7.98,0.28-11.97c-0.44-4.81-1.51-9.51-2.94-14.12
						c-0.18-0.57-0.12-0.78,0.45-1.02c3.01-1.23,5.82-2.87,8.65-4.46c0.94-0.53,0.95-0.5,1.08,0.62c0.35,3.05,0.77,6.08,1.1,9.13
						c0.32,2.89,0.54,5.79,0.86,8.68c0.33,2.91,0.72,5.82,1.09,8.73c0.42,3.33,0.91,6.66,1.52,9.96c0.5,2.69,0.99,5.37,1.54,8.05
						C177.24,205.15,177.19,205.44,177,205.75z M183.6,215.5c-0.22-0.4-0.43-0.81-0.63-1.22c-2-4.18-3.15-8.62-4.08-13.13
						c-0.87-4.25-1.51-8.54-2.08-12.83c-0.45-3.36-0.88-6.73-1.21-10.1c-0.36-3.76-0.86-7.5-1.26-11.26
						c-0.33-3.16-0.75-6.3-1.17-9.45c-0.98-7.28-2.81-14.27-6.76-20.58c-1.39-2.23-3.06-4.24-4.88-6.11
						c-2.62-2.69-4.88-5.62-6.43-9.06c-0.21-0.47-0.22-0.7,0.26-0.93c3.51-1.66,7.08-3.23,10.97-3.62
						c5.91-0.59,10.56,1.09,14.01,7.11c1.92,3.35,2.88,7.05,3.62,10.8c0.85,4.32,1.31,8.69,1.67,13.08
						c0.34,4.25,0.7,8.51,1.15,12.75c0.87,8.39,2.18,16.7,4.57,24.81c2.05,6.93,5.21,13.31,9.66,19.03
						c1.51,1.94,3.21,3.66,5.05,5.24C199.34,214.15,191.4,215.4,183.6,215.5z"/>
					<path class="st11" d="M144.96,83.76c0.97,0.12,1.77-0.38,2.42-1.11c1.53-1.7,1.96-3.78,1.83-5.97
						c-0.07-1.18-0.62-2.25-1.55-3.05c-2.21-1.92-5.27-0.21-6.05,1.92c-0.77,2.11-0.7,4.25,0.23,6.33
						C142.44,83.17,143.44,83.82,144.96,83.76z M145.85,74.81c2.03,0,2.03,3.15,0,3.15C143.82,77.96,143.82,74.81,145.85,74.81z"/>
					<path class="st11" d="M143.69,71.18c1.88-0.96,3.68-0.68,5.2,0.81c0.31,0.3,0.61,0.61,0.92,0.92c0.14,0.14,0.3,0.3,0.49,0.17
						c0.18-0.12,0.11-0.34,0.07-0.52c-0.63-2.99-4.58-4.54-7.03-2.72c-0.65,0.48-1.38,1-1.25,2.18
						C142.69,71.7,143.19,71.43,143.69,71.18z"/>
					<path class="st11" d="M122.53,81.13c1.61-1.53,2.2-4.81,1.29-7.07c-0.67-1.65-1.98-2.13-3.54-1.28
						c-0.53,0.29-0.98,0.69-1.32,1.19c-0.8,1.15-1.16,2.44-1.11,3.88c-0.03,0.72,0.05,1.46,0.3,2.2
						C118.88,82.14,120.93,82.65,122.53,81.13z M121.72,73.56c2.03,0,2.03,3.15,0,3.15C119.69,76.71,119.69,73.56,121.72,73.56z"/>
					<path class="st11" d="M119.24,71c1.59-1.17,2.57-1.13,4.12,0.18c0.06,0.05,0.12,0.11,0.18,0.17c0.11,0.1,0.23,0.15,0.37,0.07
						c0.14-0.08,0.16-0.21,0.15-0.35c0-1.11-1.26-2.37-2.67-2.38c-1.03,0.09-1.99,0.73-2.6,1.9c-0.11,0.21-0.44,0.46-0.16,0.69
						C118.86,71.46,119.05,71.14,119.24,71z"/>
					<path class="st11" d="M128.42,87.03c0.52-0.11,1.1-0.24,1.6-0.6c0.24-0.17,0.37-0.43,0.21-0.71c-0.13-0.23-0.32-0.29-0.62-0.22
						c-0.53,0.12-1.04,0.29-1.52,0.54c-0.26,0.14-0.47,0.33-0.39,0.64C127.77,86.98,128.07,87.01,128.42,87.03z"/>
				</g>
				<path class="st7" d="M176.81,198.99c-0.68-5.93-1.41-11.85-2.19-17.77c-0.8-6.12-1.66-12.22-2.57-18.33
					c0.4-0.33,0.64-0.79,0.55-1.43c-0.13-1.05-0.72-1.55-1.45-1.7c0.35-0.71-0.16-1.76-1.09-1.43c-4.37,1.59-8.32,4.01-12.01,6.81
					c-1.8,1.36-3.71,2.78-5.37,4.41c-0.73-0.2-1.33,0.57-1.17,1.24c-0.68,0.79-1.28,1.63-1.78,2.54c-0.96,0.82-1.9,1.66-2.79,2.56
					c-0.22,0.22-0.31,0.47-0.3,0.7c-1.79-0.09-3.69-1.12-3.39-3.18c0.19-1.26-1.74-1.8-1.93-0.53c-0.29,2,0.59,3.83,2.29,4.92
					c1.87,1.2,4.22,0.98,6.18,0.13c1.69-0.74,3.05-1.95,4.33-3.24c0.11,0.33,0.22,0.65,0.32,0.96c0.55,1.7,0.92,3.46,1.09,5.24
					c0.31,3.26,0,6.56-0.89,9.72c-1.74,6.15-5.77,11.41-11.11,14.88c-11.2,7.29-26.24,5.56-36.06-3.34
					c-5.42-4.91-9-11.54-10.44-18.68c-0.25-1.26-2.18-0.73-1.93,0.53c0.51,2.55,1.3,5.02,2.33,7.36c-0.04,0.05-0.07,0.1-0.1,0.15
					c-0.29,0.2-0.45,0.55-0.27,1c0.24,0.61,0.51,1.2,0.77,1.8c-0.26,0.21-0.4,0.54-0.27,0.97c2.16,6.74,6.6,12.64,12.54,16.51
					c3.01,1.96,6.34,3.32,9.81,4.09c3.59,1,7.37,1.24,11.07,0.55c0.16,0.28,0.43,0.48,0.82,0.44c1.47-0.13,2.88-0.42,4.27-0.89
					c2.19-0.51,4.36-1.11,6.48-1.85c0.01,0.19,0.07,0.37,0.16,0.52c-0.05-0.01-0.09-0.02-0.14-0.02c-1.26-0.24-1.8,1.69-0.53,1.93
					c10.18,1.9,21.82,2.87,30.48-3.97c1.85-1.46,3.47-3.3,4.26-5.54C177.72,204.51,177.12,201.65,176.81,198.99z M161.02,168.97
					c-0.03-0.11-0.08-0.19-0.13-0.27c0.14-0.1,0.27-0.2,0.41-0.29c1.85-1.27,3.81-2.37,5.83-3.34c0.43,4.27,0.87,8.54,1.3,12.81
					c0.5,4.89,1.22,9.86,0.9,14.79c-0.28,4.29-1.55,8.76-4.57,11.95c-2.77,2.92-6.64,4.4-10.5,5.22c-1.22,0.26-2.59,0.39-3.96,0.57
					c1.04-0.7,2.05-1.46,3-2.33c2.94-2.71,5.6-6.34,7.21-10.01c1.2-2.72,1.51-5.68,1.6-8.65
					C163.01,182.59,162.67,175.68,161.02,168.97z"/>
				<path class="st7" d="M164.51,218.98c-0.06-0.99-1.42-1.34-1.86-0.51c-0.38-0.65-1.16-0.71-1.62-0.19
					c-0.1-0.02-0.2-0.06-0.32-0.06c-0.51-0.02-0.87,0.25-1.09,0.63c0,0,0,0,0,0c-0.24-0.01-0.48,0.05-0.71,0.14
					c-0.61,0.01-1.22,0.04-1.83,0.08c-0.16-0.02-0.32-0.05-0.49-0.07c-1.8-0.2-4.83-0.44-5.89,1.42c-0.06,0.11-0.09,0.22-0.11,0.33
					c-0.53,0.15-1.05,0.33-1.54,0.6c-1.13,0.61-0.12,2.34,1.01,1.73c1.12-0.61,2.39-0.72,3.64-0.73c1.33-0.01,2.68,0.04,3.98,0.33
					c2.2,0.5,4.36,1.82,4.9,4.16c0.26,1.13,1.91,0.83,1.96-0.27C164.67,224.04,164.65,221.51,164.51,218.98z"/>
				<path class="st7" d="M128.83,217.72c-0.21-0.01-0.42-0.02-0.63-0.03c-0.09-0.02-0.19-0.02-0.3-0.01
					c-1.98-0.08-3.96-0.05-5.94,0.1c-0.14,0.01-0.27,0.05-0.39,0.1c-0.77-0.36-1.59-0.65-2.32-0.97c-1.36-0.6-2.89-1.22-4.35-0.61
					c-0.5,0.21-0.85,0.66-0.7,1.23c0.12,0.47,0.73,0.9,1.23,0.7c1.45-0.6,3.22,0.58,4.52,1.16c0.68,0.3,1.47,0.55,2.02,1.06
					c0.51,0.47,0.79,1.14,1.18,1.71c0.41,0.61,0.93,1.31,1.73,1.36c0.68,0.04,1.45-0.48,1.98-0.85c1.24-0.87,2.23-2.04,2.83-3.43
					C129.99,218.52,129.64,217.77,128.83,217.72z"/>
				<path class="st7" d="M97.69,197.2c-0.91-3.11-1.55-6.3-1.92-9.52c-0.14-1.24-2.04-1.32-2,0c0.14,5.02,0.29,10.12-0.64,15.08
					c-0.84,4.47-2.55,9.68-6.63,12.2c-1.09,0.68-0.09,2.41,1.01,1.73c0.24-0.15,0.47-0.31,0.69-0.47c0.27,0.32,0.72,0.48,1.22,0.21
					c4.37-2.38,6.56-6.99,8.41-11.38c0.47-1.12,0.98-2.26,0.98-3.5C98.79,200.06,98.1,198.61,97.69,197.2z"/>
				<path class="st7" d="M171.42,154.48c-0.96-4.47-2.04-8.94-3.89-13.14c-1.86-4.23-4.55-8.03-8.24-10.85
					c-0.8-0.61-1.91,0.57-1.37,1.37c2.56,3.76,5.11,7.96,6.4,12.36c0.6,2.05,0.79,4.23-0.08,6.24c-0.76,1.78-2.15,3.21-3.52,4.54
					c-2.91,2.82-5.7,5.6-8.01,8.96c-2.21,3.21-4.95,8.37-9.65,7.59c-1.26-0.21-1.8,1.72-0.53,1.93c0.47,0.08,0.93,0.11,1.39,0.1
					c-0.31,0.24-0.47,0.7-0.36,1.07c0.44,1.64,2.31,1.91,3.58,1.03c0.96-0.67,1.75-1.78,2.47-2.86c1.63-1.44,3-3.27,4.36-4.98
					c2.77-3.48,6.21-5.6,10.36-7.11c1.96-0.71,3.99-1.22,5.93-1.96C172.3,157.98,171.79,156.23,171.42,154.48z"/>
				<path class="st7" d="M102.43,128.13c-0.03,0.08-0.06,0.16-0.1,0.24c0,0,0,0,0,0c-2.09,5.06-5.52,14.29-12.56,12.92
					c-6.13-1.19-11.01-8.49-7.43-14.27c0.68-1.1-1.05-2.1-1.73-1.01c-1.69,2.73-1.82,5.75-0.94,8.51c-0.49,0.15-0.9,0.62-0.75,1.21
					c2.18,8.46,10.72,12.37,18.18,15.16c1.73,0.65,3.29,0.33,3.65-1.69c0.37-2.08,0.2-4.32,0.36-6.43
					c0.36-4.59,1.14-9.19,2.97-13.44c0.06-0.14,0.12-0.29,0.18-0.43C104.68,127.86,102.88,127.09,102.43,128.13z"/>
				<path class="st7" d="M207.72,209.18c-4.4-3.54-8.14-7.83-10.97-12.73c-3-5.19-4.82-10.93-6.2-16.74
					c-2.95-12.44-4.65-25.21-5.55-37.95c-0.3-4.27-0.62-8.66-1.89-12.74c0.74,0.03,1.48-0.69,0.93-1.43
					c-0.84-1.14-1.8-2.16-2.85-3.07c-0.11-0.19-0.21-0.39-0.33-0.58c0.15-0.33,0.15-0.72-0.19-1.05c-2.47-2.47-5.12-5.02-8.47-6.21
					c0.05-0.04,0.1-0.07,0.14-0.11c0.14,0.02,0.27,0.07,0.4,0.1c0.15,0.11,0.29,0.22,0.44,0.34c0.39,0.3,0.82,0.29,1.16,0.12
					c0.37,0.13,0.73,0.28,1.09,0.45c0,0,0.01,0,0.01,0.01c0.15,0.13,0.31,0.2,0.46,0.23c1.5,0.79,2.85,1.88,3.91,3.27
					c0.69,0.9,2.02,0.39,1.83-0.77c-1.1-6.46-6.31-11.69-12.56-13.24c0.43-0.09,0.85-0.17,1.27-0.27c0.54-0.14,0.82-0.71,0.7-1.23
					c-1-4.24-1.6-8.22-0.98-12.56c0.55-3.88,1-7.58,0.34-11.49c-0.65-3.79-2.05-7.42-3.72-10.87c-1.39-2.87-2.97-6.05-6.01-7.47
					c-0.22-0.1-0.46-0.11-0.68-0.06c-1.01-1.17-2.17-2.2-3.55-2.98c-1.12-0.63-2.13,1.09-1.01,1.73c3.14,1.77,5.01,4.97,6.46,8.17
					c1.62,3.58,2.63,7.44,3.24,11.32c1.3,8.33,0.63,16.83-0.01,25.19c-0.01,0.1,0.01,0.2,0.05,0.3c-0.36,0.31-0.55,0.85-0.24,1.26
					c0.96,1.25,1.93,2.63,2.1,4.1c-6.41,0.62-12.15,4.43-18.11,6.9c-3.94,1.63-8.13,2.49-12.33,3.11c-4.32,0.64-8.8,1.1-13.11,0.14
					c-4.2-0.93-8.03-3.05-11.09-6.07c-0.92-0.9-2.33,0.51-1.41,1.41c2.63,2.59,5.78,4.57,9.26,5.8c2.03,0.72,4.13,1.12,6.26,1.28
					c-0.06,0.54,0.25,1.11,0.95,1.1c7.52-0.13,14.83-1.58,22-3.65c-1.16,0.49-2.32,0.98-3.49,1.45c-4.23,1.7-8.61,3.13-13.23,3.02
					c-5.22-0.13-10.25-1.88-15.14-3.56c-0.4-0.14-0.74,0-0.96,0.25c-1.94-1.15-3.77-2.5-5.42-4.05c-0.58-0.54-1.29-0.25-1.57,0.28
					c-0.2,0.16-0.35,0.38-0.41,0.64c-0.46,0.32-0.7,1-0.21,1.53c6.57,7.22,16.8,9.76,26.27,9c5.83-0.47,11.51-2.02,17-3.98
					c2.78-0.99,5.51-2.12,8.26-3.19c2.5-0.98,5.05-1.82,7.75-1.88c0.03,0,0.06,0,0.09,0c10.89,9.12,9.56,25.59,11.07,38.36
					c1.69,14.32,6.7,27.98,13.13,40.81c1.8,3.6,3.64,7.25,5.75,10.69c0.99,1.63,2.26,1.8,4.06,1.44c1.86-0.37,3.6-1.18,5.13-2.29
					C207.99,210.41,208.27,209.62,207.72,209.18z"/>
				<path class="st7" d="M138.85,87.38c-0.54-1.17-2.26-0.15-1.73,1.01c0.89,1.93-1.61,4.17-2.97,5.16
					c-1.69,1.23-3.71,2.02-5.79,2.28c-2.23,0.28-4.51-0.02-6.64-0.75c-2.19-0.75-4.08-2.26-6.39-2.66c-1.26-0.22-1.8,1.71-0.53,1.93
					c1.51,0.26,2.76,1.05,4.11,1.72c1.22,0.6,2.49,1.08,3.81,1.39c2.63,0.63,5.42,0.65,8.03-0.09
					C134.55,96.3,141.05,92.12,138.85,87.38z"/>
				<path class="st1" d="M88.63,205.54c-0.5-0.26-1.07-0.11-1.37,0.36c-0.3,0.47-0.61,0.93-0.94,1.38
					c-0.16,0.22-0.32,0.44-0.48,0.65c-0.04,0.05-0.08,0.1-0.12,0.15c0.1-0.13-0.03,0.04-0.05,0.06c-0.09,0.11-0.18,0.22-0.27,0.34
					c-0.7,0.87-1.44,1.7-2.23,2.48c-0.37,0.37-0.4,1.05,0,1.41c0.4,0.37,1.02,0.4,1.41,0c1.65-1.66,3.13-3.5,4.39-5.47
					C89.27,206.47,89.09,205.79,88.63,205.54z"/>
				<path class="st1" d="M90.98,201.51c-0.12-0.21-0.36-0.41-0.6-0.46c-0.26-0.06-0.54-0.05-0.77,0.1c-0.23,0.15-0.37,0.34-0.46,0.6
					c-0.05,0.16-0.11,0.31-0.18,0.46c-0.17,0.38-0.36,0.76-0.57,1.11c-0.13,0.22-0.17,0.53-0.1,0.77c0.06,0.23,0.24,0.48,0.46,0.6
					c0.23,0.12,0.51,0.18,0.77,0.1c0.25-0.08,0.46-0.23,0.6-0.46c0.4-0.64,0.71-1.34,0.95-2.05
					C91.16,202.04,91.11,201.72,90.98,201.51z"/>
				<path class="st1" d="M111.14,220.02c-0.17-0.53-0.68-0.82-1.23-0.7c-1.42,0.33-2.81,0.74-4.18,1.23
					c-0.49,0.18-0.87,0.69-0.7,1.23c0.16,0.48,0.7,0.89,1.23,0.7c1.37-0.49,2.76-0.9,4.18-1.23
					C110.95,221.13,111.3,220.52,111.14,220.02z"/>
				<path class="st1" d="M111.88,218.29c-1.29,0-1.29,2,0,2C113.16,220.29,113.17,218.29,111.88,218.29z"/>
				<path class="st1" d="M150.04,223.93c-0.36-0.33-1.06-0.43-1.41,0c-0.31,0.38-0.64,0.75-0.99,1.09c-0.18,0.17-0.36,0.34-0.54,0.5
					c-0.09,0.08-0.18,0.15-0.27,0.23c-0.05,0.04-0.1,0.08-0.15,0.12c-0.01,0.01,0,0,0,0c-0.01,0,0,0-0.01,0.01
					c-0.79,0.59-1.64,1.09-2.55,1.49c-0.48,0.21-0.63,0.95-0.36,1.37c0.32,0.5,0.85,0.58,1.37,0.36c1.9-0.83,3.62-2.14,4.92-3.75
					C150.37,224.94,150.47,224.33,150.04,223.93z"/>
				<path class="st1" d="M165.18,191.24c-0.23,4.49-1.95,8.86-4.86,12.28c-0.83,0.98,0.58,2.4,1.41,1.41
					c3.27-3.85,5.19-8.65,5.45-13.7C167.25,189.95,165.25,189.96,165.18,191.24z"/>
				<path class="st1" d="M167.12,185.37c-0.02-0.27-0.1-0.51-0.29-0.71c-0.17-0.17-0.46-0.3-0.71-0.29
					c-0.26,0.01-0.53,0.1-0.71,0.29c-0.17,0.19-0.31,0.44-0.29,0.71c0.05,0.64,0.09,1.28,0.14,1.93c0.02,0.27,0.1,0.51,0.29,0.71
					c0.17,0.17,0.46,0.3,0.71,0.29c0.26-0.01,0.53-0.1,0.71-0.29c0.17-0.19,0.31-0.44,0.29-0.71
					C167.21,186.65,167.16,186.01,167.12,185.37z"/>
				<path class="st1" d="M155.03,148.73c-2.71,2.93-5.6,5.78-7.98,9c-2.23,3.01-3.84,6.64-3.54,10.46c0.1,1.28,2.1,1.29,2,0
					c-0.28-3.61,1.33-6.91,3.47-9.72c2.25-2.95,4.95-5.6,7.47-8.33C157.32,149.2,155.9,147.78,155.03,148.73z"/>
				<path class="st1" d="M159.46,144.33c-0.12-0.21-0.36-0.41-0.6-0.46c-0.26-0.06-0.54-0.05-0.77,0.1c-0.07,0.05-0.14,0.1-0.2,0.16
					c-0.12,0.12-0.21,0.27-0.26,0.44c-0.18,0.5-0.36,0.99-0.54,1.49c-0.04,0.13-0.05,0.27-0.02,0.4c0.01,0.13,0.05,0.26,0.12,0.37
					c0.12,0.21,0.36,0.41,0.6,0.46c0.26,0.06,0.54,0.05,0.77-0.1c0.07-0.05,0.14-0.1,0.2-0.16c0.12-0.12,0.21-0.27,0.26-0.44
					c0.18-0.5,0.36-0.99,0.54-1.49c0.04-0.13,0.05-0.27,0.02-0.4C159.57,144.57,159.53,144.45,159.46,144.33z"/>
				<path class="st1" d="M177.75,163.88c-0.8-4.66-1.56-9.33-2.4-13.99c-0.75-4.16-1.69-8.31-3.4-12.2
					c-1.73-3.92-4.28-7.42-7.76-9.95c-1.04-0.76-2.04,0.98-1.01,1.73c6.66,4.84,8.86,13.27,10.25,20.95
					c1.61,8.9,3.06,17.82,4.58,26.74c0.88,5.15,1.76,10.29,2.64,15.44c0.22,1.27,2.14,0.73,1.93-0.53
					C180.96,182.67,179.36,173.28,177.75,163.88z"/>
				<path class="st1" d="M187.28,207.62c-0.92-2.84-1.85-5.69-2.77-8.53c-0.17-0.51-0.69-0.85-1.23-0.7
					c-0.5,0.14-0.87,0.71-0.7,1.23c0.92,2.84,1.85,5.69,2.77,8.53c0.17,0.51,0.69,0.85,1.23,0.7
					C187.08,208.71,187.45,208.13,187.28,207.62z"/>
				<path class="st1" d="M87.34,125.83c-1.8-0.04-3.64,0.78-4.76,2.19c-0.17,0.22-0.29,0.42-0.29,0.71c0,0.25,0.11,0.54,0.29,0.71
					c0.36,0.33,1.07,0.44,1.41,0c0.23-0.29,0.49-0.53,0.76-0.77c0.03-0.02,0.06-0.05,0.1-0.07c0.07-0.05,0.14-0.09,0.21-0.14
					c0.16-0.1,0.33-0.19,0.5-0.27c0.02-0.01,0.04-0.02,0.06-0.03c0.04,0,0.22-0.08,0.26-0.1c0.17-0.06,0.34-0.11,0.52-0.15
					c0.09-0.02,0.17-0.04,0.26-0.05c0.03,0,0.08-0.01,0.1-0.01c0.19-0.02,0.38-0.02,0.57-0.02c0.52,0.01,1.02-0.47,1-1
					C88.32,126.28,87.9,125.85,87.34,125.83z"/>
				<path class="st1" d="M157.75,94.73c-0.57,2.08-2.36,3.49-3.72,5.06c-1.58,1.82-2.81,3.89-3.07,6.32c-0.06,0.54,0.5,1,1,1
					c0.59,0,0.94-0.46,1-1c0.5-4.59,5.56-6.59,6.72-10.85C160.02,94.02,158.09,93.49,157.75,94.73z"/>
				<path class="st1" d="M160.94,89.12c-1.29,0-1.29,2,0,2C162.23,91.12,162.23,89.12,160.94,89.12z"/>
				<path class="st1" d="M131.69,81.52c-1.32-0.94-2.98-0.77-4.38-0.13c-1.66,0.75-3.2,1.91-4.73,2.9c-3.25,2.11-6.46,4.3-9.61,6.56
					c-1.04,0.74-0.04,2.48,1.01,1.73c2.78-1.99,5.61-3.93,8.47-5.81c1.43-0.94,2.87-1.87,4.32-2.78c1.16-0.72,2.61-1.67,3.92-0.74
					C131.73,83.99,132.73,82.26,131.69,81.52z"/>
				<path class="st10" d="M166.09,48.49c-1.82-0.09-3.45,0.61-4.69,1.92c-1.06,1.12-1.83,2.81-3.22,3.56
					c-2.08,1.12-4.32-1.13-5.33-2.74c-0.56-0.9-0.96-1.96-0.77-3.03c0.23-1.27,1.33-2.13,2.6-1.71c0.6,0.2,1.3-0.34,1.27-0.96
					c-0.11-2.28-2.04-3.89-4.06-3.7c0.33-1.59,0.51-3.2,0.21-4.81c-0.41-2.16-1.93-3.98-2.14-6.18c-0.1-1.03-1.26-1.31-1.86-0.5
					c-1.57,2.08-3.56,4.16-4.66,6.53c-0.51,1.1-0.7,2.31-0.46,3.42c-0.16-0.07-0.29-0.11-0.35-0.13c-0.58-0.1-1.19-0.08-1.76,0.05
					c-1.09,0.26-2.13,0.95-2.69,1.93c-0.58,1-0.37,2.27,0.87,2.58c0.76,0.19,1.3,0.04,1.73,0.84c0.39,0.71,0.33,1.59,0.08,2.34
					c-0.53,1.54-1.96,2.33-3.46,2.7c-1.2,0.3-3.22,0.75-4.43,0.37c-1.59-0.49-1.3-3.32-1.77-4.57c-0.48-1.29-1.39-2.3-2.54-3.03
					c-0.48-0.31-0.95-0.14-1.23,0.21c-0.55,0.07-1.04,0.52-0.83,1.2c1.2,3.81,2.03,7.72,2.46,11.69c0.06,0.58,0.6,1.21,1.27,0.96
					c3.6-1.35,7.67-0.47,11.37-0.02c3.78,0.46,7.57,1.02,11.26,1.98c1.84,0.48,3.66,1.05,5.43,1.76c1.2,0.48,2.55,1.28,3.41-0.16
					c0.98-1.65,1.67-3.55,2.48-5.28c0.9-1.91,1.79-3.82,2.69-5.72C167.28,49.3,166.89,48.53,166.09,48.49z"/>
				<path class="st1" d="M147.59,37.49c-1.29,0-1.29,2,0,2C148.87,39.49,148.88,37.49,147.59,37.49z"/>
				<path class="st1" d="M148.42,43.27c-0.04-0.49-0.35-0.92-0.87-0.98c-0.38-0.05-0.84,0.16-1.02,0.53
					c-0.22,0.07-0.42,0.21-0.53,0.42c-1.07,2.06-2.82,4.93-1.35,7.21c0.7,1.09,2.3,1.88,3.4,0.84c0.46-0.43,0.69-1.16,0.82-1.77
					c0.13-0.62,0.18-1.26,0.16-1.89C148.98,46.15,148.55,44.73,148.42,43.27z"/>
			</g>
			<path class="st10" d="M100,85.73c-1.86,0.62-3.57,1.5-5.15,2.61c-0.62-1.79-1.88-4.12-3.52-3.29c-1.38,0.71-2.05,2.32-2.45,3.9
				c-1.17-1.14-2.6-1.98-4.22-2.45c-0.14-0.04-0.26-0.04-0.38-0.03c-0.67-0.55-1.93-0.03-1.61,0.99c0.57,1.78,0.71,3.65,0.29,5.49
				c-0.37,1.63-1,3.16-0.79,4.86c0.2,1.61,0.87,3.26,1.61,4.69c0.75,1.45,1.87,2.52,3.34,3.22c2.87,1.37,6.56,1.9,9.52,0.48
				c2.83-1.36,4.1-4.89,4.27-7.83c0.21-3.62-2.16-7.9,0.2-11.17C101.64,86.49,100.8,85.46,100,85.73z"/>
			<path class="st7" d="M100.85,93.69c-0.41-2.32-0.78-4.83,0.2-7.06c0.21-0.48-0.37-1.05-0.79-0.61c-1.32,1.41-2.28,3.14-2.73,5.02
				c-0.52,2.15-0.07,4.29-0.28,6.46c-0.39,4.07-4.07,6.91-8.05,6.6c-1.03-2.32-1.22-4.97-0.48-7.43c0.46-1.53,1.65-2.85,1.84-4.45
				c0.19-1.62-0.76-3.05-1.79-4.2c-0.38-0.42-1.08,0.12-0.79,0.61c0.48,0.79,0.85,1.66,0.88,2.6c0.03,0.91-0.28,1.79-0.64,2.62
				c-0.64,1.45-1.31,2.82-1.58,4.4c-0.49,2.87,0.05,5.88,1.97,8.13c0.23,0.27,0.53,0.17,0.7-0.04c0.3,0.25,0.76,0.06,0.84-0.25
				c2.82,2.12,7.07,0.39,9.31-1.92C102.22,101.35,101.47,97.18,100.85,93.69z"/>
			<g>
				<g>
					<path class="st9" d="M147.77,39.2c0.35,0.04,0.64-0.17,0.67-0.53c0.02-0.39-0.21-0.71-0.61-0.76
						c-0.37-0.05-0.63,0.18-0.69,0.61C147.13,38.92,147.38,39.16,147.77,39.2z"/>
					<path class="st9" d="M146.08,51.36c1.06,0.16,1.89-0.31,2.33-1.32c0.19-0.44,0.27-0.91,0.33-1.38
						c0.22-1.96-0.15-3.82-1.05-5.57c-0.3-0.59-0.45-0.61-0.89-0.12c-0.78,0.85-1.38,1.82-1.84,2.89c-0.49,1.14-0.8,2.32-0.67,3.58
						C144.4,50.5,145.07,51.21,146.08,51.36z"/>
					<path class="st9" d="M128.59,47.15c0.2,0.1,0.37,0.3,0.52,0.48c1.17,1.47,1.29,3.05,0.49,4.73c-0.1,0.21-0.28,0.39-0.25,0.65
						c0.08,0.82,0.16,1.63,0.24,2.47c0.6-0.27,1.13-0.54,1.69-0.75c0.56-0.21,1.13-0.4,1.7-0.52c5.64-1.22,11.28-1.23,16.9,0.16
						c4.04,1.01,7.93,2.37,11.18,5.21c0.23-0.61,0.41-1.2,0.67-1.76c0.21-0.47,0.24-0.91,0.11-1.42c-0.47-1.93,0.6-4.13,2.36-4.66
						c0.75-0.23,1.22-0.62,1.6-1.25c0.17-0.29,0.39-0.55,0.59-0.82c0.49-0.64,0.45-0.75-0.36-0.89c-1.99-0.34-3.71,0.73-4.38,2.72
						c-0.83,2.48-2.64,3.73-5.04,3.35c-3.37-0.53-5.42-4.26-4.91-6.97c0.31-1.63,1.53-2.47,3.1-1.97c0.32,0.1,0.42,0.03,0.46-0.29
						c0.09-0.75,0.01-1.47-0.37-2.13c-0.73-1.3-2-1.67-3.36-1.02c-0.39,0.19-0.56-0.04-0.61-0.38c-0.06-0.38,0.14-0.69,0.34-0.99
						c0.58-0.89,0.82-1.86,0.6-2.89c-0.54-2.59-1.4-5.08-2.61-7.44c-0.23-0.45-0.41-0.49-0.76-0.11c-1.48,1.62-2.69,3.43-3.8,5.31
						c-0.4,0.68-0.78,1.38-0.97,2.16c-0.19,0.81-0.04,1.58,0.27,2.32c0.17,0.4-0.07,0.63-0.3,0.88c-0.15,0.16-0.27,0.08-0.4-0.04
						c-0.79-0.72-1.68-0.82-2.64-0.38c-1.09,0.5-1.65,1.38-1.82,2.54c-0.05,0.32,0.06,0.49,0.43,0.43c0.33-0.05,0.66-0.09,0.99,0.05
						c0.95,0.39,1.51,1.4,1.4,2.58c-0.25,2.73-2.43,5-5.25,5.47c-1.92,0.32-3.88-0.57-4.73-2.13c-0.47-0.86-0.53-1.81-0.63-2.76
						c-0.2-1.94-1.76-3.19-3.59-3.38c-0.23-0.02-0.7-0.02-0.54,0.31C127.42,45.1,127.28,46.52,128.59,47.15z M146.23,38.36
						c0.11-0.88,0.79-1.41,1.67-1.29c0.99,0.13,1.5,0.77,1.37,1.71c-0.12,0.88-0.78,1.35-1.71,1.21
						C146.63,39.86,146.12,39.24,146.23,38.36z M145.29,43.21c0.37-0.54,0.76-1.06,1.33-1.43c0.56-0.36,1.16-0.3,1.6,0.2
						c0.14,0.16,0.28,0.34,0.37,0.53c0.95,1.96,1.39,4.03,1.18,6.21c-0.13,1.03-0.38,2.01-1.14,2.75c-1.02,1-2.26,1.11-3.53,0.62
						c-1.3-0.51-1.77-1.63-1.85-2.94C143.13,46.91,144.07,45.01,145.29,43.21z"/>
					<path class="st9" d="M77.93,110.13c1.93,4.51,6.32,7.48,9.92,6.75C86.5,112.83,81.49,109.97,77.93,110.13z"/>
					<path class="st9" d="M121.72,76.71c2.03,0,2.03-3.15,0-3.15C119.69,73.56,119.69,76.71,121.72,76.71z"/>
					<path class="st9" d="M87.11,105.78c-0.15-0.29-0.22-0.61-0.21-0.94c-0.01-0.34,0.06-0.65,0.21-0.94
						c0.1-0.3,0.27-0.57,0.51-0.79c0.29-0.23,0.57-0.48,0.9-0.65c0.31-0.16,0.63-0.3,0.97-0.4c0.19-0.06,0.4-0.09,0.6-0.12
						c0.12-0.57,0.2-1.16,0.27-1.75c0.07-0.6-0.03-0.88-0.77-0.95c-0.56-0.05-0.84,0.05-1.13,0.47c-0.27,0.4-0.59,0.78-0.91,1.15
						c-0.14,0.17-0.3,0.34-0.54,0.13c-0.18-0.16-0.24-0.33-0.11-0.56c0.23-0.4,0.47-0.79,0.65-1.22c0.1-0.23,0.53-0.48,0.1-0.74
						c-0.42-0.26-0.53-1-1.3-0.72c-1.23,0.46-2.41,0.99-3.46,1.76c-1.48,1.08-2.03,2.9-1.27,4.49c0.86,1.79,2.51,2.42,4.34,2.68
						c0.57,0.03,1.05-0.1,1.49-0.34C87.3,106.19,87.18,106,87.11,105.78z"/>
					<path class="st9" d="M143.68,54.48c-3.3-0.25-6.57-0.02-9.8,0.66c-1.32,0.28-2.62,0.66-3.78,1.38c-0.16,0.1-0.29,0.21-0.4,0.33
						c0.49-0.09,0.98-0.17,1.48-0.23c0.59-0.07,1.19-0.13,1.79-0.19c1.1-0.1,2.19-0.16,3.28-0.18c2.87-0.34,5.76-0.23,8.65,0.04
						c2.95,0.28,5.82,0.98,8.61,1.97c1.48,0.53,2.93,1.14,4.24,2.01c0.98,0.41,1.95,0.83,2.94,1.21c0.02-0.4-0.2-0.81-0.66-1.26
						c-0.56-0.56-1.19-1.05-1.89-1.44C153.64,56.27,148.81,54.87,143.68,54.48z"/>
					<path class="st9" d="M128.17,67.98c0.57,2.69,0.32,5.36-0.09,8.03c-0.2,1.3-0.48,2.59-0.74,3.98c2.37-0.85,4.01,0.27,5.57,2.04
						c0-1.22-0.02-2.23,0-3.23c0.09-3.25,0.85-6.31,2.6-9.1c3.17-5.06,7.74-7.38,13.64-6.68c5.04,0.6,8.46,3.52,10.42,8.16
						c1.55,3.68,1.73,7.52,1.35,11.44c-0.41,4.15-1.85,7.88-4.25,11.27c-1.42,2.01-3.22,3.69-4.82,5.55
						c-3.08,3.6-3.81,7.55-1.86,11.95c0.3,0.68,0.56,0.73,1.17,0.39c2.35-1.3,4.71-2.59,7.11-3.8c2.59-1.32,5.32-2.25,8.22-2.65
						c1.32-0.18,2.65,0.01,4-0.16c-0.38-1.39-0.81-2.73-0.94-4.14c-0.28-3.18,0.33-6.3,0.55-9.44c0.43-6.14,0.03-12.17-2.06-18
						c-1.43-3.99-3.77-7.34-7.49-9.56c-5.96-3.57-12.54-4.95-19.36-5.47c-2.53-0.19-5.07-0.15-7.6,0.01
						c-2.19,0.14-4.37,0.38-6.47,1.12c-1.83,0.65-3.43,1.65-4.88,3.07C125.71,63.06,127.47,64.66,128.17,67.98z"/>
					<path class="st9" d="M114.59,87.72c3.51-2.22,7.2-4.16,10.56-6.61c0.19-0.14,0.34-0.28,0.41-0.56
						c0.89-3.68,1.63-7.38,1.27-11.19c-0.14-1.48-0.63-2.88-1.96-3.78c-1.82-1.23-4.85-0.54-6.13,1.38c-0.6,0.9-1.1,1.87-1.55,2.86
						c-1.5,3.34-2.38,6.84-2.64,10.49c-0.18,2.47-0.45,4.94-0.14,7.42C114.49,87.73,114.55,87.75,114.59,87.72z M118.79,70.59
						c0.61-1.17,1.57-1.81,2.6-1.9c1.41,0.01,2.67,1.27,2.67,2.38c0,0.14-0.02,0.27-0.15,0.35c-0.14,0.08-0.26,0.03-0.37-0.07
						c-0.06-0.06-0.12-0.11-0.18-0.17c-1.56-1.31-2.53-1.36-4.12-0.18c-0.19,0.14-0.38,0.46-0.61,0.27
						C118.35,71.05,118.68,70.8,118.79,70.59z M117.85,77.85c-0.05-1.45,0.31-2.73,1.11-3.88c0.35-0.5,0.79-0.9,1.32-1.19
						c1.56-0.85,2.87-0.38,3.54,1.28c0.92,2.26,0.32,5.54-1.29,7.07c-1.6,1.53-3.65,1.01-4.38-1.08
						C117.89,79.32,117.82,78.57,117.85,77.85z"/>
					<path class="st9" d="M100.59,110.55c0.15-0.42-0.01-0.52-0.35-0.42c-0.65,0.19-1.29,0.39-1.93,0.63
						c-3.12,1.16-5.56,3.11-7.13,6.23c0.93-0.12,1.74-0.2,2.54-0.34C97.25,116.02,99.4,113.83,100.59,110.55z"/>
					<path class="st9" d="M128.09,218.32c-3.41,0.07-6.81-0.12-10.09-1.07c-1.48-0.43-2.69-0.4-4.15,0.19
						c-2.7,1.08-5.54,1.78-8.31,2.69c-1.53,0.5-3.02,1.1-4.55,2.12c1.19-0.06,2.1,0.14,2.93,0.64c0.94,0.57,1.15,1.5,1.21,2.57
						c0.16-0.11,0.24-0.16,0.32-0.22c2.29-1.66,4.67-3.17,7.24-4.36c0.64-0.3,1.28-0.59,2.01-0.61c0.13,0,0.28-0.04,0.34,0.13
						c0.05,0.15-0.02,0.26-0.14,0.35c-0.13,0.09-0.26,0.19-0.4,0.27c-1.9,1.11-3.72,2.33-5.53,3.59c-0.97,0.67-1.96,1.32-2.96,2.25
						c2.07-0.24,3.95-0.47,5.85-0.19c1.95,0.29,3.81,0.7,4.8,2.77c0.9-0.95,1.84-1.82,2.84-2.61c2.16-1.7,4.54-3.07,6.77-4.67
						c0.97-0.7,1.97-1.38,2.6-2.44C129.42,218.79,129.14,218.3,128.09,218.32z"/>
					<path class="st9" d="M99.47,150.04c0.28-2.01,0.57-4.03,0.87-6.04c0.35-2.41,0.69-4.83,1.08-7.24
						c0.49-3.04,1.26-6.01,2.13-8.96c-0.19-0.07-0.28,0.06-0.38,0.12c-2.13,1.28-4.38,2.02-6.9,1.5c-0.22-0.05-0.37-0.06-0.53,0.2
						c-0.57,0.9-1.47,1.33-2.46,1.6c-1.33,0.37-2.67,0.66-3.96,1.16c-0.39,0.15-0.62,0.34-0.59,0.83c0.11,1.9,0.24,3.79,0.6,5.67
						c0.37,1.95,1.09,3.79,1.77,5.64c0.22,0.59,0.09,1.08-0.52,1.35c-0.59,0.26-0.97-0.01-1.27-0.52c-0.69-1.15-1.03-2.43-1.38-3.71
						c-0.65-2.39-0.94-4.83-1.02-7.46c-0.49,0.41-0.85,0.7-1.2,1c-0.24,0.2-0.46,0.59-0.79,0.37c-0.35-0.23-0.19-0.63-0.06-0.97
						c0.8-2.03,2.25-3.34,4.32-4c1.26-0.4,2.56-0.67,3.76-1.26c1.44-0.7,1.74-1.6,0.96-2.96c-1.44-2.51-5.43-4.22-8.36-3.05
						c-3.98,1.59-5.92,5.23-6.1,9.39c-0.12,2.82,0.86,5.37,2.37,7.73c2.57,4.02,6.25,6.66,10.57,8.5c2.02,0.86,4.08,1.59,6.29,1.8
						C99.21,150.77,99.4,150.53,99.47,150.04z"/>
					<path class="st9" d="M115.86,109.01c-0.23,0.37-0.03,0.55,0.16,0.77c0.9,1.02,1.89,1.96,2.98,2.79
						c5.29,4.03,11.3,5.22,17.77,4.38c4.01-0.52,7.74-1.99,11.35-3.76c0.5-0.25,0.58-0.5,0.36-1.01c-0.64-1.44-1.04-2.97-1.16-4.54
						c-0.24-3.2,0.75-6.04,2.63-8.61c1.38-1.9,3.06-3.55,4.51-5.38c2.67-3.38,4.23-7.21,4.67-11.5c0.32-3.12,0.18-6.18-0.87-9.16
						c-3.07-8.72-12.9-10.2-18.7-5.19c-4.12,3.56-5.53,8.27-5.13,13.64c0.13,1.68,0.73,2.73,2.2,3.63c2.3,1.41,2.57,3.25,1.2,5.59
						c-0.53,0.91-1.23,1.67-2,2.36c-2.94,2.63-6.39,3.53-10.26,3.08c-2.53-0.29-4.88-1.16-7.22-2.1c-1.04-0.42-2.07-0.78-3.28-0.5
						c0.47,1.44,0.95,2.87,1.41,4.31C117.7,101.62,118.09,105.39,115.86,109.01z M143.35,69.84c2.45-1.82,6.4-0.27,7.03,2.72
						c0.04,0.19,0.11,0.41-0.07,0.52c-0.19,0.12-0.35-0.03-0.49-0.17c-0.31-0.31-0.61-0.62-0.92-0.92c-1.52-1.48-3.32-1.76-5.2-0.81
						c-0.5,0.26-1,0.52-1.59,0.84C141.96,70.84,142.7,70.32,143.35,69.84z M141.62,75.54c0.78-2.13,3.83-3.84,6.05-1.92
						c0.92,0.8,1.48,1.86,1.55,3.05c0.13,2.19-0.3,4.27-1.83,5.97c-0.66,0.73-1.46,1.23-2.42,1.11c-1.52,0.07-2.52-0.59-3.11-1.89
						C140.93,79.79,140.85,77.65,141.62,75.54z"/>
					<path class="st9" d="M112.37,118.87c2.03,1.63,4.29,2.84,6.71,3.77c5.89,2.24,11.96,3.08,18.22,2.17
						c4.55-0.66,8.88-2.11,13.07-3.96c3.78-1.68,7.47-3.59,11.4-4.92c3.58-1.21,7.24-1.7,10.96-0.73c3.22,0.83,5.91,2.53,7.96,5.44
						c0-0.35,0.02-0.49,0-0.62c-0.5-2.95-1.78-5.55-3.62-7.89c-2.22-2.82-5.09-4.3-8.72-4.33c-2.28-0.02-4.46,0.46-6.63,1.09
						c-3.54,1.04-6.69,2.91-9.95,4.56c-5.17,2.61-10.45,4.84-16.31,5.38c-2.73,0.25-5.42,0.17-8.09-0.47
						c-4.79-1.16-8.91-3.5-12.32-7.07c-0.29-0.31-0.45-0.44-0.77,0c-0.83,1.14-1.76,2.21-2.57,3.37
						C110.5,116.36,110.74,117.57,112.37,118.87z"/>
					<path class="st9" d="M158.23,201.21c2.79-4.91,3.76-10.3,3.96-15.86c0.1-2.75-0.15-5.49-0.46-8.23
						c-0.44-3.86-1.23-7.64-2.3-11.37c-0.11-0.4-0.22-0.47-0.59-0.28c-2.45,1.26-4.56,2.94-6.32,5.07
						c-1.44,1.74-2.67,3.65-4.32,5.21c-1.8,1.71-3.61,1.74-5.37,0.02c-1.01-0.99-1.7-2.18-2.23-3.47
						c-1.56-3.77-1.17-7.55,0.12-11.28c1.79-5.2,5.1-9.35,9.12-13.01c4.37-3.97,7.47-8.6,7.51-14.79c0.01-1.92-0.1-3.82-1.22-5.47
						c-1.13-1.67-2.13-3.4-2.83-5.29c-0.17-0.46-0.37-0.4-0.72-0.25c-0.97,0.41-1.95,0.8-2.93,1.19c-4.75,1.94-9.67,3.18-14.78,3.51
						c-3.53,0.23-7.07,0.01-10.54-0.79c-5.19-1.18-10.2-2.78-14.23-6.51c-0.29-0.27-0.45-0.21-0.61,0.09
						c-0.11,0.19-0.22,0.38-0.33,0.56c-2.6,4.33-4.26,9-5.01,13.98c-0.35,2.29-0.46,4.63-0.05,6.92c0.49,2.73,0.25,5.3-0.84,7.87
						c-3.63,8.58-5.64,17.56-6.33,26.83c-0.29,3.89-0.21,7.78,0.27,11.66c0.46,3.7,1.28,7.3,2.65,10.76
						c2.27,5.69,5.64,10.52,10.99,13.76c5.33,3.24,11.17,4.45,17.33,4.47c1.75,0.04,3.48-0.12,5.21-0.31
						c4.24-0.47,8.28-1.58,12.1-3.47C150.83,210.12,155.26,206.46,158.23,201.21z"/>
					<path class="st9" d="M94.65,187.67c-0.07,0.23-0.14,0.46-0.21,0.68c-1.35,4.35-2.95,8.59-5.17,12.58
						c-2.24,4.03-5.13,7.55-8.42,10.75c-0.56,0.54-0.4,0.75,0.14,1.09c1.7,1.05,3.51,1.81,5.46,2.24c2.9,0.63,4.55-0.06,6.12-2.6
						c2.2-3.54,3.75-7.36,5.01-11.32c0.2-0.64,0.15-1.19-0.07-1.8C96.11,195.55,95.27,191.67,94.65,187.67z"/>
					<path class="st9" d="M201,204.77c-4.45-5.71-7.61-12.09-9.66-19.03c-2.39-8.11-3.7-16.42-4.57-24.81
						c-0.44-4.24-0.8-8.5-1.15-12.75c-0.36-4.39-0.81-8.76-1.67-13.08c-0.74-3.75-1.7-7.45-3.62-10.8c-3.45-6.02-8.1-7.7-14.01-7.11
						c-3.89,0.39-7.46,1.96-10.97,3.62c-0.49,0.23-0.48,0.46-0.26,0.93c1.56,3.44,3.81,6.37,6.43,9.06
						c1.83,1.87,3.49,3.89,4.88,6.11c3.94,6.31,5.78,13.3,6.76,20.58c0.42,3.15,0.84,6.29,1.17,9.45c0.4,3.75,0.89,7.5,1.26,11.26
						c0.33,3.38,0.76,6.74,1.21,10.1c0.57,4.29,1.21,8.58,2.08,12.83c0.93,4.51,2.09,8.95,4.08,13.13c0.2,0.41,0.41,0.82,0.63,1.22
						c7.8-0.1,15.75-1.36,22.45-5.49C204.21,208.44,202.5,206.71,201,204.77z"/>
					<path class="st9" d="M175.62,196.71c-0.61-3.3-1.1-6.63-1.52-9.96c-0.37-2.91-0.76-5.81-1.09-8.73
						c-0.32-2.89-0.54-5.79-0.86-8.68c-0.34-3.05-0.75-6.09-1.1-9.13c-0.13-1.12-0.14-1.15-1.08-0.62c-2.83,1.6-5.64,3.23-8.65,4.46
						c-0.57,0.24-0.63,0.45-0.45,1.02c1.43,4.61,2.5,9.31,2.94,14.12c0.36,3.99,0.34,7.99-0.28,11.97
						c-0.65,4.13-1.89,8.04-4.04,11.65c-3.16,5.31-7.91,8.8-13.28,11.56c-0.78,0.4-1.59,0.75-2.54,1.2
						c0.73,0.21,1.29,0.36,1.84,0.54c2.59,0.82,5.21,1.49,7.92,1.68c2.56,0.18,5.11-0.05,7.61-0.63
						c6.91-1.58,12.25-5.37,15.97-11.42c0.19-0.31,0.24-0.59,0.16-0.99C176.61,202.08,176.12,199.4,175.62,196.71z"/>
					<path class="st9" d="M145.39,155.99c-2.67,3.95-4.36,8.19-3.63,13.07c0.29,1.95,1.12,3.68,2.57,5.05
						c0.95,0.9,1.56,0.89,2.56,0.04c1.08-0.93,1.95-2.05,2.78-3.2c3-4.19,6.78-7.37,11.61-9.28c2.98-1.17,5.79-2.7,8.56-4.31
						c0.72-0.42,0.81-0.92,0.68-1.59c-0.31-1.7-0.59-3.41-0.96-5.11c-1.25-5.81-3.34-11.25-7.13-15.93
						c-0.93-1.15-1.9-2.28-3.14-3.31c-0.07,1.18-0.16,2.23-0.19,3.28c-0.05,1.55-0.3,3.07-0.77,4.55c-1.26,3.93-3.64,7.15-6.62,9.93
						C149.43,151.29,147.14,153.39,145.39,155.99z"/>
					<path class="st9" d="M162.77,218.93c-3.4,0.96-6.86,1.34-10.39,0.88c-0.53-0.07-0.99-0.08-1.2,0.6
						c-0.12,0.39-0.45,0.74-0.73,1.06c-1.57,1.82-3.62,3.03-5.57,4.36c-1.6,1.09-3.19,2.17-4.63,3.75c3.16,0.02,5.91,0.51,6.95,4.02
						c1.43-2.83,3.2-5.29,5.16-7.62c0.23-0.27,0.52-0.83,0.86-0.59c0.43,0.29-0.06,0.74-0.24,1.04c-1.21,2.15-2.48,4.27-3.71,6.4
						c-0.18,0.32-0.47,0.63-0.42,1.12c1.88-0.86,3.75-1.44,5.78-1.45c2-0.01,3.92,0.21,5.36,1.83c1.32-1.75,2.87-5.44,3.54-8.34
						c0.5-2.16,0.74-4.33,0.19-6.52C163.58,218.92,163.41,218.75,162.77,218.93z"/>
					<path class="st9" d="M145.85,77.96c2.03,0,2.03-3.15,0-3.15C143.82,74.81,143.82,77.96,145.85,77.96z"/>
					<path class="st9" d="M119.79,92.82c1.16,0.59,2.37,1,3.61,1.32c3.94,1.03,7.64,0.67,10.9-1.97c1.09-0.88,2.08-1.87,2.57-3.37
						C131.55,92.07,125.78,92.89,119.79,92.82z"/>
					<path class="st9" d="M118.26,91.14c3.48,0.28,6.94,0.27,10.37-0.51c2.61-0.59,5.08-1.46,7.29-3.02
						c0.51-0.36,0.55-0.7,0.13-1.12c-0.19-0.19-0.39-0.4-0.62-0.53c-1.75-0.99-3.23-2.3-4.62-3.72c-1.22-1.24-2.51-1.36-3.96-0.42
						c-1.14,0.74-2.23,1.54-3.36,2.3c-2.86,1.91-5.96,3.46-8.73,5.52c-0.63,0.47-1.21,0.99-1.57,1.74c0.34,0.12,0.64,0.1,0.92,0.03
						C115.49,91.07,116.88,91.03,118.26,91.14z M128.08,86.03c0.48-0.25,0.99-0.42,1.53-0.54c0.3-0.07,0.49-0.01,0.62,0.22
						c0.16,0.28,0.02,0.54-0.21,0.71c-0.49,0.36-1.07,0.49-1.6,0.6c-0.34-0.02-0.64-0.04-0.73-0.36
						C127.61,86.36,127.82,86.17,128.08,86.03z"/>
					<path d="M207.16,207.56c-1.64-1.56-3.14-3.27-4.5-5.07c-5.65-7.48-8.84-16.02-10.84-25.08c-0.84-3.81-1.52-7.65-2-11.52
						c-0.37-2.99-0.76-5.98-1.1-8.97c-0.27-2.4-0.44-4.82-0.7-7.22c-0.34-3.1-0.74-6.2-1.1-9.3c-0.36-3.04-0.89-6.05-1.58-9.03
						c-0.37-1.61-0.95-3.18-1.18-4.8c-0.4-2.87-0.67-5.76-1.52-8.55c-1.53-5.02-4.08-9.28-8.89-11.83
						c-0.21-0.11-0.34-0.26-0.42-0.47c-0.82-2.22-1.52-4.45-1.49-6.87c0.04-2.54,0.42-5.04,0.55-7.57c0.2-3.92,0.27-7.83-0.35-11.73
						c-0.04-0.25-0.08-0.5-0.13-0.75c-0.62-3.44-1.72-6.81-3.54-9.81c-0.91-1.5-2-2.9-3.23-4.16c-0.85-0.87-1.85-1.83-2.94-2.55
						c0.51-2.85,1.72-5.49,3.16-7.99c0.76-1.33,1.58-2.62,2.39-3.91c0.3-0.48,0.63-0.98,0.43-1.58c-0.1-0.29-0.3-0.51-0.53-0.69
						c-1.14-1.26-3.48-1.05-4.85-0.24c-0.95,0.56-1.6,1.38-2.03,2.38c-0.5,1.16-1,2.17-2.24,2.67c-2.52,1-4.79-1.59-5.19-3.91
						c-0.09-0.55-0.19-1.62,0.59-1.64c0.6-0.02,0.97,0.62,1.54,0.56c0.44-0.05,0.74-0.56,0.94-0.91c0.29-0.5,0.46-1.06,0.54-1.63
						c0.3-2.36-1.42-4.42-3.68-4.73c0.53-1.32,0.24-2.82-0.17-4.2c-0.6-2.01-1.3-3.99-2.08-5.93c-0.28-0.7-0.58-1.51-1.38-1.74
						c-0.8-0.23-1.57,0.17-2.12,0.73c-0.72,0.73-1.33,1.59-1.97,2.39c-0.62,0.77-1.26,1.53-1.83,2.34c-1.04,1.48-1.78,3.19-1.7,4.99
						c-1.15-0.08-2.31,0.4-3.14,1.27c-1.3,1.37-1.54,3.38-1.44,5.18c0.03,0.44,0.52,0.65,0.85,0.35c0.47-0.42,1.49-1.03,1.57,0.04
						c0.04,0.61,0,1.34-0.24,1.9c-0.25,0.59-0.81,0.94-1.33,1.28c-0.59,0.38-1.22,0.75-1.91,0.91c-1.24,0.28-2.55-0.34-3.11-1.49
						c-0.54-1.09-0.64-2.33-1.21-3.42c-1.04-1.99-3.33-3.6-5.64-2.83c-1.1,0.37-1.16,1.28-0.83,2.26c0.46,1.39,0.89,2.8,1.24,4.22
						c0.38,1.51,0.74,3.06,0.94,4.61c0.16,1.28,0.18,2.61-0.21,3.85c-2.15,0.61-4.17,1.55-5.98,2.99c-2.57,2.04-4.6,4.77-5.89,7.78
						c-2.84,6.61-3.8,13.54-3.27,20.7c0.03,0.38-0.05,0.66-0.3,0.96c-0.56,0.67-1.08,1.37-1.58,2.08c-0.38,0.54-0.21,0.98,0.38,1.23
						c0.47,0.2,0.97,0.34,1.49,0.35c0.32,0,0.57,0.02,0.71,0.47c0.57,1.92,1.23,3.81,1.84,5.71c0.85,2.66,0.87,5.27-0.49,7.8
						c-0.87,1.61-2.05,3-3.18,4.43c-1.01,1.27-2.17,2.5-2.49,4.14c-0.17,0.86-0.59,1.54-1,2.26c-0.63,1.11-1.27,2.21-1.88,3.33
						c-0.57,1.05-1.2,2.07-2,2.96c-1.72,1.91-3.77,3.17-6.46,3.1c-0.73-0.02-1.25-0.24-1.53-1.02c-0.88-2.41-2.72-3.86-4.99-4.86
						c-1.51-0.66-1.48-0.65-0.95-2.3c0.21-0.64,0.49-0.88,1.19-0.92c1.81-0.09,3.64-0.17,5.33-0.94c2.94-1.33,4.58-3.81,5.78-6.66
						c0.21-0.5,0.44-0.99,0.49-1.54c0.06-0.69-0.43-1.17-1.1-1.06c-0.77,0.13-1.55,0.26-2.3,0.48c-3.19,0.92-6.12,2.26-7.99,5.21
						c-0.07,0.11-0.19,0.18-0.33,0.31c0.26-2.59,0.51-5.13,0.78-7.77c-0.28,0.14-0.57,0.2-0.89,0.19c-0.03,0.01-0.05,0.01-0.08,0.02
						c-0.09,0.05-0.19,0.1-0.27,0.16l0.16-0.12c-0.23,0.17-0.48,0.31-0.77,0.39c-0.04,0.01-0.08,0.01-0.13,0.02
						c0,2.72-0.5,5.38-0.89,8.24c-0.2-0.37-0.3-0.55-0.4-0.74c-1.58-2.79-3.72-4.9-6.92-5.79c-2.09-0.59-4.21-0.43-6.32-0.44
						c-0.32,0-0.67,0.12-0.81,0.46c-0.17,0.39,0.05,0.7,0.32,0.94c1.22,1.11,2.13,2.46,3.02,3.84c1.47,2.27,3.56,3.68,6.14,4.42
						c1.23,0.35,2.5,0.44,3.76,0.65c0.17,0.03,0.49-0.09,0.45,0.19c-0.09,0.61-0.21,1.24-0.45,1.8c-0.14,0.33-0.62,0.26-0.96,0.28
						c-1.56,0.11-2.95,0.65-4.23,1.51c-4.11,2.77-6.13,8.44-4.87,13.56c1.19,4.89,4.08,8.6,8.08,11.47
						c3.86,2.78,8.17,4.54,12.93,5.07c0.61,0.07,0.46,0.34,0.35,0.7c-1.42,4.86-2.58,9.78-3.38,14.78
						c-0.44,2.76-0.87,5.52-1.05,8.31c-0.1,1.49-0.1,3.01-0.4,4.47c-0.98,4.64-2.47,9.13-4.37,13.48
						c-2.44,5.57-5.52,10.72-10.04,14.9c-0.62,0.57-1.26,1.12-1.87,1.71c-0.93,0.9-0.91,1.71,0.1,2.53
						c0.52,0.43,1.09,0.83,1.68,1.15c2.4,1.29,4.92,2.33,7.64,2.58c2.51,0.22,4.96-0.16,6.69-2.34c0.13-0.16,0.29-0.25,0.46-0.31
						c1.38-0.49,2.79-0.85,4.24-1.06c2.76-0.4,5.53-0.28,8.31-0.22c2.53,0.06,4.36,1.56,6.65,2.37c-1.3,0.62-2.53,0.94-3.75,1.28
						c-3.76,1.06-7.45,2.28-10.85,4.25c-0.68,0.4-1.35,0.81-1.88,1.42c-0.29,0.34-0.43,0.72-0.26,1.13c0.16,0.37,0.54,0.38,0.9,0.43
						c1.28,0.16,2.56,0.02,3.84,0.09c1.55,0.08,2.02,0.91,1.25,2.26c-0.35,0.61-0.78,1.17-1.15,1.77c-0.2,0.32-0.25,0.68-0.03,1
						c0.24,0.35,0.62,0.3,0.97,0.23c0.32-0.06,0.63-0.16,0.95-0.22c2.26-0.46,4.51-1.01,6.84-0.87c2.05,0.12,4.07,0.37,4.71,2.87
						c0.19,0.74,0.79,0.87,1.42,0.66c0.31-0.11,0.59-0.39,0.83-0.64c1.54-1.56,3.22-2.93,4.99-4.21c2.12-1.52,4.4-2.8,6.41-4.48
						c1.29-1.08,2.48-2.25,2.39-4.13c-0.02-0.43,0.25-0.4,0.53-0.4c0.98,0,1.95-0.14,2.92-0.28c1.61-0.23,3.21-0.55,4.83-0.68
						c3.61-0.29,6.86,1.16,10.24,2.21c-0.55,0.86-1.2,1.5-1.9,2.11c-2.03,1.74-4.32,3.11-6.49,4.66c-1.65,1.18-3.16,2.51-4.2,4.29
						c-0.53,0.91-0.16,1.49,0.87,1.45c1.28-0.05,2.55-0.23,3.83-0.18c1.69,0.07,2.93,0.97,3.47,2.57c0.22,0.65,0.28,1.32,0.32,2
						c0.04,0.96,0.52,1.21,1.34,0.76c0.5-0.27,0.98-0.58,1.47-0.87c2.22-1.34,4.59-2.05,7.21-1.84c1.28,0.11,2.44,0.53,3.12,1.65
						c1.06,1.78,1.55,1,2.41-0.01c0.05-0.06,0.09-0.14,0.13-0.21c2.03-3.03,3.26-6.4,4.09-9.92c0.58-2.47,0.95-4.97,0.01-7.45
						c-0.08-0.2-0.02-0.33,0.15-0.38c0.98-0.28,1.81-0.89,2.91-0.9c6.98-0.08,13.83,2.11,20.82,1.62c3.86-0.27,7.66-1.19,11.27-2.55
						c1.87-0.7,3.69-1.53,5.45-2.47c1.12-0.59,3.26-0.9,3.74-2.18c0.01-0.02,0.02-0.04,0.02-0.07
						C210.44,209.7,208.23,208.58,207.16,207.56z M98.31,110.76c0.63-0.24,1.28-0.44,1.93-0.63c0.35-0.1,0.51-0.01,0.35,0.42
						c-1.19,3.28-3.34,5.47-6.87,6.1c-0.8,0.14-1.61,0.22-2.54,0.34C92.74,113.88,95.18,111.93,98.31,110.76z M77.93,110.13
						c3.56-0.15,8.57,2.7,9.92,6.75C84.25,117.61,79.86,114.64,77.93,110.13z M126.9,44.04c-0.16-0.33,0.3-0.34,0.54-0.31
						c1.83,0.19,3.39,1.44,3.59,3.38c0.1,0.95,0.16,1.9,0.63,2.76c0.85,1.56,2.82,2.44,4.73,2.13c2.82-0.47,5-2.74,5.25-5.47
						c0.11-1.18-0.45-2.19-1.4-2.58c-0.34-0.14-0.67-0.1-0.99-0.05c-0.37,0.06-0.48-0.11-0.43-0.43c0.17-1.16,0.74-2.04,1.82-2.54
						c0.96-0.44,1.85-0.34,2.64,0.38c0.13,0.12,0.25,0.2,0.4,0.04c0.24-0.25,0.47-0.48,0.3-0.88c-0.31-0.74-0.46-1.52-0.27-2.32
						c0.19-0.78,0.57-1.48,0.97-2.16c1.1-1.89,2.31-3.69,3.8-5.31c0.35-0.39,0.53-0.34,0.76,0.11c1.21,2.36,2.07,4.85,2.61,7.44
						c0.22,1.03-0.02,2.01-0.6,2.89c-0.2,0.3-0.4,0.61-0.34,0.99c0.06,0.34,0.22,0.57,0.61,0.38c1.36-0.66,2.63-0.28,3.36,1.02
						c0.37,0.66,0.46,1.38,0.37,2.13c-0.04,0.32-0.13,0.39-0.46,0.29c-1.57-0.5-2.79,0.35-3.1,1.97c-0.51,2.72,1.53,6.44,4.91,6.97
						c2.4,0.38,4.21-0.87,5.04-3.35c0.66-1.99,2.39-3.07,4.38-2.72c0.81,0.14,0.85,0.25,0.36,0.89c-0.2,0.27-0.42,0.53-0.59,0.82
						c-0.37,0.63-0.84,1.02-1.6,1.25c-1.75,0.54-2.82,2.74-2.36,4.66c0.12,0.51,0.1,0.95-0.11,1.42c-0.25,0.56-0.44,1.14-0.67,1.76
						c-3.25-2.84-7.14-4.21-11.18-5.21c-5.62-1.4-11.26-1.38-16.9-0.16c-0.58,0.12-1.15,0.31-1.7,0.52
						c-0.55,0.21-1.08,0.48-1.69,0.75c-0.08-0.83-0.16-1.65-0.24-2.47c-0.03-0.26,0.15-0.44,0.25-0.65c0.8-1.68,0.68-3.26-0.49-4.73
						c-0.15-0.18-0.31-0.39-0.52-0.48C127.28,46.52,127.42,45.1,126.9,44.04z M160.69,61.48c-0.98-0.38-1.96-0.8-2.94-1.21
						c-1.31-0.86-2.75-1.48-4.24-2.01c-2.79-0.99-5.66-1.69-8.61-1.97c-2.89-0.27-5.78-0.38-8.65-0.04
						c-1.09,0.02-2.19,0.08-3.28,0.18c-0.6,0.06-1.19,0.11-1.79,0.19c-0.5,0.06-0.99,0.14-1.48,0.23c0.11-0.12,0.24-0.23,0.4-0.33
						c1.16-0.72,2.46-1.1,3.78-1.38c3.24-0.68,6.51-0.91,9.8-0.66c5.13,0.39,9.96,1.79,14.46,4.3c0.7,0.39,1.32,0.87,1.89,1.44
						C160.49,60.67,160.7,61.08,160.69,61.48z M127.14,59.67c2.09-0.75,4.28-0.98,6.47-1.12c2.53-0.17,5.06-0.21,7.6-0.01
						c6.82,0.52,13.4,1.91,19.36,5.47c3.72,2.23,6.06,5.57,7.49,9.56c2.09,5.83,2.49,11.86,2.06,18c-0.22,3.14-0.83,6.26-0.55,9.44
						c0.12,1.41,0.56,2.75,0.94,4.14c-1.35,0.17-2.68-0.02-4,0.16c-2.91,0.4-5.63,1.33-8.22,2.65c-2.4,1.22-4.75,2.51-7.11,3.8
						c-0.61,0.34-0.87,0.28-1.17-0.39c-1.95-4.4-1.22-8.35,1.86-11.95c1.59-1.86,3.39-3.54,4.82-5.55c2.4-3.39,3.84-7.12,4.25-11.27
						c0.38-3.92,0.2-7.77-1.35-11.44c-1.96-4.64-5.38-7.57-10.42-8.16c-5.9-0.7-10.47,1.63-13.64,6.68c-1.75,2.79-2.51,5.85-2.6,9.1
						c-0.03,1.01,0,2.02,0,3.23c-1.56-1.77-3.19-2.89-5.57-2.04c0.26-1.39,0.54-2.68,0.74-3.98c0.41-2.67,0.66-5.34,0.09-8.03
						c-0.7-3.32-2.46-4.92-5.91-5.24C123.7,61.32,125.31,60.32,127.14,59.67z M114.56,80.31c0.26-3.66,1.14-7.15,2.64-10.49
						c0.45-0.99,0.95-1.95,1.55-2.86c1.28-1.93,4.31-2.61,6.13-1.38c1.33,0.9,1.82,2.3,1.96,3.78c0.36,3.81-0.38,7.51-1.27,11.19
						c-0.07,0.28-0.22,0.42-0.41,0.56c-3.36,2.45-7.05,4.39-10.56,6.61c-0.04,0.02-0.1,0.01-0.17,0.01
						C114.11,85.25,114.38,82.78,114.56,80.31z M114.13,91.4c-0.28,0.07-0.58,0.09-0.92-0.03c0.36-0.75,0.94-1.27,1.57-1.74
						c2.77-2.06,5.87-3.6,8.73-5.52c1.13-0.75,2.22-1.56,3.36-2.3c1.45-0.94,2.74-0.82,3.96,0.42c1.4,1.42,2.88,2.73,4.62,3.72
						c0.23,0.13,0.43,0.34,0.62,0.53c0.42,0.42,0.38,0.76-0.13,1.12c-2.21,1.55-4.68,2.42-7.29,3.02
						c-3.43,0.78-6.89,0.78-10.37,0.51C116.88,91.03,115.49,91.07,114.13,91.4z M136.87,88.81c-0.49,1.5-1.48,2.49-2.57,3.37
						c-3.27,2.64-6.97,2.99-10.9,1.97c-1.24-0.32-2.44-0.74-3.61-1.32C125.78,92.89,131.55,92.07,136.87,88.81z M115.07,93.49
						c1.21-0.28,2.24,0.08,3.28,0.5c2.33,0.94,4.69,1.81,7.22,2.1c3.87,0.45,7.33-0.45,10.26-3.08c0.77-0.69,1.47-1.45,2-2.36
						c1.36-2.34,1.09-4.18-1.2-5.59c-1.47-0.9-2.07-1.95-2.2-3.63c-0.4-5.37,1.01-10.08,5.13-13.64c5.8-5.01,15.63-3.54,18.7,5.19
						c1.05,2.98,1.19,6.04,0.87,9.16c-0.44,4.3-2,8.13-4.67,11.5c-1.45,1.84-3.13,3.48-4.51,5.38c-1.87,2.57-2.87,5.4-2.63,8.61
						c0.12,1.58,0.52,3.1,1.16,4.54c0.23,0.51,0.15,0.77-0.36,1.01c-3.61,1.77-7.34,3.24-11.35,3.76
						c-6.47,0.85-12.48-0.34-17.77-4.38c-1.09-0.83-2.08-1.76-2.98-2.79c-0.19-0.22-0.39-0.4-0.16-0.77
						c2.23-3.62,1.84-7.4,0.62-11.21C116.02,96.36,115.54,94.93,115.07,93.49z M111.7,114.65c0.81-1.16,1.74-2.23,2.57-3.37
						c0.32-0.44,0.47-0.3,0.77,0c3.41,3.57,7.53,5.9,12.32,7.07c2.67,0.65,5.37,0.72,8.09,0.47c5.85-0.54,11.14-2.77,16.31-5.38
						c3.26-1.64,6.42-3.52,9.95-4.56c2.16-0.64,4.35-1.11,6.63-1.09c3.63,0.03,6.49,1.51,8.72,4.33c1.84,2.34,3.12,4.94,3.62,7.89
						c0.02,0.13,0,0.27,0,0.62c-2.05-2.91-4.74-4.61-7.96-5.44c-3.72-0.96-7.38-0.48-10.96,0.73c-3.93,1.33-7.61,3.24-11.4,4.92
						c-4.2,1.86-8.52,3.31-13.07,3.96c-6.26,0.9-12.33,0.07-18.22-2.17c-2.42-0.92-4.68-2.14-6.71-3.77
						C110.74,117.57,110.5,116.36,111.7,114.65z M98.64,150.72c-2.21-0.21-4.27-0.94-6.29-1.8c-4.32-1.84-8-4.48-10.57-8.5
						c-1.51-2.35-2.49-4.91-2.37-7.73c0.18-4.16,2.12-7.8,6.1-9.39c2.93-1.17,6.92,0.54,8.36,3.05c0.78,1.36,0.48,2.25-0.96,2.96
						c-1.2,0.58-2.5,0.85-3.76,1.26c-2.08,0.66-3.53,1.97-4.32,4c-0.13,0.33-0.29,0.74,0.06,0.97c0.33,0.22,0.56-0.17,0.79-0.37
						c0.35-0.3,0.71-0.59,1.2-1c0.09,2.64,0.37,5.08,1.02,7.46c0.35,1.28,0.69,2.56,1.38,3.71c0.3,0.51,0.68,0.78,1.27,0.52
						c0.62-0.27,0.74-0.75,0.52-1.35c-0.68-1.85-1.4-3.69-1.77-5.64c-0.35-1.88-0.49-3.77-0.6-5.67c-0.03-0.49,0.2-0.68,0.59-0.83
						c1.29-0.5,2.64-0.79,3.96-1.16c0.99-0.27,1.89-0.7,2.46-1.6c0.16-0.26,0.31-0.24,0.53-0.2c2.52,0.52,4.77-0.22,6.9-1.5
						c0.11-0.06,0.19-0.19,0.38-0.12c-0.87,2.95-1.65,5.92-2.13,8.96c-0.38,2.41-0.73,4.82-1.08,7.24
						c-0.29,2.01-0.58,4.02-0.87,6.04C99.4,150.53,99.21,150.77,98.64,150.72z M97.57,201.09c-1.26,3.96-2.81,7.78-5.01,11.32
						c-1.57,2.54-3.22,3.23-6.12,2.6c-1.95-0.42-3.76-1.18-5.46-2.24c-0.54-0.33-0.7-0.54-0.14-1.09c3.29-3.2,6.18-6.72,8.42-10.75
						c2.22-3.99,3.82-8.23,5.17-12.58c0.07-0.23,0.14-0.46,0.21-0.68c0.62,4,1.46,7.87,2.85,11.62
						C97.72,199.9,97.77,200.45,97.57,201.09z M128.86,219.72c-0.63,1.05-1.63,1.74-2.6,2.44c-2.23,1.6-4.61,2.97-6.77,4.67
						c-1.01,0.79-1.94,1.66-2.84,2.61c-0.99-2.06-2.85-2.48-4.8-2.77c-1.9-0.28-3.78-0.05-5.85,0.19c0.99-0.94,1.99-1.58,2.96-2.25
						c1.81-1.25,3.64-2.47,5.53-3.59c0.14-0.08,0.27-0.18,0.4-0.27c0.12-0.08,0.19-0.2,0.14-0.35c-0.06-0.17-0.21-0.14-0.34-0.13
						c-0.72,0.02-1.37,0.31-2.01,0.61c-2.57,1.19-4.95,2.7-7.24,4.36c-0.08,0.06-0.17,0.12-0.32,0.22c-0.06-1.07-0.28-2-1.21-2.57
						c-0.83-0.5-1.74-0.7-2.93-0.64c1.53-1.02,3.02-1.62,4.55-2.12c2.77-0.9,5.62-1.61,8.31-2.69c1.46-0.58,2.67-0.61,4.15-0.19
						c3.28,0.95,6.68,1.14,10.09,1.07C129.14,218.3,129.42,218.79,128.86,219.72z M133.38,216.21c-1.73,0.19-3.47,0.35-5.21,0.31
						c-6.15-0.02-12-1.23-17.33-4.47c-5.34-3.25-8.72-8.07-10.99-13.76c-1.38-3.46-2.19-7.06-2.65-10.76
						c-0.49-3.88-0.56-7.78-0.27-11.66c0.69-9.27,2.7-18.25,6.33-26.83c1.08-2.56,1.33-5.14,0.84-7.87
						c-0.41-2.29-0.3-4.63,0.05-6.92c0.75-4.98,2.41-9.65,5.01-13.98c0.11-0.19,0.22-0.37,0.33-0.56c0.17-0.3,0.32-0.36,0.61-0.09
						c4.03,3.73,9.04,5.33,14.23,6.51c3.47,0.79,7,1.02,10.54,0.79c5.11-0.33,10.04-1.58,14.78-3.51c0.98-0.4,1.96-0.78,2.93-1.19
						c0.34-0.15,0.54-0.21,0.72,0.25c0.7,1.89,1.71,3.62,2.83,5.29c1.12,1.66,1.23,3.55,1.22,5.47c-0.03,6.18-3.14,10.81-7.51,14.79
						c-4.02,3.65-7.33,7.81-9.12,13.01c-1.29,3.73-1.68,7.51-0.12,11.28c0.53,1.29,1.22,2.48,2.23,3.47
						c1.76,1.71,3.57,1.69,5.37-0.02c1.65-1.57,2.88-3.48,4.32-5.21c1.76-2.13,3.87-3.81,6.32-5.07c0.37-0.19,0.47-0.11,0.59,0.28
						c1.06,3.73,1.85,7.51,2.3,11.37c0.32,2.74,0.56,5.48,0.46,8.23c-0.2,5.56-1.17,10.95-3.96,15.86
						c-2.97,5.24-7.4,8.9-12.75,11.53C141.66,214.63,137.62,215.75,133.38,216.21z M158.32,139.25c0.48-1.48,0.72-3,0.77-4.55
						c0.04-1.05,0.12-2.1,0.19-3.28c1.24,1.03,2.21,2.16,3.14,3.31c3.79,4.67,5.88,10.12,7.13,15.93c0.36,1.69,0.65,3.4,0.96,5.11
						c0.12,0.68,0.04,1.17-0.68,1.59c-2.77,1.61-5.58,3.14-8.56,4.31c-4.83,1.9-8.61,5.09-11.61,9.28c-0.82,1.15-1.7,2.27-2.78,3.2
						c-0.99,0.85-1.61,0.86-2.56-0.04c-1.45-1.37-2.28-3.1-2.57-5.05c-0.73-4.89,0.97-9.12,3.63-13.07c1.75-2.6,4.04-4.69,6.32-6.81
						C154.69,146.4,157.06,143.18,158.32,139.25z M163.52,226c-0.68,2.9-2.23,6.6-3.54,8.34c-1.44-1.62-3.35-1.84-5.36-1.83
						c-2.02,0.01-3.9,0.59-5.78,1.45c-0.05-0.49,0.24-0.8,0.42-1.12c1.23-2.14,2.49-4.26,3.71-6.4c0.17-0.3,0.67-0.75,0.24-1.04
						c-0.34-0.23-0.63,0.33-0.86,0.59c-1.96,2.33-3.74,4.79-5.16,7.62c-1.04-3.51-3.79-3.99-6.95-4.02
						c1.44-1.58,3.03-2.67,4.63-3.75c1.95-1.33,4.01-2.54,5.57-4.36c0.28-0.33,0.61-0.67,0.73-1.06c0.21-0.68,0.67-0.67,1.2-0.6
						c3.53,0.46,6.99,0.08,10.39-0.88c0.64-0.18,0.8-0.01,0.94,0.55C164.26,221.67,164.03,223.83,163.52,226z M177,205.75
						c-3.72,6.05-9.06,9.83-15.97,11.42c-2.5,0.57-5.05,0.8-7.61,0.63c-2.71-0.19-5.34-0.86-7.92-1.68
						c-0.55-0.17-1.11-0.32-1.84-0.54c0.95-0.45,1.76-0.8,2.54-1.2c5.38-2.76,10.12-6.25,13.28-11.56
						c2.15-3.61,3.39-7.52,4.04-11.65c0.62-3.98,0.64-7.98,0.28-11.97c-0.44-4.81-1.51-9.51-2.94-14.12
						c-0.18-0.57-0.12-0.78,0.45-1.02c3.01-1.23,5.82-2.87,8.65-4.46c0.94-0.53,0.95-0.5,1.08,0.62c0.35,3.05,0.77,6.08,1.1,9.13
						c0.32,2.89,0.54,5.79,0.86,8.68c0.33,2.91,0.72,5.82,1.09,8.73c0.42,3.33,0.91,6.66,1.52,9.96c0.5,2.69,0.99,5.37,1.54,8.05
						C177.24,205.15,177.19,205.44,177,205.75z M183.6,215.5c-0.22-0.4-0.43-0.81-0.63-1.22c-2-4.18-3.15-8.62-4.08-13.13
						c-0.87-4.25-1.51-8.54-2.08-12.83c-0.45-3.36-0.88-6.73-1.21-10.1c-0.36-3.76-0.86-7.5-1.26-11.26
						c-0.33-3.16-0.75-6.3-1.17-9.45c-0.98-7.28-2.81-14.27-6.76-20.58c-1.39-2.23-3.06-4.24-4.88-6.11
						c-2.62-2.69-4.88-5.62-6.43-9.06c-0.21-0.47-0.22-0.7,0.26-0.93c3.51-1.66,7.08-3.23,10.97-3.62
						c5.91-0.59,10.56,1.09,14.01,7.11c1.92,3.35,2.88,7.05,3.62,10.8c0.85,4.32,1.31,8.69,1.67,13.08
						c0.34,4.25,0.7,8.51,1.15,12.75c0.87,8.39,2.18,16.7,4.57,24.81c2.05,6.93,5.21,13.31,9.66,19.03
						c1.51,1.94,3.21,3.66,5.05,5.24C199.34,214.15,191.4,215.4,183.6,215.5z"/>
					<path d="M144.96,83.76c0.97,0.12,1.77-0.38,2.42-1.11c1.53-1.7,1.96-3.78,1.83-5.97c-0.07-1.18-0.62-2.25-1.55-3.05
						c-2.21-1.92-5.27-0.21-6.05,1.92c-0.77,2.11-0.7,4.25,0.23,6.33C142.44,83.17,143.44,83.82,144.96,83.76z M145.85,74.81
						c2.03,0,2.03,3.15,0,3.15C143.82,77.96,143.82,74.81,145.85,74.81z"/>
					<path d="M143.69,71.18c1.88-0.96,3.68-0.68,5.2,0.81c0.31,0.3,0.61,0.61,0.92,0.92c0.14,0.14,0.3,0.3,0.49,0.17
						c0.18-0.12,0.11-0.34,0.07-0.52c-0.63-2.99-4.58-4.54-7.03-2.72c-0.65,0.48-1.38,1-1.24,2.18
						C142.69,71.7,143.19,71.43,143.69,71.18z"/>
					<path d="M122.53,81.13c1.61-1.53,2.2-4.81,1.29-7.07c-0.67-1.65-1.98-2.13-3.54-1.28c-0.53,0.29-0.98,0.69-1.32,1.19
						c-0.8,1.15-1.16,2.44-1.11,3.88c-0.03,0.72,0.05,1.46,0.3,2.2C118.88,82.14,120.93,82.65,122.53,81.13z M121.72,73.56
						c2.03,0,2.03,3.15,0,3.15C119.69,76.71,119.69,73.56,121.72,73.56z"/>
					<path d="M119.24,71c1.59-1.17,2.57-1.13,4.12,0.18c0.06,0.05,0.12,0.11,0.18,0.17c0.11,0.1,0.23,0.15,0.37,0.07
						c0.14-0.08,0.15-0.21,0.15-0.35c0-1.11-1.26-2.37-2.67-2.38c-1.03,0.09-1.99,0.73-2.6,1.9c-0.11,0.21-0.44,0.46-0.16,0.69
						C118.86,71.46,119.05,71.14,119.24,71z"/>
					<path d="M128.42,87.03c0.52-0.11,1.1-0.24,1.6-0.6c0.24-0.17,0.37-0.43,0.21-0.71c-0.13-0.23-0.32-0.29-0.62-0.22
						c-0.53,0.12-1.04,0.29-1.53,0.54c-0.26,0.14-0.47,0.33-0.39,0.64C127.77,86.98,128.07,87.01,128.42,87.03z"/>
					<path d="M145.11,52.1c1.27,0.49,2.51,0.38,3.53-0.62c0.76-0.74,1.01-1.72,1.14-2.75c0.21-2.18-0.23-4.25-1.18-6.21
						c-0.09-0.19-0.23-0.37-0.37-0.53c-0.44-0.5-1.04-0.57-1.6-0.2c-0.56,0.37-0.96,0.89-1.33,1.43c-1.22,1.8-2.17,3.7-2.04,5.95
						C143.33,50.48,143.8,51.6,145.11,52.1z M144.95,45.86c0.46-1.06,1.06-2.03,1.84-2.89c0.44-0.48,0.59-0.46,0.89,0.12
						c0.9,1.75,1.27,3.61,1.05,5.57c-0.07,0.47-0.14,0.94-0.33,1.38c-0.44,1.01-1.27,1.48-2.33,1.32c-1.01-0.16-1.68-0.86-1.79-1.93
						C144.15,48.18,144.46,47,144.95,45.86z"/>
					<path d="M147.57,40c0.93,0.13,1.58-0.33,1.71-1.21c0.13-0.94-0.38-1.58-1.37-1.71c-0.88-0.12-1.56,0.41-1.67,1.29
						C146.12,39.24,146.63,39.86,147.57,40z M147.83,37.9c0.39,0.05,0.63,0.37,0.61,0.76c-0.02,0.36-0.31,0.57-0.67,0.53
						c-0.39-0.04-0.64-0.28-0.64-0.69C147.2,38.08,147.46,37.85,147.83,37.9z"/>
				</g>
				<g>
					<path class="st11" d="M151.53,170.08c-1.36,1.83-2.58,3.83-4.37,5.26c-1.17,0.93-3.03,1.03-3.84-0.5
						c-0.97-1.83-1.95-3.7-2.3-5.77c-0.34-1.99-0.28-3.94,0.11-5.92c0.66-3.32,2.3-6.37,3.93-9.32c-1.66-1.39-3.43-2.67-5.3-3.9
						c-5.27-3.5-9.82-7.83-14.32-12.24c-0.54-0.53-1.36-0.49-1.71,0.24c-2.45,5.07-5.93,9.52-9.44,13.89
						c-3.21,4-6.64,8.01-8.63,12.79c-1.9,4.56-2.07,9.68,0.25,14.12c2.21,4.24,6.42,7.8,11.46,6.99c3.46-0.55,7.44-2.31,9.76-5.18
						c0.01,3.14-0.22,6.26-0.64,9.39c-0.12,0.93,0.15,1.8,1.22,1.9c1.02,0.09,2.13-0.06,3.15-0.14c2.24-0.17,4.45-0.5,6.65-0.97
						c0.62-0.13,1.06-0.76,0.78-1.39c-1.4-3.14-2.62-6.37-3.65-9.65c6.18,4.69,16.87,2.62,19.47-5.3c0.72-2.2,0.62-4.5,0.06-6.74
						C153.29,168.47,152.39,169.25,151.53,170.08z"/>
					<path class="st7" d="M152.6,169.08c-0.36,0.33-0.72,0.66-1.07,1c-1.36,1.83-2.58,3.83-4.37,5.26
						c-0.66,0.52-1.53,0.77-2.32,0.62c-1.25,0.96-2.8,1.64-4.2,1.95c-2.22,0.49-4.47,0.09-6.22-1.39c-0.49-0.41-1.02-0.23-1.33,0.16
						c-0.08-0.3-0.16-0.6-0.24-0.9c-0.3-1.11-1.7-1.11-1.98,0.01c-0.28,1.08-0.13,2.21-0.02,3.31c0.12,1.17,0.26,2.34,0.44,3.51
						c0.36,2.33,0.85,4.64,1.46,6.91c0.14,0.53,0.55,0.93,1.13,0.85c0.18-0.02,0.37-0.12,0.52-0.25c0.22,0.25,0.55,0.41,0.88,0.33
						c1.45-0.36,1.08-1.7,0.79-2.78c-0.36-1.32-0.71-2.64-1.07-3.96c-0.48-1.78-0.96-3.55-1.44-5.33c1.51,1.14,3.28,1.66,5.1,1.7
						c-0.16,0.55,0.06,1.21,0.79,1.23c3.56,0.1,7.21-0.63,10.13-2.78c1.37-1.01,2.68-2.4,3.24-4.04c0.58-1.72,0.35-3.54-0.15-5.25
						C152.64,169.18,152.62,169.13,152.6,169.08z"/>
					<path class="st7" d="M142.25,159.49c0.57-1.43,1.26-2.82,2-4.18c-2.64-2.63-5.64-4.94-8.59-7.17c-0.4-0.3-0.82-0.24-1.13-0.02
						c-3.11-2.82-6.22-5.65-9.33-8.47c-0.83-0.75-2.18,0.6-1.39,1.42C129.84,147.29,137.04,152.52,142.25,159.49z"/>
					<path class="st8" d="M121.34,149.56c-2.37,3-4.57,6.12-6.58,9.37c-1.93,3.11-4.13,6.44-5.15,9.99
						c-0.97,3.38-0.61,7.19,2.07,9.71c2.83,2.66,6.72,2.03,10.02,0.72c2.99-1.19,1.01-5.78-1.99-4.59
						c-1.71,0.68-4.08,1.49-5.18-0.49c-1.16-2.1-0.01-4.66,0.96-6.6c2.68-5.37,6.11-10.4,9.83-15.1
						C127.33,150.04,123.33,147.03,121.34,149.56z"/>
					<path class="st1" d="M121.34,149.29c-1.06,0.61-1.71,1.45-2.33,2.5c-0.79,1.35-1.57,2.71-2.35,4.06
						c-1.42,2.46-2.91,4.9-4.15,7.46c-1.92,3.94-4.65,11.45,0.33,14.34c1.1,0.64,2.32-0.95,1.2-1.6c-4.26-2.48-0.92-9.58,0.71-12.77
						c1.09-2.12,2.32-4.17,3.51-6.23c0.63-1.08,1.25-2.17,1.88-3.25c0.53-0.91,1.04-2.13,1.99-2.68
						C123.23,150.49,122.45,148.65,121.34,149.29z"/>
					<path class="st1" d="M118.44,178.14l-0.22-0.13c-0.17-0.07-0.34-0.09-0.52-0.07c-0.07,0.02-0.14,0.02-0.21,0.03
						c-0.03,0-0.07-0.01-0.1-0.01c-0.03-0.01-0.07-0.03-0.1-0.04c-0.05-0.04-0.11-0.07-0.16-0.12l0.02,0.02
						c-0.16-0.16-0.36-0.28-0.58-0.31c-0.14-0.02-0.27-0.01-0.4,0.04c-0.13,0.02-0.25,0.08-0.35,0.17
						c-0.19,0.17-0.35,0.39-0.37,0.66c-0.02,0.26,0.03,0.54,0.21,0.75c0.14,0.16,0.29,0.32,0.47,0.44c0.18,0.12,0.37,0.23,0.57,0.29
						c0.2,0.06,0.41,0.12,0.62,0.13c0.22,0.01,0.45,0.01,0.66-0.05c0.14-0.01,0.26-0.06,0.37-0.14c0.12-0.06,0.21-0.14,0.29-0.25
						c0.08-0.1,0.14-0.22,0.16-0.35c0.05-0.13,0.06-0.26,0.03-0.39C118.78,178.55,118.66,178.29,118.44,178.14z"/>
					<path d="M159.44,162.93c-2.95,1.32-5.61,3.29-7.69,5.77c-1.18,1.41-2.12,3.01-3.46,4.28c-1.15,1.09-2.78,2.9-4.24,1.3
						c-2.37-2.6-2.92-6.63-2.35-9.98c0.61-3.58,2.33-6.94,4.62-9.74c0.81-0.99-0.6-2.41-1.41-1.41c-0.1,0.12-0.19,0.24-0.28,0.36
						c-1.54-1.26-3.17-2.44-4.88-3.57c-5.27-3.5-9.82-7.83-14.32-12.24c-0.54-0.53-1.36-0.49-1.71,0.24
						c-2.45,5.07-5.93,9.52-9.44,13.89c-3.21,4-6.64,8.01-8.63,12.79c-1.9,4.56-2.07,9.68,0.25,14.12c2.21,4.24,6.42,7.8,11.46,6.99
						c3.46-0.55,7.44-2.31,9.76-5.18c0.01,3.14-0.22,6.26-0.64,9.39c-0.12,0.93,0.15,1.8,1.22,1.9c1.02,0.09,2.13-0.06,3.15-0.14
						c2.24-0.17,4.45-0.5,6.65-0.97c0.62-0.13,1.06-0.76,0.78-1.39c-1.4-3.14-2.62-6.37-3.65-9.65c6.18,4.69,16.87,2.62,19.47-5.3
						c0.59-1.82,0.63-3.7,0.31-5.56c1.74-1.74,3.76-3.15,6.06-4.19C161.62,164.13,160.61,162.41,159.44,162.93z M146.97,179.34
						c-1.95,0.84-4.15,1.07-6.24,0.74c-1.52-0.24-3.01-0.77-4.3-1.61c-0.65-0.42-1.24-0.91-1.77-1.46
						c-0.59-0.62-0.99-1.35-1.74-1.82c-0.23-0.14-0.52-0.26-0.77-0.15c-0.28,0.13-0.35,0.5-0.36,0.82
						c-0.01,0.44,0.03,0.88,0.12,1.31c0.2,0.94,0.4,1.85,0.69,2.78c0.32,1.03,0.66,2.05,1.01,3.07c0.36,1.02,0.73,2.03,1.12,3.03
						c0.1,0.26,1.08,2.96,1.2,2.93c-1.5,0.28-3.02,0.52-4.54,0.67c-0.96,0.09-1.92,0.15-2.89,0.19c0.07-0.47,0.13-0.94,0.18-1.41
						c0.24-2.06,0.38-4.13,0.42-6.2c0.03-1.83,0.1-3.74-0.25-5.55c-0.05-0.29-0.15-0.61-0.42-0.73c-0.32-0.14-0.67,0.1-0.9,0.36
						c-0.43,0.47-0.67,1.07-0.98,1.61c-0.37,0.65-0.79,1.25-1.3,1.8c-2.07,2.24-5.22,3.55-8.19,4.03
						c-4.85,0.79-8.66-3.48-10.16-7.67c-3.3-9.23,4.51-17.46,9.78-24.08c3.04-3.81,5.96-7.72,8.22-12.03
						c3.03,2.96,6.09,5.9,9.42,8.53c2.94,2.32,6.26,4.16,9.16,6.53c-3.14,4.6-5.01,10.37-3.43,15.85c0.68,2.35,2.41,6.25,5.36,6.11
						c1.37-0.06,2.47-1.01,3.46-1.87c1.27-1.1,2.27-2.33,3.26-3.68c0.13-0.18,0.27-0.35,0.41-0.52
						C152.53,174.55,150.49,177.83,146.97,179.34z"/>
				</g>
			</g>
			<path d="M102.09,86.4c0.16-0.44,0.5-1.17,0.2-1.62c-0.34-0.53-1.19-0.26-1.68-0.19c-0.7,0.11-1.4,0.28-2.08,0.49
				c-1.26,0.4-2.46,0.98-3.57,1.7c-0.25-0.56-0.56-1.09-0.98-1.56c-0.58-0.65-1.44-1.23-2.35-1.16c-0.96,0.08-1.65,0.82-2.2,1.54
				c-0.43,0.57-0.77,1.2-1.02,1.87c-0.82-0.49-1.66-0.94-2.54-1.31c-0.54-0.22-1.08-0.43-1.63-0.6c-0.48-0.15-1.01-0.36-1.51-0.34
				c-1.2,0.04-0.94,1.25-0.8,2.06c0.23,1.34,0.47,2.7,0.43,4.07c-0.04,1.35-0.47,2.64-0.69,3.97c-0.2,1.25-0.29,2.53-0.17,3.79
				c0.22,2.19,1.05,4.36,2.65,5.92c1.39,1.35,3.19,2.14,5.08,2.49c0.05,0.12,0.15,0.22,0.32,0.25c2.29,0.5,4.67,0.24,6.73-0.67
				c0.16-0.05,0.32-0.09,0.47-0.15c1.53-0.58,2.76-1.73,3.6-3.12c0.17-0.28,0.31-0.56,0.44-0.84c0.26-0.48,0.49-0.99,0.66-1.54
				c0.43-1.33,0.44-2.73,0.43-4.12c-0.01-1.53-0.03-3.06-0.19-4.58c-0.16-1.48-0.5-3.01-0.24-4.5
				C101.59,87.61,101.86,87.02,102.09,86.4z M96.92,87.47c0.99-0.45,2.02-0.8,3.08-1.05c0.15-0.02,0.3-0.03,0.46-0.04
				c-0.05,0.21-0.07,0.41-0.11,0.62c-0.15,0.28-0.3,0.55-0.4,0.84c-0.3,0.85-0.16,1.78-0.05,2.66c0.24,1.94,0.64,3.86,0.8,5.81
				c0.14,2.57-0.27,5.03-1.91,7.21c-1.25,1.66-2.96,2.61-5.03,2.92c-0.93,0.14-1.82,0.1-2.72-0.13c-0.26-0.07-0.43-0.21-0.58-0.44
				c-1.15-1.77-1.67-3.71-1.67-5.82c0-3.31,1.3-6.1,3.39-8.57C93.53,89.87,95.06,88.45,96.92,87.47z M89.7,88.35
				c0.37-1.14,0.89-2.16,1.93-2.85c0.26-0.17,0.44-0.17,0.68,0c0.69,0.49,1.18,1.15,1.45,1.94c0.2,0.59,0.1,1.14-0.42,1.59
				c-0.78,0.68-1.54,1.4-2.3,2.1c-0.26-0.6-0.68-1.25-1.2-1.84C89.56,88.97,89.58,88.7,89.7,88.35z M83.18,99.84
				c-0.46-1.98-0.35-3.95,0.06-5.92c0.4-1.88,0.65-3.78,0.51-5.71c-0.03-0.39-0.14-0.77-0.22-1.15c-0.05-0.25,0-0.38,0.29-0.32
				c1.04,0.25,2.09,0.49,2.99,1.11c1.22,0.83,2.3,1.82,3.18,3.03c0.5,0.68,0.55,1.32,0.12,2.04c-0.54,0.9-1.02,1.85-1.38,2.84
				c-1.2,3.25-1.16,6.45,0.47,9.57c0.09,0.18,0.32,0.4,0.18,0.57c-0.15,0.17-0.4,0-0.61-0.06C85.67,104.99,83.89,102.91,83.18,99.84
				z"/>
		</g>
		<g>
			<g>
				<g>
					<path d="M67.14,56.28c-2.18,0.55-3.64,2.07-3.68,4.02c-0.01,0.73,0.23,1.4,0.78,1.91c0.05,0.05,0.11,0.1,0.15,0.16
						c0.01,0.02,0.02,0.04,0.03,0.08c-0.03,0.01-0.07,0.03-0.1,0.02c-1.63-0.6-3.05-1.49-3.86-3.09c-1.15-2.25-0.96-4.46,0.34-6.6
						c0.45-0.74,1.01-1.38,1.62-2c0.93-0.95,1.85-1.89,2.79-2.83c0.2-0.2,0.27-0.41,0.21-0.69c-0.11-0.56-0.35-1.04-0.67-1.49
						c-0.11-0.16-0.24-0.31-0.35-0.47c-0.21-0.32-0.12-0.59,0.25-0.71c0.62-0.19,1.25-0.18,1.89-0.07c0.47,0.08,0.94,0.18,1.38,0.36
						c0.27,0.1,0.46,0.05,0.65-0.15c0.69-0.71,1.39-1.42,2.09-2.12c0.41-0.41,0.52-0.41,0.94-0.01c1.72,1.63,3.44,3.25,5.15,4.88
						c0.35,0.33,0.74,0.54,1.18,0.71c2.7,1.04,4.35,3.04,5.13,5.78c0.18,0.62,0.3,1.26,0.32,1.91c0.02,0.43-0.1,0.8-0.39,1.11
						c-0.36,0.37-0.55,0.81-0.71,1.3c-0.57,1.73-1.72,2.98-3.34,3.77c-2.08,1.02-4.09,0.87-6.01-0.44c-0.15-0.1-0.3-0.21-0.45-0.31
						c-0.01-0.01-0.02-0.01-0.07-0.02c-0.14,0.51,0.02,0.99,0.2,1.44c0.41,1.04,1.09,1.91,1.82,2.74c0.48,0.56,1.03,1.05,1.58,1.53
						c0.08,0.07,0.18,0.13,0.25,0.21c0.15,0.15,0.39,0.28,0.28,0.54c-0.1,0.24-0.34,0.25-0.57,0.25c-3.21,0-6.42,0-9.63,0
						c-0.21,0-0.44-0.01-0.52-0.25c-0.08-0.23,0.1-0.36,0.25-0.49c1.07-0.87,2.03-1.85,2.75-3.04c0.54-0.9,0.98-1.84,1.01-2.92
						c0.01-0.27,0.1-0.49,0.37-0.58c0.83-0.28,1.49-0.84,2.21-1.3c1.35-0.87,2.76-1.58,4.34-1.91c0.83-0.17,1.66-0.31,2.5-0.36
						c0.68-0.04,1.37-0.11,2.05-0.09c0.19,0.01,0.48,0.01,0.52-0.18c0.04-0.2-0.25-0.21-0.4-0.28c-1.71-0.78-3.5-1.33-5.23-2.06
						c-0.67-0.28-1.39-0.3-2.09-0.13c-0.68,0.17-1.24,0.5-1.59,1.19c-0.73,1.44-1.67,2.74-3,3.7c-1.01,0.73-2.1,1.25-3.38,1.26
						c-0.09,0-0.17,0-0.26-0.01c-0.77-0.11-0.93-0.41-0.56-1.08c0.55-0.97,1.13-1.92,1.69-2.89C67.05,56.5,67.15,56.42,67.14,56.28z
						 M74.95,52.89c0.62,0.02,1.29-0.16,1.96-0.35c0.43-0.12,0.46-0.18,0.21-0.56c-0.96-1.43-3.49-1.93-5.12-1.03
						c-0.5,0.28-0.53,0.51-0.08,0.88C72.77,52.55,73.75,52.91,74.95,52.89z M78.84,53.62c0-0.33-0.26-0.61-0.52-0.6
						c-0.24,0.01-0.34,0.15-0.33,0.39c0.01,0.28,0.24,0.55,0.49,0.55C78.71,53.95,78.83,53.81,78.84,53.62z"/>
				</g>
			</g>
			<g>
				<g>
					<path d="M216.32,227.18c2.18-0.55,3.64-2.07,3.68-4.02c0.01-0.73-0.23-1.4-0.78-1.91c-0.05-0.05-0.11-0.1-0.15-0.16
						c-0.01-0.02-0.02-0.04-0.03-0.08c0.03-0.01,0.07-0.03,0.1-0.02c1.63,0.6,3.05,1.49,3.86,3.09c1.15,2.25,0.96,4.46-0.34,6.6
						c-0.45,0.74-1.01,1.38-1.62,2c-0.93,0.95-1.85,1.89-2.79,2.83c-0.2,0.2-0.27,0.41-0.21,0.69c0.11,0.56,0.35,1.04,0.67,1.49
						c0.11,0.16,0.24,0.31,0.35,0.47c0.21,0.32,0.12,0.59-0.25,0.71c-0.62,0.19-1.25,0.18-1.89,0.07c-0.47-0.08-0.94-0.18-1.38-0.36
						c-0.27-0.1-0.46-0.05-0.65,0.15c-0.69,0.71-1.39,1.42-2.09,2.12c-0.41,0.41-0.52,0.41-0.94,0.01
						c-1.72-1.63-3.44-3.25-5.15-4.88c-0.35-0.33-0.74-0.54-1.18-0.71c-2.7-1.04-4.35-3.04-5.13-5.78c-0.18-0.62-0.3-1.26-0.32-1.91
						c-0.02-0.43,0.1-0.8,0.39-1.11c0.36-0.37,0.55-0.81,0.71-1.3c0.57-1.73,1.72-2.98,3.34-3.77c2.08-1.02,4.09-0.87,6.01,0.44
						c0.15,0.1,0.3,0.21,0.45,0.31c0.01,0.01,0.02,0.01,0.07,0.02c0.14-0.51-0.02-0.99-0.2-1.44c-0.41-1.04-1.09-1.91-1.82-2.74
						c-0.48-0.56-1.03-1.05-1.58-1.53c-0.08-0.07-0.18-0.13-0.25-0.21c-0.15-0.15-0.39-0.28-0.28-0.54c0.1-0.24,0.34-0.25,0.57-0.25
						c3.21,0,6.42,0,9.63,0c0.21,0,0.44,0.01,0.52,0.25c0.08,0.23-0.1,0.36-0.25,0.49c-1.07,0.87-2.03,1.85-2.75,3.04
						c-0.54,0.9-0.98,1.84-1.01,2.92c-0.01,0.27-0.1,0.49-0.37,0.58c-0.83,0.28-1.49,0.84-2.21,1.3c-1.35,0.87-2.76,1.58-4.34,1.91
						c-0.83,0.17-1.66,0.31-2.5,0.36c-0.68,0.04-1.37,0.11-2.05,0.09c-0.19-0.01-0.48-0.01-0.52,0.18c-0.04,0.2,0.25,0.21,0.4,0.28
						c1.71,0.78,3.5,1.33,5.23,2.06c0.67,0.28,1.39,0.3,2.09,0.13c0.68-0.17,1.24-0.5,1.59-1.19c0.73-1.44,1.67-2.74,3-3.7
						c1.01-0.73,2.1-1.25,3.38-1.26c0.09,0,0.17,0,0.26,0.01c0.77,0.11,0.93,0.41,0.56,1.08c-0.55,0.97-1.13,1.92-1.69,2.89
						C216.42,226.96,216.32,227.05,216.32,227.18z M208.51,230.57c-0.62-0.02-1.29,0.16-1.96,0.35c-0.43,0.12-0.46,0.18-0.21,0.56
						c0.96,1.43,3.49,1.93,5.12,1.03c0.5-0.28,0.53-0.51,0.08-0.88C210.7,230.92,209.72,230.55,208.51,230.57z M204.62,229.85
						c0,0.33,0.26,0.61,0.52,0.6c0.24-0.01,0.34-0.15,0.33-0.39c-0.01-0.28-0.24-0.55-0.49-0.55
						C204.75,229.52,204.63,229.65,204.62,229.85z"/>
				</g>
			</g>
		</g>
		<g>
			<path d="M70.86,37.71c-0.55,0-1.04-0.02-1.52-0.1c0.21,1.07,1.56,1.5,2.79,1.5c1.56,0,3.46-0.7,4.28-1.58l1.07,1.33
				c-0.94,1.19-3.03,2.66-5.2,2.66c-1.27,0-2.03-0.29-2.7-0.61c-0.66-0.29-1.23-0.61-2.07-0.61c-0.47,0-0.92,0.08-1.27,0.2
				l-0.76-1.09l2.01-2.3c-2.4-1-3.67-3.24-3.67-6.62c0-4.69,2.46-7.23,7.03-7.23s7.03,2.54,7.03,7.23S75.43,37.71,70.86,37.71z
				 M70.47,25.6c-1.78,0-2.73,1.72-2.73,4.88s1.23,4.88,3.52,4.88c1.78,0,2.73-1.72,2.73-4.88S72.76,25.6,70.47,25.6z"/>
		</g>
		<g>
			<path d="M212.29,245.75c0.55,0,1.03,0.02,1.52,0.1c-0.21-1.07-1.56-1.5-2.79-1.5c-1.56,0-3.45,0.7-4.27,1.58l-1.07-1.33
				c0.94-1.19,3.03-2.65,5.19-2.65c1.27,0,2.03,0.29,2.69,0.6c0.66,0.29,1.23,0.6,2.07,0.6c0.47,0,0.92-0.08,1.27-0.19l0.76,1.09
				l-2.01,2.3c2.4,1,3.67,3.24,3.67,6.62c0,4.68-2.46,7.22-7.03,7.22s-7.03-2.54-7.03-7.22
				C205.26,248.28,207.72,245.75,212.29,245.75z M212.68,257.85c1.78,0,2.73-1.72,2.73-4.88s-1.23-4.88-3.51-4.88
				c-1.78,0-2.73,1.72-2.73,4.88S210.39,257.85,212.68,257.85z"/>
		</g>
	</g>
</g>
</svg>
