<?xml version="1.0" encoding="utf-8"?>
<!-- Generator: Adobe Illustrator 24.0.1, SVG Export Plug-In . SVG Version: 6.00 Build 0)  -->
<svg version="1.1" xmlns="http://www.w3.org/2000/svg" xmlns:xlink="http://www.w3.org/1999/xlink" x="0px" y="0px"
	 viewBox="0 0 283.46 283.46" style="enable-background:new 0 0 283.46 283.46;" xml:space="preserve">
<style type="text/css">
	.st0{fill:#DBDDD9;}
	.st1{fill:#FFFFFF;}
	.st2{fill:none;stroke:#000000;stroke-width:3;stroke-miterlimit:10;}
	.st3{fill:#E30613;}
	.st4{fill:#894F28;}
	.st5{fill:#3E2215;}
	.st6{fill:#DEB27E;}
	.st7{opacity:0.25;fill:#312783;}
	.st8{opacity:0.53;fill:#F5F0DA;}
	.st9{fill:none;}
	.st10{fill:#EB941E;}
	.st11{fill:#1F201D;}
	.st12{fill:#E2E0DB;}
	.st13{fill:#B7B6B0;}
	.st14{fill:#2FAC66;}
	.st15{fill:#312783;}
	.st16{fill:#E94D2A;}
	.st17{fill:#F5EA61;}
	.st18{fill:#1D71B8;}
	.st19{fill:#2D3B49;}
</style>
<g id="bg">
</g>
<g id="CUT">
</g>
<g id="BACK">
</g>
<g id="ILLUSTRATION">
</g>
<g id="SYMBOLS">
</g>
<g id="CARDS">
	<g>
		<path class="st1" d="M217.23,267.73h-151c-8.01,0-14.5-6.49-14.5-14.5v-223c0-8.01,6.49-14.5,14.5-14.5h151
			c8.01,0,14.5,6.49,14.5,14.5v223C231.73,261.24,225.24,267.73,217.23,267.73z"/>
		<g>
			<g>
				<g>
					<path class="st11" d="M132.31,67.98c0.57,2.69,0.32,5.36-0.09,8.03c-0.2,1.3-0.48,2.59-0.74,3.98
						c2.37-0.85,4.01,0.27,5.57,2.04c0-1.22-0.02-2.23,0-3.23c0.09-3.25,0.85-6.31,2.6-9.1c3.17-5.06,7.74-7.38,13.64-6.68
						c5.04,0.6,8.46,3.52,10.42,8.16c1.55,3.68,1.73,7.52,1.35,11.44c-0.41,4.15-1.85,7.88-4.25,11.27
						c-1.42,2.01-3.22,3.69-4.82,5.55c-3.08,3.6-3.81,7.55-1.86,11.95c0.3,0.68,0.56,0.73,1.17,0.39c2.35-1.3,4.71-2.59,7.11-3.8
						c2.59-1.32,5.32-2.25,8.22-2.65c1.32-0.18,2.65,0.01,4-0.16c-0.38-1.39-0.81-2.73-0.94-4.14c-0.28-3.18,0.33-6.3,0.55-9.44
						c0.43-6.14,0.03-12.17-2.06-18c-1.43-3.99-3.77-7.34-7.49-9.56c-5.96-3.57-12.54-4.95-19.36-5.47
						c-2.53-0.19-5.07-0.15-7.6,0.01c-2.19,0.14-4.37,0.38-6.47,1.12c-1.83,0.65-3.43,1.65-4.88,3.07
						C129.85,63.06,131.6,64.66,132.31,67.98z"/>
					<path class="st14" d="M82.06,110.13c1.93,4.51,6.32,7.48,9.92,6.75C90.63,112.83,85.62,109.97,82.06,110.13z"/>
					<path class="st1" d="M125.85,76.71c2.03,0,2.03-3.15,0-3.15C123.83,73.56,123.82,76.71,125.85,76.71z"/>
					<path class="st14" d="M104.72,110.55c0.15-0.42-0.01-0.52-0.35-0.42c-0.65,0.19-1.29,0.39-1.93,0.63
						c-3.12,1.16-5.56,3.11-7.13,6.23c0.93-0.12,1.74-0.2,2.54-0.34C101.38,116.02,103.54,113.83,104.72,110.55z"/>
					<path class="st1" d="M118.73,87.72c3.51-2.22,7.2-4.16,10.56-6.61c0.19-0.14,0.34-0.28,0.41-0.56
						c0.89-3.68,1.63-7.38,1.27-11.19c-0.14-1.48-0.63-2.88-1.96-3.78c-1.82-1.23-4.85-0.54-6.13,1.38c-0.6,0.9-1.1,1.87-1.55,2.86
						c-1.5,3.34-2.38,6.84-2.64,10.49c-0.18,2.47-0.45,4.94-0.14,7.42C118.62,87.73,118.69,87.75,118.73,87.72z M122.92,70.59
						c0.61-1.17,1.57-1.81,2.6-1.9c1.41,0.01,2.67,1.27,2.67,2.38c0,0.14-0.02,0.27-0.15,0.35c-0.14,0.08-0.26,0.03-0.37-0.07
						c-0.06-0.06-0.12-0.11-0.18-0.17c-1.56-1.31-2.53-1.36-4.12-0.18c-0.19,0.14-0.38,0.46-0.61,0.27
						C122.48,71.05,122.81,70.8,122.92,70.59z M121.98,77.85c-0.05-1.45,0.31-2.73,1.11-3.88c0.35-0.5,0.79-0.9,1.32-1.19
						c1.56-0.85,2.87-0.38,3.54,1.28c0.92,2.26,0.32,5.54-1.29,7.07c-1.6,1.53-3.65,1.01-4.38-1.08
						C122.03,79.32,121.96,78.57,121.98,77.85z"/>
					<path class="st11" d="M149.53,155.99c-2.67,3.95-4.36,8.19-3.63,13.07c0.29,1.95,1.12,3.68,2.57,5.05
						c0.95,0.9,1.56,0.89,2.56,0.04c1.08-0.93,1.95-2.05,2.78-3.2c3-4.19,6.78-7.37,11.61-9.28c2.98-1.17,5.79-2.7,8.56-4.31
						c0.72-0.42,0.81-0.92,0.68-1.59c-0.31-1.7-0.59-3.41-0.96-5.11c-1.25-5.81-3.34-11.25-7.13-15.93
						c-0.93-1.15-1.9-2.28-3.14-3.31c-0.07,1.18-0.16,2.23-0.19,3.28c-0.05,1.55-0.3,3.07-0.77,4.55c-1.26,3.93-3.64,7.15-6.62,9.93
						C153.57,151.29,151.28,153.39,149.53,155.99z"/>
					<path class="st1" d="M162.37,201.21c2.79-4.91,3.76-10.3,3.96-15.86c0.1-2.75-0.15-5.49-0.46-8.23
						c-0.44-3.86-1.23-7.64-2.3-11.37c-0.11-0.4-0.22-0.47-0.59-0.28c-2.45,1.26-4.56,2.94-6.32,5.07
						c-1.44,1.74-2.67,3.65-4.32,5.21c-1.8,1.71-3.61,1.74-5.37,0.02c-1.01-0.99-1.7-2.18-2.23-3.47
						c-1.56-3.77-1.17-7.55,0.12-11.28c1.79-5.2,5.1-9.35,9.12-13.01c4.37-3.97,7.47-8.6,7.51-14.79c0.01-1.92-0.1-3.82-1.22-5.47
						c-1.13-1.67-2.13-3.4-2.83-5.29c-0.17-0.46-0.37-0.4-0.72-0.25c-0.97,0.41-1.95,0.8-2.93,1.19c-4.75,1.94-9.67,3.18-14.78,3.51
						c-3.53,0.23-7.07,0.01-10.54-0.79c-5.19-1.18-10.2-2.78-14.23-6.51c-0.29-0.27-0.45-0.21-0.61,0.09
						c-0.11,0.19-0.22,0.38-0.33,0.56c-2.6,4.33-4.26,9-5.01,13.98c-0.35,2.29-0.46,4.63-0.05,6.92c0.49,2.73,0.25,5.3-0.84,7.87
						c-3.63,8.58-5.64,17.56-6.33,26.83c-0.29,3.89-0.21,7.78,0.27,11.66c0.46,3.7,1.28,7.3,2.65,10.76
						c2.27,5.69,5.64,10.52,10.99,13.76c5.33,3.24,11.17,4.45,17.33,4.47c1.75,0.04,3.48-0.12,5.21-0.31
						c4.24-0.47,8.28-1.58,12.1-3.47C154.97,210.12,159.39,206.46,162.37,201.21z"/>
					<path class="st1" d="M116.5,118.87c2.03,1.63,4.29,2.84,6.71,3.77c5.89,2.24,11.96,3.08,18.22,2.17
						c4.55-0.66,8.88-2.11,13.07-3.96c3.78-1.68,7.47-3.59,11.4-4.92c3.58-1.21,7.24-1.7,10.96-0.73c3.22,0.83,5.91,2.53,7.96,5.44
						c0-0.35,0.02-0.49,0-0.62c-0.5-2.95-1.78-5.55-3.62-7.89c-2.22-2.82-5.09-4.3-8.72-4.33c-2.28-0.02-4.46,0.46-6.63,1.09
						c-3.54,1.04-6.69,2.91-9.95,4.56c-5.17,2.61-10.45,4.84-16.31,5.38c-2.73,0.25-5.42,0.17-8.09-0.47
						c-4.79-1.16-8.91-3.5-12.32-7.07c-0.29-0.31-0.45-0.44-0.77,0c-0.83,1.14-1.76,2.21-2.57,3.37
						C114.64,116.36,114.87,117.57,116.5,118.87z"/>
					<path class="st11" d="M103.61,150.04c0.28-2.01,0.57-4.03,0.87-6.04c0.35-2.41,0.69-4.83,1.08-7.24
						c0.49-3.04,1.26-6.01,2.13-8.96c-0.19-0.07-0.28,0.06-0.38,0.12c-2.13,1.28-4.38,2.02-6.9,1.5c-0.22-0.05-0.37-0.06-0.53,0.2
						c-0.57,0.9-1.47,1.33-2.46,1.6c-1.33,0.37-2.67,0.66-3.96,1.16c-0.39,0.15-0.62,0.34-0.59,0.83c0.11,1.9,0.24,3.79,0.6,5.67
						c0.37,1.95,1.09,3.79,1.77,5.64c0.22,0.59,0.09,1.08-0.52,1.35c-0.59,0.26-0.97-0.01-1.27-0.52c-0.69-1.15-1.03-2.43-1.38-3.71
						c-0.65-2.39-0.94-4.83-1.02-7.46c-0.49,0.41-0.85,0.7-1.2,1c-0.24,0.2-0.46,0.59-0.79,0.37c-0.35-0.23-0.19-0.63-0.06-0.97
						c0.8-2.03,2.25-3.34,4.32-4c1.26-0.4,2.56-0.67,3.76-1.26c1.44-0.7,1.74-1.6,0.96-2.96c-1.44-2.51-5.43-4.22-8.36-3.05
						c-3.98,1.59-5.92,5.23-6.1,9.39c-0.12,2.82,0.86,5.37,2.37,7.73c2.57,4.02,6.25,6.66,10.57,8.5c2.02,0.86,4.08,1.59,6.29,1.8
						C103.35,150.77,103.54,150.53,103.61,150.04z"/>
					<path class="st3" d="M98.78,187.67c-0.07,0.23-0.14,0.46-0.21,0.68c-1.35,4.35-2.95,8.59-5.17,12.58
						c-2.24,4.03-5.13,7.55-8.42,10.75c-0.56,0.54-0.4,0.75,0.14,1.09c1.7,1.05,3.51,1.81,5.46,2.24c2.9,0.63,4.55-0.06,6.12-2.6
						c2.2-3.54,3.75-7.36,5.01-11.32c0.2-0.64,0.15-1.19-0.07-1.8C100.24,195.55,99.4,191.67,98.78,187.67z"/>
					<path class="st3" d="M205.13,204.77c-4.45-5.71-7.61-12.09-9.66-19.03c-2.39-8.11-3.7-16.42-4.57-24.81
						c-0.44-4.24-0.8-8.5-1.15-12.75c-0.36-4.39-0.81-8.76-1.67-13.08c-0.74-3.75-1.7-7.45-3.62-10.8c-3.45-6.02-8.1-7.7-14.01-7.11
						c-3.89,0.39-7.46,1.96-10.97,3.62c-0.49,0.23-0.48,0.46-0.26,0.93c1.56,3.44,3.81,6.37,6.43,9.06
						c1.83,1.87,3.49,3.89,4.88,6.11c3.94,6.31,5.78,13.3,6.76,20.58c0.42,3.15,0.84,6.29,1.17,9.45c0.4,3.75,0.89,7.5,1.26,11.26
						c0.33,3.38,0.76,6.74,1.21,10.1c0.57,4.29,1.21,8.58,2.08,12.83c0.93,4.51,2.09,8.95,4.08,13.13c0.2,0.41,0.41,0.82,0.63,1.22
						c7.8-0.1,15.75-1.36,22.45-5.49C208.35,208.44,206.64,206.71,205.13,204.77z"/>
					<path class="st10" d="M166.91,218.93c-3.4,0.96-6.86,1.34-10.39,0.88c-0.53-0.07-0.99-0.08-1.2,0.6
						c-0.12,0.39-0.45,0.74-0.73,1.06c-1.57,1.82-3.62,3.03-5.57,4.36c-1.6,1.09-3.19,2.17-4.63,3.75c3.16,0.02,5.91,0.51,6.95,4.02
						c1.43-2.83,3.2-5.29,5.16-7.62c0.23-0.27,0.52-0.83,0.86-0.59c0.43,0.29-0.06,0.74-0.24,1.04c-1.21,2.15-2.48,4.27-3.71,6.4
						c-0.19,0.32-0.47,0.63-0.42,1.12c1.88-0.86,3.75-1.44,5.78-1.45c2-0.01,3.92,0.21,5.36,1.83c1.32-1.75,2.87-5.44,3.54-8.34
						c0.5-2.16,0.74-4.33,0.19-6.52C167.71,218.92,167.55,218.75,166.91,218.93z"/>
					<path class="st11" d="M179.76,196.71c-0.61-3.3-1.1-6.63-1.52-9.96c-0.37-2.91-0.76-5.81-1.09-8.73
						c-0.32-2.89-0.54-5.79-0.86-8.68c-0.34-3.05-0.75-6.09-1.1-9.13c-0.13-1.12-0.14-1.15-1.08-0.62c-2.83,1.6-5.64,3.23-8.65,4.46
						c-0.57,0.24-0.63,0.45-0.45,1.02c1.43,4.61,2.5,9.31,2.94,14.12c0.36,3.99,0.34,7.99-0.28,11.97
						c-0.65,4.13-1.89,8.04-4.04,11.65c-3.16,5.31-7.9,8.8-13.28,11.56c-0.78,0.4-1.59,0.75-2.54,1.2c0.73,0.21,1.29,0.36,1.84,0.54
						c2.59,0.82,5.21,1.49,7.92,1.68c2.56,0.18,5.11-0.05,7.61-0.63c6.91-1.58,12.25-5.37,15.97-11.42
						c0.19-0.31,0.24-0.59,0.16-0.99C180.75,202.08,180.25,199.4,179.76,196.71z"/>
					<path class="st10" d="M132.23,218.32c-3.41,0.07-6.81-0.12-10.09-1.07c-1.48-0.43-2.69-0.4-4.15,0.19
						c-2.7,1.08-5.54,1.78-8.31,2.69c-1.53,0.5-3.02,1.1-4.55,2.12c1.19-0.06,2.1,0.14,2.93,0.64c0.94,0.57,1.15,1.5,1.21,2.57
						c0.16-0.11,0.24-0.16,0.32-0.22c2.29-1.66,4.67-3.17,7.24-4.36c0.64-0.3,1.28-0.59,2-0.61c0.13,0,0.28-0.04,0.34,0.13
						c0.05,0.15-0.02,0.26-0.14,0.35c-0.13,0.09-0.26,0.19-0.4,0.27c-1.9,1.11-3.72,2.33-5.53,3.59c-0.97,0.67-1.96,1.32-2.96,2.25
						c2.07-0.24,3.95-0.47,5.85-0.19c1.95,0.29,3.81,0.7,4.8,2.77c0.9-0.95,1.84-1.82,2.84-2.61c2.16-1.7,4.54-3.07,6.77-4.67
						c0.97-0.7,1.97-1.38,2.6-2.44C133.56,218.79,133.28,218.3,132.23,218.32z"/>
					<path class="st10" d="M122.4,91.14c3.48,0.28,6.94,0.27,10.37-0.51c2.61-0.59,5.08-1.46,7.29-3.02
						c0.51-0.36,0.55-0.7,0.13-1.12c-0.19-0.19-0.39-0.4-0.62-0.53c-1.75-0.99-3.23-2.3-4.62-3.72c-1.22-1.24-2.51-1.36-3.96-0.42
						c-1.14,0.74-2.23,1.54-3.36,2.3c-2.86,1.91-5.96,3.46-8.73,5.52c-0.63,0.47-1.21,0.99-1.57,1.74c0.34,0.12,0.64,0.1,0.92,0.03
						C119.63,91.07,121.02,91.03,122.4,91.14z M132.22,86.03c0.48-0.25,0.99-0.42,1.52-0.54c0.3-0.07,0.49-0.01,0.62,0.22
						c0.16,0.28,0.02,0.54-0.21,0.71c-0.49,0.36-1.07,0.49-1.6,0.6c-0.34-0.02-0.64-0.04-0.73-0.36
						C131.75,86.36,131.95,86.17,132.22,86.03z"/>
					<path class="st1" d="M119.99,109.01c-0.23,0.37-0.03,0.55,0.16,0.77c0.9,1.02,1.89,1.96,2.98,2.79
						c5.29,4.03,11.3,5.22,17.77,4.38c4.01-0.52,7.74-1.99,11.35-3.76c0.5-0.25,0.58-0.5,0.36-1.01c-0.64-1.44-1.04-2.97-1.16-4.54
						c-0.24-3.2,0.75-6.04,2.63-8.61c1.38-1.9,3.06-3.55,4.51-5.38c2.67-3.38,4.23-7.21,4.67-11.5c0.32-3.12,0.18-6.18-0.87-9.16
						c-3.07-8.72-12.9-10.2-18.7-5.19c-4.12,3.56-5.53,8.27-5.13,13.64c0.13,1.68,0.73,2.73,2.2,3.63c2.3,1.41,2.57,3.25,1.2,5.59
						c-0.53,0.91-1.23,1.67-2,2.36c-2.94,2.63-6.39,3.53-10.26,3.08c-2.53-0.29-4.88-1.16-7.22-2.1c-1.04-0.42-2.07-0.78-3.28-0.5
						c0.47,1.44,0.95,2.87,1.41,4.31C121.83,101.62,122.23,105.39,119.99,109.01z M147.48,69.84c2.45-1.82,6.4-0.27,7.03,2.72
						c0.04,0.19,0.11,0.41-0.07,0.52c-0.19,0.12-0.35-0.03-0.49-0.17c-0.31-0.31-0.61-0.62-0.92-0.92c-1.52-1.48-3.32-1.76-5.2-0.81
						c-0.5,0.26-1,0.52-1.59,0.84C146.1,70.84,146.83,70.32,147.48,69.84z M145.76,75.54c0.78-2.13,3.83-3.84,6.05-1.92
						c0.92,0.8,1.48,1.86,1.55,3.05c0.13,2.19-0.3,4.27-1.83,5.97c-0.66,0.73-1.46,1.23-2.42,1.11c-1.52,0.07-2.52-0.59-3.11-1.89
						C145.06,79.79,144.99,77.65,145.76,75.54z"/>
					<path class="st1" d="M149.98,77.96c2.03,0,2.03-3.15,0-3.15C147.96,74.81,147.95,77.96,149.98,77.96z"/>
					<path class="st10" d="M123.92,92.82c1.16,0.59,2.37,1,3.61,1.32c3.94,1.03,7.64,0.67,10.9-1.97c1.09-0.88,2.08-1.87,2.57-3.37
						C135.69,92.07,129.92,92.89,123.92,92.82z"/>
					<path class="st11" d="M211.3,207.56c-1.64-1.56-3.14-3.27-4.5-5.07c-5.65-7.48-8.84-16.02-10.84-25.08
						c-0.84-3.81-1.52-7.65-2-11.52c-0.37-2.99-0.76-5.98-1.1-8.97c-0.27-2.4-0.44-4.82-0.7-7.22c-0.34-3.1-0.74-6.2-1.1-9.3
						c-0.36-3.04-0.89-6.05-1.58-9.03c-0.37-1.61-0.95-3.18-1.18-4.8c-0.4-2.87-0.67-5.76-1.52-8.55
						c-1.53-5.02-4.08-9.28-8.89-11.83c-0.21-0.11-0.34-0.26-0.42-0.47c-0.82-2.22-1.52-4.45-1.49-6.87
						c0.04-2.54,0.42-5.04,0.55-7.57c0.2-3.92,0.27-7.83-0.35-11.73c-0.85-5.34-2.72-10.14-6.3-14.09
						c-3.08-1.93-6.11-4.14-9.45-5.54c-3.54-1.48-7.4-2.33-11.21-2.66c-3.63-0.31-7.36-0.33-11-0.35c-3.24-0.02-6.58,0.18-9.4,1.94
						c-0.49,0.3-0.96,0.41-1.4,0.37c-3.49,2.08-5.97,5.11-7.59,8.89c-2.84,6.61-3.8,13.54-3.27,20.7c0.03,0.38-0.05,0.66-0.3,0.96
						c-0.56,0.67-1.08,1.37-1.58,2.08c-0.38,0.54-0.21,0.98,0.38,1.23c0.47,0.2,0.97,0.34,1.49,0.35c0.32,0,0.57,0.02,0.71,0.47
						c0.57,1.92,1.23,3.81,1.84,5.71c0.85,2.66,0.87,5.27-0.49,7.8c-0.87,1.61-2.05,3-3.18,4.43c-1.01,1.27-2.17,2.5-2.49,4.14
						c-0.17,0.86-0.59,1.54-1,2.26c-0.63,1.11-1.27,2.21-1.88,3.33c-0.57,1.05-1.2,2.07-2,2.96c-1.72,1.91-3.77,3.17-6.46,3.1
						c-0.73-0.02-1.25-0.24-1.53-1.02c-0.88-2.41-2.72-3.86-4.99-4.86c-1.51-0.66-1.48-0.65-0.95-2.3c0.21-0.64,0.49-0.88,1.19-0.92
						c1.81-0.09,3.64-0.17,5.33-0.94c2.94-1.33,4.58-3.81,5.78-6.66c0.21-0.5,0.44-0.99,0.49-1.54c0.06-0.69-0.43-1.17-1.1-1.06
						c-0.77,0.13-1.55,0.26-2.3,0.48c-3.19,0.92-6.12,2.26-7.99,5.21c-0.07,0.11-0.19,0.18-0.33,0.31c0.09-0.92,0.18-1.83,0.27-2.74
						c-0.18,0.04-0.37,0.06-0.58,0.06c-0.47,0-0.86-0.12-1.2-0.31c-0.17,1.34-0.39,2.7-0.58,4.1c-0.2-0.37-0.3-0.55-0.4-0.74
						c-1.58-2.79-3.72-4.9-6.92-5.79c-2.09-0.59-4.21-0.43-6.32-0.44c-0.32,0-0.67,0.12-0.81,0.46c-0.17,0.39,0.05,0.7,0.32,0.94
						c1.22,1.11,2.13,2.46,3.02,3.84c1.47,2.27,3.56,3.68,6.14,4.42c1.23,0.35,2.5,0.44,3.76,0.65c0.17,0.03,0.49-0.09,0.45,0.19
						c-0.09,0.61-0.21,1.24-0.45,1.8c-0.14,0.33-0.62,0.26-0.96,0.28c-1.56,0.11-2.95,0.65-4.23,1.51
						c-4.11,2.77-6.13,8.44-4.87,13.56c1.19,4.89,4.08,8.6,8.08,11.47c3.86,2.78,8.17,4.54,12.93,5.07c0.61,0.07,0.46,0.34,0.35,0.7
						c-1.42,4.86-2.58,9.78-3.38,14.78c-0.44,2.76-0.87,5.52-1.05,8.31c-0.1,1.49-0.1,3.01-0.4,4.47
						c-0.98,4.64-2.47,9.13-4.37,13.48c-2.44,5.57-5.52,10.72-10.04,14.9c-0.62,0.57-1.26,1.12-1.87,1.71
						c-0.93,0.9-0.91,1.71,0.1,2.53c0.52,0.43,1.09,0.83,1.68,1.15c2.4,1.29,4.92,2.33,7.64,2.58c2.51,0.22,4.96-0.16,6.69-2.34
						c0.13-0.16,0.29-0.25,0.46-0.31c1.38-0.49,2.79-0.85,4.24-1.06c2.76-0.4,5.53-0.28,8.31-0.22c2.53,0.06,4.36,1.56,6.65,2.37
						c-1.3,0.62-2.53,0.94-3.75,1.28c-3.76,1.06-7.45,2.28-10.85,4.25c-0.68,0.4-1.35,0.81-1.88,1.42
						c-0.29,0.34-0.43,0.72-0.26,1.13c0.16,0.37,0.54,0.38,0.9,0.43c1.28,0.16,2.56,0.02,3.84,0.09c1.55,0.08,2.02,0.91,1.25,2.26
						c-0.35,0.61-0.78,1.17-1.15,1.77c-0.2,0.32-0.25,0.68-0.03,1c0.24,0.35,0.62,0.3,0.97,0.23c0.32-0.06,0.63-0.16,0.95-0.22
						c2.26-0.46,4.51-1.01,6.84-0.87c2.05,0.12,4.07,0.37,4.71,2.87c0.19,0.74,0.79,0.87,1.42,0.66c0.31-0.11,0.59-0.39,0.83-0.64
						c1.54-1.56,3.22-2.93,4.99-4.21c2.12-1.52,4.4-2.8,6.41-4.48c1.29-1.08,2.48-2.25,2.39-4.13c-0.02-0.43,0.25-0.4,0.53-0.4
						c0.98,0,1.95-0.14,2.92-0.28c1.61-0.23,3.21-0.55,4.83-0.68c3.61-0.29,6.86,1.16,10.24,2.21c-0.55,0.86-1.2,1.5-1.9,2.11
						c-2.03,1.74-4.32,3.11-6.49,4.66c-1.65,1.18-3.16,2.51-4.2,4.29c-0.53,0.91-0.16,1.49,0.87,1.45c1.28-0.05,2.55-0.23,3.83-0.18
						c1.69,0.07,2.93,0.97,3.47,2.57c0.22,0.65,0.28,1.32,0.32,2c0.04,0.96,0.52,1.21,1.34,0.76c0.5-0.27,0.98-0.58,1.47-0.87
						c2.22-1.34,4.59-2.05,7.21-1.84c1.28,0.11,2.44,0.53,3.12,1.65c1.06,1.78,1.55,1,2.41-0.01c0.05-0.06,0.09-0.14,0.13-0.21
						c2.03-3.03,3.26-6.4,4.09-9.92c0.58-2.47,0.95-4.97,0.01-7.45c-0.08-0.2-0.02-0.33,0.15-0.38c0.98-0.28,1.81-0.89,2.91-0.9
						c6.98-0.08,13.83,2.11,20.82,1.62c3.86-0.27,7.66-1.19,11.27-2.55c1.87-0.7,3.69-1.53,5.45-2.47c1.12-0.59,3.26-0.9,3.74-2.18
						c0.01-0.02,0.02-0.04,0.02-0.07C214.57,209.7,212.37,208.58,211.3,207.56z M102.44,110.76c0.63-0.24,1.28-0.44,1.93-0.63
						c0.35-0.1,0.51-0.01,0.35,0.42c-1.19,3.28-3.34,5.47-6.87,6.1c-0.8,0.14-1.61,0.22-2.54,0.34
						C96.88,113.88,99.32,111.93,102.44,110.76z M82.06,110.13c3.56-0.15,8.57,2.7,9.92,6.75
						C88.39,117.61,83.99,114.64,82.06,110.13z M131.27,59.67c2.09-0.75,4.27-0.98,6.47-1.12c2.53-0.17,5.06-0.21,7.6-0.01
						c6.82,0.52,13.4,1.91,19.36,5.47c3.72,2.23,6.06,5.57,7.49,9.56c2.09,5.83,2.49,11.86,2.06,18c-0.22,3.14-0.83,6.26-0.55,9.44
						c0.12,1.41,0.56,2.75,0.94,4.14c-1.35,0.17-2.67-0.02-4,0.16c-2.91,0.4-5.63,1.33-8.22,2.65c-2.4,1.22-4.75,2.51-7.11,3.8
						c-0.61,0.34-0.87,0.28-1.17-0.39c-1.95-4.4-1.22-8.35,1.86-11.95c1.59-1.86,3.39-3.54,4.82-5.55c2.4-3.39,3.84-7.12,4.25-11.27
						c0.38-3.92,0.2-7.77-1.35-11.44c-1.96-4.64-5.38-7.57-10.42-8.16c-5.9-0.7-10.47,1.63-13.64,6.68c-1.75,2.79-2.51,5.85-2.6,9.1
						c-0.03,1.01,0,2.02,0,3.23c-1.56-1.77-3.19-2.89-5.57-2.04c0.26-1.39,0.54-2.68,0.74-3.98c0.41-2.67,0.66-5.34,0.09-8.03
						c-0.7-3.32-2.46-4.92-5.91-5.24C127.84,61.32,129.44,60.32,131.27,59.67z M118.69,80.31c0.26-3.66,1.14-7.15,2.64-10.49
						c0.45-0.99,0.95-1.95,1.55-2.86c1.28-1.93,4.31-2.61,6.13-1.38c1.33,0.9,1.82,2.3,1.96,3.78c0.36,3.81-0.38,7.51-1.27,11.19
						c-0.07,0.28-0.22,0.42-0.41,0.56c-3.36,2.45-7.05,4.39-10.56,6.61c-0.04,0.02-0.1,0.01-0.17,0.01
						C118.25,85.25,118.52,82.78,118.69,80.31z M118.26,91.4c-0.28,0.07-0.58,0.09-0.92-0.03c0.36-0.75,0.94-1.27,1.57-1.74
						c2.77-2.06,5.87-3.6,8.73-5.52c1.13-0.75,2.22-1.56,3.36-2.3c1.45-0.94,2.74-0.82,3.96,0.42c1.4,1.42,2.88,2.73,4.62,3.72
						c0.23,0.13,0.43,0.34,0.62,0.53c0.42,0.42,0.38,0.76-0.13,1.12c-2.21,1.55-4.68,2.42-7.29,3.02
						c-3.43,0.78-6.89,0.78-10.37,0.51C121.02,91.03,119.63,91.07,118.26,91.4z M141.01,88.81c-0.49,1.5-1.48,2.49-2.57,3.37
						c-3.27,2.64-6.97,2.99-10.9,1.97c-1.24-0.32-2.44-0.74-3.61-1.32C129.92,92.89,135.69,92.07,141.01,88.81z M119.2,93.49
						c1.21-0.28,2.24,0.08,3.28,0.5c2.33,0.94,4.69,1.81,7.22,2.1c3.87,0.45,7.33-0.45,10.26-3.08c0.77-0.69,1.47-1.45,2-2.36
						c1.36-2.34,1.09-4.18-1.2-5.59c-1.47-0.9-2.07-1.95-2.2-3.63c-0.4-5.37,1.01-10.08,5.13-13.64c5.8-5.01,15.63-3.54,18.7,5.19
						c1.05,2.98,1.19,6.04,0.87,9.16c-0.44,4.3-2,8.13-4.67,11.5c-1.45,1.84-3.13,3.48-4.51,5.38c-1.87,2.57-2.87,5.4-2.63,8.61
						c0.12,1.58,0.52,3.1,1.16,4.54c0.23,0.51,0.15,0.77-0.36,1.01c-3.61,1.77-7.34,3.24-11.35,3.76
						c-6.47,0.85-12.48-0.34-17.77-4.38c-1.09-0.83-2.08-1.76-2.98-2.79c-0.19-0.22-0.39-0.4-0.16-0.77
						c2.23-3.62,1.84-7.4,0.62-11.21C120.15,96.36,119.68,94.93,119.2,93.49z M115.84,114.65c0.81-1.16,1.74-2.23,2.57-3.37
						c0.32-0.44,0.47-0.3,0.77,0c3.41,3.57,7.53,5.9,12.32,7.07c2.67,0.65,5.37,0.72,8.09,0.47c5.85-0.54,11.14-2.77,16.31-5.38
						c3.26-1.64,6.42-3.52,9.95-4.56c2.16-0.64,4.35-1.11,6.63-1.09c3.63,0.03,6.49,1.51,8.72,4.33c1.84,2.34,3.12,4.94,3.62,7.89
						c0.02,0.13,0,0.27,0,0.62c-2.05-2.91-4.74-4.61-7.96-5.44c-3.72-0.96-7.38-0.48-10.96,0.73c-3.93,1.33-7.61,3.24-11.4,4.92
						c-4.2,1.86-8.52,3.31-13.07,3.96c-6.26,0.9-12.33,0.07-18.22-2.17c-2.42-0.92-4.68-2.14-6.71-3.77
						C114.87,117.57,114.64,116.36,115.84,114.65z M102.78,150.72c-2.21-0.21-4.27-0.94-6.29-1.8c-4.32-1.84-8-4.48-10.57-8.5
						c-1.51-2.35-2.49-4.91-2.37-7.73c0.18-4.16,2.12-7.8,6.1-9.39c2.93-1.17,6.92,0.54,8.36,3.05c0.78,1.36,0.48,2.25-0.96,2.96
						c-1.2,0.58-2.5,0.85-3.76,1.26c-2.08,0.66-3.53,1.97-4.32,4c-0.13,0.33-0.29,0.74,0.06,0.97c0.33,0.22,0.56-0.17,0.79-0.37
						c0.35-0.3,0.71-0.59,1.2-1c0.09,2.64,0.37,5.08,1.02,7.46c0.35,1.28,0.69,2.56,1.38,3.71c0.3,0.51,0.68,0.78,1.27,0.52
						c0.62-0.27,0.74-0.75,0.52-1.35c-0.68-1.85-1.4-3.69-1.77-5.64c-0.35-1.88-0.49-3.77-0.6-5.67c-0.03-0.49,0.2-0.68,0.59-0.83
						c1.29-0.5,2.64-0.79,3.96-1.16c0.99-0.27,1.89-0.7,2.46-1.6c0.16-0.26,0.31-0.24,0.53-0.2c2.52,0.52,4.77-0.22,6.9-1.5
						c0.11-0.06,0.19-0.19,0.38-0.12c-0.87,2.95-1.65,5.92-2.13,8.96c-0.38,2.41-0.73,4.82-1.08,7.24
						c-0.29,2.01-0.58,4.02-0.87,6.04C103.54,150.53,103.35,150.77,102.78,150.72z M101.71,201.09c-1.26,3.96-2.81,7.78-5.01,11.32
						c-1.57,2.54-3.22,3.23-6.12,2.6c-1.95-0.42-3.76-1.18-5.46-2.24c-0.54-0.33-0.7-0.54-0.14-1.09c3.29-3.2,6.18-6.72,8.42-10.75
						c2.22-3.99,3.82-8.23,5.17-12.58c0.07-0.23,0.14-0.46,0.21-0.68c0.62,4,1.46,7.87,2.85,11.62
						C101.86,199.9,101.91,200.45,101.71,201.09z M133,219.72c-0.63,1.05-1.63,1.74-2.6,2.44c-2.23,1.6-4.61,2.97-6.77,4.67
						c-1.01,0.79-1.94,1.66-2.84,2.61c-0.99-2.06-2.85-2.48-4.8-2.77c-1.9-0.28-3.78-0.05-5.85,0.19c0.99-0.94,1.99-1.58,2.96-2.25
						c1.81-1.25,3.64-2.47,5.53-3.59c0.14-0.08,0.27-0.18,0.4-0.27c0.12-0.08,0.19-0.2,0.14-0.35c-0.06-0.17-0.21-0.14-0.34-0.13
						c-0.72,0.02-1.37,0.31-2,0.61c-2.57,1.19-4.95,2.7-7.24,4.36c-0.08,0.06-0.17,0.12-0.32,0.22c-0.06-1.07-0.28-2-1.21-2.57
						c-0.83-0.5-1.74-0.7-2.93-0.64c1.53-1.02,3.02-1.62,4.55-2.12c2.77-0.9,5.62-1.61,8.31-2.69c1.46-0.58,2.67-0.61,4.15-0.19
						c3.28,0.95,6.68,1.14,10.09,1.07C133.28,218.3,133.56,218.79,133,219.72z M137.52,216.21c-1.73,0.19-3.47,0.35-5.21,0.31
						c-6.15-0.02-12-1.23-17.33-4.47c-5.34-3.25-8.72-8.07-10.99-13.76c-1.38-3.46-2.19-7.06-2.65-10.76
						c-0.49-3.88-0.56-7.78-0.27-11.66c0.69-9.27,2.7-18.25,6.33-26.83c1.08-2.56,1.33-5.14,0.84-7.87
						c-0.41-2.29-0.3-4.63,0.05-6.92c0.75-4.98,2.41-9.65,5.01-13.98c0.11-0.19,0.22-0.37,0.33-0.56c0.17-0.3,0.32-0.36,0.61-0.09
						c4.03,3.73,9.04,5.33,14.23,6.51c3.47,0.79,7.01,1.02,10.54,0.79c5.11-0.33,10.04-1.58,14.78-3.51
						c0.98-0.4,1.96-0.78,2.93-1.19c0.34-0.15,0.54-0.21,0.72,0.25c0.7,1.89,1.71,3.62,2.83,5.29c1.12,1.66,1.23,3.55,1.22,5.47
						c-0.03,6.18-3.14,10.81-7.51,14.79c-4.02,3.65-7.33,7.81-9.12,13.01c-1.29,3.73-1.68,7.51-0.12,11.28
						c0.53,1.29,1.22,2.48,2.23,3.47c1.76,1.71,3.57,1.69,5.37-0.02c1.65-1.57,2.88-3.48,4.32-5.21c1.76-2.13,3.87-3.81,6.32-5.07
						c0.37-0.19,0.47-0.11,0.59,0.28c1.06,3.73,1.85,7.51,2.3,11.37c0.32,2.74,0.56,5.48,0.46,8.23c-0.2,5.56-1.17,10.95-3.96,15.86
						c-2.97,5.24-7.4,8.9-12.75,11.53C145.8,214.63,141.76,215.75,137.52,216.21z M162.46,139.25c0.48-1.48,0.72-3,0.77-4.55
						c0.04-1.05,0.12-2.1,0.19-3.28c1.24,1.03,2.21,2.16,3.14,3.31c3.79,4.67,5.88,10.12,7.13,15.93c0.36,1.69,0.65,3.4,0.96,5.11
						c0.12,0.68,0.04,1.17-0.68,1.59c-2.77,1.61-5.58,3.14-8.56,4.31c-4.83,1.9-8.61,5.09-11.61,9.28c-0.82,1.15-1.7,2.27-2.78,3.2
						c-0.99,0.85-1.61,0.86-2.56-0.04c-1.45-1.37-2.28-3.1-2.57-5.05c-0.73-4.89,0.97-9.12,3.63-13.07c1.75-2.6,4.04-4.69,6.32-6.81
						C158.82,146.4,161.19,143.18,162.46,139.25z M167.66,226c-0.68,2.9-2.23,6.6-3.54,8.34c-1.44-1.62-3.35-1.84-5.36-1.83
						c-2.02,0.01-3.9,0.59-5.78,1.45c-0.05-0.49,0.24-0.8,0.42-1.12c1.23-2.14,2.49-4.26,3.71-6.4c0.17-0.3,0.67-0.75,0.24-1.04
						c-0.34-0.23-0.63,0.33-0.86,0.59c-1.96,2.33-3.74,4.79-5.16,7.62c-1.04-3.51-3.79-3.99-6.95-4.02
						c1.44-1.58,3.03-2.67,4.63-3.75c1.95-1.33,4.01-2.54,5.57-4.36c0.28-0.33,0.61-0.67,0.73-1.06c0.21-0.68,0.67-0.67,1.2-0.6
						c3.53,0.46,6.99,0.08,10.39-0.88c0.64-0.18,0.8-0.01,0.94,0.55C168.4,221.67,168.16,223.83,167.66,226z M181.14,205.75
						c-3.72,6.05-9.06,9.83-15.97,11.42c-2.5,0.57-5.05,0.8-7.61,0.63c-2.71-0.19-5.34-0.86-7.92-1.68
						c-0.55-0.17-1.11-0.32-1.84-0.54c0.95-0.45,1.76-0.8,2.54-1.2c5.38-2.76,10.12-6.25,13.28-11.56
						c2.15-3.61,3.39-7.52,4.04-11.65c0.62-3.98,0.64-7.98,0.28-11.97c-0.44-4.81-1.51-9.51-2.94-14.12
						c-0.18-0.57-0.12-0.78,0.45-1.02c3.01-1.23,5.82-2.87,8.65-4.46c0.94-0.53,0.95-0.5,1.08,0.62c0.35,3.05,0.77,6.08,1.1,9.13
						c0.32,2.89,0.54,5.79,0.86,8.68c0.33,2.91,0.72,5.82,1.09,8.73c0.42,3.33,0.91,6.66,1.52,9.96c0.5,2.69,0.99,5.37,1.54,8.05
						C181.38,205.15,181.33,205.44,181.14,205.75z M187.73,215.5c-0.22-0.4-0.43-0.81-0.63-1.22c-2-4.18-3.15-8.62-4.08-13.13
						c-0.87-4.25-1.51-8.54-2.08-12.83c-0.45-3.36-0.88-6.73-1.21-10.1c-0.36-3.76-0.86-7.5-1.26-11.26
						c-0.33-3.16-0.75-6.3-1.17-9.45c-0.98-7.28-2.81-14.27-6.76-20.58c-1.39-2.23-3.06-4.24-4.88-6.11
						c-2.62-2.69-4.88-5.62-6.43-9.06c-0.21-0.47-0.22-0.7,0.26-0.93c3.51-1.66,7.08-3.23,10.97-3.62
						c5.91-0.59,10.56,1.09,14.01,7.11c1.92,3.35,2.88,7.05,3.62,10.8c0.85,4.32,1.31,8.69,1.67,13.08
						c0.34,4.25,0.7,8.51,1.15,12.75c0.87,8.39,2.18,16.7,4.57,24.81c2.05,6.93,5.21,13.31,9.66,19.03
						c1.51,1.94,3.21,3.66,5.05,5.24C203.48,214.15,195.53,215.4,187.73,215.5z"/>
					<path class="st11" d="M149.1,83.76c0.97,0.12,1.77-0.38,2.42-1.11c1.53-1.7,1.96-3.78,1.83-5.97
						c-0.07-1.18-0.62-2.25-1.55-3.05c-2.21-1.92-5.27-0.21-6.05,1.92c-0.77,2.11-0.7,4.25,0.23,6.33
						C146.58,83.17,147.57,83.82,149.1,83.76z M149.98,74.81c2.03,0,2.03,3.15,0,3.15C147.95,77.96,147.96,74.81,149.98,74.81z"/>
					<path class="st11" d="M147.83,71.18c1.88-0.96,3.68-0.68,5.2,0.81c0.31,0.3,0.61,0.61,0.92,0.92c0.14,0.14,0.3,0.3,0.49,0.17
						c0.18-0.12,0.11-0.34,0.07-0.52c-0.63-2.99-4.58-4.54-7.03-2.72c-0.65,0.48-1.38,1-1.25,2.18
						C146.83,71.7,147.32,71.43,147.83,71.18z"/>
					<path class="st11" d="M126.67,81.13c1.61-1.53,2.2-4.81,1.29-7.07c-0.67-1.65-1.98-2.13-3.54-1.28
						c-0.53,0.29-0.98,0.69-1.32,1.19c-0.8,1.15-1.16,2.44-1.11,3.88c-0.03,0.72,0.05,1.46,0.3,2.2
						C123.02,82.14,125.07,82.65,126.67,81.13z M125.85,73.56c2.03,0,2.03,3.15,0,3.15C123.82,76.71,123.83,73.56,125.85,73.56z"/>
					<path class="st11" d="M123.37,71c1.59-1.17,2.57-1.13,4.12,0.18c0.06,0.05,0.12,0.11,0.18,0.17c0.11,0.1,0.23,0.15,0.37,0.07
						c0.14-0.08,0.16-0.21,0.15-0.35c0-1.11-1.26-2.37-2.67-2.38c-1.03,0.09-1.99,0.73-2.6,1.9c-0.11,0.21-0.44,0.46-0.16,0.69
						C123,71.46,123.18,71.14,123.37,71z"/>
					<path class="st11" d="M132.55,87.03c0.52-0.11,1.1-0.24,1.6-0.6c0.24-0.17,0.37-0.43,0.21-0.71c-0.13-0.23-0.32-0.29-0.62-0.22
						c-0.53,0.12-1.04,0.29-1.52,0.54c-0.26,0.14-0.47,0.33-0.39,0.64C131.91,86.98,132.21,87.01,132.55,87.03z"/>
				</g>
				<path class="st7" d="M180.95,198.99c-0.68-5.93-1.41-11.85-2.19-17.77c-0.8-6.12-1.66-12.22-2.57-18.33
					c0.4-0.33,0.64-0.79,0.55-1.43c-0.13-1.05-0.72-1.55-1.45-1.7c0.35-0.71-0.16-1.76-1.09-1.43c-4.37,1.59-8.32,4.01-12.01,6.81
					c-1.8,1.36-3.71,2.78-5.37,4.41c-0.73-0.2-1.33,0.57-1.17,1.24c-0.68,0.79-1.28,1.63-1.78,2.54c-0.96,0.82-1.9,1.66-2.79,2.56
					c-0.22,0.22-0.31,0.47-0.3,0.7c-1.79-0.09-3.69-1.12-3.39-3.18c0.19-1.26-1.74-1.8-1.93-0.53c-0.29,2,0.59,3.83,2.29,4.92
					c1.87,1.2,4.22,0.98,6.18,0.13c1.69-0.74,3.05-1.95,4.33-3.24c0.11,0.33,0.22,0.65,0.32,0.96c0.55,1.7,0.92,3.46,1.09,5.24
					c0.31,3.26,0,6.56-0.89,9.72c-1.74,6.15-5.77,11.41-11.11,14.88c-11.2,7.29-26.24,5.56-36.06-3.34
					c-5.42-4.91-9-11.54-10.44-18.68c-0.25-1.26-2.18-0.73-1.93,0.53c0.51,2.55,1.3,5.02,2.33,7.36c-0.04,0.05-0.07,0.1-0.1,0.15
					c-0.29,0.2-0.45,0.55-0.27,1c0.24,0.61,0.51,1.2,0.77,1.8c-0.26,0.21-0.4,0.54-0.27,0.97c2.16,6.74,6.6,12.64,12.54,16.51
					c3.01,1.96,6.34,3.32,9.81,4.09c3.59,1,7.37,1.24,11.07,0.55c0.16,0.28,0.43,0.48,0.82,0.44c1.47-0.13,2.88-0.42,4.27-0.89
					c2.19-0.51,4.36-1.11,6.48-1.85c0.01,0.19,0.07,0.37,0.16,0.52c-0.05-0.01-0.09-0.02-0.14-0.02c-1.26-0.24-1.8,1.69-0.53,1.93
					c10.18,1.9,21.82,2.87,30.48-3.97c1.85-1.46,3.47-3.3,4.26-5.54C181.85,204.51,181.25,201.65,180.95,198.99z M165.16,168.97
					c-0.03-0.11-0.08-0.19-0.13-0.27c0.14-0.1,0.27-0.2,0.41-0.29c1.85-1.27,3.81-2.37,5.83-3.34c0.43,4.27,0.87,8.54,1.3,12.81
					c0.5,4.89,1.22,9.86,0.9,14.79c-0.28,4.29-1.55,8.76-4.57,11.95c-2.77,2.92-6.64,4.4-10.5,5.22c-1.22,0.26-2.59,0.39-3.96,0.57
					c1.04-0.7,2.05-1.46,3-2.33c2.94-2.71,5.6-6.34,7.21-10.01c1.2-2.72,1.51-5.68,1.6-8.65
					C167.15,182.59,166.81,175.68,165.16,168.97z"/>
				<path class="st7" d="M168.64,218.98c-0.06-0.99-1.42-1.34-1.86-0.51c-0.38-0.65-1.16-0.71-1.62-0.19
					c-0.1-0.02-0.2-0.06-0.32-0.06c-0.51-0.02-0.87,0.25-1.09,0.63c0,0,0,0,0,0c-0.24-0.01-0.48,0.05-0.71,0.14
					c-0.61,0.01-1.22,0.04-1.83,0.08c-0.16-0.02-0.32-0.05-0.49-0.07c-1.8-0.2-4.83-0.44-5.89,1.42c-0.06,0.11-0.09,0.22-0.11,0.33
					c-0.53,0.15-1.05,0.33-1.54,0.6c-1.13,0.61-0.12,2.34,1.01,1.73c1.12-0.61,2.39-0.72,3.64-0.73c1.33-0.01,2.68,0.04,3.98,0.33
					c2.2,0.5,4.36,1.82,4.9,4.16c0.26,1.13,1.91,0.83,1.96-0.27C168.8,224.04,168.79,221.51,168.64,218.98z"/>
				<path class="st7" d="M132.96,217.72c-0.21-0.01-0.42-0.02-0.63-0.03c-0.09-0.02-0.19-0.02-0.3-0.01
					c-1.98-0.08-3.96-0.05-5.94,0.1c-0.14,0.01-0.27,0.05-0.39,0.1c-0.77-0.36-1.59-0.65-2.32-0.97c-1.36-0.6-2.89-1.22-4.35-0.61
					c-0.5,0.21-0.85,0.66-0.7,1.23c0.12,0.47,0.73,0.9,1.23,0.7c1.45-0.6,3.22,0.58,4.52,1.16c0.68,0.3,1.47,0.55,2.02,1.06
					c0.51,0.47,0.79,1.14,1.18,1.71c0.41,0.61,0.93,1.31,1.73,1.36c0.68,0.04,1.45-0.48,1.98-0.85c1.24-0.87,2.23-2.04,2.83-3.43
					C134.13,218.52,133.78,217.77,132.96,217.72z"/>
				<path class="st7" d="M101.83,197.2c-0.91-3.11-1.55-6.3-1.92-9.52c-0.14-1.24-2.04-1.32-2,0c0.14,5.02,0.29,10.12-0.64,15.08
					c-0.84,4.47-2.55,9.68-6.63,12.2c-1.09,0.68-0.09,2.41,1.01,1.73c0.24-0.15,0.47-0.31,0.69-0.47c0.27,0.32,0.72,0.48,1.22,0.21
					c4.37-2.38,6.56-6.99,8.41-11.38c0.47-1.12,0.98-2.26,0.98-3.5C102.93,200.06,102.24,198.61,101.83,197.2z"/>
				<path class="st7" d="M175.55,154.48c-0.96-4.47-2.04-8.94-3.89-13.14c-1.86-4.23-4.55-8.03-8.24-10.85
					c-0.8-0.61-1.91,0.57-1.37,1.37c2.56,3.76,5.11,7.96,6.4,12.36c0.6,2.05,0.79,4.23-0.08,6.24c-0.76,1.78-2.15,3.21-3.52,4.54
					c-2.91,2.82-5.7,5.6-8.01,8.96c-2.21,3.21-4.95,8.37-9.65,7.59c-1.26-0.21-1.8,1.72-0.53,1.93c0.47,0.08,0.93,0.11,1.39,0.1
					c-0.31,0.24-0.47,0.7-0.36,1.07c0.44,1.64,2.31,1.91,3.58,1.03c0.96-0.67,1.75-1.78,2.47-2.86c1.63-1.44,3-3.27,4.36-4.98
					c2.77-3.48,6.21-5.6,10.36-7.11c1.96-0.71,3.99-1.22,5.93-1.96C176.43,157.98,175.93,156.23,175.55,154.48z"/>
				<path class="st7" d="M106.56,128.13c-0.03,0.08-0.06,0.16-0.1,0.24c0,0,0,0,0,0c-2.09,5.06-5.52,14.29-12.56,12.92
					c-6.13-1.19-11.01-8.49-7.43-14.27c0.68-1.1-1.05-2.1-1.73-1.01c-1.69,2.73-1.82,5.75-0.94,8.51c-0.49,0.15-0.9,0.62-0.75,1.21
					c2.18,8.46,10.72,12.37,18.18,15.16c1.73,0.65,3.29,0.33,3.65-1.69c0.37-2.08,0.2-4.32,0.36-6.43
					c0.36-4.59,1.14-9.19,2.97-13.44c0.06-0.14,0.12-0.29,0.18-0.43C108.82,127.86,107.02,127.09,106.56,128.13z"/>
				<path class="st7" d="M211.86,209.18c-4.4-3.54-8.14-7.83-10.97-12.73c-3-5.19-4.82-10.93-6.2-16.74
					c-2.95-12.44-4.65-25.21-5.55-37.95c-0.3-4.27-0.62-8.66-1.89-12.74c0.74,0.03,1.48-0.69,0.93-1.43
					c-0.84-1.14-1.8-2.16-2.85-3.07c-0.11-0.19-0.21-0.39-0.33-0.58c0.15-0.33,0.15-0.72-0.19-1.05c-2.47-2.47-5.12-5.02-8.47-6.21
					c0.05-0.04,0.1-0.07,0.14-0.11c0.14,0.02,0.27,0.07,0.4,0.1c0.15,0.11,0.29,0.22,0.44,0.34c0.39,0.3,0.82,0.29,1.16,0.12
					c0.37,0.13,0.73,0.28,1.09,0.45c0,0,0.01,0,0.01,0.01c0.15,0.13,0.31,0.2,0.46,0.23c1.5,0.79,2.85,1.88,3.91,3.27
					c0.69,0.9,2.02,0.39,1.83-0.77c-1.1-6.46-6.31-11.69-12.56-13.24c0.43-0.09,0.85-0.17,1.27-0.27c0.54-0.14,0.82-0.71,0.7-1.23
					c-1-4.24-1.6-8.22-0.98-12.56c0.55-3.88,1-7.58,0.34-11.49c-0.65-3.79-2.05-7.42-3.72-10.87c-1.39-2.87-2.97-6.05-6.01-7.47
					c-0.22-0.1-0.46-0.11-0.68-0.06c-1.01-1.17-2.17-2.2-3.55-2.98c-1.12-0.63-2.13,1.09-1.01,1.73c3.14,1.77,5.01,4.97,6.46,8.17
					c1.62,3.58,2.63,7.44,3.24,11.32c1.3,8.33,0.63,16.83-0.01,25.19c-0.01,0.1,0.01,0.2,0.05,0.3c-0.36,0.31-0.55,0.85-0.24,1.26
					c0.96,1.25,1.93,2.63,2.1,4.1c-6.41,0.62-12.15,4.43-18.11,6.9c-3.94,1.63-8.13,2.49-12.33,3.11c-4.32,0.64-8.8,1.1-13.11,0.14
					c-4.2-0.93-8.03-3.05-11.09-6.07c-0.92-0.9-2.33,0.51-1.41,1.41c2.63,2.59,5.78,4.57,9.26,5.8c2.03,0.72,4.13,1.12,6.26,1.28
					c-0.06,0.54,0.25,1.11,0.95,1.1c7.52-0.13,14.83-1.58,22-3.65c-1.16,0.49-2.32,0.98-3.49,1.45c-4.23,1.7-8.61,3.13-13.23,3.02
					c-5.22-0.13-10.25-1.88-15.14-3.56c-0.4-0.14-0.74,0-0.96,0.25c-1.94-1.15-3.77-2.5-5.42-4.05c-0.58-0.54-1.29-0.25-1.57,0.28
					c-0.2,0.16-0.35,0.38-0.41,0.64c-0.46,0.32-0.7,1-0.21,1.53c6.57,7.22,16.8,9.76,26.27,9c5.83-0.47,11.51-2.02,17-3.98
					c2.78-0.99,5.51-2.12,8.26-3.19c2.5-0.98,5.05-1.82,7.75-1.88c0.03,0,0.06,0,0.09,0c10.89,9.12,9.56,25.59,11.07,38.36
					c1.69,14.32,6.7,27.98,13.13,40.81c1.8,3.6,3.64,7.25,5.75,10.69c0.99,1.63,2.26,1.8,4.06,1.44c1.86-0.37,3.6-1.18,5.13-2.29
					C212.12,210.41,212.41,209.62,211.86,209.18z"/>
				<path class="st7" d="M142.99,87.38c-0.54-1.17-2.26-0.15-1.73,1.01c0.89,1.93-1.61,4.17-2.97,5.16
					c-1.69,1.23-3.71,2.02-5.79,2.28c-2.23,0.28-4.51-0.02-6.64-0.75c-2.19-0.75-4.08-2.26-6.39-2.66c-1.26-0.22-1.8,1.71-0.53,1.93
					c1.51,0.26,2.76,1.05,4.11,1.72c1.22,0.6,2.49,1.08,3.81,1.39c2.63,0.63,5.42,0.65,8.03-0.09
					C138.69,96.3,145.18,92.12,142.99,87.38z"/>
				<path class="st1" d="M92.77,205.54c-0.5-0.26-1.07-0.11-1.37,0.36c-0.3,0.47-0.61,0.93-0.94,1.38
					c-0.16,0.22-0.32,0.44-0.48,0.65c-0.04,0.05-0.08,0.1-0.12,0.15c0.1-0.13-0.03,0.04-0.05,0.06c-0.09,0.11-0.18,0.22-0.27,0.34
					c-0.7,0.87-1.44,1.7-2.23,2.48c-0.37,0.37-0.4,1.05,0,1.41c0.4,0.37,1.02,0.4,1.41,0c1.65-1.66,3.13-3.5,4.39-5.47
					C93.41,206.47,93.23,205.79,92.77,205.54z"/>
				<path class="st1" d="M95.12,201.51c-0.12-0.21-0.36-0.41-0.6-0.46c-0.26-0.06-0.54-0.05-0.77,0.1c-0.23,0.15-0.37,0.34-0.46,0.6
					c-0.05,0.16-0.11,0.31-0.18,0.46c-0.17,0.38-0.36,0.76-0.57,1.11c-0.13,0.22-0.17,0.53-0.1,0.77c0.06,0.23,0.24,0.48,0.46,0.6
					c0.23,0.12,0.51,0.18,0.77,0.1c0.25-0.08,0.46-0.23,0.6-0.46c0.4-0.64,0.71-1.34,0.95-2.05
					C95.3,202.04,95.24,201.72,95.12,201.51z"/>
				<path class="st1" d="M115.28,220.02c-0.17-0.53-0.68-0.82-1.23-0.7c-1.42,0.33-2.81,0.74-4.18,1.23
					c-0.49,0.18-0.87,0.69-0.7,1.23c0.16,0.48,0.7,0.89,1.23,0.7c1.37-0.49,2.76-0.9,4.18-1.23
					C115.09,221.13,115.44,220.52,115.28,220.02z"/>
				<path class="st1" d="M116.01,218.29c-1.29,0-1.29,2,0,2C117.3,220.29,117.3,218.29,116.01,218.29z"/>
				<path class="st1" d="M154.18,223.93c-0.36-0.33-1.06-0.43-1.41,0c-0.31,0.38-0.64,0.75-0.99,1.09c-0.18,0.17-0.36,0.34-0.54,0.5
					c-0.09,0.08-0.18,0.15-0.27,0.23c-0.05,0.04-0.1,0.08-0.15,0.12c-0.01,0.01,0,0,0,0c-0.01,0,0,0-0.01,0.01
					c-0.79,0.59-1.64,1.09-2.55,1.49c-0.48,0.21-0.63,0.95-0.36,1.37c0.32,0.5,0.85,0.58,1.37,0.36c1.9-0.83,3.62-2.14,4.92-3.75
					C154.51,224.94,154.61,224.33,154.18,223.93z"/>
				<path class="st1" d="M169.32,191.24c-0.23,4.49-1.95,8.86-4.86,12.28c-0.83,0.98,0.58,2.4,1.41,1.41
					c3.27-3.85,5.19-8.65,5.45-13.7C171.38,189.95,169.38,189.96,169.32,191.24z"/>
				<path class="st1" d="M171.25,185.37c-0.02-0.27-0.1-0.51-0.29-0.71c-0.17-0.17-0.46-0.3-0.71-0.29
					c-0.26,0.01-0.53,0.1-0.71,0.29c-0.17,0.19-0.31,0.44-0.29,0.71c0.05,0.64,0.09,1.28,0.14,1.93c0.02,0.27,0.1,0.51,0.29,0.71
					c0.17,0.17,0.46,0.3,0.71,0.29c0.26-0.01,0.53-0.1,0.71-0.29c0.17-0.19,0.31-0.44,0.29-0.71
					C171.34,186.65,171.3,186.01,171.25,185.37z"/>
				<path class="st1" d="M159.16,148.73c-2.71,2.93-5.6,5.78-7.98,9c-2.23,3.01-3.84,6.64-3.54,10.46c0.1,1.28,2.1,1.29,2,0
					c-0.28-3.61,1.33-6.91,3.47-9.72c2.25-2.95,4.95-5.6,7.47-8.33C161.45,149.2,160.04,147.78,159.16,148.73z"/>
				<path class="st1" d="M163.6,144.33c-0.12-0.21-0.36-0.41-0.6-0.46c-0.26-0.06-0.54-0.05-0.77,0.1c-0.07,0.05-0.14,0.1-0.2,0.16
					c-0.12,0.12-0.21,0.27-0.26,0.44c-0.18,0.5-0.36,0.99-0.54,1.49c-0.04,0.13-0.05,0.27-0.02,0.4c0.01,0.13,0.05,0.26,0.12,0.37
					c0.12,0.21,0.36,0.41,0.6,0.46c0.26,0.06,0.54,0.05,0.77-0.1c0.07-0.05,0.14-0.1,0.2-0.16c0.12-0.12,0.21-0.27,0.26-0.44
					c0.18-0.5,0.36-0.99,0.54-1.49c0.04-0.13,0.05-0.27,0.02-0.4C163.71,144.57,163.67,144.45,163.6,144.33z"/>
				<path class="st1" d="M181.89,163.88c-0.8-4.66-1.56-9.33-2.4-13.99c-0.75-4.16-1.69-8.31-3.4-12.2
					c-1.73-3.92-4.28-7.42-7.76-9.95c-1.04-0.76-2.04,0.98-1.01,1.73c6.66,4.84,8.86,13.27,10.25,20.95
					c1.61,8.9,3.06,17.82,4.58,26.74c0.88,5.15,1.76,10.29,2.64,15.44c0.22,1.27,2.14,0.73,1.93-0.53
					C185.1,182.67,183.5,173.28,181.89,163.88z"/>
				<path class="st1" d="M191.42,207.62c-0.92-2.84-1.85-5.69-2.77-8.53c-0.17-0.51-0.69-0.85-1.23-0.7
					c-0.5,0.14-0.87,0.71-0.7,1.23c0.92,2.84,1.85,5.69,2.77,8.53c0.17,0.51,0.69,0.85,1.23,0.7
					C191.22,208.71,191.58,208.13,191.42,207.62z"/>
				<path class="st1" d="M91.48,125.83c-1.8-0.04-3.64,0.78-4.76,2.19c-0.17,0.22-0.29,0.42-0.29,0.71c0,0.25,0.11,0.54,0.29,0.71
					c0.36,0.33,1.07,0.44,1.41,0c0.23-0.29,0.49-0.53,0.76-0.77c0.03-0.02,0.06-0.05,0.1-0.07c0.07-0.05,0.14-0.09,0.21-0.14
					c0.16-0.1,0.33-0.19,0.5-0.27c0.02-0.01,0.04-0.02,0.06-0.03c0.04,0,0.22-0.08,0.26-0.1c0.17-0.06,0.34-0.11,0.52-0.15
					c0.09-0.02,0.17-0.04,0.26-0.05c0.03,0,0.08-0.01,0.1-0.01c0.19-0.02,0.38-0.02,0.57-0.02c0.52,0.01,1.02-0.47,1-1
					C92.46,126.28,92.04,125.85,91.48,125.83z"/>
				<path class="st1" d="M161.88,94.73c-0.57,2.08-2.36,3.49-3.72,5.06c-1.58,1.82-2.81,3.89-3.07,6.32c-0.06,0.54,0.5,1,1,1
					c0.59,0,0.94-0.46,1-1c0.5-4.59,5.56-6.59,6.72-10.85C164.15,94.02,162.22,93.49,161.88,94.73z"/>
				<path class="st1" d="M165.08,89.12c-1.29,0-1.29,2,0,2C166.37,91.12,166.37,89.12,165.08,89.12z"/>
				<path class="st1" d="M135.82,81.52c-1.32-0.94-2.98-0.77-4.38-0.13c-1.66,0.75-3.2,1.91-4.73,2.9c-3.25,2.11-6.46,4.3-9.61,6.56
					c-1.04,0.74-0.04,2.48,1.01,1.73c2.78-1.99,5.61-3.93,8.47-5.81c1.43-0.94,2.87-1.87,4.32-2.78c1.16-0.72,2.61-1.67,3.92-0.74
					C135.86,83.99,136.86,82.26,135.82,81.52z"/>
				<path class="st10" d="M176.26,44.17c-0.17-0.34-0.49-0.66-0.84-0.81c-0.46-0.21-0.99-0.28-1.48-0.1
					c-0.07,0.02-0.13,0.06-0.2,0.09c-0.31,0-0.63,0.08-0.9,0.26c-0.18,0.12-0.35,0.27-0.48,0.45c-0.2,0.13-0.37,0.32-0.45,0.58
					c-0.29,0.86-0.22,1.93,0.49,2.58c0.36,0.33,0.84,0.56,1.34,0.52c0.5-0.03,0.98-0.25,1.31-0.63c0.01-0.01,0.02-0.03,0.03-0.04
					c0.66-0.24,1.26-0.81,1.38-1.5C176.56,45.07,176.49,44.62,176.26,44.17z"/>
				<path class="st10" d="M163.66,40.12c-0.03-0.21-0.1-0.38-0.19-0.57c-0.01-0.02-0.03-0.03-0.03-0.05
					c-0.02-0.04-0.03-0.09-0.05-0.13c-0.21-0.41-0.59-0.69-1.01-0.85c-0.11-0.04-0.23-0.06-0.35-0.07c-0.24-0.03-0.48-0.02-0.7,0.05
					c-0.05,0.01-0.09,0.05-0.13,0.07c-0.12-0.05-0.24-0.08-0.37-0.07c-0.09,0.01-0.18,0.02-0.27,0.04
					c-0.17,0.05-0.32,0.13-0.44,0.26c-0.28,0.23-0.46,0.56-0.59,0.89c-0.05,0.13-0.07,0.26-0.09,0.41
					c-0.02,0.15-0.04,0.29-0.02,0.44c0.04,0.36,0.12,0.72,0.34,1.02c0.2,0.28,0.45,0.53,0.77,0.69c0.33,0.16,0.67,0.26,1.04,0.25
					c0.12,0,0.23-0.03,0.35-0.05c0.02,0,0.05,0,0.07,0c0.13-0.01,0.26-0.02,0.38-0.06c0.18-0.05,0.35-0.13,0.5-0.23
					c0.39-0.28,0.7-0.68,0.78-1.17C163.71,40.67,163.71,40.44,163.66,40.12z"/>
				<path class="st10" d="M146.8,32.93c-0.72-0.13-1.39,0.13-1.81,0.73c-0.02,0.03-0.03,0.07-0.05,0.11
					c-0.18,0.08-0.34,0.18-0.48,0.34c-0.19,0.22-0.34,0.46-0.41,0.74c-0.13,0.5-0.04,1.03,0.22,1.48c0.49,0.83,1.55,1.48,2.52,1.13
					c0.48-0.17,0.9-0.49,1.16-0.94c0.24-0.41,0.35-0.91,0.33-1.39C148.26,34.21,147.83,33.12,146.8,32.93z"/>
				<path class="st10" d="M132.38,38.48c-0.06-0.37-0.26-0.73-0.52-0.99c-0.58-0.58-1.62-0.76-2.32-0.28
					c-0.19,0.13-0.33,0.3-0.42,0.52c-0.01,0.01-0.03,0.02-0.04,0.03c-0.27,0.26-0.45,0.57-0.58,0.92c-0.1,0.27-0.15,0.59-0.12,0.88
					c0.02,0.18,0.04,0.36,0.09,0.53c0.09,0.28,0.2,0.47,0.39,0.69c0.16,0.18,0.41,0.33,0.64,0.39c0.27,0.08,0.49,0.06,0.76,0.02
					c0.29-0.05,0.56-0.21,0.79-0.38c0.49-0.11,0.92-0.44,1.14-0.92c0.05-0.12,0.11-0.25,0.15-0.38c0.04-0.13,0.05-0.28,0.07-0.41
					C132.44,38.87,132.42,38.68,132.38,38.48z"/>
				<path class="st10" d="M169.24,49.99c-1.7,1.5-4.6,2.46-6.1,0.21c-1.25-1.88-1.2-4.38-1.22-6.55c-0.01-1.04-1.32-1.3-1.86-0.5
					c-1.68,2.43-5.96,5.82-9.07,3.95c-1.54-0.93-2.1-2.84-2.5-4.48c-0.36-1.51-0.49-3.54-1.74-4.62c-0.6-0.52-1.4-0.29-1.67,0.44
					c-0.97,2.61-2.54,4.95-4.6,6.83c-1.03,0.94-2.25,1.95-3.74,1.63c-1.6-0.35-2.71-1.81-3.65-3.03c-0.24-0.31-0.56-0.42-0.88-0.42
					c-0.04-0.37-0.07-0.74-0.11-1.12c-0.15-1.26-2.15-1.28-2,0c0.56,4.89,0.99,9.79,1.29,14.7c0.04,0.7,0.6,1.07,1.27,0.96
					c2.14-0.34,4.16-1.14,6.34-1.22c1.99-0.07,3.99,0.19,5.97,0.37c3.97,0.37,7.94,0.83,11.8,1.85c1.98,0.52,3.92,1.19,5.77,2.07
					c0.97,0.47,2.82,2.03,3.9,1.1c0.57-0.49,0.74-1.44,0.99-2.1c0.35-0.91,0.69-1.82,1.04-2.73c0.81-2.12,1.62-4.25,2.43-6.37
					C171.29,49.95,169.92,49.39,169.24,49.99z"/>
				<path class="st3" d="M146.48,48.71c-0.07-0.27-0.19-0.53-0.38-0.76c-0.45-0.54-1.23-0.67-1.84-0.34
					c-0.15,0.08-0.28,0.2-0.39,0.32c-0.25,0.06-0.47,0.22-0.63,0.45c-0.56,0.78-1.05,1.59-1.17,2.57c-0.1,0.85,0.17,1.81,0.84,2.38
					c0.54,0.47,1.29,0.67,1.95,0.31c0.16-0.09,0.3-0.22,0.42-0.36c0.18-0.03,0.36-0.09,0.51-0.19c0.5-0.33,0.75-0.89,0.93-1.43
					C147.02,50.71,147.06,49.54,146.48,48.71z"/>
				<path class="st3" d="M97.54,83.07c-1.08-1.35-3.17-1.38-4.68-0.81c-0.84,0.32-1.61,0.79-2.23,1.44
					c-0.63,0.65-1.27,1.58-1.28,2.52c-0.01,1,0.47,2.07,0.87,2.97c0.39,0.88,0.88,1.72,1.46,2.49c0.32,0.43,0.86,0.65,1.37,0.36
					c0.09-0.05,0.16-0.13,0.23-0.21c0.4,0.09,0.84,0.11,1.27,0.13c0.92,0.04,2.05,0.18,2.67-0.65c0.28-0.37,0.37-0.82,0.47-1.27
					c0.11-0.5,0.22-1,0.31-1.5C98.32,86.76,98.79,84.62,97.54,83.07z"/>
				<path class="st3" d="M107.14,90.47c-0.3-0.82-0.87-1.62-1.49-2.24c-0.7-0.7-1.61-1.12-2.61-1.01c-0.91,0.1-1.8,0.45-2.61,0.86
					c-0.67,0.34-1.33,0.8-1.82,1.38c-0.42,0.5-0.71,1.08-0.85,1.68c-0.43,0.21-0.65,0.68-0.55,1.15c0.33,1.59,0.99,3.46,2.63,4.06
					c-0.62,0.01-1.21,0.18-1.69,0.66c-0.22,0.22-0.37,0.49-0.57,0.72c-0.18,0.21-0.37,0.34-0.54,0.47c-0.39,0.3-0.76,0.61-1.01,1.02
					c-0.31,0.09-0.57,0.3-0.66,0.61c-0.06-0.39-0.24-0.74-0.6-0.97c-0.41-0.26-0.94-0.25-1.4-0.37c-0.79-0.21-1.59-0.6-1.8-1.45
					c-0.11-0.45-0.6-0.77-1.06-0.74c0.21-0.64,0.25-1.37,0.27-2.03c0-0.18,0.01-0.36,0.01-0.54c0.74,0.08,1.53-0.67,1.02-1.46
					c-1.26-1.96-3.32-3.27-5.64-3.56c-1.28-0.16-2.47,0.2-3.32,1.19c-0.77,0.9-1.35,2.12-1.47,3.3c-0.25,2.54,2.1,4.41,4.37,4.8
					c0.77,0.13,1.68,0.24,2.52,0.12c-0.1,0.12-0.19,0.24-0.28,0.37c-0.3-0.09-0.63-0.04-0.91,0.25c-1.22,1.27-2.45,2.83-2.05,4.71
					c0.37,1.75,1.82,3.46,3.48,4.11c1.82,0.71,3.63-0.1,4.72-1.62c0.54-0.74,0.86-1.64,1.15-2.5c0.28-0.83,0.61-1.67,0.84-2.52
					c-0.04,2.37,1.39,4.6,3.72,5.4c1.26,0.44,2.7,0.39,3.92-0.13c1.38-0.58,2.24-1.67,2.53-3.13c0.27-1.36,0.46-2.97-0.34-4.18
					c-0.71-1.07-1.87-1.67-3.04-2.08c-0.23-0.08-0.48-0.16-0.74-0.23c0.64-0.02,1.29-0.14,1.9-0.31c0.89-0.24,1.73-0.64,2.45-1.21
					C106.94,94.01,107.74,92.12,107.14,90.47z"/>
				<g>
					<path class="st10" d="M94.59,95.79c0,0,0-0.01,0-0.01c0,0,0,0,0,0c0,0,0,0,0,0v0c0,0,0,0,0,0c0,0,0-0.01,0-0.01
						C94.58,95.77,94.58,95.78,94.59,95.79C94.58,95.78,94.58,95.78,94.59,95.79z"/>
					<path class="st10" d="M96.73,92.83c-0.24-0.29-0.68-0.35-1.05-0.22c-0.48-0.24-0.98-0.29-1.5-0.2
						c-0.49,0.09-0.93,0.36-1.3,0.71c-0.05,0.02-0.11,0.02-0.16,0.05c-1.31,0.71-1.75,2.6-0.92,3.83c0.44,0.66,1.17,1.07,1.93,1.19
						c0.13,0.14,0.28,0.25,0.48,0.33c1.26,0.51,2.79-0.32,3.34-1.49C98.22,95.58,97.68,94.02,96.73,92.83z"/>
				</g>
			</g>
			<g>
				<g>
					<path class="st9" d="M146.35,37.08c0.93-0.02,1.66-0.8,1.66-1.76c0-1.02-0.73-1.82-1.67-1.84c-0.95-0.02-1.76,0.79-1.77,1.76
						C144.56,36.26,145.38,37.11,146.35,37.08z"/>
					<path class="st9" d="M145.3,52.63c1.31-0.85,1.64-3.07,0.64-4.26c-0.67-0.8-1.6-0.84-2.33-0.1c-0.62,0.64-0.82,1.44-0.88,2.52
						c-0.06,0.22,0.08,0.64,0.25,1.04C143.37,52.74,144.54,53.13,145.3,52.63z"/>
					<path class="st9" d="M161.9,41.84c0.97,0.01,1.67-0.66,1.67-1.59c0-0.97-0.7-1.66-1.69-1.69c-0.91-0.02-1.76,0.77-1.76,1.64
						C160.12,41.07,160.95,41.84,161.9,41.84z"/>
					<path class="st9" d="M132.31,67.98c0.57,2.69,0.32,5.36-0.09,8.03c-0.2,1.3-0.48,2.59-0.74,3.98c2.37-0.85,4.01,0.27,5.57,2.04
						c0-1.22-0.02-2.23,0-3.23c0.09-3.25,0.85-6.31,2.6-9.1c3.17-5.06,7.74-7.38,13.64-6.68c5.04,0.6,8.46,3.52,10.42,8.16
						c1.55,3.68,1.73,7.52,1.35,11.44c-0.41,4.15-1.85,7.88-4.25,11.27c-1.42,2.01-3.22,3.69-4.82,5.55
						c-3.08,3.6-3.81,7.55-1.86,11.95c0.3,0.68,0.56,0.73,1.17,0.39c2.35-1.3,4.71-2.59,7.11-3.8c2.59-1.32,5.32-2.25,8.22-2.65
						c1.32-0.18,2.65,0.01,4-0.16c-0.38-1.39-0.81-2.73-0.94-4.14c-0.28-3.18,0.33-6.3,0.55-9.44c0.43-6.14,0.03-12.17-2.06-18
						c-1.43-3.99-3.77-7.34-7.49-9.56c-5.96-3.57-12.54-4.95-19.36-5.47c-2.53-0.19-5.07-0.15-7.6,0.01
						c-2.19,0.14-4.37,0.38-6.47,1.12c-1.83,0.65-3.43,1.65-4.88,3.07C129.85,63.06,131.6,64.66,132.31,67.98z"/>
					<path class="st9" d="M82.06,110.13c1.93,4.51,6.32,7.48,9.92,6.75C90.63,112.83,85.62,109.97,82.06,110.13z"/>
					<path class="st9" d="M125.85,76.71c2.03,0,2.03-3.15,0-3.15C123.83,73.56,123.82,76.71,125.85,76.71z"/>
					<path class="st9" d="M130.6,40.31c0.82-0.02,1.37-0.71,1.37-1.69c0-1-0.48-1.53-1.37-1.53c-0.86,0-1.68,0.74-1.71,1.52
						C128.87,39.51,129.69,40.34,130.6,40.31z"/>
					<path class="st9" d="M130.82,43.16c0.12,3.29,0.21,6.59,0.38,9.88c0.06,1.17,0.1,2.34,0.14,3.51c0.02,0.55,0.19,0.79,0.79,0.64
						c1.63-0.41,3.31-0.6,4.98-0.76c4.6-0.43,9.19-0.11,13.73,0.68c5.13,0.9,10.08,2.42,14.73,4.82c0.39,0.2,0.58,0.16,0.74-0.27
						c1.36-3.67,2.75-7.34,4.18-11.16c-1.28,0.65-2.4,1.32-3.69,1.54c-2.5,0.44-4.35-0.06-5.22-2.83c-0.48-1.52-0.61-3.08-0.65-4.66
						c-0.01-0.25,0.17-0.6-0.15-0.73c-0.23-0.09-0.42,0.19-0.61,0.33c-1.67,1.3-3.34,2.6-5.29,3.48c-1.55,0.7-2.94,0.53-4.18-0.69
						c-0.67-0.65-1.24-1.37-1.71-2.17c-0.98-1.68-1.88-3.41-2.5-5.27c-0.13-0.37-0.35-0.45-0.7-0.51c-0.37-0.07-0.48,0.16-0.62,0.38
						c-0.15,0.25-0.29,0.52-0.44,0.78c-1.5,2.58-3.2,5-5.66,6.76c-1.64,1.17-2.93,1.08-4.37-0.3c-0.71-0.68-1.41-1.36-2.01-2.14
						c-0.56-0.72-1.16-1.4-1.88-2.25C130.82,42.68,130.81,42.92,130.82,43.16z M142.6,47.19c1.37-1.62,3.62-1.41,4.74,0.4
						c0.5,0.8,0.72,1.69,0.66,2.61c0.07,1.18-0.3,2.21-1.01,3.11c-0.72,0.91-1.67,1.45-2.84,1.23c-1.43-0.27-2.26-1.29-2.61-2.62
						C141.1,50.2,141.44,48.56,142.6,47.19z"/>
					<path class="st9" d="M97.51,92.36c0.28,0.28,0.36,0.84,0.96,0.71c0.32-0.07,0.65-0.17,0.96-0.14c0.36,0.04,0.96-0.33,1.05,0.21
						c0.09,0.5-0.56,0.46-0.91,0.59c-1.1,0.38-1.09,0.36-0.85,1.51c0.07,0.32,0.15,0.42,0.48,0.49c0.62,0.13,1.24,0.13,2,0.13
						c0.6,0.05,1.33-0.05,2.05-0.16c2.5-0.4,3.8-1.8,3.67-4.11c-0.1-1.76-1.06-3.08-2.57-3.89c-1.43-0.77-2.73-0.16-3.93,0.68
						c-1.21,0.85-1.94,2.1-2.77,3.28C97.49,91.86,97.24,92.1,97.51,92.36z"/>
					<path class="st9" d="M97.28,95.43c0-1.61-1.04-2.67-2.62-2.67c-1.59,0-2.91,1.27-2.9,2.79c0.01,1.41,1.36,2.63,2.9,2.61
						C96.16,98.14,97.28,96.96,97.28,95.43z"/>
					<path class="st9" d="M172.19,45.65c0.03,0.12,0.07,0.24,0.11,0.36c0.05,0.1,0.08,0.17,0.12,0.23c0.04,0.06,0.08,0.12,0.12,0.19
						c0.1,0.11,0.18,0.2,0.27,0.28c0.02,0.02,0.04,0.04,0.07,0.06c0.03,0.02,0.07,0.05,0.07,0.05c0.09,0.06,0.27,0.21,0.38,0.21
						c-0.04-0.01-0.07-0.03-0.11-0.04c0.04,0.02,0.09,0.03,0.13,0.05c0.07,0.02,0.14,0.04,0.2,0.06c0.52,0.13,1.13-0.06,1.58-0.3
						c0.12-0.08,0.21-0.2,0.3-0.29c0.03-0.04,0.05-0.07,0.07-0.1c0.04-0.06,0.08-0.13,0.11-0.19c0.01-0.02,0.03-0.05,0.04-0.08
						c0.02-0.05,0.04-0.11,0.06-0.16c0.04-0.12,0.09-0.27,0.1-0.4c0-0.01,0-0.03,0-0.04c0-0.06,0.01-0.13,0.01-0.19
						c0-0.08-0.01-0.15-0.01-0.23c-0.03-0.13-0.06-0.26-0.1-0.39c-0.01-0.02-0.01-0.02-0.01-0.03c-0.05-0.09-0.08-0.16-0.12-0.23
						c-0.03-0.06-0.07-0.11-0.11-0.17c-0.1-0.11-0.2-0.21-0.29-0.3c-0.03-0.02-0.02-0.02-0.04-0.03c-0.07-0.04-0.13-0.08-0.19-0.12
						c-0.01-0.01-0.04-0.02-0.07-0.04c-0.05-0.02-0.11-0.04-0.17-0.06c-0.12-0.04-0.24-0.06-0.36-0.09c-0.01,0-0.02,0-0.03,0
						c-0.05,0-0.1-0.01-0.15-0.01c-0.13,0-0.31-0.02-0.44,0.02c-0.02,0.01-0.04,0.01-0.05,0.01c-0.07,0.02-0.15,0.03-0.22,0.05
						c-0.11,0.03-0.23,0.06-0.34,0.11c-0.03,0.01-0.05,0.03-0.06,0.03c-0.04,0.02-0.09,0.05-0.13,0.07
						c-0.07,0.04-0.14,0.09-0.2,0.13c-0.03,0.02-0.03,0.01-0.04,0.02c-0.01,0.01,0,0.01-0.02,0.02c-0.06,0.06-0.12,0.11-0.18,0.17
						c-0.03,0.03-0.06,0.07-0.09,0.1c-0.06,0.08-0.1,0.18-0.14,0.25c-0.02,0.07-0.04,0.12-0.05,0.17c-0.02,0.07-0.03,0.14-0.05,0.21
						c0,0.17,0,0.32,0,0.46C172.16,45.54,172.17,45.6,172.19,45.65z"/>
					<path class="st9" d="M104.72,110.55c0.15-0.42-0.01-0.52-0.35-0.42c-0.65,0.19-1.29,0.39-1.93,0.63
						c-3.12,1.16-5.56,3.11-7.13,6.23c0.93-0.12,1.74-0.2,2.54-0.34C101.38,116.02,103.54,113.83,104.72,110.55z"/>
					<path class="st9" d="M93.73,99.24c-0.56-0.05-0.84,0.05-1.13,0.47c-0.27,0.4-0.59,0.78-0.91,1.15
						c-0.14,0.17-0.3,0.34-0.54,0.13c-0.18-0.16-0.24-0.33-0.11-0.56c0.23-0.4,0.47-0.79,0.65-1.22c0.1-0.23,0.53-0.48,0.1-0.74
						c-0.42-0.26-0.53-1-1.3-0.72c-1.23,0.46-2.41,0.99-3.46,1.76c-1.48,1.08-2.03,2.9-1.27,4.49c0.86,1.79,2.51,2.42,4.34,2.68
						c0.96,0.06,1.71-0.33,2.34-0.99c1.47-1.55,1.82-3.52,2.07-5.53C94.57,99.59,94.47,99.31,93.73,99.24z"/>
					<path class="st9" d="M89.9,96.65c0.22-0.03,0.45-0.07,0.51-0.41c0.22-1.25,0.09-1.52-1.1-2.02c-0.15-0.06-0.31-0.11-0.45-0.18
						c-0.16-0.08-0.35-0.13-0.28-0.41c0.07-0.31,0.27-0.29,0.49-0.26c0.43,0.06,0.86,0.11,1.29,0.19c0.42,0.08,0.65-0.12,0.87-0.44
						c0.23-0.33,0.06-0.51-0.13-0.77c-0.58-0.84-1.33-1.52-2.09-2.18c-0.7-0.6-1.51-1.06-2.41-1.31c-1.95-0.54-3.5,0.23-4.28,2.23
						c-1.08,2.76-0.34,4.96,2.49,5.67c0.63,0.16,1.27,0.29,1.94,0.28C87.8,96.92,88.85,96.8,89.9,96.65z"/>
					<path class="st9" d="M103.09,98.17c-1.21-0.76-2.58-1.07-3.97-1.33c-0.53-0.1-0.75,0.22-1.02,0.58
						c-0.32,0.42,0.1,0.59,0.23,0.83c0.25,0.45,0.59,0.84,0.89,1.26c0.14,0.19,0.33,0.39,0.04,0.62c-0.26,0.2-0.46,0.06-0.65-0.1
						c-0.43-0.37-0.85-0.77-1.28-1.14c-0.5-0.43-0.8,0.18-1.21,0.26c-0.3,0.06-0.37,0.3-0.3,0.57c0.38,1.58,0.79,3.16,1.75,4.5
						c0.77,1.06,1.77,1.77,3.17,1.62c2.06-0.22,4.05-2.45,4.06-4.55C104.81,99.94,104.24,98.89,103.09,98.17z"/>
					<path class="st9" d="M118.73,87.72c3.51-2.22,7.2-4.16,10.56-6.61c0.19-0.14,0.34-0.28,0.41-0.56
						c0.89-3.68,1.63-7.38,1.27-11.19c-0.14-1.48-0.63-2.88-1.96-3.78c-1.82-1.23-4.85-0.54-6.13,1.38c-0.6,0.9-1.1,1.87-1.55,2.86
						c-1.5,3.34-2.38,6.84-2.64,10.49c-0.18,2.47-0.45,4.94-0.14,7.42C118.62,87.73,118.69,87.75,118.73,87.72z M122.92,70.59
						c0.61-1.17,1.57-1.81,2.6-1.9c1.41,0.01,2.67,1.27,2.67,2.38c0,0.14-0.02,0.27-0.15,0.35c-0.14,0.08-0.26,0.03-0.37-0.07
						c-0.06-0.06-0.12-0.11-0.18-0.17c-1.56-1.31-2.53-1.36-4.12-0.18c-0.19,0.14-0.38,0.46-0.61,0.27
						C122.48,71.05,122.81,70.8,122.92,70.59z M121.98,77.85c-0.05-1.45,0.31-2.73,1.11-3.88c0.35-0.5,0.79-0.9,1.32-1.19
						c1.56-0.85,2.87-0.38,3.54,1.28c0.92,2.26,0.32,5.54-1.29,7.07c-1.6,1.53-3.65,1.01-4.38-1.08
						C122.03,79.32,121.96,78.57,121.98,77.85z"/>
					<path class="st9" d="M92.01,91.19c0.21,0.26,0.29,0.77,0.84,0.55c0.49-0.2,1.09-0.24,1.01-1.03c-0.03-0.26,0.1-0.53,0.15-0.79
						c0.04-0.22,0.08-0.44,0.37-0.44c0.28,0,0.36,0.22,0.41,0.43c0.08,0.34,0.15,0.69,0.19,1.04c0.05,0.44,0.38,0.51,0.71,0.49
						c0.26-0.01,0.55,0.31,0.79-0.2c0.79-1.68,1.35-3.41,1.44-4.88c0.01-2.25-0.81-3.4-2.48-3.84c-0.72-0.19-1.46-0.2-2.18-0.06
						c-2.61,0.48-4.19,2.91-3.24,5.22C90.54,88.93,91.15,90.13,92.01,91.19z"/>
					<path class="st9" d="M149.53,155.99c-2.67,3.95-4.36,8.19-3.63,13.07c0.29,1.95,1.12,3.68,2.57,5.05
						c0.95,0.9,1.56,0.89,2.56,0.04c1.08-0.93,1.95-2.05,2.78-3.2c3-4.19,6.78-7.37,11.61-9.28c2.98-1.17,5.79-2.7,8.56-4.31
						c0.72-0.42,0.81-0.92,0.68-1.59c-0.31-1.7-0.59-3.41-0.96-5.11c-1.25-5.81-3.34-11.25-7.13-15.93
						c-0.93-1.15-1.9-2.28-3.14-3.31c-0.07,1.18-0.16,2.23-0.19,3.28c-0.05,1.55-0.3,3.07-0.77,4.55c-1.26,3.93-3.64,7.15-6.62,9.93
						C153.57,151.29,151.28,153.39,149.53,155.99z"/>
					<path class="st9" d="M162.37,201.21c2.79-4.91,3.76-10.3,3.96-15.86c0.1-2.75-0.15-5.49-0.46-8.23
						c-0.44-3.86-1.23-7.64-2.3-11.37c-0.11-0.4-0.22-0.47-0.59-0.28c-2.45,1.26-4.56,2.94-6.32,5.07
						c-1.44,1.74-2.67,3.65-4.32,5.21c-1.8,1.71-3.61,1.74-5.37,0.02c-1.01-0.99-1.7-2.18-2.23-3.47
						c-1.56-3.77-1.17-7.55,0.12-11.28c1.79-5.2,5.1-9.35,9.12-13.01c4.37-3.97,7.47-8.6,7.51-14.79c0.01-1.92-0.1-3.82-1.22-5.47
						c-1.13-1.67-2.13-3.4-2.83-5.29c-0.17-0.46-0.37-0.4-0.72-0.25c-0.97,0.41-1.95,0.8-2.93,1.19c-4.75,1.94-9.67,3.18-14.78,3.51
						c-3.53,0.23-7.07,0.01-10.54-0.79c-5.19-1.18-10.2-2.78-14.23-6.51c-0.29-0.27-0.45-0.21-0.61,0.09
						c-0.11,0.19-0.22,0.38-0.33,0.56c-2.6,4.33-4.26,9-5.01,13.98c-0.35,2.29-0.46,4.63-0.05,6.92c0.49,2.73,0.25,5.3-0.84,7.87
						c-3.63,8.58-5.64,17.56-6.33,26.83c-0.29,3.89-0.21,7.78,0.27,11.66c0.46,3.7,1.28,7.3,2.65,10.76
						c2.27,5.69,5.64,10.52,10.99,13.76c5.33,3.24,11.17,4.45,17.33,4.47c1.75,0.04,3.48-0.12,5.21-0.31
						c4.24-0.47,8.28-1.58,12.1-3.47C154.97,210.12,159.39,206.46,162.37,201.21z"/>
					<path class="st9" d="M116.5,118.87c2.03,1.63,4.29,2.84,6.71,3.77c5.89,2.24,11.96,3.08,18.22,2.17
						c4.55-0.66,8.88-2.11,13.07-3.96c3.78-1.68,7.47-3.59,11.4-4.92c3.58-1.21,7.24-1.7,10.96-0.73c3.22,0.83,5.91,2.53,7.96,5.44
						c0-0.35,0.02-0.49,0-0.62c-0.5-2.95-1.78-5.55-3.62-7.89c-2.22-2.82-5.09-4.3-8.72-4.33c-2.28-0.02-4.46,0.46-6.63,1.09
						c-3.54,1.04-6.69,2.91-9.95,4.56c-5.17,2.61-10.45,4.84-16.31,5.38c-2.73,0.25-5.42,0.17-8.09-0.47
						c-4.79-1.16-8.91-3.5-12.32-7.07c-0.29-0.31-0.45-0.44-0.77,0c-0.83,1.14-1.76,2.21-2.57,3.37
						C114.64,116.36,114.87,117.57,116.5,118.87z"/>
					<path class="st9" d="M103.61,150.04c0.28-2.01,0.57-4.03,0.87-6.04c0.35-2.41,0.69-4.83,1.08-7.24
						c0.49-3.04,1.26-6.01,2.13-8.96c-0.19-0.07-0.28,0.06-0.38,0.12c-2.13,1.28-4.38,2.02-6.9,1.5c-0.22-0.05-0.37-0.06-0.53,0.2
						c-0.57,0.9-1.47,1.33-2.46,1.6c-1.33,0.37-2.67,0.66-3.96,1.16c-0.39,0.15-0.62,0.34-0.59,0.83c0.11,1.9,0.24,3.79,0.6,5.67
						c0.37,1.95,1.09,3.79,1.77,5.64c0.22,0.59,0.09,1.08-0.52,1.35c-0.59,0.26-0.97-0.01-1.27-0.52c-0.69-1.15-1.03-2.43-1.38-3.71
						c-0.65-2.39-0.94-4.83-1.02-7.46c-0.49,0.41-0.85,0.7-1.2,1c-0.24,0.2-0.46,0.59-0.79,0.37c-0.35-0.23-0.19-0.63-0.06-0.97
						c0.8-2.03,2.25-3.34,4.32-4c1.26-0.4,2.56-0.67,3.76-1.26c1.44-0.7,1.74-1.6,0.96-2.96c-1.44-2.51-5.43-4.22-8.36-3.05
						c-3.98,1.59-5.92,5.23-6.1,9.39c-0.12,2.82,0.86,5.37,2.37,7.73c2.57,4.02,6.25,6.66,10.57,8.5c2.02,0.86,4.08,1.59,6.29,1.8
						C103.35,150.77,103.54,150.53,103.61,150.04z"/>
					<path class="st9" d="M98.78,187.67c-0.07,0.23-0.14,0.46-0.21,0.68c-1.35,4.35-2.95,8.59-5.17,12.58
						c-2.24,4.03-5.13,7.55-8.42,10.75c-0.56,0.54-0.4,0.75,0.14,1.09c1.7,1.05,3.51,1.81,5.46,2.24c2.9,0.63,4.55-0.06,6.12-2.6
						c2.2-3.54,3.75-7.36,5.01-11.32c0.2-0.64,0.15-1.19-0.07-1.8C100.24,195.55,99.4,191.67,98.78,187.67z"/>
					<path class="st9" d="M205.13,204.77c-4.45-5.71-7.61-12.09-9.66-19.03c-2.39-8.11-3.7-16.42-4.57-24.81
						c-0.44-4.24-0.8-8.5-1.15-12.75c-0.36-4.39-0.81-8.76-1.67-13.08c-0.74-3.75-1.7-7.45-3.62-10.8c-3.45-6.02-8.1-7.7-14.01-7.11
						c-3.89,0.39-7.46,1.96-10.97,3.62c-0.49,0.23-0.48,0.46-0.26,0.93c1.56,3.44,3.81,6.37,6.43,9.06
						c1.83,1.87,3.49,3.89,4.88,6.11c3.94,6.31,5.78,13.3,6.76,20.58c0.42,3.15,0.84,6.29,1.17,9.45c0.4,3.75,0.89,7.5,1.26,11.26
						c0.33,3.38,0.76,6.74,1.21,10.1c0.57,4.29,1.21,8.58,2.08,12.83c0.93,4.51,2.09,8.95,4.08,13.13c0.2,0.41,0.41,0.82,0.63,1.22
						c7.8-0.1,15.75-1.36,22.45-5.49C208.35,208.44,206.64,206.71,205.13,204.77z"/>
					<path class="st9" d="M166.91,218.93c-3.4,0.96-6.86,1.34-10.39,0.88c-0.53-0.07-0.99-0.08-1.2,0.6
						c-0.12,0.39-0.45,0.74-0.73,1.06c-1.57,1.82-3.62,3.03-5.57,4.36c-1.6,1.09-3.19,2.17-4.63,3.75c3.16,0.02,5.91,0.51,6.95,4.02
						c1.43-2.83,3.2-5.29,5.16-7.62c0.23-0.27,0.52-0.83,0.86-0.59c0.43,0.29-0.06,0.74-0.24,1.04c-1.21,2.15-2.48,4.27-3.71,6.4
						c-0.19,0.32-0.47,0.63-0.42,1.12c1.88-0.86,3.75-1.44,5.78-1.45c2-0.01,3.92,0.21,5.36,1.83c1.32-1.75,2.87-5.44,3.54-8.34
						c0.5-2.16,0.74-4.33,0.19-6.52C167.71,218.92,167.55,218.75,166.91,218.93z"/>
					<path class="st9" d="M179.76,196.71c-0.61-3.3-1.1-6.63-1.52-9.96c-0.37-2.91-0.76-5.81-1.09-8.73
						c-0.32-2.89-0.54-5.79-0.86-8.68c-0.34-3.05-0.75-6.09-1.1-9.13c-0.13-1.12-0.14-1.15-1.08-0.62c-2.83,1.6-5.64,3.23-8.65,4.46
						c-0.57,0.24-0.63,0.45-0.45,1.02c1.43,4.61,2.5,9.31,2.94,14.12c0.36,3.99,0.34,7.99-0.28,11.97
						c-0.65,4.13-1.89,8.04-4.04,11.65c-3.16,5.31-7.9,8.8-13.28,11.56c-0.78,0.4-1.59,0.75-2.54,1.2c0.73,0.21,1.29,0.36,1.84,0.54
						c2.59,0.82,5.21,1.49,7.92,1.68c2.56,0.18,5.11-0.05,7.61-0.63c6.91-1.58,12.25-5.37,15.97-11.42
						c0.19-0.31,0.24-0.59,0.16-0.99C180.75,202.08,180.25,199.4,179.76,196.71z"/>
					<path class="st9" d="M132.23,218.32c-3.41,0.07-6.81-0.12-10.09-1.07c-1.48-0.43-2.69-0.4-4.15,0.19
						c-2.7,1.08-5.54,1.78-8.31,2.69c-1.53,0.5-3.02,1.1-4.55,2.12c1.19-0.06,2.1,0.14,2.93,0.64c0.94,0.57,1.15,1.5,1.21,2.57
						c0.16-0.11,0.24-0.16,0.32-0.22c2.29-1.66,4.67-3.17,7.24-4.36c0.64-0.3,1.28-0.59,2-0.61c0.13,0,0.28-0.04,0.34,0.13
						c0.05,0.15-0.02,0.26-0.14,0.35c-0.13,0.09-0.26,0.19-0.4,0.27c-1.9,1.11-3.72,2.33-5.53,3.59c-0.97,0.67-1.96,1.32-2.96,2.25
						c2.07-0.24,3.95-0.47,5.85-0.19c1.95,0.29,3.81,0.7,4.8,2.77c0.9-0.95,1.84-1.82,2.84-2.61c2.16-1.7,4.54-3.07,6.77-4.67
						c0.97-0.7,1.97-1.38,2.6-2.44C133.56,218.79,133.28,218.3,132.23,218.32z"/>
					<path class="st9" d="M122.4,91.14c3.48,0.28,6.94,0.27,10.37-0.51c2.61-0.59,5.08-1.46,7.29-3.02c0.51-0.36,0.55-0.7,0.13-1.12
						c-0.19-0.19-0.39-0.4-0.62-0.53c-1.75-0.99-3.23-2.3-4.62-3.72c-1.22-1.24-2.51-1.36-3.96-0.42c-1.14,0.74-2.23,1.54-3.36,2.3
						c-2.86,1.91-5.96,3.46-8.73,5.52c-0.63,0.47-1.21,0.99-1.57,1.74c0.34,0.12,0.64,0.1,0.92,0.03
						C119.63,91.07,121.02,91.03,122.4,91.14z M132.22,86.03c0.48-0.25,0.99-0.42,1.52-0.54c0.3-0.07,0.49-0.01,0.62,0.22
						c0.16,0.28,0.02,0.54-0.21,0.71c-0.49,0.36-1.07,0.49-1.6,0.6c-0.34-0.02-0.64-0.04-0.73-0.36
						C131.75,86.36,131.95,86.17,132.22,86.03z"/>
					<path class="st9" d="M119.99,109.01c-0.23,0.37-0.03,0.55,0.16,0.77c0.9,1.02,1.89,1.96,2.98,2.79
						c5.29,4.03,11.3,5.22,17.77,4.38c4.01-0.52,7.74-1.99,11.35-3.76c0.5-0.25,0.58-0.5,0.36-1.01c-0.64-1.44-1.04-2.97-1.16-4.54
						c-0.24-3.2,0.75-6.04,2.63-8.61c1.38-1.9,3.06-3.55,4.51-5.38c2.67-3.38,4.23-7.21,4.67-11.5c0.32-3.12,0.18-6.18-0.87-9.16
						c-3.07-8.72-12.9-10.2-18.7-5.19c-4.12,3.56-5.53,8.27-5.13,13.64c0.13,1.68,0.73,2.73,2.2,3.63c2.3,1.41,2.57,3.25,1.2,5.59
						c-0.53,0.91-1.23,1.67-2,2.36c-2.94,2.63-6.39,3.53-10.26,3.08c-2.53-0.29-4.88-1.16-7.22-2.1c-1.04-0.42-2.07-0.78-3.28-0.5
						c0.47,1.44,0.95,2.87,1.41,4.31C121.83,101.62,122.23,105.39,119.99,109.01z M147.48,69.84c2.45-1.82,6.4-0.27,7.03,2.72
						c0.04,0.19,0.11,0.41-0.07,0.52c-0.19,0.12-0.35-0.03-0.49-0.17c-0.31-0.31-0.61-0.62-0.92-0.92c-1.52-1.48-3.32-1.76-5.2-0.81
						c-0.5,0.26-1,0.52-1.59,0.84C146.1,70.84,146.83,70.32,147.48,69.84z M145.76,75.54c0.78-2.13,3.83-3.84,6.05-1.92
						c0.92,0.8,1.48,1.86,1.55,3.05c0.13,2.19-0.3,4.27-1.83,5.97c-0.66,0.73-1.46,1.23-2.42,1.11c-1.52,0.07-2.52-0.59-3.11-1.89
						C145.06,79.79,144.99,77.65,145.76,75.54z"/>
					<path class="st9" d="M149.98,77.96c2.03,0,2.03-3.15,0-3.15C147.96,74.81,147.95,77.96,149.98,77.96z"/>
					<path class="st9" d="M123.92,92.82c1.16,0.59,2.37,1,3.61,1.32c3.94,1.03,7.64,0.67,10.9-1.97c1.09-0.88,2.08-1.87,2.57-3.37
						C135.69,92.07,129.92,92.89,123.92,92.82z"/>
					<path d="M211.3,207.56c-1.64-1.56-3.14-3.27-4.5-5.07c-5.65-7.48-8.84-16.02-10.84-25.08c-0.84-3.81-1.52-7.65-2-11.52
						c-0.37-2.99-0.76-5.98-1.1-8.97c-0.27-2.4-0.44-4.82-0.7-7.22c-0.34-3.1-0.74-6.2-1.1-9.3c-0.36-3.04-0.89-6.05-1.58-9.03
						c-0.37-1.61-0.95-3.18-1.18-4.8c-0.4-2.87-0.67-5.76-1.52-8.55c-1.53-5.02-4.08-9.28-8.89-11.83
						c-0.21-0.11-0.34-0.26-0.42-0.47c-0.82-2.22-1.52-4.45-1.49-6.87c0.04-2.54,0.42-5.04,0.55-7.57c0.2-3.92,0.27-7.83-0.35-11.73
						c-0.97-6.1-3.27-11.5-7.94-15.72c-0.4-0.36-0.42-0.68-0.25-1.12c1.71-4.36,3.13-8.82,5.15-13.06c0.09-0.18,0.16-0.37,0.23-0.55
						c1.56,0.25,3.22-0.45,3.98-1.87c0.81-1.51,0.57-3.53-0.78-4.66c-1.32-1.1-3.22-1.17-4.69-0.31c-0.76,0.45-1.35,1.14-1.61,1.99
						c-0.22,0.76-0.18,1.64,0.11,2.37c0.16,0.42,0.39,0.8,0.66,1.14c-0.08,0.05-0.16,0.11-0.24,0.16c-1.37,0.88-2.72,1.77-4.33,2.18
						c-1.67,0.42-2.71-0.1-3.22-1.72c-0.42-1.32-0.4-2.68-0.34-4.04c0.02-0.43,0.18-0.66,0.58-0.85c1.75-0.81,2.53-2.75,1.85-4.5
						c-0.71-1.8-2.71-2.79-4.52-2.24c-2.36,0.72-3.34,3.2-2.1,5.33c0.15,0.25,0.39,0.46,0.02,0.75c-1.42,1.09-2.82,2.23-4.48,2.95
						c-1.18,0.52-1.75,0.34-2.54-0.68c-1.4-1.79-2.4-3.8-3.17-5.93c-0.14-0.4-0.16-0.65,0.24-1c1.49-1.28,1.7-3.57,0.55-5.17
						c-1.09-1.52-3.32-1.96-4.96-0.98c-1.63,0.97-2.44,3.24-1.37,4.89c0.77,1.18,0.27,1.86-0.24,2.73c-0.22,0.37-0.44,0.75-0.69,1.1
						c-1.14,1.66-2.33,3.3-3.97,4.52c-1,0.74-1.26,0.71-2.16-0.14c-1.04-0.98-1.89-2.1-2.76-3.22c-0.23-0.3-0.23-0.46,0-0.75
						c0.78-1,0.99-2.13,0.74-3.38c-0.37-1.86-2.29-3.12-4.09-2.66c-1.4,0.36-2.39,1.14-2.78,2.56c-0.42,1.54,0,2.84,1.22,3.87
						c0.25,0.22,0.44,0.42,0.46,0.8c0.23,5.12,0.45,10.24,0.47,15.37c0,0.41-0.12,0.63-0.49,0.82c-4.19,2.06-7.08,5.38-8.9,9.61
						c-2.84,6.61-3.8,13.54-3.27,20.7c0.03,0.38-0.05,0.66-0.3,0.96c-0.56,0.67-1.08,1.37-1.58,2.08c-0.38,0.54-0.21,0.98,0.38,1.23
						c0.47,0.2,0.97,0.34,1.49,0.35c0.32,0,0.57,0.02,0.71,0.47c0.57,1.92,1.23,3.81,1.84,5.71c0.85,2.66,0.87,5.27-0.49,7.8
						c-0.87,1.61-2.05,3-3.18,4.43c-1.01,1.27-2.17,2.5-2.49,4.14c-0.17,0.86-0.59,1.54-1,2.26c-0.63,1.11-1.27,2.21-1.88,3.33
						c-0.57,1.05-1.2,2.07-2,2.96c-1.72,1.91-3.77,3.17-6.46,3.1c-0.73-0.02-1.25-0.24-1.53-1.02c-0.88-2.41-2.72-3.86-4.99-4.86
						c-1.51-0.66-1.48-0.65-0.95-2.3c0.21-0.64,0.49-0.88,1.19-0.92c1.81-0.09,3.64-0.17,5.33-0.94c2.94-1.33,4.58-3.81,5.78-6.66
						c0.21-0.5,0.44-0.99,0.49-1.54c0.06-0.69-0.43-1.17-1.1-1.06c-0.77,0.13-1.55,0.26-2.3,0.48c-3.19,0.92-6.12,2.26-7.99,5.21
						c-0.07,0.11-0.19,0.18-0.33,0.31c0.29-2.91,0.58-5.75,0.88-8.75c0.51,0.51,0.88,0.87,1.23,1.23c0.41,0.42,0.89,0.71,1.46,0.85
						c2.02,0.5,3.75-0.18,5.3-1.39c1.6-1.24,2.57-2.93,2.65-4.94c0.06-1.54-0.28-3.07-1.55-4.2c2.82-1.05,4.32-3.87,3.51-6.68
						c-0.49-1.71-1.36-3.22-2.88-4.22c-1.94-1.28-3.93-0.67-5.91,0.08c0.02-0.9,0.03-1.71-0.25-2.5c-0.75-2.1-2.36-3.1-4.45-3.43
						c-3.55-0.57-7.05,1.81-7.3,5.27c-0.04,0.54-0.01,1.08-0.01,1.61c-4.02-1.1-6.54,0.11-7.67,3.75c-0.49,1.6-0.49,3.22,0.21,4.77
						c0.9,1.99,2.8,2.5,4.95,3.14c-0.33,0.2-0.5,0.26-0.6,0.38c-0.97,1.16-1.65,2.42-1.33,4.01c0.61,3.04,2.72,4.47,5.53,5.16
						c1.67,0.41,3.17,0.12,4.49-1.03c0.15-0.13,0.23-0.38,0.54-0.33c0.02,2.76-0.5,5.45-0.9,8.35c-0.2-0.37-0.3-0.55-0.4-0.74
						c-1.58-2.79-3.72-4.9-6.92-5.79c-2.09-0.59-4.21-0.43-6.32-0.44c-0.32,0-0.67,0.12-0.81,0.46c-0.17,0.39,0.05,0.7,0.32,0.94
						c1.22,1.11,2.13,2.46,3.02,3.84c1.47,2.27,3.56,3.68,6.14,4.42c1.23,0.35,2.5,0.44,3.76,0.65c0.17,0.03,0.49-0.09,0.45,0.19
						c-0.09,0.61-0.21,1.24-0.45,1.8c-0.14,0.33-0.62,0.26-0.96,0.28c-1.56,0.11-2.95,0.65-4.23,1.51
						c-4.11,2.77-6.13,8.44-4.87,13.56c1.19,4.89,4.08,8.6,8.08,11.47c3.86,2.78,8.17,4.54,12.93,5.07c0.61,0.07,0.46,0.34,0.35,0.7
						c-1.42,4.86-2.58,9.78-3.38,14.78c-0.44,2.76-0.87,5.52-1.05,8.31c-0.1,1.49-0.1,3.01-0.4,4.47
						c-0.98,4.64-2.47,9.13-4.37,13.48c-2.44,5.57-5.52,10.72-10.04,14.9c-0.62,0.57-1.26,1.12-1.87,1.71
						c-0.93,0.9-0.91,1.71,0.1,2.53c0.52,0.43,1.09,0.83,1.68,1.15c2.4,1.29,4.92,2.33,7.64,2.58c2.51,0.22,4.96-0.16,6.69-2.34
						c0.13-0.16,0.29-0.25,0.46-0.31c1.38-0.49,2.79-0.85,4.24-1.06c2.76-0.4,5.53-0.28,8.31-0.22c2.53,0.06,4.36,1.56,6.65,2.37
						c-1.3,0.62-2.53,0.94-3.75,1.28c-3.76,1.06-7.45,2.28-10.85,4.25c-0.68,0.4-1.35,0.81-1.88,1.42
						c-0.29,0.34-0.43,0.72-0.26,1.13c0.16,0.37,0.54,0.38,0.9,0.43c1.28,0.16,2.56,0.02,3.84,0.09c1.55,0.08,2.02,0.91,1.25,2.26
						c-0.35,0.61-0.78,1.17-1.15,1.77c-0.2,0.32-0.25,0.68-0.03,1c0.24,0.35,0.62,0.3,0.97,0.23c0.32-0.06,0.63-0.16,0.95-0.22
						c2.26-0.46,4.51-1.01,6.84-0.87c2.05,0.12,4.07,0.37,4.71,2.87c0.19,0.74,0.79,0.87,1.42,0.66c0.31-0.11,0.59-0.39,0.83-0.64
						c1.54-1.56,3.22-2.93,4.99-4.21c2.12-1.52,4.4-2.8,6.41-4.48c1.29-1.08,2.48-2.25,2.39-4.13c-0.02-0.43,0.25-0.4,0.53-0.4
						c0.98,0,1.95-0.14,2.92-0.28c1.61-0.23,3.21-0.55,4.83-0.68c3.61-0.29,6.86,1.16,10.24,2.21c-0.55,0.86-1.2,1.5-1.9,2.11
						c-2.03,1.74-4.32,3.11-6.49,4.66c-1.65,1.18-3.16,2.51-4.2,4.29c-0.53,0.91-0.16,1.49,0.87,1.45c1.28-0.05,2.55-0.23,3.83-0.18
						c1.69,0.07,2.93,0.97,3.47,2.57c0.22,0.65,0.28,1.32,0.32,2c0.04,0.96,0.52,1.21,1.34,0.76c0.5-0.27,0.98-0.58,1.47-0.87
						c2.22-1.34,4.59-2.05,7.21-1.84c1.28,0.11,2.44,0.53,3.12,1.65c1.06,1.78,1.55,1,2.41-0.01c0.05-0.06,0.09-0.14,0.13-0.21
						c2.03-3.03,3.26-6.4,4.09-9.92c0.58-2.47,0.95-4.97,0.01-7.45c-0.08-0.2-0.02-0.33,0.15-0.38c0.98-0.28,1.81-0.89,2.91-0.9
						c6.98-0.08,13.83,2.11,20.82,1.62c3.86-0.27,7.66-1.19,11.27-2.55c1.87-0.7,3.69-1.53,5.45-2.47c1.12-0.59,3.26-0.9,3.74-2.18
						c0.01-0.02,0.02-0.04,0.02-0.07C214.57,209.7,212.37,208.58,211.3,207.56z M172.2,44.81c0.01-0.05,0.03-0.09,0.05-0.17
						c0.04-0.07,0.08-0.17,0.14-0.25c0.03-0.03,0.06-0.07,0.09-0.1c0.06-0.06,0.12-0.11,0.18-0.17c0.02-0.02,0.01-0.02,0.02-0.02
						c0.01-0.01,0.01,0,0.04-0.02c0.07-0.04,0.13-0.09,0.2-0.13c0.04-0.03,0.09-0.05,0.13-0.07c0.01-0.01,0.03-0.02,0.06-0.03
						c0.1-0.05,0.23-0.08,0.34-0.11c0.07-0.02,0.15-0.04,0.22-0.05c0.01,0,0.03-0.01,0.05-0.01c0.13-0.04,0.31-0.02,0.44-0.02
						c0.05,0,0.1,0.01,0.15,0.01c0.01,0,0.02,0,0.03,0c0.12,0.03,0.24,0.05,0.36,0.09c0.05,0.02,0.11,0.04,0.17,0.06
						c0.03,0.02,0.06,0.04,0.07,0.04c0.07,0.04,0.13,0.08,0.19,0.12c0.02,0.01,0.02,0.01,0.04,0.03c0.1,0.09,0.19,0.18,0.29,0.3
						c0.03,0.06,0.07,0.11,0.11,0.17c0.04,0.07,0.08,0.14,0.12,0.23c0,0.01,0,0.02,0.01,0.03c0.04,0.13,0.07,0.26,0.1,0.39
						c0,0.08,0.01,0.15,0.01,0.23c0,0.06,0,0.13-0.01,0.19c0,0.01,0,0.03,0,0.04c-0.01,0.13-0.06,0.28-0.1,0.4
						c-0.02,0.05-0.04,0.11-0.06,0.16c-0.02,0.03-0.04,0.07-0.04,0.08c-0.04,0.07-0.07,0.13-0.11,0.19
						c-0.02,0.03-0.04,0.06-0.07,0.1c-0.09,0.09-0.18,0.22-0.3,0.29c-0.45,0.25-1.06,0.43-1.58,0.3c-0.07-0.02-0.14-0.04-0.2-0.06
						c-0.05-0.02-0.09-0.03-0.13-0.05c0.04,0.01,0.07,0.03,0.11,0.04c-0.11,0-0.29-0.15-0.38-0.21c-0.01-0.01-0.04-0.03-0.07-0.05
						c-0.02-0.02-0.05-0.04-0.07-0.06c-0.09-0.08-0.17-0.17-0.27-0.28c-0.04-0.06-0.08-0.12-0.12-0.19
						c-0.04-0.06-0.07-0.13-0.12-0.23c-0.04-0.12-0.08-0.23-0.11-0.36c-0.01-0.06-0.02-0.11-0.03-0.17c0-0.15,0-0.29,0-0.46
						C172.17,44.95,172.18,44.88,172.2,44.81z M102.44,110.76c0.63-0.24,1.28-0.44,1.93-0.63c0.35-0.1,0.51-0.01,0.35,0.42
						c-1.19,3.28-3.34,5.47-6.87,6.1c-0.8,0.14-1.61,0.22-2.54,0.34C96.88,113.88,99.32,111.93,102.44,110.76z M94.66,98.16
						c-1.54,0.02-2.89-1.2-2.9-2.61c-0.01-1.52,1.31-2.8,2.9-2.79c1.58,0,2.62,1.06,2.62,2.67C97.28,96.96,96.16,98.14,94.66,98.16z
						 M100.75,105.84c-1.4,0.15-2.4-0.55-3.17-1.62c-0.97-1.34-1.38-2.92-1.75-4.5c-0.06-0.27,0-0.51,0.3-0.57
						c0.41-0.08,0.71-0.69,1.21-0.26c0.44,0.37,0.85,0.76,1.28,1.14c0.19,0.16,0.39,0.31,0.65,0.1c0.29-0.23,0.09-0.43-0.04-0.62
						c-0.3-0.42-0.64-0.82-0.89-1.26c-0.13-0.23-0.55-0.41-0.23-0.83c0.27-0.36,0.49-0.68,1.02-0.58c1.39,0.26,2.76,0.57,3.97,1.33
						c1.15,0.72,1.72,1.77,1.72,3.13C104.8,103.39,102.81,105.63,100.75,105.84z M100.41,88.37c1.2-0.84,2.5-1.45,3.93-0.68
						c1.51,0.82,2.47,2.13,2.57,3.89c0.13,2.31-1.17,3.71-3.67,4.11c-0.73,0.12-1.45,0.22-2.05,0.16c-0.76,0-1.38,0-2-0.13
						c-0.33-0.07-0.41-0.17-0.48-0.49c-0.24-1.14-0.26-1.13,0.85-1.51c0.35-0.12,1-0.09,0.91-0.59c-0.09-0.54-0.69-0.17-1.05-0.21
						c-0.31-0.03-0.64,0.07-0.96,0.14c-0.6,0.13-0.68-0.43-0.96-0.71c-0.26-0.26-0.02-0.5,0.14-0.72
						C98.47,90.48,99.2,89.22,100.41,88.37z M93.26,82.45c0.72-0.13,1.47-0.13,2.18,0.06c1.67,0.44,2.49,1.59,2.48,3.84
						c-0.09,1.46-0.65,3.19-1.44,4.88c-0.24,0.51-0.53,0.19-0.79,0.2c-0.34,0.01-0.66-0.05-0.71-0.49c-0.04-0.35-0.1-0.7-0.19-1.04
						c-0.05-0.21-0.13-0.43-0.41-0.43c-0.3,0-0.34,0.21-0.37,0.44c-0.05,0.27-0.18,0.54-0.15,0.79c0.08,0.78-0.52,0.83-1.01,1.03
						c-0.55,0.22-0.62-0.29-0.84-0.55c-0.86-1.06-1.47-2.26-1.99-3.52C89.07,85.36,90.65,82.93,93.26,82.45z M84.81,96.77
						c-2.83-0.72-3.57-2.91-2.49-5.67c0.78-2,2.33-2.77,4.28-2.23c0.9,0.25,1.72,0.71,2.41,1.31c0.76,0.66,1.5,1.34,2.09,2.18
						c0.18,0.26,0.36,0.44,0.13,0.77c-0.22,0.32-0.45,0.52-0.87,0.44c-0.43-0.08-0.86-0.13-1.29-0.19
						c-0.23-0.03-0.42-0.06-0.49,0.26c-0.06,0.27,0.13,0.32,0.28,0.41c0.14,0.08,0.3,0.12,0.45,0.18c1.19,0.49,1.32,0.76,1.1,2.02
						c-0.06,0.34-0.29,0.38-0.51,0.41c-1.05,0.15-2.1,0.27-3.15,0.4C86.09,97.06,85.44,96.93,84.81,96.77z M92.43,105.72
						c-0.63,0.66-1.38,1.04-2.34,0.99c-1.83-0.26-3.48-0.89-4.34-2.68c-0.76-1.59-0.21-3.41,1.27-4.49
						c1.06-0.77,2.24-1.31,3.46-1.76c0.77-0.29,0.88,0.46,1.3,0.72c0.43,0.27,0,0.52-0.1,0.74c-0.18,0.42-0.42,0.82-0.65,1.22
						c-0.14,0.23-0.08,0.4,0.11,0.56c0.24,0.21,0.4,0.04,0.54-0.13c0.31-0.38,0.63-0.75,0.91-1.15c0.29-0.43,0.57-0.53,1.13-0.47
						c0.74,0.07,0.84,0.35,0.77,0.95C94.25,102.2,93.9,104.17,92.43,105.72z M82.06,110.13c3.56-0.15,8.57,2.7,9.92,6.75
						C88.39,117.61,83.99,114.64,82.06,110.13z M161.88,38.57c0.99,0.02,1.69,0.72,1.69,1.69c0,0.93-0.7,1.59-1.67,1.59
						c-0.94,0-1.78-0.77-1.78-1.63C160.12,39.34,160.97,38.54,161.88,38.57z M146.34,33.49c0.94,0.02,1.67,0.82,1.67,1.84
						c0,0.96-0.73,1.73-1.66,1.76c-0.97,0.03-1.79-0.82-1.78-1.84C144.58,34.28,145.39,33.47,146.34,33.49z M134.71,46.63
						c1.44,1.39,2.73,1.48,4.37,0.3c2.47-1.77,4.16-4.18,5.66-6.76c0.15-0.26,0.28-0.52,0.44-0.78c0.14-0.23,0.24-0.45,0.62-0.38
						c0.35,0.06,0.57,0.14,0.7,0.51c0.62,1.85,1.52,3.58,2.5,5.27c0.47,0.8,1.04,1.52,1.71,2.17c1.24,1.22,2.63,1.38,4.18,0.69
						c1.95-0.88,3.62-2.18,5.29-3.48c0.19-0.15,0.38-0.42,0.61-0.33c0.32,0.12,0.14,0.48,0.15,0.73c0.04,1.58,0.17,3.14,0.65,4.66
						c0.87,2.77,2.71,3.27,5.22,2.83c1.29-0.22,2.41-0.89,3.69-1.54c-1.44,3.82-2.82,7.49-4.18,11.16
						c-0.16,0.44-0.35,0.47-0.74,0.27c-4.65-2.4-9.6-3.92-14.73-4.82c-4.54-0.79-9.12-1.11-13.73-0.68
						c-1.67,0.16-3.34,0.35-4.98,0.76c-0.6,0.15-0.78-0.09-0.79-0.64c-0.04-1.17-0.08-2.34-0.14-3.51
						c-0.17-3.29-0.26-6.59-0.38-9.88c-0.01-0.24,0-0.47,0-0.92c0.72,0.85,1.32,1.53,1.88,2.25C133.3,45.26,134,45.95,134.71,46.63z
						 M128.9,38.62c0.03-0.79,0.85-1.52,1.71-1.52c0.89,0,1.37,0.53,1.37,1.53c0,0.99-0.55,1.67-1.37,1.69
						C129.69,40.34,128.87,39.51,128.9,38.62z M131.27,59.67c2.09-0.75,4.27-0.98,6.47-1.12c2.53-0.17,5.06-0.21,7.6-0.01
						c6.82,0.52,13.4,1.91,19.36,5.47c3.72,2.23,6.06,5.57,7.49,9.56c2.09,5.83,2.49,11.86,2.06,18c-0.22,3.14-0.83,6.26-0.55,9.44
						c0.12,1.41,0.56,2.75,0.94,4.14c-1.35,0.17-2.67-0.02-4,0.16c-2.91,0.4-5.63,1.33-8.22,2.65c-2.4,1.22-4.75,2.51-7.11,3.8
						c-0.61,0.34-0.87,0.28-1.17-0.39c-1.95-4.4-1.22-8.35,1.86-11.95c1.59-1.86,3.39-3.54,4.82-5.55c2.4-3.39,3.84-7.12,4.25-11.27
						c0.38-3.92,0.2-7.77-1.35-11.44c-1.96-4.64-5.38-7.57-10.42-8.16c-5.9-0.7-10.47,1.63-13.64,6.68c-1.75,2.79-2.51,5.85-2.6,9.1
						c-0.03,1.01,0,2.02,0,3.23c-1.56-1.77-3.19-2.89-5.57-2.04c0.26-1.39,0.54-2.68,0.74-3.98c0.41-2.67,0.66-5.34,0.09-8.03
						c-0.7-3.32-2.46-4.92-5.91-5.24C127.84,61.32,129.44,60.32,131.27,59.67z M118.69,80.31c0.26-3.66,1.14-7.15,2.64-10.49
						c0.45-0.99,0.95-1.95,1.55-2.86c1.28-1.93,4.31-2.61,6.13-1.38c1.33,0.9,1.82,2.3,1.96,3.78c0.36,3.81-0.38,7.51-1.27,11.19
						c-0.07,0.28-0.22,0.42-0.41,0.56c-3.36,2.45-7.05,4.39-10.56,6.61c-0.04,0.02-0.1,0.01-0.17,0.01
						C118.25,85.25,118.52,82.78,118.69,80.31z M118.26,91.4c-0.28,0.07-0.58,0.09-0.92-0.03c0.36-0.75,0.94-1.27,1.57-1.74
						c2.77-2.06,5.87-3.6,8.73-5.52c1.13-0.75,2.22-1.56,3.36-2.3c1.45-0.94,2.74-0.82,3.96,0.42c1.4,1.42,2.88,2.73,4.62,3.72
						c0.23,0.13,0.43,0.34,0.62,0.53c0.42,0.42,0.38,0.76-0.13,1.12c-2.21,1.55-4.68,2.42-7.29,3.02
						c-3.43,0.78-6.89,0.78-10.37,0.51C121.02,91.03,119.63,91.07,118.26,91.4z M141.01,88.81c-0.49,1.5-1.48,2.49-2.57,3.37
						c-3.27,2.64-6.97,2.99-10.9,1.97c-1.24-0.32-2.44-0.74-3.61-1.32C129.92,92.89,135.69,92.07,141.01,88.81z M119.2,93.49
						c1.21-0.28,2.24,0.08,3.28,0.5c2.33,0.94,4.69,1.81,7.22,2.1c3.87,0.45,7.33-0.45,10.26-3.08c0.77-0.69,1.47-1.45,2-2.36
						c1.36-2.34,1.09-4.18-1.2-5.59c-1.47-0.9-2.07-1.95-2.2-3.63c-0.4-5.37,1.01-10.08,5.13-13.64c5.8-5.01,15.63-3.54,18.7,5.19
						c1.05,2.98,1.19,6.04,0.87,9.16c-0.44,4.3-2,8.13-4.67,11.5c-1.45,1.84-3.13,3.48-4.51,5.38c-1.87,2.57-2.87,5.4-2.63,8.61
						c0.12,1.58,0.52,3.1,1.16,4.54c0.23,0.51,0.15,0.77-0.36,1.01c-3.61,1.77-7.34,3.24-11.35,3.76
						c-6.47,0.85-12.48-0.34-17.77-4.38c-1.09-0.83-2.08-1.76-2.98-2.79c-0.19-0.22-0.39-0.4-0.16-0.77
						c2.23-3.62,1.84-7.4,0.62-11.21C120.15,96.36,119.68,94.93,119.2,93.49z M115.84,114.65c0.81-1.16,1.74-2.23,2.57-3.37
						c0.32-0.44,0.47-0.3,0.77,0c3.41,3.57,7.53,5.9,12.32,7.07c2.67,0.65,5.37,0.72,8.09,0.47c5.85-0.54,11.14-2.77,16.31-5.38
						c3.26-1.64,6.42-3.52,9.95-4.56c2.16-0.64,4.35-1.11,6.63-1.09c3.63,0.03,6.49,1.51,8.72,4.33c1.84,2.34,3.12,4.94,3.62,7.89
						c0.02,0.13,0,0.27,0,0.62c-2.05-2.91-4.74-4.61-7.96-5.44c-3.72-0.96-7.38-0.48-10.96,0.73c-3.93,1.33-7.61,3.24-11.4,4.92
						c-4.2,1.86-8.52,3.31-13.07,3.96c-6.26,0.9-12.33,0.07-18.22-2.17c-2.42-0.92-4.68-2.14-6.71-3.77
						C114.87,117.57,114.64,116.36,115.84,114.65z M102.78,150.72c-2.21-0.21-4.27-0.94-6.29-1.8c-4.32-1.84-8-4.48-10.57-8.5
						c-1.51-2.35-2.49-4.91-2.37-7.73c0.18-4.16,2.12-7.8,6.1-9.39c2.93-1.17,6.92,0.54,8.36,3.05c0.78,1.36,0.48,2.25-0.96,2.96
						c-1.2,0.58-2.5,0.85-3.76,1.26c-2.08,0.66-3.53,1.97-4.32,4c-0.13,0.33-0.29,0.74,0.06,0.97c0.33,0.22,0.56-0.17,0.79-0.37
						c0.35-0.3,0.71-0.59,1.2-1c0.09,2.64,0.37,5.08,1.02,7.46c0.35,1.28,0.69,2.56,1.38,3.71c0.3,0.51,0.68,0.78,1.27,0.52
						c0.62-0.27,0.74-0.75,0.52-1.35c-0.68-1.85-1.4-3.69-1.77-5.64c-0.35-1.88-0.49-3.77-0.6-5.67c-0.03-0.49,0.2-0.68,0.59-0.83
						c1.29-0.5,2.64-0.79,3.96-1.16c0.99-0.27,1.89-0.7,2.46-1.6c0.16-0.26,0.31-0.24,0.53-0.2c2.52,0.52,4.77-0.22,6.9-1.5
						c0.11-0.06,0.19-0.19,0.38-0.12c-0.87,2.95-1.65,5.92-2.13,8.96c-0.38,2.41-0.73,4.82-1.08,7.24
						c-0.29,2.01-0.58,4.02-0.87,6.04C103.54,150.53,103.35,150.77,102.78,150.72z M101.71,201.09c-1.26,3.96-2.81,7.78-5.01,11.32
						c-1.57,2.54-3.22,3.23-6.12,2.6c-1.95-0.42-3.76-1.18-5.46-2.24c-0.54-0.33-0.7-0.54-0.14-1.09c3.29-3.2,6.18-6.72,8.42-10.75
						c2.22-3.99,3.82-8.23,5.17-12.58c0.07-0.23,0.14-0.46,0.21-0.68c0.62,4,1.46,7.87,2.85,11.62
						C101.86,199.9,101.91,200.45,101.71,201.09z M133,219.72c-0.63,1.05-1.63,1.74-2.6,2.44c-2.23,1.6-4.61,2.97-6.77,4.67
						c-1.01,0.79-1.94,1.66-2.84,2.61c-0.99-2.06-2.85-2.48-4.8-2.77c-1.9-0.28-3.78-0.05-5.85,0.19c0.99-0.94,1.99-1.58,2.96-2.25
						c1.81-1.25,3.64-2.47,5.53-3.59c0.14-0.08,0.27-0.18,0.4-0.27c0.12-0.08,0.19-0.2,0.14-0.35c-0.06-0.17-0.21-0.14-0.34-0.13
						c-0.72,0.02-1.37,0.31-2,0.61c-2.57,1.19-4.95,2.7-7.24,4.36c-0.08,0.06-0.17,0.12-0.32,0.22c-0.06-1.07-0.28-2-1.21-2.57
						c-0.83-0.5-1.74-0.7-2.93-0.64c1.53-1.02,3.02-1.62,4.55-2.12c2.77-0.9,5.62-1.61,8.31-2.69c1.46-0.58,2.67-0.61,4.15-0.19
						c3.28,0.95,6.68,1.14,10.09,1.07C133.28,218.3,133.56,218.79,133,219.72z M137.52,216.21c-1.73,0.19-3.47,0.35-5.21,0.31
						c-6.15-0.02-12-1.23-17.33-4.47c-5.34-3.25-8.72-8.07-10.99-13.76c-1.38-3.46-2.19-7.06-2.65-10.76
						c-0.49-3.88-0.56-7.78-0.27-11.66c0.69-9.27,2.7-18.25,6.33-26.83c1.08-2.56,1.33-5.14,0.84-7.87
						c-0.41-2.29-0.3-4.63,0.05-6.92c0.75-4.98,2.41-9.65,5.01-13.98c0.11-0.19,0.22-0.37,0.33-0.56c0.17-0.3,0.32-0.36,0.61-0.09
						c4.03,3.73,9.04,5.33,14.23,6.51c3.47,0.79,7.01,1.02,10.54,0.79c5.11-0.33,10.04-1.58,14.78-3.51
						c0.98-0.4,1.96-0.78,2.93-1.19c0.34-0.15,0.54-0.21,0.72,0.25c0.7,1.89,1.71,3.62,2.83,5.29c1.12,1.66,1.23,3.55,1.22,5.47
						c-0.03,6.18-3.14,10.81-7.51,14.79c-4.02,3.65-7.33,7.81-9.12,13.01c-1.29,3.73-1.68,7.51-0.12,11.28
						c0.53,1.29,1.22,2.48,2.23,3.47c1.76,1.71,3.57,1.69,5.37-0.02c1.65-1.57,2.88-3.48,4.32-5.21c1.76-2.13,3.87-3.81,6.32-5.07
						c0.37-0.19,0.47-0.11,0.59,0.28c1.06,3.73,1.85,7.51,2.3,11.37c0.32,2.74,0.56,5.48,0.46,8.23c-0.2,5.56-1.17,10.95-3.96,15.86
						c-2.97,5.24-7.4,8.9-12.75,11.53C145.8,214.63,141.76,215.75,137.52,216.21z M162.46,139.25c0.48-1.48,0.72-3,0.77-4.55
						c0.04-1.05,0.12-2.1,0.19-3.28c1.24,1.03,2.21,2.16,3.14,3.31c3.79,4.67,5.88,10.12,7.13,15.93c0.36,1.69,0.65,3.4,0.96,5.11
						c0.12,0.68,0.04,1.17-0.68,1.59c-2.77,1.61-5.58,3.14-8.56,4.31c-4.83,1.9-8.61,5.09-11.61,9.28c-0.82,1.15-1.7,2.27-2.78,3.2
						c-0.99,0.85-1.61,0.86-2.56-0.04c-1.45-1.37-2.28-3.1-2.57-5.05c-0.73-4.89,0.97-9.12,3.63-13.07c1.75-2.6,4.04-4.69,6.32-6.81
						C158.82,146.4,161.19,143.18,162.46,139.25z M167.66,226c-0.68,2.9-2.23,6.6-3.54,8.34c-1.44-1.62-3.35-1.84-5.36-1.83
						c-2.02,0.01-3.9,0.59-5.78,1.45c-0.05-0.49,0.24-0.8,0.42-1.12c1.23-2.14,2.49-4.26,3.71-6.4c0.17-0.3,0.67-0.75,0.24-1.04
						c-0.34-0.23-0.63,0.33-0.86,0.59c-1.96,2.33-3.74,4.79-5.16,7.62c-1.04-3.51-3.79-3.99-6.95-4.02
						c1.44-1.58,3.03-2.67,4.63-3.75c1.95-1.33,4.01-2.54,5.57-4.36c0.28-0.33,0.61-0.67,0.73-1.06c0.21-0.68,0.67-0.67,1.2-0.6
						c3.53,0.46,6.99,0.08,10.39-0.88c0.64-0.18,0.8-0.01,0.94,0.55C168.4,221.67,168.16,223.83,167.66,226z M181.14,205.75
						c-3.72,6.05-9.06,9.83-15.97,11.42c-2.5,0.57-5.05,0.8-7.61,0.63c-2.71-0.19-5.34-0.86-7.92-1.68
						c-0.55-0.17-1.11-0.32-1.84-0.54c0.95-0.45,1.76-0.8,2.54-1.2c5.38-2.76,10.12-6.25,13.28-11.56
						c2.15-3.61,3.39-7.52,4.04-11.65c0.62-3.98,0.64-7.98,0.28-11.97c-0.44-4.81-1.51-9.51-2.94-14.12
						c-0.18-0.57-0.12-0.78,0.45-1.02c3.01-1.23,5.82-2.87,8.65-4.46c0.94-0.53,0.95-0.5,1.08,0.62c0.35,3.05,0.77,6.08,1.1,9.13
						c0.32,2.89,0.54,5.79,0.86,8.68c0.33,2.91,0.72,5.82,1.09,8.73c0.42,3.33,0.91,6.66,1.52,9.96c0.5,2.69,0.99,5.37,1.54,8.05
						C181.38,205.15,181.33,205.44,181.14,205.75z M187.73,215.5c-0.22-0.4-0.43-0.81-0.63-1.22c-2-4.18-3.15-8.62-4.08-13.13
						c-0.87-4.25-1.51-8.54-2.08-12.83c-0.45-3.36-0.88-6.73-1.21-10.1c-0.36-3.76-0.86-7.5-1.26-11.26
						c-0.33-3.16-0.75-6.3-1.17-9.45c-0.98-7.28-2.81-14.27-6.76-20.58c-1.39-2.23-3.06-4.24-4.88-6.11
						c-2.62-2.69-4.88-5.62-6.43-9.06c-0.21-0.47-0.22-0.7,0.26-0.93c3.51-1.66,7.08-3.23,10.97-3.62
						c5.91-0.59,10.56,1.09,14.01,7.11c1.92,3.35,2.88,7.05,3.62,10.8c0.85,4.32,1.31,8.69,1.67,13.08
						c0.34,4.25,0.7,8.51,1.15,12.75c0.87,8.39,2.18,16.7,4.57,24.81c2.05,6.93,5.21,13.31,9.66,19.03
						c1.51,1.94,3.21,3.66,5.05,5.24C203.48,214.15,195.53,215.4,187.73,215.5z"/>
					<path d="M149.1,83.76c0.97,0.12,1.77-0.38,2.42-1.11c1.53-1.7,1.96-3.78,1.83-5.97c-0.07-1.18-0.62-2.25-1.55-3.05
						c-2.21-1.92-5.27-0.21-6.05,1.92c-0.77,2.11-0.7,4.25,0.23,6.33C146.58,83.17,147.57,83.82,149.1,83.76z M149.98,74.81
						c2.03,0,2.03,3.15,0,3.15C147.95,77.96,147.96,74.81,149.98,74.81z"/>
					<path d="M147.83,71.18c1.88-0.96,3.68-0.68,5.2,0.81c0.31,0.3,0.61,0.61,0.92,0.92c0.14,0.14,0.3,0.3,0.49,0.17
						c0.18-0.12,0.11-0.34,0.07-0.52c-0.63-2.99-4.58-4.54-7.03-2.72c-0.65,0.48-1.38,1-1.25,2.18
						C146.83,71.7,147.32,71.43,147.83,71.18z"/>
					<path d="M144.15,54.54c1.17,0.22,2.12-0.32,2.84-1.23c0.71-0.9,1.08-1.93,1.01-3.11c0.06-0.93-0.16-1.81-0.66-2.61
						c-1.12-1.81-3.37-2.02-4.74-0.4c-1.16,1.37-1.5,3.01-1.06,4.73C141.89,53.25,142.72,54.27,144.15,54.54z M142.74,50.8
						c0.06-1.09,0.25-1.88,0.88-2.52c0.72-0.74,1.66-0.7,2.33,0.1c1,1.19,0.66,3.41-0.64,4.26c-0.76,0.5-1.93,0.11-2.31-0.8
						C142.82,51.44,142.69,51.02,142.74,50.8z"/>
					<path d="M126.67,81.13c1.61-1.53,2.2-4.81,1.29-7.07c-0.67-1.65-1.98-2.13-3.54-1.28c-0.53,0.29-0.98,0.69-1.32,1.19
						c-0.8,1.15-1.16,2.44-1.11,3.88c-0.03,0.72,0.05,1.46,0.3,2.2C123.02,82.14,125.07,82.65,126.67,81.13z M125.85,73.56
						c2.03,0,2.03,3.15,0,3.15C123.82,76.71,123.83,73.56,125.85,73.56z"/>
					<path d="M123.37,71c1.59-1.17,2.57-1.13,4.12,0.18c0.06,0.05,0.12,0.11,0.18,0.17c0.11,0.1,0.23,0.15,0.37,0.07
						c0.14-0.08,0.16-0.21,0.15-0.35c0-1.11-1.26-2.37-2.67-2.38c-1.03,0.09-1.99,0.73-2.6,1.9c-0.11,0.21-0.44,0.46-0.16,0.69
						C123,71.46,123.18,71.14,123.37,71z"/>
					<path d="M132.55,87.03c0.52-0.11,1.1-0.24,1.6-0.6c0.24-0.17,0.37-0.43,0.21-0.71c-0.13-0.23-0.32-0.29-0.62-0.22
						c-0.53,0.12-1.04,0.29-1.52,0.54c-0.26,0.14-0.47,0.33-0.39,0.64C131.91,86.98,132.21,87.01,132.55,87.03z"/>
				</g>
				<g>
					<path class="st3" d="M149.52,176.08C149.51,176.09,149.51,176.09,149.52,176.08C149.51,176.09,149.51,176.08,149.52,176.08
						c-0.22-0.02-0.43-0.04-0.66-0.09c-1.1-0.24-1.75-1.32-1.76-2.37c-3.47-4.27-2.51-10.78-0.23-15.61
						c1.5-3.17,3.91-5.72,6.35-8.19c1.46-1.47,2.63-3.41,4.27-4.73c-0.95-2.51-2.71-4.65-5.01-6.07
						c-4.59-2.83-10.63-2.85-15.26-0.09c-4.08,2.43-6.63,6.82-7.03,11.47c-2.93-2.39-6.87-3.47-10.63-2.82
						c-4.84,0.84-8.93,4.59-10.51,9.2c-1.67,4.87-0.39,10.47,2.97,14.33c1.76,2.02,4.02,3.4,6.37,4.61
						c2.78,1.43,5.58,2.79,8.29,4.37c5.89,3.45,11.41,7.5,16.49,12.06c0.46,0.41,1.35,0.13,1.52-0.45c0.93-3.2,2.35-6.21,3.75-9.22
						c1.03-2.2,1.98-4.43,2.89-6.68C150.77,176.01,150.18,176.13,149.52,176.08z"/>
					<path class="st7" d="M148.86,176c-1.1-0.24-1.75-1.32-1.76-2.37c-1.02-1.25-1.65-2.7-1.98-4.24
						c-1.03,3.55-1.99,7.11-2.89,10.69c-0.55,2.16-1.45,4.5-1.58,6.74c-0.1,1.72,0.76,3.21,2.48,3.6c0.4,0.09,0.93-0.25,1.04-0.63
						c0.99-3.37,2.1-6.7,3.29-9.99c0.05-0.06,0.11-0.11,0.16-0.19c0.04-0.07,0.08-0.15,0.12-0.23c0,0,0,0,0,0
						c0-0.01,0-0.01,0.01-0.02c0.58-1.08,1.11-2.18,1.6-3.29C149.19,176.05,149.03,176.04,148.86,176z"/>
					<path class="st7" d="M147.72,143.28c1.6,1.58,2.67,3.48,2.81,5.75c0.09,1.38-0.1,2.76-0.4,4.11c0.98-1.15,2.02-2.24,3.08-3.31
						c1.11-1.13,2.06-2.52,3.18-3.71c-0.46-1.41-1.21-2.72-2.35-3.82c-1.41-1.36-3.15-2.41-4.86-3.35c-1.71-0.94-3.46-1.54-5.42-1.4
						c-0.61,0.04-0.85,0.51-0.81,0.98c-2.34-0.39-4.75,0.08-6.65,1.81c-0.95,0.86,0.31,2.42,1.27,1.55
						C140.69,139.05,145.06,140.63,147.72,143.28z"/>
					<path class="st8" d="M122.3,153.67c-0.28-1.41-1.45-2.19-2.84-2.09c-3.24,0.23-5.43,3.38-6.54,6.13
						c-0.61,1.52-0.87,3.33-0.21,4.87c0.39,0.91,1.14,1.72,2.08,2.08c0.52,0.2,1.13,0.26,1.68,0.18c0.86-0.13,1.55-0.62,2.11-1.26
						c0.56-0.64,0.79-1.48,1.1-2.25c0.23-0.58,0.51-1.13,0.79-1.69c0.57-1.01,1.22-1.98,1.96-2.88
						C123.15,155.91,123.02,154.51,122.3,153.67z"/>
					<path class="st8" d="M124.33,166.43c-0.19-0.24-0.43-0.47-0.69-0.64c-0.54-0.35-0.83-0.44-1.45-0.57
						c-0.3-0.06-0.62-0.05-0.92,0c-0.13,0.02-0.28,0.08-0.38,0.11c-0.09,0.03-0.26,0.07-0.38,0.11c-0.03,0.01-0.05,0.03-0.08,0.04
						c-0.19,0.12-0.38,0.23-0.57,0.35c-0.01,0.01-0.03,0.02-0.04,0.03c-0.09,0.07-0.21,0.22-0.26,0.27
						c-0.02,0.02-0.05,0.05-0.08,0.08c-0.05,0.03-0.11,0.07-0.16,0.1c-0.34,0.28-0.59,0.63-0.75,1.04c-0.05,0.21-0.1,0.41-0.15,0.62
						c-0.05,0.45,0.02,0.88,0.2,1.29c0.44,0.91,1.05,1.71,1.84,2.35c0.24,0.19,0.55,0.34,0.82,0.46c0.47,0.2,1.03,0.26,1.54,0.19
						c0.5-0.06,1.05-0.3,1.43-0.63c0.19-0.17,0.38-0.35,0.51-0.57c0.31-0.48,0.39-0.73,0.5-1.29c0.08-0.43,0.02-0.91-0.07-1.34
						C125.04,167.7,124.8,167.01,124.33,166.43z"/>
					<path class="st8" d="M140.98,145.04c-0.22-0.24-0.48-0.42-0.8-0.53c-0.41-0.16-0.83-0.2-1.27-0.14
						c-0.58,0.05-1.09,0.28-1.57,0.58c-0.32,0-0.64,0.06-0.94,0.21c-0.19,0.12-0.38,0.23-0.57,0.35c-0.34,0.28-0.59,0.63-0.75,1.04
						c-0.13,0.26-0.24,0.53-0.32,0.8c-0.13,0.46-0.26,0.94-0.31,1.41c-0.02,0.14-0.02,0.28-0.03,0.43c0,0.35-0.03,0.73,0.05,1.07
						c0.06,0.26,0.13,0.54,0.23,0.79c0.1,0.26,0.27,0.51,0.43,0.73c0.19,0.27,0.44,0.5,0.71,0.68c0.44,0.3,0.9,0.47,1.42,0.54
						c0.25,0.03,0.51,0.02,0.76-0.01c0.03,0,0.06-0.01,0.09-0.02c0.21-0.06,0.43-0.13,0.64-0.19c0.02-0.01,0.05-0.02,0.07-0.03
						c0.63-0.29,1.11-0.78,1.5-1.34c0.27-0.38,0.48-0.8,0.69-1.21c0.12-0.24,0.23-0.49,0.31-0.74c0.25-0.75,0.43-1.56,0.42-2.36
						c0.05-0.45-0.02-0.88-0.2-1.29C141.44,145.51,141.25,145.25,140.98,145.04z"/>
					<path class="st1" d="M122.64,151.97c-5.38-0.59-8.68,4.94-8.45,9.73c0.11,2.39,1.12,4.66,2.89,6.27
						c2.29,2.08,4.99,3.79,7.47,5.64c1.03,0.77,2.2-0.85,1.17-1.62c-1.99-1.48-3.98-2.95-5.96-4.43c-1.75-1.31-3.07-2.74-3.46-4.96
						c-0.67-3.76,1.6-9.12,6.12-8.63C123.7,154.1,123.92,152.11,122.64,151.97z"/>
					<path class="st1" d="M131.17,175.82l-1.87-1.45c-0.19-0.15-0.49-0.21-0.73-0.18c-0.25,0.04-0.52,0.19-0.66,0.4
						c-0.31,0.47-0.22,1.05,0.23,1.4c0.62,0.48,1.24,0.97,1.87,1.45c0.19,0.15,0.49,0.21,0.73,0.18c0.25-0.04,0.52-0.19,0.66-0.4
						C131.7,176.75,131.61,176.16,131.17,175.82z"/>
					<path class="st1" d="M140.12,143.1c-0.39-0.43-0.95-0.46-1.41-0.14c-2.45,1.69-4.06,4.52-4.31,7.47
						c-0.04,0.52,0.33,1.07,0.88,1.1c0.53,0.04,1.06-0.33,1.1-0.88c0.03-0.32,0.07-0.63,0.13-0.95c0.02-0.09,0.04-0.19,0.06-0.28
						c0.01-0.03,0.01-0.04,0.01-0.05c0,0,0,0,0.01-0.03c0.04-0.15,0.09-0.31,0.13-0.46c0.1-0.3,0.21-0.6,0.34-0.9
						c0.07-0.16,0.15-0.32,0.22-0.48c0.02-0.04,0.04-0.08,0.06-0.12c0.01-0.01,0.09-0.15,0.09-0.16c0.32-0.55,0.7-1.07,1.13-1.54
						c0.02-0.02,0.03-0.03,0.04-0.04c0.01-0.01,0.03-0.03,0.05-0.05c0.05-0.05,0.09-0.09,0.14-0.14c0.13-0.12,0.26-0.24,0.39-0.36
						c0.25-0.22,0.52-0.42,0.8-0.61C140.41,144.21,140.46,143.47,140.12,143.1z"/>
					<path d="M150.73,154.05c2.64-2.97,5.59-5.7,8.39-8.52c0.91-0.91-0.5-2.33-1.41-1.41c-0.15,0.15-0.3,0.3-0.45,0.45
						c-0.99-2.28-2.65-4.23-4.79-5.55c-4.59-2.83-10.63-2.85-15.26-0.09c-4.08,2.43-6.63,6.82-7.03,11.47
						c-2.93-2.39-6.87-3.47-10.63-2.82c-4.84,0.84-8.93,4.59-10.51,9.2c-1.67,4.87-0.39,10.47,2.97,14.33
						c1.76,2.02,4.02,3.4,6.37,4.61c2.78,1.43,5.58,2.79,8.29,4.37c5.89,3.45,11.41,7.5,16.49,12.06c0.46,0.41,1.35,0.13,1.52-0.45
						c0.93-3.2,2.35-6.21,3.75-9.22c0.91-1.94,1.75-3.91,2.56-5.89c0.86-0.33,1.61-0.98,2.26-1.73c1.65-1.92,3.22-3.93,4.82-5.89
						c0.81-0.99-0.6-2.41-1.41-1.41c-1.33,1.62-2.65,3.25-3.98,4.87c-1.07,1.31-2.25,3.17-4.12,1.97
						c-3.23-2.07-3.27-6.94-2.59-10.23C146.72,160.46,148.2,156.9,150.73,154.05z M148.75,176.68c-1.89,4.29-4.05,8.48-5.51,12.92
						c-3.67-3.2-7.54-6.16-11.63-8.8c-2.24-1.45-4.54-2.8-6.89-4.07c-2.27-1.23-4.65-2.27-6.9-3.55c-4.3-2.45-7.38-6.49-7.54-11.58
						c-0.15-4.66,2.64-9.19,6.86-11.18c2.28-1.07,4.9-1.28,7.34-0.67c2.91,0.73,4.8,2.6,6.93,4.59c0.21,0.19,0.49,0.4,0.74,0.27
						c0.24-0.12,0.27-0.45,0.26-0.71c-0.05-1.42-0.3-2.98-0.14-4.39c0.13-1.12,0.56-2.29,1.03-3.31c0.97-2.13,2.51-3.99,4.47-5.28
						c4.14-2.73,9.93-2.75,14.03,0.06c1.84,1.26,3.2,3.07,3.91,5.14c-1.21,1.21-2.41,2.42-3.62,3.64c-1.51,1.52-3.05,3.02-4.3,4.77
						c-2.51,3.51-4.06,8.18-4.2,12.49C143.49,170.52,144.91,175.58,148.75,176.68z"/>
				</g>
			</g>
		</g>
		<g>
			<g>
				<g>
					<path class="st3" d="M70.8,60.52c-0.05-0.46-0.21-0.88-0.4-1.28c-0.46-1.03-1.02-2-1.84-2.79c-0.42-0.41-0.82-0.85-1.18-1.33
						c-1.18-1.56-0.62-3.6,1.2-4.3c1-0.38,2-0.5,2.96,0.16c0.27,0.19,0.53,0.39,0.69,0.68c0.08,0.15,0.15,0.32,0.02,0.46
						c-0.12,0.15-0.28,0.05-0.42,0c-0.09-0.03-0.19-0.07-0.37-0.14c0.14,0.2,0.24,0.32,0.31,0.45c0.09,0.16,0.19,0.32,0.24,0.49
						c0.08,0.24-0.02,0.34-0.26,0.26c-0.21-0.07-0.42-0.16-0.66-0.26c0.01,0.2,0.17,0.31,0.22,0.47c0.02,0.07,0.07,0.14,0.03,0.2
						c-0.06,0.09-0.15,0.05-0.22,0.02c-0.32-0.11-0.63-0.23-0.95-0.35c-0.63-0.23-1.19,0.05-1.38,0.7c-0.15,0.51-0.06,1,0.19,1.45
						c0.64,1.16,1.48,2.18,2.29,3.21c0.14,0.18,0.24,0.06,0.35-0.03c1.2-0.94,2.38-1.9,3.44-2.99c0.21-0.21,0.35-0.26,0.6-0.05
						c0.42,0.35,0.96,0.37,1.48,0.42c-0.78-0.3-1.35-0.87-1.86-1.5c-0.24-0.29-0.53-0.54-0.83-0.77c-0.35-0.28-0.73-0.39-1.17-0.25
						c-0.11,0.03-0.26,0.13-0.33,0c-0.07-0.12,0.07-0.22,0.15-0.31c0.11-0.13,0.24-0.25,0.38-0.4c-0.24-0.02-0.42,0.11-0.61,0.15
						c-0.08,0.02-0.16,0.05-0.23-0.01c-0.08-0.08-0.03-0.17,0-0.26c0.13-0.36,0.39-0.62,0.73-0.84c-0.14,0-0.29,0-0.43,0
						c-0.07,0-0.15,0.02-0.19-0.06c-0.05-0.09,0.03-0.15,0.08-0.21c0.14-0.14,0.3-0.24,0.49-0.31c0.81-0.32,1.61-0.13,2.4,0.05
						c0.48,0.11,0.93,0.3,1.39,0.46c0.47,0.16,0.66,0.09,0.92-0.33c0.46-0.73,0.81-1.51,0.98-2.36c0.09-0.47,0.04-0.58-0.4-0.73
						c-0.05-0.02-0.1-0.03-0.15-0.04c-0.11-0.03-0.19-0.07-0.16-0.21c0.03-0.15,0.13-0.16,0.26-0.14c0.27,0.05,0.53,0.15,0.79,0.23
						c0.11,0.04,0.25,0.1,0.3-0.07c0.05-0.16-0.05-0.24-0.2-0.29c-0.31-0.11-0.64-0.15-0.96-0.16c-0.14-0.01-0.28-0.02-0.28-0.2
						c0-0.2,0.16-0.18,0.29-0.19c0.33-0.02,0.65,0.01,0.98,0.05c0.12,0.02,0.29,0.04,0.3-0.16c0.01-0.19-0.15-0.15-0.27-0.17
						c-0.51-0.09-1.02-0.08-1.51,0.1c-0.14,0.05-0.26,0-0.38-0.06c-0.25-0.13-0.46-0.31-0.67-0.48c-0.53-0.41-1.09-0.4-1.67-0.11
						c-0.05,0.03-0.11,0.06-0.16,0.1c-0.5,0.44-1.03,0.64-1.7,0.38c-0.26-0.1-0.57-0.06-0.85-0.01c-0.11,0.02-0.24,0.02-0.22,0.19
						c0.02,0.17,0.16,0.17,0.28,0.16c0.07,0,0.14-0.02,0.21-0.03c0.27-0.03,0.53-0.03,0.79,0.02c0.11,0.02,0.2,0.04,0.18,0.19
						c-0.01,0.13-0.08,0.18-0.2,0.17c-0.3-0.02-0.58,0.08-0.88,0.13c-0.1,0.02-0.22,0.04-0.19,0.18c0.03,0.14,0.13,0.21,0.27,0.17
						c0.22-0.06,0.43-0.13,0.65-0.18c0.1-0.03,0.21-0.03,0.26,0.1c0.05,0.14-0.03,0.21-0.15,0.25c-0.14,0.05-0.28,0.12-0.42,0.17
						c-0.21,0.08-0.22,0.2-0.11,0.38c0.3,0.48,0.72,0.83,1.18,1.14c0.09,0.06,0.29,0.1,0.23,0.23c-0.05,0.13-0.22,0.02-0.33-0.01
						c-1.39-0.3-2.34-1.46-2.41-2.94c-0.03-0.57,0.03-1.12,0.18-1.67c0.06-0.2,0.04-0.34-0.09-0.51c-0.23-0.31-0.28-0.65-0.13-1.01
						c0.15-0.34,0.5-0.56,0.87-0.48c0.22,0.05,0.36-0.02,0.52-0.15c1.53-1.23,3.83-1.46,5.5-0.55c0.34,0.19,0.65,0.42,0.93,0.69
						c0.09,0.09,0.16,0.17,0.31,0.14c0.42-0.08,0.75,0.08,0.94,0.45c0.2,0.38,0.15,0.77-0.15,1.08c-0.2,0.2-0.21,0.37-0.13,0.62
						c0.38,1.15,0.71,2.32,0.91,3.52c0.39,2.33,0.34,4.62-0.78,6.77c-0.59,1.12-1.46,2.01-2.4,2.84c-1.76,1.57-3.55,3.11-5.31,4.67
						c-0.52,0.46-1.01,0.95-1.51,1.43c-0.15,0.15-0.27,0.14-0.42,0.01c-2.45-2.11-4.93-4.2-7.35-6.34c-1.4-1.24-2.66-2.64-3.52-4.33
						c-1.22-2.4-1.39-4.86-0.21-7.31c0.98-2.02,2.64-3.2,4.9-3.46c1.68-0.2,3.2,0.22,4.56,1.2c0.86,0.61,1.34,1.47,1.5,2.5
						c0.02,0.1,0.01,0.2,0.01,0.31c0,0.15-0.06,0.25-0.21,0.3c-0.14,0.05-0.23-0.03-0.32-0.12c-0.51-0.57-1.14-0.95-1.9-1.09
						c-1.43-0.26-2.67,0.41-3.25,1.75c-0.73,1.69-0.49,3.28,0.42,4.83c0.67,1.15,1.51,2.18,2.37,3.19
						C69.03,57.76,70.06,59.04,70.8,60.52z M74.12,46.05c0.22-0.01,0.38-0.11,0.39-0.34c0.01-0.22-0.1-0.37-0.34-0.38
						c-0.24-0.01-0.39,0.14-0.41,0.36C73.75,45.91,73.9,46.03,74.12,46.05z M77.94,46.05c0.21-0.01,0.35-0.13,0.35-0.35
						c-0.01-0.22-0.15-0.35-0.37-0.35c-0.21,0-0.35,0.14-0.35,0.34C77.56,45.9,77.68,46.04,77.94,46.05z"/>
				</g>
				<g>
					<path class="st3" d="M77.16,48.48c0.09,0,0.16-0.01,0.22,0c0.09,0.01,0.23-0.05,0.27,0.07c0.04,0.15-0.09,0.22-0.2,0.27
						c-0.4,0.2-0.81,0.22-1.19-0.03c-0.16-0.1-0.27-0.11-0.44-0.02c-0.36,0.2-0.74,0.22-1.11,0.03c-0.09-0.05-0.19-0.11-0.17-0.22
						c0.02-0.14,0.16-0.1,0.25-0.1c0.29,0.01,0.57,0.01,0.83-0.16c0.26-0.17,0.28-0.22,0.04-0.42c-0.19-0.17-0.39-0.33-0.51-0.56
						c-0.2-0.35-0.13-0.5,0.26-0.6c0.42-0.11,0.83-0.07,1.24,0.03c0.27,0.07,0.33,0.19,0.2,0.45c-0.12,0.25-0.3,0.46-0.49,0.66
						c-0.17,0.18-0.12,0.29,0.06,0.41C76.65,48.45,76.91,48.52,77.16,48.48z"/>
				</g>
			</g>
			<g>
				<g>
					<path class="st3" d="M212.67,223.27c0.05,0.46,0.21,0.88,0.4,1.28c0.46,1.03,1.02,2,1.84,2.79c0.42,0.41,0.82,0.85,1.18,1.33
						c1.18,1.56,0.62,3.6-1.2,4.3c-1,0.38-2,0.5-2.96-0.16c-0.27-0.19-0.53-0.39-0.69-0.68c-0.08-0.15-0.15-0.32-0.02-0.46
						c0.12-0.15,0.28-0.05,0.42,0c0.09,0.03,0.19,0.07,0.37,0.14c-0.14-0.2-0.24-0.32-0.31-0.45c-0.09-0.16-0.19-0.32-0.24-0.49
						c-0.08-0.24,0.02-0.34,0.26-0.26c0.21,0.07,0.42,0.16,0.66,0.26c-0.01-0.2-0.17-0.31-0.22-0.47c-0.02-0.07-0.07-0.14-0.03-0.2
						c0.06-0.09,0.15-0.05,0.22-0.02c0.32,0.11,0.63,0.23,0.95,0.35c0.63,0.23,1.19-0.05,1.38-0.7c0.15-0.51,0.06-1-0.19-1.45
						c-0.64-1.16-1.48-2.18-2.29-3.21c-0.14-0.18-0.24-0.06-0.35,0.03c-1.2,0.94-2.38,1.9-3.44,2.99c-0.21,0.21-0.35,0.26-0.6,0.05
						c-0.42-0.35-0.96-0.37-1.48-0.42c0.78,0.3,1.35,0.87,1.86,1.5c0.24,0.29,0.53,0.54,0.83,0.77c0.35,0.28,0.73,0.39,1.17,0.25
						c0.11-0.03,0.26-0.13,0.33,0c0.07,0.12-0.07,0.22-0.15,0.31c-0.11,0.13-0.24,0.25-0.38,0.4c0.24,0.02,0.42-0.11,0.61-0.15
						c0.08-0.02,0.16-0.05,0.23,0.01c0.08,0.08,0.03,0.17,0,0.26c-0.13,0.36-0.39,0.62-0.73,0.84c0.14,0,0.29,0,0.43,0
						c0.07,0,0.15-0.02,0.19,0.06c0.05,0.09-0.03,0.15-0.08,0.21c-0.14,0.14-0.3,0.24-0.49,0.31c-0.81,0.32-1.61,0.13-2.4-0.05
						c-0.48-0.11-0.93-0.3-1.39-0.46c-0.47-0.16-0.66-0.09-0.92,0.33c-0.46,0.73-0.81,1.51-0.98,2.36c-0.09,0.47-0.04,0.58,0.4,0.73
						c0.05,0.02,0.1,0.03,0.15,0.04c0.11,0.03,0.19,0.07,0.16,0.21c-0.03,0.15-0.13,0.16-0.26,0.14c-0.27-0.05-0.53-0.15-0.79-0.23
						c-0.11-0.04-0.25-0.1-0.3,0.07c-0.05,0.16,0.05,0.24,0.2,0.29c0.31,0.11,0.64,0.15,0.96,0.16c0.14,0.01,0.28,0.02,0.28,0.2
						c0,0.2-0.16,0.18-0.29,0.19c-0.33,0.02-0.65-0.01-0.98-0.05c-0.12-0.02-0.29-0.04-0.3,0.16c-0.01,0.19,0.15,0.15,0.27,0.17
						c0.51,0.09,1.02,0.08,1.51-0.1c0.14-0.05,0.26,0,0.38,0.06c0.25,0.13,0.46,0.31,0.67,0.48c0.53,0.41,1.09,0.4,1.67,0.11
						c0.05-0.03,0.11-0.06,0.16-0.1c0.5-0.44,1.03-0.64,1.7-0.38c0.26,0.1,0.57,0.06,0.85,0.01c0.11-0.02,0.24-0.02,0.22-0.19
						c-0.02-0.17-0.16-0.17-0.28-0.16c-0.07,0-0.14,0.02-0.21,0.03c-0.27,0.03-0.53,0.03-0.79-0.02c-0.11-0.02-0.2-0.04-0.18-0.19
						c0.01-0.13,0.08-0.18,0.2-0.17c0.3,0.02,0.58-0.08,0.88-0.13c0.1-0.02,0.22-0.04,0.19-0.18c-0.03-0.14-0.13-0.21-0.27-0.17
						c-0.22,0.06-0.43,0.13-0.65,0.18c-0.1,0.03-0.21,0.03-0.26-0.1c-0.05-0.14,0.03-0.21,0.15-0.25c0.14-0.05,0.28-0.12,0.42-0.17
						c0.21-0.08,0.22-0.2,0.11-0.38c-0.3-0.48-0.72-0.83-1.18-1.14c-0.09-0.06-0.29-0.1-0.23-0.23c0.05-0.13,0.22-0.02,0.33,0.01
						c1.39,0.3,2.34,1.46,2.41,2.94c0.03,0.57-0.03,1.12-0.18,1.67c-0.06,0.2-0.04,0.34,0.09,0.51c0.23,0.31,0.28,0.65,0.13,1.01
						c-0.15,0.34-0.5,0.56-0.87,0.48c-0.22-0.05-0.36,0.02-0.52,0.15c-1.53,1.23-3.83,1.46-5.5,0.55c-0.34-0.19-0.65-0.42-0.93-0.69
						c-0.09-0.09-0.16-0.17-0.31-0.14c-0.42,0.08-0.75-0.08-0.94-0.45c-0.2-0.38-0.15-0.77,0.15-1.08c0.2-0.2,0.21-0.37,0.13-0.62
						c-0.38-1.15-0.71-2.32-0.91-3.52c-0.39-2.33-0.34-4.62,0.78-6.77c0.59-1.12,1.46-2.01,2.4-2.84c1.76-1.57,3.55-3.11,5.31-4.67
						c0.52-0.46,1.01-0.95,1.51-1.43c0.15-0.15,0.27-0.14,0.42-0.01c2.45,2.11,4.93,4.2,7.35,6.34c1.4,1.24,2.66,2.64,3.52,4.33
						c1.22,2.4,1.39,4.86,0.21,7.31c-0.98,2.02-2.64,3.2-4.9,3.46c-1.68,0.2-3.2-0.22-4.56-1.2c-0.86-0.61-1.34-1.47-1.5-2.5
						c-0.02-0.1-0.01-0.2-0.01-0.31c0-0.15,0.06-0.25,0.21-0.3c0.14-0.05,0.23,0.03,0.32,0.12c0.51,0.57,1.14,0.95,1.9,1.09
						c1.43,0.26,2.67-0.41,3.25-1.75c0.73-1.69,0.49-3.28-0.42-4.83c-0.67-1.15-1.51-2.18-2.37-3.19
						C214.43,226.04,213.4,224.76,212.67,223.27z M209.34,237.75c-0.22,0.01-0.38,0.11-0.39,0.34c-0.01,0.22,0.1,0.37,0.34,0.38
						c0.24,0.01,0.39-0.14,0.41-0.36C209.72,237.88,209.56,237.76,209.34,237.75z M205.53,237.75c-0.21,0.01-0.35,0.13-0.35,0.35
						c0.01,0.22,0.15,0.35,0.37,0.35c0.21,0,0.35-0.14,0.35-0.34C205.91,237.89,205.79,237.75,205.53,237.75z"/>
				</g>
				<g>
					<path class="st3" d="M206.3,235.31c-0.09,0-0.16,0.01-0.22,0c-0.09-0.01-0.23,0.05-0.27-0.07c-0.04-0.15,0.09-0.22,0.2-0.27
						c0.4-0.2,0.81-0.22,1.19,0.03c0.16,0.1,0.27,0.11,0.44,0.02c0.36-0.2,0.74-0.22,1.11-0.03c0.09,0.05,0.19,0.11,0.17,0.22
						c-0.02,0.14-0.16,0.1-0.25,0.1c-0.29-0.01-0.57-0.01-0.83,0.16c-0.26,0.17-0.28,0.22-0.04,0.42c0.19,0.17,0.39,0.33,0.51,0.56
						c0.2,0.35,0.13,0.5-0.26,0.6c-0.42,0.11-0.83,0.07-1.24-0.03c-0.27-0.07-0.33-0.19-0.2-0.45c0.12-0.25,0.3-0.46,0.49-0.66
						c0.17-0.18,0.12-0.29-0.06-0.41C206.81,235.35,206.55,235.28,206.3,235.31z"/>
				</g>
			</g>
		</g>
		<g>
			<path class="st3" d="M69.8,38.31c-0.57,0-1.08-0.02-1.59-0.1c0.22,1.12,1.63,1.57,2.91,1.57c1.63,0,3.6-0.73,4.45-1.65l1.12,1.38
				c-0.98,1.24-3.15,2.77-5.41,2.77c-1.32,0-2.12-0.31-2.81-0.63c-0.69-0.31-1.28-0.63-2.16-0.63c-0.49,0-0.96,0.08-1.32,0.2
				l-0.79-1.14l2.09-2.4c-2.5-1.04-3.82-3.38-3.82-6.9c0-4.88,2.56-7.53,7.32-7.53c4.76,0,7.32,2.64,7.32,7.53
				C77.12,35.67,74.56,38.31,69.8,38.31z M69.39,25.7c-1.85,0-2.85,1.79-2.85,5.08c0,3.29,1.28,5.08,3.66,5.08
				c1.85,0,2.85-1.79,2.85-5.08C73.05,27.49,71.77,25.7,69.39,25.7z"/>
		</g>
		<g>
			<path class="st3" d="M213.63,245.95c0.57,0,1.08,0.02,1.59,0.1c-0.22-1.12-1.63-1.57-2.91-1.57c-1.63,0-3.6,0.73-4.45,1.65
				l-1.12-1.38c0.98-1.24,3.15-2.77,5.41-2.77c1.32,0,2.12,0.31,2.81,0.63c0.69,0.31,1.28,0.63,2.16,0.63c0.49,0,0.96-0.08,1.32-0.2
				l0.79,1.14l-2.09,2.4c2.5,1.04,3.82,3.38,3.82,6.9c0,4.88-2.56,7.53-7.32,7.53c-4.76,0-7.32-2.64-7.32-7.53
				C206.31,248.59,208.87,245.95,213.63,245.95z M214.04,258.56c1.85,0,2.85-1.79,2.85-5.08c0-3.29-1.28-5.08-3.66-5.08
				c-1.85,0-2.85,1.79-2.85,5.08C210.38,256.77,211.66,258.56,214.04,258.56z"/>
		</g>
	</g>
</g>
</svg>
