<?xml version="1.0" encoding="utf-8"?>
<!-- Generator: Adobe Illustrator 24.0.1, SVG Export Plug-In . SVG Version: 6.00 Build 0)  -->
<svg version="1.1" xmlns="http://www.w3.org/2000/svg" xmlns:xlink="http://www.w3.org/1999/xlink" x="0px" y="0px"
	 viewBox="0 0 283.46 283.46" style="enable-background:new 0 0 283.46 283.46;" xml:space="preserve">
<style type="text/css">
	.st0{fill:#DBDDD9;}
	.st1{fill:#FFFFFF;}
	.st2{fill:none;stroke:#000000;stroke-width:3;stroke-miterlimit:10;}
	.st3{fill:#E30613;}
	.st4{fill:#894F28;}
	.st5{fill:#3E2215;}
	.st6{fill:#DEB27E;}
	.st7{opacity:0.25;fill:#312783;}
	.st8{opacity:0.53;fill:#F5F0DA;}
	.st9{fill:none;}
	.st10{fill:#EB941E;}
	.st11{fill:#1F201D;}
	.st12{fill:#E2E0DB;}
	.st13{fill:#B7B6B0;}
	.st14{fill:#2FAC66;}
	.st15{fill:#312783;}
	.st16{fill:#E94D2A;}
	.st17{fill:#F5EA61;}
	.st18{fill:#1D71B8;}
	.st19{fill:#2D3B49;}
</style>
<g id="bg">
</g>
<g id="CUT">
</g>
<g id="BACK">
</g>
<g id="ILLUSTRATION">
</g>
<g id="SYMBOLS">
	<g>
		<path class="st1" d="M217.23,267.73h-151c-8.01,0-14.5-6.49-14.5-14.5v-223c0-8.01,6.49-14.5,14.5-14.5h151
			c8.01,0,14.5,6.49,14.5,14.5v223C231.73,261.24,225.24,267.73,217.23,267.73z"/>
		<g>
			<g>
				<path class="st1" d="M129.32,124.03c-2.07,2.62-4.41,4.95-7.02,6.97c0.58,0.11,1.15,0.22,1.73,0.32c4.01,0.69,7.95,1,12.02,0.98
					c7.53-0.04,16.49-0.32,22.28-5.83c4.41-4.2,5.58-9.66,4.97-15.22c-1.28-7.09-5.38-12.93-13.68-14.5c-0.57-0.11-0.68-1-0.16-1.26
					c4.87-2.43,10.26-5.07,13.06-9.99c3.08-5.4,2.18-13.16-0.84-18.45c-4.06-7.12-15.46-7.84-20.58-1.53
					c-3.97,4.89-2.48,10.15,0.39,14.85c1.45,1.35,2.73,2.81,3.4,4.76c0.16,0.46-0.02,0.82-0.32,1.03c-0.18,2.91-5.75,5.45-8.22,6.08
					c-2.16,0.55-4.39,0.66-6.6,0.47c0.77,2.45,0.13,5.02-1,7.4c-2.34,4.94-6.01,8.87-8.08,14.03c-0.06,0.15-0.16,0.27-0.26,0.36
					c2.76,2.83,5.64,5.46,8.69,7.77C129.71,122.75,129.8,123.42,129.32,124.03z M148.12,65.87c0.88-1.69,3.72-2.06,5.38-1.51
					c1.73,0.57,2.28,2.4,2.5,4.03c0.02,0.17-0.22,0.24-0.32,0.13c-0.89-0.94-1.73-1.96-3.04-2.29c-1.47-0.37-2.61,0.46-4.01,0.53
					C148.16,66.79,147.92,66.24,148.12,65.87z M148.72,71.26c0.91-1.43,2.41-2.2,4.09-0.94c1.53,1.15,1.65,3.43,1.04,5.11
					c-0.57,1.58-2.09,3.56-3.99,2.84C147.45,77.35,146.84,72.99,148.72,71.26z"/>
				<path class="st10" d="M133.58,90.66c2.57-0.32,6.6-1.57,8.29-3.99c-3.24,1.64-7.21,1.63-10.82,1.67
					c-3.85,0.05-7.5-0.14-11.2-0.09c0.85,0.24,1.68,0.51,2.45,0.77C126.01,90.21,129.67,91.15,133.58,90.66z"/>
				<path class="st11" d="M91.96,138.48c-0.35-1.14-0.63-2.54-1.66-3.28c-0.84-0.62-2.02-0.75-2.98-0.34
					c-1.81,0.77-2.9,2.85-3.39,4.64c-0.9,6.29,4.86,10.58,10.96,12.03c-1.44-2.4-2.09-4.99-2.31-7.96
					C92.46,141.87,92.47,140.13,91.96,138.48z"/>
				<path class="st1" d="M128.41,71.82c0.24-0.82,0.57-1.86,1.57-1.87c1.02-0.01,1.53,1.14,1.79,1.96c0.21,0.66,0.42,1.97,0.35,3.18
					c1.04-1.41,1.37-3.03,1.09-5.01c-0.36-2.6-1.8-5.55-4.49-4.31c-0.11,0.27-0.2,0.55-0.3,0.82c1.23-0.24,2.69,0.15,2.86,1.39
					c0.01,0.09-0.08,0.15-0.16,0.16c-0.69,0.07-1.43-0.05-2.13-0.01c-0.43,0.02-0.8,0.19-1.18,0.31c-0.95,3.2-1.42,6.63-1.57,10.14
					c0.8-0.38,1.59-0.78,2.38-1.2C127.66,75.98,128.06,73.02,128.41,71.82z"/>
				<path class="st10" d="M123.05,86.33c5.75,0.33,14.29,1.77,19.15-2.08c-1.29-1.95-3.43-2.94-5.17-4.54
					c-1.18-1.09-2.02-2.3-2.81-3.62c-2.6,2.23-5.24,4.02-8.51,5.28c-3.08,1.18-5.85,2.4-8.48,4.4c-0.51,0.39-0.99,0.8-1.47,1.21
					C117.97,86.03,120.54,86.18,123.05,86.33z M130.64,82.47c0.51-0.42,1.11-0.71,1.66-1.08c0.61-0.42,1.03-0.99,1.52-1.54
					c0.81-0.91,2.41,0.32,1.69,1.31c-0.94,1.29-3.05,2.57-4.69,1.98C130.56,83.04,130.39,82.68,130.64,82.47z"/>
				<path class="st3" d="M113.77,132.8c0.06-0.07,0.14-0.11,0.23-0.12c0.78-0.85,1.91-1.48,3.16-1.81c0.7-0.18,1.4-0.24,2.1-0.23
					c2.53-2.53,5.11-5.01,7.71-7.46c-4.79-5.27-10.05-10.07-14.65-15.54c-4.19-4.98-8.06-10.21-11.69-15.61
					c-4.52,7.47-10.63,14.52-16.28,21.09c-1.77,2.06-3.58,4.08-5.47,6.04c-1.13,1.18-4.19,3.16-3.96,4.93
					c0.13,0.99,3.01,3.21,3.71,4.05c0.35,0.42,0.68,0.84,1.01,1.27c1.74,1.76,3.49,3.53,5.09,5.42c1.25-1.53,2.99-2.4,5.11-1.75
					c3.03,0.92,4.19,4.46,4.61,7.23c0.51,3.35,0.6,6.28,1.74,9.18c1.8,1.23,3.11,3.38,4.43,5.22c2.83-6.07,8.26-11.58,12.84-16.33
					C112.44,136.45,112.28,134.5,113.77,132.8z"/>
				<path class="st10" d="M171.61,212.61c-2.66,0.32-6.1-0.04-9.27-1.06c0.13,1.52-0.73,2.85-2.09,4.02
					c-4.16,3.58-9.7,4.52-13.76,8.03c3.15,0.03,5.39,2.3,5.77,5.41c0.88-1.47,2.27-2.84,3.28-3.92c1.96-2.11,4.12-4.1,6.41-5.85
					c0.21-0.16,0.39,0.16,0.26,0.33c-1.69,2.16-3.65,4.1-5.47,6.16c-1.09,1.22-2.12,2.49-3.03,3.86c-0.12,0.18-0.22,0.34-0.33,0.5
					c4.87-2.47,12.4-2.83,15.83,1.17c3.7-6,6.71-12.09,5.53-19.36C173.73,212.22,172.69,212.48,171.61,212.61z"/>
				<path class="st11" d="M103.95,152.37c0.55-0.12,1.1-0.2,1.58-0.31c1.59-0.35,3.2-0.65,4.64-1.4c0.23-0.13,0.46-0.26,0.69-0.4
					c0.21-0.13,0.42-0.15,0.61-0.13c0.32-2.83,0.79-5.63,1.41-8.36C109.86,145.23,106.45,148.58,103.95,152.37z"/>
				<path class="st1" d="M171.28,192.44c1.81-6.5,1.11-13.43-0.51-19.88c-1.36-5.42-3.07-12.72-6.54-17.26
					c-4.24,1.23-8.78,1.58-13.21,1.24c-9.38-0.72-19.12-3.53-27.09-8.6c-2.1-1.34-6.53-4.33-9.17-7.63
					c-2.13,12.46-3.43,25.19,0.62,37.44c3.41,10.29,10.42,19.56,20.45,24.08c1.33,0.6,2.74,1.14,4.18,1.62
					c0.28-0.03,0.55,0.06,0.74,0.24C152.69,207.4,167.37,206.44,171.28,192.44z"/>
				<path class="st11" d="M194.35,189.76c0.44-5.4,1.4-10.81,2.4-16.21c0.9-11.36,1.92-22.37,0.29-33.9
					c-0.96-6.8-2.46-13.55-4.63-20.07c-1.28-3.82-2.64-8.26-4.49-12.3c-3.9-6.51-10.16-11.42-10.99-19.6
					c-1.11-10.93,0.81-22.2-8.19-30.52c-7.84-7.24-20.56-8.59-29.78-3.28c-4.51,2.6-7.52,6.11-9.49,10.17
					c0.18-0.03,0.37-0.06,0.57-0.06c1.59-0.01,2.87,1.23,3.55,2.56c1.03,2.03,1.43,4.85,0.65,7.03c0.41-0.1,0.87,0.02,1.11,0.44
					c0.98,1.74,2.39,3.08,3.85,4.36c-2.43-4.3-2.86-9.31,0.73-13.74c4.3-5.31,12.53-6.33,18.38-3.04c6,3.37,8.08,11.71,7.46,18.11
					c-0.79,8.23-7.28,12.67-14.01,16.16c4.19,1.2,7.77,3.72,10.24,7.43c1.82,2.73,2.47,5.61,2.54,8.59c1.07,7.79-2,15.67-9.69,19.42
					c-5.49,2.67-11.87,3.01-17.87,3.11c-3.83,0.06-7.59-0.18-11.39-0.62c-3.94-0.45-8.32-1.79-10.77,1.83
					c2.02,6.91,12.85,12.21,18.52,14.41c6.68,2.6,14.06,4.23,21.24,4.13c8.68-0.12,16.62-3.29,21.99-10.28
					c5.02-6.53,7.78-13.9,10.08-21.72c0.08-0.28,0.54-0.23,0.52,0.07c-0.52,9.43-4.59,19.85-11.42,26.51
					c-2.82,2.75-6.15,4.69-9.73,5.97c3.63,5.1,5.33,12.35,6.72,18.23c1.61,6.81,2.15,14.08,0.09,20.86
					c-2.5,8.25-8.6,12.11-15.73,13.22c4.3,1.55,8.02,4.12,13.01,4.08c6.72-0.05,11.08-5.48,15.92-9.28c0.14-0.11,0.37,0.03,0.26,0.2
					c-1.82,2.87-4.22,5.59-7.07,7.57c7.78,0.95,15.64,0.46,22.52-3.49C196.11,202.16,193.76,196.99,194.35,189.76z"/>
				<path class="st11" d="M115.42,182.5c0.67,4.48,0.77,9.13,2.74,13.39c3.62,7.82,12.11,14.05,19.89,8.87
					C126.9,200.7,119.6,192.49,115.42,182.5z"/>
				<path class="st10" d="M123.09,205.16c-1.64,2.74-5.61,3.84-8.47,4.77c-5.37,1.74-10.87,2.66-15.75,5.35
					c2.19,0.07,4.3,0.66,5.54,2.7c0.39,0.63,0.59,1.25,0.64,1.84c3.28-3.34,7.54-5.99,12.01-6.64c0.09-0.01,0.2,0.1,0.1,0.18
					c-3.6,2.87-7.47,4.65-10.63,7.67c4.44-1.52,9.71-1.03,12.95,2.31c1.95-1.94,4.3-3.09,6.66-4.62c4.13-2.68,6.55-5.93,8.1-10.5
					C130.42,209,126.51,207.88,123.09,205.16z"/>
				<path class="st1" d="M130.81,83.13c1.64,0.59,3.75-0.69,4.69-1.98c0.72-0.99-0.88-2.22-1.69-1.31c-0.49,0.55-0.9,1.12-1.52,1.54
					c-0.55,0.38-1.14,0.67-1.66,1.08C130.39,82.68,130.56,83.04,130.81,83.13z"/>
				<path class="st1" d="M149.85,78.26c1.9,0.72,3.42-1.26,3.99-2.84c0.6-1.67,0.49-3.95-1.04-5.11c-1.67-1.26-3.18-0.49-4.09,0.94
					C146.84,72.99,147.45,77.35,149.85,78.26z M150.57,72.48c0.01-0.03,0.01-0.06,0.02-0.1c0.11-0.54,0.64-0.8,1.13-0.86
					c0.05-0.01,0.1-0.01,0.15-0.01c0.63-0.03,1.3,0.72,1.03,1.36c-0.02,0.04-0.04,0.07-0.05,0.1c-0.01,0.04-0.02,0.09-0.03,0.13
					c-0.13,0.62-0.86,0.98-1.44,0.82C150.75,73.75,150.44,73.1,150.57,72.48z"/>
				<path class="st1" d="M148.63,66.76c1.4-0.07,2.54-0.9,4.01-0.53c1.31,0.33,2.15,1.34,3.04,2.29c0.1,0.11,0.34,0.03,0.32-0.13
					c-0.22-1.63-0.77-3.46-2.5-4.03c-1.66-0.55-4.5-0.18-5.38,1.51C147.92,66.24,148.16,66.79,148.63,66.76z"/>
				<path class="st1" d="M151.39,73.92c0.58,0.16,1.31-0.2,1.44-0.82c0.01-0.04,0.02-0.09,0.03-0.13c0.02-0.03,0.04-0.07,0.05-0.1
					c0.27-0.64-0.4-1.39-1.03-1.36c-0.05,0-0.1,0-0.15,0.01c-0.49,0.06-1.02,0.32-1.13,0.86c-0.01,0.03-0.01,0.06-0.02,0.1
					C150.44,73.1,150.75,73.75,151.39,73.92z"/>
				<path class="st1" d="M203.88,205.35c-9.1-5.46-8.3-13.99-6.78-23.28c0.51-3.13,1.14-6.34,1.6-9.57
					c2.56-11.58,1.7-24.41-0.21-35.79c-1.24-7.38-3.31-14.64-6-21.62c-1.62-4.21-3.4-10.39-6.94-13.69c-0.98-1.54-2-3.07-2.99-4.66
					c-4.04-6.51-3.2-13.17-3.66-20.46c-0.71-11.15-5.4-20.88-16.1-25.46c-9.09-3.9-20.11-2.89-27.96,3.28
					c-7.1,5.59-12.38,16.1-10.33,25.27c-1.65,0.76-3.32,1.53-5.02,2.46c-3.19,1.76-6.54,4.08-7.96,7.52
					c-0.07,0.18,0.02,0.34,0.16,0.43c0.03,0.08,0.1,0.15,0.21,0.14c4.93-0.48,8.36,0.7,13.01,1.95c1.12,0.3,2.26,0.53,3.41,0.69
					c-0.34,7.98-6.18,13.44-9.22,20.61c-6.71-7.16-12.58-15.49-17.73-23.31c-0.38-0.57-1.24-0.63-1.6,0
					c-3.66,6.31-8.7,12.1-13.31,17.73c-4.4,5.38-9.07,10.51-14.16,15.25c-0.12,0.11-0.19,0.25-0.23,0.39
					c-0.02,0-0.03-0.01-0.05-0.01c-0.1-0.01-0.21,0.12-0.17,0.22c0.89,2.12,3.27,3.91,4.83,5.59c2.3,2.48,4.53,5.07,7.04,7.37
					c-0.37,0.73-0.65,1.51-0.85,2.31c-1.08,2.61-0.59,5.65,1.08,8.19c2.85,4.34,7.82,6.02,12.71,6.81c0.22,0.04,0.45-0.02,0.65-0.12
					c0.96,1.21,2.05,2.35,2.9,3.44c0.45,0.57,1.24,0.15,1.45-0.38c0.3-0.75,0.65-1.47,1.03-2.18c1.28,0.55,2.86,0,4.17-0.31
					c1.52-0.36,2.91-0.98,4.25-1.75c0.04-0.02,0.08-0.05,0.12-0.07c-0.7,8.3-0.05,16.81,2.21,24.59
					c-0.11,9.16,0.95,19.37,7.54,26.32c0.34,0.36,0.69,0.7,1.05,1.02c-8.15,5.77-18.97,5.19-26.99,11.31
					c-0.92,0.7-0.24,1.58,0.58,1.66c1.5,0.16,2.78-0.57,4.36-0.02c1.26,0.44,2.36,1.42,2.8,2.68c0.27,0.79,0.27,1.68-0.02,2.46
					c-0.25,0.66-1.29,1.41-1.04,2.16c0.01,0.08,0.05,0.15,0.1,0.21c0.27,0.4,0.85,0.63,1.34,0.37c4.38-2.31,11.6-4.66,15.25,0.63
					c0.4,0.57,1.35,0.88,1.87,0.24c3.01-3.64,7.34-5.32,10.66-8.54c2.71-2.63,4.42-5.93,5.06-9.63c0.01-0.03,0-0.06,0-0.1
					c1.38-0.5,2.75-1.24,4.06-2.27c0.85,0.26,1.71,0.5,2.6,0.72c4.16,1,8.53,1.46,12.63,1.08c1.37,1.67,3.44,2.95,5.76,3.85
					c-0.47,4.48-8.54,6.17-11.7,7.89c-2.72,1.48-4.88,3.25-6.7,5.75c-0.39,0.53-0.12,1.14,0.46,1.38c0.65,0.26,1.27-0.29,1.91-0.44
					c1.49-0.33,3.15,0.04,4.29,1.06c0.93,0.83,1.49,2.05,1.57,3.29c0.03,0.44-0.68,3.99,0.9,2.67c3.81-3.18,14.09-4.53,16.77,0.33
					c0.3,0.54,1.03,0.47,1.34,0c4.31-6.5,8.12-13.75,6.29-21.73c0.37-0.17,0.74-0.37,1.1-0.56c0.08,0.07,0.18,0.12,0.32,0.15
					c8.56,2.13,18.93,1.27,26.25-3.99C204.41,206.52,204.49,205.72,203.88,205.35z M127.79,68.44c0.38-0.12,0.76-0.29,1.18-0.31
					c0.71-0.04,1.44,0.08,2.13,0.01c0.08-0.01,0.17-0.07,0.16-0.16c-0.16-1.24-1.63-1.63-2.86-1.39c0.1-0.28,0.2-0.55,0.3-0.82
					c2.7-1.24,4.13,1.71,4.49,4.31c0.28,1.98-0.05,3.6-1.09,5.01c0.08-1.21-0.14-2.51-0.35-3.18c-0.26-0.82-0.77-1.97-1.79-1.96
					c-1,0.01-1.33,1.05-1.57,1.87c-0.35,1.2-0.75,4.16,0.19,5.56c-0.78,0.42-1.57,0.82-2.38,1.2
					C126.37,75.07,126.85,71.64,127.79,68.44z M130.97,73.35c-1.09,0.64-2.08-1.15-0.96-1.67
					C131.13,71.18,132.04,72.72,130.97,73.35z M117.23,85.77c2.63-2,5.4-3.22,8.48-4.4c3.27-1.26,5.91-3.05,8.51-5.28
					c0.79,1.32,1.63,2.53,2.81,3.62c1.74,1.6,3.87,2.59,5.17,4.54c-4.86,3.85-13.4,2.4-19.15,2.08c-2.51-0.14-5.08-0.3-7.29,0.65
					C116.24,86.56,116.72,86.16,117.23,85.77z M122.31,89.02c-0.78-0.25-1.61-0.53-2.45-0.77c3.7-0.05,7.35,0.14,11.2,0.09
					c3.6-0.05,7.58-0.03,10.82-1.67c-1.69,2.43-5.72,3.67-8.29,3.99C129.67,91.15,126.01,90.21,122.31,89.02z M120.66,114.15
					c2.07-5.16,5.73-9.09,8.08-14.03c1.13-2.38,1.77-4.95,1-7.4c2.21,0.19,4.43,0.08,6.6-0.47c2.47-0.63,8.04-3.17,8.22-6.08
					c0.3-0.21,0.48-0.57,0.32-1.03c-0.68-1.95-1.96-3.42-3.4-4.76c-2.87-4.71-4.36-9.96-0.39-14.85c5.12-6.3,16.52-5.59,20.58,1.53
					c3.02,5.29,3.92,13.05,0.84,18.45c-2.81,4.92-8.19,7.56-13.06,9.99c-0.51,0.25-0.41,1.15,0.16,1.26
					c8.31,1.57,12.4,7.4,13.68,14.5c0.61,5.56-0.55,11.02-4.97,15.22c-5.8,5.51-14.76,5.79-22.28,5.83
					c-4.07,0.02-8.01-0.29-12.02-0.98c-0.57-0.1-1.15-0.21-1.73-0.32c2.61-2.02,4.96-4.35,7.02-6.97c0.48-0.61,0.39-1.28-0.23-1.75
					c-3.04-2.31-5.93-4.94-8.69-7.77C120.51,114.42,120.6,114.3,120.66,114.15z M83.93,139.5c0.5-1.79,1.58-3.87,3.39-4.64
					c0.96-0.41,2.13-0.27,2.98,0.34c1.02,0.75,1.3,2.14,1.66,3.28c0.51,1.65,0.5,3.39,0.63,5.09c0.22,2.96,0.87,5.55,2.31,7.96
					C88.8,150.08,83.03,145.79,83.93,139.5z M100.63,154.71c-1.32-1.84-2.63-3.99-4.43-5.22c-1.14-2.9-1.23-5.83-1.74-9.18
					c-0.42-2.77-1.58-6.31-4.61-7.23c-2.12-0.65-3.86,0.23-5.11,1.75c-1.6-1.89-3.34-3.66-5.09-5.42c-0.33-0.43-0.67-0.85-1.01-1.27
					c-0.7-0.84-3.58-3.06-3.71-4.05c-0.23-1.77,2.83-3.75,3.96-4.93c1.88-1.96,3.7-3.98,5.47-6.04
					c5.65-6.57,11.76-13.62,16.28-21.09c3.63,5.4,7.5,10.63,11.69,15.61c4.61,5.47,9.87,10.27,14.65,15.54
					c-2.6,2.45-5.18,4.93-7.71,7.46c-0.7-0.01-1.4,0.05-2.1,0.23c-1.26,0.33-2.38,0.95-3.16,1.81c-0.08,0.01-0.16,0.05-0.23,0.12
					c-1.49,1.7-1.33,3.64-0.3,5.58C108.88,143.13,103.46,148.64,100.63,154.71z M110.86,150.27c-0.23,0.14-0.46,0.27-0.69,0.4
					c-1.44,0.75-3.04,1.04-4.64,1.4c-0.48,0.11-1.04,0.19-1.58,0.31c2.5-3.8,5.9-7.15,8.92-10.59c-0.62,2.72-1.09,5.52-1.41,8.36
					C111.28,150.12,111.07,150.14,110.86,150.27z M126.15,218.72c-2.36,1.53-4.71,2.68-6.66,4.62c-3.24-3.34-8.51-3.84-12.95-2.31
					c3.15-3.02,7.03-4.8,10.63-7.67c0.09-0.07-0.01-0.19-0.1-0.18c-4.47,0.65-8.73,3.3-12.01,6.64c-0.05-0.6-0.25-1.21-0.64-1.84
					c-1.25-2.04-3.36-2.63-5.54-2.7c4.88-2.7,10.38-3.62,15.75-5.35c2.86-0.92,6.83-2.03,8.47-4.77c3.43,2.72,7.33,3.84,11.16,3.06
					C132.7,212.79,130.27,216.04,126.15,218.72z M118.16,195.9c-1.97-4.26-2.07-8.92-2.74-13.39c4.18,9.99,11.48,18.2,22.64,22.26
					C130.28,209.95,121.79,203.72,118.16,195.9z M140.76,203.68c-0.2-0.18-0.47-0.28-0.74-0.24c-1.45-0.48-2.85-1.02-4.18-1.62
					c-10.04-4.51-17.05-13.78-20.45-24.08c-4.05-12.24-2.74-24.98-0.62-37.44c2.63,3.3,7.07,6.29,9.17,7.63
					c7.97,5.07,17.71,7.89,27.09,8.6c4.43,0.34,8.97-0.01,13.21-1.24c3.48,4.55,5.18,11.85,6.54,17.26
					c1.62,6.45,2.32,13.39,0.51,19.88C167.37,206.44,152.69,207.4,140.76,203.68z M169.21,231.24c-3.42-4-10.96-3.64-15.83-1.17
					c0.1-0.16,0.21-0.32,0.33-0.5c0.91-1.36,1.94-2.63,3.03-3.86c1.82-2.05,3.78-3.99,5.47-6.16c0.13-0.17-0.05-0.49-0.26-0.33
					c-2.29,1.75-4.44,3.74-6.41,5.85c-1.01,1.08-2.4,2.45-3.28,3.92c-0.38-3.11-2.62-5.37-5.77-5.41c4.06-3.51,9.61-4.45,13.76-8.03
					c1.35-1.17,2.22-2.5,2.09-4.02c3.17,1.02,6.61,1.38,9.27,1.06c1.08-0.13,2.12-0.38,3.12-0.73
					C175.91,219.15,172.9,225.25,169.21,231.24z M179.22,209.59c2.85-1.98,5.25-4.7,7.07-7.57c0.11-0.17-0.12-0.31-0.26-0.2
					c-4.84,3.8-9.21,9.22-15.92,9.28c-4.98,0.04-8.71-2.54-13.01-4.08c7.13-1.11,13.23-4.97,15.73-13.22
					c2.05-6.78,1.52-14.05-0.09-20.86c-1.39-5.88-3.09-13.13-6.72-18.23c3.59-1.28,6.92-3.23,9.73-5.97
					c6.83-6.66,10.89-17.08,11.42-26.51c0.02-0.31-0.44-0.35-0.52-0.07c-2.29,7.82-5.05,15.19-10.08,21.72
					c-5.37,6.98-13.31,10.16-21.99,10.28c-7.18,0.1-14.56-1.53-21.24-4.13c-5.67-2.2-16.5-7.5-18.52-14.41
					c2.46-3.62,6.83-2.28,10.77-1.83c3.8,0.44,7.56,0.68,11.39,0.62c6-0.1,12.39-0.44,17.87-3.11c7.69-3.74,10.75-11.63,9.69-19.42
					c-0.07-2.98-0.72-5.86-2.54-8.59c-2.47-3.71-6.06-6.23-10.24-7.43c6.72-3.49,13.22-7.92,14.01-16.16
					c0.62-6.4-1.46-14.74-7.46-18.11c-5.85-3.28-14.08-2.26-18.38,3.04c-3.59,4.43-3.16,9.43-0.73,13.74
					c-1.46-1.28-2.88-2.62-3.85-4.36c-0.24-0.42-0.69-0.55-1.11-0.44c0.78-2.19,0.38-5.01-0.65-7.03c-0.68-1.33-1.96-2.57-3.55-2.56
					c-0.2,0-0.38,0.03-0.57,0.06c1.97-4.06,4.98-7.57,9.49-10.17c9.22-5.31,21.94-3.97,29.78,3.28c9.01,8.32,7.08,19.59,8.19,30.52
					c0.83,8.18,7.08,13.09,10.99,19.6c1.85,4.04,3.22,8.48,4.49,12.3c2.18,6.52,3.67,13.27,4.63,20.07
					c1.62,11.53,0.6,22.54-0.29,33.9c-0.99,5.4-1.96,10.82-2.4,16.21c-0.59,7.24,1.76,12.4,7.39,16.34
					C194.86,210.04,187,210.53,179.22,209.59z"/>
				<path class="st1" d="M130.01,71.69c-1.12,0.51-0.13,2.3,0.96,1.67C132.04,72.72,131.13,71.18,130.01,71.69z"/>
			</g>
			<path class="st7" d="M187.44,123.7c-0.05-0.21-0.31-0.25-0.46-0.12c-2.74,2.31-3.77,5.59-5.36,8.71
				c-1.62,3.19-3.51,6.35-5.85,9.06c-5.13,5.94-12.71,9.24-20.47,9.85c-7.78,0.61-15.51-1.42-22.44-4.89
				c-6.81-3.42-11.68-7.85-16.74-13.37c0.58-0.65,1.18-1.32,1.79-1.98c0.36,0.58,1.2,0.9,1.87,0.3c2.6-2.35,5.15-4.76,7.71-7.15
				c0.58-0.54,0.4-1.5-0.24-1.9c-0.29-0.18-0.57-0.35-0.86-0.53c-0.29-0.18-0.73-0.22-1.06-0.07c-1.06-2.26-3.5-4.12-5.11-5.98
				c-1.85-2.15-3.61-5.09-6.13-6.47c-0.13-0.07-0.27,0.05-0.24,0.19c0.51,2.78,2.86,5.25,4.6,7.4c1.56,1.93,3.26,4.65,5.47,5.95
				c-9.26,7.34-17.04,16.71-23.91,26.31c-0.47-0.82-0.92-1.66-1.2-2.6c-0.86-2.87-0.87-5.91-2.14-8.68
				c-1.49-3.24-4.8-6.15-8.53-4.51c-0.09,0.04-0.1,0.19-0.03,0.25c1.78,1.44,3.74,2.67,4.86,4.77c1.17,2.2,1.2,4.99,1.64,7.39
				c0.65,3.49,2.28,8.6,6.18,9.39c0.59,0.12,1.25-0.27,1.23-0.93c-0.01-0.3-0.05-0.59-0.1-0.88c2.04-1.68,3.33-4.38,4.92-6.44
				c2.19-2.84,4.72-5.39,6.92-8.22c0.72-0.92,0.34-1.99-0.4-2.42c0.4-0.46,0.84-0.98,1.3-1.51c0.18,6.82,9.5,11.55,14.75,14.37
				c7.89,4.24,16.88,6.89,25.9,6.2c6.64-0.51,13.22-2.69,18.57-6.67c-5.14,4.64-12.14,6.93-19.01,7.18
				c-8.16,0.3-16.46-1.87-23.9-5.12c-6.44-2.82-10.88-7.64-16.67-11.32c-0.31-0.2-0.59,0.13-0.55,0.42
				c1.05,7.7,10.22,12.26,16.58,14.92c8.69,3.63,18.37,5.92,27.83,4.81c7.83-0.92,15.61-4.34,20.77-10.43
				c2.64-3.11,4.51-6.68,5.97-10.47c0.71-1.85,1.09-3.77,1.33-5.72C187.54,129.65,188.16,126.5,187.44,123.7z"/>
			<path class="st7" d="M142.37,85.98c-4.13,0.16-8.07,1.54-12.32,1.56c-4,0.01-8.19-0.6-12.1,0.32c-0.09,0.02-0.07,0.14,0,0.17
				c4.38,1.56,9.87,1.68,14.49,1.52c3.47-0.11,7.65-0.28,10.24-2.82C142.94,86.47,142.75,85.97,142.37,85.98z"/>
			<path class="st7" d="M143.58,83.22c-0.14-0.12-0.41,0.04-0.28,0.22c2.73,3.87-2.67,7.03-5.9,7.9c-3.25,0.87-6.43,0.63-9.71,0.31
				c-0.14-0.01-0.18,0.16-0.1,0.25c3.42,4.31,9.78,4.33,14.3,1.93C146.6,91.34,147.96,86.81,143.58,83.22z"/>
			<path class="st7" d="M151.79,68.18c-1.38,0-2.57,0.74-3.37,1.82c-0.62,0.84-1.41,2.55-0.72,3.54c0.03,0.04,0.08,0.07,0.13,0.05
				c1.41-0.44,1.7-2.55,3.14-3.16c2-0.83,2.29,1.46,2.87,2.78c0.06,0.14,0.31,0.17,0.4,0.05C155.96,71.18,154.46,68.19,151.79,68.18
				z"/>
			<path class="st7" d="M129.89,68.99c-1.15,0.29-1.74,1.55-1.99,2.61c-0.2,0.83-0.47,2.66,0.47,3.14c0.04,0.02,0.09,0.01,0.12-0.02
				c0.42-0.35,0.43-0.98,0.55-1.49c0.18-0.75,0.4-1.67,0.9-2.28c0.54-0.66,1.05,0.65,1.21,1.13c0.25,0.73,0.12,1.54,0.41,2.24
				c0.29,0.71,1.23,0.94,1.67,0.22C134.42,72.63,132.45,68.34,129.89,68.99z"/>
			<path class="st7" d="M172.24,193.75c-6.01,3.35-10.72,6.43-17.92,6.62c-6.01,0.16-12.07-1.13-17.57-3.51
				c-11.44-4.96-19.18-14.28-23.73-25.68c-0.04-0.09-0.17-0.06-0.15,0.04c0.77,4.91,2.63,9.49,5.28,13.55
				c0.94,2.6,2.26,5.01,3.87,7.22c-0.35-0.23-0.7-0.46-1.06-0.7c-0.1-0.07-0.23,0.09-0.13,0.17c2.12,1.85,4.17,4.72,5.64,7.07
				c0.86,1.38,1.61,2.84,2.15,4.38c0.35,0.99,0.4,2.38,0.93,3.27c0.26,0.44,0.58,0.77,0.95,1.04c-2.15,0.01-4.41-0.27-5.82-1.53
				c-0.52-0.46-1.76-2.12-2.55-1.01c-0.07,0.1-0.14,0.19-0.21,0.29c-0.25,0.34-0.19,0.85,0,1.2c1.79,3.28,5.4,4.2,8.9,4.27
				c-1.21,2.19-2.68,4.1-4.37,5.98c-1.58,1.76-3.38,3.45-4.81,5.33c-0.07,0.09,0.04,0.22,0.14,0.18c5.01-1.77,9.57-6,11.89-10.74
				c0.14-0.28,0.17-0.59,0.15-0.89c1.29-0.2,1.73-1.62,1.27-2.52c1.33-0.28,2.63-0.81,3.58-1.33c0.83-0.46,0.82-1.47,0.28-2.08
				c0.63,0.23,1.26,0.44,1.9,0.63c5.49,1.66,11.43,1.9,17.05,0.79c2.53-0.5,5.03-1.3,7.35-2.43c2.36-1.15,2.87-1.82,3.52-3.74
				c1.76-1.37,3.13-3.16,3.94-5.48C172.8,193.84,172.47,193.62,172.24,193.75z"/>
			<path class="st7" d="M200.14,205.01c-2.06,0.8-4.22,1.35-6.43,1.73c-3.7,0.11-7.36-0.99-11.35-1.18
				c-0.13-0.01-0.23,0.14-0.2,0.26c0.05,0.2,0.12,0.38,0.21,0.55c-0.91,0.24-1.81,0.65-2.78,1.06c-1.84,0.78-0.66,3.27,0.92,3.4
				c5.93,0.49,11.04-0.49,16.34-2.3c1.4-0.32,2.77-0.83,4.12-1.54C202.03,206.42,201.29,204.56,200.14,205.01z"/>
			<path class="st7" d="M174.93,214.62c2.19-1.32,0.19-4.77-2.01-3.44c-1.97,1.19-4.06,0.52-6.14,0.13
				c-0.74-0.14-1.43-0.11-2.17-0.22c-1.77-0.26-1.6-0.77-3.03-0.61c-0.21,0.02-0.36,0.19-0.31,0.41c0.5,2.23,3.64,4.06,5.74,4.54
				c1.88,0.43,3.81,0.57,5.64,0.12c-0.58,1.84-0.3,4.21-0.71,6.01c-0.59,2.64-1.22,5.22-1.93,7.84c-0.02,0.07,0.07,0.12,0.12,0.07
				c2.21-2.04,3.81-4.73,4.49-7.66c0.5-2.16,1.26-5.07,0.13-7.08C174.82,214.67,174.88,214.65,174.93,214.62z"/>
			<path class="st8" d="M164.47,59.29c-2.64-5.73-12.53-6.95-18.09-6.2c-5.02,0.68-11.34,3.41-12.5,8.84
				c-0.04,0.18,0.15,0.35,0.32,0.25c4.36-2.65,7.7-5.38,13.09-5.71c5.19-0.32,11.79,1.1,16.45,3.55
				C164.23,60.27,164.69,59.76,164.47,59.29z"/>
			<path class="st8" d="M113.38,111.87c-3.17-4.54-6.48-8.96-9.57-13.56c-1.11-1.66-3.37-1.67-4.48,0
				c-3.42,5.15-6.83,10.37-10.92,15.02c-2.99,3.4-7.43,7.07-8.98,11.36c-0.11,0.31,0.22,0.56,0.5,0.5c4.87-0.98,9.62-6.37,12.8-9.9
				c3.36-3.72,6.51-7.48,9.29-11.6c3.34,3.2,6.91,6.24,10.76,8.78C113.14,112.7,113.63,112.23,113.38,111.87z"/>
			<path class="st8" d="M169.08,123.78c-0.26-1.03-1.57-1.05-2.11-0.28c-4.65,6.61-9.86,11.74-18.08,13.27
				c-4.39,0.82-9.07,0.54-13.48,0.06c-3.69-0.4-7.57-1.74-11.23-0.85c-0.21,0.05-0.26,0.32-0.12,0.47
				c3.38,3.57,9.76,5.01,14.41,6.07c5.28,1.2,11.2,1.33,16.4-0.24C162.99,139.83,171.48,133.18,169.08,123.78z"/>
			<path class="st8" d="M195.29,203.45c-5.79-16.25-0.98-35.04-0.45-51.77c0.46-14.5-0.17-32.12-11.06-43.11
				c-0.21-0.21-0.63,0-0.52,0.3c2.99,8.38,5.26,16.25,5.96,25.18c0.66,8.52,0.08,16.85-0.66,25.34c-0.76,8.84-1.73,17.75-1.53,26.64
				c0.15,6.79,1.71,13.5,7.06,18.11C194.58,204.58,195.55,204.18,195.29,203.45z"/>
			<path class="st8" d="M121.96,206.51c-2.16,0.12-3.33,0.98-5.28,1.88c-3.06,1.41-6.3,2.04-9.54,2.88c-3.1,0.81-7.61,1.62-9,4.88
				c-0.09,0.21,0.06,0.4,0.28,0.37c4.57-0.69,9.32-0.9,13.81-2.08c3.73-0.99,9.04-2.23,10.88-5.9
				C123.55,207.68,123.04,206.45,121.96,206.51z"/>
			<path class="st8" d="M160.43,214.73c-0.96,0.46-1.62,1.24-2.53,1.79c-1.3,0.8-2.8,1.29-4.17,1.95c-2.59,1.24-5.77,2.52-7.82,4.55
				c-0.64,0.63-0.16,1.75,0.73,1.76c3.76,0.03,8.09-1.91,11.57-3.26c2.46-0.96,5.16-2.08,5.25-5.06
				C163.51,214.84,161.74,214.09,160.43,214.73z"/>
			<path class="st1" d="M106.35,103.6c-1.42-2.77-3.53-4.94-4.89-7.78c-0.41-0.87-1.75-0.78-2.19,0c-2.96,5.3-6.3,10.31-10.01,15.11
				c-3.36,4.35-7.47,8.26-10.5,12.84c-0.12,0.18,0.11,0.39,0.29,0.29c9.27-5.26,16.29-16.08,21.52-25.35
				c1.58,1.99,3.19,4.07,5.34,5.35C106.2,104.23,106.5,103.88,106.35,103.6z"/>
			<path class="st1" d="M107.81,105.64c-0.15-0.03-0.33-0.01-0.43,0.11c-0.02,0.02-0.03,0.04-0.05,0.06
				c-0.23,0.34,0.1,0.78,0.27,1.07c0.26,0.44,0.27,0.98,0.76,1.25c0.42,0.23,0.84,0.01,1-0.41
				C109.68,106.92,108.56,105.79,107.81,105.64z"/>
			<path class="st1" d="M151.74,138.49c-2.83-0.67-5.96,0.19-8.87,0.2c-3.34,0.01-6.69-0.24-10.02-0.46
				c-0.14-0.01-0.15,0.19-0.03,0.23c3.29,1.15,6.58,1.75,10.05,1.91c2.93,0.13,6.36,0.51,8.99-0.93
				C152.25,139.22,152.17,138.59,151.74,138.49z"/>
			<path class="st1" d="M157.18,136.1c-0.41-0.01-0.7,0.15-1.03,0.37c-0.28,0.18-0.39,0.35-0.51,0.59c-0.04,0.02-0.07,0.05-0.1,0.08
				c-0.25,0.17-0.25,0.61,0.09,0.69c0.2,0.05,0.3,0.15,0.52,0.21c0.24,0.07,0.49,0.02,0.72-0.07c0.49-0.18,0.87-0.45,0.99-0.98
				C157.96,136.53,157.64,136.1,157.18,136.1z"/>
			<path class="st1" d="M149.81,53.46c-3.84-1.47-10.27,2.07-12.75,4.88c-0.07,0.08,0,0.24,0.11,0.2c2.17-0.87,4.24-1.98,6.52-2.58
				c2.04-0.54,4.41-0.44,6.26-1.43C150.43,54.27,150.25,53.63,149.81,53.46z"/>
			<path class="st1" d="M154.15,54.09c-0.29-0.64-1.1-0.54-1.67-0.39c-0.49,0.13-0.34,0.78,0.11,0.83c0.46,0.05,0.82,0.36,1.29,0.21
				C154.17,54.65,154.27,54.36,154.15,54.09z"/>
			<path class="st1" d="M87.53,136.87c-0.02-0.2-0.23-0.37-0.42-0.24c-1.33,0.84-1.85,3.19-1.4,4.64c0.21,0.67,1.35,0.8,1.49,0
				c0.13-0.76,0.02-1.53,0.15-2.3C87.46,138.25,87.61,137.62,87.53,136.87z"/>
			<path class="st1" d="M86.75,143.35c-0.22-0.35-0.71-0.12-0.64,0.27c0.09,0.49,0.04,0.96,0.52,1.23c0.23,0.13,0.51,0.01,0.59-0.24
				C87.39,144.1,87.01,143.76,86.75,143.35z"/>
			<path class="st1" d="M120.53,195.92c-0.45-0.75-0.85-1.57-1.4-2.25c-0.1-0.12-0.26,0.01-0.23,0.14c0.2,0.94,0.64,1.87,0.98,2.77
				c0.26,0.69,0.5,1.44,1.12,1.88c0.2,0.14,0.45-0.05,0.46-0.26C121.5,197.36,120.94,196.59,120.53,195.92z"/>
			<path class="st1" d="M123.91,200.13c-0.18-0.52-0.59-0.72-1.03-0.99c-0.33-0.2-0.7,0.19-0.51,0.51c0.27,0.47,0.45,0.86,0.97,1.06
				C123.66,200.83,124.02,200.45,123.91,200.13z"/>
			<path class="st1" d="M111.48,212.14c-1.1-0.12-2.24,0.61-3.25,0.99c-1.19,0.45-2.39,0.88-3.6,1.29c-0.29,0.1-0.17,0.52,0.12,0.45
				c1.33-0.29,2.65-0.61,3.96-0.95c1.04-0.27,2.26-0.37,3.04-1.15C111.99,212.53,111.79,212.17,111.48,212.14z"/>
			<path class="st1" d="M114.92,210.98c-0.63-0.17-1.11,0.26-1.58,0.61c-0.16,0.12-0.14,0.46,0.12,0.44
				c0.6-0.06,1.26-0.06,1.63-0.63C115.18,211.24,115.09,211.03,114.92,210.98z"/>
			<path class="st1" d="M157.34,219.43c-0.06-0.14-0.09-0.26-0.21-0.36c-0.25-0.22-0.7-0.35-0.99-0.13
				c-1.62,1.22-3.63,1.94-5.17,3.22c-0.09,0.07-0.01,0.19,0.08,0.2c2.04,0.25,4.24-0.99,5.91-2.01
				C157.24,220.19,157.47,219.77,157.34,219.43z"/>
			<path class="st1" d="M160.04,217.39c-0.6-0.03-0.9,0.39-1.28,0.79c-0.32,0.34,0.09,0.91,0.51,0.66c0.47-0.27,0.96-0.48,1.06-1.06
				C160.37,217.58,160.25,217.4,160.04,217.39z"/>
			<path class="st1" d="M190.8,125.43c-0.09-0.3-0.5-0.17-0.45,0.12c1.72,10.23,1.4,20.6,0.75,30.91c-0.3,4.76-0.64,9.52-0.91,14.28
				c-0.25,4.41-0.96,9.04-0.15,13.41c0.06,0.34,0.61,0.33,0.68,0c0.95-4.35,0.72-8.97,1.15-13.41c0.52-5.39,1.17-10.77,1.49-16.18
				C193.96,144.63,193.6,135.02,190.8,125.43z"/>
			<path class="st1" d="M191.69,189.66c-0.15-0.83-0.26-1.5-0.82-2.16c-0.18-0.21-0.47-0.07-0.55,0.14
				c-0.3,0.78-0.16,1.44-0.03,2.24c0.12,0.72,0.22,1.5,0.8,2.01c0.16,0.14,0.41,0.13,0.52-0.07
				C191.98,191.15,191.83,190.38,191.69,189.66z"/>
			<g>
				<path class="st9" d="M129.32,124.03c-2.07,2.62-4.41,4.95-7.02,6.97c0.58,0.11,1.15,0.22,1.73,0.32c4.01,0.69,7.95,1,12.02,0.98
					c7.53-0.04,16.49-0.32,22.28-5.83c4.41-4.2,5.58-9.66,4.97-15.22c-1.28-7.09-5.38-12.93-13.68-14.5c-0.57-0.11-0.68-1-0.16-1.26
					c4.87-2.43,10.26-5.07,13.06-9.99c3.08-5.4,2.18-13.16-0.84-18.45c-4.06-7.12-15.46-7.84-20.58-1.53
					c-3.97,4.89-2.48,10.15,0.39,14.85c1.45,1.35,2.73,2.81,3.4,4.76c0.16,0.46-0.02,0.82-0.32,1.03c-0.18,2.91-5.75,5.45-8.22,6.08
					c-2.16,0.55-4.39,0.66-6.6,0.47c0.77,2.45,0.13,5.02-1,7.4c-2.34,4.94-6.01,8.87-8.08,14.03c-0.06,0.15-0.16,0.27-0.26,0.36
					c2.76,2.83,5.64,5.46,8.69,7.77C129.71,122.75,129.8,123.42,129.32,124.03z M148.12,65.87c0.88-1.69,3.72-2.06,5.38-1.51
					c1.73,0.57,2.28,2.4,2.5,4.03c0.02,0.17-0.22,0.24-0.32,0.13c-0.89-0.94-1.73-1.96-3.04-2.29c-1.47-0.37-2.61,0.46-4.01,0.53
					C148.16,66.79,147.92,66.24,148.12,65.87z M148.72,71.26c0.91-1.43,2.41-2.2,4.09-0.94c1.53,1.15,1.65,3.43,1.04,5.11
					c-0.57,1.58-2.09,3.56-3.99,2.84C147.45,77.35,146.84,72.99,148.72,71.26z"/>
				<path class="st9" d="M133.58,90.66c2.57-0.32,6.6-1.57,8.29-3.99c-3.24,1.64-7.21,1.63-10.82,1.67
					c-3.85,0.05-7.5-0.14-11.2-0.09c0.85,0.24,1.68,0.51,2.45,0.77C126.01,90.21,129.67,91.15,133.58,90.66z"/>
				<path class="st9" d="M91.96,138.48c-0.35-1.14-0.63-2.54-1.66-3.28c-0.84-0.62-2.02-0.75-2.98-0.34
					c-1.81,0.77-2.9,2.85-3.39,4.64c-0.9,6.29,4.86,10.58,10.96,12.03c-1.44-2.4-2.09-4.99-2.31-7.96
					C92.46,141.87,92.47,140.13,91.96,138.48z"/>
				<path class="st9" d="M128.41,71.82c0.24-0.82,0.57-1.86,1.57-1.87c1.02-0.01,1.53,1.14,1.79,1.96c0.21,0.66,0.42,1.97,0.35,3.18
					c1.04-1.41,1.37-3.03,1.09-5.01c-0.36-2.6-1.8-5.55-4.49-4.31c-0.11,0.27-0.2,0.55-0.3,0.82c1.23-0.24,2.69,0.15,2.86,1.39
					c0.01,0.09-0.08,0.15-0.16,0.16c-0.69,0.07-1.43-0.05-2.13-0.01c-0.43,0.02-0.8,0.19-1.18,0.31c-0.95,3.2-1.42,6.63-1.57,10.14
					c0.8-0.38,1.59-0.78,2.38-1.2C127.66,75.98,128.06,73.02,128.41,71.82z"/>
				<path class="st9" d="M123.05,86.33c5.75,0.33,14.29,1.77,19.15-2.08c-1.29-1.95-3.43-2.94-5.17-4.54
					c-1.18-1.09-2.02-2.3-2.81-3.62c-2.6,2.23-5.24,4.02-8.51,5.28c-3.08,1.18-5.85,2.4-8.48,4.4c-0.51,0.39-0.99,0.8-1.47,1.21
					C117.97,86.03,120.54,86.18,123.05,86.33z M130.64,82.47c0.51-0.42,1.11-0.71,1.66-1.08c0.61-0.42,1.03-0.99,1.52-1.54
					c0.81-0.91,2.41,0.32,1.69,1.31c-0.94,1.29-3.05,2.57-4.69,1.98C130.56,83.04,130.39,82.68,130.64,82.47z"/>
				<path class="st9" d="M113.77,132.8c0.06-0.07,0.14-0.11,0.23-0.12c0.78-0.85,1.91-1.48,3.16-1.81c0.7-0.18,1.4-0.24,2.1-0.23
					c2.53-2.53,5.11-5.01,7.71-7.46c-4.79-5.27-10.05-10.07-14.65-15.54c-4.19-4.98-8.06-10.21-11.69-15.61
					c-4.52,7.47-10.63,14.52-16.28,21.09c-1.77,2.06-3.58,4.08-5.47,6.04c-1.13,1.18-4.19,3.16-3.96,4.93
					c0.13,0.99,3.01,3.21,3.71,4.05c0.35,0.42,0.68,0.84,1.01,1.27c1.74,1.76,3.49,3.53,5.09,5.42c1.25-1.53,2.99-2.4,5.11-1.75
					c3.03,0.92,4.19,4.46,4.61,7.23c0.51,3.35,0.6,6.28,1.74,9.18c1.8,1.23,3.11,3.38,4.43,5.22c2.83-6.07,8.26-11.58,12.84-16.33
					C112.44,136.45,112.28,134.5,113.77,132.8z"/>
				<path class="st9" d="M171.61,212.61c-2.66,0.32-6.1-0.04-9.27-1.06c0.13,1.52-0.73,2.85-2.09,4.02
					c-4.16,3.58-9.7,4.52-13.76,8.03c3.15,0.03,5.39,2.3,5.77,5.41c0.88-1.47,2.27-2.84,3.28-3.92c1.96-2.11,4.12-4.1,6.41-5.85
					c0.21-0.16,0.39,0.16,0.26,0.33c-1.69,2.16-3.65,4.1-5.47,6.16c-1.09,1.22-2.12,2.49-3.03,3.86c-0.12,0.18-0.22,0.34-0.33,0.5
					c4.87-2.47,12.4-2.83,15.83,1.17c3.7-6,6.71-12.09,5.53-19.36C173.73,212.22,172.69,212.48,171.61,212.61z"/>
				<path class="st9" d="M103.95,152.37c0.55-0.12,1.1-0.2,1.58-0.31c1.59-0.35,3.2-0.65,4.64-1.4c0.23-0.13,0.46-0.26,0.69-0.4
					c0.21-0.13,0.42-0.15,0.61-0.13c0.32-2.83,0.79-5.63,1.41-8.36C109.86,145.23,106.45,148.58,103.95,152.37z"/>
				<path class="st9" d="M171.28,192.44c1.81-6.5,1.11-13.43-0.51-19.88c-1.36-5.42-3.07-12.72-6.54-17.26
					c-4.24,1.23-8.78,1.58-13.21,1.24c-9.38-0.72-19.12-3.53-27.09-8.6c-2.1-1.34-6.53-4.33-9.17-7.63
					c-2.13,12.46-3.43,25.19,0.62,37.44c3.41,10.29,10.42,19.56,20.45,24.08c1.33,0.6,2.74,1.14,4.18,1.62
					c0.28-0.03,0.55,0.06,0.74,0.24C152.69,207.4,167.37,206.44,171.28,192.44z"/>
				<path class="st9" d="M194.35,189.76c0.44-5.4,1.4-10.81,2.4-16.21c0.9-11.36,1.92-22.37,0.29-33.9
					c-0.96-6.8-2.46-13.55-4.63-20.07c-1.28-3.82-2.64-8.26-4.49-12.3c-3.9-6.51-10.16-11.42-10.99-19.6
					c-1.11-10.93,0.81-22.2-8.19-30.52c-7.84-7.24-20.56-8.59-29.78-3.28c-4.51,2.6-7.52,6.11-9.49,10.17
					c0.18-0.03,0.37-0.06,0.57-0.06c1.59-0.01,2.87,1.23,3.55,2.56c1.03,2.03,1.43,4.85,0.65,7.03c0.41-0.1,0.87,0.02,1.11,0.44
					c0.98,1.74,2.39,3.08,3.85,4.36c-2.43-4.3-2.86-9.31,0.73-13.74c4.3-5.31,12.53-6.33,18.38-3.04c6,3.37,8.08,11.71,7.46,18.11
					c-0.79,8.23-7.28,12.67-14.01,16.16c4.19,1.2,7.77,3.72,10.24,7.43c1.82,2.73,2.47,5.61,2.54,8.59c1.07,7.79-2,15.67-9.69,19.42
					c-5.49,2.67-11.87,3.01-17.87,3.11c-3.83,0.06-7.59-0.18-11.39-0.62c-3.94-0.45-8.32-1.79-10.77,1.83
					c2.02,6.91,12.85,12.21,18.52,14.41c6.68,2.6,14.06,4.23,21.24,4.13c8.68-0.12,16.62-3.29,21.99-10.28
					c5.02-6.53,7.78-13.9,10.08-21.72c0.08-0.28,0.54-0.23,0.52,0.07c-0.52,9.43-4.59,19.85-11.42,26.51
					c-2.82,2.75-6.15,4.69-9.73,5.97c3.63,5.1,5.33,12.35,6.72,18.23c1.61,6.81,2.15,14.08,0.09,20.86
					c-2.5,8.25-8.6,12.11-15.73,13.22c4.3,1.55,8.02,4.12,13.01,4.08c6.72-0.05,11.08-5.48,15.92-9.28c0.14-0.11,0.37,0.03,0.26,0.2
					c-1.82,2.87-4.22,5.59-7.07,7.57c7.78,0.95,15.64,0.46,22.52-3.49C196.11,202.16,193.76,196.99,194.35,189.76z"/>
				<path class="st9" d="M115.42,182.5c0.67,4.48,0.77,9.13,2.74,13.39c3.62,7.82,12.11,14.05,19.89,8.87
					C126.9,200.7,119.6,192.49,115.42,182.5z"/>
				<path class="st9" d="M123.09,205.16c-1.64,2.74-5.61,3.84-8.47,4.77c-5.37,1.74-10.87,2.66-15.75,5.35
					c2.19,0.07,4.3,0.66,5.54,2.7c0.39,0.63,0.59,1.25,0.64,1.84c3.28-3.34,7.54-5.99,12.01-6.64c0.09-0.01,0.2,0.1,0.1,0.18
					c-3.6,2.87-7.47,4.65-10.63,7.67c4.44-1.52,9.71-1.03,12.95,2.31c1.95-1.94,4.3-3.09,6.66-4.62c4.13-2.68,6.55-5.93,8.1-10.5
					C130.42,209,126.51,207.88,123.09,205.16z"/>
				<path d="M130.81,83.13c1.64,0.59,3.75-0.69,4.69-1.98c0.72-0.99-0.88-2.22-1.69-1.31c-0.49,0.55-0.9,1.12-1.52,1.54
					c-0.55,0.38-1.14,0.67-1.66,1.08C130.39,82.68,130.56,83.04,130.81,83.13z"/>
				<path d="M149.85,78.26c1.9,0.72,3.42-1.26,3.99-2.84c0.6-1.67,0.49-3.95-1.04-5.11c-1.67-1.26-3.18-0.49-4.09,0.94
					C146.84,72.99,147.45,77.35,149.85,78.26z M150.57,72.48c0.01-0.03,0.01-0.06,0.02-0.1c0.11-0.54,0.64-0.8,1.13-0.86
					c0.05-0.01,0.1-0.01,0.15-0.01c0.63-0.03,1.3,0.72,1.03,1.36c-0.02,0.04-0.04,0.07-0.05,0.1c-0.01,0.04-0.02,0.09-0.03,0.13
					c-0.13,0.62-0.86,0.98-1.44,0.82C150.75,73.75,150.44,73.1,150.57,72.48z"/>
				<path d="M148.63,66.76c1.4-0.07,2.54-0.9,4.01-0.53c1.31,0.33,2.15,1.34,3.04,2.29c0.1,0.11,0.34,0.03,0.32-0.13
					c-0.22-1.63-0.77-3.46-2.5-4.03c-1.66-0.55-4.5-0.18-5.38,1.51C147.92,66.24,148.16,66.79,148.63,66.76z"/>
				<path class="st1" d="M151.39,73.92c0.58,0.16,1.31-0.2,1.44-0.82c0.01-0.04,0.02-0.09,0.03-0.13c0.02-0.03,0.04-0.07,0.05-0.1
					c0.27-0.64-0.4-1.39-1.03-1.36c-0.05,0-0.1,0-0.15,0.01c-0.49,0.06-1.02,0.32-1.13,0.86c-0.01,0.03-0.01,0.06-0.02,0.1
					C150.44,73.1,150.75,73.75,151.39,73.92z"/>
				<path d="M203.88,205.35c-9.1-5.46-8.3-13.99-6.78-23.28c0.51-3.13,1.14-6.34,1.6-9.57c2.56-11.58,1.7-24.41-0.21-35.79
					c-1.24-7.38-3.31-14.64-6-21.62c-1.62-4.21-3.4-10.39-6.94-13.69c-0.98-1.54-2-3.07-2.99-4.66c-4.04-6.51-3.2-13.17-3.66-20.46
					c-0.71-11.15-5.4-20.88-16.1-25.46c-9.09-3.9-20.11-2.89-27.96,3.28c-7.1,5.59-12.38,16.1-10.33,25.27
					c-1.65,0.76-3.32,1.53-5.02,2.46c-3.19,1.76-6.54,4.08-7.96,7.52c-0.07,0.18,0.02,0.34,0.16,0.43c0.03,0.08,0.1,0.15,0.21,0.14
					c4.93-0.48,8.36,0.7,13.01,1.95c1.12,0.3,2.26,0.53,3.41,0.69c-0.34,7.98-6.18,13.44-9.22,20.61
					c-6.71-7.16-12.58-15.49-17.73-23.31c-0.38-0.57-1.24-0.63-1.6,0c-3.66,6.31-8.7,12.1-13.31,17.73
					c-4.4,5.38-9.07,10.51-14.16,15.25c-0.12,0.11-0.19,0.25-0.23,0.39c-0.02,0-0.03-0.01-0.05-0.01c-0.1-0.01-0.21,0.12-0.17,0.22
					c0.89,2.12,3.27,3.91,4.83,5.59c2.3,2.48,4.53,5.07,7.04,7.37c-0.37,0.73-0.65,1.51-0.85,2.31c-1.08,2.61-0.59,5.65,1.08,8.19
					c2.85,4.34,7.82,6.02,12.71,6.81c0.22,0.04,0.45-0.02,0.65-0.12c0.96,1.21,2.05,2.35,2.9,3.44c0.45,0.57,1.24,0.15,1.45-0.38
					c0.3-0.75,0.65-1.47,1.03-2.18c1.28,0.55,2.86,0,4.17-0.31c1.52-0.36,2.91-0.98,4.25-1.75c0.04-0.02,0.08-0.05,0.12-0.07
					c-0.7,8.3-0.05,16.81,2.21,24.59c-0.11,9.16,0.95,19.37,7.54,26.32c0.34,0.36,0.69,0.7,1.05,1.02
					c-8.15,5.77-18.97,5.19-26.99,11.31c-0.92,0.7-0.24,1.58,0.58,1.66c1.5,0.16,2.78-0.57,4.36-0.02c1.26,0.44,2.36,1.42,2.8,2.68
					c0.27,0.79,0.27,1.68-0.02,2.46c-0.25,0.66-1.29,1.41-1.04,2.16c0.01,0.08,0.05,0.15,0.1,0.21c0.27,0.4,0.85,0.63,1.34,0.37
					c4.38-2.31,11.6-4.66,15.25,0.63c0.4,0.57,1.35,0.88,1.87,0.24c3.01-3.64,7.34-5.32,10.66-8.54c2.71-2.63,4.42-5.93,5.06-9.63
					c0.01-0.03,0-0.06,0-0.1c1.38-0.5,2.75-1.24,4.06-2.27c0.85,0.26,1.71,0.5,2.6,0.72c4.16,1,8.53,1.46,12.63,1.08
					c1.37,1.67,3.44,2.95,5.76,3.85c-0.47,4.48-8.54,6.17-11.7,7.89c-2.72,1.48-4.88,3.25-6.7,5.75c-0.39,0.53-0.12,1.14,0.46,1.38
					c0.65,0.26,1.27-0.29,1.91-0.44c1.49-0.33,3.15,0.04,4.29,1.06c0.93,0.83,1.49,2.05,1.57,3.29c0.03,0.44-0.68,3.99,0.9,2.67
					c3.81-3.18,14.09-4.53,16.77,0.33c0.3,0.54,1.03,0.47,1.34,0c4.31-6.5,8.12-13.75,6.29-21.73c0.37-0.17,0.74-0.37,1.1-0.56
					c0.08,0.07,0.18,0.12,0.32,0.15c8.56,2.13,18.93,1.27,26.25-3.99C204.41,206.52,204.49,205.72,203.88,205.35z M127.79,68.44
					c0.38-0.12,0.76-0.29,1.18-0.31c0.71-0.04,1.44,0.08,2.13,0.01c0.08-0.01,0.17-0.07,0.16-0.16c-0.16-1.24-1.63-1.63-2.86-1.39
					c0.1-0.28,0.2-0.55,0.3-0.82c2.7-1.24,4.13,1.71,4.49,4.31c0.28,1.98-0.05,3.6-1.09,5.01c0.08-1.21-0.14-2.51-0.35-3.18
					c-0.26-0.82-0.77-1.97-1.79-1.96c-1,0.01-1.33,1.05-1.57,1.87c-0.35,1.2-0.75,4.16,0.19,5.56c-0.78,0.42-1.57,0.82-2.38,1.2
					C126.37,75.07,126.85,71.64,127.79,68.44z M130.97,73.35c-1.09,0.64-2.08-1.15-0.96-1.67
					C131.13,71.18,132.04,72.72,130.97,73.35z M117.23,85.77c2.63-2,5.4-3.22,8.48-4.4c3.27-1.26,5.91-3.05,8.51-5.28
					c0.79,1.32,1.63,2.53,2.81,3.62c1.74,1.6,3.87,2.59,5.17,4.54c-4.86,3.85-13.4,2.4-19.15,2.08c-2.51-0.14-5.08-0.3-7.29,0.65
					C116.24,86.56,116.72,86.16,117.23,85.77z M122.31,89.02c-0.78-0.25-1.61-0.53-2.45-0.77c3.7-0.05,7.35,0.14,11.2,0.09
					c3.6-0.05,7.58-0.03,10.82-1.67c-1.69,2.43-5.72,3.67-8.29,3.99C129.67,91.15,126.01,90.21,122.31,89.02z M120.66,114.15
					c2.07-5.16,5.73-9.09,8.08-14.03c1.13-2.38,1.77-4.95,1-7.4c2.21,0.19,4.43,0.08,6.6-0.47c2.47-0.63,8.04-3.17,8.22-6.08
					c0.3-0.21,0.48-0.57,0.32-1.03c-0.68-1.95-1.96-3.42-3.4-4.76c-2.87-4.71-4.36-9.96-0.39-14.85c5.12-6.3,16.52-5.59,20.58,1.53
					c3.02,5.29,3.92,13.05,0.84,18.45c-2.81,4.92-8.19,7.56-13.06,9.99c-0.51,0.25-0.41,1.15,0.16,1.26
					c8.31,1.57,12.4,7.4,13.68,14.5c0.61,5.56-0.55,11.02-4.97,15.22c-5.8,5.51-14.76,5.79-22.28,5.83
					c-4.07,0.02-8.01-0.29-12.02-0.98c-0.57-0.1-1.15-0.21-1.73-0.32c2.61-2.02,4.96-4.35,7.02-6.97c0.48-0.61,0.39-1.28-0.23-1.75
					c-3.04-2.31-5.93-4.94-8.69-7.77C120.51,114.42,120.6,114.3,120.66,114.15z M83.93,139.5c0.5-1.79,1.58-3.87,3.39-4.64
					c0.96-0.41,2.13-0.27,2.98,0.34c1.02,0.75,1.3,2.14,1.66,3.28c0.51,1.65,0.5,3.39,0.63,5.09c0.22,2.96,0.87,5.55,2.31,7.96
					C88.8,150.08,83.03,145.79,83.93,139.5z M100.63,154.71c-1.32-1.84-2.63-3.99-4.43-5.22c-1.14-2.9-1.23-5.83-1.74-9.18
					c-0.42-2.77-1.58-6.31-4.61-7.23c-2.12-0.65-3.86,0.23-5.11,1.75c-1.6-1.89-3.34-3.66-5.09-5.42c-0.33-0.43-0.67-0.85-1.01-1.27
					c-0.7-0.84-3.58-3.06-3.71-4.05c-0.23-1.77,2.83-3.75,3.96-4.93c1.88-1.96,3.7-3.98,5.47-6.04
					c5.65-6.57,11.76-13.62,16.28-21.09c3.63,5.4,7.5,10.63,11.69,15.61c4.61,5.47,9.87,10.27,14.65,15.54
					c-2.6,2.45-5.18,4.93-7.71,7.46c-0.7-0.01-1.4,0.05-2.1,0.23c-1.26,0.33-2.38,0.95-3.16,1.81c-0.08,0.01-0.16,0.05-0.23,0.12
					c-1.49,1.7-1.33,3.64-0.3,5.58C108.88,143.13,103.46,148.64,100.63,154.71z M110.86,150.27c-0.23,0.14-0.46,0.27-0.69,0.4
					c-1.44,0.75-3.04,1.04-4.64,1.4c-0.48,0.11-1.04,0.19-1.58,0.31c2.5-3.8,5.9-7.15,8.92-10.59c-0.62,2.72-1.09,5.52-1.41,8.36
					C111.28,150.12,111.07,150.14,110.86,150.27z M126.15,218.72c-2.36,1.53-4.71,2.68-6.66,4.62c-3.24-3.34-8.51-3.84-12.95-2.31
					c3.15-3.02,7.03-4.8,10.63-7.67c0.09-0.07-0.01-0.19-0.1-0.18c-4.47,0.65-8.73,3.3-12.01,6.64c-0.05-0.6-0.25-1.21-0.64-1.84
					c-1.25-2.04-3.36-2.63-5.54-2.7c4.88-2.7,10.38-3.62,15.75-5.35c2.86-0.92,6.83-2.03,8.47-4.77c3.43,2.72,7.33,3.84,11.16,3.06
					C132.7,212.79,130.27,216.04,126.15,218.72z M118.16,195.9c-1.97-4.26-2.07-8.92-2.74-13.39c4.18,9.99,11.48,18.2,22.64,22.26
					C130.28,209.95,121.79,203.72,118.16,195.9z M140.76,203.68c-0.2-0.18-0.47-0.28-0.74-0.24c-1.45-0.48-2.85-1.02-4.18-1.62
					c-10.04-4.51-17.05-13.78-20.45-24.08c-4.05-12.24-2.74-24.98-0.62-37.44c2.63,3.3,7.07,6.29,9.17,7.63
					c7.97,5.07,17.71,7.89,27.09,8.6c4.43,0.34,8.97-0.01,13.21-1.24c3.48,4.55,5.18,11.85,6.54,17.26
					c1.62,6.45,2.32,13.39,0.51,19.88C167.37,206.44,152.69,207.4,140.76,203.68z M169.21,231.24c-3.42-4-10.96-3.64-15.83-1.17
					c0.1-0.16,0.21-0.32,0.33-0.5c0.91-1.36,1.94-2.63,3.03-3.86c1.82-2.05,3.78-3.99,5.47-6.16c0.13-0.17-0.05-0.49-0.26-0.33
					c-2.29,1.75-4.44,3.74-6.41,5.85c-1.01,1.08-2.4,2.45-3.28,3.92c-0.38-3.11-2.62-5.37-5.77-5.41c4.06-3.51,9.61-4.45,13.76-8.03
					c1.35-1.17,2.22-2.5,2.09-4.02c3.17,1.02,6.61,1.38,9.27,1.06c1.08-0.13,2.12-0.38,3.12-0.73
					C175.91,219.15,172.9,225.25,169.21,231.24z M179.22,209.59c2.85-1.98,5.25-4.7,7.07-7.57c0.11-0.17-0.12-0.31-0.26-0.2
					c-4.84,3.8-9.21,9.22-15.92,9.28c-4.98,0.04-8.71-2.54-13.01-4.08c7.13-1.11,13.23-4.97,15.73-13.22
					c2.05-6.78,1.52-14.05-0.09-20.86c-1.39-5.88-3.09-13.13-6.72-18.23c3.59-1.28,6.92-3.23,9.73-5.97
					c6.83-6.66,10.89-17.08,11.42-26.51c0.02-0.31-0.44-0.35-0.52-0.07c-2.29,7.82-5.05,15.19-10.08,21.72
					c-5.37,6.98-13.31,10.16-21.99,10.28c-7.18,0.1-14.56-1.53-21.24-4.13c-5.67-2.2-16.5-7.5-18.52-14.41
					c2.46-3.62,6.83-2.28,10.77-1.83c3.8,0.44,7.56,0.68,11.39,0.62c6-0.1,12.39-0.44,17.87-3.11c7.69-3.74,10.75-11.63,9.69-19.42
					c-0.07-2.98-0.72-5.86-2.54-8.59c-2.47-3.71-6.06-6.23-10.24-7.43c6.72-3.49,13.22-7.92,14.01-16.16
					c0.62-6.4-1.46-14.74-7.46-18.11c-5.85-3.28-14.08-2.26-18.38,3.04c-3.59,4.43-3.16,9.43-0.73,13.74
					c-1.46-1.28-2.88-2.62-3.85-4.36c-0.24-0.42-0.69-0.55-1.11-0.44c0.78-2.19,0.38-5.01-0.65-7.03c-0.68-1.33-1.96-2.57-3.55-2.56
					c-0.2,0-0.38,0.03-0.57,0.06c1.97-4.06,4.98-7.57,9.49-10.17c9.22-5.31,21.94-3.97,29.78,3.28c9.01,8.32,7.08,19.59,8.19,30.52
					c0.83,8.18,7.08,13.09,10.99,19.6c1.85,4.04,3.22,8.48,4.49,12.3c2.18,6.52,3.67,13.27,4.63,20.07
					c1.62,11.53,0.6,22.54-0.29,33.9c-0.99,5.4-1.96,10.82-2.4,16.21c-0.59,7.24,1.76,12.4,7.39,16.34
					C194.86,210.04,187,210.53,179.22,209.59z"/>
				<path class="st1" d="M130.01,71.69c-1.12,0.51-0.13,2.3,0.96,1.67C132.04,72.72,131.13,71.18,130.01,71.69z"/>
			</g>
		</g>
		<g>
			<g>
				<g>
					<g>
						<path class="st3" d="M76.5,31.98h2.22v2.49l-1.2-0.02l0.71,1.71c0.18,0.42,0.27,0.55,0.6,0.55c0.27,0,0.69-0.07,0.98-0.11
							l-0.04,2.86l-5-0.04l-2.89,0.04l-0.04-2.86l0.53,0.07c0.6,0.07,0.89,0.11,1.31,0.11l-1.02-2.44c-0.6-0.02-1.09-0.02-1.29-0.02
							c-0.42,0-2.24,0.02-4.02,0.07l-1.02,2.4c0.22,0,0.64-0.04,1.27-0.09l0.53-0.04l-0.04,2.82l-2.93-0.04l-3.06,0.04l-0.04-2.86
							c0.44,0.09,0.73,0.13,0.95,0.13c0.4,0,0.53-0.18,0.69-0.56l0.73-1.73l-1.27,0.02v-3.15c0,0,1.11,0.09,2.53,0.22l1.64-3.82
							c0.98-2.29,1-4.35,1-4.71l4.6,0.44L76.5,31.98z M71.38,31.98h0.31l-1.6-3.86l-1.6,3.69C69.64,31.91,70.73,31.98,71.38,31.98z"
							/>
					</g>
				</g>
			</g>
			<g>
				<g>
					<g>
						<path class="st3" d="M206.55,251.49h-2.22V249l1.2,0.02l-0.71-1.71c-0.18-0.42-0.27-0.55-0.6-0.55
							c-0.27,0-0.69,0.07-0.98,0.11l0.04-2.86l5,0.04l2.89-0.04l0.04,2.86l-0.53-0.07c-0.6-0.07-0.89-0.11-1.31-0.11l1.02,2.44
							c0.6,0.02,1.09,0.02,1.29,0.02c0.42,0,2.24-0.02,4.02-0.07l1.02-2.4c-0.22,0-0.64,0.04-1.27,0.09l-0.53,0.04l0.04-2.82
							l2.93,0.04l3.06-0.04l0.04,2.86c-0.44-0.09-0.73-0.13-0.95-0.13c-0.4,0-0.53,0.18-0.69,0.56l-0.73,1.73l1.27-0.02v3.15
							c0,0-1.11-0.09-2.53-0.22l-1.64,3.82c-0.98,2.29-1,4.35-1,4.71l-4.6-0.44L206.55,251.49z M211.68,251.49h-0.31l1.6,3.86
							l1.6-3.69C213.41,251.56,212.33,251.49,211.68,251.49z"/>
					</g>
				</g>
			</g>
			<g>
				<g>
					<path class="st3" d="M70.92,42.07c0.14,0,0.22,0.11,0.3,0.2c0.91,0.97,1.79,1.98,2.65,2.99c1.65,1.93,3.36,3.81,5.04,5.71
						c1.04,1.18,2.08,2.36,3.12,3.54c0.16,0.18,0.15,0.32-0.01,0.5c-3.38,3.86-6.82,7.67-10.16,11.55
						c-0.24,0.28-0.49,0.54-0.73,0.82c-0.16,0.18-0.29,0.18-0.45,0c-2.43-2.77-4.85-5.53-7.28-8.3c-1.15-1.31-2.31-2.63-3.46-3.94
						c-0.34-0.39-0.33-0.41,0.01-0.79c2.26-2.48,4.44-5.02,6.67-7.53c1.34-1.51,2.67-3.03,4.01-4.54
						C70.71,42.19,70.77,42.08,70.92,42.07z M74.09,56.46c0.01-0.49-0.04-0.99-0.13-1.47c-0.14-0.79-0.35-1.57-0.91-2.19
						c-0.57-0.64-1.23-0.73-1.97-0.32c-1.24,0.7-1.84,1.81-2.12,3.15c-0.38,1.8-1.23,3.36-2.52,4.67c-0.12,0.12-0.12,0.18,0,0.3
						c1.12,1.15,2.34,2.19,3.64,3.12c0.14,0.1,0.24,0.12,0.38,0.02c1.02-0.71,1.89-1.57,2.52-2.64
						C73.83,59.68,74.05,58.09,74.09,56.46z M76.33,59.07c0.03-0.02,0.05-0.03,0.06-0.05c0.04-0.21,0.11-0.41,0.13-0.62
						c0.1-1.51-0.03-2.99-0.73-4.37c-0.35-0.7-0.77-1.36-1.16-2.04c-0.21-0.37-0.16-0.48,0.24-0.61c0.36-0.12,0.73-0.17,1.1-0.23
						c0.31-0.05,0.37-0.15,0.33-0.45c-0.01-0.11-0.06-0.2-0.11-0.29c-0.32-0.51-0.74-0.93-1.3-1.16c-0.41-0.17-0.67-0.43-0.87-0.82
						c-0.98-1.98-3.34-2.29-4.87-1.11c-0.9,0.69-1.36,1.63-1.44,2.74c-0.08,1.15-0.43,2.18-1.1,3.12c-0.52,0.72-0.96,1.49-1.25,2.34
						c-0.28,0.84-0.51,1.68-0.44,2.58c0.03,0.33,0.05,0.67,0.19,1.06c0.11-1.04,0.31-1.98,0.66-2.88c0.46-1.2,1.16-2.27,1.84-3.34
						c0.3-0.47,0.52-0.96,0.63-1.52c0.1-0.53,0.08-1.08,0.17-1.61c0.35-2.03,1.8-2.79,3.67-2.26c0.86,0.24,1.42,0.83,1.71,1.68
						c0.07,0.2,0.18,0.34,0.4,0.41c0.37,0.12,0.68,0.36,0.95,0.64c0.26,0.28,0.22,0.45-0.14,0.56c-0.35,0.11-0.71,0.19-1.07,0.26
						c-0.25,0.04-0.3,0.18-0.25,0.39c0.03,0.12,0.09,0.23,0.14,0.35c0.26,0.52,0.6,0.99,0.9,1.48c0.7,1.17,1.23,2.4,1.45,3.76
						C76.28,57.72,76.31,58.39,76.33,59.07z M71.78,49.13c-0.25-0.01-0.49,0.23-0.5,0.49c-0.01,0.25,0.2,0.48,0.46,0.5
						c0.28,0.02,0.5-0.19,0.51-0.47C72.25,49.38,72.03,49.14,71.78,49.13z"/>
				</g>
			</g>
			<g>
				<g>
					<path class="st3" d="M212.13,241.84c-0.14,0-0.22-0.11-0.3-0.2c-0.91-0.97-1.79-1.98-2.65-2.99c-1.65-1.93-3.36-3.81-5.04-5.71
						c-1.04-1.18-2.08-2.36-3.12-3.54c-0.16-0.18-0.15-0.32,0.01-0.5c3.38-3.86,6.82-7.67,10.16-11.55
						c0.24-0.28,0.49-0.54,0.73-0.82c0.16-0.18,0.29-0.18,0.45,0c2.43,2.77,4.85,5.53,7.28,8.3c1.15,1.31,2.31,2.63,3.46,3.94
						c0.34,0.39,0.33,0.41-0.01,0.79c-2.26,2.48-4.44,5.02-6.67,7.53c-1.34,1.51-2.67,3.03-4.01,4.54
						C212.34,241.71,212.28,241.83,212.13,241.84z M208.96,227.45c-0.01,0.49,0.04,0.99,0.13,1.47c0.14,0.79,0.35,1.57,0.91,2.19
						c0.57,0.64,1.23,0.73,1.97,0.32c1.24-0.7,1.84-1.81,2.12-3.15c0.38-1.8,1.23-3.36,2.52-4.67c0.12-0.12,0.12-0.18,0-0.3
						c-1.12-1.15-2.34-2.19-3.64-3.12c-0.14-0.1-0.24-0.12-0.38-0.02c-1.02,0.71-1.89,1.57-2.52,2.64
						C209.22,224.23,209,225.82,208.96,227.45z M206.72,224.83c-0.03,0.02-0.05,0.03-0.06,0.05c-0.04,0.21-0.11,0.41-0.13,0.62
						c-0.1,1.51,0.03,2.99,0.73,4.37c0.35,0.7,0.77,1.36,1.16,2.04c0.21,0.37,0.16,0.48-0.24,0.61c-0.36,0.12-0.73,0.17-1.1,0.23
						c-0.31,0.05-0.37,0.15-0.33,0.45c0.01,0.11,0.06,0.2,0.11,0.29c0.32,0.51,0.74,0.93,1.3,1.16c0.41,0.17,0.67,0.43,0.87,0.82
						c0.98,1.98,3.34,2.29,4.87,1.11c0.9-0.69,1.36-1.63,1.44-2.74c0.08-1.15,0.43-2.18,1.1-3.12c0.52-0.72,0.96-1.49,1.25-2.34
						c0.28-0.84,0.51-1.68,0.44-2.58c-0.03-0.33-0.05-0.67-0.19-1.06c-0.11,1.04-0.31,1.98-0.66,2.88c-0.46,1.2-1.16,2.27-1.84,3.34
						c-0.3,0.47-0.52,0.96-0.63,1.52c-0.1,0.53-0.08,1.08-0.17,1.61c-0.35,2.03-1.8,2.79-3.67,2.26c-0.86-0.24-1.42-0.83-1.71-1.68
						c-0.07-0.2-0.18-0.34-0.4-0.41c-0.37-0.12-0.68-0.36-0.95-0.64c-0.26-0.28-0.22-0.45,0.14-0.56c0.35-0.11,0.71-0.19,1.07-0.26
						c0.25-0.04,0.3-0.18,0.25-0.39c-0.03-0.12-0.09-0.23-0.14-0.35c-0.26-0.52-0.6-0.99-0.9-1.48c-0.7-1.17-1.23-2.4-1.45-3.76
						C206.77,226.19,206.74,225.52,206.72,224.83z M211.27,234.78c0.25,0.01,0.49-0.23,0.5-0.49c0.01-0.25-0.2-0.48-0.46-0.5
						c-0.28-0.02-0.5,0.19-0.51,0.47C210.8,234.52,211.02,234.77,211.27,234.78z"/>
				</g>
			</g>
		</g>
	</g>
</g>
<g id="CARDS">
</g>
</svg>
