<?xml version="1.0" encoding="utf-8"?>
<!-- Generator: Adobe Illustrator 24.0.1, SVG Export Plug-In . SVG Version: 6.00 Build 0)  -->
<svg version="1.1" xmlns="http://www.w3.org/2000/svg" xmlns:xlink="http://www.w3.org/1999/xlink" x="0px" y="0px"
	 viewBox="0 0 283.46 283.46" style="enable-background:new 0 0 283.46 283.46;" xml:space="preserve">
<style type="text/css">
	.st0{fill:#DBDDD9;}
	.st1{fill:#FFFFFF;}
	.st2{fill:none;stroke:#000000;stroke-width:3;stroke-miterlimit:10;}
	.st3{fill:#E30613;}
	.st4{fill:#894F28;}
	.st5{fill:#3E2215;}
	.st6{fill:#DEB27E;}
	.st7{opacity:0.25;fill:#312783;}
	.st8{opacity:0.53;fill:#F5F0DA;}
	.st9{fill:none;}
	.st10{fill:#EB941E;}
	.st11{fill:#1F201D;}
	.st12{fill:#E2E0DB;}
	.st13{fill:#B7B6B0;}
	.st14{fill:#2FAC66;}
	.st15{fill:#312783;}
	.st16{fill:#E94D2A;}
	.st17{fill:#F5EA61;}
	.st18{fill:#1D71B8;}
	.st19{fill:#2D3B49;}
</style>
<g id="bg">
</g>
<g id="CUT">
</g>
<g id="BACK">
</g>
<g id="ILLUSTRATION">
</g>
<g id="SYMBOLS">
</g>
<g id="CARDS">
	<g>
		<path class="st1" d="M217.23,267.73h-151c-8.01,0-14.5-6.49-14.5-14.5v-223c0-8.01,6.49-14.5,14.5-14.5h151
			c8.01,0,14.5,6.49,14.5,14.5v223C231.73,261.24,225.24,267.73,217.23,267.73z"/>
		<g>
			<g>
				<path class="st3" d="M104.5,103.57c0.49-0.28,0.94-0.64,1.32-1.07c0.53-0.6,0.91-1.28,1.12-2.03c-0.21,0.75-0.59,1.43-1.12,2.03
					C105.44,102.94,104.99,103.29,104.5,103.57z"/>
				<path class="st3" d="M120.98,104.38c-0.42,0.36-0.8,0.74-1.14,1.16C120.18,105.11,120.57,104.73,120.98,104.38z"/>
				<path class="st3" d="M99.62,93.98c-1.81,0.85-2.82,2.47-3.11,4.26c-0.04,0.27-0.06,0.55-0.05,0.82
					c-0.01-0.28,0.01-0.55,0.05-0.82C96.8,96.45,97.81,94.83,99.62,93.98z"/>
				<path class="st3" d="M118.66,107.67c-0.09,0.27-0.17,0.55-0.23,0.84c-0.02,0.09-0.05,0.16-0.09,0.22
					c0.04-0.06,0.07-0.13,0.09-0.22C118.49,108.22,118.56,107.94,118.66,107.67z"/>
				<path class="st3" d="M96.8,100.7c0.51,1.32,1.54,2.49,2.87,3.12c0.25,0.12,0.52,0.22,0.79,0.29c-0.27-0.07-0.53-0.17-0.79-0.29
					C98.34,103.2,97.31,102.03,96.8,100.7z"/>
				<path class="st3" d="M115.53,90.33c0.24-0.01,0.47-0.02,0.71,0C116,90.32,115.77,90.32,115.53,90.33z"/>
				<path class="st3" d="M120.72,92.31c0.46,0.52,0.82,1.15,1.02,1.94c0.35,1.31,0.6,2.63,0.79,3.97c-0.19-1.33-0.44-2.66-0.79-3.97
					C121.53,93.46,121.18,92.83,120.72,92.31z"/>
				<path class="st3" d="M106.1,81.89c-1,1.67-1.84,3.45-2.57,5.32c-0.2,0.51-0.38,1.02-0.54,1.53c0.17-0.51,0.35-1.02,0.54-1.53
					C104.26,85.34,105.11,83.56,106.1,81.89z"/>
				<path class="st3" d="M106.57,96.39c-0.18-0.34-0.4-0.67-0.66-0.98l0,0C106.17,95.73,106.39,96.05,106.57,96.39z"/>
				<path class="st3" d="M193.29,94.25c0.13,0.15,0.32,0.25,0.55,0.33C193.61,94.51,193.42,94.4,193.29,94.25z"/>
				<path class="st1" d="M146.45,88.19L146.45,88.19c-2.42-3.8-5.28-7.04-8.64-9.84c-0.89-0.74-1.81-1.44-2.75-2.09
					c0.94,0.65,1.86,1.35,2.75,2.09C141.17,81.15,144.03,84.39,146.45,88.19z"/>
				<path class="st3" d="M188.02,79.6c1.38,1.94,2.48,4.06,3.31,6.32C190.5,83.66,189.41,81.54,188.02,79.6z"/>
				<path class="st3" d="M197.73,99.29c-0.17-1.93-1.05-3.33-2.57-4.15C196.68,95.96,197.55,97.36,197.73,99.29z"/>
				<path class="st3" d="M193.54,105.02c-0.06,0.01-0.12,0.01-0.18,0.02C193.42,105.03,193.48,105.03,193.54,105.02
					c2-0.43,3.67-2.05,4.11-3.87C197.21,102.97,195.54,104.59,193.54,105.02z"/>
				<path class="st3" d="M117.43,210.6c0.51,0.09,1.03,0.14,1.55,0.16c0.01,0,0.02,0,0.04,0c-0.01,0-0.02,0-0.04,0
					C118.46,210.75,117.94,210.7,117.43,210.6z"/>
				<path class="st3" d="M192.81,91.38c-0.05-0.24-0.1-0.48-0.14-0.72c-0.17-0.82-0.36-1.63-0.58-2.42c0.22,0.79,0.41,1.6,0.58,2.42
					C192.71,90.9,192.76,91.14,192.81,91.38z"/>
				<path class="st3" d="M176.71,71.44c-0.27-0.04-0.55-0.09-0.83-0.11c-0.66-0.06-1.32-0.09-1.98-0.09
					c0.66-0.01,1.32,0.02,1.98,0.09C176.16,71.35,176.44,71.39,176.71,71.44z"/>
				<path class="st3" d="M111,139.74c-0.06,0.71-0.13,1.41-0.18,2.12c-0.12,1.56-0.21,3.12-0.31,4.68c0.1-1.56,0.19-3.12,0.31-4.68
					C110.87,141.15,110.94,140.45,111,139.74z"/>
				<path class="st3" d="M108.93,167.19c0.13,0.18,0.13,0.45,0.1,1C109.06,167.64,109.06,167.37,108.93,167.19z"/>
				<path class="st3" d="M88.57,162.62c0.5,0.06,1,0.15,1.49,0.23c1.04,0.17,2.08,0.33,3.12,0.42c-1.04-0.09-2.08-0.25-3.12-0.42
					C89.56,162.77,89.07,162.68,88.57,162.62z"/>
				<path class="st3" d="M98.93,162.8c0.06,0.02,0.12,0.05,0.18,0.1c2.02,1.43,4.27,2.36,6.57,3.14c-2.31-0.78-4.55-1.71-6.57-3.14
					C99.04,162.85,98.98,162.82,98.93,162.8z"/>
				<path class="st3" d="M84.29,162.28c0.91,0.17,1.83,0.28,2.77,0.25c0.25-0.01,0.51,0,0.76,0.01c-0.25-0.02-0.5-0.02-0.76-0.01
					C86.12,162.56,85.2,162.44,84.29,162.28z"/>
				<path class="st3" d="M114.33,208.04c0.05,0.94,0.62,1.72,1.6,2.12c0.49,0.2,0.99,0.34,1.5,0.44c-0.51-0.09-1.01-0.23-1.5-0.44
					C114.95,209.76,114.37,208.98,114.33,208.04z"/>
				<path class="st3" d="M81.63,161.14c0.4,0.47,0.98,0.79,1.75,0.96c0.3,0.06,0.6,0.13,0.91,0.18c-0.3-0.06-0.61-0.12-0.91-0.18
					C82.61,161.93,82.03,161.61,81.63,161.14z"/>
				<path class="st3" d="M123.33,193.88c0.29,1.56,0.91,3.17,1.89,5.43c-1.11,0.21-2.19,0.49-3.23,0.87
					c1.04-0.38,2.13-0.65,3.23-0.87C124.24,197.05,123.62,195.43,123.33,193.88z"/>
				<path class="st3" d="M123.4,183.93c0.37,0,0.74,0.01,1.12,0.01c-0.86,3.44-1.33,5.66-1.37,7.57c0.04-1.91,0.51-4.13,1.37-7.57
					C124.14,183.95,123.77,183.94,123.4,183.93z"/>
				<path class="st3" d="M116.24,109.22c-0.41,0.07-0.83,0.12-1.24,0.21c-0.48,0.1-0.8,0.2-1.01,0.35c0.22-0.16,0.54-0.26,1.01-0.35
					C115.41,109.34,115.83,109.29,116.24,109.22z"/>
				<path class="st3" d="M110.02,153.41c-0.02,0.24-0.03,0.47-0.05,0.72l0,0C109.99,153.87,110,153.65,110.02,153.41z"/>
				<path class="st3" d="M93.04,145.82c-0.04,0.04-0.08,0.07-0.12,0.08c-0.73,0.28-1.46,0.5-2.21,0.67c0.75-0.18,1.49-0.4,2.21-0.67
					C92.96,145.89,93,145.86,93.04,145.82z"/>
				<path class="st3" d="M120.44,71.42c0.31-0.02,0.61-0.03,0.92-0.03C121.05,71.39,120.74,71.4,120.44,71.42z"/>
				<path class="st3" d="M112.96,117.52c0.15-1.52,0.27-3.05,0.48-4.56c0.06-0.44,0.08-0.88,0.1-1.32c-0.01,0.44-0.04,0.88-0.1,1.32
					C113.24,114.47,113.12,116,112.96,117.52c-0.16,1.59-0.31,3.18-0.46,4.77c-0.09,0.89-0.18,1.78-0.26,2.67
					c0.09-0.89,0.18-1.78,0.26-2.67C112.65,120.7,112.81,119.11,112.96,117.52z"/>
				<path class="st3" d="M108.82,153.56c-0.89-0.44-1.76-0.87-2.63-1.25l0,0C107.06,152.69,107.93,153.12,108.82,153.56z"/>
				<path class="st3" d="M97.23,137.46c-0.22,0-0.43,0.02-0.64,0.06c-0.55,0.1-1.07,0.31-1.55,0.6c0.47-0.29,0.99-0.5,1.55-0.6
					C96.8,137.47,97.02,137.45,97.23,137.46z"/>
				<path class="st3" d="M100.57,141.82c0.02-0.51-0.05-1.02-0.1-1.54c-0.03-0.26-0.08-0.5-0.16-0.73c0.08,0.23,0.13,0.47,0.16,0.73
					C100.52,140.8,100.59,141.31,100.57,141.82z"/>
				<path class="st3" d="M100.93,144.58c-0.42-0.62-0.59-1.35-0.42-2.25c0.03-0.17,0.05-0.34,0.06-0.51
					c-0.01,0.17-0.02,0.34-0.06,0.51C100.34,143.23,100.5,143.96,100.93,144.58z"/>
				<path class="st1" d="M169.31,71.84c-0.42,0.1-0.83,0.2-1.24,0.33c-6.82,2.13-12.47,5.98-17.31,11c4.85-5.02,10.49-8.86,17.31-11
					C168.48,72.04,168.89,71.95,169.31,71.84z"/>
				<path class="st3" d="M134.28,192.27c0.01,0.08,0.02,0.16,0.04,0.23C134.3,192.43,134.29,192.35,134.28,192.27z"/>
				<path class="st3" d="M136.21,184.1c-0.25-0.02-0.44,0.02-0.58,0.12C135.77,184.12,135.96,184.08,136.21,184.1z"/>
				<path class="st3" d="M109.26,185.86c-0.13,0.02-0.26,0.02-0.37,0.01C109,185.88,109.13,185.87,109.26,185.86z"/>
				<path class="st3" d="M180.1,210.86c-0.35,0.15-0.71,0.27-1.08,0.37C179.39,211.14,179.75,211.01,180.1,210.86z"/>
				<path class="st3" d="M139.88,205.54c-0.1,0.54-0.35,0.98-0.72,1.36C139.54,206.52,139.78,206.07,139.88,205.54z"/>
				<path class="st3" d="M119.08,184.2c-1.22,0.12-2.44,0.28-3.65,0.47C116.65,184.49,117.86,184.33,119.08,184.2z"/>
				<path class="st3" d="M114.33,208.04c-0.02-0.31,0.03-0.64,0.13-0.98C114.36,207.4,114.31,207.73,114.33,208.04z"/>
				<path class="st3" d="M123.33,193.88c-0.1-0.52-0.16-1.03-0.18-1.56C123.18,192.85,123.24,193.36,123.33,193.88z"/>
				<path class="st3" d="M172.86,211.7c-0.76-0.03-1.53-0.08-2.29-0.14C171.33,211.62,172.09,211.67,172.86,211.7z"/>
				<path class="st3" d="M181.62,209.4c-0.07,0.22-0.18,0.43-0.31,0.61C181.45,209.83,181.55,209.62,181.62,209.4z"/>
				<path class="st3" d="M189.64,151.69c0.52,0.3,1.03,0.62,1.53,0.97C190.67,152.31,190.16,152,189.64,151.69z"/>
				<path class="st3" d="M173.7,93.44c-0.55,0.91-1.03,1.85-1.47,2.83C172.66,95.29,173.15,94.34,173.7,93.44z"/>
				<path class="st3" d="M174.99,91.57c-0.28,0.35-0.54,0.71-0.79,1.07C174.45,92.27,174.72,91.92,174.99,91.57z"/>
				<path class="st3" d="M186.07,150.02c0.32,0.12,0.64,0.24,0.96,0.37C186.71,150.26,186.39,150.13,186.07,150.02z"/>
				<path class="st3" d="M193.42,177.22c0.06,0.17,0.1,0.34,0.13,0.52C193.52,177.56,193.48,177.39,193.42,177.22z"/>
				<path class="st3" d="M182.64,184.52c-0.53-0.11-1.05-0.26-1.57-0.46C181.59,184.26,182.12,184.41,182.64,184.52z"/>
				<path class="st3" d="M108.26,185.52c-0.09-0.14-0.15-0.32-0.17-0.54C108.11,185.2,108.16,185.38,108.26,185.52z"/>
				<path class="st3" d="M118.66,107.67c0.27-0.81,0.68-1.51,1.19-2.14C119.33,106.16,118.93,106.86,118.66,107.67z"/>
				<path class="st3" d="M118.01,108.92c0.14-0.03,0.25-0.09,0.33-0.2C118.27,108.84,118.15,108.89,118.01,108.92z"/>
				<path class="st3" d="M105.1,150.12c0.09,0.27,0.16,0.55,0.19,0.82C105.26,150.66,105.18,150.39,105.1,150.12z"/>
				<path class="st3" d="M102.95,146.43c0.01,0.01,0.02,0.02,0.03,0.02C102.97,146.44,102.96,146.44,102.95,146.43z"/>
				<path class="st3" d="M120.22,91.84c-0.35-0.29-0.75-0.54-1.18-0.74C119.47,91.3,119.87,91.54,120.22,91.84z"/>
				<path class="st3" d="M119.05,91.09c-0.43-0.21-0.89-0.38-1.36-0.52C118.16,90.72,118.62,90.89,119.05,91.09z"/>
				<path class="st3" d="M106.57,96.39c0.18,0.34,0.31,0.69,0.4,1.05C106.88,97.08,106.75,96.73,106.57,96.39z"/>
				<path class="st3" d="M115.53,90.33c-0.47,0.03-0.94,0.1-1.4,0.21C114.59,90.43,115.06,90.36,115.53,90.33z"/>
				<path class="st3" d="M108.45,178.08c0.01-0.31,0.03-0.62,0.05-0.93C108.48,177.46,108.46,177.77,108.45,178.08z"/>
				<path class="st3" d="M108.07,184.62c0,0.13,0,0.25,0.01,0.36C108.07,184.87,108.07,184.75,108.07,184.62L108.07,184.62z"/>
				<path class="st3" d="M108.84,185.86c-0.11-0.02-0.21-0.05-0.3-0.1C108.62,185.81,108.72,185.84,108.84,185.86z"/>
				<path class="st3" d="M93.58,139.48c0.24-0.32,0.49-0.62,0.79-0.88C94.08,138.86,93.82,139.16,93.58,139.48z"/>
				<path class="st3" d="M99.62,93.98c0.6-0.28,1.3-0.48,2.09-0.57C100.92,93.5,100.22,93.7,99.62,93.98z"/>
				<path class="st3" d="M108.08,184.49c0.07-1.79,0.18-3.57,0.31-5.35C108.26,180.92,108.15,182.7,108.08,184.49z"/>
				<path class="st3" d="M92.55,142.28L92.55,142.28c0.02-0.37,0.09-0.74,0.19-1.1C92.65,141.54,92.57,141.91,92.55,142.28z"/>
				<path class="st3" d="M78.55,156c-0.01-0.29,0.02-0.58,0.09-0.87C78.57,155.42,78.54,155.71,78.55,156z"/>
				<path class="st3" d="M78.78,154.69c0.08-0.2,0.18-0.4,0.29-0.59C78.96,154.29,78.86,154.49,78.78,154.69z"/>
				<path class="st3" d="M110.98,75.83c-1.94,1.8-3.54,3.83-4.87,6.06C107.43,79.66,109.03,77.63,110.98,75.83z"/>
				<path class="st3" d="M182.83,146.06c0.07-0.99,0.14-1.98,0.24-2.97c0.18-1.9,0.37-3.79,0.56-5.69c-0.19,1.9-0.38,3.79-0.56,5.69
					C182.98,144.08,182.9,145.07,182.83,146.06z"/>
				<path class="st3" d="M196.79,161.64c0-0.49-0.04-0.98-0.13-1.49c-0.06-0.36-0.15-0.71-0.25-1.04c0.1,0.34,0.18,0.68,0.25,1.04
					C196.75,160.66,196.79,161.16,196.79,161.64z"/>
				<path class="st3" d="M184.33,149.46c-0.56-0.15-1.13-0.3-1.71-0.41c0.07-1,0.14-2,0.21-2.99c-0.07,0.99-0.13,1.99-0.21,2.99
					C183.21,149.17,183.78,149.31,184.33,149.46z"/>
				<path class="st3" d="M193.77,168.81c0.73-0.93,1.37-1.93,1.93-2.99c0.04-0.07,0.07-0.15,0.1-0.22c-0.04,0.07-0.07,0.15-0.1,0.22
					C195.14,166.88,194.51,167.88,193.77,168.81z"/>
				<path class="st3" d="M190.82,171.79c0.07-0.18,0.23-0.32,0.42-0.47c0.48-0.37,0.93-0.77,1.35-1.19
					c-0.42,0.42-0.87,0.82-1.35,1.19C191.04,171.47,190.89,171.62,190.82,171.79z"/>
				<path class="st3" d="M173.82,110.08c-0.04-0.06-0.08-0.13-0.12-0.22c-0.35-0.85-0.83-1.61-1.4-2.3c0.57,0.68,1.05,1.44,1.4,2.3
					C173.74,109.94,173.78,110.02,173.82,110.08z"/>
				<path class="st3" d="M169.99,105.34c-0.29-0.38-0.33-0.79-0.24-1.3c0.25-1.42,0.6-2.81,1.05-4.17c-0.45,1.36-0.8,2.75-1.05,4.17
					C169.65,104.55,169.7,104.96,169.99,105.34z"/>
				<path class="st3" d="M184.73,126.56c0.16-1.55,0.32-3.1,0.49-4.64c0.21-1.81,0.43-3.62,0.65-5.42
					c-0.23,1.81-0.45,3.61-0.65,5.42C185.05,123.46,184.89,125.01,184.73,126.56z"/>
				<path class="st3" d="M185.88,116.49c0.23-1.81,0.46-3.61,0.68-5.42c0.01-0.12,0.02-0.24,0.01-0.35c0.01,0.11,0,0.23-0.01,0.35
					C186.33,112.88,186.11,114.68,185.88,116.49z"/>
				<path class="st3" d="M174.42,110.34c-0.02,0-0.03,0-0.05-0.01C174.39,110.33,174.4,110.34,174.42,110.34L174.42,110.34z"/>
				<path class="st3" d="M190.99,172.95c-0.04-0.17-0.07-0.34-0.13-0.5c-0.05-0.14-0.08-0.26-0.09-0.37c0,0.11,0.03,0.23,0.09,0.37
					C190.92,172.62,190.95,172.79,190.99,172.95z"/>
				<path class="st3" d="M178.92,186.07c-0.79,0.19-1.59,0.36-2.39,0.51C177.33,186.43,178.13,186.26,178.92,186.07
					c0.53-0.13,0.85-0.32,1.05-0.63C179.76,185.74,179.45,185.94,178.92,186.07z"/>
				<path class="st3" d="M171.27,199.62c-0.9-0.09-1.8-0.05-2.73-0.08l0,0C169.46,199.57,170.37,199.53,171.27,199.62z"/>
				<path class="st3" d="M168.7,188.81c-0.06-0.42-0.13-0.84-0.19-1.25c0.15-0.1,0.28-0.14,0.41-0.15
					c-0.12,0.01-0.26,0.05-0.41,0.15C168.58,187.98,168.64,188.4,168.7,188.81z"/>
				<path class="st3" d="M169.1,187.4c0.06,0,0.11,0,0.17,0c0.75-0.04,1.5-0.1,2.25-0.16c-0.75,0.06-1.5,0.12-2.25,0.16
					C169.21,187.4,169.16,187.4,169.1,187.4z"/>
				<path class="st3" d="M191.25,175.38c-0.06-0.03-0.12-0.05-0.18-0.08c0.01-0.49,0.04-0.98,0.03-1.45
					c0.01,0.48-0.02,0.96-0.03,1.45C191.13,175.33,191.19,175.35,191.25,175.38z"/>
				<path class="st3" d="M184.24,184.71c0.8,0.03,1.62-0.04,2.45-0.22c1.42-0.31,2.7-0.83,3.79-1.61c-1.09,0.77-2.37,1.3-3.79,1.61
					C185.86,184.67,185.04,184.74,184.24,184.71z"/>
				<path class="st3" d="M180.31,183.74c0.26,0.12,0.51,0.23,0.77,0.32C180.82,183.96,180.56,183.86,180.31,183.74L180.31,183.74z"
					/>
				<path class="st3" d="M180.24,184.39c-0.01-0.16-0.03-0.32,0.01-0.48C180.22,184.07,180.23,184.23,180.24,184.39z"/>
				<path class="st12" d="M181.86,158.19c-0.03,0.45,0.27,0.51,0.62,0.58c1.32,0.29,2.52,0.85,3.54,1.75
					c0.8,0.7,0.97,1.49,0.54,2.45c-0.19,0.41-0.43,0.8-0.7,1.17c-1.02,1.36-2.35,2.35-3.82,3.15c-0.48,0.26-0.77,0.54-0.85,1.15
					c-0.13,0.95-0.08,1.89-0.14,2.83c-0.2,2.96-0.35,5.92-0.56,8.88c-0.05,0.66,0.25,1.04,0.75,1.35c0.94,0.57,1.96,0.87,3.05,0.89
					c2.98,0.07,5.4-1.01,7.05-3.56c0.43-0.67,0.27-1.07-0.44-1.34c-0.44-0.17-0.7-0.01-0.96,0.37c-1.07,1.54-2.53,2.51-4.38,2.85
					c-0.37,0.07-0.77,0.21-1.09-0.28c0.35-0.35,0.8-0.54,1.21-0.79c3.19-1.94,4.11-5.12,2.44-8.41c-0.3-0.58-0.03-1.07,0.68-1.12
					c0.41-0.03,0.74-0.1,1.05-0.4c1.35-1.29,2.55-2.72,3.5-4.32c0.75-1.27,1.37-2.62,1.25-4.13c-0.17-2.2-1.32-3.92-2.9-5.37
					c-2.32-2.13-5.09-3.46-8.09-4.34c-0.33-0.09-0.65-0.33-1.13-0.1C182.13,153.65,182.02,155.92,181.86,158.19z"/>
				<path class="st12" d="M166.01,200.31c0.89-2.7,1.2-5.46,0.9-8.28c-0.17-1.6-0.4-3.2-0.9-4.76c-1.91,0-3.77,0-5.66,0
					c-0.16,0.43,0.07,0.71,0.13,1.03c0.5,2.78,0.47,5.59,0.36,8.4c-0.09,2.21-0.68,4.3-2.18,6.04c-0.38,0.44-0.66,0.97-0.88,1.52
					c-0.62,1.51-0.39,2.11,1.06,2.82c0.29,0.14,0.6,0.25,0.9,0.36c3.35,1.13,6.82,1.6,10.32,1.92c2.21,0.2,4.44,0.25,6.66,0.02
					c1.02-0.11,2.04-0.19,2.97-0.73c-0.29-1.41-0.88-2.59-1.87-3.53c-2.94-2.82-6.44-3.94-10.47-3.39
					C166.17,201.87,165.65,201.4,166.01,200.31z"/>
				<path class="st17" d="M144.62,150.71c-0.69,10.68-1.22,21.21-1.77,31.71c2.32,0.37,4.5,0.75,6.68,1.05
					c2.67,0.37,5.34,0.79,8.02,1.05c2.27,0.23,4.55,0.44,6.82,0.51c3.29,0.09,6.6,0.11,9.87-0.38c1.14-0.17,2.31-0.27,3.45-0.69
					c0.75-10.98,1.49-21.93,2.24-32.82C168.11,153,156.42,152.18,144.62,150.71z"/>
				<path class="st14" d="M148.67,110.82c-1.36,10.99-2.48,21.96-3.45,33.01c2.27,0.11,4.43-0.14,6.55-0.67
					c1.81-0.45,3.5-1.18,5.07-2.19c0.47-0.3,1.08-0.83,1.55-0.2c0.48,0.63-0.12,1.12-0.56,1.57c-0.4,0.4-0.83,0.73-1.31,1.02
					c-2.85,1.71-5.97,2.47-9.25,2.7c-0.74,0.05-1.49-0.07-2.23,0.08c-0.06,0.79-0.11,1.53-0.16,2.22c0.2,0.19,0.39,0.19,0.59,0.21
					c2.69,0.25,5.36,0.62,8.06,0.85c2.6,0.21,5.19,0.47,7.8,0.53c3.56,0.07,7.12,0.08,10.68,0c2.51-0.06,4.99-0.39,7.46-0.81
					c0.52-0.09,0.78-0.33,0.81-0.96c0.09-2.05,0.26-4.1,0.44-6.14c0.22-2.56,0.47-5.12,0.72-7.68c0.16-1.65,0.33-3.3,0.51-4.95
					c0.21-1.94,0.44-3.88,0.66-5.82c0.24-2.13,0.52-4.26,0.71-6.4c0.14-1.61,0.5-3.21,0.48-4.94c-2.34,0.17-4.55,0.4-6.76,0.47
					c-5.94,0.19-11.87-0.08-17.77-0.79C155.77,111.48,152.28,111.17,148.67,110.82z M163.2,130.76c0.17,1.11-0.66,1.83-1.76,1.51
					c-0.81-0.23-1.55-0.67-2.36-0.9c-1.62-0.46-3.22-0.27-4.78,0.3c-0.27,0.1-0.55,0.2-0.83,0.27c-1.14,0.3-1.65-0.11-1.65-1.29
					c0.01-2.04,1.76-4.16,3.94-4.82C159.09,124.83,162.67,127.36,163.2,130.76z"/>
				<path class="st3" d="M187.5,98.02c0.16-0.51,0.41-0.99,0.72-1.42c0.29-0.39,0.61-0.75,0.95-1.17c-0.34,0.42-0.67,0.78-0.95,1.17
					C187.9,97.03,187.66,97.51,187.5,98.02z"/>
				<path class="st12" d="M162.83,104.28c-6.09-2.06-12.39-2.9-18.78-3.07c-4.5-0.12-8.98,0.3-13.37,1.33
					c-2.75,0.65-5.46,1.46-7.77,3.2c-0.93,0.7-1.65,1.55-2.12,2.8c0.38,0,0.64,0.02,0.9,0c3.73-0.4,7.48-0.55,11.24-0.58
					c5.16-0.04,10.32,0.07,15.46,0.44c3.15,0.23,6.29,0.53,9.43,0.91c3.39,0.41,6.8,0.69,10.21,0.98c1.04,0.09,2.1,0.01,3.28,0.01
					c-0.32-0.46-0.53-0.78-0.76-1.09c-0.12-0.16-0.26-0.29-0.39-0.44C168.18,106.5,165.6,105.22,162.83,104.28z"/>
				<path class="st18" d="M191.43,94.45c-0.26-1.11-0.47-2.23-0.78-3.32c-1.58-5.67-4.22-10.71-8.89-14.47
					c-2.27-1.83-4.84-3.06-7.86-2.97c-2.33,0.07-4.57,0.63-6.72,1.48c-10.2,4-17.55,11.1-22.53,20.76
					c-0.45,0.87-0.89,1.77-1.07,2.78c8.25,0.34,16.32,1.31,23.88,4.99c0.35-1.79,0.65-3.54,1.23-5.23
					c1.32-3.85,3.04-7.47,6.03-10.35c2.12-2.03,4.4-2.44,7.07-1.23c1.22,0.55,2.34,1.29,3.37,2.14c1.87,1.54,3.58,3.24,5.13,5.11
					C190.58,94.48,190.87,94.89,191.43,94.45z"/>
				<path class="st17" d="M125.19,101.83c0.27-0.08,0.46-0.12,0.64-0.19c3.61-1.34,7.35-2.1,11.17-2.54
					c1.17-0.13,2.35-0.1,3.51-0.27c0.54-0.08,0.76-0.31,0.91-0.8c0.68-2.25,1.65-4.39,2.86-6.39c0.55-0.91,0.43-1.58-0.11-2.39
					c-1.37-2.07-2.87-4.04-4.59-5.83c-3.95-4.1-8.52-7.25-14.04-8.85c-1.94-0.56-3.94-0.94-5.97-0.58
					c-2.69,0.48-4.86,1.96-6.82,3.76c-4.73,4.35-7.37,9.91-9.16,15.99c0.29,0.16,0.57,0.31,0.88,0.47c1.18-1.21,2.38-2.36,3.73-3.33
					c3.39-2.45,7.03-3.75,11.37-2.38c-0.62-1.01-1.18-1.9-1.83-2.96c1.04,0.03,1.64,0.52,2.2,1.03c1.71,1.58,2.89,3.5,3.67,5.69
					C124.71,95.33,125.07,98.52,125.19,101.83z"/>
				<path class="st3" d="M142.68,145.94c-3.17-0.5-6.11-1.45-8.67-3.37c-0.68-0.51-1.32-1.07-1.7-1.86c-0.17-0.34-0.24-0.72,0.07-1
					c0.32-0.29,0.72-0.25,1.08-0.01c0.25,0.16,0.49,0.33,0.71,0.52c2.52,2.14,5.55,2.93,8.79,3.41c0.95-11,2.13-21.9,3.39-32.79
					c-0.41-0.17-0.75-0.28-1.11-0.26c-1.87,0.07-3.72-0.22-5.58-0.23c-5.52-0.04-11.04-0.13-16.55,0.38
					c-2.04,0.19-4.08,0.39-6.09,0.75c-1.2,0.21-1.16,0.26-1.27,1.48c-0.19,2.11-0.44,4.21-0.65,6.31c-0.18,1.78-0.36,3.56-0.52,5.35
					c-0.16,1.85-0.29,3.7-0.45,5.55c-0.17,1.98-0.36,3.96-0.53,5.94c-0.18,2.08-0.37,4.15-0.53,6.23c-0.13,1.74-0.23,3.48-0.35,5.28
					c10.01-1.49,19.9-0.95,29.84,0.6C142.5,147.38,142.9,146.68,142.68,145.94z M130.44,131.61c-1.22,0.48-1.99-0.06-1.98-1.36
					c0.02-2.03,1.87-4.17,4.12-4.81c3.43-0.97,6,1.82,6.22,4.96c0.07,1.04-0.74,1.59-1.78,1.29c-0.37-0.11-0.71-0.31-1.07-0.47
					c-1.54-0.72-3.08-0.68-4.62-0.02C131.03,131.32,130.75,131.49,130.44,131.61z"/>
				<path class="st12" d="M89.64,155.63c-0.16-1.01-0.5-1.86-0.43-2.86c-1.83-0.15-3.48,0.13-5.14,0.51c-0.84,0.19-1.6,0.52-2.3,1
					c-0.66,0.45-1.04,1.05-0.95,1.9c0.04,0.37,0.03,0.67,0.45,0.87c0.43,0.21,0.67-0.01,0.96-0.22c1.29-0.98,2.76-1.42,4.37-1.4
					C87.59,155.44,88.58,155.38,89.64,155.63z"/>
				<path class="st3" d="M189.45,99.64c0,1.75,1.43,3.25,3.08,3.23c1.68-0.02,3.06-1.43,3.07-3.13c0.01-1.83-1.4-3.27-3.17-3.24
					C190.83,96.53,189.45,97.99,189.45,99.64z"/>
				<path class="st3" d="M187.62,93.8c0.55,0.5,1.09,1.02,1.55,1.62C188.71,94.82,188.17,94.3,187.62,93.8z"/>
				<path class="st14" d="M101.79,95.65c-1.65,0.02-3.12,1.55-3.11,3.25c0.01,1.66,1.54,3.24,3.19,3.16
					c1.72-0.08,3.01-1.4,3.05-3.19C104.93,97.16,103.44,95.64,101.79,95.65z"/>
				<path class="st3" d="M176.22,90.18c0.02-0.02,0.04-0.03,0.06-0.05C176.26,90.15,176.24,90.16,176.22,90.18L176.22,90.18z"/>
				<path class="st18" d="M128.92,149.01c-3.17-0.13-6.34-0.09-9.51-0.01c-2.15,0.05-4.29,0.27-6.42,0.57
					c-0.42,0.06-0.56,0.24-0.56,0.62c-0.01,2.25-0.28,4.49-0.4,6.74c-0.14,2.44-0.29,4.89-0.44,7.33c-0.19,2.99-0.36,5.99-0.54,8.98
					c-0.17,2.83-0.36,5.67-0.42,8.51c-0.01,0.44-0.21,0.88-0.1,1.42c4.97-0.93,9.93-1.54,14.95-1.7c5.05-0.16,10.07,0.23,15.09,0.65
					c0.56-10.63,1.16-21.11,1.84-31.68c-1.86-0.29-3.63-0.51-5.4-0.73C134.31,149.37,131.62,149.12,128.92,149.01z"/>
				<path class="st12" d="M133.26,183.97c-1.93-0.28-3.76-0.26-5.59-0.27c-0.52,0-0.79,0.11-1,0.66c-0.82,2.18-1.32,4.4-1.37,6.73
					c-0.07,3.54,1.1,6.56,3.53,9.12c0.24,0.25,0.57,0.45,0.54,0.88c-0.42,0.13-0.85,0.05-1.26,0.07c-2.9,0.15-5.67,0.75-8.12,2.42
					c-1.33,0.91-2.56,1.93-3.26,3.43c-0.42,0.91-0.31,1.15,0.66,1.34c1.45,0.28,2.92,0.31,4.38,0.29c2.8-0.05,5.59-0.36,8.34-0.85
					c2.27-0.41,4.53-0.86,6.59-1.94c1.02-0.53,1.14-0.83,0.88-1.96c-0.34-1.43-1.04-2.66-2.03-3.73c-2.76-3-3.74-6.61-3.64-10.6
					C131.98,187.62,132.47,185.78,133.26,183.97z"/>
				<path class="st12" d="M109.5,156.27c-1.57-0.53-2.95-1.45-4.43-2.17c-0.53,0.78-0.76,1.71-1.65,2.18
					c0.36-1.37,0.45-2.74,0.25-4.09c-0.3-2.03-1.32-3.65-2.97-4.87c-1.34-0.99-2.28-2.21-2.41-3.94c-0.06-0.72,0.01-1.43,0.04-2.15
					c0.05-1.48-0.93-2.06-2.24-1.35c-0.94,0.51-1.27,1.36-1.33,2.35c-0.11,1.69,0.1,3.31,1.34,4.6c-0.31,0.3-0.63,0.21-0.9,0.3
					c-2.84,0.92-5.68,1.81-8.65,2.21c-1.2,0.16-2.33,0.56-3.34,1.25c-0.43,0.29-0.77,0.64-0.79,1.28c2.16-0.57,4.25-0.78,6.36-0.36
					c0.5,0.1,0.84-0.09,1.13-0.77c0.36,2.13,0.28,4.08,1.27,5.87c-0.54,0-1.02,0.02-1.5,0c-1.41-0.08-2.8,0.05-4.16,0.45
					c-0.78,0.23-1.56,0.48-2.17,1.06c-0.72,0.7-0.5,1.71,0.45,1.99c0.87,0.26,1.77,0.43,2.69,0.42c1.67-0.03,3.3,0.25,4.94,0.52
					c2.27,0.37,4.54,0.46,6.78-0.14c1.37-0.37,2.66-0.95,3.99-1.85c-0.3,1.08-1.07,1.62-1.54,2.38c2.73,1.42,5.52,2.51,8.47,3.27
					c0.22-2.7,0.43-5.3,0.64-7.89C109.8,156.57,109.76,156.36,109.5,156.27z"/>
				<path class="st3" d="M155.4,206.72c0.23,0.57,0.68,1.07,1.39,1.57c0.5,0.35,1.03,0.64,1.58,0.88c-0.55-0.24-1.08-0.53-1.58-0.88
					C156.08,207.8,155.63,207.29,155.4,206.72z"/>
				<path class="st1" d="M139.58,202.64c-0.36-1.24-1-2.37-1.89-3.37c-1.31-1.46-2.22-2.97-2.79-4.55c0.57,1.57,1.49,3.09,2.79,4.55
					C138.59,200.27,139.22,201.4,139.58,202.64z"/>
				<path class="st3" d="M157.23,201.13c-0.15,0.24-0.31,0.47-0.49,0.69c-0.29,0.37-0.54,0.77-0.75,1.19
					c0.21-0.42,0.45-0.82,0.75-1.19C156.92,201.59,157.08,201.36,157.23,201.13z"/>
				<path class="st3" d="M138.11,184.28c0.63,0.07,1.26,0.14,1.89,0.2c0.13,0.01,0.26,0.04,0.39,0.05
					c-0.13-0.01-0.26-0.04-0.39-0.05C139.37,184.42,138.74,184.35,138.11,184.28z"/>
				<path class="st3" d="M181.62,209.4c0.11-0.33,0.14-0.7,0.12-1.09C181.77,208.71,181.73,209.07,181.62,209.4z"/>
				<path class="st3" d="M126.02,210.58c2.42-0.22,4.82-0.6,7.21-1.18c0.36-0.09,0.73-0.18,1.09-0.28c-0.36,0.1-0.72,0.19-1.09,0.28
					C130.84,209.98,128.44,210.36,126.02,210.58z"/>
				<path class="st3" d="M134.91,208.95c1.25-0.36,2.46-0.81,3.58-1.52c0.26-0.16,0.48-0.34,0.67-0.53
					c-0.19,0.19-0.41,0.37-0.67,0.53C137.37,208.14,136.16,208.59,134.91,208.95z"/>
				<path class="st3" d="M146.57,185.43c2.14,0.37,4.27,0.79,6.43,1.04c0.37,0.04,0.74,0.09,1.11,0.14
					c-0.37-0.05-0.74-0.1-1.11-0.14C150.84,186.22,148.71,185.8,146.57,185.43z"/>
				<path class="st3" d="M158.09,187.6c-0.02-0.15-0.07-0.25-0.13-0.34C158.02,187.34,158.07,187.45,158.09,187.6
					c0.36,2.68,0.68,5.38,0.57,8.09c-0.01,0.3-0.03,0.61-0.06,0.91c0.03-0.3,0.05-0.6,0.06-0.91
					C158.77,192.97,158.45,190.28,158.09,187.6z"/>
				<path class="st3" d="M112.24,124.96c-0.09,0.89-0.17,1.78-0.25,2.68c-0.08,0.96-0.15,1.92-0.22,2.88
					c0.07-0.96,0.14-1.92,0.22-2.88C112.06,126.74,112.15,125.85,112.24,124.96z"/>
				<path class="st3" d="M113.99,109.78c-0.34,0.25-0.42,0.65-0.43,1.42c0,0.15-0.01,0.29-0.01,0.44c0-0.15,0.01-0.29,0.01-0.44
					C113.57,110.42,113.64,110.03,113.99,109.78z"/>
				<path class="st3" d="M105.91,95.41c0.96-0.84,1.93-1.63,2.94-2.34C107.83,93.78,106.87,94.58,105.91,95.41L105.91,95.41z"/>
				<path class="st3" d="M108.85,93.07c1.02-0.71,2.08-1.34,3.23-1.83c0.22-0.1,0.45-0.19,0.68-0.27c-0.23,0.09-0.45,0.18-0.68,0.27
					C110.93,91.73,109.86,92.36,108.85,93.07z"/>
				<path class="st3" d="M116.24,90.33c0.24,0.01,0.48,0.04,0.72,0.08C116.72,90.37,116.48,90.34,116.24,90.33z"/>
				<path class="st3" d="M107.1,99.7c-0.03,0.26-0.08,0.52-0.15,0.77C107.02,100.22,107.07,99.97,107.1,99.7
					c0.1-0.79,0.06-1.54-0.13-2.26C107.16,98.16,107.19,98.92,107.1,99.7z"/>
				<path class="st3" d="M118.01,108.92c-0.07,0.02-0.15,0.03-0.23,0.04c-0.52,0.07-1.03,0.17-1.55,0.26
					c0.52-0.09,1.03-0.19,1.55-0.26C117.87,108.95,117.94,108.94,118.01,108.92z"/>
				<path class="st3" d="M122.9,102.6c-0.05,0.32-0.22,0.57-0.56,0.78c-0.24,0.15-0.47,0.31-0.7,0.48c0.23-0.16,0.46-0.32,0.7-0.48
					C122.67,103.17,122.84,102.93,122.9,102.6z"/>
				<path class="st3" d="M105.53,151.87c-0.15-0.18-0.23-0.42-0.23-0.76c0-0.06-0.01-0.11-0.01-0.17c0.01,0.06,0.01,0.11,0.01,0.17
					C105.29,151.45,105.37,151.69,105.53,151.87z"/>
				<path class="st3" d="M105.1,150.12c-0.03-0.11-0.07-0.22-0.1-0.33c-0.06-0.22-0.13-0.44-0.21-0.65
					c0.08,0.21,0.15,0.42,0.21,0.65C105.03,149.9,105.06,150.01,105.1,150.12z"/>
				<path class="st3" d="M102.95,146.43c-0.31-0.29-0.64-0.57-0.99-0.83c-0.28-0.21-0.53-0.42-0.74-0.66
					c0.21,0.23,0.46,0.45,0.74,0.66C102.31,145.86,102.64,146.13,102.95,146.43z"/>
				<path class="st3" d="M100.01,138.93c-0.6-0.95-1.7-1.47-2.78-1.48C98.31,137.46,99.41,137.98,100.01,138.93z"/>
				<path class="st3" d="M111.77,130.51c-0.07,0.96-0.14,1.92-0.22,2.88c-0.18,2.12-0.38,4.24-0.56,6.35
					c0.18-2.12,0.38-4.24,0.56-6.35C111.63,132.43,111.7,131.47,111.77,130.51z"/>
				<path class="st3" d="M110.5,146.54c-0.1,1.56-0.2,3.12-0.33,4.68c-0.06,0.7-0.1,1.43-0.16,2.18c0.06-0.75,0.1-1.48,0.16-2.18
					C110.31,149.67,110.41,148.11,110.5,146.54z"/>
				<path class="st3" d="M106.19,152.31c-0.14-0.06-0.27-0.13-0.38-0.2C105.92,152.18,106.05,152.25,106.19,152.31L106.19,152.31z"
					/>
				<path class="st3" d="M109.96,154.12c-0.4-0.19-0.77-0.38-1.15-0.56C109.2,153.75,109.57,153.93,109.96,154.12L109.96,154.12z"/>
				<path class="st3" d="M117.18,72.01c1.06-0.33,2.15-0.53,3.26-0.59C119.33,71.48,118.24,71.68,117.18,72.01z"/>
				<path class="st3" d="M102.1,91.85c0.27-1.04,0.56-2.08,0.89-3.11C102.66,89.77,102.37,90.81,102.1,91.85z"/>
				<path class="st3" d="M112.5,74.53c0.5-0.39,1-0.75,1.52-1.06C113.5,73.78,113,74.13,112.5,74.53z"/>
				<path class="st3" d="M104.5,103.57c-0.74,0.42-1.56,0.66-2.4,0.71C102.94,104.23,103.77,103.99,104.5,103.57z"/>
				<path class="st3" d="M114.79,73.02c0.78-0.42,1.58-0.75,2.39-1.01C116.37,72.26,115.57,72.6,114.79,73.02z"/>
				<path class="st3" d="M92.75,141.19c0.17-0.62,0.46-1.19,0.84-1.71C93.21,139.99,92.92,140.57,92.75,141.19z"/>
				<path class="st3" d="M122.91,102.25c-0.07-1.35-0.19-2.7-0.38-4.03C122.72,99.56,122.84,100.9,122.91,102.25z"/>
				<path class="st3" d="M80.18,152.33c-0.1-2.04,1.05-3.28,2.73-4.12c1.56-0.78,3.26-1.09,4.99-1.21c0.95-0.06,1.89-0.21,2.81-0.43
					c-0.92,0.22-1.85,0.36-2.81,0.43c-1.73,0.12-3.43,0.43-4.99,1.21C81.24,149.05,80.08,150.29,80.18,152.33
					c0.01,0.27-0.04,0.46-0.26,0.68c-0.14,0.13-0.26,0.27-0.38,0.4c0.12-0.14,0.24-0.27,0.38-0.4
					C80.14,152.79,80.2,152.6,80.18,152.33z"/>
				<path class="st3" d="M102.98,146.45c0.16,0.15,0.31,0.31,0.45,0.47C103.28,146.76,103.13,146.6,102.98,146.45z"/>
				<path class="st1" d="M188.02,79.6c-1.38-1.94-3.05-3.71-5.04-5.29c-1.56-1.24-3.28-2.16-5.17-2.64
					c1.88,0.49,3.61,1.41,5.17,2.64C184.97,75.89,186.64,77.66,188.02,79.6z"/>
				<path class="st3" d="M193.29,94.25c-0.15-0.17-0.22-0.4-0.22-0.7c-0.01-0.74-0.12-1.46-0.26-2.18c0.14,0.72,0.25,1.44,0.26,2.18
					C193.07,93.85,193.14,94.08,193.29,94.25z"/>
				<path class="st3" d="M150.75,83.17c-0.69,0.72-1.37,1.46-2.03,2.22c-0.39,0.45-0.76,0.91-1.13,1.38
					c0.37-0.47,0.75-0.93,1.13-1.38C149.38,84.62,150.06,83.88,150.75,83.17z"/>
				<path class="st3" d="M130.62,73.72c-1.55-0.72-3.16-1.31-4.86-1.74c-1.5-0.38-2.97-0.59-4.41-0.59c1.43,0,2.9,0.2,4.41,0.59
					C127.46,72.41,129.08,72.99,130.62,73.72z"/>
				<path class="st3" d="M147.59,86.76c-0.37,0.47-0.75,0.95-1.14,1.43v0C146.84,87.71,147.21,87.23,147.59,86.76z"/>
				<path class="st3" d="M176.71,71.44c0.37,0.06,0.75,0.13,1.11,0.23C177.45,71.57,177.08,71.5,176.71,71.44z"/>
				<path class="st3" d="M195.16,95.14c-0.37-0.2-0.76-0.38-1.2-0.51c-0.04-0.01-0.07-0.03-0.11-0.05c0.04,0.01,0.07,0.03,0.11,0.05
					C194.4,94.76,194.79,94.94,195.16,95.14z"/>
				<path class="st3" d="M169.31,71.84c1.52-0.37,3.05-0.59,4.6-0.61C172.35,71.25,170.82,71.47,169.31,71.84z"/>
				<path class="st3" d="M188.12,102.64c-0.91-1.38-1.11-3.11-0.62-4.62C187,99.53,187.21,101.26,188.12,102.64
					c1.12,1.71,3.35,2.71,5.24,2.4C191.47,105.35,189.24,104.35,188.12,102.64z"/>
				<path class="st3" d="M193.03,154.14c-0.26-0.23-0.52-0.45-0.79-0.67c-0.35-0.28-0.71-0.55-1.07-0.8
					c0.36,0.26,0.72,0.52,1.07,0.8C192.51,153.69,192.77,153.91,193.03,154.14z"/>
				<path class="st3" d="M193.21,176.77c-0.17-0.29-0.39-0.56-0.67-0.79c-0.38-0.33-0.86-0.4-1.29-0.6c0.43,0.2,0.91,0.27,1.29,0.6
					C192.81,176.22,193.03,176.48,193.21,176.77z"/>
				<path class="st3" d="M193.17,179.77c-0.69,1.31-1.6,2.34-2.7,3.11C191.57,182.11,192.48,181.08,193.17,179.77
					c0.37-0.7,0.48-1.39,0.38-2.03C193.66,178.38,193.54,179.07,193.17,179.77z"/>
				<path class="st3" d="M183.63,137.41c0.19-1.9,0.39-3.79,0.58-5.69c0.18-1.72,0.35-3.45,0.52-5.17
					c-0.17,1.72-0.34,3.45-0.52,5.17C184.02,133.62,183.82,135.51,183.63,137.41z"/>
				<path class="st3" d="M180.25,183.91c0.01-0.06,0.02-0.11,0.05-0.17l0,0C180.28,183.8,180.26,183.85,180.25,183.91z"/>
				<path class="st3" d="M92.55,142.28c-0.01,0.3-0.01,0.59,0.02,0.88C92.55,142.88,92.54,142.58,92.55,142.28L92.55,142.28z"/>
				<path class="st3" d="M179.97,185.44c0.14-0.21,0.23-0.46,0.27-0.82c0.01-0.07,0.01-0.14,0-0.21c0,0.07,0.01,0.14,0,0.21
					C180.2,184.98,180.1,185.23,179.97,185.44z"/>
				<path class="st3" d="M176.19,201.12c-1.23-0.62-2.59-1.05-4.03-1.36c-0.3-0.06-0.59-0.11-0.89-0.14c0.3,0.03,0.6,0.07,0.89,0.14
					C173.6,200.07,174.96,200.5,176.19,201.12z"/>
				<path class="st3" d="M168.54,199.54L168.54,199.54c0.85-3.05,0.76-6.05,0.39-9.02C169.3,193.49,169.39,196.5,168.54,199.54z"/>
				<path class="st3" d="M180.77,110.01c-2.12,0.16-4.23,0.35-6.35,0.33l0,0C176.55,110.36,178.66,110.17,180.77,110.01z"/>
				<path class="st3" d="M178.63,88.7c0.8-0.14,1.66,0.06,2.78,0.57c0.99,0.46,1.9,1.01,2.77,1.64c-0.87-0.63-1.79-1.18-2.77-1.64
					C180.3,88.76,179.43,88.56,178.63,88.7z"/>
				<path class="st3" d="M174.99,91.57c0.38-0.48,0.78-0.95,1.23-1.38l0,0C175.77,90.62,175.37,91.09,174.99,91.57z"/>
				<path class="st3" d="M184.18,90.91c0.87,0.62,1.69,1.32,2.49,2.04c0.31,0.28,0.63,0.57,0.94,0.85
					c-0.31-0.29-0.63-0.57-0.94-0.85C185.88,92.22,185.06,91.53,184.18,90.91z"/>
				<path class="st3" d="M171.39,106.59c-0.32-0.31-0.67-0.6-1.02-0.88c-0.16-0.12-0.28-0.25-0.38-0.37
					c0.1,0.13,0.22,0.25,0.38,0.37C170.72,105.99,171.06,106.28,171.39,106.59z"/>
				<path class="st3" d="M181.74,208.31C181.74,208.31,181.74,208.31,181.74,208.31C181.74,208.31,181.74,208.31,181.74,208.31
					c-0.05-0.81-0.24-1.6-0.62-2.34c-0.24-0.46-0.49-0.89-0.77-1.29c0.28,0.4,0.53,0.83,0.77,1.29
					C181.5,206.71,181.69,207.49,181.74,208.31z"/>
				<path class="st3" d="M185.79,109.6c-0.19-0.06-0.4-0.08-0.65-0.05c-0.73,0.09-1.45,0.18-2.18,0.25
					c0.73-0.07,1.45-0.16,2.18-0.25C185.38,109.53,185.6,109.54,185.79,109.6z"/>
				<path class="st3" d="M79.05,157.65c0.24,0.38,0.56,0.73,0.96,1.04C79.61,158.38,79.29,158.03,79.05,157.65z"/>
				<path class="st3" d="M170.8,99.87c0.15-0.45,0.31-0.9,0.49-1.35c0.15-0.38,0.3-0.76,0.46-1.14c-0.16,0.38-0.31,0.76-0.46,1.14
					C171.11,98.97,170.95,99.42,170.8,99.87z"/>
				<path class="st3" d="M109.03,168.21c0-0.01,0-0.01,0-0.01C109.03,168.2,109.03,168.2,109.03,168.21
					c-0.12,2.41-0.22,4.83-0.44,7.23c-0.05,0.57-0.08,1.14-0.1,1.71c0.02-0.57,0.05-1.14,0.1-1.71
					C108.81,173.03,108.91,170.62,109.03,168.21z"/>
				<path class="st3" d="M108.26,185.52c0.07,0.11,0.17,0.18,0.28,0.24C108.42,185.7,108.33,185.63,108.26,185.52z"/>
				<path class="st3" d="M108.45,178.08c-0.01,0.29-0.02,0.59-0.04,0.88c0,0.06-0.01,0.12-0.01,0.18c0-0.06,0.01-0.12,0.01-0.18
					C108.42,178.66,108.43,178.37,108.45,178.08z"/>
				<path class="st3" d="M180.1,210.86c0.11-0.05,0.23-0.09,0.34-0.14c0.25-0.13,0.46-0.27,0.63-0.44
					c-0.17,0.17-0.38,0.31-0.63,0.44C180.33,210.78,180.21,210.81,180.1,210.86z"/>
				<path class="st3" d="M106.83,166.41c0.39,0.12,0.78,0.24,1.16,0.36c0.26,0.08,0.46,0.14,0.61,0.21
					c-0.15-0.06-0.35-0.12-0.61-0.21C107.61,166.65,107.22,166.53,106.83,166.41z"/>
				<path class="st3" d="M80.01,158.69c0.27,0.21,0.57,0.39,0.91,0.55c0.06,0.59,0.2,1.1,0.44,1.51c-0.24-0.41-0.38-0.92-0.44-1.51
					C80.59,159.08,80.28,158.89,80.01,158.69z"/>
				<path class="st3" d="M98.37,162.82c-1.04,0.33-2.07,0.48-3.11,0.51C96.3,163.29,97.34,163.14,98.37,162.82
					c0.21-0.06,0.38-0.09,0.55-0.02C98.75,162.73,98.58,162.75,98.37,162.82z"/>
				<path class="st3" d="M119.08,184.2c1.07-0.11,2.14-0.19,3.21-0.25c0.37-0.02,0.73-0.02,1.1-0.02c-0.37,0-0.74,0-1.1,0.02
					C121.22,184.01,120.15,184.1,119.08,184.2z"/>
				<path class="st3" d="M109.26,185.86c0.1-0.01,0.2-0.03,0.31-0.05c1.94-0.46,3.9-0.84,5.87-1.13c-1.97,0.3-3.92,0.67-5.87,1.13
					C109.46,185.83,109.36,185.84,109.26,185.86z"/>
				<path class="st3" d="M155.47,204.33c0.15-0.45,0.32-0.9,0.53-1.32C155.79,203.44,155.61,203.88,155.47,204.33
					c-0.31,0.97-0.34,1.72-0.07,2.39C155.13,206.06,155.15,205.3,155.47,204.33z"/>
				<path class="st3" d="M119.01,210.76c1.19,0.04,2.38,0.05,3.56,0.02C121.39,210.81,120.2,210.8,119.01,210.76z"/>
				<path class="st3" d="M174.96,211.71c0.7-0.02,1.4-0.07,2.1-0.14c0.66-0.07,1.32-0.17,1.96-0.34c-0.64,0.16-1.3,0.26-1.96,0.34
					C176.36,211.64,175.66,211.69,174.96,211.71z"/>
				<path class="st3" d="M160.06,209.78c-0.58-0.17-1.14-0.37-1.69-0.61C158.92,209.42,159.48,209.61,160.06,209.78
					c2.81,0.83,5.69,1.29,8.6,1.59c0.63,0.07,1.27,0.13,1.9,0.18c-0.63-0.05-1.27-0.11-1.9-0.18
					C165.75,211.07,162.87,210.62,160.06,209.78z"/>
				<path class="st3" d="M134.28,192.27c-0.34-2.4,0.04-4.92,1.01-7.54c0.04-0.12,0.09-0.22,0.15-0.31
					c-0.06,0.08-0.1,0.19-0.15,0.31C134.32,187.35,133.94,189.87,134.28,192.27z"/>
				<path class="st3" d="M140.4,184.53c1.97,0.21,3.92,0.52,5.88,0.85c0.1,0.02,0.2,0.03,0.29,0.05c-0.1-0.02-0.2-0.03-0.29-0.05
					C144.32,185.05,142.37,184.73,140.4,184.53z"/>
				<path class="st3" d="M157.46,187.03c-1.12-0.13-2.23-0.28-3.34-0.42C155.23,186.75,156.34,186.9,157.46,187.03
					c0.24,0.03,0.4,0.09,0.5,0.23C157.86,187.12,157.7,187.06,157.46,187.03z"/>
				<path class="st3" d="M108.61,166.98c0.15,0.06,0.25,0.13,0.32,0.22C108.86,167.1,108.76,167.04,108.61,166.98z"/>
				<path class="st3" d="M178.63,88.7c-0.78,0.14-1.51,0.61-2.35,1.43C177.12,89.31,177.85,88.84,178.63,88.7z"/>
				<path class="st3" d="M169.1,187.4c-0.06,0-0.12,0-0.19,0.01C168.98,187.4,169.04,187.4,169.1,187.4z"/>
				<path class="st3" d="M193.77,154.85c1.19,1.21,2.13,2.6,2.63,4.27C195.9,157.44,194.96,156.06,193.77,154.85z"/>
				<path class="st3" d="M173.97,110.22c0.1,0.07,0.23,0.1,0.4,0.11C174.2,110.32,174.07,110.29,173.97,110.22z"/>
				<path class="st3" d="M174.21,92.64c-0.18,0.26-0.35,0.53-0.51,0.8C173.86,93.17,174.03,92.9,174.21,92.64z"/>
				<path class="st3" d="M180.24,184.39c0,0.01,0,0.01,0,0.02C180.24,184.4,180.24,184.39,180.24,184.39z"/>
				<path class="st3" d="M108.89,185.87c-0.02,0-0.04-0.01-0.06-0.01C108.86,185.86,108.87,185.87,108.89,185.87z"/>
				<path class="st3" d="M114.79,206.18c0.24-0.56,0.54-1.08,0.88-1.56C115.33,205.1,115.03,205.62,114.79,206.18z"/>
				<path class="st3" d="M126.02,210.58c-1.15,0.1-2.3,0.17-3.45,0.2C123.73,210.75,124.88,210.68,126.02,210.58z"/>
				<path class="st3" d="M174.12,186.96c-0.87,0.11-1.74,0.21-2.61,0.28C172.39,187.16,173.26,187.07,174.12,186.96z"/>
				<path class="st3" d="M134.32,192.5c0.12,0.75,0.32,1.5,0.58,2.23C134.63,194,134.44,193.26,134.32,192.5z"/>
				<path class="st3" d="M187.03,150.39c0.9,0.38,1.77,0.81,2.61,1.3C188.8,151.2,187.93,150.77,187.03,150.39z"/>
				<path class="st3" d="M157.23,201.13c0.87-1.39,1.23-2.93,1.36-4.53C158.46,198.19,158.1,199.74,157.23,201.13z"/>
				<path class="st3" d="M176.19,201.12c0.82,0.41,1.59,0.9,2.29,1.49C177.78,202.02,177.01,201.53,176.19,201.12z"/>
				<path class="st3" d="M185.79,109.6c0.19,0.06,0.35,0.16,0.47,0.3C186.13,109.77,185.98,109.66,185.79,109.6z"/>
				<path class="st3" d="M134.91,208.95c-0.2,0.06-0.4,0.12-0.6,0.17C134.52,209.07,134.71,209.01,134.91,208.95z"/>
				<path class="st3" d="M139.58,202.64c0.12,0.41,0.22,0.83,0.28,1.26C139.8,203.47,139.7,203.05,139.58,202.64z"/>
				<path class="st3" d="M184.33,149.46c0.59,0.16,1.17,0.35,1.74,0.55C185.5,149.81,184.92,149.63,184.33,149.46z"/>
				<path class="st3" d="M168.7,188.81c0.08,0.57,0.16,1.14,0.23,1.71C168.87,189.95,168.79,189.38,168.7,188.81z"/>
				<path class="st3" d="M79.05,157.65c-0.16-0.25-0.28-0.52-0.36-0.8C78.77,157.13,78.89,157.39,79.05,157.65z"/>
				<path class="st3" d="M79.07,154.1c0.13-0.23,0.29-0.46,0.48-0.68C79.36,153.64,79.21,153.86,79.07,154.1z"/>
				<path class="st3" d="M108.07,184.62L108.07,184.62c0-0.04,0-0.09,0.01-0.13C108.08,184.53,108.07,184.58,108.07,184.62z"/>
				<path class="st3" d="M92.91,144.86c-0.16-0.56-0.29-1.12-0.34-1.7C92.63,143.74,92.75,144.31,92.91,144.86z"/>
				<path class="st3" d="M196.79,161.64c0,0.97-0.18,1.91-0.5,2.83C196.61,163.56,196.79,162.62,196.79,161.64z"/>
				<path class="st3" d="M196.29,164.47c-0.14,0.38-0.3,0.76-0.49,1.13C195.99,165.23,196.16,164.85,196.29,164.47z"/>
				<path class="st3" d="M190.99,172.95c0.06,0.29,0.1,0.59,0.11,0.89C191.09,173.54,191.05,173.25,190.99,172.95z"/>
				<path class="st3" d="M184.24,184.71c-0.27-0.01-0.54-0.03-0.8-0.06C183.7,184.68,183.97,184.7,184.24,184.71z"/>
				<path class="st1" d="M187.5,98.02c-0.49,1.52-0.29,3.24,0.62,4.62c1.12,1.71,3.35,2.71,5.24,2.4c0.06-0.01,0.12-0.01,0.18-0.02
					c2-0.43,3.67-2.05,4.11-3.87c0.06-0.26,0.1-0.52,0.11-0.79c0.01-0.37,0-0.73-0.03-1.07c-0.17-1.93-1.05-3.33-2.57-4.15
					c-0.37-0.2-0.76-0.38-1.2-0.51c-0.04-0.01-0.07-0.03-0.11-0.05c-0.24-0.08-0.43-0.19-0.55-0.33c-0.15-0.17-0.22-0.4-0.22-0.7
					c-0.01-0.74-0.12-1.46-0.26-2.18c-0.05-0.24-0.1-0.48-0.14-0.72c-0.17-0.82-0.36-1.63-0.58-2.42c-0.22-0.79-0.47-1.56-0.75-2.32
					c-0.83-2.27-1.93-4.38-3.31-6.32c-1.38-1.94-3.05-3.71-5.04-5.29c-1.56-1.24-3.28-2.16-5.17-2.64
					c-0.36-0.09-0.73-0.17-1.11-0.23c-0.27-0.04-0.55-0.09-0.83-0.11c-0.66-0.06-1.32-0.09-1.98-0.09c-1.55,0.01-3.08,0.23-4.6,0.61
					c-0.42,0.1-0.83,0.2-1.24,0.33c-6.82,2.13-12.47,5.98-17.31,11c-0.69,0.72-1.37,1.46-2.03,2.22c-0.39,0.45-0.76,0.91-1.13,1.38
					s-0.75,0.95-1.14,1.43c-2.42-3.8-5.28-7.04-8.64-9.84c-0.89-0.74-1.81-1.44-2.75-2.09c-1.42-0.97-2.89-1.83-4.44-2.55
					c-1.55-0.72-3.16-1.31-4.86-1.74c-1.5-0.38-2.97-0.59-4.41-0.59c-0.31,0-0.62,0.01-0.92,0.03c-1.11,0.07-2.2,0.26-3.26,0.59
					c-0.81,0.25-1.61,0.59-2.39,1.01c-0.26,0.14-0.52,0.29-0.77,0.45c-0.51,0.32-1.02,0.67-1.52,1.06c-0.53,0.42-1.04,0.85-1.52,1.3
					c-1.94,1.8-3.54,3.83-4.87,6.06c-1,1.67-1.84,3.45-2.57,5.32c-0.2,0.51-0.38,1.02-0.54,1.53c-0.34,1.03-0.62,2.07-0.89,3.11
					c-0.14,0.52-0.27,1.04-0.4,1.56c-0.79,0.09-1.48,0.29-2.09,0.57c-1.81,0.85-2.82,2.47-3.11,4.26c-0.04,0.27-0.06,0.55-0.05,0.82
					c0.02,0.55,0.14,1.11,0.34,1.63c0.51,1.32,1.54,2.49,2.87,3.12c0.25,0.12,0.52,0.22,0.79,0.29c0.54,0.15,1.1,0.2,1.65,0.17
					c0.83-0.05,1.66-0.29,2.4-0.71c0.49-0.28,0.94-0.64,1.32-1.07c0.53-0.6,0.91-1.28,1.12-2.03c0.07-0.25,0.12-0.51,0.15-0.77
					c0.1-0.79,0.06-1.54-0.13-2.26c-0.09-0.36-0.23-0.71-0.4-1.05s-0.4-0.67-0.66-0.98c0.96-0.84,1.93-1.63,2.94-2.34
					s2.08-1.34,3.23-1.83c0.22-0.1,0.45-0.19,0.68-0.27c0.45-0.17,0.91-0.32,1.37-0.43c0.46-0.11,0.93-0.19,1.4-0.21
					c0.24-0.01,0.47-0.02,0.71,0s0.48,0.04,0.72,0.08c0.24,0.04,0.48,0.1,0.72,0.17c0.48,0.14,0.94,0.31,1.36,0.52
					c0.43,0.21,0.82,0.45,1.18,0.74c0.18,0.15,0.34,0.3,0.5,0.48c0.46,0.52,0.82,1.15,1.02,1.94c0.35,1.31,0.6,2.63,0.79,3.97
					s0.31,2.68,0.38,4.03c0.01,0.13,0,0.24-0.02,0.35c-0.05,0.32-0.22,0.57-0.56,0.78c-0.24,0.15-0.47,0.31-0.7,0.48
					c-0.23,0.16-0.44,0.34-0.65,0.51c-0.42,0.36-0.8,0.74-1.14,1.16c-0.51,0.63-0.91,1.33-1.19,2.14c-0.09,0.27-0.17,0.55-0.23,0.84
					c-0.02,0.09-0.05,0.16-0.09,0.22c-0.08,0.11-0.19,0.17-0.33,0.2c-0.07,0.02-0.15,0.03-0.23,0.04c-0.52,0.07-1.03,0.17-1.55,0.26
					c-0.41,0.07-0.83,0.12-1.24,0.21c-0.48,0.1-0.8,0.2-1.01,0.35c-0.34,0.25-0.42,0.65-0.43,1.42c0,0.15-0.01,0.29-0.01,0.44
					c-0.01,0.44-0.04,0.88-0.1,1.32c-0.21,1.52-0.33,3.04-0.48,4.56c-0.16,1.59-0.31,3.18-0.46,4.77c-0.09,0.89-0.18,1.78-0.26,2.67
					s-0.17,1.78-0.25,2.68c-0.08,0.96-0.15,1.92-0.22,2.88s-0.14,1.92-0.22,2.88c-0.18,2.12-0.37,4.24-0.56,6.35
					c-0.06,0.71-0.13,1.41-0.18,2.12c-0.12,1.56-0.21,3.12-0.31,4.68c-0.1,1.56-0.2,3.12-0.33,4.68c-0.06,0.7-0.1,1.43-0.16,2.18
					c-0.02,0.24-0.03,0.47-0.05,0.72c-0.4-0.19-0.77-0.38-1.15-0.56c-0.89-0.44-1.76-0.87-2.63-1.25c-0.14-0.06-0.27-0.13-0.38-0.2
					c-0.11-0.07-0.21-0.15-0.28-0.24c-0.15-0.18-0.23-0.42-0.23-0.76c0-0.06-0.01-0.11-0.01-0.17c-0.02-0.27-0.1-0.55-0.19-0.82
					c-0.03-0.11-0.07-0.22-0.1-0.33c-0.06-0.22-0.13-0.44-0.21-0.65c-0.32-0.84-0.78-1.57-1.36-2.22c-0.14-0.16-0.3-0.32-0.45-0.47
					c-0.01-0.01-0.02-0.02-0.03-0.02c-0.31-0.29-0.64-0.57-0.99-0.83c-0.28-0.21-0.53-0.42-0.74-0.66c-0.1-0.12-0.2-0.24-0.28-0.36
					c-0.42-0.62-0.59-1.35-0.42-2.25c0.03-0.17,0.05-0.34,0.06-0.51c0.02-0.51-0.05-1.02-0.1-1.54c-0.03-0.26-0.08-0.5-0.16-0.73
					c-0.08-0.23-0.18-0.43-0.3-0.62c-0.6-0.95-1.7-1.47-2.78-1.48c-0.22,0-0.43,0.02-0.64,0.06c-0.55,0.1-1.07,0.31-1.55,0.6
					c-0.24,0.14-0.46,0.31-0.67,0.49c-0.3,0.26-0.56,0.56-0.79,0.88c-0.38,0.51-0.66,1.09-0.84,1.71c-0.1,0.36-0.18,0.72-0.19,1.1
					c-0.01,0.3-0.01,0.59,0.02,0.88c0.05,0.58,0.18,1.14,0.34,1.7c0.08,0.28,0.17,0.55,0.26,0.83c-0.05,0.04-0.1,0.09-0.14,0.13
					c-0.04,0.04-0.08,0.07-0.12,0.08c-0.73,0.28-1.46,0.5-2.21,0.67c-0.92,0.22-1.85,0.36-2.81,0.43c-1.73,0.12-3.43,0.43-4.99,1.21
					c-1.68,0.84-2.83,2.08-2.73,4.12c0.01,0.27-0.04,0.46-0.26,0.68c-0.14,0.13-0.26,0.27-0.38,0.4c-0.19,0.22-0.34,0.45-0.48,0.68
					c-0.11,0.2-0.22,0.39-0.29,0.59c-0.05,0.15-0.1,0.29-0.14,0.44c-0.07,0.29-0.1,0.58-0.09,0.87s0.05,0.57,0.14,0.85
					s0.21,0.54,0.36,0.8c0.24,0.38,0.56,0.73,0.96,1.04c0.27,0.21,0.57,0.39,0.91,0.55c0.06,0.59,0.2,1.1,0.44,1.51
					c0.08,0.14,0.17,0.27,0.27,0.39c0.4,0.47,0.98,0.79,1.75,0.96c0.3,0.06,0.6,0.13,0.91,0.18c0.91,0.17,1.83,0.28,2.77,0.25
					c0.25-0.01,0.51,0,0.76,0.01c0.25,0.02,0.5,0.04,0.75,0.07c0.5,0.06,1,0.15,1.49,0.23c1.04,0.17,2.08,0.33,3.12,0.42
					c0.69,0.06,1.39,0.08,2.08,0.06c1.04-0.04,2.08-0.19,3.11-0.51c0.21-0.06,0.38-0.09,0.55-0.02c0.06,0.02,0.12,0.05,0.18,0.1
					c2.02,1.43,4.27,2.36,6.57,3.14c0.38,0.13,0.77,0.26,1.16,0.38c0.39,0.12,0.78,0.24,1.16,0.36c0.26,0.08,0.46,0.14,0.61,0.21
					s0.25,0.13,0.32,0.22c0.13,0.18,0.13,0.45,0.1,1c0,0.01,0,0.01,0,0.01c-0.12,2.41-0.22,4.83-0.44,7.23
					c-0.05,0.57-0.08,1.14-0.1,1.71c-0.01,0.31-0.03,0.62-0.05,0.93c-0.01,0.29-0.02,0.59-0.04,0.88c0,0.06-0.01,0.12-0.01,0.18
					c-0.13,1.78-0.24,3.57-0.31,5.35c0,0.04,0,0.09-0.01,0.13c0,0.13,0,0.25,0.01,0.36c0.02,0.22,0.08,0.4,0.17,0.54
					c0.07,0.11,0.17,0.18,0.28,0.24c0.09,0.05,0.19,0.08,0.3,0.1c0.02,0,0.04,0.01,0.06,0.01c0.11,0.01,0.23,0,0.37-0.01
					c0.1-0.01,0.2-0.03,0.31-0.05c1.94-0.46,3.9-0.84,5.87-1.13c1.21-0.18,2.43-0.34,3.65-0.47c1.07-0.11,2.14-0.19,3.21-0.25
					c0.37-0.02,0.73-0.02,1.1-0.02s0.74,0.01,1.12,0.01c-0.86,3.44-1.33,5.66-1.37,7.57c-0.01,0.27,0,0.54,0.01,0.8
					c0.02,0.53,0.08,1.04,0.18,1.56c0.29,1.56,0.91,3.17,1.89,5.43c-1.11,0.21-2.19,0.49-3.23,0.87c-1.04,0.38-2.05,0.85-3.01,1.45
					c-1.31,0.82-2.45,1.79-3.31,3c-0.34,0.48-0.64,1-0.88,1.56c-0.12,0.28-0.23,0.57-0.33,0.88c-0.11,0.34-0.15,0.67-0.13,0.98
					c0.05,0.94,0.62,1.72,1.6,2.12c0.49,0.2,0.99,0.34,1.5,0.44c0.51,0.09,1.03,0.14,1.55,0.16c0.01,0,0.02,0,0.04,0
					c1.19,0.04,2.38,0.05,3.56,0.02c1.15-0.03,2.3-0.1,3.45-0.2c2.42-0.22,4.82-0.6,7.21-1.18c0.36-0.09,0.73-0.18,1.09-0.28
					c0.2-0.05,0.4-0.11,0.6-0.17c1.25-0.36,2.46-0.81,3.58-1.52c0.26-0.16,0.48-0.34,0.67-0.53c0.38-0.38,0.62-0.83,0.72-1.36
					c0.05-0.27,0.07-0.56,0.05-0.87c-0.02-0.26-0.04-0.51-0.08-0.77c-0.06-0.43-0.16-0.85-0.28-1.26c-0.36-1.24-1-2.37-1.89-3.37
					c-1.31-1.46-2.22-2.97-2.79-4.55c-0.27-0.73-0.46-1.47-0.58-2.23c-0.01-0.08-0.03-0.16-0.04-0.23c-0.34-2.4,0.04-4.92,1.01-7.54
					c0.04-0.12,0.09-0.22,0.15-0.31c0.06-0.08,0.12-0.15,0.19-0.2c0.15-0.1,0.33-0.14,0.58-0.12c0.63,0.04,1.27,0.11,1.9,0.18
					c0.63,0.07,1.26,0.14,1.89,0.2c0.13,0.01,0.26,0.04,0.39,0.05c1.97,0.21,3.92,0.52,5.88,0.85c0.1,0.02,0.2,0.03,0.29,0.05
					c2.14,0.37,4.27,0.79,6.43,1.04c0.37,0.04,0.74,0.09,1.11,0.14c1.11,0.14,2.23,0.3,3.34,0.42c0.24,0.03,0.4,0.09,0.5,0.23
					c0.06,0.08,0.11,0.19,0.13,0.34c0.36,2.68,0.68,5.38,0.57,8.09c-0.01,0.3-0.03,0.61-0.06,0.91c-0.14,1.6-0.49,3.14-1.36,4.53
					c-0.15,0.24-0.31,0.47-0.49,0.69c-0.29,0.37-0.54,0.77-0.75,1.19c-0.21,0.42-0.38,0.87-0.53,1.32
					c-0.31,0.97-0.34,1.72-0.07,2.39c0.23,0.57,0.68,1.07,1.39,1.57c0.5,0.35,1.03,0.64,1.58,0.88c0.55,0.24,1.12,0.44,1.69,0.61
					c2.81,0.83,5.69,1.29,8.6,1.59c0.63,0.07,1.27,0.13,1.9,0.18c0.76,0.06,1.53,0.12,2.29,0.14c0.7,0.03,1.4,0.03,2.1,0.01
					c0.7-0.02,1.4-0.07,2.1-0.14c0.66-0.07,1.32-0.17,1.96-0.34c0.37-0.09,0.72-0.22,1.08-0.37c0.11-0.05,0.23-0.09,0.34-0.14
					c0.25-0.13,0.46-0.27,0.63-0.44c0.09-0.08,0.17-0.17,0.23-0.27c0.14-0.19,0.24-0.39,0.31-0.61c0.11-0.33,0.14-0.7,0.12-1.09v0
					c-0.05-0.81-0.24-1.6-0.62-2.34c-0.24-0.46-0.49-0.89-0.77-1.29c-0.55-0.8-1.18-1.48-1.88-2.07c-0.7-0.59-1.46-1.08-2.29-1.49
					c-1.23-0.62-2.59-1.05-4.03-1.36c-0.3-0.06-0.59-0.11-0.89-0.14c-0.9-0.09-1.8-0.05-2.73-0.08c0.85-3.05,0.76-6.05,0.39-9.02
					c-0.07-0.57-0.15-1.14-0.23-1.71c-0.06-0.42-0.13-0.84-0.19-1.25c0.15-0.1,0.28-0.14,0.41-0.15c0.06-0.01,0.13-0.01,0.19-0.01
					c0.06,0,0.11,0,0.17,0c0.75-0.04,1.5-0.1,2.25-0.16c0.87-0.08,1.74-0.17,2.61-0.28c0.8-0.11,1.61-0.23,2.41-0.38
					c0.8-0.15,1.6-0.32,2.39-0.51c0.53-0.13,0.85-0.32,1.05-0.63c0.14-0.21,0.23-0.46,0.27-0.82c0.01-0.07,0.01-0.14,0-0.21v0
					c0-0.01,0-0.01,0-0.02c-0.01-0.16-0.03-0.32,0.01-0.48c0.01-0.06,0.02-0.11,0.05-0.17c0.26,0.12,0.51,0.23,0.77,0.32
					c0.52,0.19,1.04,0.35,1.57,0.46c0.26,0.05,0.53,0.1,0.79,0.13c0.27,0.03,0.53,0.05,0.8,0.06c0.8,0.03,1.62-0.04,2.45-0.22
					c1.42-0.31,2.7-0.83,3.79-1.61c1.09-0.77,2-1.8,2.7-3.11c0.37-0.7,0.48-1.39,0.38-2.03c-0.03-0.18-0.07-0.35-0.13-0.52
					c-0.06-0.15-0.13-0.3-0.21-0.45c-0.17-0.29-0.4-0.56-0.67-0.79c-0.38-0.33-0.86-0.4-1.29-0.6c-0.06-0.03-0.12-0.05-0.18-0.08
					c0.01-0.49,0.04-0.98,0.03-1.45c-0.01-0.3-0.05-0.6-0.11-0.89c-0.04-0.17-0.07-0.34-0.13-0.5c-0.05-0.14-0.08-0.26-0.09-0.37
					c0-0.11,0.01-0.2,0.05-0.29c0.07-0.18,0.23-0.32,0.42-0.47c0.48-0.37,0.93-0.77,1.35-1.19c0.42-0.42,0.81-0.86,1.18-1.32
					c0.73-0.93,1.37-1.93,1.93-2.99c0.04-0.07,0.07-0.15,0.1-0.22c0.18-0.37,0.35-0.75,0.49-1.13c0.32-0.91,0.5-1.85,0.5-2.83
					c0-0.49-0.04-0.98-0.13-1.49c-0.06-0.36-0.15-0.71-0.25-1.04c-0.5-1.68-1.44-3.06-2.63-4.27c-0.24-0.24-0.49-0.48-0.74-0.71
					c-0.26-0.23-0.52-0.45-0.79-0.67c-0.35-0.28-0.71-0.55-1.07-0.8c-0.5-0.35-1.01-0.67-1.53-0.97c-0.84-0.49-1.71-0.93-2.61-1.3
					c-0.32-0.13-0.64-0.26-0.96-0.37c-0.57-0.21-1.15-0.39-1.74-0.55c-0.56-0.15-1.13-0.3-1.71-0.41c0.07-1,0.14-2,0.21-2.99
					c0.07-0.99,0.14-1.98,0.24-2.97c0.18-1.9,0.37-3.79,0.56-5.69c0.19-1.9,0.39-3.79,0.58-5.69c0.18-1.72,0.35-3.45,0.52-5.17
					c0.16-1.55,0.32-3.1,0.49-4.64c0.21-1.81,0.43-3.62,0.65-5.42c0.23-1.81,0.46-3.61,0.68-5.42c0.01-0.12,0.02-0.24,0.01-0.35
					c-0.02-0.33-0.13-0.61-0.31-0.82c-0.12-0.14-0.28-0.24-0.47-0.3c-0.19-0.06-0.4-0.08-0.65-0.05c-0.73,0.09-1.45,0.18-2.18,0.25
					c-0.73,0.07-1.46,0.14-2.19,0.2c-2.12,0.16-4.23,0.35-6.35,0.33c-0.02,0-0.03,0-0.05-0.01c-0.17-0.01-0.3-0.04-0.4-0.11
					c-0.06-0.04-0.1-0.09-0.15-0.15c-0.04-0.06-0.08-0.13-0.12-0.22c-0.35-0.85-0.83-1.61-1.4-2.3c-0.28-0.34-0.59-0.67-0.92-0.97
					c-0.32-0.31-0.67-0.6-1.02-0.88c-0.16-0.12-0.28-0.25-0.38-0.37c-0.29-0.38-0.33-0.79-0.24-1.3c0.25-1.42,0.6-2.81,1.05-4.17
					c0.15-0.45,0.31-0.9,0.49-1.35c0.15-0.38,0.3-0.76,0.46-1.14c0.16-0.38,0.32-0.75,0.48-1.12c0.44-0.97,0.92-1.92,1.47-2.83
					c0.16-0.27,0.33-0.53,0.51-0.8c0.25-0.37,0.51-0.72,0.79-1.07c0.38-0.48,0.78-0.95,1.23-1.38c0.02-0.02,0.04-0.03,0.06-0.05
					c0.84-0.82,1.57-1.29,2.35-1.43c0.8-0.14,1.66,0.06,2.78,0.57c0.99,0.46,1.9,1.01,2.77,1.64c0.87,0.62,1.69,1.32,2.49,2.04
					c0.31,0.28,0.63,0.57,0.94,0.85c0.55,0.5,1.09,1.02,1.55,1.62c-0.34,0.42-0.67,0.78-0.95,1.17
					C187.9,97.03,187.66,97.51,187.5,98.02z M81.26,157.05c-0.42-0.2-0.41-0.51-0.45-0.87c-0.08-0.85,0.29-1.45,0.95-1.9
					c0.7-0.48,1.47-0.81,2.3-1c1.65-0.38,3.31-0.66,5.14-0.51c-0.07,1,0.27,1.85,0.43,2.86c-1.05-0.25-2.05-0.19-3.05-0.2
					c-1.61-0.02-3.08,0.42-4.37,1.4C81.94,157.04,81.69,157.26,81.26,157.05z M109.78,156.82c-0.22,2.59-0.42,5.19-0.64,7.89
					c-2.95-0.76-5.74-1.85-8.47-3.27c0.47-0.76,1.24-1.31,1.54-2.38c-1.33,0.9-2.62,1.48-3.99,1.85c-2.25,0.61-4.52,0.52-6.78,0.14
					c-1.64-0.27-3.27-0.55-4.94-0.52c-0.92,0.02-1.82-0.16-2.69-0.42c-0.95-0.28-1.16-1.3-0.45-1.99c0.6-0.59,1.39-0.83,2.17-1.06
					c1.35-0.4,2.74-0.53,4.16-0.45c0.47,0.03,0.95,0,1.5,0c-0.99-1.79-0.91-3.74-1.27-5.87c-0.28,0.68-0.62,0.87-1.13,0.77
					c-2.11-0.42-4.2-0.21-6.36,0.36c0.01-0.65,0.36-0.99,0.79-1.28c1.01-0.69,2.14-1.09,3.34-1.25c2.97-0.4,5.82-1.29,8.65-2.21
					c0.27-0.09,0.59,0,0.9-0.3c-1.23-1.29-1.44-2.91-1.34-4.6c0.06-0.99,0.4-1.84,1.33-2.35c1.31-0.71,2.29-0.13,2.24,1.35
					c-0.02,0.72-0.09,1.43-0.04,2.15c0.14,1.73,1.07,2.96,2.41,3.94c1.65,1.22,2.67,2.84,2.97,4.87c0.2,1.36,0.11,2.72-0.25,4.09
					c0.89-0.47,1.12-1.4,1.65-2.18c1.48,0.72,2.86,1.63,4.43,2.17C109.76,156.36,109.8,156.57,109.78,156.82z M192.43,96.5
					c1.77-0.03,3.18,1.41,3.17,3.24c-0.01,1.7-1.4,3.12-3.07,3.13c-1.65,0.02-3.08-1.48-3.08-3.23
					C189.45,97.99,190.83,96.53,192.43,96.5z M101.87,102.07c-1.65,0.08-3.19-1.5-3.19-3.16c-0.01-1.7,1.46-3.23,3.11-3.25
					c1.65-0.02,3.13,1.51,3.13,3.22C104.88,100.67,103.59,101.98,101.87,102.07z M119.93,86.58c-0.56-0.52-1.15-1-2.2-1.03
					c0.66,1.06,1.21,1.95,1.83,2.96c-4.34-1.37-7.98-0.07-11.37,2.38c-1.35,0.98-2.56,2.13-3.73,3.33
					c-0.31-0.17-0.59-0.31-0.88-0.47c1.79-6.09,4.43-11.64,9.16-15.99c1.97-1.81,4.13-3.28,6.82-3.76c2.04-0.36,4.03,0.02,5.97,0.58
					c5.52,1.6,10.09,4.75,14.04,8.85c1.73,1.79,3.22,3.76,4.59,5.83c0.54,0.82,0.66,1.48,0.11,2.39c-1.21,2-2.18,4.14-2.86,6.39
					c-0.15,0.49-0.37,0.72-0.91,0.8c-1.17,0.17-2.34,0.14-3.51,0.27c-3.82,0.44-7.56,1.2-11.17,2.54c-0.18,0.07-0.37,0.11-0.64,0.19
					c-0.12-3.31-0.48-6.5-1.58-9.57C122.82,90.08,121.64,88.16,119.93,86.58z M135.58,200.16c0.99,1.07,1.69,2.3,2.03,3.73
					c0.26,1.12,0.13,1.42-0.88,1.96c-2.07,1.08-4.33,1.54-6.59,1.94c-2.76,0.5-5.54,0.81-8.34,0.85c-1.47,0.03-2.94,0-4.38-0.29
					c-0.97-0.19-1.08-0.43-0.66-1.34c0.7-1.51,1.92-2.53,3.26-3.43c2.45-1.67,5.21-2.27,8.12-2.42c0.42-0.02,0.84,0.06,1.26-0.07
					c0.03-0.43-0.31-0.63-0.54-0.88c-2.43-2.56-3.6-5.58-3.53-9.12c0.05-2.34,0.54-4.56,1.37-6.73c0.21-0.55,0.48-0.66,1-0.66
					c1.83,0.01,3.66-0.01,5.59,0.27c-0.79,1.81-1.28,3.64-1.32,5.59C131.84,193.54,132.82,197.15,135.58,200.16z M140.55,182.12
					c-5.02-0.43-10.04-0.81-15.09-0.65c-5.02,0.16-9.97,0.77-14.95,1.7c-0.11-0.54,0.09-0.97,0.1-1.42
					c0.06-2.84,0.25-5.67,0.42-8.51c0.18-2.99,0.34-5.99,0.54-8.98c0.16-2.44,0.31-4.88,0.44-7.33c0.13-2.25,0.39-4.49,0.4-6.74
					c0-0.38,0.14-0.56,0.56-0.62c2.13-0.3,4.27-0.52,6.42-0.57c3.17-0.08,6.34-0.13,9.51,0.01c2.7,0.11,5.39,0.36,8.08,0.7
					c1.77,0.23,3.54,0.44,5.4,0.73C141.72,161.01,141.12,171.49,140.55,182.12z M142.55,148.22c-9.94-1.54-19.83-2.09-29.84-0.6
					c0.12-1.79,0.21-3.54,0.35-5.28c0.16-2.08,0.35-4.16,0.53-6.23c0.17-1.98,0.36-3.96,0.53-5.94c0.16-1.85,0.29-3.7,0.45-5.55
					c0.16-1.78,0.34-3.56,0.52-5.35c0.21-2.1,0.46-4.2,0.65-6.31c0.11-1.23,0.07-1.27,1.27-1.48c2.02-0.36,4.05-0.57,6.09-0.75
					c5.51-0.51,11.03-0.42,16.55-0.38c1.86,0.01,3.71,0.29,5.58,0.23c0.36-0.01,0.7,0.09,1.11,0.26
					c-1.25,10.89-2.44,21.79-3.39,32.79c-3.24-0.48-6.28-1.27-8.79-3.41c-0.22-0.19-0.46-0.36-0.71-0.52
					c-0.36-0.23-0.76-0.27-1.08,0.01c-0.31,0.27-0.23,0.66-0.07,1c0.38,0.79,1.03,1.35,1.7,1.86c2.56,1.92,5.5,2.87,8.67,3.37
					C142.9,146.68,142.5,147.38,142.55,148.22z M177.82,205.1c0.99,0.95,1.58,2.13,1.87,3.53c-0.92,0.54-1.95,0.63-2.97,0.73
					c-2.22,0.23-4.45,0.18-6.66-0.02c-3.49-0.32-6.97-0.8-10.32-1.92c-0.31-0.1-0.61-0.22-0.9-0.36c-1.45-0.71-1.68-1.31-1.06-2.82
					c0.22-0.54,0.5-1.07,0.88-1.52c1.5-1.74,2.09-3.83,2.18-6.04c0.11-2.8,0.14-5.61-0.36-8.4c-0.06-0.32-0.29-0.6-0.13-1.03h5.66
					c0.51,1.57,0.73,3.16,0.9,4.76c0.3,2.82-0.01,5.58-0.9,8.28c-0.36,1.09,0.16,1.56,1.33,1.4
					C171.37,201.16,174.88,202.28,177.82,205.1z M177.7,183.95c-1.14,0.42-2.31,0.52-3.45,0.69c-3.27,0.49-6.58,0.48-9.87,0.38
					c-2.28-0.07-4.55-0.28-6.82-0.51c-2.69-0.27-5.35-0.69-8.02-1.05c-2.19-0.3-4.36-0.68-6.68-1.05
					c0.56-10.5,1.08-21.03,1.77-31.71c11.8,1.47,23.49,2.29,35.31,0.43C179.19,162.02,178.45,172.97,177.7,183.95z M183.58,151.56
					c3,0.87,5.77,2.2,8.09,4.34c1.57,1.45,2.73,3.17,2.9,5.37c0.12,1.52-0.5,2.87-1.25,4.13c-0.95,1.61-2.15,3.03-3.5,4.32
					c-0.31,0.3-0.63,0.37-1.05,0.4c-0.71,0.05-0.97,0.54-0.68,1.12c1.67,3.28,0.75,6.47-2.44,8.41c-0.41,0.25-0.86,0.44-1.21,0.79
					c0.31,0.48,0.72,0.34,1.09,0.28c1.85-0.34,3.31-1.31,4.38-2.85c0.27-0.38,0.53-0.54,0.96-0.37c0.71,0.28,0.87,0.68,0.44,1.34
					c-1.65,2.55-4.07,3.63-7.05,3.56c-1.09-0.03-2.12-0.33-3.05-0.89c-0.5-0.3-0.79-0.68-0.75-1.35c0.21-2.96,0.36-5.92,0.56-8.88
					c0.07-0.94,0.01-1.89,0.14-2.83c0.08-0.6,0.36-0.88,0.85-1.15c1.47-0.8,2.8-1.79,3.82-3.15c0.28-0.37,0.52-0.75,0.7-1.17
					c0.44-0.97,0.26-1.75-0.54-2.45c-1.02-0.9-2.22-1.46-3.54-1.75c-0.34-0.08-0.65-0.13-0.62-0.58c0.16-2.27,0.26-4.54,0.59-6.73
					C182.92,151.22,183.25,151.46,183.58,151.56z M181.7,160.94c1.17,0.07,2.03,0.63,2.83,1.39c-0.75,1.19-1.8,1.91-3,2.59
					C181.33,163.56,181.69,162.29,181.7,160.94z M177.03,112.7c2.22-0.07,4.43-0.3,6.76-0.47c0.02,1.73-0.33,3.33-0.48,4.94
					c-0.19,2.14-0.47,4.27-0.71,6.4c-0.22,1.94-0.45,3.88-0.66,5.82c-0.18,1.65-0.35,3.3-0.51,4.95c-0.25,2.56-0.5,5.12-0.72,7.68
					c-0.18,2.05-0.35,4.09-0.44,6.14c-0.03,0.63-0.29,0.87-0.81,0.96c-2.47,0.43-4.95,0.76-7.46,0.81c-3.56,0.08-7.12,0.08-10.68,0
					c-2.61-0.05-5.2-0.31-7.8-0.53c-2.69-0.22-5.37-0.6-8.06-0.85c-0.2-0.02-0.39-0.02-0.59-0.21c0.05-0.7,0.1-1.43,0.16-2.22
					c0.75-0.15,1.5-0.03,2.23-0.08c3.28-0.23,6.4-0.99,9.25-2.7c0.48-0.29,0.91-0.62,1.31-1.02c0.45-0.44,1.04-0.94,0.56-1.57
					c-0.48-0.63-1.09-0.1-1.55,0.2c-1.57,1.01-3.26,1.74-5.07,2.19c-2.12,0.53-4.28,0.79-6.55,0.67
					c0.97-11.05,2.09-22.02,3.45-33.01c3.61,0.35,7.11,0.65,10.59,1.08C165.16,112.62,171.09,112.89,177.03,112.7z M170.15,108.77
					c0.13,0.15,0.27,0.28,0.39,0.44c0.23,0.31,0.44,0.63,0.76,1.09c-1.18,0-2.23,0.07-3.28-0.01c-3.41-0.29-6.81-0.57-10.21-0.98
					c-3.14-0.38-6.28-0.69-9.43-0.91c-5.14-0.37-10.3-0.48-15.46-0.44c-3.76,0.03-7.5,0.18-11.24,0.58c-0.26,0.03-0.52,0-0.9,0
					c0.47-1.25,1.19-2.1,2.12-2.8c2.31-1.74,5.02-2.56,7.77-3.2c4.39-1.03,8.87-1.45,13.37-1.33c6.39,0.18,12.69,1.02,18.78,3.07
					C165.6,105.22,168.18,106.5,170.15,108.77z M185.17,89.03c-1.03-0.85-2.15-1.59-3.37-2.14c-2.67-1.21-4.96-0.8-7.07,1.23
					c-3,2.88-4.71,6.5-6.03,10.35c-0.58,1.69-0.88,3.44-1.23,5.23c-7.57-3.68-15.63-4.65-23.88-4.99c0.18-1,0.62-1.9,1.07-2.78
					c4.98-9.65,12.34-16.76,22.53-20.76c2.15-0.84,4.39-1.41,6.72-1.48c3.02-0.09,5.58,1.14,7.86,2.97
					c4.67,3.76,7.31,8.8,8.89,14.47c0.3,1.09,0.52,2.2,0.78,3.32c-0.56,0.44-0.85,0.03-1.13-0.32
					C188.75,92.26,187.03,90.57,185.17,89.03z"/>
				<path class="st3" d="M155.75,125.83c-2.18,0.66-3.94,2.78-3.94,4.82c0,1.18,0.51,1.59,1.65,1.29c0.28-0.07,0.56-0.18,0.83-0.27
					c1.57-0.57,3.17-0.75,4.78-0.3c0.81,0.23,1.55,0.66,2.36,0.9c1.1,0.32,1.94-0.41,1.76-1.51
					C162.67,127.36,159.09,124.83,155.75,125.83z"/>
				<path class="st3" d="M135.95,131.21c0.35,0.17,0.7,0.37,1.07,0.47c1.04,0.3,1.85-0.25,1.78-1.29c-0.22-3.13-2.79-5.92-6.22-4.96
					c-2.25,0.63-4.1,2.78-4.12,4.81c-0.01,1.3,0.76,1.84,1.98,1.36c0.3-0.12,0.58-0.28,0.88-0.41
					C132.87,130.54,134.41,130.49,135.95,131.21z"/>
				<path class="st7" d="M188.05,153.28c-0.21-0.71-0.83-1.1-1.46-1.4c-0.69-0.34-1.43-0.62-2.17-0.83
					c-0.68-0.19-1.42-0.34-2.07,0.04c-1.33,0.78-1.25,2.87-1.25,4.19c0.01,1.9-0.08,4.1,2.02,4.91c0.27,0.1,0.55,0.04,0.78-0.11
					c0.03,0.2,0.06,0.4,0.12,0.59c0.35,1.24,2.28,0.71,1.93-0.53c-0.26-0.93,0.06-1.91,0.35-2.8c0-0.01,0.09-0.24,0.09-0.25
					c0.01-0.02,0.02-0.05,0.03-0.07c0.09-0.17,0.19-0.34,0.3-0.5c0.22-0.33,0.45-0.64,0.67-0.97
					C187.82,154.92,188.29,154.08,188.05,153.28z"/>
				<path class="st7" d="M192.14,177.61c-0.57-1.08-1.78-0.84-2.61-0.24c-0.48,0.35-0.91,0.76-1.35,1.16
					c-0.49,0.45-1.01,0.74-1.76,1.08c-1.45,0.65-2.97,0.76-4.45,0.34c-0.01-0.07-0.02-0.12-0.02-0.21c0-1.34,0.05-2.69,0.05-4.03
					c0-1.74,0.25-3.48,0.34-5.22c0.07-1.4,0.11-2.84,0.9-4.06c0.71-1.08-1.02-2.08-1.73-1.01c-0.88,1.34-1.06,2.93-1.15,4.49
					c-0.1,1.83-0.33,3.66-0.37,5.49c-0.02,0.95,0.05,1.9,0.03,2.86c-0.01,0.51-0.08,1.01-0.08,1.52c-0.52,0.41-0.68,1.24,0.08,1.57
					c0.16,0.07,0.32,0.12,0.48,0.18c0.56,0.69,1.47,1.06,2.43,1.25c2.81,0.57,5.71-0.41,7.97-2.1
					C191.85,179.99,192.78,178.83,192.14,177.61z"/>
				<path class="st7" d="M167.85,189.28c-0.18-0.65-0.35-1.41-0.7-2c-0.67-1.13-1.84-1.09-2.99-1.01c-0.85,0.06-1.69-0.08-2.54-0.06
					c-0.46,0.01-1.01,0.03-1.41,0.29c-0.5,0.31-0.64,0.82-0.7,1.37c-0.07,0.62-0.04,1.26,0.03,1.89c-0.05,0.16-0.08,0.33-0.04,0.52
					c0.08,0.45,0.13,0.89,0.16,1.33c-0.07,0.06-0.15,0.11-0.22,0.18c-0.39,0.37-0.38,1.04,0,1.41c0.07,0.07,0.15,0.1,0.22,0.15
					c-0.24,3.5-1.79,6.84-2.9,10.16c-0.5,1.49-0.6,3.08,0.45,4.35c1.28,1.55,3.43,1.93,5.28,2.37c1.17,0.28,1.64-1.16,0.77-1.83
					c-1.46-1.12-3.24-2.18-3.46-4.21c-0.19-1.74,1.02-3.4,1.67-4.94c0.86-2.05,2.09-4.84,1.75-7.24c0.01,0,0.03-0.01,0.04-0.01
					c0.07-0.01,0.13-0.03,0.2-0.04c0.02,0,0.08-0.01,0.12-0.02c0.55-0.07,1.11-0.07,1.67-0.01c0.03,0,0.08,0.01,0.1,0.01
					c0.07,0.01,0.13,0.02,0.2,0.04c0.15,0.03,0.29,0.06,0.44,0.1c0.13,0.03,0.25,0.07,0.38,0.11c0.08,0.03,0.15,0.05,0.23,0.08
					c0.03,0.01,0.23,0.1,0.07,0.03c0.68,0.3,1.49-0.04,1.5-0.86C168.18,190.72,168.04,189.98,167.85,189.28z"/>
				<path class="st7" d="M136.15,198.89c-1.58-1.77-3.22-3.81-3.58-6.23c-0.28-1.89,0.24-4.74,1.38-6.3
					c0.34-0.46,0.18-0.91-0.16-1.19c0.05-0.22,0.1-0.44,0.17-0.66c0.15-0.49-0.18-1.13-0.7-1.23c-0.87-0.16-1.7,0.04-2.58,0.05
					c-0.52,0-1.03-0.05-1.55-0.05c-0.38,0-0.75,0.04-1.13,0.05c-0.83,0.03-1.71,0.16-2.19,0.92c-0.19,0.31-0.31,0.67-0.41,1.01
					c-0.05,0.17-0.1,0.34-0.15,0.52c-0.02,0.06-0.04,0.13-0.06,0.19c0,0.01,0,0.01-0.01,0.02c-0.01,0.01-0.02,0.03-0.03,0.06
					c-0.15,0.28-0.17,0.61-0.04,0.9c-0.34,0.23-0.67,0.48-0.97,0.75c-0.4,0.36-0.37,1.04,0,1.41c0.4,0.4,1.01,0.36,1.41,0
					c0.83-0.75,1.91-1.28,3.02-1.44c0.54-0.07,1.04-0.01,1.54,0.11c-0.31,3.57-0.14,7.04,1.77,10.28c0.98,1.67,2.48,3.14,3.25,4.92
					c0.29,0.67,0.55,1.83,0.24,2.54c-0.32,0.72-1.33,1.11-1.82,1.74c-0.7,0.89,0.14,2.07,1.21,1.57c1.78-0.83,3.12-1.99,3.43-4.01
					C138.6,202.41,137.73,200.66,136.15,198.89z"/>
				<path class="st7" d="M184.16,111.59c-1.12-0.07-2.11,0.26-3.12,0.67c-0.92-0.11-1.86-0.34-2.57-0.43
					c-1.18-0.14-2.83-0.44-3.86,0.35c-1.03,0.79-1.14,2.38-1.22,3.57c-0.11,1.8-0.03,3.63,0.02,5.42c0.08,2.52,0.24,5.03,0.24,7.55
					c0,2.54-0.25,5.06-0.47,7.58c-0.44,5.16-0.67,10.29-0.57,15.47c0.05,2.6,0.11,5.21-0.02,7.81c-0.12,2.51-0.44,5-0.68,7.5
					c-0.25,2.57-0.49,5.15-0.72,7.72c-0.14,1.6,0.07,3.87-0.97,5.2c-1.12,1.43-3.87,1.36-5.5,1.56c-2.43,0.3-4.81,0.51-7.26,0.44
					c-4.84-0.14-9.61-1.01-14.43-1.41c-2.82-0.24-5.64-0.21-8.46-0.26c-2.78-0.05-5.56-0.12-8.34-0.01
					c-2.69,0.11-5.23,0.49-7.84,1.17c-1.43,0.37-2.82,0.71-4.3,0.83c-1.34,0.11-2.67,0.19-3.99,0.48c-1.26,0.28-0.73,2.2,0.53,1.93
					c2.45-0.54,4.95-0.46,7.39-1.08c2.51-0.64,4.9-1.17,7.49-1.3c4.87-0.25,9.84-0.13,14.71,0.06c2.08,0.08,4.15,0.29,6.21,0.53
					c-0.32,0.64,0.22,1.67,1.16,1.48c1.44-0.29,2.95-0.47,4.48-0.55c-0.2,0.62,0.12,1.43,0.9,1.35c3.08-0.33,6.5,1.77,9.37-0.1
					c0,0,0,0,0,0c2.86,0.33,5.66,0.53,8.54,0.37c1.54-0.09,3.07-0.23,4.6-0.38c0.76-0.07,1.66-0.06,2.33-0.47
					c1.8-1.12,1.05-4.5,0.94-6.19c-0.18-2.98,0.23-5.89,0.61-8.84c0.38-3,0.18-6.04,0.48-9.05c0.12-1.23,0.21-2.47,0.28-3.7
					c0.2-0.19,0.33-0.45,0.37-0.75c0.35-2.7,0.74-5.43,0.64-8.16c0-0.12-0.04-0.24-0.08-0.35c0.09-0.34,0.03-0.72-0.2-0.98
					c0.14-0.15,0.25-0.34,0.28-0.59c0.64-5.96,0.95-11.92,1.27-17.9c0.15-2.88,0.3-5.86,0.92-8.69c0.51-2.31,1.69-4.45,1.83-6.84
					C185.2,112.03,184.68,111.62,184.16,111.59z"/>
				<path class="st7" d="M171.67,109.68c-1.27-2.01-3.47-3.03-5.38-4.31c-1.76-1.17-3.55-2.89-5.79-2.9c-0.51,0-1.04,0.46-1,1
					c0.1,1.33-0.01,2.33-1.37,2.88c-1.55,0.62-3.33,0.26-4.94,0.15c-3.83-0.26-7.67-0.39-11.51-0.37c-3.76,0.03-7.46,0.35-11.2,0.71
					c-1.65,0.16-3.3,0.22-4.93,0.45c-1.69,0.24-3.45,0.6-5.14,0.21c-1.25-0.29-1.79,1.64-0.53,1.93c1.79,0.41,3.58,0.17,5.37-0.09
					c1.98-0.29,3.97-0.37,5.96-0.58c2.53-0.26,5.05-0.44,7.57-0.54c0.02,0.48,0.34,0.98,0.95,1.03c2.79,0.24,5.54,0.48,8.35,0.55
					c2.65,0.06,5.42,0.02,8.05,0.35c2.66,0.33,5.34,0.41,8.01,0.65c2.27,0.2,4.67,0.98,6.93,0.35
					C171.67,110.98,172.01,110.23,171.67,109.68z"/>
				<g>
					<path class="st7" d="M195.01,96.24c-0.68-0.75-1.63-1.13-2.63-0.93c-0.85,0.17-0.97,1.43-0.24,1.83
						c0.05,0.03,0.1,0.06,0.16,0.1c0.02,0.02,0.1,0.08,0.12,0.11c0.04,0.04,0.07,0.08,0.11,0.12c0,0.01,0.1,0.14,0.12,0.18
						c0.04,0.07,0.08,0.14,0.11,0.2c0.02,0.03,0.07,0.17,0.08,0.2c0.06,0.16,0.11,0.31,0.15,0.47c0.02,0.09,0.04,0.19,0.06,0.28
						c0.01,0.03,0.01,0.04,0.01,0.06c0,0.01,0,0.02,0,0.04c0.01,0.19,0.02,0.37,0.01,0.56c0,0.04-0.03,0.25-0.02,0.22
						c-0.01,0.04-0.01,0.08-0.02,0.12c-0.02,0.09-0.05,0.19-0.08,0.28c-0.01,0.02,0,0.01,0,0.02c-0.01,0.01-0.01,0.01-0.02,0.02
						c-0.04,0.06-0.08,0.13-0.12,0.19c0.13-0.23,0,0-0.06,0.06c-0.05,0.05-0.1,0.09-0.15,0.14c0,0,0,0,0,0
						c-0.03,0.02-0.06,0.04-0.08,0.06c-0.06,0.04-0.13,0.08-0.19,0.11c-0.03,0.01-0.13,0.06-0.17,0.08
						c-0.14,0.05-0.29,0.1-0.43,0.14c-0.02,0.01-0.19,0.03-0.21,0.03c-0.05,0-0.11,0.01-0.12,0.01c-0.1,0-0.2-0.01-0.29-0.01
						c0.03,0,0.04,0,0.05,0c-0.02,0-0.05,0-0.07-0.01c-0.06-0.01-0.12-0.03-0.18-0.05c-0.03-0.01-0.08-0.03-0.1-0.05
						c-0.03-0.02-0.05-0.03-0.08-0.05c0,0,0,0,0,0c-0.04-0.04-0.23-0.28-0.08-0.07c-0.32-0.44-0.87-0.65-1.37-0.36
						c-0.43,0.25-0.68,0.93-0.36,1.37c0.41,0.57,0.96,0.95,1.6,1.12c0.08,0.51,0.46,0.81,0.97,0.87c1.93,0.22,3.91-1.16,4.63-2.9
						C196.74,99.29,196.05,97.39,195.01,96.24z"/>
					<path class="st15" d="M191.17,100.94C191.23,100.95,191.26,100.94,191.17,100.94L191.17,100.94z"/>
				</g>
				<path class="st7" d="M192.56,91.62c-0.17-1.4-0.4-2.75-1.29-3.88c-1.79-2.27-4.9-3.57-7.63-4.3c-3.09-0.82-6.47-0.89-9.51,0.17
					c-7.57,2.63-11.38,10.68-15.5,16.89c-0.53,0.81,0.3,1.57,1.06,1.45c0.11,0.21,0.3,0.37,0.61,0.44c1.68,0.38,3.29,1.05,4.99,1.37
					c1.25,0.24,2.51,0.26,3.2-0.99c0.27-0.49,0.36-1.05,0.53-1.57c0.26-0.79,0.65-1.54,0.97-2.3c0.69-1.63,1.35-3.27,2.15-4.85
					c1.34-2.61,3.19-5.61,6.17-6.52c3.22-0.98,6.8,1.6,8.9,3.86c0.82,0.88,3.52,5.12,5.11,3.32
					C193.01,93.94,192.67,92.54,192.56,91.62z"/>
				<path class="st7" d="M144.68,87.95c-0.35-0.76-0.91-1.36-1.41-2.01c-0.58-0.76-1.1-1.56-1.65-2.34
					c-0.97-1.38-2.02-2.7-3.36-3.75c-1.42-1.11-3.13-1.81-4.66-2.75c-3.26-2-6.61-3.66-10.51-3.8c-2.01-0.07-4.17,0.23-6.1,0.8
					c-1.91,0.57-3.39,1.81-5.03,2.89c-0.39,0.26-0.5,0.65-0.44,1.01c-2.01,1.22-3.77,2.91-5.36,4.67c-0.86,0.95,0.55,2.37,1.41,1.41
					c1.26-1.39,2.57-2.78,4.12-3.86c1.52-1.06,3.87-2.33,5.79-1.97c0.9,0.17,1.72,0.65,2.63,0.83c0.97,0.19,1.94,0.31,2.88,0.62
					c1.81,0.6,3.62,1.53,5.22,2.55c3.42,2.17,5.32,5.5,7.12,9.01c0.84,1.65,1.73,3.27,2.22,5.06c0.33,1.18,0.63,2.67,1.63,3.49
					c0.34,0.28,0.81,0.4,1.21,0.16c1.1-0.67,1.63-1.84,2.07-3.01c0.6-1.61,1.33-3.13,2.01-4.71
					C145.07,90.82,145.36,89.42,144.68,87.95z"/>
				<path class="st7" d="M104.82,96.98c-0.38-0.64-0.9-1.19-1.25-1.85c-0.25-0.46-0.92-0.65-1.37-0.36
					c-0.47,0.31-0.62,0.87-0.36,1.37c0.06,0.11,0.11,0.21,0.17,0.32c0.02,0.04,0.04,0.09,0.06,0.13c0.01,0.02,0.01,0.02,0.02,0.05
					c0.07,0.19,0.13,0.38,0.18,0.58c0.02,0.1,0.04,0.19,0.06,0.29c0.01,0.05,0.01,0.06,0.02,0.07c0,0.01,0,0.02,0,0.06
					c0.01,0.21,0.02,0.42,0.01,0.64c0,0.04-0.01,0.07-0.01,0.11c0,0.02,0,0.02-0.01,0.06c-0.02,0.1-0.04,0.19-0.07,0.29
					c-0.03,0.1-0.06,0.19-0.09,0.29c-0.02,0.05-0.02,0.07-0.02,0.08c-0.01,0.01-0.02,0.02-0.04,0.06c-0.11,0.2-0.22,0.4-0.36,0.59
					c-0.05,0.08-0.11,0.15-0.17,0.22c-0.02,0.02-0.09,0.11-0.11,0.13c-0.12,0.15-0.25,0.29-0.39,0.42c-0.06,0.05-0.11,0.1-0.17,0.15
					c-0.02,0.01-0.16,0.1-0.18,0.11c-0.04,0.03-0.32,0.13-0.14,0.07c-0.07,0.02-0.13,0.04-0.2,0.05c0-0.01-0.16,0.01-0.18,0.01
					c-0.03,0-0.03,0-0.05,0c-0.03-0.01-0.05-0.01-0.08-0.02c-0.08-0.03-0.16-0.05-0.23-0.07c-0.01-0.01-0.03-0.01-0.04-0.02
					c-0.03-0.03-0.13-0.1-0.16-0.12c-0.06-0.05-0.11-0.11-0.17-0.17c-0.33-0.32-0.63-0.6-1.12-0.63c-0.52-0.04-1.02,0.49-1,1
					c0.01,0.32,0.16,0.58,0.38,0.76c0.09,0.13,0.2,0.25,0.35,0.32c0.01,0.01,0.02,0.02,0.02,0.02c0.17,0.17,0.35,0.33,0.55,0.46
					c0.45,0.32,1.09,0.48,1.64,0.47c0.43-0.01,0.84-0.12,1.21-0.3c0.17,0.14,0.37,0.23,0.6,0.23c1.74-0.03,2.93-1.68,3.18-3.27
					C105.46,98.66,105.3,97.78,104.82,96.98z"/>
				<path class="st7" d="M108.77,155.85c-0.15,1.1-0.65,2.23-1.49,2.98c-1.23,1.1-2.74,0.16-4-0.4c-0.38-0.17-0.91-0.2-1.21,0.16
					c-0.87,1.04-2.48,1.31-3.77,1.38c-2.02,0.11-4.04-0.22-6.03-0.52c-1.87-0.28-3.78-0.58-5.68-0.47
					c-0.85,0.05-2.81,0.69-2.89-0.57c-0.09-1.28-2.09-1.29-2,0c0.11,1.67,1.07,2.68,2.77,2.73c0.86,0.03,1.72-0.16,2.58-0.18
					c1.42-0.03,2.84,0.15,4.25,0.35c2.39,0.34,4.84,0.83,7.27,0.64c0.54-0.04,1.11-0.12,1.68-0.24c-0.02,0.11-0.05,0.22-0.04,0.34
					c0.08,1.11,1.47,1.55,2.34,1.87c1.94,0.71,3.94,1.32,5.98,1.68c0.4,0.07,0.94-0.04,1.13-0.46c0.53-1.19,0.34-2.53,0.44-3.8
					c0.14-1.74,0.43-3.49,0.65-5.23C110.88,155.01,108.93,154.73,108.77,155.85z"/>
			</g>
			<path class="st8" d="M131.58,93.25c-0.24-1.32-1.17-2.61-1.84-3.75c-1.16-2-2.45-3.94-4-5.66c-2.66-2.95-6-4.78-9.92-3.18
				c-4.01,1.63-6.72,5.17-10.11,7.7c-1.02,0.76-0.02,2.5,1.01,1.73c2.53-1.89,4.65-4.28,7.24-6.1c1.22-0.86,2.61-1.68,4.11-1.92
				c0.02,0.38,0.23,0.76,0.68,0.91c3.85,1.34,5.51,4.55,7.3,7.96c0.73,1.4,1.62,3.25,3.13,3.96
				C130.49,95.51,131.86,94.78,131.58,93.25z"/>
			<path class="st8" d="M165.96,79.08c-0.61-0.44-1.23-0.59-1.84-0.55c-0.28-0.3-0.7-0.41-1.13-0.1c-2.29,1.67-4.52,3.42-6.62,5.34
				c-1.48,1.36-3,2.76-4.19,4.38c-0.81,1.1-1.55,2.28-2.18,3.5c-0.57,1.11-1.22,2.43-1.16,3.71c0.07,1.36,1.16,2.07,2.45,1.95
				c2.19-0.2,4.37-1.58,6.13-2.8c1.98-1.36,3.75-2.94,5.46-4.62c1.56-1.54,3.25-3.21,4.2-5.22C168,82.74,167.82,80.41,165.96,79.08z
				"/>
			<path class="st8" d="M175.26,77.02c-0.01-0.07-0.03-0.14-0.06-0.21c-0.05-0.14-0.11-0.28-0.19-0.4
				c-0.31-0.45-0.74-0.75-1.26-0.91c-0.46-0.14-0.96-0.13-1.43-0.03c-0.46,0.1-0.92,0.36-1.24,0.71c-0.11,0.13-0.21,0.26-0.29,0.4
				c-0.21,0.16-0.41,0.33-0.58,0.55c-0.19,0.24-0.34,0.51-0.42,0.82c-0.09,0.34-0.08,0.65-0.02,0.99c0.02,0.12,0.07,0.23,0.12,0.34
				c0.05,0.11,0.09,0.22,0.16,0.32c0.19,0.28,0.4,0.49,0.69,0.67c0.14,0.09,0.29,0.15,0.45,0.21c0.08,0.03,0.17,0.06,0.26,0.07
				c0.38,0.07,0.69,0.07,1.07,0c0.3-0.05,0.59-0.18,0.86-0.32c0.31-0.17,0.6-0.4,0.85-0.64c0.44-0.43,0.86-0.98,1.01-1.59
				C175.32,77.66,175.31,77.36,175.26,77.02z"/>
			<path class="st8" d="M162.81,117.1c-1.77-2.13-5.78-3.29-8.32-2c-0.48,0.25-0.9,0.59-1.25,1c-0.3,0.07-0.56,0.27-0.63,0.68
				c-0.02,0.13-0.06,0.25-0.09,0.37c-0.57,1.05-0.91,2.31-1.12,3.52c-0.19,0.52-0.38,1.04-0.54,1.58c-0.57,1.89-0.7,3.93-0.89,5.88
				c-0.28,2.77-0.69,5.59-0.59,8.37c0.08,2.29,0.52,4.83,2.23,6.5c1.68,1.64,4.47,2.21,6.63,1.23c4.13-1.88,4.72-7.79,5.3-11.7
				c0.4-2.68,0.88-5.35,0.97-8.06C164.6,122.02,164.46,119.09,162.81,117.1z"/>
			<path class="st8" d="M128.41,118.71c-0.63-1.6-1.92-3.04-3.77-2.96c-0.83,0.04-1.56,0.37-2.19,0.86
				c-0.42-0.49-1.23-0.63-1.57,0.11c-1.97,4.23-2.58,8.94-2.68,13.56c-0.05,2.18-0.19,4.6,0.6,6.67c0.64,1.66,2.14,3.38,4.09,3.15
				c1.95-0.23,2.97-2.19,3.72-3.78c0.86-1.83,1.49-3.76,1.93-5.74C129.35,126.85,129.85,122.34,128.41,118.71z"/>
			<path class="st8" d="M128.16,159.36c-0.41-2.52-1.83-5.68-4.87-5.37c-0.77,0.08-1.46,0.36-2.09,0.76
				c-0.42-0.21-0.97-0.16-1.28,0.35c-0.42,0.69-0.77,1.44-1.07,2.22c-0.25,0.45-0.47,0.92-0.63,1.38c-0.06,0.19-0.06,0.35-0.02,0.51
				c-0.43,1.45-0.75,2.94-1.03,4.33c-0.66,3.21-1.36,7.14-0.1,10.29c1.36,3.41,5.57,3.67,7.81,0.88c1.4-1.74,2.01-3.99,2.53-6.12
				C128.14,165.59,128.66,162.45,128.16,159.36z"/>
			<path class="st8" d="M161.34,162.05c-0.42-2.11-1.84-4.37-3.61-5.61c-1.24-0.86-3.23-0.57-4.48,0.43
				c-0.28-0.06-0.59-0.01-0.85,0.27c-1.82,1.92-2.46,5.02-2.81,7.55c-0.37,2.69-0.58,6.12,1.03,8.48c1.85,2.72,5.51,1.99,7.62-0.03
				C161.04,170.46,162.07,165.78,161.34,162.05z"/>
			<path class="st1" d="M101.63,96.17c-0.08-0.28-0.35-0.39-0.61-0.35c-2.25,0.36-2.26,3.02-1.73,4.73
				c0.14,0.46,0.33,0.92,0.58,1.34c0.33,0.55,1.2,0.05,0.86-0.5c-0.47-0.78-0.75-1.79-0.75-2.72c0-0.47,0.05-0.89,0.27-1.26
				c0.03-0.05,0.06-0.09,0.09-0.14c0.02-0.02,0.04-0.05,0.06-0.07c0.05-0.05,0.09-0.09,0.14-0.13c0.02-0.01,0.02-0.01,0.02-0.02
				c0.01,0,0.01,0,0.03-0.02c0.21-0.14,0.39-0.2,0.69-0.25C101.55,96.74,101.7,96.41,101.63,96.17z"/>
			<path class="st1" d="M120.43,82c-0.99-0.42-1.99-0.75-3.02-0.85c-0.55-0.16-1.11-0.23-1.67-0.16c-1.55,0.21-3.08,1.11-4.29,2.06
				c-1.52,1.2-2.83,2.62-4,4.15c-0.23,0.3-0.47,0.61-0.71,0.92c-1.06,1.11-2.1,2.28-2.6,3.75c-0.41,1.22,1.52,1.75,1.93,0.53
				c0.44-1.31,1.58-2.34,2.51-3.31c1.1-1.15,2.15-2.35,3.32-3.43c1.04-0.97,2.2-1.97,3.59-2.38c1.33-0.39,2.68-0.09,3.93,0.44
				c0.5,0.21,1.07,0.15,1.37-0.36C121.04,82.95,120.92,82.21,120.43,82z"/>
			<path class="st1" d="M126.01,85.13c-0.15-0.23-0.34-0.37-0.6-0.46c-0.23-0.08-0.46-0.17-0.69-0.27
				c-0.34-0.15-0.68-0.32-0.98-0.54c-0.08-0.07-0.16-0.14-0.23-0.22c-0.16-0.19-0.47-0.29-0.71-0.29c-0.25,0-0.54,0.11-0.71,0.29
				c-0.18,0.19-0.3,0.44-0.29,0.71c0.01,0.27,0.11,0.5,0.29,0.71c0.35,0.4,0.83,0.69,1.3,0.92c0.48,0.24,0.99,0.43,1.49,0.61
				c0.23,0.08,0.56,0.02,0.77-0.1c0.21-0.12,0.41-0.36,0.46-0.6C126.17,85.65,126.16,85.36,126.01,85.13z"/>
			<path class="st1" d="M159.62,84.39c-0.02-0.03-0.03-0.07-0.06-0.09c-0.42-0.42-0.99-0.34-1.41,0c-1.47,1.16-2.55,2.71-3.89,4.01
				c-1.44,1.39-2.73,2.88-4,4.42c-0.34,0.42-0.41,1.01,0,1.41c0.35,0.35,1.07,0.42,1.41,0c1.27-1.54,2.56-3.03,4-4.42
				c1.34-1.3,2.43-2.84,3.89-4.01c0.14-0.11,0.21-0.28,0.25-0.46C160.09,84.96,159.92,84.49,159.62,84.39z"/>
			<path class="st1" d="M162.81,82.28c-0.03-0.13-0.09-0.24-0.18-0.34c-0.07-0.11-0.16-0.19-0.28-0.26
				c-0.08-0.03-0.16-0.07-0.24-0.1c-0.18-0.05-0.35-0.05-0.53,0c-0.08,0.03-0.16,0.07-0.24,0.1c-0.15,0.09-0.27,0.21-0.36,0.36
				c-0.04,0.07-0.07,0.14-0.11,0.21c-0.07,0.11-0.11,0.24-0.12,0.37c-0.03,0.13-0.02,0.27,0.02,0.4c0.03,0.13,0.09,0.24,0.18,0.34
				c0.07,0.11,0.16,0.19,0.28,0.26c0.08,0.03,0.16,0.07,0.24,0.1c0.18,0.05,0.35,0.05,0.53,0c0.08-0.03,0.16-0.07,0.24-0.1
				c0.15-0.09,0.27-0.21,0.36-0.36c0.04-0.07,0.07-0.14,0.11-0.21c0.07-0.11,0.11-0.24,0.12-0.37
				C162.85,82.55,162.85,82.41,162.81,82.28z"/>
			<path class="st1" d="M173.9,76.52c-0.08-0.24-0.23-0.48-0.46-0.6c-0.23-0.12-0.52-0.19-0.77-0.1c-0.34,0.11-0.67,0.26-0.97,0.44
				c-0.31,0.19-0.6,0.42-0.85,0.67c-0.18,0.18-0.29,0.45-0.29,0.71c-0.01,0.14,0.02,0.27,0.09,0.39c0.04,0.12,0.11,0.23,0.21,0.32
				c0.19,0.17,0.44,0.3,0.71,0.29c0.27-0.01,0.51-0.1,0.71-0.29c0.06-0.06,0.13-0.12,0.2-0.18c0.21-0.15,0.44-0.29,0.67-0.39
				c0.02-0.01,0.05-0.02,0.07-0.03c0.25-0.08,0.46-0.23,0.6-0.46c0.07-0.11,0.11-0.24,0.12-0.37
				C173.95,76.79,173.94,76.65,173.9,76.52z"/>
			<path class="st1" d="M128.99,112.59c-1.79,0-3.57,0.05-5.35,0.27c-1.29,0.16-2.83,0.25-3.98,0.94c-0.04,0.02-0.06,0.05-0.09,0.08
				c-0.26,0.14-0.49,0.32-0.67,0.55c-0.09,0.11-0.14,0.24-0.2,0.37c-0.28,0.46-0.47,0.98-0.6,1.51c-0.41,1.67-0.56,3.47-0.78,5.17
				c-0.47,3.59-0.57,7.24-0.95,10.84c-0.41,3.83-0.93,7.65-1.78,11.4c-0.11,0.5,0.13,0.88,0.48,1.08c0.16,0.19,0.44,0.27,0.64,0.16
				c0.36-0.03,0.7-0.24,0.8-0.71c1.45-6.38,2.08-12.97,2.51-19.48c0.11-1.63,0.31-3.23,0.56-4.85c0.19-1.23,0.05-3.04,0.81-4.09
				c0.66-0.92,2.68-0.92,3.69-1.03c1.63-0.18,3.27-0.21,4.91-0.21C130.28,114.58,130.28,112.58,128.99,112.59z"/>
			<path class="st1" d="M136.88,112.27c-1.56-0.01-3.24-0.44-4.75,0.14c-0.49,0.19-0.88,0.68-0.7,1.23c0.15,0.47,0.71,0.9,1.23,0.7
				c0.16-0.06,0.32-0.11,0.49-0.15c0.01,0,0.11-0.02,0.19-0.04c0.01,0,0,0,0.01,0c0.05,0,0.09-0.01,0.14-0.01
				c0.38-0.03,0.76-0.03,1.15-0.01c0.75,0.04,1.5,0.13,2.25,0.13c0.52,0,1.02-0.46,1-1C137.86,112.72,137.44,112.27,136.88,112.27z"
				/>
			<path class="st1" d="M140.35,102.49c-2.48-0.44-4.93,0.38-7.38,0.64c-2.54,0.27-5.15,0.57-7.55,1.5
				c-1.19,0.46-0.67,2.39,0.53,1.93c2.24-0.86,4.65-1.17,7.02-1.42c2.21-0.23,4.63-1.1,6.85-0.71
				C141.08,104.64,141.62,102.71,140.35,102.49z"/>
			<path class="st1" d="M146.59,102.45c-0.63,0-1.26,0.05-1.88-0.01c-0.1-0.02-0.21-0.03-0.31-0.06c-0.25-0.07-0.55-0.03-0.77,0.1
				c-0.21,0.12-0.41,0.36-0.46,0.6c-0.12,0.53,0.16,1.08,0.7,1.23c0.89,0.24,1.81,0.14,2.72,0.14c0.26,0,0.53-0.11,0.71-0.29
				c0.17-0.17,0.3-0.46,0.29-0.71C147.57,102.91,147.15,102.45,146.59,102.45z"/>
			<path class="st1" d="M171.18,114.03c-0.64-0.03-1.23-0.12-1.87-0.02c-0.8,0.13-1.5,0.36-2.32,0.34c-1.5-0.04-2.95-0.42-4.45-0.41
				c-1.5,0.01-2.96,0.02-4.45-0.16c-0.76-0.1-1.51-0.22-2.28-0.25c-0.78-0.04-1.57-0.01-2.3-0.33c-1.17-0.51-2.19,1.22-1.01,1.73
				c1.5,0.65,3.07,0.52,4.66,0.73c1.59,0.21,3.13,0.35,4.74,0.3c1.62-0.04,3.16,0.28,4.77,0.38c0.77,0.04,1.49-0.02,2.24-0.18
				c0.83-0.18,1.46-0.16,2.29-0.13C172.46,116.08,172.46,114.08,171.18,114.03z"/>
			<path class="st1" d="M122.02,178.77c-0.1-0.39-0.4-0.71-0.92-0.69c-1.78,0.05-3.53,0.59-5.31,0.73c-0.4,0.03-0.86-0.04-1.25,0.02
				c0,0-0.01,0-0.02,0c0.05-0.11,0.03-0.38,0.04-0.51c0.14-1.24,0.31-2.47,0.39-3.72c0.22-3.47,1.08-6.8,1.47-10.24
				c0.19-1.7,0.24-3.41,0.41-5.12c0.19-1.89,0.46-3.76,0.47-5.67c0.01-1.29-1.99-1.29-2,0c-0.01,2.06-0.34,4.09-0.52,6.14
				c-0.17,2-0.23,4-0.54,5.99c-0.3,1.87-0.73,3.72-0.98,5.6c-0.26,1.92-0.28,3.87-0.52,5.79c-0.12,0.92-0.52,2.18,0.09,3.01
				c0.48,0.65,1.38,0.73,2.12,0.74c2.08,0.02,4.08-0.71,6.14-0.77c0.49-0.01,0.79-0.32,0.91-0.68
				C122.14,179.22,122.14,178.95,122.02,178.77z"/>
			<g>
				<path class="st1" d="M130.4,178.9c0.02,0,0.05,0.01,0.07,0c0,0-0.01,0-0.01,0C130.45,178.9,130.42,178.9,130.4,178.9z"/>
				<path class="st1" d="M131.39,177.05c-0.95-0.23-1.96-0.25-2.94-0.22c-0.97,0.04-2,0.12-2.93,0.43c-0.5,0.16-0.87,0.7-0.7,1.23
					c0.16,0.49,0.7,0.87,1.23,0.7c0.38-0.13,0.77-0.2,1.16-0.26c0,0,0,0,0,0c0.04,0,0.09-0.01,0.13-0.02
					c0.12-0.01,0.25-0.03,0.37-0.04c0.24-0.02,0.49-0.04,0.73-0.05c0.46-0.02,0.93-0.02,1.39,0.01c0.12,0.01,0.23,0.02,0.35,0.03
					c0.06,0.01,0.13,0.02,0.21,0.03c-0.04-0.01-0.06-0.02,0.04,0c0.01,0,0.02,0,0.03,0c0.01,0,0.02,0,0.02,0c0,0-0.01,0-0.02,0
					c0.04,0.01,0.08,0.01,0.11,0.02c0.09,0.02,0.18,0.04,0.27,0.06c0.51,0.12,1.11-0.16,1.23-0.7
					C132.2,177.76,131.93,177.18,131.39,177.05z"/>
			</g>
			<path class="st1" d="M153.31,175.73c-0.56-0.03-1.15-0.03-1.7-0.19c-0.64-0.19-0.74-0.45-0.78-1.1
				c-0.12-1.85,0.32-3.67,0.72-5.46c0.39-1.76,0.69-3.54,1.04-5.31c0.35-1.72,0.16-3.57,0.72-5.23c0.41-1.22-1.52-1.75-1.93-0.53
				c-0.33,1-0.4,2.04-0.45,3.08c-0.01,0.14-0.02,0.27-0.04,0.4c-0.65,2.69-1.16,5.4-1.54,8.15c-0.01,0.09-0.02,0.18-0.03,0.27
				c-0.06,0.31-0.12,0.62-0.18,0.93c-0.29,1.63-0.82,4.11,0.18,5.59c0.86,1.27,2.6,1.34,3.98,1.4
				C154.6,177.8,154.59,175.8,153.31,175.73z"/>
			<path class="st1" d="M159.08,176.87c-0.13-0.21-0.35-0.42-0.6-0.46c-0.61-0.1-1.22-0.15-1.81-0.32c-0.25-0.07-0.55-0.03-0.77,0.1
				c-0.11,0.06-0.21,0.16-0.29,0.27c-0.01,0-0.01,0-0.02,0c-0.07,0-0.13,0.02-0.19,0.06c-0.06,0.03-0.1,0.07-0.14,0.13
				c-0.04,0.05-0.07,0.1-0.09,0.17c-0.03,0.13-0.02,0.27,0.05,0.39c0.03,0.03,0.05,0.07,0.08,0.1c0.05,0.05,0.12,0.08,0.19,0.11
				c0.02,0.05,0.02,0.1,0.05,0.15c0.14,0.22,0.34,0.38,0.6,0.46c0.59,0.17,1.21,0.21,1.81,0.32c0.13,0.04,0.27,0.05,0.4,0.02
				c0.13-0.01,0.26-0.05,0.37-0.12c0.21-0.12,0.41-0.36,0.46-0.6C159.24,177.38,159.23,177.09,159.08,176.87z"/>
			<path class="st1" d="M190.4,156.78c-1.11-0.66-2.12,1.07-1.01,1.73c0.08,0.05,0.16,0.1,0.24,0.15c0.03,0.02,0.03,0.02,0.04,0.03
				c0.01,0.01,0.01,0.01,0.04,0.04c0.07,0.06,0.13,0.12,0.19,0.19c0.01,0.01,0.07,0.08,0.1,0.11c0.09,0.13,0.18,0.26,0.25,0.41
				c0.01,0.01,0.04,0.08,0.06,0.12c0.02,0.04,0.06,0.15,0.06,0.17c0.06,0.17,0.1,0.35,0.14,0.53c0.01,0.04,0.02,0.08,0.02,0.1
				c0.01,0.08,0.02,0.15,0.02,0.23c0.03,0.39,0.01,0.77-0.03,1.15c0,0.04,0,0.05,0,0.06c0,0.01-0.01,0.02-0.01,0.07
				c-0.02,0.1-0.03,0.19-0.05,0.29c-0.04,0.18-0.08,0.35-0.12,0.53c-0.09,0.35-0.21,0.7-0.35,1.04c-0.02,0.04-0.05,0.12-0.06,0.14
				c-0.04,0.08-0.08,0.17-0.12,0.25c-0.08,0.16-0.17,0.32-0.26,0.48c-0.09,0.15-0.18,0.29-0.28,0.43c-0.01,0.01-0.04,0.05-0.07,0.09
				c-0.03,0.04-0.11,0.13-0.12,0.15c-0.35,0.41-0.4,1.01,0,1.41c0.36,0.36,1.06,0.41,1.41,0
				C192.71,164.11,193.86,158.83,190.4,156.78z"/>
			<path class="st1" d="M187.55,171.79c-0.53,0.02-1.01,0.44-1,1c0,0.22,0,0.43-0.02,0.64c0,0.01,0,0.04,0,0.07
				c0,0.01-0.01,0.03-0.01,0.07c-0.02,0.1-0.04,0.2-0.06,0.3c-0.05,0.22-0.11,0.44-0.19,0.66c-0.01,0.04-0.03,0.09-0.05,0.13
				c0,0.01-0.03,0.08-0.04,0.11c-0.01,0.01-0.01,0.03-0.01,0.03c-0.02,0.05-0.05,0.1-0.07,0.15c-0.1,0.19-0.21,0.38-0.33,0.56
				c-0.03,0.04-0.05,0.08-0.08,0.11c0,0-0.01,0.01-0.02,0.03c-0.02,0.02-0.06,0.08-0.07,0.09c-0.04,0.04-0.07,0.09-0.11,0.13
				c-0.15,0.16-0.3,0.31-0.47,0.45c-0.02,0.02-0.16,0.12-0.07,0.06c-0.03,0.02-0.05,0.03-0.06,0.04c-0.1,0.07-0.19,0.13-0.29,0.19
				c-0.45,0.27-0.65,0.91-0.36,1.37c0.29,0.45,0.89,0.64,1.37,0.36c1.92-1.14,2.99-3.36,2.95-5.56
				C188.54,172.26,188.1,171.76,187.55,171.79z"/>
			<path class="st1" d="M127.18,202.4c-1.5,0.19-2.99,0.51-4.41,1.03c-1.45,0.53-2.89,1.24-3.98,2.36
				c-0.89,0.93,0.52,2.34,1.41,1.41c0.46-0.48,0.79-0.72,1.41-1.07c0.63-0.36,1.15-0.59,1.79-0.81c0.65-0.23,1.32-0.43,1.99-0.58
				c0.33-0.08,0.66-0.15,0.99-0.21c0.17-0.03,0.33-0.06,0.5-0.08c0.06-0.01,0.13-0.02,0.19-0.03c0.02,0,0.02,0,0.04-0.01
				c0.02,0,0.04,0,0.07-0.01c0.54-0.07,1-0.41,1-1C128.18,202.91,127.72,202.33,127.18,202.4z"/>
			<path class="st1" d="M103.18,152.79c-0.72-1.73-1.98-3.2-3.71-3.99c-1.74-0.8-3.7-0.93-5.52-0.33c-0.51,0.17-0.85,0.69-0.7,1.23
				c0.14,0.5,0.72,0.87,1.23,0.7c0.77-0.25,1.33-0.34,2.13-0.31c0.57,0.03,1.36,0.21,1.85,0.44c1.28,0.58,2.28,1.58,2.79,2.8
				c0.21,0.5,0.66,0.85,1.23,0.7C102.95,153.89,103.39,153.29,103.18,152.79z"/>
			<g>
				<path d="M125.22,199.3c-2.6-6.01-2.67-7.49-0.7-15.36c-0.75,0-1.49-0.04-2.22,0.01c-4.3,0.24-8.54,0.85-12.73,1.85
					c-1.03,0.25-1.54-0.13-1.5-1.18c0.07-1.89,0.19-3.78,0.33-5.67c0.09-1.17,0.08-2.35,0.19-3.52c0.22-2.4,0.32-4.82,0.44-7.23
					c0.06-1.12,0.02-1.11-1.04-1.43c-3.11-0.96-6.2-1.97-8.89-3.88c-0.24-0.17-0.46-0.16-0.73-0.07c-2.76,0.87-5.54,0.49-8.31,0.03
					c-0.99-0.16-1.99-0.36-3-0.32c-1.25,0.04-2.47-0.17-3.68-0.43c-1.54-0.33-2.31-1.27-2.46-2.86c-2.72-1.29-3.18-4.12-1-6.23
					c0.22-0.21,0.27-0.41,0.26-0.68c-0.1-2.04,1.05-3.28,2.73-4.12c1.56-0.78,3.26-1.09,4.99-1.21c1.73-0.12,3.4-0.48,5.02-1.1
					c0.09-0.03,0.15-0.12,0.26-0.21c-0.37-1.1-0.68-2.21-0.62-3.41c0.11-2.28,1.84-4.36,4.04-4.77c1.68-0.31,3.67,0.7,3.87,2.77
					c0.07,0.69,0.18,1.37,0.05,2.05c-0.28,1.44,0.31,2.44,1.44,3.27c1.46,1.06,2.56,2.41,3.05,4.19c0.12,0.44,0.31,0.88,0.3,1.32
					c-0.01,0.68,0.33,0.95,0.89,1.2c1.24,0.55,2.45,1.17,3.78,1.81c0.09-1.04,0.14-1.97,0.21-2.9c0.26-3.12,0.4-6.25,0.64-9.37
					c0.21-2.83,0.5-5.65,0.74-8.47c0.16-1.92,0.27-3.84,0.43-5.75c0.15-1.78,0.34-3.57,0.51-5.35c0.15-1.59,0.31-3.18,0.46-4.77
					c0.15-1.52,0.27-3.05,0.48-4.56c0.08-0.59,0.1-1.17,0.11-1.75c0.02-1.26,0.2-1.52,1.45-1.77c0.92-0.19,1.85-0.34,2.78-0.46
					c0.33-0.04,0.57-0.1,0.64-0.45c0.48-2.34,1.99-3.89,3.91-5.12c0.45-0.29,0.6-0.62,0.57-1.13c-0.14-2.7-0.47-5.38-1.17-8
					c-0.56-2.11-2.14-3.11-4.06-3.68c-1.94-0.58-3.8-0.1-5.6,0.67c-2.31,0.98-4.25,2.5-6.17,4.17c1.06,1.26,1.38,2.72,1.19,4.29
					c-0.13,1.05-0.56,2-1.27,2.8c-1.54,1.73-4.12,2.27-6.16,1.31c-2.12-1-3.5-3.4-3.16-5.57c0.38-2.39,2.05-4.48,5.19-4.84
					c0.52-2.07,1.05-4.17,1.83-6.2c1.93-4.98,4.73-9.33,8.96-12.68c3.98-3.15,8.45-3.79,13.26-2.56c4.52,1.16,8.48,3.41,12.05,6.38
					c3.36,2.8,6.22,6.04,8.64,9.84c0.78-0.97,1.49-1.91,2.27-2.8c5.29-6.1,11.55-10.78,19.34-13.22c2.55-0.8,5.17-1.1,7.82-0.85
					c2.65,0.25,5.03,1.33,7.1,2.98c5.3,4.21,8.35,9.78,9.68,16.35c0.19,0.96,0.39,1.91,0.4,2.89c0.01,0.6,0.29,0.91,0.89,1.08
					c2.61,0.76,3.9,2.74,3.8,5.73c-0.07,2.12-1.93,4.17-4.22,4.65c-1.93,0.41-4.26-0.61-5.42-2.38c-1.21-1.84-1.17-4.3,0.1-6.05
					c0.29-0.39,0.61-0.75,0.95-1.17c-0.73-0.94-1.63-1.69-2.49-2.47c-1.6-1.45-3.29-2.77-5.27-3.68c-2.23-1.03-3.45-0.8-5.19,0.91
					c-2.38,2.34-3.74,5.29-4.93,8.34c-0.7,1.78-1.21,3.63-1.54,5.52c-0.12,0.68-0.01,1.18,0.62,1.67c1.42,1.11,2.63,2.44,3.34,4.15
					c0.14,0.34,0.32,0.47,0.71,0.48c2.13,0.02,4.24-0.17,6.35-0.33c1.46-0.11,2.92-0.26,4.37-0.45c0.97-0.12,1.53,0.54,1.41,1.51
					c-0.44,3.62-0.92,7.23-1.33,10.85c-0.37,3.27-0.68,6.54-1.01,9.81c-0.39,3.79-0.78,7.58-1.14,11.37
					c-0.19,1.97-0.29,3.95-0.44,5.96c3.61,0.72,6.8,2.17,9.61,4.42c2.18,1.74,3.9,3.81,4.42,6.69c0.36,2.01-0.03,3.89-0.96,5.66
					c-1.12,2.12-2.54,4.02-4.46,5.5c-0.4,0.3-0.61,0.58-0.39,1.13c0.35,0.9,0.23,1.86,0.22,2.84c0.46,0.28,1.04,0.31,1.46,0.68
					c1.1,0.95,1.39,2.37,0.64,3.79c-1.38,2.63-3.64,4.1-6.49,4.72c-2.2,0.48-4.33,0.19-6.38-0.75c-0.16,0.3-0.03,0.6-0.07,0.88
					c-0.11,0.88-0.42,1.23-1.32,1.45c-3.17,0.78-6.4,1.15-9.65,1.33c-0.22,0.01-0.46-0.04-0.76,0.16c0.62,3.93,1.17,7.92,0.03,11.98
					c1.23,0.04,2.43-0.04,3.62,0.21c3.85,0.84,7.08,2.54,8.97,6.21c0.38,0.74,0.57,1.52,0.62,2.34c0.07,1.06-0.3,1.91-1.3,2.41
					c-1.06,0.54-2.21,0.71-3.38,0.84c-2.81,0.32-5.6,0.1-8.4-0.19c-2.91-0.3-5.79-0.76-8.6-1.59c-1.15-0.34-2.27-0.78-3.27-1.49
					c-1.54-1.09-1.9-2.17-1.33-3.96c0.29-0.91,0.69-1.78,1.27-2.51c1.44-1.81,1.82-3.94,1.91-6.13c0.11-2.71-0.2-5.4-0.57-8.09
					c-0.06-0.41-0.24-0.53-0.63-0.57c-1.49-0.17-2.97-0.39-4.46-0.56c-2.26-0.26-4.49-0.71-6.73-1.09c-2.08-0.35-4.16-0.7-6.27-0.9
					c-1.26-0.12-2.52-0.3-3.79-0.38c-0.51-0.03-0.74,0.15-0.92,0.63c-1.97,5.31-1.5,10.19,2.4,14.55c1.36,1.51,2.12,3.31,2.24,5.39
					c0.07,1.26-0.42,2.11-1.44,2.77c-1.62,1.03-3.43,1.53-5.26,1.97c-4.68,1.13-9.44,1.53-14.25,1.36c-1.03-0.04-2.07-0.19-3.05-0.6
					c-1.31-0.54-1.89-1.75-1.47-3.1c0.76-2.43,2.42-4.12,4.52-5.44C120.89,200.42,123.01,199.73,125.22,199.3z M183.8,112.23
					c-2.34,0.17-4.55,0.4-6.76,0.47c-5.94,0.19-11.87-0.08-17.77-0.79c-3.49-0.42-6.98-0.73-10.59-1.08
					c-1.36,10.99-2.48,21.96-3.45,33.01c2.27,0.11,4.43-0.14,6.55-0.67c1.81-0.45,3.5-1.18,5.07-2.19c0.47-0.3,1.08-0.83,1.55-0.2
					c0.48,0.63-0.12,1.12-0.56,1.57c-0.4,0.4-0.83,0.73-1.31,1.02c-2.85,1.71-5.97,2.47-9.25,2.7c-0.74,0.05-1.49-0.07-2.24,0.08
					c-0.06,0.79-0.11,1.53-0.16,2.22c0.2,0.19,0.39,0.19,0.59,0.21c2.69,0.25,5.36,0.62,8.06,0.85c2.6,0.21,5.19,0.47,7.8,0.53
					c3.56,0.07,7.12,0.08,10.68,0c2.51-0.06,4.99-0.39,7.46-0.81c0.52-0.09,0.78-0.33,0.81-0.96c0.09-2.05,0.26-4.1,0.44-6.14
					c0.22-2.56,0.47-5.12,0.72-7.68c0.16-1.65,0.33-3.3,0.51-4.95c0.21-1.94,0.44-3.88,0.66-5.82c0.24-2.13,0.52-4.26,0.71-6.4
					C183.46,115.55,183.82,113.96,183.8,112.23z M144.62,150.71c-0.69,10.68-1.22,21.21-1.77,31.71c2.32,0.37,4.5,0.75,6.68,1.05
					c2.67,0.37,5.34,0.79,8.02,1.05c2.27,0.23,4.55,0.44,6.82,0.51c3.29,0.09,6.6,0.11,9.87-0.38c1.14-0.17,2.31-0.27,3.45-0.69
					c0.75-10.98,1.49-21.93,2.24-32.82C168.11,153,156.42,152.18,144.62,150.71z M146.34,110.84c-0.41-0.17-0.75-0.28-1.11-0.26
					c-1.87,0.07-3.72-0.22-5.58-0.23c-5.52-0.04-11.04-0.13-16.55,0.38c-2.04,0.19-4.08,0.39-6.09,0.75
					c-1.2,0.21-1.16,0.26-1.27,1.48c-0.19,2.11-0.44,4.21-0.65,6.31c-0.18,1.78-0.36,3.56-0.52,5.35c-0.16,1.85-0.29,3.7-0.45,5.55
					c-0.17,1.98-0.36,3.96-0.53,5.94c-0.18,2.08-0.37,4.15-0.53,6.23c-0.13,1.74-0.23,3.48-0.35,5.28
					c10.01-1.49,19.9-0.95,29.84,0.6c-0.05-0.84,0.34-1.54,0.13-2.28c-3.17-0.5-6.11-1.45-8.67-3.37c-0.68-0.51-1.32-1.07-1.7-1.86
					c-0.17-0.34-0.24-0.72,0.07-1c0.32-0.29,0.72-0.25,1.08-0.02c0.25,0.16,0.49,0.33,0.71,0.52c2.52,2.14,5.55,2.93,8.79,3.41
					C143.9,132.63,145.09,121.74,146.34,110.84z M142.4,150.44c-1.86-0.29-3.63-0.51-5.4-0.73c-2.68-0.34-5.38-0.59-8.08-0.7
					c-3.17-0.13-6.34-0.09-9.51-0.01c-2.15,0.05-4.29,0.27-6.42,0.57c-0.42,0.06-0.56,0.24-0.56,0.62c-0.01,2.25-0.28,4.49-0.4,6.74
					c-0.14,2.44-0.29,4.89-0.44,7.33c-0.19,2.99-0.36,5.99-0.54,8.98c-0.17,2.83-0.36,5.67-0.42,8.51c-0.01,0.44-0.21,0.88-0.1,1.42
					c4.97-0.93,9.93-1.54,14.95-1.7c5.05-0.16,10.07,0.23,15.09,0.65C141.12,171.49,141.72,161.01,142.4,150.44z M167.46,103.69
					c0.35-1.79,0.65-3.54,1.23-5.23c1.32-3.85,3.04-7.47,6.03-10.35c2.12-2.03,4.4-2.44,7.07-1.23c1.22,0.55,2.34,1.29,3.37,2.14
					c1.87,1.54,3.58,3.24,5.13,5.11c0.28,0.34,0.57,0.75,1.13,0.32c-0.26-1.11-0.47-2.23-0.78-3.31
					c-1.58-5.67-4.22-10.71-8.89-14.47c-2.27-1.83-4.84-3.06-7.86-2.97c-2.33,0.07-4.57,0.63-6.72,1.48
					c-10.2,4-17.55,11.1-22.53,20.76c-0.45,0.87-0.89,1.77-1.07,2.78C151.83,99.04,159.89,100.01,167.46,103.69z M125.19,101.83
					c0.27-0.08,0.46-0.12,0.64-0.19c3.61-1.34,7.35-2.1,11.17-2.54c1.17-0.13,2.35-0.1,3.51-0.27c0.54-0.08,0.76-0.31,0.91-0.8
					c0.68-2.25,1.65-4.39,2.86-6.39c0.55-0.91,0.43-1.58-0.11-2.39c-1.37-2.07-2.87-4.04-4.59-5.83c-3.95-4.1-8.52-7.25-14.04-8.85
					c-1.94-0.56-3.94-0.94-5.97-0.58c-2.69,0.48-4.86,1.96-6.82,3.76c-4.73,4.35-7.37,9.91-9.16,15.99
					c0.29,0.16,0.57,0.31,0.88,0.47c1.18-1.21,2.38-2.36,3.73-3.33c3.39-2.45,7.03-3.75,11.37-2.38c-0.62-1.01-1.18-1.9-1.83-2.96
					c1.05,0.03,1.64,0.52,2.2,1.03c1.71,1.58,2.89,3.5,3.67,5.69C124.71,95.33,125.07,98.52,125.19,101.83z M103.42,156.29
					c0.36-1.37,0.45-2.74,0.25-4.09c-0.3-2.03-1.32-3.65-2.97-4.87c-1.34-0.99-2.28-2.21-2.41-3.94c-0.06-0.72,0.01-1.43,0.04-2.15
					c0.05-1.48-0.93-2.06-2.24-1.35c-0.94,0.51-1.27,1.36-1.33,2.35c-0.11,1.69,0.1,3.31,1.34,4.6c-0.31,0.3-0.63,0.21-0.9,0.3
					c-2.84,0.92-5.68,1.81-8.65,2.21c-1.2,0.16-2.33,0.56-3.34,1.25c-0.43,0.29-0.77,0.64-0.79,1.28c2.16-0.57,4.25-0.78,6.36-0.36
					c0.5,0.1,0.84-0.09,1.13-0.77c0.36,2.13,0.28,4.08,1.27,5.87c-0.54,0-1.02,0.02-1.5,0c-1.41-0.08-2.8,0.05-4.16,0.45
					c-0.78,0.23-1.56,0.48-2.17,1.06c-0.72,0.7-0.5,1.71,0.45,1.99c0.87,0.26,1.77,0.43,2.69,0.42c1.67-0.03,3.3,0.25,4.94,0.52
					c2.27,0.37,4.54,0.46,6.78-0.14c1.37-0.37,2.66-0.95,3.99-1.85c-0.3,1.08-1.07,1.62-1.54,2.38c2.73,1.42,5.52,2.51,8.47,3.27
					c0.22-2.7,0.43-5.3,0.64-7.89c0.02-0.26-0.02-0.46-0.28-0.55c-1.57-0.53-2.95-1.45-4.43-2.17
					C104.54,154.89,104.31,155.82,103.42,156.29z M120.79,108.54c0.38,0,0.64,0.02,0.9,0c3.73-0.4,7.48-0.55,11.24-0.58
					c5.16-0.04,10.32,0.07,15.46,0.44c3.15,0.23,6.29,0.53,9.43,0.91c3.39,0.41,6.8,0.69,10.21,0.98c1.04,0.09,2.1,0.01,3.28,0.01
					c-0.32-0.46-0.53-0.78-0.76-1.09c-0.12-0.16-0.26-0.29-0.39-0.44c-1.96-2.27-4.55-3.56-7.32-4.49
					c-6.09-2.06-12.39-2.9-18.78-3.07c-4.5-0.12-8.98,0.3-13.37,1.33c-2.75,0.65-5.46,1.46-7.77,3.2
					C121.98,106.44,121.26,107.29,120.79,108.54z M182.45,151.46c-0.32,2.19-0.43,4.46-0.59,6.73c-0.03,0.45,0.27,0.51,0.62,0.58
					c1.32,0.29,2.52,0.85,3.54,1.75c0.8,0.7,0.97,1.49,0.54,2.45c-0.19,0.41-0.43,0.8-0.7,1.17c-1.02,1.36-2.35,2.35-3.82,3.15
					c-0.48,0.26-0.77,0.54-0.85,1.15c-0.13,0.95-0.08,1.89-0.14,2.83c-0.2,2.96-0.35,5.92-0.56,8.88c-0.05,0.66,0.25,1.04,0.75,1.35
					c0.94,0.57,1.96,0.87,3.05,0.89c2.98,0.07,5.4-1.01,7.05-3.56c0.43-0.67,0.27-1.07-0.44-1.34c-0.44-0.17-0.7-0.01-0.96,0.37
					c-1.07,1.54-2.53,2.51-4.38,2.85c-0.37,0.07-0.77,0.21-1.09-0.28c0.35-0.35,0.8-0.54,1.21-0.79c3.19-1.94,4.11-5.12,2.44-8.41
					c-0.3-0.58-0.03-1.07,0.68-1.12c0.41-0.03,0.74-0.1,1.05-0.4c1.35-1.29,2.55-2.72,3.5-4.32c0.75-1.27,1.37-2.62,1.25-4.13
					c-0.17-2.2-1.32-3.92-2.9-5.37c-2.32-2.13-5.09-3.46-8.09-4.34C183.25,151.46,182.92,151.22,182.45,151.46z M133.26,183.97
					c-1.93-0.28-3.76-0.26-5.59-0.27c-0.52,0-0.79,0.11-1,0.66c-0.82,2.18-1.32,4.4-1.37,6.73c-0.07,3.54,1.1,6.56,3.53,9.12
					c0.24,0.25,0.57,0.45,0.54,0.88c-0.42,0.13-0.85,0.05-1.26,0.07c-2.9,0.15-5.67,0.75-8.12,2.42c-1.33,0.91-2.56,1.93-3.26,3.43
					c-0.42,0.91-0.31,1.15,0.66,1.34c1.45,0.28,2.92,0.31,4.38,0.29c2.8-0.05,5.59-0.36,8.35-0.85c2.27-0.41,4.53-0.86,6.59-1.94
					c1.02-0.53,1.14-0.83,0.88-1.96c-0.34-1.43-1.04-2.66-2.03-3.73c-2.76-3-3.74-6.61-3.64-10.6
					C131.98,187.62,132.47,185.78,133.26,183.97z M160.35,187.27c-0.16,0.43,0.07,0.71,0.13,1.03c0.5,2.78,0.47,5.6,0.36,8.4
					c-0.09,2.21-0.68,4.3-2.18,6.04c-0.38,0.44-0.66,0.97-0.88,1.52c-0.62,1.51-0.39,2.11,1.06,2.82c0.29,0.14,0.6,0.25,0.9,0.36
					c3.35,1.13,6.82,1.6,10.32,1.92c2.21,0.2,4.44,0.25,6.66,0.02c1.02-0.11,2.04-0.19,2.97-0.73c-0.29-1.41-0.88-2.59-1.87-3.53
					c-2.94-2.82-6.44-3.94-10.47-3.39c-1.17,0.16-1.69-0.31-1.33-1.4c0.89-2.7,1.2-5.46,0.9-8.28c-0.17-1.6-0.4-3.2-0.9-4.76
					C164.1,187.27,162.25,187.27,160.35,187.27z M104.92,98.88c0.01-1.71-1.48-3.24-3.13-3.22c-1.65,0.02-3.12,1.55-3.11,3.25
					c0.01,1.66,1.54,3.24,3.19,3.16C103.59,101.98,104.88,100.67,104.92,98.88z M195.6,99.74c0.01-1.83-1.4-3.27-3.17-3.24
					c-1.6,0.03-2.98,1.49-2.98,3.14c0,1.75,1.43,3.25,3.08,3.23C194.2,102.85,195.59,101.44,195.6,99.74z M89.21,152.77
					c-1.83-0.15-3.48,0.13-5.14,0.51c-0.84,0.19-1.6,0.52-2.31,1c-0.66,0.45-1.04,1.05-0.95,1.9c0.04,0.37,0.03,0.67,0.45,0.87
					c0.43,0.21,0.67-0.01,0.96-0.22c1.29-0.98,2.76-1.41,4.37-1.4c1,0.01,2-0.05,3.05,0.2C89.48,154.62,89.14,153.76,89.21,152.77z
					 M184.53,162.33c-0.8-0.76-1.65-1.31-2.83-1.39c-0.02,1.35-0.38,2.61-0.17,3.98C182.73,164.24,183.78,163.52,184.53,162.33z"/>
				<path d="M151.81,130.65c0.01-2.04,1.76-4.16,3.94-4.82c3.34-1,6.92,1.53,7.45,4.93c0.17,1.11-0.66,1.83-1.76,1.51
					c-0.81-0.23-1.55-0.67-2.36-0.9c-1.62-0.46-3.22-0.27-4.78,0.3c-0.27,0.1-0.55,0.2-0.83,0.27
					C152.32,132.24,151.81,131.83,151.81,130.65z"/>
				<path d="M128.46,130.24c0.02-2.03,1.87-4.17,4.12-4.81c3.43-0.97,6,1.82,6.22,4.96c0.07,1.04-0.74,1.59-1.78,1.29
					c-0.37-0.11-0.71-0.31-1.07-0.47c-1.54-0.72-3.08-0.68-4.62-0.02c-0.3,0.13-0.58,0.29-0.88,0.41
					C129.22,132.08,128.45,131.55,128.46,130.24z"/>
			</g>
			<path class="st1" d="M159.58,127.25c-1.29,0-1.29,2,0,2C160.86,129.25,160.87,127.25,159.58,127.25z"/>
			<path class="st1" d="M135.3,126.77c-1.29,0-1.29,2,0,2C136.58,128.77,136.58,126.77,135.3,126.77z"/>
		</g>
		<g>
			<g>
				<path class="st3" d="M208.71,257.81l0.41,0.07c0.45,0.09,1.03,0.1,1.34,0.1v-7.74c0-2.22,1.8-2.84,3.39-2.84
					c0.77,0,1.47,0.14,1.93,0.31l-0.05,2.05c-0.72,0-1.85,0.17-1.85,1.23v6.98c0.31,0,0.89-0.02,1.33-0.1l0.41-0.07l-0.03,2.24
					l-3.42-0.05l-3.42,0.05L208.71,257.81z"/>
				<path class="st3" d="M212.17,230.42c4,0,6.16,2.23,6.16,6.33c0,4.11-2.16,6.33-6.16,6.33c-4,0-6.16-2.22-6.16-6.33
					C206.01,232.65,208.16,230.42,212.17,230.42z M212.51,241.03c1.56,0,2.4-1.51,2.4-4.28c0-2.77-1.08-4.28-3.08-4.28
					c-1.56,0-2.4,1.51-2.4,4.28C209.43,239.53,210.51,241.03,212.51,241.03z"/>
				<path class="st3" d="M205.46,223.61c0.2,0.03,0.43,0.07,0.65,0.07c0.7,0,1.21-0.39,1.81-0.99l2.86-2.86l-3.71-2.72
					c-0.34-0.31-0.6-0.41-0.86-0.41c-0.26,0-0.5,0.1-0.84,0.21l-0.05-3.42c0.53-0.21,1.2-0.32,1.85-0.32c1.71,0,2.29,0.6,3.32,2.04
					l2.26,3.2c0.26,0.38,0.46,0.56,0.79,0.56h0.34v-3.42c-0.31,0-0.55,0.02-0.99,0.07l-0.41,0.05l-0.14-2.19l3.25,0.05l3.42-0.05
					l0.03,2.24l-0.41-0.07c-0.44-0.09-1.03-0.1-1.33-0.1v8.21c0.31,0,0.89-0.02,1.33-0.1l0.41-0.07l-0.03,2.24l-3.42-0.05
					l-3.25,0.05l0.14-2.21l0.41,0.05c0.45,0.05,0.68,0.09,0.99,0.09v-2.74h-1.37l-1.81,1.81c-0.29,0.29-0.62,0.62-0.62,0.77
					c0,0.07,0.03,0.09,0.14,0.09c0.09,0,0.29-0.02,0.44-0.03l-0.21,2.17l-2.57-0.03l-2.4,0.03L205.46,223.61z"/>
				<path class="st3" d="M206.66,204.47l2.36-0.24c0.36,2.24,1.42,2.4,3.47,2.4h1.04v-3.42c-1.25,0-1.64,0.82-2.24,1.85l-0.82-0.51
					v-4.38l0.82-0.34c0.6,1.03,1.03,2.02,2.24,2.02v-3.42h-1.15c-2.09,0-3.51,0.19-3.95,2.91l-2.36-0.24l0.45-5.07
					c0,0,6.33,0.34,7.7,0.34h4.06l0.09,2.24l-0.41-0.07c-0.44-0.07-0.68-0.12-0.99-0.12v8.21c0.31,0,0.56-0.03,1.01-0.12l0.41-0.07
					l-0.09,2.24h-4.09c-1.37,0-7.17,0.34-7.17,0.34L206.66,204.47z"/>
				<path class="st3" d="M213.48,191.68c-0.07,0-2.21,0.05-2.28,0.05c-2.77,0-4.6-1.42-4.6-3.68c0-2.02,1.59-3.3,3.92-3.61
					c-2.12-0.34-2.79-2.04-3.94-2.04c-0.29,0-0.6,0.14-0.96,0.26l-0.05-3.42c0.56-0.21,1.2-0.34,1.8-0.34
					c1.66,0,2.31,1.37,3.13,2.69c0.68,1.11,1.56,2.17,2.74,2.38l0.21,0.03v-2.7c-0.31,0-0.55,0.03-0.99,0.09l-0.41,0.05l0.03-2.21
					l3.08,0.05l3.42-0.05l0.03,2.24l-0.41-0.07c-0.44-0.09-1.03-0.1-1.33-0.1v8.25c0.31,0,0.86-0.03,1.3-0.12l0.44-0.1l-0.03,2.24
					L213.48,191.68z M213.45,185.81c-0.32,0-0.67-0.02-0.99-0.02c-1.57,0-2.43,0.62-2.43,1.97c0,1.18,0.82,1.87,2.45,1.87
					c0.33,0,0.65-0.02,0.98-0.02V185.81z"/>
			</g>
			<g>
				<path class="st3" d="M74.37,25.49l-0.41-0.07c-0.45-0.09-1.03-0.1-1.34-0.1v7.74c0,2.22-1.8,2.84-3.39,2.84
					c-0.77,0-1.47-0.14-1.93-0.31l0.05-2.05c0.72,0,1.85-0.17,1.85-1.23v-6.98c-0.31,0-0.89,0.02-1.33,0.1l-0.41,0.07l0.03-2.24
					l3.42,0.05l3.42-0.05L74.37,25.49z"/>
				<path class="st3" d="M70.91,52.88c-4,0-6.16-2.23-6.16-6.33c0-4.11,2.16-6.33,6.16-6.33c4,0,6.16,2.22,6.16,6.33
					C77.07,50.65,74.91,52.88,70.91,52.88z M70.57,42.27c-1.56,0-2.4,1.51-2.4,4.28c0,2.77,1.08,4.28,3.08,4.28
					c1.56,0,2.4-1.51,2.4-4.28C73.65,43.77,72.57,42.27,70.57,42.27z"/>
				<path class="st3" d="M77.62,59.69c-0.2-0.03-0.43-0.07-0.65-0.07c-0.7,0-1.21,0.39-1.81,0.99l-2.86,2.86l3.71,2.72
					c0.34,0.31,0.6,0.41,0.86,0.41c0.26,0,0.5-0.1,0.84-0.21l0.05,3.42c-0.53,0.21-1.2,0.32-1.85,0.32c-1.71,0-2.29-0.6-3.32-2.04
					l-2.26-3.2c-0.26-0.38-0.46-0.56-0.79-0.56H69.2v3.42c0.31,0,0.55-0.02,0.99-0.07l0.41-0.05l0.14,2.19l-3.25-0.05l-3.42,0.05
					l-0.03-2.24l0.41,0.07c0.44,0.09,1.03,0.1,1.33,0.1v-8.21c-0.31,0-0.89,0.02-1.33,0.1l-0.41,0.07l0.03-2.24l3.42,0.05l3.25-0.05
					l-0.14,2.21l-0.41-0.05c-0.45-0.05-0.68-0.09-0.99-0.09v2.74h1.37l1.81-1.81c0.29-0.29,0.62-0.62,0.62-0.77
					c0-0.07-0.03-0.09-0.14-0.09c-0.09,0-0.29,0.02-0.44,0.03l0.21-2.17l2.57,0.03l2.4-0.03L77.62,59.69z"/>
				<path class="st3" d="M76.42,78.83l-2.36,0.24c-0.36-2.24-1.42-2.4-3.47-2.4h-1.04v3.42c1.25,0,1.64-0.82,2.24-1.85l0.82,0.51
					v4.38l-0.82,0.34c-0.6-1.03-1.03-2.02-2.24-2.02v3.42h1.15c2.09,0,3.51-0.19,3.95-2.91L77,82.22l-0.45,5.07
					c0,0-6.33-0.34-7.7-0.34H64.8l-0.09-2.24l0.41,0.07c0.44,0.07,0.68,0.12,0.99,0.12v-8.21c-0.31,0-0.56,0.03-1.01,0.12
					l-0.41,0.07l0.09-2.24h4.09c1.37,0,7.17-0.34,7.17-0.34L76.42,78.83z"/>
				<path class="st3" d="M69.59,91.62c0.07,0,2.21-0.05,2.28-0.05c2.77,0,4.6,1.42,4.6,3.68c0,2.02-1.59,3.3-3.92,3.61
					c2.12,0.34,2.79,2.04,3.94,2.04c0.29,0,0.6-0.14,0.96-0.26l0.05,3.42c-0.56,0.21-1.2,0.34-1.8,0.34c-1.66,0-2.31-1.37-3.13-2.69
					c-0.68-1.11-1.56-2.17-2.74-2.38l-0.21-0.03v2.7c0.31,0,0.55-0.03,0.99-0.09l0.41-0.05L71,104.07l-3.08-0.05l-3.42,0.05
					l-0.03-2.24l0.41,0.07c0.44,0.09,1.03,0.1,1.33,0.1v-8.25c-0.31,0-0.86,0.03-1.3,0.12l-0.44,0.1l0.03-2.24L69.59,91.62z
					 M69.63,97.49c0.32,0,0.67,0.02,0.99,0.02c1.57,0,2.43-0.62,2.43-1.97c0-1.18-0.82-1.87-2.45-1.87c-0.33,0-0.65,0.02-0.98,0.02
					V97.49z"/>
			</g>
		</g>
	</g>
</g>
</svg>
