<?xml version="1.0" encoding="utf-8"?>
<!-- Generator: Adobe Illustrator 24.0.1, SVG Export Plug-In . SVG Version: 6.00 Build 0)  -->
<svg version="1.1" xmlns="http://www.w3.org/2000/svg" xmlns:xlink="http://www.w3.org/1999/xlink" x="0px" y="0px"
	 viewBox="0 0 283.46 283.46" style="enable-background:new 0 0 283.46 283.46;" xml:space="preserve">
<style type="text/css">
	.st0{fill:#DBDDD9;}
	.st1{fill:#FFFFFF;}
	.st2{fill:none;stroke:#000000;stroke-width:3;stroke-miterlimit:10;}
	.st3{fill:#E30613;}
	.st4{fill:#894F28;}
	.st5{fill:#3E2215;}
	.st6{fill:#DEB27E;}
	.st7{opacity:0.25;fill:#312783;}
	.st8{opacity:0.53;fill:#F5F0DA;}
	.st9{fill:none;}
	.st10{fill:#EB941E;}
	.st11{fill:#1F201D;}
	.st12{fill:#E2E0DB;}
	.st13{fill:#B7B6B0;}
	.st14{fill:#2FAC66;}
	.st15{fill:#312783;}
	.st16{fill:#E94D2A;}
	.st17{fill:#F5EA61;}
	.st18{fill:#1D71B8;}
	.st19{fill:#2D3B49;}
</style>
<g id="bg">
</g>
<g id="CUT">
</g>
<g id="BACK">
</g>
<g id="ILLUSTRATION">
</g>
<g id="SYMBOLS">
</g>
<g id="CARDS">
	<g>
		<path class="st1" d="M217.23,267.73h-151c-8.01,0-14.5-6.49-14.5-14.5v-223c0-8.01,6.49-14.5,14.5-14.5h151
			c8.01,0,14.5,6.49,14.5,14.5v223C231.73,261.24,225.24,267.73,217.23,267.73z"/>
		<g>
			<g>
				<g>
					<g>
						<g>
							<g>
								<path class="st11" d="M122.78,81.3c1.36-0.08,2.56,0.4,3.67,1.15c0.65,0.43,1.28,0.9,2.02,1.41
									c0.22-2.26,0.56-4.37,1.33-6.4c1.46-3.85,4.02-6.56,8.01-7.76c2.47-0.74,4.98-1.03,7.57-0.7c3.75,0.49,6.82,2.15,9.16,5.1
									c1.73,2.17,2.85,4.51,3.46,6.99c1.71,6.39,0.02,13.56-4.8,18.26c-3.26,3.18-7.46,5.21-10.23,8.92
									c-2.46,3.3-3.57,7.78-1.45,11.47c0.38-0.33,0.76-0.65,1.15-0.96c5.33-4.28,11.09-7.86,17.39-10.55
									c3.14-1.34,6.38-2.34,9.84-2.42c0.63-0.01,0.61-0.35,0.55-0.81c-0.27-1.94-0.41-3.9-0.36-5.86
									c0.11-4.3,0.48-8.59,0.25-12.89c-0.18-3.34-0.77-6.58-2.14-9.66c-0.29-0.66-0.69-1.21-1.25-1.69
									c-1.28-1.08-2.69-1.94-4.17-2.7c-6.25-3.19-12.93-4.92-19.87-5.7c-4.59-0.51-9.16-0.47-13.73,0.32
									c-2.58,0.45-4.88,1.28-6.53,3.43c-0.19,0.24-0.51,0.41-0.23,0.82c0.99,1.48,1.07,3.16,0.9,4.86
									c-0.15,1.58-0.61,3.09-1.05,4.6C122.12,81.06,122.13,81.34,122.78,81.3z"/>
								<path class="st1" d="M120.28,74.91c0.67,0.08,1.11,0.53,1.64,1.08c0.15-1.11,0.03-2.05-0.16-2.98
									c-0.04-0.2-0.09-0.46-0.34-0.52c-0.28-0.07-0.46,0.14-0.59,0.35c-0.31,0.51-0.56,1.06-0.74,1.63
									C120.02,74.68,120.01,74.88,120.28,74.91z"/>
								<path class="st10" d="M124.39,92.24c2.58-0.37,5-1.25,7.23-2.62c0.25-0.15,0.62-0.31,0.12-0.61c-2-1.21-3.58-2.91-5.32-4.43
									c-1.72-1.5-3.53-2-5.67-0.84c-4.74,2.56-9.7,4.66-14.57,6.95c-1.18,0.56-2.3,1.23-3.36,2.36c3.35-0.37,6.52-0.47,9.69-0.48
									C116.46,92.56,120.44,92.81,124.39,92.24z"/>
								<path class="st10" d="M81.44,95.83c-0.12-0.55-0.52-0.72-1.05-0.72c-1.12,0.18-2.25,0.34-3.37,0.53
									c-0.5,0.08-1.02,0.24-0.94,0.89c0.08,0.65,0.4,1.16,1.16,1.1c1.19-0.09,2.37-0.28,3.52-0.6
									C81.37,96.86,81.56,96.41,81.44,95.83z"/>
								<path class="st10" d="M126.17,96.49c2.82-0.63,5.26-1.88,7.05-4.23c0.35-0.47,0.59-0.98,0.53-1.59
									c-0.05-0.53-0.28-0.7-0.74-0.33c-0.9,0.72-1.9,1.27-2.95,1.73c-3.98,1.75-8.19,2.07-12.46,1.99
									c-2.75-0.05-5.49-0.18-8.24-0.27l-0.05,0.15c0.65,0.28,1.29,0.57,1.94,0.83C116.07,96.69,121,97.64,126.17,96.49z"/>
								<path class="st10" d="M81.83,124.49c0.73-0.2,1.45-0.45,2.16-0.71c0.2-0.07,0.11-0.28,0.1-0.44
									c-0.01-0.14-0.01-0.27-0.03-0.41c-0.65-4.59-1.29-9.19-1.97-13.78c-0.47-3.19-0.97-6.38-1.46-9.58
									c-0.06-0.42-0.2-0.74-0.72-0.67c-0.48,0.07-0.96,0.16-1.45,0.22c-0.56,0.07-0.68,0.32-0.59,0.89
									c0.6,3.69,1.17,7.4,1.74,11.1c0.66,4.32,1.3,8.64,1.95,12.96C81.6,124.25,81.56,124.56,81.83,124.49z"/>
								<path class="st11" d="M176.24,122.07c-2.47-0.64-4.98-0.52-7.46-0.26c-4.51,0.48-8.84,1.72-13.04,3.44
									c-3.62,1.49-7.19,3.13-11.09,3.77c-0.44,0.07-0.56,0.28-0.5,0.72c0.2,1.64,0.31,3.3,0.56,4.94
									c0.78,5.1,1.58,10.2,2.41,15.29c0.35,2.16,0.79,4.32,1.23,6.71c0.51-0.64,0.83-1.11,1.21-1.53
									c2.17-2.33,4.32-4.69,6.54-6.97c2.54-2.61,3.15-5.66,2.39-9.12c-0.4-1.8-1.26-3.41-1.99-5.08c-0.24-0.54-0.35-1.08,0.3-1.4
									c0.64-0.32,0.95,0.14,1.22,0.61c1.28,2.27,2.22,4.63,2.55,7.26c0.39,3.22-0.48,5.99-2.58,8.38
									c-1.71,1.94-3.52,3.79-5.31,5.65c-1.63,1.7-3.05,3.56-4.04,5.7c-2.32,5-2.23,9.85,1.07,14.43c0.65,0.9,1.39,1.76,2.44,2.25
									c1.06,0.49,1.99,0.21,2.61-0.78c0.41-0.65,0.63-1.39,0.83-2.12c0.92-3.49,3.16-5.77,6.47-7.03
									c2.06-0.79,4.15-1.47,6.21-2.26c5.12-1.98,9.94-4.38,13.48-8.83c3.37-4.23,4.92-8.95,4.07-14.3
									c-1.04-6.6-3.91-12.47-7.48-18.04C177.83,122.74,177.14,122.31,176.24,122.07z"/>
								<path class="st10" d="M154.92,66.63c-1.01-0.29-2.03-0.53-3.07-0.74c1.11,0.28,2.21,0.58,3.31,0.92
									C155.08,66.75,155,66.69,154.92,66.63z"/>
								<path class="st1" d="M164.89,108.76c-8.22,2.66-15.41,7.16-22.04,12.61c-0.81,0.67-1.63,1.38-2.14,2.34
									c-0.78,1.44-0.2,2.93,1.3,3.32c0.55,0.14,1.1,0.18,1.69,0.12c2.88-0.31,5.54-1.35,8.18-2.43
									c6.18-2.54,12.42-4.81,19.21-5.06c2.75-0.1,5.43,0,8,1.4c0.2-0.7-0.03-1.31-0.1-1.91c-0.25-2.23-0.76-4.4-1.79-6.41
									c-0.99-1.92-2.26-3.57-4.46-4.3C170.07,107.55,167.44,107.93,164.89,108.76z"/>
								<path class="st11" d="M165.54,206.72c-3.51-4.94-6.44-10.22-9.01-15.7c-0.72-1.54-1.42-3.1-2.21-4.82
									c-0.86,3.44-2.33,6.37-4.36,9.05c-3.68,4.87-8.23,8.54-14.15,10.26c-4.54,1.32-9.19,1.55-13.89,0.93
									c-5.03-0.66-9.63-2.36-13.79-5.3c-1.28-0.9-2.44-1.92-3.54-3.03c4.94,9.69,14.18,13.67,22.86,12.73
									c-0.3-0.5-0.21-0.75,0.35-0.79c0.82-0.05,1.63,0.09,2.43,0.25c2.81,0.59,5.6,1.39,8.52,1.23c0.5-0.03,0.84-0.02,0.72-0.68
									c-0.07-0.4,0.13-0.77,0.55-0.9c0.41-0.13,0.55,0.24,0.74,0.49c0.6,0.79,1.35,1.42,2.16,1.98c3.75,2.6,7.95,3.22,12.31,2.47
									c4.25-0.73,7.83-2.71,10.31-6.4C165.98,207.87,166.02,207.4,165.54,206.72z"/>
								<path class="st10" d="M158.57,216.1c-3.45,1.19-6.97,1.37-10.52,0.61c-0.63-0.13-0.81,0.07-0.92,0.62
									c-0.18,0.96-0.68,1.76-1.38,2.45c-1.18,1.17-2.62,1.93-4.08,2.66c-3.07,1.53-6.07,3.18-8.93,5.08
									c-0.34,0.23-0.7,0.45-0.98,0.83c0.63,0.08,1.18,0.13,1.71,0.22c1.5,0.25,2.83,0.81,3.65,2.18c0.19,0.31,0.34,0.4,0.58,0.05
									c0.17-0.25,0.38-0.46,0.57-0.69c1.81-2.24,3.84-4.22,6.21-5.86c0.27-0.18,0.59-0.47,0.85-0.14
									c0.25,0.31-0.13,0.54-0.34,0.72c-1.76,1.56-3.19,3.42-4.68,5.22c-0.74,0.89-1.47,1.8-2.01,2.9c0.15-0.01,0.23,0,0.3-0.03
									c2.45-1.12,5.03-1.52,7.7-1.43c2.54,0.09,4.78,0.96,6.7,2.62c0.45,0.39,0.67,0.37,1-0.08c1.48-2.02,2.9-4.08,4.09-6.29
									c1.9-3.54,2.66-7.22,1.33-11.16C159.26,216.09,159.09,215.92,158.57,216.1z"/>
								<path class="st10" d="M124.78,212.97c-3.03,0.01-5.93-0.67-8.75-1.72c-0.72-0.27-0.83-0.04-0.81,0.61
									c0.05,1.3-0.54,2.25-1.74,2.77c-0.65,0.28-1.3,0.56-1.97,0.79c-3.83,1.3-7.73,2.42-11.44,4.08
									c-1.62,0.72-3.25,1.44-4.81,2.41c0.12,0.06,0.16,0.1,0.21,0.1c2.21,0.29,4.08,1.13,5.17,3.23c0.28,0.53,0.49,0.08,0.65-0.09
									c2.94-3.18,6.73-5.02,10.62-6.68c0.15-0.06,0.3-0.12,0.46-0.16c0.2-0.04,0.39-0.03,0.48,0.19c0.07,0.18-0.03,0.32-0.16,0.42
									c-0.15,0.11-0.32,0.21-0.48,0.31c-2.05,1.28-4.12,2.54-6.15,3.86c-1.55,1.01-2.96,2.2-4.16,3.8c0.51-0.16,0.89-0.3,1.28-0.4
									c3.78-0.98,7.39-0.99,10.47,1.88c0.29,0.27,0.44,0.17,0.66-0.05c0.7-0.68,1.48-1.28,2.27-1.87
									c2.23-1.65,4.64-3.05,6.79-4.81c1.16-0.95,2.15-1.98,2.31-3.6c0.16-1.59-0.07-3.14-0.29-4.7
									C125.35,212.97,125.05,212.97,124.78,212.97z"/>
								<path class="st3" d="M167.78,209.49c-0.18-0.2-0.36-0.48-0.61-0.06c-0.92,1.55-2.12,2.86-3.6,4.04
									c3.32,0.46,6.51,1.03,9.96,1.03C171.29,212.98,169.44,211.34,167.78,209.49z"/>
								<path class="st3" d="M205.08,207.55c-1.63-0.76-3.22-1.61-4.61-2.77c-3.01-2.51-5.29-5.65-7.31-8.94
									c-5.16-8.41-8.83-17.46-11.08-27.08c-0.66-2.8-1.19-5.62-1.69-8.47c-0.12,0.04-0.21,0.05-0.27,0.09
									c-2.87,2.4-6.2,4-9.6,5.49c-2.67,1.17-5.5,1.89-8.19,3.02c-2.58,1.09-4.28,2.91-4.98,5.65c-0.2,0.76-0.42,1.52-0.8,2.22
									c-0.54,1.02-1.27,1.89-2.42,2.16c-0.68,0.16-0.77,0.36-0.52,0.98c2.29,5.8,4.64,11.57,7.71,17.01
									c2.61,4.63,5.37,9.15,9.24,12.9c4.46,4.32,9.86,6.38,15.94,6.77c2.6,0.17,5.22,0.11,7.81-0.3c3.5-0.55,6.86-1.47,9.9-3.34
									c1.19-0.73,2.27-1.59,2.99-2.84c0.35-0.61,0.23-1.09-0.29-1.51C206.36,208.17,205.72,207.85,205.08,207.55z M194.15,209.21
									c-1.41-0.24-2.87-0.66-4.3-1.19c-5.27-1.93-9.52-5.24-13.08-9.56c-4.88-5.92-8.02-12.71-10.27-19.97
									c-0.1-0.31-0.16-0.63-0.21-0.95c-0.02-0.15,0-0.34,0.2-0.4c0.19-0.05,0.32,0.05,0.39,0.21c0.13,0.27,0.24,0.55,0.34,0.83
									c2.07,5.78,4.46,11.42,8.06,16.44c3.37,4.69,7.36,8.74,12.54,11.47c1.89,1,3.89,1.69,5.96,2.18
									c0.21,0.05,0.42,0.11,0.63,0.16c0.24,0.06,0.5,0.11,0.49,0.44C194.89,209.09,194.66,209.2,194.15,209.21z"/>
								<path class="st11" d="M102.33,127.52c-0.98,0.3-1.78,0.56-2.59,0.79c-2.97,0.83-6.01,0.92-9.06,0.8
									c-0.37-0.01-0.67-0.07-0.81,0.42c-0.35,1.24-1,2.35-1.72,3.41c-0.35,0.51-0.44,1.04-0.35,1.62
									c0.08,0.51,0.17,1.02,0.24,1.53c0.57,3.95,1.15,7.9,1.69,11.86c0.08,0.59,0.3,0.86,0.84,1.02c1.25,0.37,2.49,0.79,3.74,1.17
									c1.04,0.32,1.03,0.3,1.23-0.76c0.99-5.32,2.23-10.58,4.18-15.65C100.49,131.67,101.38,129.66,102.33,127.52z"/>
								<path class="st10" d="M86.13,136.28c-1.18,1.97-2.3,3.73-1.93,6c0.44,2.71,0.81,5.42,1.22,8.14
									c0.57,3.81,1.16,7.63,1.71,11.44c0.49,3.36,0.94,6.72,1.43,10.08c0.59,4.03,1.28,8.05,1.8,12.09
									c0.62,4.77,1.39,9.51,2.11,14.26c0.62,4.11,1.25,8.21,1.84,12.33c0.24,1.69,0.24,1.72,1.95,1.6
									c0.7-0.05,0.96-0.36,0.86-1.06c-0.32-2.09-0.62-4.19-0.93-6.28c-1.2-8.17-2.4-16.34-3.59-24.51
									c-1.06-7.23-2.05-14.47-3.16-21.69C88.31,151.28,87.2,143.9,86.13,136.28z"/>
								<path class="st10" d="M93.56,215.06c0.08,0.67,0.61,0.91,1.33,0.9c1.1-0.18,2.29-0.26,3.45-0.58
									c0.52-0.15,0.7-0.5,0.59-0.99c-0.11-0.47-0.44-0.79-0.94-0.71c-1.12,0.17-2.27,0.17-3.38,0.41
									C94.01,214.2,93.47,214.35,93.56,215.06z"/>
								<path class="st1" d="M108.89,199.8c6.84,4.8,14.5,6.27,22.66,5.16c11.13-1.51,19.34-10.43,21.76-20.04
									c0.15-0.6,0.13-1.14-0.12-1.73c-0.43-1-0.84-2.01-1.12-3.06c-0.23-0.88-0.61-1.52-1.48-1.86c-0.37-0.14-0.7-0.43-0.99-0.71
									c-2.9-2.79-4.41-6.22-4.59-10.23c-0.13-2.87,0.61-5.55,1.84-8.11c0.18-0.37,0.33-0.73,0.23-1.17
									c-0.75-3.31-1.39-6.65-1.98-9.99c-1.06-5.99-2.05-12-2.71-18.05c-0.06-0.55-0.25-0.9-0.84-1.02
									c-0.9-0.2-1.67-0.64-2.27-1.36c-1.29-1.55-1.28-3.64,0.02-5.52c0.23-0.33,0.48-0.64,0.74-0.94
									c-2.18-3.33-2.07-7.61-0.44-11.15c3.66-7.97,13.61-10.2,16.3-18.86c1.17-3.79,1.07-7.96-0.52-11.61
									c-0.11-0.25-0.1-0.49-0.04-0.7c-0.03-0.07-0.05-0.14-0.08-0.2c-2.3-5.17-6.34-8.03-12.21-8.01
									c-0.99-0.05-2.01,0.15-3.02,0.34c-3.88,0.73-6.86,2.68-8.49,6.39c-0.97,2.22-1.49,4.53-1.49,6.97c0,0.79,0.29,1.31,0.88,1.8
									c1.06,0.88,2.28,1.48,3.41,2.24c0.83,0.57,1.22,1.33,1.18,2.36c-0.03,0.79-0.29,1.49-0.68,2.15
									c-1.01,1.72-2.52,2.91-4.23,3.86c-2.35,1.32-4.92,1.81-7.58,2.01c-0.7,0.05-1.52-0.12-2.06,0.28
									c-0.47,0.35-0.09,1.13-0.2,1.71c-0.02,0.11-0.04,0.21-0.06,0.32c-0.46,3.06-2.15,5.48-3.9,7.93
									c-1.83,2.56-3.69,5.1-5.47,7.69c-3.48,5.05-6.7,10.31-9,16.01c-3.38,8.4-5.25,17.13-5.91,26.14
									c-0.35,4.73-0.35,9.45,0.15,14.17c0.54,5.2,1.69,10.24,3.65,15.09C102.1,192.72,104.71,196.86,108.89,199.8z M137.28,79.25
									c0.32-1.56,1.17-3.17,2.74-3.75c1.33-0.49,2.73,0.02,3.46,1.23c0.67,1.12,0.74,2.54,0.48,3.8
									c-0.28,1.32-1.01,2.55-2.14,3.31c-1.21,0.81-2.88,0.87-3.8-0.4c-0.13-0.18-0.23-0.38-0.32-0.59
									C137.12,81.77,137.03,80.46,137.28,79.25z"/>
								<path class="st11" d="M87.81,129.21c0.71-1.84-0.47-3.55-2.43-3.51c-2.14,0.05-3.89,1.11-5.56,2.3
									c-1.86,1.34-2.78,3.22-2.87,5.5c-0.14,3.49,1.34,6.37,3.45,9c0.54,0.67,1.09,1.35,2.07,1.75c-0.04-0.36-0.03-0.61-0.1-0.84
									c-0.54-2.01-0.25-3.92,0.64-5.78c0.81-1.7,1.81-3.28,2.8-4.87C86.54,131.6,87.32,130.48,87.81,129.21z"/>
								<path class="st10" d="M207.86,206.88c-0.72-0.55-1.52-0.96-2.33-1.34c-2.08-0.96-3.9-2.26-5.45-3.95
									c-2.61-2.84-4.74-6.04-6.62-9.39c-5.73-10.16-9.24-21.09-11.07-32.58c-0.14-0.88,0.07-1.52,0.66-2.19
									c3.36-3.84,5.05-8.35,5.02-13.45c-0.02-2.73-0.54-5.41-1.37-8.01c-1.29-4.04-3.08-7.85-5.25-11.48
									c-0.16-0.27-0.49-0.58-0.34-0.88c0.58-1.14,0.22-2.31,0.13-3.45c-0.22-2.67-0.71-5.29-1.82-7.74
									c-1.13-2.49-2.64-4.7-5.3-5.71c-1.07-0.41-1.46-0.85-1.6-2.06c-0.48-4.14-0.25-8.27-0.04-12.39
									c0.3-5.72-0.07-11.31-2.41-16.63c-0.07-0.16-0.1-0.31-0.11-0.45c-1.8-1.66-3.7-3.11-5.71-4.37
									c-3.31-1.03-6.57-2.71-8.57-3.67c-0.19-0.09-0.35-0.2-0.5-0.31c-1.1-0.34-2.2-0.65-3.31-0.92
									c-1.54-0.31-3.11-0.54-4.71-0.66c-4.05-0.31-8.2-0.52-12.26-0.26c-4.74,0.31-8.63,2.05-13.09,3.2
									c-0.15,0.12-0.27,0.27-0.4,0.41c-3.52,4.01-4.9,8.71-4.36,13.98c0.07,0.66-0.09,0.99-0.68,1.26c-1.98,0.9-3.98,1.76-6,2.56
									c-2.53,1.01-5.04,2.06-7.37,3.49c-1.43,0.88-2.58,2-3.11,3.65c-0.32,1,0.12,1.62,1.17,1.59c0.78-0.02,1.56-0.2,2.35-0.24
									c0.93-0.04,1.83-0.44,2.8-0.02c3.86,1.64,7.77,3.13,11.93,3.83c0.5,0.08,0.59,0.31,0.62,0.75c0.09,1.37-0.24,2.63-0.77,3.88
									c-0.95,2.21-2.43,4.06-3.89,5.92c-3.48,4.44-6.91,8.91-9.5,13.94c-0.6,1.17-1.44,1.82-2.6,2.27
									c-3.75,1.46-7.61,1.98-11.6,1.59c-0.4-0.04-0.55-0.25-0.68-0.58c-0.53-1.27-1.42-2.22-2.74-2.63
									c-0.66-0.21-0.89-0.54-0.98-1.19c-0.42-3.12-0.88-6.24-1.34-9.36c-0.7-4.78-1.41-9.57-2.12-14.35
									c-0.03-0.21-0.08-0.39,0.07-0.61c0.63-0.93,1.09-1.99,0.75-3.12c-0.35-1.13-1.11-1.74-2.28-1.89
									c-0.63-0.08-1.26-0.03-1.89,0.02c-0.82,0.06-1.65,0.13-2.44,0.36c-0.79,0.23-1.55,0.64-2.06,1.28
									c-1.07,1.35-0.51,3.32,0.88,4.19c0.27,0.17,0.33,0.39,0.37,0.67c0.65,3.72,1.13,7.46,1.68,11.2
									c0.66,4.54,1.36,9.08,2.08,13.61c0.11,0.69-0.08,1.05-0.64,1.45c-2.74,1.95-4.17,4.63-4.1,8c0.08,3.76,1.71,6.93,4.07,9.75
									c0.87,1.04,1.81,2.09,3.18,2.45c0.66,0.17,0.8,0.56,0.88,1.09c0.39,2.74,0.76,5.49,1.15,8.23
									c0.88,6.08,1.77,12.15,2.67,18.22c0.95,6.4,1.93,12.79,2.88,19.18c0.87,5.83,1.73,11.66,2.58,17.5
									c0.15,1.02,0.26,1.95-0.41,3c-1.21,1.89,0.24,4.16,2.49,4.16c1.45,0.01,2.86-0.32,4.27-0.61c1.18-0.24,1.92-0.95,2.11-2.1
									c0.21-1.2-0.11-2.32-1.19-3.01c-0.49-0.32-0.64-0.71-0.71-1.19c-0.88-5.91-1.77-11.82-2.62-17.74
									c-1.01-6.99-1.99-13.98-3-20.97c-0.98-6.8-1.99-13.6-3-20.4c-0.08-0.51,0.06-0.58,0.5-0.45c1.22,0.36,2.45,0.73,3.68,1.05
									c0.46,0.12,0.53,0.32,0.47,0.75c-0.36,2.37-0.61,4.75-0.7,7.14c-0.17,4.6-0.15,9.19,0.42,13.77
									c0.66,5.27,1.9,10.36,3.92,15.28c0.77,1.89,1.8,3.65,2.52,5.57c2.31,6.23,5.79,11.57,11.73,14.97
									c0.21,0.12,0.4,0.25,0.47,0.52c0.41,1.6,0.05,2.38-1.49,2.96c-3.41,1.28-6.95,2.18-10.34,3.55
									c-3.41,1.38-6.72,2.96-9.8,5.01c-0.48,0.32-0.88,0.71-0.7,1.34c0.18,0.65,0.75,0.6,1.27,0.61c1.28,0.03,2.56,0.1,3.81,0.35
									c1.97,0.39,3.52,1.7,2.57,4.19c-0.2,0.51-0.26,1.02,0.21,1.43c0.47,0.41,0.97,0.24,1.45,0.01c1.25-0.6,2.54-1.11,3.89-1.44
									c3.35-0.8,6.43-0.61,8.88,2.23c0.51,0.59,1,0.54,1.69-0.11c1.73-1.64,3.67-2.98,5.66-4.28c1.48-0.96,2.92-1.99,4.32-3.08
									c2.01-1.56,3.06-3.54,2.92-6.14c-0.06-1.09-0.15-2.17-0.31-3.24c-0.08-0.53-0.01-0.93,0.68-0.88
									c0.18,0.01,0.37-0.09,0.56-0.09c0.97-0.01,1.91-0.52,2.89-0.23c2.79,0.83,5.64,1.14,8.55,0.98c0.72-0.04,1.3,0.13,1.87,0.59
									c0.71,0.58,1.53,1.04,2.38,1.41c1.43,0.62,1.52,0.98,0.67,2.35c-0.26,0.42-0.6,0.78-1,1.06c-1,0.71-2.07,1.31-3.16,1.86
									c-3.38,1.7-6.78,3.37-9.78,5.71c-0.85,0.67-1.73,1.34-2.33,2.27c-0.24,0.37-0.42,0.77-0.15,1.22c0.24,0.41,0.62,0.4,1,0.37
									c1.04-0.08,2.07,0.04,3.09,0.19c3.1,0.47,3.48,1.58,3,3.89c-0.1,0.49-0.02,0.93,0.38,1.26c0.4,0.33,0.82,0.18,1.23-0.01
									c1.61-0.73,3.23-1.43,4.97-1.82c3.94-0.9,7.51-0.45,10.43,2.66c0.61,0.65,1.27,0.56,1.94-0.24c2.41-2.9,4.56-5.97,6.08-9.44
									c0.89-2.04,1.39-4.16,1.34-6.41c-0.04-1.6-0.33-3.13-0.77-4.65c-0.16-0.55-0.01-0.69,0.52-0.61
									c1.26,0.2,2.53,0.34,3.79,0.56c3.44,0.6,6.91,0.88,10.39,0.69c0.77-0.04,1.43,0.1,2.12,0.37c2.79,1.09,5.69,1.67,8.67,1.77
									c2.61,0.08,5.22,0.1,7.82-0.29c3.33-0.5,6.56-1.33,9.55-2.91c1.79-0.94,3.47-2.06,4.62-3.8
									C209.84,209.74,209.54,208.15,207.86,206.88z M185.81,141.54c0.85,5.35-0.7,10.07-4.07,14.3
									c-3.54,4.45-8.37,6.85-13.48,8.83c-2.05,0.79-4.15,1.48-6.21,2.26c-3.31,1.27-5.55,3.55-6.47,7.03
									c-0.19,0.73-0.42,1.47-0.83,2.12c-0.62,0.99-1.54,1.27-2.61,0.78c-1.05-0.49-1.78-1.34-2.44-2.25
									c-3.31-4.58-3.39-9.43-1.07-14.43c0.99-2.14,2.41-4,4.04-5.7c1.79-1.87,3.6-3.72,5.31-5.65c2.1-2.38,2.98-5.16,2.58-8.38
									c-0.32-2.63-1.27-4.99-2.55-7.26c-0.27-0.47-0.58-0.93-1.22-0.61c-0.65,0.32-0.54,0.87-0.3,1.4
									c0.73,1.67,1.59,3.28,1.99,5.08c0.76,3.45,0.15,6.51-2.39,9.12c-2.22,2.28-4.37,4.63-6.54,6.97
									c-0.38,0.41-0.71,0.88-1.21,1.53c-0.44-2.39-0.88-4.54-1.23-6.71c-0.83-5.09-1.64-10.19-2.41-15.29
									c-0.25-1.64-0.35-3.3-0.56-4.94c-0.05-0.44,0.06-0.65,0.5-0.72c3.91-0.64,7.48-2.28,11.09-3.77
									c4.2-1.73,8.53-2.96,13.04-3.44c2.48-0.26,4.99-0.39,7.46,0.26c0.9,0.23,1.59,0.66,2.09,1.43
									C181.89,129.07,184.76,134.95,185.81,141.54z M172.73,108.43c2.2,0.72,3.47,2.38,4.46,4.3c1.04,2,1.54,4.18,1.79,6.41
									c0.07,0.61,0.3,1.22,0.1,1.91c-2.57-1.4-5.24-1.5-8-1.4c-6.79,0.25-13.03,2.51-19.21,5.06c-2.64,1.09-5.3,2.13-8.18,2.43
									c-0.59,0.06-1.14,0.03-1.69-0.12c-1.5-0.39-2.08-1.88-1.3-3.32c0.51-0.96,1.33-1.67,2.14-2.34
									c6.63-5.46,13.82-9.95,22.04-12.61C167.44,107.93,170.07,107.55,172.73,108.43z M122.27,80.57c0.44-1.51,0.9-3.03,1.05-4.6
									c0.16-1.7,0.09-3.38-0.9-4.86c-0.28-0.42,0.05-0.58,0.23-0.82c1.65-2.15,3.95-2.99,6.53-3.43
									c4.57-0.79,9.14-0.83,13.73-0.32c6.95,0.77,13.62,2.5,19.87,5.7c1.48,0.76,2.9,1.62,4.17,2.7c0.56,0.47,0.95,1.03,1.25,1.69
									c1.37,3.07,1.97,6.32,2.14,9.66c0.23,4.3-0.13,8.59-0.25,12.89c-0.05,1.96,0.09,3.91,0.36,5.86
									c0.06,0.46,0.08,0.8-0.55,0.81c-3.46,0.07-6.7,1.07-9.84,2.42c-6.29,2.69-12.06,6.28-17.39,10.55
									c-0.39,0.31-0.77,0.63-1.15,0.96c-2.12-3.68-1.01-8.17,1.45-11.47c2.77-3.71,6.97-5.74,10.23-8.92
									c4.82-4.7,6.52-11.87,4.8-18.26c-0.61-2.47-1.73-4.81-3.46-6.99c-2.35-2.95-5.41-4.61-9.16-5.1
									c-2.59-0.34-5.1-0.05-7.57,0.7c-4,1.2-6.56,3.91-8.01,7.76c-0.77,2.03-1.11,4.14-1.33,6.4c-0.74-0.52-1.37-0.98-2.02-1.41
									c-1.11-0.74-2.31-1.23-3.67-1.15C122.13,81.34,122.12,81.06,122.27,80.57z M120.09,74.48c0.18-0.57,0.43-1.12,0.74-1.63
									c0.13-0.21,0.3-0.42,0.59-0.35c0.25,0.06,0.3,0.31,0.34,0.52c0.19,0.93,0.31,1.87,0.16,2.98c-0.53-0.56-0.96-1.01-1.64-1.08
									C120.01,74.88,120.02,74.68,120.09,74.48z M120.53,76.21c1.29,0,1.29,2,0,2C119.24,78.21,119.24,76.21,120.53,76.21z
									 M102.8,93.04c1.07-1.13,2.18-1.81,3.36-2.36c4.87-2.29,9.83-4.4,14.57-6.95c2.14-1.15,3.95-0.66,5.67,0.84
									c1.74,1.52,3.32,3.22,5.32,4.43c0.51,0.31,0.13,0.46-0.12,0.61c-2.23,1.37-4.64,2.25-7.23,2.62
									c-3.95,0.57-7.93,0.32-11.89,0.33C109.32,92.57,106.15,92.67,102.8,93.04z M111.26,94.78c-0.65-0.26-1.29-0.55-1.94-0.83
									l0.05-0.15c2.75,0.09,5.49,0.21,8.24,0.27c4.27,0.08,8.48-0.24,12.46-1.99c1.05-0.46,2.05-1.01,2.95-1.73
									c0.46-0.37,0.69-0.2,0.74,0.33c0.06,0.6-0.18,1.12-0.53,1.59c-1.78,2.35-4.23,3.61-7.05,4.23
									C121,97.64,116.07,96.69,111.26,94.78z M77.24,97.63c-0.76,0.06-1.08-0.45-1.16-1.1c-0.08-0.65,0.44-0.81,0.94-0.89
									c1.12-0.19,2.25-0.35,3.37-0.53c0.53,0,0.93,0.17,1.05,0.72c0.12,0.58-0.07,1.03-0.68,1.2
									C79.61,97.35,78.43,97.54,77.24,97.63z M79.62,111.12c-0.56-3.7-1.13-7.4-1.74-11.1c-0.09-0.57,0.03-0.82,0.59-0.89
									c0.48-0.06,0.96-0.15,1.45-0.22c0.51-0.08,0.66,0.24,0.72,0.67c0.48,3.19,0.99,6.38,1.46,9.58
									c0.67,4.59,1.31,9.19,1.97,13.78c0.02,0.13,0.02,0.27,0.03,0.41c0,0.16,0.09,0.37-0.1,0.44c-0.71,0.26-1.43,0.51-2.16,0.71
									c-0.26,0.07-0.23-0.24-0.25-0.41C80.92,119.76,80.28,115.44,79.62,111.12z M83.02,137.63c-0.89,1.86-1.18,3.77-0.64,5.78
									c0.06,0.23,0.06,0.48,0.1,0.84c-0.98-0.4-1.54-1.08-2.07-1.75c-2.11-2.63-3.58-5.51-3.45-9c0.09-2.28,1-4.16,2.87-5.5
									c1.66-1.2,3.42-2.26,5.56-2.3c1.96-0.04,3.14,1.68,2.43,3.51c-0.5,1.27-1.27,2.4-1.99,3.55
									C84.84,134.35,83.84,135.94,83.02,137.63z M98.92,214.38c0.11,0.49-0.07,0.85-0.59,0.99c-1.15,0.32-2.35,0.4-3.45,0.58
									c-0.72,0.01-1.24-0.23-1.33-0.9c-0.09-0.7,0.45-0.85,1.04-0.98c1.12-0.24,2.26-0.24,3.38-0.41
									C98.48,213.59,98.81,213.91,98.92,214.38z M92.59,180.35c1.19,8.17,2.4,16.34,3.59,24.51c0.31,2.1,0.61,4.19,0.93,6.28
									c0.11,0.7-0.16,1.01-0.86,1.06c-1.71,0.13-1.71,0.09-1.95-1.6c-0.59-4.11-1.22-8.22-1.84-12.33
									c-0.71-4.75-1.49-9.5-2.11-14.26c-0.52-4.04-1.21-8.06-1.8-12.09c-0.49-3.36-0.94-6.72-1.43-10.08
									c-0.56-3.82-1.14-7.63-1.71-11.44c-0.41-2.71-0.78-5.43-1.22-8.14c-0.37-2.27,0.75-4.03,1.93-6
									c1.08,7.62,2.18,15.01,3.31,22.39C90.54,165.89,91.54,173.12,92.59,180.35z M94.3,150.14c-1.25-0.38-2.48-0.8-3.74-1.17
									c-0.54-0.16-0.76-0.44-0.84-1.02c-0.53-3.96-1.12-7.91-1.69-11.86c-0.07-0.51-0.16-1.02-0.24-1.53
									c-0.09-0.59,0-1.12,0.35-1.62c0.72-1.06,1.38-2.16,1.72-3.41c0.14-0.5,0.45-0.44,0.81-0.42c3.05,0.12,6.09,0.03,9.06-0.8
									c0.81-0.23,1.61-0.49,2.59-0.79c-0.95,2.14-1.84,4.15-2.63,6.2c-1.95,5.07-3.19,10.33-4.18,15.65
									C95.33,150.44,95.34,150.46,94.3,150.14z M100.23,188.08c-1.96-4.84-3.11-9.89-3.65-15.09c-0.49-4.73-0.49-9.45-0.15-14.17
									c0.66-9.01,2.53-17.74,5.91-26.14c2.29-5.71,5.52-10.97,9-16.01c1.78-2.59,3.64-5.13,5.47-7.69
									c1.76-2.45,3.44-4.87,3.9-7.93c0.02-0.11,0.04-0.21,0.06-0.32c0.11-0.58-0.26-1.37,0.2-1.71c0.54-0.4,1.36-0.22,2.06-0.28
									c2.65-0.2,5.23-0.69,7.58-2.01c1.7-0.96,3.22-2.14,4.23-3.86c0.39-0.66,0.65-1.36,0.68-2.15c0.04-1.02-0.34-1.79-1.18-2.36
									c-1.12-0.76-2.35-1.36-3.41-2.24c-0.59-0.49-0.88-1.01-0.88-1.8c0-2.44,0.52-4.75,1.49-6.97c1.63-3.72,4.61-5.66,8.49-6.39
									c1.01-0.19,2.03-0.39,3.02-0.34c5.87-0.01,9.91,2.84,12.21,8.01c0.03,0.07,0.05,0.14,0.08,0.2
									c-0.06,0.22-0.07,0.45,0.04,0.7c1.59,3.65,1.69,7.83,0.52,11.61c-2.68,8.66-12.63,10.89-16.3,18.86
									c-1.63,3.54-1.74,7.82,0.44,11.15c-0.26,0.3-0.51,0.61-0.74,0.94c-1.3,1.88-1.31,3.98-0.02,5.52
									c0.6,0.72,1.37,1.16,2.27,1.36c0.59,0.13,0.78,0.47,0.84,1.02c0.66,6.05,1.65,12.05,2.71,18.05
									c0.59,3.34,1.23,6.68,1.98,9.99c0.1,0.44-0.06,0.79-0.23,1.17c-1.23,2.56-1.97,5.24-1.84,8.11
									c0.18,4.01,1.69,7.44,4.59,10.23c0.29,0.28,0.62,0.57,0.99,0.71c0.88,0.35,1.25,0.98,1.48,1.86
									c0.27,1.05,0.69,2.06,1.12,3.06c0.25,0.59,0.27,1.13,0.12,1.73c-2.42,9.61-10.63,18.53-21.76,20.04
									c-8.16,1.11-15.82-0.37-22.66-5.16C104.71,196.86,102.1,192.72,100.23,188.08z M125.69,218.05
									c-0.16,1.61-1.16,2.65-2.31,3.6c-2.15,1.76-4.56,3.16-6.79,4.81c-0.79,0.58-1.56,1.18-2.27,1.87
									c-0.22,0.21-0.37,0.32-0.66,0.05c-3.08-2.87-6.69-2.86-10.47-1.88c-0.39,0.1-0.77,0.24-1.28,0.4
									c1.2-1.61,2.61-2.79,4.16-3.8c2.03-1.32,4.1-2.58,6.15-3.86c0.16-0.1,0.33-0.2,0.48-0.31c0.14-0.1,0.24-0.24,0.16-0.42
									c-0.09-0.22-0.28-0.24-0.48-0.19c-0.16,0.04-0.31,0.1-0.46,0.16c-3.89,1.67-7.68,3.5-10.62,6.68
									c-0.16,0.17-0.37,0.62-0.65,0.09c-1.09-2.1-2.96-2.93-5.17-3.23c-0.05-0.01-0.09-0.04-0.21-0.1
									c1.56-0.97,3.19-1.68,4.81-2.41c3.71-1.66,7.6-2.78,11.44-4.08c0.67-0.23,1.32-0.51,1.97-0.79
									c1.21-0.52,1.79-1.47,1.74-2.77c-0.02-0.66,0.09-0.88,0.81-0.61c2.82,1.05,5.71,1.73,8.75,1.72c0.28,0,0.57-0.01,0.62,0.37
									C125.62,214.9,125.85,216.46,125.69,218.05z M158.1,227.74c-1.19,2.21-2.61,4.27-4.09,6.29c-0.34,0.46-0.55,0.48-1,0.08
									c-1.91-1.66-4.16-2.53-6.7-2.62c-2.67-0.09-5.25,0.31-7.7,1.43c-0.07,0.03-0.15,0.02-0.3,0.03c0.54-1.1,1.27-2,2.01-2.9
									c1.49-1.8,2.91-3.67,4.68-5.22c0.21-0.18,0.58-0.41,0.34-0.72c-0.27-0.34-0.59-0.05-0.85,0.14
									c-2.37,1.64-4.41,3.63-6.21,5.86c-0.19,0.23-0.4,0.45-0.57,0.69c-0.24,0.35-0.39,0.26-0.58-0.05
									c-0.83-1.38-2.15-1.93-3.65-2.18c-0.53-0.09-1.08-0.14-1.71-0.22c0.29-0.38,0.64-0.61,0.98-0.83
									c2.86-1.9,5.86-3.54,8.93-5.08c1.46-0.73,2.9-1.49,4.08-2.66c0.69-0.69,1.2-1.48,1.38-2.45c0.1-0.55,0.29-0.75,0.92-0.62
									c3.56,0.76,7.08,0.58,10.52-0.61c0.52-0.18,0.69-0.01,0.86,0.48C160.75,220.52,160,224.2,158.1,227.74z M155.23,214.92
									c-4.37,0.75-8.57,0.12-12.31-2.47c-0.81-0.56-1.56-1.18-2.16-1.98c-0.19-0.25-0.33-0.62-0.74-0.49
									c-0.42,0.13-0.62,0.5-0.55,0.9c0.12,0.66-0.22,0.66-0.72,0.68c-2.93,0.16-5.71-0.64-8.52-1.23c-0.8-0.17-1.6-0.3-2.43-0.25
									c-0.56,0.03-0.66,0.28-0.35,0.79c-8.68,0.93-17.91-3.04-22.86-12.73c1.1,1.1,2.27,2.12,3.54,3.03
									c4.15,2.93,8.75,4.63,13.79,5.3c4.7,0.62,9.34,0.38,13.89-0.93c5.92-1.72,10.47-5.39,14.15-10.26
									c2.03-2.68,3.5-5.61,4.36-9.05c0.79,1.73,1.49,3.28,2.21,4.82c2.58,5.48,5.5,10.76,9.01,15.7c0.48,0.68,0.45,1.15,0.01,1.8
									C163.06,212.21,159.48,214.2,155.23,214.92z M163.57,213.47c1.47-1.18,2.68-2.49,3.6-4.04c0.25-0.42,0.44-0.14,0.61,0.06
									c1.66,1.85,3.51,3.49,5.75,5.01C170.08,214.51,166.89,213.93,163.57,213.47z M207.2,210.12c-0.71,1.25-1.8,2.1-2.99,2.84
									c-3.04,1.87-6.41,2.8-9.9,3.34c-2.6,0.4-5.21,0.46-7.81,0.3c-6.08-0.39-11.49-2.46-15.94-6.77
									c-3.87-3.74-6.63-8.27-9.24-12.9c-3.07-5.44-5.42-11.21-7.71-17.01c-0.24-0.62-0.15-0.82,0.52-0.98
									c1.15-0.28,1.88-1.15,2.42-2.16c0.38-0.7,0.6-1.46,0.8-2.22c0.7-2.74,2.4-4.56,4.98-5.65c2.68-1.14,5.52-1.86,8.19-3.02
									c3.4-1.48,6.73-3.09,9.6-5.49c0.05-0.05,0.14-0.05,0.27-0.09c0.5,2.85,1.04,5.67,1.69,8.47
									c2.25,9.62,5.92,18.67,11.08,27.08c2.02,3.29,4.3,6.43,7.31,8.94c1.39,1.16,2.98,2,4.61,2.77c0.64,0.3,1.27,0.62,1.83,1.06
									C207.43,209.02,207.55,209.51,207.2,210.12z"/>
								<path class="st11" d="M194.4,208.43c-0.21-0.05-0.42-0.11-0.63-0.16c-2.07-0.49-4.07-1.19-5.96-2.18
									c-5.17-2.73-9.17-6.78-12.54-11.47c-3.6-5.01-5.99-10.66-8.06-16.44c-0.1-0.28-0.22-0.56-0.34-0.83
									c-0.07-0.16-0.2-0.26-0.39-0.21c-0.2,0.06-0.23,0.24-0.2,0.4c0.05,0.32,0.12,0.64,0.21,0.95
									c2.26,7.26,5.39,14.05,10.27,19.97c3.56,4.32,7.81,7.62,13.08,9.56c1.43,0.52,2.89,0.94,4.3,1.19
									c0.52,0,0.74-0.12,0.75-0.34C194.9,208.53,194.65,208.49,194.4,208.43z"/>
								<path class="st11" d="M138.02,83.44c0.91,1.27,2.59,1.21,3.8,0.4c1.13-0.76,1.86-1.99,2.14-3.31
									c0.27-1.26,0.19-2.67-0.48-3.8c-0.72-1.21-2.12-1.72-3.46-1.23c-1.57,0.58-2.42,2.19-2.74,3.75
									c-0.25,1.21-0.15,2.52,0.42,3.6C137.79,83.06,137.89,83.26,138.02,83.44z M141.75,77.33c1.29,0,1.29,2,0,2
									C140.46,79.33,140.47,77.33,141.75,77.33z"/>
								<path class="st11" d="M141.75,79.33c1.29,0,1.29-2,0-2C140.47,77.33,140.46,79.33,141.75,79.33z"/>
								<path class="st11" d="M120.53,78.21c1.29,0,1.29-2,0-2C119.24,76.21,119.24,78.21,120.53,78.21z"/>
							</g>
							<path class="st3" d="M158.64,122.3c-0.9,0.49-1.66,1.14-2.27,1.91c-0.21-0.05-0.44-0.03-0.68,0.11
								c-2.89,1.73-6.01,2.97-9.31,3.64c-1.25,0.25-2.78,0.25-2.85,1.87c-0.07,1.59,0.39,3.33,0.61,4.9c1,7.22,2.35,14.39,3.7,21.56
								c0.18,0.93,1.37,0.86,1.83,0.24c3.35-4.58,10.23-7.9,9.5-14.52c-0.37-3.38-2.13-6.46-2.63-9.83
								c-0.46-3.07,0.18-6.56,3.12-8.16C160.78,123.41,159.77,121.68,158.64,122.3z"/>
							<path class="st7" d="M134.69,90.61c-0.12-0.33-0.36-0.52-0.63-0.61c-0.28-0.37-0.8-0.51-1.28-0.27
								c-0.06,0.03-0.12,0.05-0.18,0.08c0.72-0.73,0.01-2.05-0.87-1.73c-0.08-0.53-0.4-1.01-1.06-1.35c-0.72-0.36-1.43,0.1-1.5,0.86
								c-0.25,2.54-3.38,2.98-5.38,3.09c-2.47,0.14-4.94,0.15-7.41,0.22c-4.81,0.12-9.62,0.35-14.34,1.29
								c-1.26,0.25-0.73,2.18,0.53,1.93c1.81-0.36,3.63-0.6,5.46-0.77c-0.35,0.58-0.09,1.54,0.8,1.57
								c7.86,0.24,15.99,0.35,23.33-2.71c-0.07,0.31-0.17,0.62-0.31,0.93c-0.3,0.64,0.1,1.23,0.61,1.43
								c-0.73,1.25-2.06,2.25-3.41,2.79c-2.69,1.08-6.19,1.61-8.87,0.26c-1.15-0.58-2.16,1.15-1.01,1.73
								c3.39,1.71,7.68,1.17,11.06-0.33C133.34,97.63,136.02,94.17,134.69,90.61z M112.84,93.02c2.29-0.1,4.59-0.14,6.89-0.2
								c0.38-0.01,0.78-0.02,1.2-0.02C118.24,93.03,115.53,93.06,112.84,93.02z"/>
							<path class="st7" d="M194.6,206.95c-2.18-0.84-4.27-1.91-6.26-3.14c-1.03-0.77-2.02-1.61-2.96-2.5
								c-2.79-2.65-5.36-5.59-7.76-8.59c-1.42-1.77-2.75-3.64-3.93-5.6c-2.03-4.57-3.14-9.52-3.28-14.53c1.63-1.12,3.33-2.14,5-3.17
								c3.2-1.97,6.96-4.6,5.87-8.94c-0.28-1.1-1.46-1.3-2.3-0.79c0.34-0.29,0.68-0.57,1.01-0.89c2.77-2.75,4.62-6.2,5.53-9.88
								c0.6-1.34,0.75-2.74,0.63-4.15c0.19-3.26-0.32-6.57-1.54-9.66c-0.64-1.6-1.43-3.11-2.34-4.53c-0.01-0.02-0.01-0.03-0.02-0.05
								c-0.53-1.61-1.05-3.24-1.66-4.83c-0.49-1.26-1.13-2.43-2.3-3.15l0.02-0.22c0.03-0.37-0.19-0.81-0.44-1.06
								c-0.09-0.09-0.2-0.16-0.31-0.23c0.4,0.11,0.79,0.23,1.18,0.37c1.11,0.4,2.13-0.81,1.85-1.85c-1.03-3.8-2.86-8.1-5.95-10.69
								c-1.44-1.21-3.13-1.95-5.03-1.89c-2.16,0.07-4.38,0.63-6.51,0.97c-0.41,0.07-0.69,0.32-0.86,0.64
								c-0.25-0.04-0.5-0.07-0.75-0.1c1.67-0.68,3.38-1.24,5.15-1.65c0.84-0.19,1.79-0.24,2.53-0.69c0.94-0.57,1.11-1.56,1.23-2.57
								c0.29-2.41,0.54-4.82,0.7-7.24c0.28-4.17,0.22-8.4-0.65-12.5c0.83-0.08,1.62-0.79,1.35-1.85c-0.01-0.05-0.03-0.11-0.05-0.16
								c0.01-0.1,0.02-0.19,0-0.3c-0.24-1.23-0.64-2.36-1.17-3.4c-0.5-1.34-1.08-2.65-1.72-3.94c-0.82-0.7-1.66-1.36-2.53-1.98
								c-0.02,0.11-0.03,0.22-0.07,0.33c-0.07,0.24-0.04,0.46,0.06,0.65c-0.27-0.21-0.56-0.42-0.84-0.61
								c0.25-0.01,0.49-0.1,0.65-0.28c0.04-0.05,0.08-0.1,0.12-0.15c-0.66-0.47-1.32-0.93-2-1.35c-1.29-0.4-2.57-0.9-3.78-1.42
								c-0.14,0.11-0.29,0.22-0.44,0.31c-0.88-0.36-1.77-0.69-2.64-0.99c-4.94-1.68-10.11-3.16-15.34-3.77
								c-2.39-0.09-4.78-0.11-7.15,0.04c-4.27,0.28-7.84,1.72-11.77,2.85c-0.16,0.08-0.32,0.16-0.48,0.24
								c-1.13,0.61-0.13,2.34,1.01,1.73c8.13-4.38,17.67-3.54,26.29-1.26c3.39,0.9,7.47,1.96,11.07,3.68
								c0.03,0.13,0.08,0.26,0.16,0.39c3.87,6.77,4.92,14.91,2.16,22.29c-1.27,3.4-3.38,6.47-6.07,8.91
								c-2.5,2.27-5.42,4.01-8.19,5.92c-3.16,2.17-6.15,4.56-8.29,7.79c-0.97,1.47,1.09,2.84,2.27,1.86
								c0.39,0.18,0.85,0.18,1.27-0.14c2.97-2.24,6.01-4.53,9.19-6.55c4.62-1.9,10.45-2.09,13.93,2.03
								c0.71,0.85,1.24,1.85,1.51,2.92c0.28,1.13,0.37,2.17,1.54,2.74c1.11,0.54,2.5,0.13,3.68,0.15c0.87,0.01,1.72,0.13,2.56,0.31
								c-0.36,0.03-0.73,0.16-0.98,0.43l-0.23,0.3c-0.01,0.02-0.02,0.04-0.03,0.06c-0.62-0.1-1.24-0.18-1.83-0.26
								c-1.76-0.24-3.52-0.42-5.29-0.52c-1.45-0.09-2.1,2.16-0.76,2.8c7.55,3.6,12.36,11.84,11.87,20.19
								c-0.14,2.29-0.68,4.67-1.82,6.68c-1.17,2.06-3.02,3.42-5.08,4.52c-4.33,2.3-8.8,3.97-12.67,7.07
								c-4.27,3.43-7.37,8.22-7.89,13.74c-0.08,0.88,0.5,1.35,1.18,1.42c-0.11,0.21-0.2,0.42-0.29,0.63
								c-0.02-0.04-0.03-0.07-0.05-0.11c-0.73-1.38-2.73-0.66-2.8,0.76c-0.4,8.95-7.64,15.75-15.81,18.28
								c-8.68,2.68-18.95,2.18-26.02-4c-3.58-3.13-6.26-7.09-8.37-11.32c-0.86-1.73-3.45-0.21-2.59,1.51
								c0.63,1.26,1.32,2.49,2.07,3.7c-0.45,0.44-0.66,1.15-0.35,1.85c4.19,9.51,13.98,15.61,24.08,16.83
								c10.25,1.24,20.6-2.93,26.78-11.27c2.3-3.11,4.2-7.1,4.25-11.04c0.42,0.76,0.82,1.53,1.19,2.32c0,0,0,0,0,0
								c-0.79-0.03-1.6,0.48-1.57,1.46c0.19,6.17,3.23,12.18,2.34,18.38c-0.34,2.36-1.27,4.78-3.2,6.29
								c-2.26,1.77-5.44,1.75-7.83,0.29c-1.65-1.01-3.16,1.58-1.51,2.59c2.32,1.42,5.14,1.8,7.74,1.14
								c0.02,0.25,0.12,0.48,0.25,0.69c-1.15,0.05-2.3,0.13-3.44,0.08c-1.93-0.09-1.93,2.91,0,3c2.02,0.09,4.11-0.38,6.11-0.01
								c1.72,0.32,2.73,1.18,3.24,2.84c0.1,0.33,0.23,0.69,0.32,1.07c-0.14,0.7-0.33,1.38-0.58,2.05c-0.16,0.43-0.34,0.86-0.53,1.28
								c-0.2,0.29-0.4,0.57-0.58,0.84c-1.23,1.94-2.47,3.88-3.7,5.82c-0.44,0.68-0.14,1.65,0.54,2.05c0.76,0.45,1.57,0.12,2.05-0.54
								c1.54-2.1,3.05-4.25,4.18-6.57l0.19-0.29c0.69-1.09,1.43-2.13,1.52-3.46c0.03-0.42-0.01-0.84-0.08-1.27
								c0.04-0.28,0.11-0.54,0.13-0.83c0.22-2.14-0.05-4.64-1.16-6.53c-0.19-0.33-0.46-0.6-0.77-0.79c1.1-0.52,2.16-1.13,3.15-1.83
								c2.04-1.43,6.52-4.49,4.5-7.37c-1.56-2.22-3.15-4.34-4.56-6.63c1.1,0.14,2.32-0.99,1.55-2.2c-4.19-6.6-3.13-15.23,2.34-20.74
								c0.1-0.1,0.2-0.19,0.3-0.29c0.74,4.56,2.59,8.85,5.01,12.82c2.86,6.15,7.22,11.6,12.8,15.74c0.89,0.66,1.81,1.26,2.74,1.84
								c2.13,1.54,4.45,2.79,7.03,3.48C195.7,210.35,196.37,207.63,194.6,206.95z"/>
							<path class="st7" d="M126.46,213.37c-0.45-1.66-2.07-1.42-3.39-1.25c-0.44,0.06-0.89,0.11-1.34,0.16
								c-0.77-0.32-1.57-0.51-2.4-0.65c-0.9-0.16-2.05-0.25-2.79-0.84c-0.63-0.5-1.5-0.62-2.12,0c-0.37,0.37-0.53,1.04-0.36,1.57
								c-0.17,0.58-0.03,1.26,0.63,1.68c1.46,0.95,3.17,1.32,4.9,1.34c0.52,0.01,1.04-0.02,1.57-0.06c0.14,0.1,0.27,0.22,0.37,0.36
								c0.39,0.54,0.26,1.32,0.02,1.9c-0.34,0.83-0.99,1.5-1.61,2.13c-0.76,0.77-1.53,1.53-2.3,2.3c-1.61,1.61-3.22,3.22-4.83,4.84
								c-1.17,1.17,0.39,3.36,1.82,2.36c2.49-1.75,4.98-3.5,7.47-5.25c1.04-0.73,2.2-1.42,3.05-2.39c0.98-1.1,1.33-2.39,1.37-3.85
								c0.02-0.74,0.02-1.49,0.02-2.23C126.52,214.82,126.64,214.03,126.46,213.37z"/>
							<path class="st7" d="M90.07,153.78c-0.44-2.47-0.89-4.93-1.35-7.39c0.36,0.77,0.81,1.51,1.37,2.18
								c0.94,1.13,2.22,2.1,3.62,2.57c1.75,0.59,3.67-0.56,3.24-2.57c-0.37-1.75-2.23-2.03-3.14-3.36c-0.96-1.4-1.53-3.18-2.1-4.77
								c-1.05-2.95-1.82-6.75,0.47-9.34c1.28-1.44-0.84-3.57-2.12-2.12c-2.69,3.04-2.74,6.96-1.76,10.71
								c-0.08,0.12-0.15,0.26-0.19,0.43c-0.16,0.59-0.23,1.19-0.27,1.79c-0.2-1.01-0.39-2.02-0.59-3.03
								c-0.01-0.12-0.03-0.23-0.07-0.35c-0.08-0.37-0.15-0.75-0.22-1.13c-0.36-1.78-2.79-1.17-2.95,0.4
								c-0.25,2.45-0.49,4.9-0.74,7.35c-0.14,1.41,1.45,1.77,2.37,1.11c3.08,16.21,5.56,32.53,7.39,48.93
								c0.61,5.44,1.15,10.89,1.62,16.35c0.17,1.91,3.17,1.93,3,0C95.98,192.18,93.45,172.9,90.07,153.78z"/>
							<path class="st7" d="M88.36,127.8c-0.13-0.26-0.31-0.49-0.48-0.73c-0.04-0.06-0.11-0.21-0.18-0.28
								c0.22-1.7-2.44-2.36-2.93-0.57c-0.21,0.75-0.06,1.47,0.35,2.13c0.16,0.25,0.37,0.46,0.51,0.72c0,0,0.02,0.03,0.04,0.06
								c-0.04,0.07-0.09,0.23-0.13,0.3c-0.75,1.47-1.89,2.76-2.88,4.08c-2.02,2.69-3.65,5.85-2.87,9.3c0.42,1.88,3.31,1.09,2.89-0.8
								c-0.66-2.96,1.57-5.69,3.25-7.87c0.92-1.2,1.95-2.44,2.52-3.86C88.77,129.45,88.75,128.6,88.36,127.8z"/>
							<path class="st7" d="M84.86,123.48c-2.02-7.07-1.3-14.65-3.6-21.64c0.19-0.05,0.36-0.14,0.51-0.27
								c0.16-0.11,0.29-0.25,0.39-0.42c0.11-0.17,0.17-0.36,0.18-0.56c0.04-0.2,0.04-0.4-0.03-0.6c-0.12-0.36-0.34-0.71-0.69-0.9
								c-0.34-0.18-0.78-0.29-1.16-0.15c-0.2,0.07-0.42,0.12-0.63,0.15c-0.2,0.01-0.41,0.01-0.61-0.01
								c-0.16-0.04-0.33-0.04-0.49-0.01c-0.2,0.01-0.39,0.07-0.56,0.18c-0.17,0.09-0.31,0.22-0.42,0.39
								c-0.13,0.14-0.22,0.31-0.27,0.51c-0.09,0.38-0.07,0.82,0.15,1.16c0.11,0.17,0.26,0.34,0.43,0.47
								c2.66,7.22,1.8,15.13,3.9,22.49C82.5,126.13,85.39,125.34,84.86,123.48z"/>
						</g>
						<path class="st1" d="M126.61,83.54c-3.1-2.23-6.66,0.65-9.4,2.05c-3.18,1.62-6.58,2.78-9.81,4.3
							c-1.82,0.86-3.58,1.85-5.19,3.07c-0.51,0.38-0.01,1.25,0.5,0.86c3.44-2.61,7.53-4.08,11.47-5.75c1.98-0.84,3.9-1.78,5.76-2.86
							c1.82-1.06,4.19-2.23,6.16-0.81C126.63,84.78,127.13,83.91,126.61,83.54z"/>
						<path class="st1" d="M150.89,147.13c-0.19-1.11-0.37-2.21-0.56-3.32c-0.37-2.17-0.73-4.34-1.1-6.52
							c-0.37-2.17-0.73-4.34-1.1-6.52c-0.1-0.58-0.35-1.42-1.09-1.41c-0.82,0.01-0.71,0.96-0.62,1.63
							c-0.16,0.11-0.27,0.29-0.24,0.53c0.47,3.37,1.03,6.72,1.67,10.06c0.32,1.63,0.65,3.26,1.01,4.88c0.3,1.37,0.55,2.82,1.57,3.86
							c0.29,0.3,0.87,0.08,0.85-0.35C151.26,149.02,151.05,148.08,150.89,147.13z"/>
						<path class="st1" d="M162.85,140.89c-0.11,2.74-0.79,5.42-2.07,7.85c-1.3,2.47-3.18,4.53-5.04,6.6
							c-3.25,3.6-6.53,7.64-6.51,12.75c0,1.29,2,1.29,2,0c-0.02-5.51,4.35-9.46,7.69-13.32c3.47-4,5.7-8.53,5.93-13.88
							C164.9,139.6,162.9,139.6,162.85,140.89z"/>
						<path class="st1" d="M163.84,136.14c-0.25-0.6-0.5-1.21-0.75-1.81c-0.03-0.13-0.09-0.24-0.18-0.34
							c-0.07-0.11-0.16-0.19-0.28-0.26c-0.21-0.13-0.53-0.18-0.77-0.1c-0.24,0.08-0.48,0.23-0.6,0.46c-0.12,0.22-0.2,0.53-0.1,0.77
							c0.25,0.6,0.5,1.21,0.75,1.81c0.03,0.13,0.09,0.24,0.18,0.34c0.07,0.11,0.16,0.19,0.28,0.26c0.21,0.13,0.53,0.18,0.77,0.1
							c0.24-0.08,0.48-0.23,0.6-0.46C163.86,136.69,163.94,136.39,163.84,136.14z"/>
						<path class="st1" d="M85.27,124.75c-3.23,0.65-6.15,2.76-7.73,5.66c-1.76,3.23-1.75,7.13-0.19,10.43
							c0.55,1.16,2.28,0.15,1.73-1.01c-1.28-2.7-1.2-6,0.29-8.6c1.37-2.39,3.74-4.02,6.43-4.55
							C87.06,126.43,86.53,124.5,85.27,124.75z"/>
						<path class="st1" d="M144.82,217.96c-1.24,2.38-3.61,3.76-5.94,4.91c-2.57,1.27-5.25,2.44-7.23,4.59
							c-0.87,0.94,0.54,2.36,1.41,1.41c3.86-4.18,10.69-4.52,13.48-9.91C147.14,217.83,145.42,216.81,144.82,217.96z"/>
						<path class="st1" d="M146.06,224.12c-0.5-0.29-1.06-0.09-1.37,0.36c-1.95,2.83-4.27,5.38-6.87,7.63
							c-0.41,0.35-0.36,1.05,0,1.41c0.41,0.41,1,0.35,1.41,0c2.73-2.36,5.14-5.07,7.19-8.03
							C146.72,225.05,146.5,224.38,146.06,224.12z"/>
						<path class="st1" d="M112.98,218.56c-3.91,2.02-8.36,3.88-11.12,7.47c-0.33,0.43-0.42,1,0,1.41c0.34,0.34,1.08,0.43,1.41,0
							c2.67-3.45,6.95-5.21,10.72-7.15C115.13,219.7,114.12,217.97,112.98,218.56z"/>
						<path class="st1" d="M113.42,212.55c-0.6,1.25-1.85,1.84-3.07,2.35c-1.62,0.67-3.26,1.3-4.9,1.94
							c-3.39,1.34-6.77,2.69-10.16,4.03c-1.18,0.47-0.67,2.4,0.53,1.93c3.73-1.48,7.46-2.96,11.19-4.44
							c1.66-0.66,3.35-1.26,4.97-2.01c1.31-0.6,2.53-1.47,3.16-2.8C115.7,212.4,113.98,211.38,113.42,212.55z"/>
						<path class="st1" d="M177.74,205.76c-5.74-4.16-10.22-10.02-12.73-16.65c-0.45-1.19-2.39-0.68-1.93,0.53
							c2.72,7.16,7.46,13.35,13.65,17.85C177.77,208.25,178.77,206.51,177.74,205.76z"/>
						<path class="st1" d="M184.31,208.89c-0.49-0.11-0.97-0.27-1.43-0.45c-0.47-0.21-0.93-0.45-1.37-0.73
							c-0.44-0.28-1.12-0.1-1.37,0.36c-0.26,0.5-0.11,1.06,0.36,1.37c1,0.64,2.12,1.12,3.28,1.39c0.51,0.12,1.11-0.16,1.23-0.7
							C185.13,209.61,184.86,209.02,184.31,208.89z"/>
						<path class="st1" d="M184.94,194.77c-3.89-5.12-6.89-10.85-8.84-16.98c-0.39-1.22-2.32-0.7-1.93,0.53
							c2,6.29,5.05,12.21,9.04,17.46C183.98,196.79,185.72,195.79,184.94,194.77z"/>
						<path class="st1" d="M188.84,199.36c-0.03-0.08-0.07-0.16-0.1-0.24c-0.09-0.15-0.21-0.27-0.36-0.36l-0.64-0.48
							c-0.11-0.07-0.24-0.11-0.37-0.12c-0.13-0.03-0.27-0.02-0.4,0.02c-0.13,0.03-0.24,0.09-0.34,0.18
							c-0.11,0.07-0.19,0.16-0.26,0.28c-0.03,0.08-0.07,0.16-0.1,0.24c-0.05,0.18-0.05,0.35,0,0.53c0.03,0.08,0.07,0.16,0.1,0.24
							c0.09,0.15,0.21,0.27,0.36,0.36l0.64,0.48c0.11,0.07,0.24,0.11,0.37,0.12c0.13,0.03,0.27,0.02,0.4-0.02
							c0.13-0.03,0.24-0.09,0.34-0.18c0.11-0.07,0.19-0.16,0.26-0.28c0.03-0.08,0.07-0.16,0.1-0.24
							C188.89,199.71,188.89,199.53,188.84,199.36z"/>
					</g>
					<path class="st10" d="M176.85,43.02c-4.87,2.57-9.79,5.05-14.74,7.45c-1.21-5.76-2.7-11.46-4.52-17.06
						c-0.03-1.13,0-2.26,0.1-3.39c0.1-1.1-1.34-1.21-1.86-0.5c-4.3,5.81-8.71,11.54-13.22,17.18c-2.9-4.17-6.03-8.18-9.39-11.98
						c-0.09-0.1-0.19-0.16-0.29-0.22c-0.48-0.97-2.15-0.45-1.83,0.72c0.73,2.7,1.01,5.47,0.8,8.27c-0.1,1.34-0.33,2.67-0.67,3.98
						c-0.31,1.22-0.72,2.42-0.72,3.7c-0.01,1.32,0.21,2.56-0.03,3.88c-0.23,1.28-0.63,2.54-1.03,3.78c-0.35,1.1-0.75,2.22-1.42,3.18
						c-0.56,0.79-1.56,1.3-1.89,2.25c-0.24,0.7,0.02,1.46,0.71,1.78c0.94,0.43,2.48-0.19,3.42-0.34c2.75-0.43,5.54-0.64,8.32-0.66
						c5.59-0.05,11.17,0.68,16.55,2.19c5.27,1.48,10.44,3.76,14.21,7.85c0.41,0.44,1.3,0.37,1.57-0.2c0.55-1.17,0.17-2.2-0.51-3.11
						c0.11-0.15,0.19-0.33,0.18-0.56c-0.07-1.67-0.09-3.34-0.08-5.01c0.14-0.85,0.35-1.68,0.65-2.49c0.42-1.13,1.14-2.09,1.57-3.19
						c0.37-0.93,0.17-1.62-0.24-2.49c-0.54-1.14-0.09-2.28,0.27-3.43c0.39-1.22,0.85-2.42,1.39-3.59c1.06-2.28,2.37-4.43,3.91-6.41
						C178.73,43.73,177.91,42.46,176.85,43.02z"/>
					<path class="st3" d="M169.52,54.96c-0.5-0.21-0.94,0.01-1.25,0.41c0.12-0.16-0.12,0.11-0.14,0.13
						c-0.04,0.04-0.09,0.08-0.13,0.12c0.09-0.06,0.08-0.06-0.01,0.01c-0.17,0.12-0.35,0.24-0.53,0.35
						c-0.45,0.28-0.91,0.55-1.29,0.92c-0.2,0.2-0.35,0.43-0.47,0.67c-0.48,0.04-1.03,0.45-0.96,0.99c0.15,1.25,0.32,2.49,0.5,3.74
						c0.09,0.62,0.98,0.93,1.47,0.6c0.59-0.4,1.16-0.82,1.71-1.27c0.54-0.43,1.22-0.89,1.4-1.59c0.09-0.34,0.05-0.66,0.02-1
						c-0.03-0.33-0.04-0.66-0.03-0.99c0.02-0.7,0.1-1.21,0.29-1.91C170.23,55.66,169.97,55.15,169.52,54.96z"/>
					<path class="st3" d="M157.3,54.16c-0.13-0.66-0.45-1.33-0.68-1.97c-0.23-0.67-0.47-1.34-0.7-2.01l-1.5-4.28
						c-0.14-0.4-0.43-0.61-0.74-0.68c-0.35-0.4-0.93-0.54-1.36-0.02c-0.94,1.14-1.91,2.26-2.9,3.35c-0.48,0.53-0.97,1.06-1.47,1.57
						c-0.48,0.5-1.16,1.01-1.52,1.61c-0.4,0.66-0.11,1.3,0.22,1.92l1.09,2.03c0.77,1.43,1.53,2.87,2.3,4.3
						c0.32,0.6,1.11,0.61,1.57,0.2c1.1-0.96,2.2-1.91,3.29-2.87c0.53-0.46,1.06-0.93,1.6-1.39
						C157.05,55.43,157.46,54.94,157.3,54.16z"/>
					<path class="st3" d="M136.74,50.71c-0.26-0.54-0.53-1.07-0.8-1.6c-0.07-0.13-0.17-0.23-0.29-0.3
						c-0.08-0.45-0.51-0.85-0.97-0.83c-0.57,0.03-0.97,0.44-1,1c-0.02,0.38-0.05,0.68-0.1,1c-0.42,0.13-0.65,0.49-0.71,0.93
						c-0.09,0.73-0.19,1.46-0.28,2.19c-0.04,0.29,0.13,0.57,0.36,0.76c0.02,0.12,0.05,0.23,0.09,0.34c0.19,0.56,0.5,1.06,0.84,1.54
						c0.41,0.6,1.33,0.69,1.73,0c0.31-0.54,0.61-1.08,0.92-1.63c0.27-0.48,0.66-0.99,0.77-1.53
						C137.44,51.91,137.02,51.28,136.74,50.71z"/>
					<path class="st7" d="M168.73,63.66c0.48-0.32,0.96-0.65,1.44-0.97c0.48-0.33,1.02-0.63,1.45-1.01c1-0.89,0.6-2.08,0.19-3.14
						c-0.4-1.06-0.66-2.17-0.73-3.3c-0.04-0.54-0.43-1-1-1c-0.31,0-0.61,0.18-0.8,0.43c0,0-0.01,0-0.01,0c-0.59,0.03-0.94,0.44-1,1
						c-0.13,1.27-0.25,2.54-0.38,3.81c-0.02,0.15-0.03,0.3-0.04,0.45c-0.03,0.02-0.05,0.04-0.08,0.06c-0.14,0.1-0.28,0.19-0.42,0.29
						c-0.52,0.36-1.04,0.72-1.56,1.08c-0.44,0.31-0.65,0.88-0.36,1.37c0.11,0.19,0.3,0.32,0.51,0.41c-0.43,0.29-0.85,0.57-1.28,0.86
						c-0.32,0.21-0.5,0.57-0.48,0.93c-3.29-1.8-6.94-2.97-10.6-3.93c2.43-1.82,4.78-3.76,6.7-6.13c0.28-0.34,0.41-0.81,0.16-1.21
						c-1.86-2.96-3.72-5.93-5.58-8.89c-0.49-0.79-1.52-0.48-1.8,0.17c-0.03,0.01-0.06,0-0.09,0.01c-0.47,0.12-0.91,0.73-0.7,1.23
						c0.54,1.28,1.08,2.56,1.61,3.84c0.26,0.62,0.52,1.24,0.78,1.86c0.14,0.33,0.28,0.66,0.42,0.99c0.07,0.16,0.19,0.38,0.28,0.58
						c-0.16,0.12-0.36,0.23-0.48,0.31c-0.29,0.21-0.58,0.43-0.87,0.65c-0.59,0.46-1.17,0.94-1.72,1.45c-1.08,1-2.04,2.1-2.94,3.27
						c-0.19,0.24-0.17,0.56-0.06,0.85c-2.87-0.64-5.73-1.14-8.71-1.2c-1.55-0.03-3.19-0.09-4.82-0.05c0.69-0.85,1.38-1.71,2.05-2.58
						c0.4-0.52,0.8-1.04,1.19-1.57c0.34-0.46,0.76-0.92,0.88-1.49c0.13-0.64-0.23-1.18-0.56-1.7c-0.32-0.5-0.66-0.99-1.02-1.46
						c-0.75-0.99-1.57-1.92-2.47-2.78c-0.83-0.79-2.04,0.25-1.63,1.11c-0.44,0.31-0.59,0.86-0.33,1.34
						c0.53,0.97,1.05,1.95,1.58,2.92c-0.01,0.01-0.01,0.01-0.02,0.02l-0.14,0.18c-0.07,0.09-0.14,0.18-0.21,0.27
						c-0.35,0.45-0.7,0.9-1.05,1.34c-0.32,0.41-0.43,1.02,0,1.41c0.36,0.33,1.07,0.44,1.41,0c0.4-0.51,0.79-1.02,1.19-1.52
						c0.47-0.6,1.04-1.2,0.84-2.02c0.14,0.19,0.28,0.39,0.37,0.59c-0.17,0.33-0.51,0.67-0.71,0.94c-0.35,0.47-0.7,0.94-1.06,1.4
						c-0.71,0.92-1.43,1.82-2.17,2.71c-0.24,0.29-0.33,0.65-0.24,0.99c-1.34,0.12-2.66,0.35-3.9,0.77
						c-0.53,0.18-0.71,0.64-0.67,1.08c-0.76,0.5-0.22,1.97,0.9,1.79c13.74-2.32,27.08,3.15,39.11,9.19c1.07,0.54,2-0.91,1.19-1.58
						c0-0.23-0.08-0.46-0.28-0.68c-1.34-1.43-2.84-2.61-4.44-3.63c0.02-0.01,0.05-0.01,0.08-0.03
						C166.7,65.03,167.71,64.34,168.73,63.66z M169.85,59.99c0.03-0.28,0.06-0.56,0.08-0.84c0.08,0.2,0.16,0.41,0.23,0.61
						c0.13,0.37,0.2,0.4-0.09,0.6c-0.11,0.07-0.21,0.14-0.32,0.21C169.81,60.38,169.83,60.19,169.85,59.99z M150.88,60.31
						c0.07-0.06,0.14-0.12,0.2-0.2c0.86-1.12,1.84-2.16,2.88-3.1c0.52-0.47,1.07-0.92,1.63-1.34c0.52-0.38,1.29-0.72,1.63-1.29
						c0.4-0.66,0.1-1.3-0.17-1.94c-0.18-0.42-0.35-0.84-0.53-1.27c0.52,0.83,1.04,1.67,1.57,2.5c-0.52,0.18-0.71,0.76-0.57,1.24
						c-1.94,2.04-4.17,3.78-6.44,5.45C151.02,60.34,150.95,60.33,150.88,60.31z"/>
					<path class="st1" d="M133.49,36.99c-0.18-0.62-1.14-0.36-0.96,0.27c0.7,2.43,0.9,4.99,0.55,7.5c-0.04,0.27,0.07,0.53,0.35,0.62
						c0.23,0.07,0.58-0.08,0.62-0.35C134.41,42.33,134.23,39.6,133.49,36.99z"/>
					<path class="st1" d="M135.01,54.26c-0.13-0.22-0.26-0.44-0.38-0.66c-0.05-0.11-0.11-0.21-0.15-0.32
						c0.03,0.07-0.04-0.1-0.04-0.12c-0.02-0.06-0.04-0.11-0.06-0.17c-0.04-0.12-0.07-0.24-0.09-0.36c0-0.01-0.01-0.08-0.01-0.09
						c-0.01-0.05-0.01-0.11-0.01-0.16c0-0.06,0-0.13,0-0.19c0-0.01,0.01-0.07,0.01-0.08c0.01-0.05,0.02-0.11,0.04-0.16
						c0.01-0.02,0.07-0.19,0.03-0.11c0.11-0.24,0.08-0.55-0.18-0.68c-0.22-0.11-0.57-0.08-0.68,0.18c-0.26,0.59-0.28,1.2-0.1,1.82
						c0.17,0.57,0.46,1.1,0.76,1.61c0.14,0.22,0.45,0.33,0.68,0.18C135.06,54.8,135.16,54.5,135.01,54.26z"/>
					<path class="st1" d="M151.78,47.19c-1.56,1.25-3.1,2.73-4.2,4.4c-0.26,0.4-0.25,0.75-0.09,1.19c0.2,0.54,0.41,1.07,0.61,1.61
						c0.43,1.14,0.86,2.27,1.29,3.41c0.23,0.6,1.19,0.34,0.96-0.27c-0.38-1.01-0.76-2.02-1.15-3.03c-0.17-0.44-0.33-0.88-0.5-1.33
						c-0.09-0.23-0.26-0.52-0.29-0.76c-0.03-0.27,0.07-0.38,0.24-0.6c1.1-1.47,2.4-2.78,3.84-3.92
						C152.99,47.5,152.28,46.79,151.78,47.19z"/>
					<path class="st1" d="M168.19,56.6c-0.21-0.21-0.5-0.17-0.71,0c-0.35,0.29-0.7,0.58-1.05,0.87c-0.33,0.27-0.75,0.54-0.95,0.94
						c-0.19,0.4-0.18,0.81-0.1,1.24c0.07,0.38,0.17,0.66,0.13,1.03c-0.03,0.27,0.25,0.5,0.5,0.5c0.3,0,0.47-0.23,0.5-0.5
						c0.04-0.36-0.04-0.72-0.12-1.07c-0.04-0.18-0.06-0.29-0.07-0.43c0-0.04,0-0.07,0-0.11c0-0.02,0.01-0.06,0.01-0.07
						c0.01-0.03,0.01-0.06,0.02-0.08c0.02-0.07,0-0.02,0.02-0.05c0.07-0.13,0.2-0.22,0.32-0.32c0.17-0.14,0.33-0.27,0.5-0.41
						c0.33-0.27,0.67-0.55,1-0.82C168.4,57.14,168.37,56.78,168.19,56.6z"/>
					<path class="st1" d="M155.23,32.05c-2.62,5.05-5.99,9.67-10.01,13.71c-0.45,0.46,0.25,1.16,0.71,0.71
						c4.07-4.09,7.5-8.79,10.16-13.91C156.39,31.98,155.53,31.48,155.23,32.05z"/>
					<path class="st1" d="M173.87,45.85c-2.88,2.08-5.95,3.86-9.17,5.33c-0.58,0.27-0.08,1.13,0.5,0.86
						c3.23-1.47,6.3-3.26,9.17-5.33C174.89,46.34,174.39,45.47,173.87,45.85z"/>
				</g>
				<g>
					<path class="st9" d="M96.18,204.86c-1.2-8.17-2.4-16.34-3.59-24.51c-1.06-7.23-2.05-14.47-3.16-21.69
						c-1.13-7.38-2.23-14.76-3.31-22.38c-1.18,1.97-2.29,3.72-1.93,5.99c0.44,2.71,0.81,5.42,1.22,8.14
						c0.57,3.81,1.16,7.63,1.71,11.44c0.49,3.36,0.94,6.72,1.43,10.08c0.59,4.03,1.28,8.05,1.8,12.09
						c0.62,4.77,1.39,9.51,2.11,14.26c0.62,4.11,1.25,8.21,1.84,12.33c0.18,1.27,0.22,1.6,0.96,1.64c0.24,0.01,0.56-0.01,0.99-0.04
						c0.7-0.05,0.96-0.36,0.86-1.06C96.79,209.05,96.49,206.95,96.18,204.86z"/>
					<path class="st9" d="M90.67,129.11c-0.09,0-0.18-0.01-0.26-0.01c-0.25,0-0.44,0.06-0.55,0.43c-0.35,1.24-1,2.35-1.72,3.41
						c-0.35,0.51-0.44,1.04-0.35,1.62c0.08,0.51,0.17,1.02,0.24,1.53c0.57,3.95,1.15,7.9,1.69,11.86c0.08,0.59,0.3,0.86,0.84,1.02
						c1.25,0.37,2.49,0.79,3.74,1.17c0.39,0.12,0.63,0.19,0.79,0.18c0.27-0.02,0.31-0.28,0.43-0.94c0.99-5.32,2.23-10.58,4.18-15.65
						c0.79-2.05,1.68-4.06,2.63-6.2c-0.97,0.3-1.77,0.56-2.58,0.79c-2.23,0.62-4.49,0.83-6.78,0.84
						C92.2,129.15,91.44,129.14,90.67,129.11z"/>
					<path class="st9" d="M185.8,141.54c-1.04-6.6-3.91-12.47-7.48-18.04c-0.49-0.77-1.19-1.2-2.09-1.43
						c-1.24-0.32-2.48-0.45-3.73-0.47c-1.24-0.02-2.49,0.08-3.73,0.21c-4.51,0.48-8.84,1.72-13.04,3.44
						c-3.62,1.49-7.19,3.13-11.09,3.77c-0.44,0.07-0.56,0.28-0.5,0.72c0.2,1.64,0.31,3.3,0.56,4.94c0.78,5.1,1.58,10.2,2.41,15.29
						c0.35,2.16,0.79,4.31,1.23,6.7c0.51-0.64,0.83-1.11,1.21-1.52c2.17-2.33,4.32-4.69,6.54-6.97c2.54-2.61,3.15-5.66,2.39-9.12
						c-0.4-1.8-1.26-3.41-1.99-5.08c-0.24-0.54-0.35-1.08,0.3-1.4c0.16-0.08,0.3-0.11,0.42-0.1c0.37,0.01,0.6,0.36,0.8,0.71
						c1.28,2.27,2.22,4.63,2.55,7.26c0.39,3.22-0.48,5.99-2.58,8.38c-1.71,1.94-3.52,3.79-5.31,5.65c-1.63,1.7-3.05,3.56-4.04,5.7
						c-2.32,5-2.23,9.85,1.07,14.43c0.65,0.9,1.39,1.76,2.44,2.25c0.4,0.18,0.77,0.26,1.12,0.23c0.58-0.05,1.09-0.39,1.48-1.01
						c0.41-0.65,0.63-1.39,0.83-2.12c0.92-3.49,3.16-5.77,6.47-7.03c2.06-0.79,4.15-1.47,6.21-2.26c5.12-1.98,9.94-4.38,13.48-8.83
						C185.1,151.61,186.64,146.9,185.8,141.54z"/>
					<path class="st9" d="M98.91,214.38c-0.11-0.47-0.43-0.79-0.93-0.71c-1.12,0.17-2.26,0.17-3.38,0.41
						c-0.58,0.12-1.13,0.27-1.04,0.98c0.08,0.67,0.61,0.91,1.32,0.9c1.1-0.18,2.29-0.26,3.44-0.58
						C98.84,215.23,99.02,214.87,98.91,214.38z"/>
					<path class="st9" d="M142.01,127.03c0.27,0.07,0.55,0.12,0.83,0.14c0.28,0.02,0.56,0.01,0.86-0.02
						c2.88-0.31,5.54-1.35,8.18-2.43c6.18-2.54,12.42-4.81,19.21-5.06c0.35-0.01,0.69-0.02,1.03-0.03c2.39-0.03,4.72,0.2,6.96,1.42
						c0.2-0.7-0.03-1.3-0.1-1.91c-0.25-2.23-0.76-4.4-1.79-6.41c-0.99-1.92-2.26-3.57-4.46-4.3c-1-0.33-1.99-0.48-2.98-0.5
						c-1.64-0.03-3.26,0.31-4.86,0.83c-8.22,2.66-15.41,7.16-22.04,12.61c-0.81,0.67-1.63,1.38-2.14,2.34
						C139.93,125.15,140.51,126.64,142.01,127.03z"/>
					<path class="st9" d="M83.01,137.63c0.81-1.7,1.81-3.28,2.8-4.87c0.72-1.15,1.49-2.28,1.99-3.55c0.71-1.84-0.46-3.55-2.43-3.51
						c-2.14,0.05-3.89,1.11-5.55,2.3c-1.86,1.34-2.78,3.22-2.87,5.5c-0.14,3.49,1.34,6.37,3.45,9c0.54,0.67,1.09,1.35,2.07,1.75
						c-0.04-0.36-0.03-0.61-0.1-0.84C81.84,141.4,82.12,139.49,83.01,137.63z"/>
					<path class="st9" d="M81.57,124.08c0.03,0.17-0.01,0.48,0.25,0.41c0.73-0.2,1.45-0.45,2.16-0.71c0.2-0.07,0.11-0.28,0.1-0.44
						c-0.01-0.14-0.01-0.27-0.03-0.41c-0.65-4.59-1.29-9.19-1.97-13.78c-0.47-3.19-0.97-6.38-1.46-9.58
						c-0.06-0.42-0.2-0.74-0.71-0.67c-0.48,0.07-0.96,0.16-1.45,0.22c-0.56,0.07-0.68,0.32-0.59,0.89c0.6,3.69,1.17,7.4,1.74,11.1
						C80.28,115.44,80.92,119.76,81.57,124.08z"/>
					<path class="st9" d="M76.08,96.53c0.08,0.65,0.4,1.16,1.16,1.1c1.19-0.09,2.37-0.28,3.52-0.6c0.61-0.17,0.8-0.62,0.68-1.2
						c-0.12-0.55-0.52-0.72-1.04-0.72c-1.12,0.18-2.25,0.34-3.37,0.53C76.52,95.72,76,95.87,76.08,96.53z"/>
					<path class="st9" d="M118.44,92.61c1.98-0.01,3.96-0.09,5.94-0.37c2.58-0.37,5-1.25,7.23-2.62c0.25-0.15,0.62-0.31,0.12-0.61
						c-2-1.21-3.58-2.91-5.32-4.43c-1.07-0.94-2.18-1.48-3.39-1.48c-0.72,0-1.48,0.2-2.28,0.64c-4.74,2.56-9.7,4.66-14.57,6.95
						c-1.18,0.56-2.3,1.23-3.36,2.36c3.35-0.37,6.51-0.47,9.69-0.48c0,0,0,0,0,0c0,0,0,0,0,0
						C114.47,92.56,116.46,92.62,118.44,92.61z"/>
					<path class="st9" d="M154,234.03c1.48-2.02,2.9-4.08,4.09-6.29c1.9-3.54,2.66-7.22,1.33-11.16c-0.12-0.37-0.25-0.56-0.52-0.55
						c-0.09,0-0.2,0.02-0.33,0.07c-2.16,0.74-4.34,1.09-6.54,1.06c-1.32-0.02-2.65-0.17-3.99-0.45c-0.15-0.03-0.28-0.04-0.39-0.04
						c-0.32,0.03-0.45,0.24-0.52,0.66c-0.18,0.96-0.68,1.76-1.38,2.45c-1.18,1.17-2.62,1.93-4.08,2.66
						c-3.07,1.53-6.07,3.18-8.93,5.08c-0.34,0.23-0.7,0.45-0.98,0.83c0.63,0.08,1.18,0.13,1.71,0.22c1.5,0.25,2.83,0.81,3.65,2.18
						c0.09,0.15,0.18,0.25,0.27,0.27c0.09,0.02,0.19-0.05,0.31-0.22c0.17-0.25,0.38-0.46,0.57-0.69c1.81-2.24,3.84-4.22,6.21-5.86
						c0.17-0.12,0.36-0.27,0.54-0.29c0.11-0.01,0.22,0.03,0.32,0.15c0.25,0.31-0.13,0.54-0.34,0.72c-1.76,1.56-3.19,3.42-4.68,5.22
						c-0.74,0.89-1.47,1.8-2.01,2.9c0.14-0.01,0.23,0,0.29-0.03c2.15-0.98,4.39-1.41,6.71-1.44c0.33,0,0.66,0,1,0.01
						c2.54,0.09,4.78,0.96,6.7,2.62c0.23,0.2,0.39,0.29,0.54,0.28C153.69,234.37,153.83,234.25,154,234.03z"/>
					<path class="st9" d="M140.76,210.48c0.6,0.79,1.35,1.42,2.16,1.98c2.81,1.95,5.87,2.78,9.07,2.77
						c1.07-0.01,2.15-0.11,3.24-0.29c4.25-0.73,7.83-2.71,10.31-6.4c0.44-0.65,0.47-1.12-0.01-1.8c-3.51-4.94-6.44-10.22-9.01-15.7
						c-0.72-1.54-1.42-3.09-2.21-4.81c-0.86,3.44-2.33,6.36-4.36,9.05c-3.68,4.87-8.23,8.54-14.15,10.26
						c-2.84,0.82-5.72,1.23-8.63,1.26c-1.74,0.02-3.5-0.09-5.26-0.32c-5.03-0.66-9.63-2.36-13.79-5.3c-1.27-0.9-2.43-1.91-3.53-3.02
						c4.33,8.47,11.93,12.57,19.58,12.84c1.09,0.04,2.18,0,3.27-0.12c-0.3-0.5-0.21-0.75,0.35-0.79c0.21-0.01,0.41-0.01,0.61-0.01
						c0.61,0.03,1.21,0.13,1.82,0.26c2.46,0.51,4.9,1.19,7.43,1.25c0.36,0.01,0.72,0,1.09-0.02c0.5-0.03,0.84-0.02,0.72-0.68
						c-0.07-0.4,0.13-0.77,0.55-0.9c0.1-0.03,0.19-0.03,0.26-0.01C140.49,210.03,140.61,210.28,140.76,210.48z"/>
					<path class="st9" d="M122.33,96.98c1.26-0.04,2.54-0.2,3.83-0.49c2.82-0.63,5.26-1.88,7.05-4.23c0.35-0.47,0.59-0.98,0.53-1.59
						c-0.04-0.39-0.17-0.59-0.43-0.51c-0.09,0.03-0.19,0.09-0.3,0.18c-0.9,0.72-1.9,1.27-2.95,1.73c-3.48,1.53-7.14,1.97-10.87,2
						c-0.53,0-1.06,0-1.6-0.01c-2.74-0.05-5.49-0.18-8.23-0.27l-0.05,0.15c0.65,0.28,1.29,0.57,1.94,0.83
						C114.86,96.21,118.54,97.1,122.33,96.98z"/>
					<path class="st9" d="M96.42,158.82c-0.35,4.73-0.35,9.45,0.15,14.17c0.54,5.2,1.69,10.24,3.65,15.09
						c1.88,4.64,4.49,8.78,8.67,11.71c5.56,3.9,11.65,5.6,18.12,5.51c1.49-0.02,3-0.14,4.53-0.35
						c11.13-1.51,19.34-10.43,21.76-20.04c0.15-0.6,0.13-1.14-0.12-1.73c-0.43-1-0.84-2.01-1.12-3.06
						c-0.23-0.88-0.61-1.52-1.48-1.86c-0.37-0.14-0.7-0.43-0.99-0.71c-2.9-2.79-4.41-6.22-4.59-10.23
						c-0.13-2.87,0.61-5.55,1.84-8.11c0.18-0.37,0.33-0.73,0.23-1.17c-0.75-3.31-1.39-6.65-1.98-9.99c-1.06-5.99-2.05-12-2.71-18.05
						c-0.06-0.55-0.25-0.9-0.84-1.02c-0.9-0.2-1.67-0.64-2.27-1.36c-1.29-1.55-1.28-3.64,0.02-5.52c0.23-0.33,0.48-0.64,0.74-0.94
						c-2.18-3.33-2.07-7.6-0.44-11.15c3.66-7.97,13.61-10.2,16.3-18.86c1.17-3.79,1.07-7.96-0.52-11.61
						c-0.11-0.25-0.1-0.48-0.04-0.69c-0.03-0.07-0.06-0.14-0.09-0.21c-0.07-0.15-0.14-0.29-0.21-0.43c-0.1-0.2-0.2-0.41-0.3-0.61
						c-2.37-4.51-6.24-6.98-11.71-6.97c-0.99-0.05-2.01,0.15-3.02,0.34c-1.75,0.33-3.31,0.93-4.65,1.8c0,0,0,0,0,0
						c-0.81,0.53-1.54,1.16-2.18,1.92c0,0-0.01,0.01-0.01,0.01c-0.31,0.37-0.6,0.77-0.87,1.2c-0.01,0.01-0.01,0.02-0.02,0.03
						c-0.27,0.44-0.52,0.91-0.74,1.42c-0.97,2.22-1.49,4.53-1.49,6.97c0,0.79,0.29,1.31,0.88,1.8c1.06,0.88,2.28,1.48,3.41,2.24
						c0.83,0.57,1.22,1.33,1.18,2.36c-0.03,0.79-0.29,1.49-0.68,2.15c-1.01,1.72-2.52,2.91-4.23,3.86
						c-2.35,1.32-4.92,1.81-7.58,2.01c-0.18,0.01-0.36,0.01-0.55,0.01c-0.18,0-0.37-0.01-0.54,0c-0.36,0.01-0.7,0.07-0.97,0.27
						c-0.47,0.35-0.09,1.13-0.2,1.71c-0.02,0.11-0.04,0.21-0.06,0.32c-0.07,0.47-0.18,0.92-0.3,1.36c-0.02,0.06-0.04,0.12-0.06,0.18
						c-0.1,0.35-0.22,0.7-0.36,1.03c-0.06,0.15-0.12,0.3-0.18,0.45c-0.05,0.12-0.11,0.25-0.17,0.37c-0.3,0.66-0.63,1.31-0.99,1.94
						c-0.04,0.01-0.07,0.03-0.1,0.03c-0.54,0.86-1.13,1.71-1.74,2.55c-0.2,0.27-0.39,0.55-0.59,0.82c0,0.05,0,0.11,0,0.16
						c-0.07,0.1-0.14,0.2-0.21,0.29c-0.38,0.46-0.74,0.93-1.11,1.4c-1.2,1.66-2.39,3.33-3.55,5.02c-3.04,4.41-5.88,8.98-8.08,13.87
						c-0.06,0.14-0.12,0.28-0.18,0.42c-0.25,0.57-0.5,1.15-0.74,1.73C98.95,141.08,97.08,149.81,96.42,158.82z M137.27,79.25
						c0.32-1.56,1.17-3.17,2.74-3.75c0.33-0.12,0.67-0.18,1-0.18c0.99-0.01,1.92,0.51,2.46,1.42c0.67,1.12,0.74,2.54,0.48,3.8
						c-0.28,1.32-1.01,2.55-2.14,3.31c-0.6,0.41-1.33,0.62-2.01,0.58c-0.68-0.04-1.33-0.34-1.79-0.98
						c-0.13-0.18-0.23-0.38-0.32-0.59C137.12,81.77,137.02,80.46,137.27,79.25z"/>
					<path class="st9" d="M116.58,226.45c2.23-1.65,4.64-3.05,6.79-4.81c1.16-0.95,2.15-1.98,2.31-3.6c0.16-1.59-0.07-3.14-0.29-4.7
						c-0.05-0.38-0.34-0.37-0.62-0.37c-3.03,0.01-5.93-0.67-8.75-1.72c-0.18-0.07-0.32-0.1-0.43-0.11
						c-0.33-0.02-0.39,0.23-0.37,0.72c0.05,1.3-0.54,2.25-1.74,2.77c-0.65,0.28-1.3,0.56-1.97,0.79c-3.83,1.3-7.73,2.42-11.44,4.08
						c-1.62,0.72-3.25,1.44-4.81,2.41c0.12,0.06,0.16,0.1,0.21,0.1c2.21,0.29,4.08,1.13,5.17,3.23c0.1,0.2,0.2,0.26,0.28,0.25
						c0.14-0.02,0.26-0.23,0.36-0.34c2.94-3.18,6.73-5.02,10.62-6.68c0.15-0.06,0.3-0.12,0.46-0.16c0.05-0.01,0.1-0.02,0.15-0.02
						c0.14,0,0.27,0.05,0.34,0.21c0.07,0.18-0.03,0.32-0.16,0.42c-0.15,0.11-0.32,0.21-0.48,0.31c-2.05,1.28-4.12,2.54-6.15,3.86
						c-1.55,1.01-2.95,2.19-4.16,3.8c0.51-0.16,0.89-0.3,1.27-0.4c1.42-0.37,2.81-0.6,4.16-0.59c2.25,0.01,4.39,0.68,6.31,2.48
						c0.15,0.14,0.25,0.18,0.35,0.16c0.1-0.02,0.19-0.1,0.3-0.21C115.02,227.64,115.79,227.04,116.58,226.45z"/>
					<path class="st9" d="M167.77,209.49c-0.11-0.12-0.22-0.28-0.35-0.28c-0.08,0-0.16,0.06-0.26,0.22
						c-0.92,1.55-2.12,2.86-3.6,4.04c3.32,0.46,6.5,1.03,9.96,1.03C171.28,212.98,169.44,211.34,167.77,209.49z"/>
					<path class="st9" d="M137.05,52.45c0.12-0.18,0.02-0.36-0.08-0.54c-0.74-1.2-1.48-2.39-2.22-3.59
						c-0.08-0.01-0.15-0.03-0.23-0.04c-0.35,0.88-0.6,1.81-1.07,2.64c-1.01,1.79,0.32,3.29,1.18,4.99
						C135.67,54.78,136.29,53.58,137.05,52.45z"/>
					<path class="st9" d="M126.82,65.25c0.39-0.12,0.78-0.23,1.19-0.32c1.57-0.35,3.17-0.6,4.77-0.74c3.21-0.3,6.43-0.21,9.64,0.09
						c0.19,0.02,0.39,0.04,0.58,0.06c4.31,0.44,8.54,1.31,12.66,2.63c2.79,0.89,5.54,1.95,8.13,3.34c2.13,1.14,4.16,2.53,5.67,4.44
						c0.06-0.04,0.13-0.08,0.19-0.12c0.3-0.21,0.56-0.54,0.72-0.87c0.21-0.41,0.01-0.85-0.2-1.21c-0.34-0.59-0.86-1.07-1.45-1.49
						c-1.12-0.8-2.32-1.49-3.6-2.09c-5.17-2.42-10.7-3.88-16.31-5.11c-1.55-0.3-3.09-0.59-4.64-0.84c-3.26-0.51-6.51-0.85-9.77-0.82
						c-2.4,0.03-4.77,0.18-6.84,1.15c-1,0.46-1.16,0.97-0.75,1.89C126.81,65.24,126.82,65.24,126.82,65.25z"/>
					<path class="st9" d="M149.84,62.97c7.01,1.51,13.81,3.46,19.8,7.26c0.02-0.09,0.04-0.15,0.04-0.22c0.03-3.4,0.69-6.66,2.3-9.69
						c0.27-0.51,0.37-0.98,0.2-1.55c-0.19-0.63-0.15-1.26-0.04-1.9c0.62-3.77,2.08-7.28,3.95-10.66c0.5-0.91,1-1.83,1.51-2.76
						c-3.17,1.59-6.3,3.1-9.36,4.71c-1.7,0.89-3.28,1.93-4.91,2.91c-0.81,0.48-1.23,0.34-1.49-0.53c-0.03-0.12-0.07-0.23-0.09-0.35
						c-1.4-5.57-2.79-11.14-4.19-16.7c-0.34-1.34-0.68-2.68-1.05-4.17c-0.29,0.4-0.48,0.65-0.67,0.9
						c-4.12,5.49-8.25,10.98-12.38,16.47c-0.58,0.78-1.09,0.74-1.7-0.1c-0.85-1.16-1.69-2.32-2.56-3.46
						c-2.35-3.08-4.72-6.15-7.53-9.13c0.52,3.82,0.8,7.53,0.39,11.19c-0.21,1.9-0.16,3.87-1.26,5.58c-0.13,0.2-0.14,0.39-0.09,0.61
						c0.37,1.48,0.17,2.93-0.06,4.36c-0.33,2.01-1.02,3.93-1.83,5.9C135.87,60.45,142.85,61.47,149.84,62.97z M164.35,57.59
						c1.52-1.35,3.21-2.55,4.99-3.67c0.61-0.39,1.07-0.21,1.1,0.4c0.1,1.72,0.16,3.44,0.23,5.16c0,0.09-0.01,0.19-0.01,0.24
						c-0.14,0.63-0.52,1.1-0.97,1.53c-1.02,0.99-2.25,1.8-3.48,2.61c-0.56,0.37-0.91,0.25-1.08-0.38c-0.47-1.69-0.8-3.38-1.11-5.08
						C163.96,58.08,164.09,57.82,164.35,57.59z M145.66,51.14c2.05-2.69,4.58-5.05,7.23-7.33c0.41-0.36,0.76-0.22,1.05,0.15
						c0.19,0.24,0.32,0.52,0.44,0.8c1.21,2.79,2.52,5.55,3.61,8.37c0.13,0.35,0.3,0.69,0.17,1.03c-0.04,0.33-0.26,0.56-0.47,0.8
						c-1.91,2.17-4.07,4.17-6.42,6.03c-1.17,0.93-1.42,0.88-2.18-0.42c-1.55-2.62-2.87-5.3-3.69-8.1
						C145.27,51.98,145.35,51.55,145.66,51.14z M131.91,53.23c-0.15-0.52-0.25-1.03-0.14-1.61c0.71-1.58,1.28-3.27,2.21-4.83
						c0.36-0.59,0.82-0.57,1.23,0.07c1.06,1.65,2.1,3.3,2.97,5.01c0.24,0.47,0.17,0.82-0.12,1.25c-0.94,1.39-1.84,2.81-2.96,4.1
						c-0.53,0.61-0.7,0.6-1.14-0.12C133.19,55.84,132.31,54.61,131.91,53.23z"/>
					<path class="st9" d="M120.39,73.69c-0.11,0.26-0.22,0.52-0.3,0.79c-0.06,0.21-0.08,0.4,0.19,0.43
						c0.67,0.08,1.11,0.53,1.63,1.08c0.02-0.14,0.02-0.27,0.03-0.41c0.01-0.15,0.03-0.3,0.03-0.44c0-0.12-0.01-0.23-0.01-0.35
						c-0.01-0.18-0.01-0.35-0.03-0.52c-0.04-0.43-0.11-0.84-0.19-1.25c-0.04-0.2-0.09-0.46-0.34-0.52
						c-0.28-0.07-0.46,0.14-0.59,0.35C120.66,73.12,120.51,73.4,120.39,73.69C120.38,73.69,120.38,73.69,120.39,73.69z"/>
					<path class="st9" d="M123.37,74.47C123.38,74.47,123.38,74.48,123.37,74.47c0.01,0.03,0,0.05,0,0.08
						c0.01,0.42-0.01,0.84-0.05,1.26c0,0.05,0,0.1-0.01,0.15c-0.15,1.58-0.61,3.09-1.05,4.6c-0.13,0.43-0.13,0.7,0.3,0.74
						c0.06,0,0.13,0,0.21,0c0,0,0,0,0.01,0c1.36-0.08,2.56,0.4,3.67,1.15c0.65,0.43,1.28,0.89,2.02,1.41
						c0.22-2.26,0.56-4.37,1.33-6.39c1.46-3.85,4.02-6.56,8.01-7.76c2.47-0.74,4.98-1.03,7.57-0.7c3.75,0.49,6.82,2.15,9.16,5.1
						c1.02,1.28,1.81,2.63,2.43,4.02c0.01,0,0.02,0,0.03,0.01c0.1,0.22,0.17,0.45,0.26,0.67c0.08,0.2,0.16,0.39,0.23,0.59
						c0.19,0.52,0.35,1.05,0.49,1.59c0,0.02,0.01,0.03,0.02,0.05c0,0.02,0.01,0.04,0.02,0.06c1.71,6.39,0.02,13.56-4.8,18.26
						c-3.26,3.18-7.46,5.21-10.23,8.92c-2.46,3.3-3.57,7.78-1.46,11.47c0.38-0.33,0.76-0.65,1.15-0.96
						c5.33-4.28,11.09-7.86,17.39-10.55c3.14-1.34,6.38-2.34,9.84-2.42c0.63-0.01,0.61-0.35,0.55-0.81
						c-0.27-1.94-0.41-3.9-0.36-5.86c0.06-2.07,0.17-4.14,0.24-6.21c0.03-0.91,0.05-1.83,0.06-2.75c0-0.12,0.01-0.23,0.01-0.35
						c0.01-0.77-0.02-1.55-0.04-2.32c-0.01-0.42-0.01-0.84-0.03-1.26c-0.18-3.34-0.77-6.58-2.14-9.66
						c-0.29-0.66-0.69-1.21-1.25-1.69c-1.28-1.08-2.69-1.94-4.17-2.7c-6.25-3.19-12.93-4.92-19.87-5.7
						c-4.59-0.51-9.16-0.47-13.73,0.32c-2.58,0.45-4.88,1.28-6.53,3.43c-0.19,0.24-0.51,0.41-0.23,0.82
						C123.11,72.15,123.35,73.29,123.37,74.47z"/>
					<path class="st9" d="M149.97,59.77c0.16,0.32,0.33,0.46,0.66,0.16c1.92-1.77,3.97-3.46,5.73-5.36c0.37-0.4,0.48-0.87,0.25-1.39
						c-1.12-2.6-2.23-5.21-3.42-7.99c-2.4,2.19-4.65,4.27-6.41,6.67c-0.18,0.24-0.15,0.49-0.06,0.74
						C147.64,55.03,148.83,57.39,149.97,59.77z"/>
					<path class="st9" d="M168.99,60.28c0.26-0.27,0.49-0.57,0.48-0.93c-0.05-1.31-0.12-2.63-0.19-4.1
						c-1.36,0.99-2.59,1.89-3.82,2.79c-0.18,0.13-0.21,0.31-0.18,0.51c0.24,1.31,0.45,2.63,0.9,4
						C167.22,61.8,168.18,61.1,168.99,60.28z"/>
					<path class="st9" d="M204.21,212.95c1.19-0.73,2.27-1.59,2.99-2.84c0.35-0.61,0.23-1.09-0.29-1.51
						c-0.56-0.44-1.19-0.76-1.83-1.06c-1.63-0.76-3.22-1.61-4.61-2.77c-3.01-2.51-5.29-5.65-7.31-8.94
						c-5.16-8.41-8.83-17.46-11.08-27.08c-0.66-2.8-1.19-5.62-1.69-8.47c-0.12,0.04-0.21,0.05-0.26,0.09c-2.87,2.4-6.2,4-9.6,5.49
						c-2.67,1.17-5.5,1.89-8.19,3.02c-2.58,1.09-4.28,2.91-4.98,5.65c-0.2,0.76-0.42,1.52-0.8,2.22c-0.54,1.02-1.27,1.89-2.42,2.16
						c-0.68,0.16-0.77,0.36-0.52,0.98c2.29,5.8,4.64,11.57,7.71,17.01c2.61,4.63,5.37,9.15,9.24,12.9
						c4.46,4.32,9.86,6.38,15.94,6.77c0.65,0.04,1.3,0.07,1.95,0.08c1.95,0.03,3.91-0.07,5.86-0.38
						C197.8,215.75,201.16,214.82,204.21,212.95z M194.14,209.21c-1.41-0.24-2.87-0.66-4.3-1.19c-5.27-1.93-9.52-5.24-13.08-9.56
						c-4.88-5.92-8.02-12.71-10.27-19.97c-0.1-0.31-0.16-0.63-0.21-0.95c-0.02-0.15,0-0.34,0.2-0.4c0.05-0.01,0.09-0.02,0.13-0.01
						c0.12,0.01,0.21,0.1,0.27,0.22c0.13,0.27,0.24,0.55,0.34,0.83c2.07,5.78,4.46,11.42,8.06,16.44
						c3.37,4.69,7.36,8.74,12.54,11.47c1.89,1,3.89,1.69,5.96,2.18c0.21,0.05,0.42,0.11,0.63,0.16c0.24,0.06,0.5,0.11,0.49,0.44
						C194.89,209.09,194.66,209.2,194.14,209.21C194.14,209.21,194.14,209.21,194.14,209.21
						C194.14,209.21,194.14,209.21,194.14,209.21z"/>
					<path d="M207.86,206.88c-0.72-0.55-1.52-0.96-2.33-1.34c-2.08-0.96-3.9-2.26-5.45-3.95c-2.61-2.84-4.74-6.04-6.62-9.39
						c-5.73-10.16-9.24-21.09-11.07-32.58c-0.14-0.88,0.07-1.52,0.66-2.19c3.36-3.84,5.05-8.35,5.02-13.45
						c-0.02-2.73-0.54-5.41-1.37-8.01c-1.29-4.04-3.08-7.85-5.25-11.48c-0.16-0.27-0.49-0.58-0.34-0.88
						c0.58-1.14,0.22-2.31,0.13-3.45c-0.22-2.67-0.71-5.29-1.82-7.74c-1.13-2.49-2.64-4.7-5.3-5.71c-1.07-0.41-1.46-0.85-1.6-2.06
						c-0.48-4.14-0.25-8.27-0.04-12.39c0.03-0.56,0.04-1.11,0.06-1.66c0-0.17,0.01-0.35,0.02-0.52c0-0.29,0-0.57,0-0.86
						c0-0.5,0-0.99-0.01-1.49c0-0.05,0-0.09,0-0.14c0,0,0,0-0.01,0c-0.04-1.3-0.12-2.59-0.29-3.88c-0.19-1.51-0.48-3.01-0.9-4.48
						c-0.31-1.1-0.63-2.42-1.19-3.46c0.34-0.21,0.66-0.44,0.94-0.73c0.79-0.78,1.02-1.67,0.47-2.68c-0.26-0.49-0.32-0.98-0.36-1.47
						c-0.32-3.64,0.38-7.07,2.15-10.26c0.35-0.63,0.48-1.25,0.24-1.97c-0.17-0.51-0.18-1.04-0.11-1.55c0.34-2.3,1.09-4.5,2.02-6.64
						c1.18-2.73,2.77-5.29,4.11-7.95c0.15-0.29,0.31-0.56-0.04-0.84c-0.38-0.31-0.75-0.19-1.11-0.02
						c-4.14,1.96-8.23,3.97-12.16,6.19c-1.06,0.6-2.1,1.23-3.2,1.87c-0.09-0.28-0.18-0.49-0.23-0.7c-1.25-5.03-2.5-10.06-3.76-15.09
						c-0.53-2.14-1.08-4.28-1.61-6.41c-0.06-0.24-0.07-0.51-0.42-0.59c-0.37-0.09-0.58,0.1-0.77,0.31
						c-0.07,0.07-0.13,0.15-0.19,0.23c-1.98,2.65-3.97,5.31-5.95,7.96c-2.49,3.33-4.99,6.65-7.61,10.16
						c-0.24-0.36-0.39-0.6-0.56-0.83c-2.54-3.56-5.4-6.96-8.26-10.36c-0.75-0.89-1.52-1.78-2.42-2.58c-0.5-0.44-1.05-0.33-1.18,0.22
						c-0.04,0.18-0.02,0.37,0.01,0.56c0.61,4.43,0.97,8.84,0.45,13.21c-0.18,1.49-0.38,2.98-0.96,4.38
						c-0.21,0.51-0.39,1.01-0.32,1.56c0.42,3.2-0.55,6.14-1.66,9.04c-0.21,0.55-0.34,1.22-1.01,1.53c-1.53,0.69-1.67,2.21-1.06,3.45
						c-0.6,0.29-1.19,0.61-1.76,0.97c-0.85,0.53-1.78,1.12-2.44,1.88c-2.04,2.33-3.34,4.89-3.98,7.66
						c-0.01,0.02-0.01,0.04-0.02,0.07c-0.08,0.36-0.16,0.73-0.22,1.1c-0.02,0.14-0.04,0.28-0.06,0.42
						c-0.07,0.51-0.12,1.02-0.15,1.55c-0.02,0.28-0.03,0.57-0.03,0.86c0,0.25,0,0.5,0.01,0.75c0.01,0.4,0.03,0.8,0.07,1.21
						c0.01,0.13,0.01,0.25,0.02,0.38c0.07,0.66-0.09,0.99-0.68,1.26c-1.98,0.9-3.98,1.76-6,2.56c-2.53,1.01-5.04,2.06-7.37,3.49
						c-1.43,0.88-2.58,2-3.11,3.65c-0.32,1,0.12,1.62,1.17,1.59c0,0,0,0,0,0c0,0,0,0,0,0c0.78-0.02,1.56-0.2,2.35-0.24
						c0.58-0.03,1.15-0.19,1.73-0.21c0.35-0.01,0.7,0.03,1.07,0.19c3.86,1.64,7.77,3.13,11.93,3.83c0.5,0.08,0.59,0.31,0.62,0.75
						c0.09,1.37-0.24,2.63-0.77,3.88c-0.95,2.21-2.43,4.06-3.89,5.92c-3.48,4.44-6.91,8.91-9.5,13.94c-0.6,1.17-1.44,1.82-2.6,2.27
						c-2.81,1.09-5.68,1.66-8.63,1.71c-0.98,0.02-1.97-0.02-2.97-0.12c-0.4-0.04-0.55-0.25-0.68-0.58
						c-0.53-1.27-1.42-2.22-2.74-2.63c-0.66-0.21-0.89-0.54-0.98-1.19c-0.42-3.12-0.88-6.24-1.34-9.36
						c-0.7-4.78-1.41-9.57-2.12-14.35c-0.03-0.21-0.08-0.39,0.07-0.61c0.63-0.93,1.09-1.99,0.75-3.12
						c-0.35-1.13-1.11-1.74-2.28-1.89c-0.31-0.04-0.63-0.05-0.95-0.04c-0.32,0.01-0.63,0.03-0.95,0.06
						c-0.82,0.06-1.65,0.13-2.44,0.36c-0.79,0.23-1.55,0.64-2.06,1.28c-1.07,1.35-0.51,3.32,0.88,4.19
						c0.27,0.17,0.33,0.39,0.37,0.67c0.65,3.72,1.13,7.46,1.68,11.2c0.66,4.54,1.36,9.08,2.08,13.61c0.11,0.69-0.08,1.05-0.64,1.45
						c-2.74,1.95-4.17,4.63-4.1,8c0.08,3.76,1.71,6.93,4.07,9.75c0.87,1.04,1.81,2.09,3.18,2.45c0.66,0.17,0.8,0.56,0.88,1.09
						c0.39,2.74,0.76,5.49,1.15,8.23c0.88,6.08,1.77,12.15,2.67,18.22c0.95,6.4,1.93,12.79,2.88,19.18
						c0.87,5.83,1.73,11.66,2.58,17.5c0.15,1.02,0.26,1.95-0.41,3c-1.21,1.89,0.24,4.16,2.49,4.16c0,0,0,0,0,0s0,0,0,0
						c1.45,0.01,2.86-0.32,4.27-0.61c1.18-0.24,1.92-0.95,2.11-2.1c0.21-1.2-0.11-2.32-1.19-3.01c-0.49-0.32-0.64-0.71-0.71-1.19
						c-0.88-5.91-1.77-11.82-2.62-17.74c-1.01-6.99-1.99-13.98-3-20.97c-0.98-6.8-1.99-13.6-3-20.4c-0.06-0.38,0.01-0.51,0.23-0.5
						c0.07,0,0.16,0.02,0.27,0.06c1.22,0.36,2.45,0.73,3.68,1.05c0.46,0.12,0.53,0.32,0.47,0.75c-0.36,2.37-0.61,4.75-0.7,7.14
						c-0.17,4.6-0.15,9.19,0.42,13.77c0.66,5.27,1.9,10.36,3.92,15.28c0.77,1.89,1.8,3.65,2.52,5.57
						c2.31,6.23,5.79,11.57,11.73,14.97c0.21,0.12,0.4,0.25,0.47,0.52c0.41,1.6,0.05,2.38-1.49,2.96
						c-3.41,1.28-6.95,2.18-10.34,3.55c-3.41,1.38-6.72,2.96-9.8,5.01c-0.48,0.32-0.88,0.71-0.7,1.34c0.18,0.65,0.75,0.6,1.27,0.61
						c1.28,0.03,2.56,0.1,3.81,0.35c1.97,0.39,3.52,1.7,2.57,4.19c-0.2,0.51-0.26,1.02,0.21,1.43c0.24,0.21,0.48,0.27,0.72,0.24
						c0.24-0.02,0.49-0.12,0.73-0.24c1.25-0.6,2.54-1.11,3.89-1.44c1.05-0.25,2.06-0.4,3.05-0.41c2.16-0.01,4.14,0.69,5.82,2.64
						c0.26,0.3,0.51,0.43,0.78,0.41c0.27-0.02,0.57-0.19,0.92-0.52c1.73-1.64,3.67-2.98,5.66-4.28c1.48-0.96,2.92-1.99,4.32-3.08
						c2.01-1.56,3.06-3.54,2.92-6.14c-0.06-1.09-0.15-2.17-0.31-3.24c-0.08-0.53-0.01-0.93,0.68-0.88c0.18,0.01,0.37-0.09,0.56-0.09
						c0.73-0.01,1.43-0.3,2.16-0.32c0.24-0.01,0.48,0.02,0.73,0.09c2.1,0.62,4.22,0.95,6.38,1.01c0.72,0.02,1.44,0.01,2.16-0.03
						c0.72-0.04,1.3,0.13,1.87,0.59c0.71,0.58,1.53,1.04,2.38,1.41c1.43,0.62,1.52,0.98,0.67,2.35c-0.26,0.42-0.6,0.78-1,1.06
						c-1,0.71-2.07,1.31-3.16,1.86c-3.38,1.7-6.78,3.37-9.78,5.71c-0.85,0.67-1.73,1.34-2.33,2.27c-0.24,0.37-0.42,0.77-0.15,1.22
						c0.18,0.31,0.44,0.38,0.72,0.38c0.09,0,0.19,0,0.29-0.01c0.26-0.02,0.52-0.03,0.78-0.02c0.78,0.01,1.55,0.1,2.31,0.21
						c3.1,0.47,3.48,1.58,3,3.89c-0.1,0.49-0.02,0.93,0.38,1.26c0.2,0.17,0.41,0.21,0.61,0.19c0.21-0.02,0.42-0.1,0.62-0.2
						c1.61-0.73,3.23-1.43,4.97-1.82c1.23-0.28,2.42-0.43,3.57-0.41c2.53,0.05,4.85,0.93,6.85,3.07c0.31,0.33,0.63,0.47,0.95,0.43
						c0.33-0.04,0.66-0.26,1-0.67c2.41-2.9,4.56-5.97,6.08-9.44c0.89-2.04,1.39-4.16,1.34-6.41c-0.04-1.6-0.33-3.13-0.77-4.65
						c-0.12-0.41-0.06-0.59,0.19-0.62c0.09-0.01,0.19,0,0.32,0.02c1.26,0.2,2.53,0.34,3.79,0.56c2.58,0.45,5.18,0.72,7.79,0.75
						c0.87,0.01,1.74-0.01,2.61-0.06c0.76-0.04,1.42,0.1,2.11,0.37c2.79,1.09,5.69,1.67,8.67,1.77c0.65,0.02,1.31,0.04,1.96,0.04
						c1.96,0.02,3.91-0.04,5.86-0.34c3.33-0.5,6.56-1.33,9.55-2.91c1.79-0.94,3.47-2.06,4.62-3.8
						C209.83,209.74,209.54,208.15,207.86,206.88z M153,234.11c-1.91-1.66-4.16-2.53-6.7-2.62c-0.33-0.01-0.67-0.02-1-0.01
						c-2.32,0.03-4.57,0.46-6.71,1.44c-0.07,0.03-0.15,0.02-0.29,0.03c0.54-1.1,1.27-2,2.01-2.9c1.49-1.8,2.91-3.67,4.68-5.22
						c0.21-0.18,0.58-0.41,0.34-0.72c-0.1-0.13-0.21-0.17-0.32-0.15c-0.18,0.02-0.37,0.17-0.54,0.29c-2.37,1.64-4.41,3.63-6.21,5.86
						c-0.19,0.23-0.4,0.45-0.57,0.69c-0.12,0.17-0.21,0.24-0.31,0.22c-0.09-0.02-0.17-0.12-0.27-0.27
						c-0.83-1.38-2.15-1.93-3.65-2.18c-0.53-0.09-1.08-0.14-1.71-0.22c0.29-0.38,0.64-0.61,0.98-0.83c2.86-1.9,5.86-3.54,8.93-5.08
						c1.46-0.73,2.9-1.49,4.08-2.66c0.69-0.69,1.2-1.48,1.38-2.45c0.08-0.41,0.2-0.63,0.52-0.66c0.11-0.01,0.23,0,0.39,0.04
						c1.33,0.28,2.66,0.44,3.99,0.45c2.2,0.03,4.39-0.32,6.54-1.06c0.13-0.04,0.24-0.07,0.33-0.07c0.27,0,0.4,0.18,0.52,0.55
						c1.33,3.94,0.58,7.61-1.33,11.16c-1.19,2.21-2.61,4.27-4.09,6.29c-0.17,0.23-0.3,0.35-0.45,0.36
						C153.39,234.4,153.23,234.31,153,234.11z M140.01,209.98c-0.42,0.13-0.62,0.5-0.55,0.9c0.12,0.66-0.22,0.66-0.72,0.68
						c-0.36,0.02-0.73,0.03-1.09,0.02c-2.53-0.05-4.97-0.73-7.43-1.25c-0.6-0.13-1.2-0.23-1.82-0.26c-0.2-0.01-0.41-0.01-0.61,0.01
						c-0.56,0.03-0.66,0.28-0.35,0.79c-1.08,0.12-2.17,0.16-3.27,0.12c-7.65-0.27-15.25-4.37-19.58-12.84
						c1.1,1.1,2.26,2.12,3.53,3.02c4.15,2.93,8.75,4.63,13.79,5.3c1.76,0.23,3.52,0.34,5.26,0.32c2.91-0.03,5.79-0.43,8.63-1.26
						c5.92-1.72,10.47-5.39,14.15-10.26c2.03-2.68,3.5-5.61,4.36-9.05c0.79,1.72,1.49,3.28,2.21,4.81c2.58,5.48,5.5,10.76,9.01,15.7
						c0.48,0.68,0.45,1.15,0.01,1.8c-2.48,3.69-6.07,5.67-10.31,6.4c-1.09,0.19-2.17,0.29-3.24,0.29c-3.2,0.02-6.26-0.82-9.07-2.77
						c-0.81-0.56-1.56-1.18-2.16-1.98c-0.15-0.19-0.26-0.45-0.49-0.51C140.19,209.95,140.11,209.95,140.01,209.98z M113.66,228.37
						c-1.93-1.79-4.06-2.46-6.31-2.48c-1.35-0.01-2.74,0.22-4.16,0.59c-0.39,0.1-0.76,0.24-1.27,0.4c1.2-1.61,2.61-2.79,4.16-3.8
						c2.03-1.32,4.1-2.58,6.15-3.86c0.16-0.1,0.33-0.2,0.48-0.31c0.14-0.1,0.24-0.24,0.16-0.42c-0.07-0.17-0.2-0.22-0.34-0.21
						c-0.05,0-0.1,0.01-0.15,0.02c-0.16,0.04-0.31,0.1-0.46,0.16c-3.89,1.67-7.68,3.5-10.62,6.68c-0.1,0.11-0.22,0.32-0.36,0.34
						c-0.09,0.01-0.18-0.05-0.28-0.25c-1.09-2.1-2.96-2.93-5.17-3.23c-0.05-0.01-0.09-0.04-0.21-0.1c1.56-0.97,3.19-1.68,4.81-2.41
						c3.71-1.66,7.6-2.78,11.44-4.08c0.67-0.23,1.32-0.51,1.97-0.79c1.21-0.52,1.79-1.47,1.74-2.77c-0.02-0.49,0.04-0.74,0.37-0.72
						c0.11,0.01,0.25,0.04,0.43,0.11c2.82,1.05,5.71,1.73,8.75,1.72c0.28,0,0.57-0.01,0.62,0.37c0.22,1.56,0.45,3.11,0.29,4.7
						c-0.16,1.61-1.16,2.65-2.31,3.6c-2.15,1.76-4.56,3.16-6.79,4.81c-0.79,0.58-1.56,1.18-2.27,1.87c-0.11,0.11-0.2,0.19-0.3,0.21
						C113.92,228.55,113.81,228.5,113.66,228.37z M103.25,130.53c2.2-4.89,5.04-9.46,8.08-13.87c1.16-1.69,2.35-3.35,3.55-5.02
						c0.37-0.47,0.73-0.93,1.11-1.4c0.08-0.09,0.14-0.19,0.21-0.29c0-0.05,0-0.11,0-0.16c0.2-0.27,0.4-0.55,0.59-0.82
						c0.61-0.84,1.2-1.69,1.74-2.55c0.04-0.01,0.07-0.03,0.1-0.03c0.36-0.64,0.69-1.28,0.99-1.94c0.06-0.12,0.11-0.25,0.17-0.37
						c0.06-0.15,0.13-0.3,0.18-0.45c0.13-0.34,0.25-0.68,0.36-1.03c0.02-0.06,0.04-0.12,0.06-0.18c0.12-0.44,0.23-0.89,0.3-1.36
						c0.02-0.11,0.04-0.21,0.06-0.32c0.11-0.58-0.26-1.37,0.2-1.71c0.27-0.2,0.61-0.26,0.97-0.27c0.18-0.01,0.36,0,0.54,0
						c0.19,0,0.37,0,0.55-0.01c2.65-0.2,5.23-0.69,7.58-2.01c1.7-0.96,3.22-2.14,4.23-3.86c0.39-0.66,0.65-1.36,0.68-2.15
						c0.04-1.02-0.34-1.79-1.18-2.36c-1.12-0.76-2.35-1.36-3.41-2.24c-0.59-0.49-0.88-1.01-0.88-1.8c0-2.44,0.52-4.75,1.49-6.97
						c0.22-0.51,0.47-0.98,0.74-1.42c0.01-0.01,0.01-0.02,0.02-0.03c0.27-0.43,0.56-0.83,0.87-1.2c0,0,0.01-0.01,0.01-0.01
						c0.64-0.75,1.37-1.39,2.18-1.92c0,0,0,0,0,0c1.34-0.88,2.9-1.47,4.65-1.8c1.01-0.19,2.03-0.39,3.02-0.34
						c5.46-0.01,9.34,2.46,11.71,6.97c0.1,0.2,0.2,0.4,0.3,0.61c0.07,0.14,0.14,0.28,0.21,0.43c0.03,0.07,0.06,0.14,0.09,0.21
						c-0.06,0.21-0.07,0.45,0.04,0.69c1.59,3.65,1.69,7.83,0.52,11.61c-2.68,8.66-12.63,10.89-16.3,18.86
						c-1.63,3.54-1.74,7.82,0.44,11.15c-0.26,0.3-0.51,0.61-0.74,0.94c-1.3,1.88-1.31,3.98-0.02,5.52c0.6,0.72,1.37,1.16,2.27,1.36
						c0.59,0.13,0.78,0.47,0.84,1.02c0.66,6.05,1.65,12.05,2.71,18.05c0.59,3.34,1.23,6.68,1.98,9.99c0.1,0.44-0.06,0.79-0.23,1.17
						c-1.23,2.56-1.97,5.24-1.84,8.11c0.18,4.01,1.69,7.44,4.59,10.23c0.29,0.28,0.62,0.57,0.99,0.71c0.88,0.35,1.25,0.98,1.48,1.86
						c0.27,1.05,0.69,2.06,1.12,3.06c0.25,0.59,0.27,1.13,0.12,1.73c-2.42,9.61-10.63,18.53-21.76,20.04
						c-1.53,0.21-3.04,0.32-4.53,0.35c-6.47,0.09-12.56-1.61-18.12-5.51c-4.18-2.93-6.79-7.07-8.67-11.71
						c-1.96-4.84-3.11-9.89-3.65-15.09c-0.49-4.73-0.49-9.45-0.15-14.17c0.66-9.01,2.53-17.74,5.91-26.14
						c0.23-0.58,0.48-1.16,0.74-1.73C103.13,130.81,103.18,130.67,103.25,130.53z M109.36,93.8c2.74,0.09,5.49,0.21,8.23,0.27
						c0.53,0.01,1.07,0.01,1.6,0.01c3.72-0.03,7.38-0.47,10.87-2c1.05-0.46,2.05-1.01,2.95-1.73c0.11-0.09,0.21-0.15,0.3-0.18
						c0.26-0.08,0.39,0.11,0.43,0.51c0.06,0.6-0.18,1.12-0.53,1.59c-1.78,2.35-4.23,3.61-7.05,4.23c-1.29,0.29-2.57,0.44-3.83,0.49
						c-3.79,0.13-7.46-0.77-11.07-2.2c-0.65-0.26-1.29-0.55-1.94-0.83L109.36,93.8z M120.52,76.21c1.29,0,1.29,2,0,2
						C119.23,78.21,119.23,76.21,120.52,76.21z M112.49,92.57c-3.17,0-6.34,0.1-9.69,0.48c1.07-1.13,2.18-1.81,3.36-2.36
						c4.87-2.29,9.83-4.4,14.57-6.95c0.8-0.43,1.56-0.63,2.28-0.64c1.2,0,2.31,0.54,3.39,1.48c1.74,1.52,3.32,3.22,5.32,4.43
						c0.51,0.31,0.13,0.46-0.12,0.61c-2.23,1.37-4.64,2.25-7.23,2.62c-1.97,0.28-3.96,0.36-5.94,0.37
						C116.46,92.62,114.47,92.56,112.49,92.57C112.49,92.57,112.49,92.57,112.49,92.57C112.49,92.57,112.49,92.57,112.49,92.57z
						 M142.85,121.37c6.63-5.46,13.82-9.95,22.04-12.61c1.59-0.52,3.22-0.86,4.86-0.83c0.99,0.02,1.98,0.17,2.98,0.5
						c2.2,0.72,3.47,2.38,4.46,4.3c1.04,2,1.54,4.18,1.79,6.41c0.07,0.61,0.3,1.21,0.1,1.91c-2.25-1.22-4.57-1.45-6.96-1.42
						c-0.34,0-0.69,0.01-1.03,0.03c-6.79,0.25-13.03,2.51-19.21,5.06c-2.64,1.09-5.3,2.13-8.18,2.43c-0.29,0.03-0.58,0.04-0.86,0.02
						c-0.28-0.02-0.56-0.06-0.83-0.14c-1.5-0.39-2.08-1.88-1.3-3.32C141.22,122.75,142.04,122.04,142.85,121.37z M168.24,164.67
						c-2.05,0.79-4.15,1.48-6.21,2.26c-3.31,1.27-5.55,3.55-6.47,7.03c-0.19,0.73-0.42,1.47-0.83,2.12
						c-0.39,0.62-0.89,0.96-1.48,1.01c-0.35,0.03-0.73-0.05-1.12-0.23c-1.05-0.49-1.78-1.34-2.44-2.25
						c-3.31-4.58-3.39-9.43-1.07-14.43c0.99-2.14,2.41-4,4.04-5.7c1.79-1.87,3.6-3.72,5.31-5.65c2.1-2.38,2.98-5.16,2.58-8.38
						c-0.32-2.63-1.27-4.99-2.55-7.26c-0.2-0.35-0.43-0.7-0.8-0.71c-0.12-0.01-0.26,0.02-0.42,0.1c-0.65,0.32-0.54,0.87-0.3,1.4
						c0.73,1.67,1.59,3.28,1.99,5.08c0.76,3.45,0.15,6.51-2.39,9.12c-2.22,2.28-4.37,4.63-6.54,6.97c-0.38,0.41-0.7,0.88-1.21,1.52
						c-0.44-2.39-0.88-4.54-1.23-6.7c-0.83-5.09-1.64-10.19-2.41-15.29c-0.25-1.64-0.35-3.3-0.56-4.94
						c-0.05-0.44,0.06-0.65,0.5-0.72c3.91-0.64,7.48-2.28,11.09-3.77c4.2-1.73,8.53-2.96,13.04-3.44c1.24-0.13,2.48-0.23,3.73-0.21
						c1.25,0.02,2.49,0.15,3.73,0.47c0.9,0.23,1.59,0.66,2.09,1.43c3.57,5.57,6.44,11.44,7.48,18.04c0.85,5.35-0.7,10.07-4.07,14.3
						C178.18,160.29,173.36,162.69,168.24,164.67z M99.74,128.31c0.81-0.23,1.61-0.49,2.58-0.79c-0.95,2.14-1.84,4.15-2.63,6.2
						c-1.95,5.07-3.19,10.33-4.18,15.65c-0.12,0.66-0.16,0.92-0.43,0.94c-0.16,0.01-0.4-0.06-0.79-0.18
						c-1.25-0.38-2.48-0.8-3.74-1.17c-0.54-0.16-0.76-0.44-0.84-1.02c-0.53-3.96-1.12-7.91-1.69-11.86
						c-0.07-0.51-0.16-1.02-0.24-1.53c-0.09-0.59,0-1.12,0.35-1.62c0.72-1.06,1.38-2.16,1.72-3.41c0.1-0.37,0.3-0.43,0.55-0.43
						c0.08,0,0.17,0.01,0.26,0.01c0.76,0.03,1.53,0.05,2.29,0.04C95.24,129.14,97.51,128.93,99.74,128.31z M96.25,212.21
						c-0.43,0.03-0.74,0.05-0.99,0.04c-0.73-0.04-0.77-0.37-0.96-1.64c-0.59-4.11-1.22-8.22-1.84-12.33
						c-0.71-4.75-1.49-9.5-2.11-14.26c-0.52-4.04-1.21-8.06-1.8-12.09c-0.49-3.36-0.94-6.72-1.43-10.08
						c-0.56-3.82-1.14-7.63-1.71-11.44c-0.41-2.71-0.78-5.43-1.22-8.14c-0.37-2.27,0.75-4.02,1.93-5.99
						c1.08,7.62,2.18,15,3.31,22.38c1.1,7.22,2.1,14.46,3.16,21.69c1.19,8.17,2.4,16.34,3.59,24.51c0.31,2.1,0.61,4.19,0.93,6.28
						C97.21,211.84,96.95,212.16,96.25,212.21z M82.47,144.25c-0.98-0.4-1.53-1.08-2.07-1.75c-2.11-2.63-3.58-5.51-3.45-9
						c0.09-2.28,1-4.16,2.87-5.5c1.66-1.19,3.42-2.26,5.55-2.3c1.96-0.04,3.14,1.68,2.43,3.51c-0.5,1.27-1.27,2.4-1.99,3.55
						c-0.99,1.59-1.99,3.18-2.8,4.87c-0.89,1.86-1.18,3.77-0.64,5.78C82.44,143.64,82.43,143.89,82.47,144.25z M78.47,99.14
						c0.48-0.06,0.96-0.15,1.45-0.22c0.51-0.07,0.65,0.24,0.71,0.67c0.48,3.19,0.99,6.38,1.46,9.58c0.67,4.59,1.31,9.19,1.97,13.78
						c0.02,0.13,0.02,0.27,0.03,0.41c0,0.16,0.09,0.37-0.1,0.44c-0.71,0.26-1.43,0.51-2.16,0.71c-0.26,0.06-0.22-0.24-0.25-0.41
						c-0.65-4.32-1.3-8.64-1.95-12.96c-0.56-3.7-1.13-7.4-1.74-11.1C77.79,99.46,77.91,99.2,78.47,99.14z M81.43,95.83
						c0.12,0.58-0.07,1.03-0.68,1.2c-1.15,0.32-2.33,0.51-3.52,0.6c-0.76,0.05-1.08-0.45-1.16-1.1c-0.08-0.65,0.44-0.81,0.94-0.89
						c1.12-0.19,2.25-0.35,3.37-0.53C80.92,95.11,81.32,95.28,81.43,95.83z M93.55,215.06c-0.09-0.7,0.45-0.85,1.04-0.98
						c1.12-0.24,2.26-0.24,3.38-0.41c0.5-0.08,0.82,0.24,0.93,0.71c0.11,0.49-0.07,0.85-0.59,0.99c-1.15,0.32-2.34,0.4-3.44,0.58
						C94.16,215.97,93.64,215.72,93.55,215.06z M163.57,213.47c1.47-1.18,2.68-2.49,3.6-4.04c0.09-0.16,0.18-0.22,0.26-0.22
						c0.13,0,0.24,0.15,0.35,0.28c1.66,1.85,3.51,3.49,5.75,5.01C170.07,214.5,166.89,213.93,163.57,213.47z M186.5,216.59
						c-6.08-0.39-11.49-2.46-15.94-6.77c-3.87-3.74-6.63-8.27-9.24-12.9c-3.07-5.44-5.42-11.21-7.71-17.01
						c-0.24-0.62-0.15-0.82,0.52-0.98c1.15-0.28,1.88-1.15,2.42-2.16c0.38-0.7,0.6-1.46,0.8-2.22c0.7-2.74,2.4-4.56,4.98-5.65
						c2.68-1.14,5.52-1.86,8.19-3.02c3.4-1.48,6.73-3.09,9.6-5.49c0.05-0.05,0.14-0.05,0.26-0.09c0.5,2.85,1.04,5.67,1.69,8.47
						c2.25,9.62,5.92,18.67,11.08,27.08c2.02,3.29,4.3,6.43,7.31,8.94c1.39,1.16,2.98,2,4.61,2.77c0.64,0.3,1.27,0.62,1.83,1.06
						c0.52,0.41,0.64,0.9,0.29,1.51c-0.71,1.25-1.8,2.1-2.99,2.84c-3.04,1.87-6.41,2.8-9.9,3.34c-1.95,0.3-3.9,0.41-5.86,0.38
						C187.8,216.66,187.15,216.63,186.5,216.59z M130.64,55.72c0.23-1.43,0.43-2.87,0.06-4.36c-0.05-0.22-0.04-0.41,0.09-0.61
						c1.1-1.71,1.04-3.68,1.26-5.58c0.41-3.66,0.13-7.37-0.39-11.19c2.81,2.98,5.18,6.05,7.53,9.13c0.88,1.15,1.71,2.31,2.56,3.46
						c0.62,0.84,1.12,0.87,1.7,0.1c4.13-5.49,8.25-10.98,12.38-16.47c0.19-0.25,0.37-0.5,0.67-0.9c0.37,1.48,0.71,2.83,1.05,4.17
						c1.4,5.57,2.79,11.14,4.19,16.7c0.03,0.12,0.06,0.23,0.09,0.35c0.26,0.87,0.67,1.02,1.49,0.53c1.63-0.97,3.21-2.01,4.91-2.91
						c3.06-1.6,6.19-3.12,9.36-4.71c-0.51,0.93-1.01,1.85-1.51,2.76c-1.87,3.38-3.32,6.89-3.95,10.66c-0.1,0.63-0.15,1.27,0.04,1.9
						c0.17,0.57,0.07,1.05-0.2,1.55c-1.61,3.04-2.27,6.3-2.3,9.69c0,0.07-0.02,0.13-0.04,0.22c-5.98-3.8-12.79-5.75-19.8-7.26
						c-6.98-1.51-13.96-2.53-21.02-1.36C129.62,59.64,130.32,57.72,130.64,55.72z M127.56,63.34c2.07-0.97,4.44-1.12,6.84-1.15
						c3.26-0.04,6.51,0.31,9.77,0.82c1.56,0.24,3.1,0.54,4.64,0.84c5.61,1.23,11.14,2.69,16.31,5.11c1.28,0.6,2.48,1.29,3.6,2.09
						c0.6,0.43,1.12,0.91,1.45,1.49c0.21,0.36,0.4,0.8,0.2,1.21c-0.16,0.33-0.42,0.66-0.72,0.87c-0.06,0.04-0.13,0.08-0.19,0.12
						c-1.5-1.91-3.54-3.3-5.67-4.44c-2.59-1.39-5.34-2.45-8.13-3.34c-4.13-1.32-8.36-2.18-12.66-2.63
						c-0.19-0.02-0.39-0.04-0.58-0.06c-3.2-0.3-6.43-0.39-9.64-0.09c-1.6,0.15-3.2,0.39-4.77,0.74c-0.41,0.09-0.8,0.2-1.19,0.32
						c0-0.01,0-0.01-0.01-0.01C126.4,64.31,126.56,63.81,127.56,63.34z M122.64,70.28c1.65-2.15,3.95-2.99,6.53-3.43
						c4.57-0.79,9.14-0.83,13.73-0.32c6.95,0.77,13.62,2.5,19.87,5.7c1.48,0.76,2.9,1.62,4.17,2.7c0.56,0.47,0.95,1.03,1.25,1.69
						c1.37,3.07,1.97,6.32,2.14,9.66c0.02,0.42,0.02,0.84,0.03,1.26c0.02,0.77,0.04,1.55,0.04,2.32c0,0.12-0.01,0.23-0.01,0.35
						c-0.01,0.92-0.03,1.83-0.06,2.75c-0.08,2.07-0.19,4.14-0.24,6.21c-0.05,1.96,0.09,3.91,0.36,5.86c0.06,0.46,0.08,0.8-0.55,0.81
						c-3.46,0.07-6.7,1.07-9.84,2.42c-6.29,2.69-12.06,6.28-17.39,10.55c-0.39,0.31-0.77,0.63-1.15,0.96
						c-2.11-3.68-1-8.17,1.46-11.47c2.77-3.71,6.97-5.74,10.23-8.92c4.82-4.7,6.52-11.87,4.8-18.26c0-0.02-0.01-0.04-0.02-0.06
						c0-0.02-0.01-0.03-0.02-0.05c-0.14-0.54-0.3-1.07-0.49-1.59c-0.07-0.2-0.15-0.39-0.23-0.59c-0.09-0.22-0.17-0.45-0.26-0.67
						c-0.01,0-0.02,0-0.03-0.01c-0.62-1.39-1.41-2.74-2.43-4.02c-2.35-2.95-5.41-4.61-9.16-5.1c-2.59-0.34-5.1-0.05-7.57,0.7
						c-4,1.2-6.56,3.91-8.01,7.76c-0.77,2.03-1.11,4.14-1.33,6.39c-0.74-0.52-1.37-0.98-2.02-1.41c-1.11-0.74-2.31-1.23-3.67-1.15
						c0,0,0,0-0.01,0c-0.08,0-0.15,0-0.21,0c-0.43-0.03-0.42-0.31-0.3-0.74c0.44-1.51,0.9-3.03,1.05-4.6c0-0.05,0-0.1,0.01-0.15
						c0.04-0.42,0.06-0.85,0.05-1.26c0-0.02,0-0.05,0-0.07c0,0,0,0-0.01,0c-0.02-1.18-0.26-2.32-0.96-3.37
						C122.13,70.69,122.45,70.52,122.64,70.28z M121.41,72.49c0.25,0.06,0.3,0.31,0.34,0.52c0.08,0.41,0.15,0.82,0.19,1.25
						c0.02,0.17,0.02,0.35,0.03,0.52c0,0.12,0.01,0.23,0.01,0.35c0,0.14-0.02,0.29-0.03,0.44c-0.01,0.14-0.01,0.27-0.03,0.41
						c-0.53-0.55-0.96-1-1.63-1.08c-0.27-0.03-0.25-0.23-0.19-0.43c0.08-0.27,0.19-0.53,0.3-0.79c0,0,0,0,0,0
						c0.13-0.29,0.27-0.57,0.44-0.84C120.95,72.64,121.13,72.43,121.41,72.49z"/>
					<path d="M194.89,208.86c0.01-0.33-0.25-0.38-0.49-0.44c-0.21-0.05-0.42-0.11-0.63-0.16c-2.07-0.49-4.07-1.19-5.96-2.18
						c-5.17-2.73-9.17-6.78-12.54-11.47c-3.6-5.01-5.99-10.66-8.06-16.44c-0.1-0.28-0.22-0.56-0.34-0.83
						c-0.06-0.12-0.14-0.21-0.27-0.22c-0.04,0-0.08,0-0.13,0.01c-0.2,0.06-0.23,0.24-0.2,0.4c0.05,0.32,0.12,0.64,0.21,0.95
						c2.26,7.26,5.39,14.05,10.27,19.97c3.56,4.32,7.81,7.62,13.08,9.56c1.43,0.52,2.89,0.94,4.3,1.19c0,0,0,0,0,0c0,0,0,0,0,0
						C194.66,209.2,194.89,209.09,194.89,208.86z"/>
					<path d="M138.01,83.44c0.46,0.63,1.11,0.94,1.79,0.98c0.68,0.04,1.4-0.17,2.01-0.58c1.13-0.76,1.86-1.99,2.14-3.31
						c0.27-1.26,0.19-2.67-0.48-3.8c-0.54-0.91-1.47-1.42-2.46-1.42c-0.33,0-0.67,0.06-1,0.18c-1.57,0.58-2.42,2.19-2.74,3.75
						c-0.25,1.21-0.15,2.52,0.42,3.6C137.78,83.06,137.88,83.26,138.01,83.44z M141.75,79.33c-1.29,0-1.29-2,0-2
						C143.04,77.33,143.03,79.33,141.75,79.33z"/>
					<path class="st1" d="M141.75,79.33c1.29,0,1.29-2,0-2C140.46,77.33,140.46,79.33,141.75,79.33z"/>
					<path class="st1" d="M120.52,78.21c1.29,0,1.29-2,0-2C119.23,76.21,119.23,78.21,120.52,78.21z"/>
					<path d="M149.1,60.58c0.77,1.29,1.01,1.35,2.18,0.42c2.35-1.86,4.5-3.86,6.42-6.03c0.21-0.24,0.43-0.47,0.47-0.8
						c0.13-0.34-0.04-0.69-0.17-1.03c-1.09-2.81-2.4-5.58-3.61-8.37c-0.12-0.27-0.25-0.55-0.44-0.8c-0.29-0.37-0.64-0.5-1.05-0.15
						c-2.65,2.28-5.18,4.64-7.23,7.33c-0.31,0.41-0.39,0.84-0.25,1.33C146.24,55.27,147.55,57.96,149.1,60.58z M146.78,51.86
						c1.76-2.4,4.01-4.48,6.41-6.67c1.19,2.78,2.31,5.39,3.42,7.99c0.22,0.52,0.12,0.99-0.25,1.39c-1.76,1.89-3.8,3.58-5.73,5.36
						c-0.33,0.3-0.5,0.16-0.66-0.16c-1.15-2.37-2.33-4.74-3.25-7.16C146.62,52.35,146.6,52.1,146.78,51.86z"/>
					<path d="M135.11,57.23c1.12-1.3,2.02-2.71,2.96-4.1c0.29-0.42,0.36-0.78,0.12-1.25c-0.87-1.71-1.91-3.36-2.97-5.01
						c-0.41-0.64-0.88-0.66-1.23-0.07c-0.93,1.56-1.51,3.25-2.21,4.83c-0.11,0.57-0.01,1.09,0.14,1.61c0.4,1.38,1.28,2.61,2.06,3.88
						C134.41,57.83,134.58,57.84,135.11,57.23z M133.44,50.93c0.47-0.83,0.72-1.76,1.07-2.64c0.08,0.01,0.15,0.03,0.23,0.04
						c0.74,1.19,1.48,2.39,2.22,3.59c0.11,0.18,0.21,0.36,0.08,0.54c-0.76,1.13-1.38,2.33-2.43,3.47
						C133.75,54.22,132.42,52.72,133.44,50.93z"/>
					<path d="M165.13,63.5c0.18,0.63,0.52,0.75,1.08,0.38c1.22-0.81,2.46-1.62,3.48-2.61c0.45-0.43,0.84-0.9,0.97-1.53
						c0-0.06,0.01-0.15,0.01-0.24c-0.07-1.72-0.13-3.44-0.23-5.16c-0.04-0.62-0.49-0.79-1.1-0.4c-1.77,1.12-3.46,2.32-4.99,3.67
						c-0.25,0.23-0.39,0.48-0.33,0.82C164.32,60.11,164.65,61.81,165.13,63.5z M165.46,58.03c1.23-0.9,2.46-1.8,3.82-2.79
						c0.07,1.47,0.15,2.79,0.19,4.1c0.01,0.37-0.22,0.67-0.48,0.93c-0.81,0.83-1.78,1.53-2.81,2.26c-0.45-1.37-0.66-2.69-0.9-4
						C165.25,58.34,165.28,58.16,165.46,58.03z"/>
				</g>
			</g>
			<g>
				<path class="st3" d="M77.1,72.05c-0.6-0.56-1.19-1.12-1.77-1.69c-0.45-0.44-0.97-1.11-1.68-0.88c-0.61,0.2-0.76,0.85-0.94,1.39
					c-0.25,0.75-0.53,1.49-0.83,2.22c-1.22,2.96-2.83,5.73-4.5,8.45c-1.89,3.09-3.85,6.15-5.5,9.38c-0.06,0.12-0.07,0.23-0.05,0.32
					c-0.08,0.21-0.04,0.46,0.18,0.64c6.25,4.95,12.34,10.1,18.26,15.44c0.28,0.25,0.73,0.04,0.85-0.26
					c3-7.68,7.24-14.82,12.53-21.15c0.19-0.23,0.1-0.63-0.14-0.79C87.71,81.2,82.21,76.84,77.1,72.05z"/>
				<path class="st7" d="M92.28,85.32c-0.09-0.04-0.17-0.08-0.25-0.12c-0.03-0.15-0.11-0.28-0.23-0.35
					c-1.7-1.01-3.31-2.17-4.87-3.39c-1.14-0.99-2.28-1.99-3.42-2.98c-3.04-2.65-6.08-5.31-9.12-7.96c-0.49-0.43-1.15,0.34-0.76,0.82
					c2.39,2.91,5.44,5.21,8.34,7.58c1.42,1.16,2.83,2.33,4.28,3.45c0.44,0.39,0.89,0.78,1.34,1.16c0.91,0.78,1.86,1.5,2.89,2.11
					c-4.78,5.73-8.78,12.08-11.9,18.86c-0.19,0.41,0.15,0.72,0.5,0.73c-0.01,0.52,0.18,1.01,0.67,1.3c0.29,0.17,0.75,0.12,0.85-0.26
					c0.69-2.44,1.9-4.65,3.17-6.82c1.36-2.32,2.73-4.63,4.09-6.95c0.09-0.16,0.1-0.32,0.06-0.46c1.46-2.01,3-3.96,4.61-5.86
					C92.79,85.88,92.58,85.46,92.28,85.32z"/>
				<path class="st8" d="M69.62,88.77c0.3-0.57,0.61-1.15,0.91-1.72c0.58-1.11,1.17-2.21,1.75-3.32c1.19-2.25,2.38-4.51,3.57-6.76
					c0.36-0.67-0.18-1.57-0.83-1.82c-0.79-0.3-1.46,0.15-1.82,0.83c-2.29,4.34-4.63,8.66-6.88,13.02c-0.3,0.57-0.44,1.15-0.14,1.77
					c0.25,0.53,0.76,0.89,1.18,1.28c0.89,0.83,1.79,1.67,2.68,2.5c1.85,1.73,3.71,3.47,5.56,5.2c0.56,0.52,1.36,0.7,1.99,0.17
					c0.53-0.45,0.73-1.46,0.17-1.99l-4.64-4.33c-0.76-0.71-1.51-1.41-2.27-2.12c-0.38-0.35-0.76-0.71-1.13-1.06
					c-0.17-0.16-0.47-0.38-0.71-0.59c0.08-0.13,0.17-0.26,0.21-0.34C69.37,89.26,69.5,89.02,69.62,88.77z"/>
				<path class="st1" d="M71.55,79.56c-1.79,3.6-3.74,7.13-5.82,10.57c-0.37,0.62,0.55,1.27,0.92,0.65
					c2.13-3.52,4.12-7.13,5.96-10.82C72.93,79.31,71.87,78.92,71.55,79.56z"/>
				<path class="st1" d="M73.9,77.11c0.08-0.12,0.12-0.27,0.09-0.42c-0.02-0.14-0.11-0.29-0.23-0.37c-0.12-0.08-0.27-0.13-0.42-0.09
					c-0.14,0.03-0.28,0.1-0.36,0.23c-0.3,0.45-0.49,0.97-0.54,1.51c-0.01,0.15,0.04,0.31,0.13,0.42c0.09,0.1,0.24,0.19,0.38,0.2
					c0.15,0.01,0.31-0.03,0.42-0.13c0.11-0.1,0.18-0.23,0.2-0.38c0.01-0.09,0.03-0.18,0.04-0.27c0.05-0.19,0.12-0.37,0.2-0.54
					C73.83,77.22,73.86,77.16,73.9,77.11z"/>
				<path class="st1" d="M73.33,97.48c-1.32-1.08-2.56-2.25-3.71-3.51c-0.21-0.22-0.56-0.27-0.8-0.07c-0.23,0.19-0.27,0.57-0.07,0.8
					c1.22,1.33,2.53,2.57,3.92,3.7c0.24,0.19,0.62,0.1,0.79-0.14C73.65,98,73.56,97.67,73.33,97.48z"/>
				<path d="M93.5,85.12c-5.8-3.92-11.3-8.29-16.41-13.07c-0.6-0.56-1.19-1.12-1.77-1.69c-0.45-0.44-0.97-1.11-1.68-0.88
					c-0.61,0.2-0.76,0.85-0.94,1.39c-0.25,0.75-0.53,1.49-0.83,2.22c-1.22,2.96-2.83,5.73-4.5,8.45c-1.89,3.1-3.85,6.15-5.5,9.38
					c-0.06,0.12-0.07,0.23-0.05,0.32c-0.08,0.21-0.04,0.46,0.18,0.64c6.25,4.95,12.34,10.1,18.26,15.44
					c0.28,0.25,0.73,0.04,0.85-0.26c3-7.68,7.24-14.82,12.53-21.15C93.83,85.68,93.74,85.28,93.5,85.12z M80.37,105.92
					c-5.64-5.07-11.44-9.98-17.39-14.69c2.74-5.34,6.36-10.18,8.98-15.59c0.65-1.35,1.24-2.73,1.72-4.15
					c0.01-0.04,0.26-0.9,0.26-0.9c0.13-0.03,0.67,0.65,0.79,0.77c0.62,0.6,1.24,1.19,1.87,1.77c2.37,2.2,4.81,4.31,7.32,6.33
					c2.73,2.19,5.54,4.27,8.43,6.24C87.36,91.79,83.31,98.62,80.37,105.92z"/>
			</g>
		</g>
		<g>
			<g>
				<g>
					<path class="st3" d="M71.13,42.07c0.14,0,0.22,0.11,0.3,0.2c0.91,0.97,1.79,1.98,2.65,2.99c1.65,1.93,3.36,3.81,5.04,5.71
						c1.04,1.18,2.08,2.36,3.12,3.54c0.16,0.18,0.15,0.32-0.01,0.5c-3.38,3.86-6.82,7.67-10.16,11.55
						c-0.24,0.28-0.49,0.54-0.73,0.82c-0.16,0.18-0.29,0.18-0.45,0c-2.43-2.77-4.85-5.53-7.28-8.3c-1.15-1.31-2.31-2.63-3.46-3.94
						c-0.34-0.39-0.33-0.41,0.01-0.79c2.26-2.48,4.44-5.02,6.67-7.53c1.34-1.51,2.67-3.03,4.01-4.54
						C70.91,42.19,70.98,42.08,71.13,42.07z M74.3,56.46c0.01-0.49-0.04-0.99-0.13-1.47c-0.14-0.79-0.35-1.57-0.91-2.19
						c-0.57-0.64-1.23-0.73-1.97-0.32c-1.24,0.7-1.84,1.81-2.12,3.15c-0.38,1.8-1.23,3.36-2.52,4.67c-0.12,0.12-0.12,0.18,0,0.3
						c1.12,1.15,2.34,2.19,3.64,3.12c0.14,0.1,0.24,0.12,0.38,0.02c1.02-0.71,1.89-1.57,2.52-2.64
						C74.04,59.68,74.26,58.09,74.3,56.46z M76.54,59.07c0.03-0.02,0.05-0.03,0.06-0.05c0.04-0.21,0.11-0.41,0.13-0.62
						c0.1-1.51-0.03-2.99-0.73-4.37c-0.35-0.7-0.77-1.36-1.16-2.04c-0.21-0.37-0.16-0.48,0.24-0.61c0.36-0.12,0.73-0.17,1.1-0.23
						c0.31-0.05,0.37-0.15,0.33-0.45c-0.01-0.11-0.06-0.2-0.11-0.29c-0.32-0.51-0.74-0.93-1.3-1.16c-0.41-0.17-0.67-0.43-0.87-0.82
						c-0.98-1.98-3.34-2.29-4.87-1.11c-0.9,0.69-1.36,1.63-1.44,2.74c-0.08,1.15-0.43,2.18-1.1,3.12c-0.52,0.72-0.96,1.49-1.25,2.34
						c-0.28,0.84-0.51,1.68-0.44,2.58c0.03,0.33,0.05,0.67,0.19,1.06c0.11-1.04,0.31-1.98,0.66-2.88c0.46-1.2,1.16-2.27,1.84-3.34
						c0.3-0.47,0.52-0.96,0.63-1.52c0.1-0.53,0.08-1.08,0.17-1.61c0.35-2.03,1.8-2.79,3.67-2.26c0.86,0.24,1.42,0.83,1.71,1.68
						c0.07,0.2,0.18,0.34,0.4,0.41c0.37,0.12,0.68,0.36,0.95,0.64c0.26,0.28,0.22,0.45-0.14,0.56c-0.35,0.11-0.71,0.19-1.07,0.26
						c-0.25,0.04-0.3,0.18-0.25,0.39c0.03,0.12,0.09,0.23,0.14,0.35c0.26,0.52,0.6,0.99,0.9,1.48c0.7,1.17,1.23,2.4,1.45,3.76
						C76.49,57.72,76.52,58.39,76.54,59.07z M71.98,49.13c-0.25-0.01-0.49,0.23-0.5,0.49c-0.01,0.25,0.2,0.48,0.46,0.5
						c0.28,0.02,0.5-0.19,0.51-0.47C72.46,49.38,72.24,49.14,71.98,49.13z"/>
				</g>
			</g>
			<g>
				<g>
					<path class="st3" d="M212.34,241.84c-0.14,0-0.22-0.11-0.3-0.2c-0.91-0.97-1.79-1.98-2.65-2.99c-1.65-1.93-3.36-3.81-5.04-5.71
						c-1.04-1.18-2.08-2.36-3.12-3.54c-0.16-0.18-0.15-0.32,0.01-0.5c3.38-3.86,6.82-7.67,10.16-11.55
						c0.24-0.28,0.49-0.54,0.73-0.82c0.16-0.18,0.29-0.18,0.45,0c2.43,2.77,4.85,5.53,7.28,8.3c1.15,1.31,2.31,2.63,3.46,3.94
						c0.34,0.39,0.33,0.41-0.01,0.79c-2.26,2.48-4.44,5.02-6.67,7.53c-1.34,1.51-2.67,3.03-4.01,4.54
						C212.55,241.71,212.48,241.83,212.34,241.84z M209.17,227.45c-0.01,0.49,0.04,0.99,0.13,1.47c0.14,0.79,0.35,1.57,0.91,2.19
						c0.57,0.64,1.23,0.73,1.97,0.32c1.24-0.7,1.84-1.81,2.12-3.15c0.38-1.8,1.23-3.36,2.52-4.67c0.12-0.12,0.12-0.18,0-0.3
						c-1.12-1.15-2.34-2.19-3.64-3.12c-0.14-0.1-0.24-0.12-0.38-0.02c-1.02,0.71-1.89,1.57-2.52,2.64
						C209.43,224.23,209.21,225.82,209.17,227.45z M206.93,224.83c-0.03,0.02-0.05,0.03-0.06,0.05c-0.04,0.21-0.11,0.41-0.13,0.62
						c-0.1,1.51,0.03,2.99,0.73,4.37c0.35,0.7,0.77,1.36,1.16,2.04c0.21,0.37,0.16,0.48-0.24,0.61c-0.36,0.12-0.73,0.17-1.1,0.23
						c-0.31,0.05-0.37,0.15-0.33,0.45c0.01,0.11,0.06,0.2,0.11,0.29c0.32,0.51,0.74,0.93,1.3,1.16c0.41,0.17,0.67,0.43,0.87,0.82
						c0.98,1.98,3.34,2.29,4.87,1.11c0.9-0.69,1.36-1.63,1.44-2.74c0.08-1.15,0.43-2.18,1.1-3.12c0.52-0.72,0.96-1.49,1.25-2.34
						c0.28-0.84,0.51-1.68,0.44-2.58c-0.03-0.33-0.05-0.67-0.19-1.06c-0.11,1.04-0.31,1.98-0.66,2.88c-0.46,1.2-1.16,2.27-1.84,3.34
						c-0.3,0.47-0.52,0.96-0.63,1.52c-0.1,0.53-0.08,1.08-0.17,1.61c-0.35,2.03-1.8,2.79-3.67,2.26c-0.86-0.24-1.42-0.83-1.71-1.68
						c-0.07-0.2-0.18-0.34-0.4-0.41c-0.37-0.12-0.68-0.36-0.95-0.64c-0.26-0.28-0.22-0.45,0.14-0.56c0.35-0.11,0.71-0.19,1.07-0.26
						c0.25-0.04,0.3-0.18,0.25-0.39c-0.03-0.12-0.09-0.23-0.14-0.35c-0.26-0.52-0.6-0.99-0.9-1.48c-0.7-1.17-1.23-2.4-1.45-3.76
						C206.97,226.19,206.94,225.52,206.93,224.83z M211.48,234.78c0.25,0.01,0.49-0.23,0.5-0.49c0.01-0.25-0.2-0.48-0.46-0.5
						c-0.28-0.02-0.5,0.19-0.51,0.47C211.01,234.52,211.22,234.77,211.48,234.78z"/>
				</g>
			</g>
		</g>
		<g>
			<path class="st3" d="M80.28,26.32c-0.27-0.04-0.55-0.09-0.84-0.09c-0.91,0-1.57,0.51-2.35,1.29l-3.7,3.7l4.81,3.53
				c0.44,0.4,0.78,0.53,1.11,0.53s0.64-0.13,1.09-0.27l0.07,4.43c-0.69,0.27-1.55,0.42-2.39,0.42c-2.22,0-2.97-0.78-4.3-2.64
				l-2.93-4.15c-0.33-0.49-0.6-0.73-1.02-0.73h-0.44v4.43c0.4,0,0.71-0.02,1.29-0.09l0.53-0.07l0.18,2.84l-4.21-0.07l-4.43,0.07
				l-0.04-2.9l0.53,0.09c0.58,0.11,1.33,0.13,1.73,0.13V26.15c-0.4,0-1.15,0.02-1.73,0.13l-0.53,0.09l0.04-2.9l4.43,0.07l4.21-0.07
				l-0.18,2.86l-0.53-0.07c-0.58-0.07-0.89-0.11-1.29-0.11v3.55h1.77l2.35-2.35c0.38-0.38,0.8-0.8,0.8-1c0-0.09-0.04-0.11-0.18-0.11
				c-0.11,0-0.38,0.02-0.58,0.04l0.27-2.82l3.33,0.04l3.1-0.04L80.28,26.32z"/>
		</g>
		<g>
			<path class="st3" d="M203.61,257.13c0.27,0.04,0.55,0.09,0.84,0.09c0.91,0,1.57-0.51,2.35-1.29l3.7-3.7l-4.81-3.53
				c-0.44-0.4-0.78-0.53-1.11-0.53s-0.64,0.13-1.09,0.27l-0.07-4.43c0.69-0.27,1.55-0.42,2.39-0.42c2.22,0,2.97,0.78,4.3,2.64
				l2.93,4.15c0.33,0.49,0.6,0.73,1.02,0.73h0.44v-4.43c-0.4,0-0.71,0.02-1.29,0.09l-0.53,0.07l-0.18-2.84l4.21,0.07l4.43-0.07
				l0.04,2.9l-0.53-0.09c-0.58-0.11-1.33-0.13-1.73-0.13v10.64c0.4,0,1.15-0.02,1.73-0.13l0.53-0.09l-0.04,2.9l-4.43-0.07
				l-4.21,0.07l0.18-2.86l0.53,0.07c0.58,0.07,0.89,0.11,1.29,0.11v-3.55h-1.77l-2.35,2.35c-0.38,0.38-0.8,0.8-0.8,1
				c0,0.09,0.04,0.11,0.18,0.11c0.11,0,0.38-0.02,0.58-0.04l-0.27,2.82l-3.33-0.04l-3.1,0.04L203.61,257.13z"/>
		</g>
	</g>
</g>
</svg>
