<?xml version="1.0" encoding="utf-8"?>
<!-- Generator: Adobe Illustrator 24.0.1, SVG Export Plug-In . SVG Version: 6.00 Build 0)  -->
<svg version="1.1" xmlns="http://www.w3.org/2000/svg" xmlns:xlink="http://www.w3.org/1999/xlink" x="0px" y="0px"
	 viewBox="0 0 283.46 283.46" style="enable-background:new 0 0 283.46 283.46;" xml:space="preserve">
<style type="text/css">
	.st0{fill:#DBDDD9;}
	.st1{fill:#FFFFFF;}
	.st2{fill:none;stroke:#000000;stroke-width:3;stroke-miterlimit:10;}
	.st3{fill:#E30613;}
	.st4{fill:#894F28;}
	.st5{fill:#3E2215;}
	.st6{fill:#DEB27E;}
	.st7{opacity:0.25;fill:#312783;}
	.st8{opacity:0.53;fill:#F5F0DA;}
	.st9{fill:none;}
	.st10{fill:#EB941E;}
	.st11{fill:#1F201D;}
	.st12{fill:#E2E0DB;}
	.st13{fill:#B7B6B0;}
	.st14{fill:#2FAC66;}
	.st15{fill:#312783;}
	.st16{fill:#E94D2A;}
	.st17{fill:#F5EA61;}
	.st18{fill:#1D71B8;}
	.st19{fill:#2D3B49;}
</style>
<g id="bg">
</g>
<g id="CUT">
</g>
<g id="BACK">
</g>
<g id="ILLUSTRATION">
</g>
<g id="SYMBOLS">
</g>
<g id="CARDS">
	<g>
		<path class="st1" d="M217.23,267.73h-151c-8.01,0-14.5-6.49-14.5-14.5v-223c0-8.01,6.49-14.5,14.5-14.5h151
			c8.01,0,14.5,6.49,14.5,14.5v223C231.73,261.24,225.24,267.73,217.23,267.73z"/>
		<g>
			<g>
				<g>
					<g>
						<g>
							<path class="st1" d="M88.13,133.54c-0.11,0-0.22,0.01-0.34,0.01C87.91,133.55,88.02,133.54,88.13,133.54z"/>
							<polygon class="st1" points="90.08,133.44 90.08,133.44 90.08,133.45 90.08,133.44 							"/>
							<path class="st1" d="M87,141.27c0-0.1,0-0.21,0-0.31C87,141.06,87,141.16,87,141.27z"/>
							<path class="st1" d="M87.03,140.13c0.01-0.1,0.01-0.2,0.02-0.3C87.04,139.93,87.04,140.03,87.03,140.13z"/>
							<path class="st1" d="M87.54,137.61c0.01-0.04,0.03-0.07,0.04-0.11C87.57,137.54,87.55,137.57,87.54,137.61z"/>
							<path class="st1" d="M87.98,136.49c0.01-0.03,0.03-0.06,0.04-0.09C88.01,136.43,88,136.46,87.98,136.49z"/>
							<path class="st1" d="M95.32,151.76c0-0.02,0-0.03,0-0.05C95.31,151.72,95.31,151.74,95.32,151.76z"/>
							<path class="st1" d="M97.19,145.77c0,0.04-0.01,0.07-0.01,0.11C97.19,145.84,97.19,145.81,97.19,145.77z"/>
							<path class="st1" d="M97.22,145.57c0-0.03,0.01-0.05,0.01-0.07c0,0,0,0,0,0C97.22,145.52,97.22,145.55,97.22,145.57z"/>
							<path class="st1" d="M106.85,148.27c-0.17,0.03-0.34,0.05-0.52,0.08C106.51,148.32,106.68,148.29,106.85,148.27z"/>
							<path class="st1" d="M105.11,151.11c0.01,0.21,0.01,0.42-0.01,0.64C105.12,151.53,105.12,151.32,105.11,151.11z"/>
							<path class="st1" d="M109.35,149.86c-0.73,0.14-1.47,0.25-2.2,0.37C107.88,150.11,108.61,149.99,109.35,149.86z"/>
							<polygon class="st1" points="105.05,150.52 105.06,150.52 105.05,150.52 							"/>
							<path class="st1" d="M126.35,80.61c0-0.01,0-0.01,0-0.02c0-0.22,0.08-0.43,0.27-0.59c-0.19,0.16-0.27,0.37-0.27,0.59
								C126.35,80.6,126.35,80.61,126.35,80.61c0,0.43,0.31,0.88,0.73,1.02C126.66,81.49,126.35,81.04,126.35,80.61z"/>
							<path class="st10" d="M119.88,94.51c5.75,0.33,14.29,1.77,19.15-2.08c-1.29-1.95-3.43-2.94-5.17-4.54
								c-1.18-1.09-2.02-2.3-2.81-3.62c-2.6,2.23-5.24,4.02-8.51,5.28c-3.08,1.18-5.85,2.4-8.48,4.4c-0.51,0.39-0.99,0.8-1.47,1.21
								C114.8,94.21,117.37,94.37,119.88,94.51z M127.47,90.66c0.51-0.42,1.11-0.71,1.66-1.08c0.61-0.42,1.03-0.99,1.52-1.54
								c0.81-0.91,2.41,0.32,1.69,1.31c-0.94,1.29-3.05,2.57-4.69,1.98C127.39,91.23,127.21,90.86,127.47,90.66z"/>
							<path class="st11" d="M96.22,139.92c0.51-1.4,1.04-2.81,0.98-4.34c-0.07-1.64-1.23-2.55-2.79-2.07
								c-2.47,0.76-3.93,2.58-4.71,4.94c-1.09,3.27,0.33,7.06,3.41,9.36c0.53,0.4,1.05,0.83,1.8,0.93
								c-0.06-0.36-0.09-0.68-0.16-0.99c-0.4-1.78-0.3-3.51,0.43-5.2C95.54,141.69,95.89,140.8,96.22,139.92z"/>
							<path class="st10" d="M130.41,98.85c2.57-0.32,6.6-1.57,8.29-3.99c-3.24,1.64-7.21,1.63-10.82,1.67
								c-3.85,0.05-7.5-0.14-11.2-0.09c0.85,0.24,1.68,0.51,2.45,0.77C122.83,98.4,126.49,99.33,130.41,98.85z"/>
							<path class="st11" d="M102.44,147.17c0.15,0.6,0.31,1.21,0.46,1.81c0.08,0.32,0.19,0.68,0.49,0.82
								c0.2,0.1,0.44,0.07,0.66,0.03c1.19-0.17,2.38-0.35,3.57-0.52c0.7-0.1,1.47-0.24,1.93-0.77c0.75-0.87,0.24-2.23,0.5-3.27
								c0.38-1.54,0.57-3.14,0.89-4.69c0.64-3.2,1.38-6.39,2.21-9.55c0.1-0.39,0.21-0.77,0.31-1.16c-0.37,0.39-0.75,0.77-1.15,1.12
								c-1.48,1.31-2.9,2.51-4.73,3.3c-1.8,0.78-3.73,1.25-5.69,1.4c-0.39,0.03-0.79,0.05-1.15,0.18s-0.71,0.41-0.8,0.79
								c-0.07,0.29,0,0.59,0.07,0.88C100.81,140.76,101.62,143.97,102.44,147.17z"/>
							<path class="st3" d="M131.21,61.56c0.61-0.26,1.19-0.58,1.81-0.79c4.5-1.58,9.14-1.91,13.82-1.25
								c7.31,1.03,14.06,3.59,20.1,7.9c2.95,2.11,5.72,4.38,7.09,7.89c0.01,0.01,0.02,0.02,0.03,0.03c0.01,0.04,0.02,0.08,0.03,0.12
								c0.01,0.02,0.01,0.03,0.02,0.04c0.1,0.28,0.24,0.27,0.49,0.15c0.75-0.38,1.39-1.14,1.79-2.01c0.44-1.34,0.31-2.79-0.14-4.11
								c-0.22-0.65-0.55-1.26-0.91-1.86c-0.15-0.23-0.29-0.46-0.45-0.68c-1.1-1.51-2.15-3.05-3.15-4.63
								c-1.63-2.58-3.57-4.89-6.16-6.57c-6.2-4.03-12.87-4.84-19.93-2.8c-0.98,0.28-1.95,0.6-3,1.23c4,0.64,7.7,1.68,11.25,3.2
								c3.56,1.52,6.92,3.38,9.88,5.89c-0.04,0.05-0.08,0.11-0.11,0.16c-0.14-0.07-0.29-0.14-0.43-0.22
								c-3.46-1.91-7.05-3.51-10.83-4.7c-4.66-1.47-9.45-2.23-14.3-2.65c-1.94-0.17-3.76,0.28-5.34,1.48
								c-1.24,0.95-2.01,2.18-2.14,3.76c-0.02,0.18-0.04,0.43,0.06,0.54C130.86,61.84,131.05,61.62,131.21,61.56z"/>
							<path class="st1" d="M127.8,81.53L127.8,81.53c-0.04,0.02-0.08,0.02-0.12,0.04C127.72,81.56,127.76,81.56,127.8,81.53z"/>
							<path class="st1" d="M124.84,82.71c0.01-0.53,0.07-1.06,0.14-1.53c0.07-0.47,0.16-0.88,0.25-1.18
								c0.24-0.82,0.57-1.86,1.57-1.87c0.38,0,0.69,0.16,0.95,0.4c0.25,0.24,0.45,0.57,0.6,0.91c0.1,0.22,0.18,0.45,0.25,0.65
								c0.21,0.66,0.43,1.97,0.35,3.18c0.13-0.18,0.25-0.36,0.36-0.54c0.22-0.37,0.39-0.75,0.52-1.14c0.32-0.99,0.39-2.09,0.21-3.33
								c-0.36-2.6-1.8-5.55-4.49-4.31c-0.11,0.27-0.2,0.55-0.3,0.82c0.77-0.15,1.63-0.05,2.21,0.34c0.12,0.08,0.22,0.17,0.31,0.27
								c0.18,0.21,0.3,0.46,0.34,0.77c0.01,0.09-0.08,0.15-0.16,0.16c-0.69,0.07-1.43-0.05-2.13-0.01c-0.43,0.02-0.8,0.19-1.18,0.31
								c-0.95,3.2-1.42,6.63-1.57,10.14c0.8-0.38,1.59-0.78,2.38-1.2C124.95,84.86,124.82,83.77,124.84,82.71z"/>
							<path class="st11" d="M191.18,197.94c0.44-5.4,1.4-10.81,2.4-16.21c0.9-11.36,1.92-22.37,0.29-33.9
								c-0.96-6.8-2.46-13.55-4.63-20.07c-0.79-2.37-1.62-4.98-2.57-7.58c-1.74-3.75-4-7.12-6.34-10.55
								c-0.58-0.86-1.16-1.73-1.71-2.61c-2.38-3.28-4.41-6.74-4.86-11.15c-0.63-6.21-0.29-12.52-1.52-18.34
								c-0.43-0.6-0.78-1.28-1.04-1.72c-1.55-2.61-3.54-4.9-6-6.71c0,0,0,0-0.01-0.01c-3.23-2.15-6.71-3.87-10.4-5.21
								c-5.81-2.11-11.77-3.12-17.93-1.9c-0.52,0.1-1.04,0.23-1.54,0.37c-4.24,2.57-7.12,5.96-9.02,9.87
								c0.18-0.03,0.37-0.06,0.57-0.06c1.59-0.01,2.87,1.23,3.55,2.56c1.03,2.03,1.43,4.85,0.65,7.03c0.42-0.1,0.87,0.02,1.11,0.44
								c0.98,1.74,2.39,3.08,3.85,4.36c-2.43-4.3-2.86-9.31,0.73-13.74c4.3-5.31,12.53-6.33,18.38-3.04
								c6,3.37,8.08,11.71,7.46,18.11c-0.79,8.23-7.28,12.67-14.01,16.16c4.19,1.2,7.77,3.72,10.24,7.43
								c1.15,1.73,1.94,3.78,2.35,5.87c0.85,3.34,1.1,6.81,1.22,10.28c0.1,2.92,0.21,5.9-0.07,8.82c0,0.46-0.01,0.92-0.02,1.38
								c-0.14,4.05-2.03,7-5.55,8.94c-2.65,1.46-5.5,2.47-8.29,3.6c-0.96,0.39-1.91,0.77-2.86,1.18c-2.22,0.94-4.39,1.97-6.38,3.36
								c-2.62,1.82-4.89,3.97-6.38,6.84c-0.03,0.06-0.07,0.11-0.09,0.17c-0.5,1-0.81,2.04-0.69,3.17c0.08,0.77,0.49,1.17,1.26,1.21
								c0.4,0.02,0.79-0.01,1.19-0.1c1.09-0.27,2.16-0.62,3.2-1.03c1.32-0.52,2.67-0.9,4.03-1.21c1.81-0.41,3.64-0.67,5.51-0.75
								c3.91-0.18,7.8-0.37,11.68-0.93c4.05-0.58,7.95-1.63,11.5-3.73c4.91-2.91,8.43-6.95,9.95-12.56
								c1.17-4.29,1.04-8.62,0.3-12.96c-0.71-4.16-2.12-8.1-3.91-11.89c-0.86-1.83-1.53-3.69-2.02-5.58
								c0.04-0.17,0.08-0.35,0.14-0.51c0.02-0.05,0.02-0.07,0.03-0.09c0.04-0.08,0.11-0.2,0.12-0.22c0.02-0.03,0.08-0.1,0.13-0.17
								c0.02-0.02,0.03-0.04,0.04-0.06c0.06-0.06,0.14-0.12,0.2-0.18l0.05-0.03c0.04-0.03,0.09-0.05,0.13-0.07
								c0.09-0.03,0.24-0.07,0.25-0.08l0.09-0.02c0.14-0.03,0.12-0.02-0.07,0c0.09-0.04,0.29-0.02,0.39-0.02
								c0.1,0,0.21,0.01,0.31,0.01c0.03,0,0.05,0.01,0.07,0.01c0.05,0.01,0.09,0.02,0.14,0.03c0.09,0.02,0.18,0.04,0.27,0.07
								c0.28,1.17,0.62,2.32,1.06,3.45c1.28,3.24,2.77,6.4,3.84,9.73c1.03,3.24,1.68,6.54,1.8,9.96c0.12,3.41-0.19,6.85-1.2,10.12
								c-0.43,1.41-1.29,2.64-1.98,3.95c-0.74,1.41-1.52,2.82-2.59,4.01c-3.94,4.36-8.99,7.01-14.51,8.43
								c3.21,5.03,4.82,11.75,6.13,17.29c1.61,6.81,2.15,14.08,0.09,20.86c-2.5,8.25-8.6,12.11-15.73,13.22
								c4.3,1.55,8.02,4.12,13.01,4.08c6.72-0.05,11.08-5.48,15.92-9.28c0.14-0.11,0.37,0.03,0.26,0.2
								c-1.82,2.87-4.22,5.59-7.07,7.57c7.78,0.95,15.64,0.46,22.52-3.49C192.94,210.34,190.59,205.18,191.18,197.94z"/>
							<path class="st1" d="M168.1,200.63c0.23-0.81,0.41-1.63,0.56-2.46c0.15-0.82,0.27-1.65,0.35-2.49
								c0.12-1.25,0.17-2.5,0.16-3.76c-0.01-0.84-0.05-1.68-0.11-2.51c-0.22-2.93-0.75-5.85-1.46-8.67
								c-0.65-2.58-1.38-5.59-2.34-8.53c-0.24-0.74-0.5-1.47-0.77-2.18c-0.27-0.72-0.56-1.42-0.87-2.1
								c-0.31-0.69-0.64-1.35-0.99-1.98c-0.33-0.6-0.68-1.16-1.04-1.69c-0.3,0.06-0.6,0.14-0.9,0.19
								c-4.57,0.83-9.21,0.86-13.83,1.18c-2.32,0.16-4.6,0.49-6.82,1.18c-1.88,0.59-3.68,1.39-5.62,1.77
								c-2.98,0.59-5.15-1.29-4.83-4.2c0.1-0.89,0.35-1.76,0.68-2.59c0.11-0.28,0.24-0.54,0.36-0.8c1.36-2.9,3.52-5.17,6.03-7.14
								c1.15-0.9,2.36-1.68,3.61-2.38c2.07-1.15,4.25-2.09,6.45-2.98c1.98-0.81,3.98-1.55,5.94-2.39c0.67-0.29,1.34-0.6,1.99-0.92
								c0.2-0.1,0.4-0.18,0.6-0.28c2.07-1.07,3.6-2.55,4.37-4.64c0.44-1.63,0.67-3.29,0.79-4.97c0.01-0.16,0.02-0.32,0.03-0.48
								c0.12-2.24,0.04-4.5-0.03-6.74c-0.09-2.65-0.22-5.34-0.66-7.96c-0.25-1.25-0.55-2.5-0.91-3.75
								c-0.23-0.69-0.48-1.38-0.79-2.06c-0.08-0.18-0.1-0.36-0.08-0.52c-0.73-1.83-1.7-3.45-3.27-4.89
								c-2.31-2.1-5.22-3.37-8.27-3.94c-0.57-0.11-0.68-1-0.16-1.26c4.87-2.43,10.26-5.07,13.06-9.99
								c3.08-5.4,2.18-13.16-0.84-18.45c-4.06-7.12-15.46-7.84-20.58-1.53c-3.97,4.89-2.48,10.15,0.39,14.85
								c0.97,0.9,2.04,1.94,2.66,3.13c0.6,1.17,0.46,2.79-0.04,3.95c-0.61,1.41-2.33,2.38-3.64,3.1c-1.29,0.71-2.68,1.32-4.12,1.68
								c-2.16,0.55-4.39,0.66-6.6,0.47c0.77,2.45,0.13,5.02-1,7.4c-1.71,3.6-4.11,6.66-6.09,10.05c-0.47,0.89-0.89,1.8-1.25,2.74
								c-1.29,3.4-2.24,6.97-3.16,10.48c-2.23,8.47-3.85,17.23-4.81,25.96c-0.08,0.68-0.15,1.36-0.22,2.05
								c-0.01,0.09-0.02,0.18-0.03,0.28c0,0.01,0,0.03,0,0.04c-0.1,1-0.18,1.99-0.24,2.99c-0.01,0.11-0.01,0.22-0.02,0.33
								c-0.05,0.84-0.09,1.68-0.12,2.52c-0.01,0.24-0.01,0.47-0.02,0.71c-0.02,0.79-0.03,1.59-0.02,2.38c0,0.18,0,0.35,0,0.53
								c0.01,0.95,0.05,1.91,0.1,2.86c0,0.04,0,0.09,0,0.13c0.04,0.61,0.08,1.22,0.14,1.83c0.02,0.22,0.05,0.43,0.07,0.65
								c0.05,0.47,0.1,0.93,0.16,1.4c0.04,0.29,0.08,0.58,0.12,0.87c0.06,0.42,0.13,0.85,0.2,1.27c0.04,0.27,0.08,0.54,0.13,0.81
								c0.11,0.63,0.24,1.26,0.38,1.89c0.05,0.25,0.12,0.5,0.17,0.74c0.11,0.47,0.23,0.93,0.35,1.4c0.06,0.23,0.12,0.46,0.19,0.68
								c0.19,0.68,0.39,1.35,0.61,2.03c0.64,1.93,1.4,3.83,2.29,5.66c0.3,0.61,0.61,1.22,0.93,1.81
								c3.88,7.16,9.71,13.22,17.23,16.61c1.33,0.6,2.74,1.14,4.18,1.62c0.28-0.03,0.55,0.06,0.74,0.24
								C149.52,215.58,164.2,214.62,168.1,200.63z M144.94,74.05c0.88-1.69,3.72-2.06,5.38-1.51c1.73,0.57,2.28,2.4,2.5,4.03
								c0.02,0.17-0.22,0.24-0.32,0.13c-0.89-0.94-1.73-1.96-3.04-2.29c-1.47-0.37-2.61,0.46-4.01,0.53
								C144.98,74.97,144.75,74.43,144.94,74.05z M145.54,79.44c0.91-1.43,2.41-2.2,4.08-0.94c1.53,1.15,1.65,3.43,1.04,5.11
								c-0.57,1.58-2.09,3.56-3.99,2.84C144.28,85.54,143.67,81.17,145.54,79.44z"/>
							<path class="st10" d="M119.91,213.35c-1.64,2.74-5.61,3.84-8.47,4.77c-5.36,1.74-10.87,2.66-15.75,5.35
								c2.19,0.07,4.3,0.66,5.54,2.7c0.39,0.63,0.58,1.25,0.64,1.84c3.28-3.34,7.54-5.99,12.01-6.64c0.09-0.01,0.2,0.1,0.1,0.18
								c-3.6,2.87-7.47,4.65-10.63,7.67c4.44-1.52,9.71-1.03,12.95,2.31c1.95-1.94,4.3-3.09,6.66-4.62c4.13-2.68,6.55-5.93,8.1-10.5
								C127.24,217.18,123.34,216.07,119.91,213.35z"/>
							<path class="st10" d="M168.44,220.79c-2.66,0.32-6.1-0.04-9.27-1.06c0.13,1.52-0.73,2.85-2.09,4.02
								c-4.16,3.58-9.7,4.52-13.76,8.03c3.15,0.03,5.39,2.3,5.77,5.41c0.88-1.47,2.27-2.84,3.28-3.92c1.96-2.11,4.12-4.1,6.41-5.85
								c0.21-0.16,0.39,0.16,0.26,0.33c-1.69,2.16-3.65,4.1-5.47,6.16c-1.08,1.22-2.12,2.49-3.03,3.86
								c-0.12,0.18-0.22,0.34-0.33,0.5c4.87-2.47,12.4-2.83,15.83,1.17c3.7-6,6.71-12.09,5.53-19.36
								C170.56,220.41,169.52,220.66,168.44,220.79z"/>
							<path class="st11" d="M112.25,190.69c0.67,4.48,0.77,9.13,2.74,13.39c3.62,7.82,12.11,14.05,19.89,8.87
								C123.73,208.89,116.43,200.68,112.25,190.69z"/>
							<path class="st1" d="M127.64,91.32c1.64,0.59,3.75-0.69,4.69-1.98c0.72-0.99-0.88-2.22-1.69-1.31
								c-0.49,0.55-0.9,1.12-1.52,1.54c-0.55,0.38-1.14,0.67-1.66,1.08C127.21,90.86,127.39,91.23,127.64,91.32z"/>
							<path class="st1" d="M146.68,86.45c1.9,0.72,3.42-1.26,3.99-2.84c0.6-1.67,0.49-3.95-1.04-5.11
								c-1.67-1.26-3.18-0.49-4.08,0.94C143.67,81.17,144.28,85.54,146.68,86.45z M147.4,80.66c0.01-0.03,0.01-0.06,0.02-0.1
								c0.11-0.54,0.64-0.8,1.13-0.86c0.05-0.01,0.1-0.01,0.15-0.01c0.63-0.03,1.3,0.72,1.03,1.36c-0.02,0.04-0.04,0.07-0.05,0.1
								c-0.01,0.04-0.02,0.09-0.03,0.13c-0.13,0.62-0.86,0.98-1.44,0.82C147.58,81.93,147.27,81.28,147.4,80.66z"/>
							<path class="st1" d="M145.46,74.94c1.4-0.07,2.54-0.9,4.01-0.53c1.31,0.33,2.15,1.34,3.04,2.29c0.1,0.11,0.34,0.03,0.32-0.13
								c-0.22-1.63-0.77-3.46-2.5-4.03c-1.66-0.55-4.5-0.18-5.38,1.51C144.75,74.43,144.98,74.97,145.46,74.94z"/>
							<path class="st1" d="M148.22,82.1c0.58,0.16,1.31-0.2,1.44-0.82c0.01-0.04,0.02-0.09,0.03-0.13c0.02-0.03,0.04-0.07,0.05-0.1
								c0.27-0.64-0.4-1.39-1.03-1.36c-0.05,0-0.1,0-0.15,0.01c-0.49,0.06-1.02,0.32-1.13,0.86c-0.01,0.03-0.01,0.06-0.02,0.1
								C147.27,81.28,147.58,81.93,148.22,82.1z"/>
							<path class="st1" d="M126.84,79.87L126.84,79.87c-0.09,0.04-0.16,0.09-0.22,0.14c-0.19,0.16-0.27,0.37-0.27,0.59
								c0,0.01,0,0.01,0,0.02c0,0.43,0.31,0.88,0.73,1.02c0,0,0,0,0,0c0.09,0.03,0.18,0.03,0.27,0.03c0.02,0,0.05,0.01,0.07,0.01
								c0.08-0.01,0.17-0.05,0.26-0.09c0.04-0.02,0.08-0.02,0.12-0.04c0.2-0.12,0.33-0.27,0.41-0.43c0.07-0.16,0.09-0.34,0.06-0.51
								c-0.04-0.22-0.17-0.44-0.34-0.59C127.65,79.78,127.26,79.68,126.84,79.87z"/>
							<path class="st1" d="M101.55,134.48c0.24-0.07,0.47-0.15,0.71-0.21C102.03,134.33,101.79,134.41,101.55,134.48z"/>
							<path class="st1" d="M87.58,137.5c0.12-0.34,0.25-0.68,0.41-1.01C87.83,136.82,87.7,137.16,87.58,137.5z"/>
							<path class="st1" d="M88.03,136.4c0.52-1.1,1.21-2.11,2.05-2.95C89.23,134.29,88.54,135.3,88.03,136.4z"/>
							<path class="st1" d="M87,140.95c0-0.27,0.01-0.55,0.03-0.82C87.01,140.4,87,140.68,87,140.95z"/>
							<path class="st1" d="M95.11,151.01c0.06,0.01,0.13,0.01,0.2,0.02l0,0C95.24,151.03,95.17,151.03,95.11,151.01z"/>
							<path class="st1" d="M87.06,139.83c0.08-0.75,0.24-1.5,0.49-2.22C87.3,138.33,87.14,139.08,87.06,139.83z"/>
							<path class="st1" d="M107.15,150.23c-0.7,0.11-1.39,0.2-2.09,0.3C105.76,150.43,106.45,150.34,107.15,150.23z"/>
							<path class="st1" d="M87.1,142.34c-0.06-0.36-0.08-0.72-0.1-1.08C87.02,141.63,87.05,141.99,87.1,142.34z"/>
							<path class="st1" d="M96.89,131.31c-0.75-0.29-1.6-0.39-2.47-0.23c-1,0.18-1.93,0.57-2.77,1.1c1.55-0.18,3.12-0.44,4.73-0.77
								C96.55,131.38,96.72,131.34,96.89,131.31z"/>
							<path class="st1" d="M94.74,147.75c0.07,0.31,0.1,0.63,0.16,0.99c-0.75-0.1-1.27-0.54-1.8-0.93
								c-3.07-2.3-4.49-6.09-3.41-9.36c0.78-2.35,2.24-4.18,4.71-4.94c1.56-0.48,2.72,0.43,2.79,2.07c0.07,1.53-0.46,2.94-0.98,4.34
								c-0.33,0.89-0.68,1.77-1.05,2.64C94.44,144.24,94.34,145.97,94.74,147.75z"/>
							<path class="st1" d="M200.7,213.53c-9.1-5.46-8.3-13.99-6.78-23.28c0.51-3.13,1.14-6.34,1.6-9.57
								c1.2-5.44,1.65-11.15,1.58-16.86c0.46-8.76-0.47-17.56-2.49-26.09c-1.99-8.38-4.79-16.68-9.23-24.07
								c-0.48-0.89-1.01-1.73-1.6-2.5c-0.08-0.12-0.16-0.25-0.24-0.38c-2.8-4.09-5.79-8.2-6.77-13.17
								c-0.04-0.21-0.14-0.36-0.26-0.47c-0.7-4.07-0.51-8.26-0.79-12.68c-0.13-2.07-0.42-4.08-0.85-6.03
								c0.27-0.17,0.51-0.39,0.75-0.58c0.58-0.46,1.1-0.96,1.56-1.55c1.26-1.15,1.98-2.67,1.93-4.63c-0.04-1.46-0.56-2.83-1.31-4.07
								c-1.77-2.9-3.6-5.77-5.59-8.53c-2.24-3.11-5.16-5.44-8.64-7.04c-4.68-2.15-9.59-2.71-14.66-1.95
								c-3.3,0.5-6.43,1.49-9.19,3.46c-0.26,0.18-0.51,0.17-0.8,0.15c-2.6-0.15-5.12,0.1-7.28,1.73c-1.97,1.49-3.49,3.32-3.05,5.98
								c0.08,0.5,0.06,0.89-0.04,1.23c0,0.01,0.01,0.02,0.01,0.03c0.07,0.12,0.14,0.24,0.22,0.35c0.01,0.01,0.01,0.02,0.02,0.03
								c0.04,0.04,0.08,0.09,0.12,0.13c0.09,0.09,0.18,0.18,0.27,0.26c0,0,0,0,0.01,0c0.05,0.03,0.09,0.06,0.14,0.09
								c0.09,0.06,0.19,0.11,0.29,0.16c0.05,0.02,0.11,0.04,0.16,0.05c0.05,0.02,0.1,0.02,0.15,0.04
								c-6.2,5.83-10.49,15.36-8.6,23.77c-1.65,0.76-3.32,1.53-5.02,2.46c-3.19,1.76-6.54,4.08-7.96,7.52
								c-0.07,0.18,0.02,0.33,0.16,0.43c0.03,0.08,0.1,0.15,0.21,0.14c4.93-0.48,8.36,0.7,13.01,1.95c1.12,0.3,2.26,0.53,3.41,0.69
								c-0.15,3.49-1.35,6.49-2.9,9.37c-0.06,0.06-0.13,0.11-0.18,0.19c-2.87,4.58-5.48,8.97-7.09,14.16
								c-0.01,0.04-0.02,0.07-0.03,0.11c-1.67,2.24-3.64,4.23-5.88,5.98c-1.36,1.06-2.79,2.03-4.34,2.78
								c-0.79,0.38-1.61,0.7-2.46,0.94c-0.24,0.07-0.47,0.14-0.71,0.21c-0.27,0.08-0.55,0.17-0.82,0.24
								c0.11,0.6,0.23,1.21,0.34,1.81c0.02,0.12,0.04,0.23,0.06,0.35c1.69-0.18,3.37-0.78,4.86-1.5c2.32-1.11,4.38-2.68,6.3-4.38
								c0.4-0.36,0.78-0.74,1.15-1.12c-0.1,0.39-0.21,0.77-0.31,1.16c-1.31,4.98-2.38,10.01-3.22,15.09
								c-0.09,0.55-0.17,1.1-0.25,1.64c-0.94,0.18-1.88,0.34-2.82,0.49c-0.17,0.03-0.34,0.05-0.52,0.08
								c-0.68,0.1-1.35,0.19-2.03,0.28c0.39,0.56,0.64,1.2,0.75,1.9c0,0,0,0,0,0c0.7-0.09,1.39-0.19,2.09-0.3
								c0.73-0.11,1.47-0.23,2.2-0.37c-0.03,0.21-0.06,0.41-0.09,0.61c-0.36,2.5-0.67,5-0.91,7.51c-0.08,0.83-0.16,1.66-0.23,2.48
								c-0.66,8.28-0.16,16.63,2.17,24.64c-0.11,9.16,0.95,19.37,7.54,26.32c0.34,0.36,0.69,0.7,1.05,1.02
								c-8.15,5.77-18.97,5.19-26.99,11.31c-0.92,0.7-0.24,1.58,0.58,1.66c1.5,0.16,2.78-0.57,4.36-0.02
								c1.26,0.44,2.36,1.42,2.8,2.68c0.27,0.79,0.27,1.68-0.02,2.46c-0.25,0.66-1.29,1.41-1.04,2.16c0.01,0.08,0.05,0.15,0.1,0.21
								c0.27,0.4,0.85,0.63,1.34,0.37c4.38-2.31,11.6-4.66,15.25,0.63c0.4,0.57,1.35,0.88,1.87,0.24c3.01-3.64,7.34-5.32,10.66-8.54
								c2.71-2.63,4.42-5.93,5.06-9.63c0.01-0.03,0-0.06,0-0.1c1.38-0.5,2.75-1.24,4.06-2.27c0.85,0.26,1.71,0.5,2.6,0.72
								c4.16,1,8.53,1.46,12.63,1.08c1.37,1.67,3.44,2.95,5.76,3.85c-0.47,4.48-8.54,6.17-11.7,7.89c-2.72,1.48-4.88,3.25-6.7,5.75
								c-0.39,0.53-0.12,1.14,0.46,1.38c0.65,0.26,1.27-0.29,1.91-0.44c1.49-0.33,3.15,0.04,4.29,1.06
								c0.93,0.83,1.49,2.05,1.57,3.29c0.03,0.44-0.68,3.99,0.9,2.67c3.81-3.18,14.09-4.53,16.77,0.33c0.3,0.54,1.03,0.47,1.34,0
								c4.31-6.5,8.12-13.75,6.29-21.73c0.37-0.17,0.74-0.37,1.1-0.56c0.08,0.07,0.18,0.12,0.31,0.15
								c8.56,2.13,18.93,1.27,26.25-3.99C201.24,214.7,201.32,213.91,200.7,213.53z M130.65,61.14c0.13-1.58,0.9-2.81,2.14-3.76
								c1.58-1.21,3.4-1.65,5.34-1.48c4.85,0.42,9.64,1.18,14.3,2.65c3.78,1.19,7.37,2.79,10.83,4.7c0.14,0.08,0.29,0.15,0.43,0.22
								c0.04-0.05,0.08-0.11,0.11-0.16c-2.96-2.51-6.32-4.37-9.88-5.89c-3.55-1.52-7.24-2.56-11.25-3.2c1.05-0.62,2.02-0.95,3-1.23
								c7.06-2.04,13.73-1.22,19.93,2.8c2.59,1.68,4.53,3.98,6.16,6.57c0.99,1.58,2.04,3.12,3.15,4.63c0.16,0.22,0.3,0.45,0.45,0.68
								c0.36,0.6,0.68,1.21,0.91,1.86c0.45,1.32,0.58,2.77,0.14,4.11c-0.4,0.86-1.04,1.63-1.79,2.01c-0.24,0.12-0.39,0.13-0.49-0.15
								c-0.01-0.02-0.01-0.03-0.02-0.04c-0.01-0.04-0.02-0.08-0.03-0.12c-0.01-0.01-0.02-0.02-0.03-0.03
								c-1.37-3.51-4.14-5.78-7.09-7.89c-6.04-4.31-12.79-6.87-20.1-7.9c-4.68-0.66-9.32-0.33-13.82,1.25
								c-0.62,0.22-1.21,0.54-1.81,0.79c-0.16,0.07-0.35,0.29-0.5,0.12C130.61,61.57,130.63,61.32,130.65,61.14z M124.62,76.62
								c0.38-0.13,0.76-0.29,1.18-0.31c0.71-0.04,1.44,0.08,2.13,0.01c0.08-0.01,0.17-0.07,0.16-0.16
								c-0.04-0.31-0.16-0.57-0.34-0.77c-0.09-0.1-0.19-0.2-0.31-0.27c-0.58-0.4-1.44-0.49-2.21-0.34c0.1-0.28,0.2-0.55,0.3-0.82
								c2.7-1.24,4.13,1.71,4.49,4.31c0.17,1.24,0.11,2.34-0.21,3.33c-0.13,0.4-0.3,0.78-0.52,1.14c-0.11,0.18-0.23,0.36-0.36,0.54
								c0.08-1.21-0.14-2.51-0.35-3.18c-0.06-0.21-0.14-0.43-0.25-0.65c-0.15-0.33-0.35-0.66-0.6-0.91c-0.25-0.24-0.56-0.4-0.95-0.4
								c-1,0.01-1.33,1.05-1.57,1.87c-0.09,0.3-0.18,0.71-0.25,1.18c-0.07,0.47-0.13,0.99-0.14,1.53c-0.03,1.06,0.11,2.15,0.58,2.86
								c-0.78,0.42-1.57,0.82-2.38,1.2C123.2,83.25,123.67,79.83,124.62,76.62z M128.2,81.1c-0.07,0.16-0.2,0.31-0.41,0.43v0
								c-0.04,0.02-0.08,0.02-0.12,0.04c-0.09,0.04-0.17,0.08-0.26,0.09c-0.02,0-0.05-0.01-0.07-0.01c-0.09,0-0.19,0-0.27-0.03
								c0,0,0,0,0,0c-0.42-0.13-0.73-0.59-0.73-1.02c0-0.01,0-0.01,0-0.02c0-0.22,0.08-0.43,0.27-0.59c0.06-0.05,0.14-0.1,0.22-0.14
								v0c0.42-0.19,0.81-0.09,1.07,0.14c0.18,0.15,0.3,0.37,0.34,0.59C128.29,80.77,128.28,80.94,128.2,81.1z M114.06,93.95
								c2.63-2,5.4-3.22,8.48-4.4c3.27-1.26,5.91-3.05,8.51-5.28c0.79,1.32,1.63,2.53,2.81,3.62c1.74,1.6,3.87,2.59,5.17,4.54
								c-4.86,3.85-13.4,2.4-19.15,2.08c-2.51-0.14-5.08-0.3-7.29,0.65C113.06,94.75,113.55,94.34,114.06,93.95z M119.14,97.2
								c-0.78-0.25-1.61-0.53-2.45-0.77c3.7-0.05,7.35,0.14,11.2,0.09c3.6-0.05,7.58-0.03,10.82-1.67
								c-1.69,2.43-5.72,3.67-8.29,3.99C126.49,99.33,122.83,98.4,119.14,97.2z M122.97,226.9c-2.36,1.53-4.71,2.68-6.66,4.62
								c-3.24-3.34-8.51-3.84-12.95-2.31c3.15-3.02,7.03-4.8,10.63-7.67c0.09-0.07-0.01-0.19-0.1-0.18
								c-4.47,0.65-8.73,3.3-12.01,6.64c-0.05-0.6-0.25-1.21-0.64-1.84c-1.25-2.04-3.36-2.63-5.54-2.7
								c4.88-2.7,10.38-3.62,15.75-5.35c2.86-0.93,6.83-2.03,8.47-4.77c3.43,2.72,7.33,3.84,11.16,3.06
								C129.53,220.98,127.1,224.22,122.97,226.9z M114.99,204.08c-1.97-4.26-2.07-8.92-2.74-13.39
								c4.18,9.99,11.48,18.2,22.64,22.26C127.1,218.13,118.62,211.9,114.99,204.08z M137.59,211.87c-0.2-0.18-0.47-0.28-0.74-0.24
								c-1.45-0.48-2.85-1.02-4.18-1.62c-7.53-3.39-13.35-9.44-17.23-16.61c-0.32-0.6-0.63-1.2-0.93-1.81
								c-0.89-1.83-1.65-3.73-2.29-5.66c-0.22-0.67-0.42-1.35-0.61-2.03c-0.06-0.23-0.13-0.46-0.19-0.68
								c-0.12-0.46-0.24-0.93-0.35-1.4c-0.06-0.25-0.12-0.49-0.17-0.74c-0.14-0.63-0.27-1.26-0.38-1.89
								c-0.05-0.27-0.09-0.54-0.13-0.81c-0.07-0.42-0.14-0.85-0.2-1.27c-0.04-0.29-0.08-0.58-0.12-0.87
								c-0.06-0.47-0.11-0.93-0.16-1.4c-0.02-0.22-0.05-0.43-0.07-0.65c-0.05-0.61-0.1-1.22-0.14-1.83c0-0.04,0-0.09,0-0.13
								c-0.05-0.95-0.09-1.91-0.1-2.86c0-0.18,0-0.35,0-0.53c-0.01-0.79,0-1.59,0.02-2.38c0.01-0.24,0.01-0.47,0.02-0.71
								c0.03-0.84,0.07-1.68,0.12-2.52c0.01-0.11,0.01-0.22,0.02-0.33c0.07-1,0.15-2,0.24-2.99c0-0.01,0-0.03,0-0.04
								c0.01-0.09,0.02-0.18,0.03-0.28c0.07-0.68,0.14-1.36,0.22-2.05c0.96-8.73,2.58-17.49,4.81-25.96
								c0.92-3.52,1.88-7.08,3.16-10.48c0.35-0.94,0.78-1.85,1.25-2.74c1.98-3.39,4.38-6.45,6.09-10.05c1.13-2.38,1.77-4.95,1-7.4
								c2.21,0.19,4.43,0.08,6.6-0.47c1.43-0.36,2.82-0.98,4.12-1.68c1.31-0.72,3.02-1.69,3.64-3.1c0.51-1.17,0.65-2.78,0.04-3.95
								c-0.61-1.19-1.69-2.23-2.66-3.13c-2.87-4.71-4.36-9.96-0.39-14.85c5.12-6.3,16.52-5.59,20.58,1.53
								c3.02,5.29,3.92,13.05,0.84,18.45c-2.81,4.92-8.19,7.56-13.06,9.99c-0.51,0.25-0.41,1.15,0.16,1.26
								c3.05,0.58,5.96,1.84,8.27,3.94c1.57,1.43,2.54,3.06,3.27,4.89c-0.01,0.17,0,0.34,0.08,0.52c0.31,0.67,0.56,1.36,0.79,2.06
								c0.36,1.24,0.67,2.49,0.91,3.75c0.45,2.62,0.57,5.31,0.66,7.96c0.07,2.24,0.15,4.5,0.03,6.74c-0.01,0.16-0.02,0.32-0.03,0.48
								c-0.11,1.68-0.34,3.34-0.79,4.97c-0.77,2.09-2.3,3.57-4.37,4.64c-0.2,0.1-0.4,0.19-0.6,0.28c-0.66,0.32-1.32,0.63-1.99,0.92
								c-1.96,0.85-3.97,1.59-5.94,2.39c-2.2,0.9-4.39,1.83-6.45,2.98c-1.25,0.7-2.46,1.48-3.61,2.38
								c-2.51,1.97-4.67,4.23-6.03,7.14c-0.12,0.26-0.25,0.53-0.36,0.8c-0.33,0.84-0.59,1.7-0.68,2.59
								c-0.32,2.92,1.85,4.79,4.83,4.2c1.94-0.38,3.75-1.18,5.62-1.77c2.22-0.7,4.5-1.02,6.82-1.18c4.61-0.33,9.25-0.35,13.83-1.18
								c0.3-0.05,0.6-0.13,0.9-0.19c0.36,0.53,0.71,1.09,1.04,1.69c0.35,0.63,0.67,1.29,0.99,1.98c0.31,0.68,0.59,1.38,0.87,2.1
								c0.27,0.71,0.52,1.44,0.77,2.18c0.96,2.94,1.69,5.94,2.34,8.53c0.71,2.82,1.24,5.74,1.46,8.67c0.06,0.84,0.1,1.68,0.11,2.51
								c0.01,1.26-0.03,2.51-0.16,3.76c-0.08,0.83-0.2,1.66-0.35,2.49c-0.15,0.82-0.34,1.64-0.56,2.46
								C164.2,214.62,149.52,215.58,137.59,211.87z M166.03,239.43c-3.42-4-10.96-3.64-15.83-1.17c0.1-0.16,0.21-0.32,0.33-0.5
								c0.91-1.36,1.94-2.63,3.03-3.86c1.82-2.05,3.78-3.99,5.47-6.16c0.13-0.17-0.05-0.49-0.26-0.33
								c-2.29,1.75-4.44,3.74-6.41,5.85c-1.01,1.08-2.4,2.45-3.28,3.92c-0.38-3.11-2.62-5.37-5.77-5.41
								c4.06-3.51,9.61-4.45,13.76-8.03c1.35-1.17,2.22-2.5,2.09-4.02c3.17,1.02,6.61,1.38,9.27,1.06c1.08-0.13,2.12-0.38,3.12-0.73
								C172.74,227.34,169.73,233.43,166.03,239.43z M176.05,217.77c2.85-1.98,5.25-4.7,7.07-7.57c0.11-0.17-0.12-0.31-0.26-0.2
								c-4.84,3.8-9.21,9.22-15.92,9.28c-4.98,0.04-8.71-2.54-13.01-4.08c7.13-1.11,13.24-4.97,15.73-13.22
								c2.05-6.78,1.52-14.05-0.09-20.86c-1.31-5.54-2.92-12.26-6.13-17.29c5.52-1.42,10.56-4.06,14.51-8.43
								c1.07-1.19,1.85-2.6,2.59-4.01c0.69-1.31,1.55-2.55,1.98-3.95c1.01-3.27,1.32-6.71,1.2-10.12c-0.12-3.42-0.77-6.72-1.8-9.96
								c-1.06-3.33-2.56-6.49-3.84-9.73c-0.45-1.13-0.79-2.28-1.06-3.45c-0.09-0.03-0.18-0.05-0.27-0.07
								c-0.05-0.01-0.09-0.02-0.14-0.03c-0.02,0-0.04,0-0.07-0.01c-0.1,0-0.21-0.01-0.31-0.01c-0.1,0-0.29-0.02-0.39,0.02
								c0.19-0.03,0.22-0.03,0.07,0l-0.09,0.02c-0.02,0-0.16,0.05-0.25,0.08c-0.04,0.02-0.09,0.05-0.13,0.07l-0.05,0.03
								c-0.06,0.06-0.15,0.12-0.2,0.18c-0.01,0.03-0.02,0.05-0.04,0.06c-0.05,0.07-0.11,0.14-0.13,0.17
								c-0.01,0.02-0.08,0.14-0.12,0.22c-0.01,0.02-0.01,0.04-0.03,0.09c-0.06,0.17-0.1,0.34-0.14,0.51
								c0.49,1.89,1.16,3.75,2.02,5.58c1.78,3.79,3.2,7.74,3.91,11.89c0.74,4.34,0.87,8.67-0.3,12.96
								c-1.52,5.6-5.04,9.64-9.95,12.56c-3.55,2.1-7.45,3.15-11.5,3.73c-3.88,0.56-7.77,0.75-11.68,0.93
								c-1.86,0.08-3.7,0.34-5.51,0.75c-1.36,0.31-2.71,0.7-4.03,1.21c-1.04,0.41-2.11,0.76-3.2,1.03c-0.4,0.1-0.79,0.12-1.19,0.1
								c-0.77-0.04-1.18-0.44-1.26-1.21c-0.12-1.13,0.19-2.17,0.69-3.17c0.03-0.06,0.06-0.11,0.09-0.17
								c1.49-2.87,3.76-5.02,6.38-6.84c1.99-1.39,4.16-2.42,6.38-3.36c0.95-0.4,1.9-0.79,2.86-1.18c2.79-1.13,5.64-2.13,8.29-3.6
								c3.51-1.94,5.41-4.89,5.55-8.94c0.02-0.46,0.02-0.92,0.02-1.38c0.28-2.92,0.17-5.9,0.07-8.82
								c-0.12-3.47-0.37-6.94-1.22-10.28c-0.41-2.09-1.2-4.14-2.35-5.87c-2.47-3.71-6.06-6.23-10.24-7.43
								c6.72-3.49,13.22-7.92,14.01-16.16c0.62-6.4-1.46-14.74-7.46-18.11c-5.85-3.28-14.08-2.26-18.38,3.04
								c-3.59,4.43-3.16,9.44-0.73,13.74c-1.46-1.28-2.88-2.62-3.85-4.36c-0.24-0.42-0.69-0.55-1.11-0.44
								c0.78-2.19,0.38-5.01-0.65-7.03c-0.68-1.33-1.96-2.57-3.55-2.56c-0.2,0-0.38,0.03-0.57,0.06c1.9-3.91,4.78-7.31,9.02-9.87
								c0.51-0.14,1.02-0.27,1.54-0.37c6.16-1.22,12.12-0.21,17.93,1.9c3.69,1.34,7.16,3.06,10.4,5.21c0,0,0,0,0.01,0.01
								c2.45,1.81,4.44,4.1,6,6.71c0.26,0.44,0.61,1.12,1.04,1.72c1.23,5.82,0.89,12.13,1.52,18.34c0.45,4.41,2.48,7.87,4.86,11.15
								c0.55,0.88,1.12,1.75,1.71,2.61c2.34,3.44,4.6,6.8,6.34,10.55c0.96,2.6,1.78,5.21,2.57,7.58c2.18,6.52,3.67,13.27,4.63,20.07
								c1.62,11.53,0.6,22.54-0.29,33.9c-0.99,5.4-1.96,10.82-2.4,16.21c-0.59,7.24,1.76,12.4,7.39,16.34
								C191.69,218.23,183.83,218.72,176.05,217.77z"/>
							<path class="st1" d="M97.19,145.77c0.01-0.07,0.02-0.14,0.02-0.2c0-0.02,0.01-0.05,0.01-0.07c-0.11,0.1-0.2,0.21-0.16,0.4
								c0.02,0.09,0.05,0.15,0.09,0.21c0.01-0.08,0.02-0.16,0.02-0.24C97.19,145.84,97.19,145.81,97.19,145.77z"/>
							<path class="st1" d="M109.67,147.78c-0.94,0.18-1.88,0.34-2.82,0.49C107.79,148.12,108.73,147.96,109.67,147.78z"/>
							<path class="st1" d="M104.3,148.62c0.68-0.08,1.35-0.18,2.03-0.28C105.66,148.45,104.98,148.53,104.3,148.62
								C104.3,148.62,104.3,148.62,104.3,148.62z"/>
							<path class="st1" d="M97.22,145.57c-0.01,0.06-0.02,0.13-0.02,0.2C97.2,145.7,97.21,145.63,97.22,145.57z"/>
							<path class="st1" d="M97.16,146.12C97.16,146.12,97.16,146.12,97.16,146.12c0.01-0.08,0.02-0.16,0.02-0.24
								C97.17,145.96,97.17,146.03,97.16,146.12z"/>
							<path class="st1" d="M95.3,151.04c-0.01,0.22-0.01,0.44,0.01,0.67C95.3,151.48,95.29,151.26,95.3,151.04L95.3,151.04z"/>
							<path class="st1" d="M105.11,151.11c-0.01-0.2-0.03-0.4-0.06-0.59l0,0C105.08,150.71,105.1,150.91,105.11,151.11z"/>
							<path class="st1" d="M87.8,133.55c-0.68,0.01-1.36-0.01-2.04-0.06C86.44,133.54,87.12,133.55,87.8,133.55z"/>
							<path class="st1" d="M95.42,152.47c-0.05-0.24-0.08-0.48-0.1-0.71C95.34,151.99,95.37,152.23,95.42,152.47z"/>
							<path class="st1" d="M90.08,133.44c-0.65,0.05-1.3,0.08-1.94,0.1C88.78,133.53,89.43,133.5,90.08,133.44z"/>
							<path class="st1" d="M97.23,145.5c0.01-0.07,0.02-0.15,0.03-0.21C97.25,145.35,97.24,145.42,97.23,145.5
								C97.23,145.5,97.23,145.5,97.23,145.5z"/>
							<path class="st1" d="M103.74,149c0.25,0.39,0.38,0.81,0.4,1.26c0.03,0.13,0.03,0.26,0.03,0.39c0.29-0.04,0.59-0.08,0.88-0.12
								c-0.11-0.7-0.36-1.34-0.75-1.9c-0.26,0.03-0.51,0.07-0.77,0.09C103.6,148.81,103.68,148.9,103.74,149z"/>
							<path class="st1" d="M99.48,134.41c-0.01-0.03-0.01-0.06-0.01-0.08c0,0,0-0.01,0-0.01c-0.11,0.23-0.38,0.42-0.89,0.78
								c-0.17,0.12-0.34,0.24-0.51,0.36c0.05,0.2,0.09,0.41,0.12,0.62c0.46-0.33,0.88-0.63,1.29-0.91c0.19-0.14,0.28-0.06,0.32,0.15
								c0.07,0.38,0.14,0.77,0.22,1.15c0.04,0.21-0.02,0.32-0.24,0.27c-0.49-0.11-1-0.23-1.55-0.36c0.02,0.18,0.03,0.36,0.03,0.54
								c0.25,0.05,0.5,0.12,0.77,0.24c0.19,0.09,0.41,0.12,0.62,0.15c0.03,0,0.05,0.01,0.07,0.02c0.01-0.13,0.04-0.26,0.04-0.39
								c0.46,0.02,0.92,0,1.39-0.05c-0.02-0.12-0.04-0.23-0.06-0.35c-0.11-0.6-0.23-1.21-0.34-1.81c-0.36,0.1-0.73,0.2-1.1,0.26
								C99.59,134.79,99.54,134.6,99.48,134.41z"/>
							<path class="st1" d="M95.86,144.67c0.02-0.06,0.05-0.12,0.07-0.18C95.89,144.59,95.87,144.64,95.86,144.67z"/>
							<path class="st1" d="M97.16,146.12c-0.04-0.06-0.08-0.12-0.09-0.21c-0.04-0.2,0.05-0.31,0.16-0.4
								c0.01-0.08,0.02-0.15,0.03-0.21c0.03-0.23,0.1-0.45,0.15-0.67c-0.06,0.05-0.12,0.09-0.18,0.14
								c-0.37,0.28-0.52,0.18-0.61-0.23c-0.08-0.32-0.17-0.65-0.27-1c-0.01,0.03-0.03,0.07-0.04,0.1c-0.08,0.2-0.49,1.17-0.44,1.04
								c-0.06,0.14-0.11,0.27-0.17,0.41c0.24,0.81,0.5,1.61,0.81,2.4c0.11,0.27,0.09,0.47-0.09,0.68c-0.71,0.88-1.07,1.83-1.12,2.87
								l0,0l0,0c0.15,0.02,0.29,0.03,0.44,0.05c0,0,0-0.01,0-0.01c-0.02-0.67,0.23-1.5,0.6-2.06c0.28-0.42,0.57-0.73,0.89-1.02
								C97.1,147.4,97.11,146.7,97.16,146.12z"/>
							<path class="st1" d="M96.89,131.31c-0.17,0.03-0.34,0.07-0.51,0.09c-1.61,0.33-3.18,0.59-4.73,0.77
								c-0.57,0.36-1.1,0.79-1.58,1.27c0.72-0.06,1.45-0.13,2.17-0.23c0.51-0.4,1.16-0.68,1.96-0.71c0.6-0.03,1.11,0.05,1.56,0.2
								c0.85-0.16,1.7-0.32,2.55-0.48C97.91,131.83,97.43,131.52,96.89,131.31z"/>
							<path class="st1" d="M99.19,139.64c-0.42-0.1-0.84-0.2-1.25-0.31c-0.01,0.04-0.02,0.07-0.03,0.11
								c-0.05,0.16-0.1,0.31-0.15,0.47c0.27,0.08,0.52,0.15,0.8,0.23c-0.41,0.27-0.78,0.52-1.15,0.76
								c-0.12,0.33-0.25,0.66-0.38,0.99c0.59-0.4,1.18-0.8,1.77-1.2c0.06-0.15,0.12-0.3,0.18-0.45
								C99.06,140.04,99.13,139.84,99.19,139.64z"/>
							<path class="st1" d="M97.16,146.12C97.16,146.12,97.16,146.12,97.16,146.12c-0.05,0.58-0.06,1.28,0.07,1.87l0,0
								C97.1,147.4,97.11,146.7,97.16,146.12z"/>
							<path class="st1" d="M103.54,148.72L103.54,148.72c0.26-0.03,0.51-0.06,0.77-0.09c0,0,0-0.01,0-0.01
								C104.04,148.65,103.79,148.69,103.54,148.72z"/>
						</g>
						<path class="st7" d="M161.36,77.31c-3-4.96-8.69-8.07-14.49-7.91c-3.05,0.08-6.27,1.03-8.42,3.29
							c-2.03,2.14-3.05,5.11-3.16,8.02c-0.12,3.14,0.8,6.17,2.04,9.03c-0.26-0.28-0.53-0.55-0.82-0.8c-0.29-0.25-0.6-0.3-0.88-0.24
							c-1.15-0.78-2.23-1.65-3.11-2.72c-0.14-0.24-0.27-0.48-0.37-0.74c-0.1-0.27-0.29-0.44-0.5-0.55
							c-0.08-0.14-0.16-0.27-0.24-0.42c-0.39-0.79-1.65-0.53-1.83,0.25c-0.09-0.02-0.17-0.05-0.28-0.05
							c-1.2,0.05-1.89,0.89-2.85,1.48c-0.95,0.59-2.03,1-3.14,1.15c-0.54,0.07-0.99,0.41-1,1c0,0.49,0.46,1.07,1,1
							c1.14-0.15,2.2-0.43,3.24-0.92c0.47-0.22,0.92-0.48,1.34-0.79c0.21-0.15,0.47-0.41,0.74-0.62c0.59,1.54,1.78,2.68,3.14,3.73
							c1.53,1.17,2.84,2.45,3.91,4.02c-2.22,0.74-4.58,0.98-6.94,1.06c-3.89,0.13-7.79,0.06-11.69,0.07c-1.29,0-1.29,2,0,2
							c4.13-0.01,8.29,0.1,12.42-0.1c3.29-0.16,6.58-0.69,9.48-2.28c-0.71,1.84-2.2,3.05-4.04,3.86c-1.03,0.45-2.11,0.81-3.18,1.14
							c-1.13,0.35-2.26,0.62-3.42,0.23c-0.35-0.11-0.63-0.03-0.84,0.14c-0.17-0.08-0.33-0.18-0.49-0.3
							c-0.43-0.33-1.12-0.06-1.37,0.36c-0.31,0.51-0.07,1.04,0.36,1.37c2.54,1.95,6.45,0.5,9.07-0.5c2.96-1.13,6.18-3.16,6.09-6.74
							c-0.02-0.62-0.54-0.97-1.05-0.97c-0.08-0.38-0.35-0.72-0.71-0.82c-0.06-0.15-0.14-0.29-0.2-0.43c0.65-0.01,1.34-0.71,0.95-1.5
							c-1.68-3.42-3.19-7.22-2.81-11.11c0.35-3.47,2.26-6.68,5.64-7.88c6.13-2.19,13.34,0.72,16.65,6.2
							C160.29,79.42,162.02,78.42,161.36,77.31z"/>
						<path class="st7" d="M177.31,70.94c-0.21-1.3-0.84-2.49-1.52-3.61c-0.79-1.3-1.62-2.57-2.43-3.86
							c-0.93-1.48-1.86-2.95-2.79-4.43c-0.64-1.27-1.46-2.48-2.27-3.61c-0.74-1.02-2.43-0.1-1.73,1.01
							c0.83,1.32,1.66,2.64,2.49,3.95c0.6,1.32,0.91,2.71,0.56,4.15c-0.27,1.14-0.92,2.28-2.04,2.76c-1.61,0.69-3.45-0.22-4.88-0.93
							c-0.49-0.25-0.94-0.06-1.23,0.26c-1.79-0.83-3.63-1.56-5.45-2.24c-7.36-2.75-15.95-5.33-23.21-0.87
							c-0.37,0.23-0.49,0.58-0.45,0.92c-1.55,0.7-3,1.61-4.3,2.78c-0.96,0.86,0.46,2.27,1.41,1.41c5.39-4.87,13.7-4.76,20.41-3.46
							c7.24,1.4,14.1,4.85,18.76,10.68c2.48,3.11,4.17,6.77,4.86,10.69c0.22,1.27,2.15,0.73,1.93-0.53
							c-0.43-2.44-1.21-4.7-2.26-6.79c0.48-0.13,0.84-0.56,0.6-1.15c-1.49-3.71-4.08-6.43-7.18-8.56c0.42-0.02,0.85-0.07,1.27-0.2
							c0.08-0.02,0.15-0.06,0.23-0.09c0.03,0.18,0.1,0.36,0.25,0.53c1.07,1.16,2.14,2.33,3.21,3.49c0.49,0.54,0.99,1.08,1.48,1.61
							c0.34,0.37,0.69,0.86,1.2,1c1.11,0.3,2.16-0.85,2.61-1.73C177.35,73.17,177.48,72.03,177.31,70.94z"/>
						<path class="st7" d="M162.54,61.72c-1.9-2.71-4.6-4.57-7.47-6.14c-1.43-0.78-2.88-1.51-4.31-2.28
							c-0.74-0.4-1.47-0.91-2.25-1.23c-0.93-0.38-1.81-0.21-2.72,0.15c-0.12,0.05-0.22,0.11-0.31,0.19
							c-0.33,0.03-0.58,0.2-0.74,0.45c-0.55-0.1-1.09-0.19-1.65-0.27c-1.26-0.18-1.8,1.75-0.53,1.93c1.85,0.27,3.71,0.55,5.51,1.12
							c1.64,0.52,3.16,1.31,4.62,2.22c2.83,1.76,5.44,3.86,8.49,5.25C161.99,63.46,163.18,62.63,162.54,61.72z"/>
						<path class="st7" d="M170.77,219.7c-2.83,0.45-5.7,0.46-8.54,0.12c-0.32-0.04-0.58,0.02-0.79,0.13
							c-0.61-0.23-1.22-0.47-1.8-0.71c-0.94-0.39-1.87,0.58-1.9,1.45c-0.07,2.36-3.88,3.74-5.57,4.68
							c-2.89,1.61-5.78,3.22-8.67,4.82c-1.69,0.94-0.18,3.53,1.51,2.59c3.45-1.92,6.9-3.84,10.36-5.76
							c1.93-1.08,3.99-2.35,4.89-4.32c3.81,1.41,8.1,2.27,11.65-0.25C173.35,221.44,172.47,219.43,170.77,219.7z"/>
						<path class="st7" d="M129.98,215.56c-1.62-0.03-3.23-0.17-4.82-0.45c-0.81-0.14-1.61-0.31-2.4-0.52
							c-0.37-0.09-0.74-0.19-1.11-0.3c0.01-0.9-0.98-1.72-1.92-1.48c-1.08,0.28-1.71,1.26-1.73,2.31c-0.36,0.04-0.72,0.19-0.96,0.42
							c-0.63,0.63-0.5,1.48,0,2.12c1.8,2.32,4.71,3.49,7.51,4.01c1.64,0.3,3.33,0.55,4.74-0.54c1.16-0.9,1.71-2.31,2.14-3.68
							C131.72,216.51,130.92,215.58,129.98,215.56z"/>
						<path class="st7" d="M184.73,135.77c-0.91-7.24-3.56-14.04-6.23-20.77c-0.19-0.49-0.55-0.78-0.96-0.91
							c-0.83-1.28-3.09-0.5-2.69,1.22c2.32,9.99,4.78,21.18-0.21,30.79c-2.07,3.99-5.29,7.31-9.56,8.89
							c-2.51,0.93-5.16,1.42-7.76,2.06c-2.74,0.67-5.45,1.45-8.13,2.34c-2.95,0.98-5.84,2.1-8.71,3.3
							c-1.71,0.72-4.56,2.08-6.11,0.44c-0.52-0.55-1.17-0.55-1.68-0.27c-0.6-0.21-1.32-0.09-1.77,0.6
							c-1.87,2.89,0.19,6.41,3.21,7.34c3.66,1.12,7.25-1.07,10.62-2.19c2.54-0.85,5.13-1.47,7.74-1.96
							c0.47-0.02,0.95-0.05,1.42-0.06c2.16-0.04,4.34-0.04,6.5-0.14c2.04,6.72,4.18,13.72,3.45,20.83
							c-0.56,5.49-3.1,11.24-7.94,14.22c-5.43,3.33-12.76,3.33-18.78,1.87c-6.04-1.46-11.55-4.62-15.86-9.1
							c-1.43-1.49-2.75-3.11-3.88-4.85c-1.14-1.75-1.88-3.81-2.76-5.71c-1.92-4.17-3.84-8.33-5.76-12.5
							c0.37,0.92,0.25,2.37,0.36,3.36c0.13,1.18,0.33,2.38,0.38,3.56c0.08,2.09,0.86,4.08,1.66,6.02c-0.63,0.27-1.07,0.9-0.77,1.7
							c0.49,1.3,1.07,2.57,1.69,3.81c-0.93-0.01-1.84,0.7-1.42,1.8c4.07,10.61,13.03,18.31,23.34,22.66
							c0.75,0.32,1.64-0.34,1.85-1.05c0.06-0.2,0.07-0.38,0.05-0.56c4.47,1.21,9.25,1.52,13.85,1.64c0.29,0.01,0.54-0.06,0.74-0.17
							c3.34-0.06,6.64-0.67,9.68-2.07c3.19-1.47,5.83-4,7.29-7.21c1.68-3.71,2.22-7.93,2.31-11.97c0.2-9.21-2.5-18.19-6.26-26.52
							c2.82-0.31,5.58-0.91,8.23-2.17C182.49,159,186.11,146.72,184.73,135.77z M134,167.37c-0.42-0.36-0.7-0.83-0.75-1.34
							c0.72,0.45,1.53,0.69,2.37,0.77C135.08,166.99,134.53,167.17,134,167.37z M171.24,160.99c-0.67,0.36-1.36,0.67-2.06,0.94
							c-0.2-0.1-0.44-0.15-0.73-0.13c-2.65,0.2-5.3,0.42-7.95,0.69c4.28-0.8,8.47-1.85,12.25-4.17c3.22-1.98,5.85-4.82,7.64-8.14
							C178.71,154.77,175.59,158.66,171.24,160.99z"/>
						<path class="st7" d="M197.23,213.12c-0.47-0.17-0.91-0.41-1.32-0.67c-0.04-0.13-0.1-0.25-0.19-0.38
							c-1.87-2.73-2.95-5.66-3.51-8.69c-0.08-0.84-0.12-1.68-0.14-2.5c-0.08-2.82-0.03-5.64,0.08-8.46
							c0.59-4.34,1.74-8.67,2.87-12.73c0.35-1.26-0.85-2.03-1.84-1.82c0.64-5.94,1.55-11.85,2.72-17.71
							c0.12-0.62-0.11-1.13-0.49-1.45c0.04-0.49,0.09-0.99,0.11-1.48c0.36-7.19-1.49-14.12-3.23-21.04
							c-1.93-7.67-4.16-15.26-7.26-22.55c-0.75-1.77-3.34-0.24-2.59,1.51c2.88,6.74,4.92,13.81,6.73,20.91
							c1.82,7.12,3.77,14.22,3.33,21.64c-0.83,13.9-7.46,27.09-5.93,41.21c0.69,6.43,3.14,14.7,9.87,17.14
							C198.25,216.67,199.03,213.77,197.23,213.12z"/>
						<path class="st11" d="M97.65,134.6c-0.47-1.22-1.67-2.73-3.15-1.87c-0.01,0.01-0.02,0.02-0.03,0.02
							c-0.57-0.3-1.25-0.16-1.76,0.26c-2.5,2.08-4.42,5.21-4.03,8.58c0.19,1.68,0.93,3.22,1.8,4.65c0.84,1.38,1.87,2.56,3.18,3.51
							c1.27,0.91,2.75-0.83,2.05-2.05C93.18,143.28,99.39,139.17,97.65,134.6z"/>
						<path class="st7" d="M96.35,140.22c0.94-2.29,1.41-5.17-0.17-7.31c-0.48-0.65-1.3-0.98-2.05-0.54
							c-0.64,0.38-1.02,1.4-0.54,2.05c1.36,1.84,0.22,4.17-0.58,6.01c-1.14,2.61-1.77,5.19-0.89,7.99c0.57,1.84,3.47,1.05,2.89-0.8
							c-0.38-1.23-0.45-2.47-0.12-3.72C95.23,142.63,95.85,141.44,96.35,140.22z"/>
						<path class="st7" d="M111.59,129.93c-1.27,3.26-2.27,6.62-2.96,10.05c-0.15,0.75-0.28,1.5-0.41,2.25
							c-0.3,0.48-0.67,0.91-1.16,1.25c-0.7,0.47-1.49,0.77-2.3,1c-0.18-2.66-0.51-5.31-1-7.94c-0.15-0.8-1.11-1.25-1.84-1.05
							c-0.84,0.23-1.19,1.05-1.05,1.85c0.55,2.99,0.88,6,1,9.04c0.03,0.71,0.48,1.24,1.08,1.42c-0.01,0.08-0.02,0.16-0.02,0.25
							c0,0.74,0.69,1.59,1.5,1.5c1.03-0.12,2.06-0.24,3.1-0.36c0.98-0.11,2-0.14,2.62-1.03c0.56-0.79,0.52-1.83,0.63-2.76
							c0.08-0.71,0.2-1.42,0.31-2.12c0.21-0.38,0.39-0.79,0.55-1.21c0.65-1.68,0.97-3.5,1.39-5.25c0.49-2.03,0.98-4.06,1.46-6.09
							C114.95,128.81,112.28,128.16,111.59,129.93z"/>
						<path class="st8" d="M165.31,231.24c-0.07-0.31-0.14-0.62-0.19-0.93c-0.01-0.07-0.02-0.14-0.03-0.21c0-0.01,0-0.01,0-0.02
							c-0.02-0.17-0.04-0.34-0.05-0.52c-0.06-0.71-0.07-1.43-0.09-2.14c-0.01-0.75-0.56-1.37-1.3-1.47
							c-0.4-0.05-0.77,0.06-1.06,0.28c-0.5,0.02-0.98,0.23-1.24,0.7c-0.62,1.12-1.25,2.23-1.87,3.35c-0.32,0.56-0.68,1.13-0.86,1.75
							c-0.24,0.82-0.1,1.8,0.56,2.38c0.64,0.57,1.45,0.64,2.27,0.64c0.66,0,1.35-0.03,1.99-0.17c0.82-0.18,1.49-0.72,1.81-1.49
							C165.53,232.69,165.46,231.96,165.31,231.24z"/>
						<path class="st8" d="M118.09,222.25c-0.02-0.02-0.05-0.02-0.07-0.04c-0.12-0.2-0.28-0.37-0.49-0.48
							c-0.34-0.18-0.78-0.29-1.16-0.15c-1.29,0.48-2.46,1.17-3.47,2.12c-0.54,0.5-1.1,1.1-1.28,1.83c-0.16,0.67-0.02,1.37,0.46,1.88
							c0.4,0.42,1,0.63,1.58,0.61c1.45-0.07,2.8-0.66,3.93-1.55c0.22-0.17,0.43-0.36,0.62-0.57c0.32-0.35,0.51-0.69,0.68-1.13
							C119.22,223.87,118.93,222.78,118.09,222.25z"/>
						<path class="st8" d="M110.03,220.98c-0.2-0.31-0.52-0.63-0.9-0.69c-1.13-0.17-2.21-0.16-3.34,0.07
							c-0.98,0.2-1.94,0.6-2.79,1.14c-0.66,0.42-0.99,1.35-0.54,2.05c0.43,0.66,1.34,0.99,2.05,0.54c0.28-0.18,0.58-0.33,0.89-0.47
							c0.49-0.19,1-0.33,1.52-0.41c0.55-0.05,1.1-0.06,1.64,0.01c-0.06-0.01-0.11-0.02-0.17-0.02c0.39,0.05,0.74,0.05,1.09-0.16
							c0.31-0.18,0.61-0.54,0.69-0.9C110.27,221.75,110.25,221.32,110.03,220.98z"/>
						<path class="st8" d="M171.94,127.67c-0.64-4.06-2.49-7.77-5.82-10.24c-0.76-0.56-2.01,0.02-2.2,0.9
							c-0.45,2.1-0.08,4.1,0.3,6.18c0.42,2.26,0.68,4.54,0.81,6.83c0.2,3.83,0.26,8.07-1.37,11.63c-2.72,5.93-9.79,6.9-15.32,8.76
							c-3.25,1.09-6.43,2.55-8.77,5.13c-0.19,0.21-0.3,0.44-0.36,0.66c-0.09,0.07-0.19,0.14-0.28,0.22
							c-1.36,1.1,0.38,3.16,1.82,2.36c3.98-2.22,8.13-4.1,12.44-5.59c3.85-1.33,8.21-1.96,11.68-4.17c3.62-2.31,5.29-6.3,6.31-10.32
							C172.18,136,172.58,131.77,171.94,127.67z"/>
						<path class="st8" d="M181.64,169.13c-0.84-1.11-1.98-2.05-3.42-2.2c-1.34-0.14-2.65,0.48-3.56,1.47
							c-0.94,1.02-1.43,2.26-1.66,3.58c-0.18,0.23-0.29,0.54-0.27,0.92c0.14,2.8,0.3,5.62,0.92,8.37c0.57,2.54,1.6,5.46,3.48,7.35
							c0.96,0.97,2.39,1.27,3.58,0.51c1.13-0.72,1.6-2.09,1.89-3.32c0.7-2.92,0.92-6.05,0.97-9.06
							C183.62,174.11,183.28,171.29,181.64,169.13z"/>
						<path class="st8" d="M180.6,200.45c-0.12-1.29-0.47-2.5-1.1-3.64c-0.29-0.53-0.95-0.8-1.55-0.72
							c-0.2-0.02-0.41-0.01-0.63,0.05c-1.42,0.38-1.66,2.13-1.68,3.38c-0.01,0.39,0.03,0.78,0.09,1.16c0.01,0.11,0,0.22,0.02,0.33
							c0.06,0.49,0.17,1.02,0.36,1.51c0.18,0.65,0.4,1.29,0.63,1.92c0.27,0.73,1.03,1.31,1.85,1.05c0.54-0.18,1.03-0.69,1.11-1.27
							c0.05-0.04,0.1-0.07,0.14-0.12c0.55-0.55,0.64-1.33,0.73-2.06C180.65,201.52,180.65,200.99,180.6,200.45z"/>
						<path class="st8" d="M145.81,55.98c-2.74,0.13-5.4-0.78-8.15-0.41c-2.52,0.34-4.86,1.52-6.65,3.32
							c-1.36,1.37,0.76,3.5,2.12,2.12c1.4-1.41,3.28-2.38,5.28-2.53c2.48-0.19,4.91,0.61,7.4,0.49c0.81-0.04,1.5-0.66,1.5-1.5
							C147.31,56.7,146.62,55.94,145.81,55.98z"/>
						<path class="st8" d="M170.17,62c-0.42-1.76-1.61-3.11-3.01-4.19c-1.65-1.28-3.47-2.36-5.23-3.49
							c-1.78-1.14-3.62-2.12-5.71-2.56c-2.09-0.44-4.24-0.5-6.37-0.53c-1.93-0.03-1.93,2.97,0,3c1.75,0.03,3.52,0.03,5.24,0.36
							c1.86,0.36,3.44,1.13,5.03,2.14c1.53,0.98,3.08,1.95,4.57,2.98c1.13,0.78,2.24,1.7,2.57,3.09
							C167.73,64.68,170.63,63.88,170.17,62z"/>
						<path class="st8" d="M94.42,133.5c-0.53-0.53-1.61-0.63-2.12,0c-2.78,3.4-3.82,8-2.59,12.24c0.21,0.71,0.91,1.19,1.65,1.07
							c0.68-0.1,1.37-0.72,1.3-1.47c-0.16-1.66-0.36-3.5-0.1-5.08c0.23-1.42,0.71-2.63,1.67-3.59c0.42-0.42,0.51-0.91,0.39-1.35
							C94.94,134.73,94.94,134.02,94.42,133.5z"/>
						<path class="st1" d="M92.83,135.42c-0.18-0.18-0.53-0.21-0.71,0c-1.22,1.43-1.9,3.27-1.85,5.15c0.01,0.64,1.01,0.64,1,0
							c-0.04-1.61,0.51-3.22,1.56-4.45C93,135.92,93.03,135.62,92.83,135.42z"/>
						<path class="st1" d="M91.88,144.17c-0.1-0.43-0.2-0.86-0.31-1.28c-0.06-0.25-0.36-0.43-0.61-0.35
							c-0.27,0.09-0.41,0.34-0.35,0.62c0.1,0.43,0.2,0.86,0.31,1.28c0.06,0.25,0.36,0.43,0.62,0.35
							C91.8,144.7,91.95,144.45,91.88,144.17z"/>
						<path class="st1" d="M166.77,121.76c-0.39-1.22-2.32-0.7-1.93,0.53c1.81,5.69,2.55,12.71,0.37,18.42
							c-1.89,4.96-7.08,7.47-11.57,9.62c-1.16,0.56-0.15,2.28,1.01,1.73c4.88-2.35,10.16-5.11,12.32-10.41
							c1.22-2.99,1.51-6.42,1.47-9.62C168.41,128.55,167.83,125.08,166.77,121.76z"/>
						<path class="st1" d="M150.37,153.31c-0.15-0.47-0.71-0.91-1.23-0.7c-1.46,0.6-2.92,1.19-4.37,1.79
							c-0.25,0.1-0.46,0.22-0.6,0.46c-0.13,0.21-0.18,0.53-0.1,0.77c0.15,0.47,0.71,0.91,1.23,0.7c1.46-0.6,2.92-1.19,4.37-1.79
							c0.25-0.1,0.46-0.22,0.6-0.46C150.39,153.87,150.44,153.55,150.37,153.31z"/>
						<path class="st1" d="M179.14,170.87c-0.17-0.51-0.69-0.85-1.23-0.7c-0.5,0.14-0.87,0.72-0.7,1.23
							c0.92,2.76,1.25,5.64,0.99,8.54c-0.05,0.54,0.49,1,1,1c0.58,0,0.95-0.46,1-1C180.48,176.88,180.11,173.78,179.14,170.87z"/>
						<path class="st1" d="M179.3,182.61c-1.29,0-1.29,2,0,2C180.59,184.61,180.59,182.61,179.3,182.61z"/>
						<path class="st1" d="M179.59,202.07c-0.21-1.12-0.42-2.24-0.62-3.36c-0.1-0.52-0.75-0.85-1.23-0.7
							c-0.55,0.18-0.8,0.68-0.7,1.23c0.21,1.12,0.42,2.24,0.62,3.36c0.1,0.52,0.75,0.85,1.23,0.7
							C179.45,203.12,179.7,202.62,179.59,202.07z"/>
						<path class="st1" d="M163.94,232.47c-0.09-0.34-0.17-0.68-0.23-1.03c-0.01-0.04-0.01-0.08-0.02-0.12
							c-0.01-0.07-0.02-0.14-0.02-0.21c-0.02-0.17-0.03-0.35-0.04-0.52c-0.02-0.35-0.01-0.7,0.01-1.05
							c0.01-0.16,0.03-0.32,0.04-0.48c0-0.02,0-0.02,0-0.03c0-0.01,0-0.01,0-0.02c0.02-0.11,0.03-0.21,0.05-0.32
							c0.09-0.51-0.14-1.1-0.7-1.23c-0.49-0.11-1.13,0.15-1.23,0.7c-0.29,1.62-0.25,3.27,0.19,4.86c0.14,0.5,0.72,0.86,1.23,0.7
							C163.76,233.53,164.09,233.01,163.94,232.47z"/>
						<path class="st1" d="M107.98,221.18c-0.15-0.46-0.71-0.92-1.23-0.7c-0.76,0.32-1.54,0.59-2.33,0.81
							c-0.39,0.11-0.78,0.2-1.18,0.28c-0.21,0.04-0.41,0.08-0.62,0.12c-0.09,0.01-0.18,0.03-0.27,0.04
							c-0.04,0.01-0.41,0.06-0.18,0.03c-0.28,0.04-0.5,0.09-0.71,0.29c-0.17,0.17-0.3,0.46-0.29,0.71c0.02,0.48,0.44,1.07,1,1
							c1.76-0.23,3.47-0.66,5.1-1.34c0.25-0.11,0.45-0.21,0.6-0.46C108,221.74,108.06,221.42,107.98,221.18z"/>
						<path class="st1" d="M109.54,219.41c-1.29,0-1.29,2,0,2C110.83,221.41,110.83,219.41,109.54,219.41z"/>
						<path class="st1" d="M117.76,223.06c-0.38-0.35-1.04-0.41-1.41,0c-0.17,0.19-0.35,0.37-0.54,0.54
							c-0.1,0.09-0.19,0.17-0.29,0.25c0,0,0,0,0,0c0,0-0.01,0.01-0.01,0.01c-0.05,0.04-0.1,0.08-0.16,0.11
							c-0.39,0.28-0.81,0.51-1.25,0.7c-0.21,0.09-0.43,0.17-0.65,0.23c-0.5,0.15-0.87,0.71-0.7,1.23c0.16,0.51,0.69,0.86,1.23,0.7
							c1.44-0.43,2.77-1.25,3.79-2.36C118.11,224.08,118.17,223.43,117.76,223.06z"/>
					</g>
					<path class="st10" d="M95.94,118.49c-0.32-1.78-0.68-3.56-1.1-5.32c-0.23-0.99-0.45-2-0.75-2.98
						c-0.25-0.83-0.79-1.55-1.74-1.48c-0.52,0.04-1.03,0.29-1.52,0.45c-0.39,0.13-0.81,0.25-1.18,0.46
						c-0.33,0.19-0.6,0.45-0.77,0.76c-0.29,0.16-0.44,0.46-0.47,0.77c-0.1,0.24-0.1,0.53,0.07,0.83c0.21,0.35,0.58,0.59,0.96,0.64
						c-0.13,0.85,0.01,1.79,0.2,2.64c0.41,1.89,0.81,3.77,1.22,5.65c0.16,0.76,0.2,1.8,1.09,2.04c0.41,0.11,0.91,0,1.33-0.02
						c0.48-0.03,0.96-0.05,1.44-0.09c0.82-0.07,1.57-0.46,1.63-1.37C96.44,120.51,96.11,119.43,95.94,118.49z"/>
					<path class="st4" d="M98.84,131.3c-0.7-1.73-1.25-3.52-1.61-5.35c-0.18-0.91-0.35-1.84-1.22-2.35
						c-0.75-0.44-1.78-0.47-2.49,0.05c-0.17,0.13-0.31,0.31-0.4,0.5c0,0,0,0-0.01,0c-0.49,0.14-0.88,0.72-0.7,1.23
						c0.29,0.83,0.54,1.67,0.74,2.52c0.1,0.42,0.19,0.83,0.26,1.25c0.07,0.4,0.1,0.82,0.21,1.21c0.28,0.95,1.04,1.37,1.97,1.47
						c0.17,0.02,0.33,0.02,0.5,0.03c0.08,0,0.16,0.01,0.24,0.02c0.02,0,0.03,0,0.04,0c0.02,0.01,0.04,0.01,0.07,0.02
						c0.07,0.02,0.14,0.04,0.21,0.06c0.03,0.01,0.06,0.02,0.08,0.02c0,0,0.01,0.01,0.04,0.02c0.18,0.09,0.31,0.18,0.39,0.25
						c0.34,0.3,0.81,0.39,1.21,0.16C98.73,132.23,99.01,131.71,98.84,131.3z"/>
					<path class="st4" d="M116.95,210.35c-0.24-1.22-0.94-1.99-1.74-2.89c-0.96-1.07-1.41-2.41-1.84-3.76
						c-0.92-2.94-1.81-5.95-2.11-9.02c-0.15-1.55-0.11-3.08,0.07-4.62c0.13-1.1,0.09-1.96-0.61-2.85c0.16-2.59-0.94-5.27-1.62-7.94
						c-0.1-1.06-0.26-2.11-0.53-3.14c-0.03-0.11-0.08-0.19-0.13-0.27l-0.19-0.98c-0.05-0.27-0.18-0.44-0.34-0.56
						c-0.08-0.46-0.17-0.92-0.27-1.38c0.03-0.14,0.03-0.3-0.03-0.47c-0.19-0.68-0.39-1.36-0.58-2.04c-0.17-0.62-0.34-1.24-0.52-1.85
						c0.19-0.21,0.3-0.49,0.23-0.83c0.03-0.15,0.04-0.31-0.01-0.5c-0.43-1.55-0.86-3.1-1.29-4.65c-0.11-0.42-0.21-0.84-0.32-1.26
						c-0.01-0.05-0.05-0.09-0.07-0.14c-0.09-0.33-0.18-0.66-0.28-0.99c0,0,0-0.01,0-0.01c0.24-0.21,0.38-0.53,0.27-0.96
						c-0.24-0.93-0.49-1.86-0.73-2.8c0-0.1,0.01-0.21-0.02-0.32c-0.61-2.28-1.23-4.56-1.84-6.84c-0.06-0.22-0.18-0.37-0.32-0.49
						c-0.08-0.31-0.19-0.62-0.29-0.93c0.19-0.21,0.3-0.51,0.22-0.89c-0.58-2.64-1.16-5.28-1.74-7.92c-0.2-0.91-1.79-0.99-1.93,0
						c-0.23,1.72-0.73,3.33-1.56,4.86c-0.39,0.72,0.17,1.39,0.79,1.49c0.41,2.01,0.83,4.02,1.24,6.03c0.06,0.27,0.19,0.44,0.35,0.56
						c0.18,0.9,0.37,1.79,0.57,2.69c-0.21,0.22-0.35,0.52-0.29,0.91c0.39,2.5,0.94,4.97,1.62,7.41c0,0.12,0.01,0.24,0.05,0.37
						c0.78,2.16,1.35,4.37,1.67,6.64c0.04,0.26,0.08,0.52,0.12,0.78c0.04,0.24,0.16,0.4,0.33,0.52c0.2,2.06,0.65,4.07,1.17,6.08
						c0.37,4.61,1.36,9.11,3.03,13.43c0.03,0.07,0.06,0.13,0.1,0.19c0.65,8.19,4.34,15.73,5.27,23.87c0.09,0.77,0.78,1.22,1.5,0.86
						c0.96-0.47,2.23-0.83,2.6-1.95C117.26,212.78,117.15,211.38,116.95,210.35z"/>
					<path class="st13" d="M96.26,99.19c-0.01-0.01-0.02-0.03-0.02-0.04c0,0,0,0,0,0c-0.01-0.18,0.01-0.36,0.02-0.54
						c0.02-0.27,0-0.56-0.09-0.82c-0.1-0.31-0.26-0.62-0.51-0.84c-0.18-0.16-0.37-0.28-0.6-0.35c0,0-0.01,0-0.01,0
						c-0.1-0.19-0.19-0.38-0.29-0.56c-0.64-1.25-1.28-2.5-1.92-3.76c-2.75-5.38-5.51-10.75-8.26-16.13
						c-0.39-0.76-1.64-0.55-1.83,0.22c-0.15,0.16-0.26,0.35-0.28,0.62c-0.4,5.25-0.68,10.5-0.81,15.76c-0.07,2.6-0.22,5.24-0.1,7.84
						c0.11,2.44,2.16,3.72,3.82,5.25c1.44,1.32,2.9,3.17,5.08,2.83c1.9-0.3,3.13-1.84,3.83-3.53c0.42-1.01,0.7-2.08,1.02-3.13
						c0.14-0.46,0.28-0.91,0.4-1.38c0.07-0.02,0.15-0.03,0.22-0.07c0.21-0.14,0.4-0.34,0.46-0.6C96.42,99.71,96.42,99.4,96.26,99.19
						z"/>
					<path class="st7" d="M96.62,122.02c-1.03-4.39-1.98-8.79-2.84-13.21c-0.1-0.52-0.62-0.76-1.09-0.71
						c1.51-2.08,2.38-4.53,3.17-6.96c0.43-1.32,0.75-2.66,0.36-4.03c-0.37-1.29-1.19-2.43-1.89-3.56
						c-3.26-5.29-6.4-10.65-9.43-16.07c-0.18-0.33-0.46-0.46-0.74-0.48c-0.02-0.05-0.04-0.09-0.05-0.14
						c-0.43-1.2-2.36-0.68-1.93,0.53c1.78,4.97,3.62,9.94,6.08,14.63c1.17,2.21,2.48,4.41,2.93,6.9c0.52,2.85,0.02,5.78-0.45,8.6
						c-0.14,0.82,0.5,1.32,1.13,1.21c-0.13,0.24-0.27,0.48-0.4,0.72c-0.19,0-0.37,0.01-0.56,0.03c-0.66,0.09-1.32,0.2-1.98,0.3
						c-0.54,0.08-0.82,0.75-0.7,1.23c0.15,0.57,0.7,0.78,1.23,0.7c0.29-0.04,0.58-0.09,0.87-0.13c0.18-0.03,0.53-0.02,0.74-0.08
						c0,0.23,0.1,0.52,0.14,0.75c0.22,1.19,0.44,2.38,0.67,3.57c0.44,2.33,0.87,4.67,1.31,7c0.08,0.42,0.55,0.74,0.96,0.73
						c0.61-0.01,1.19-0.1,1.77-0.28C96.45,123.09,96.74,122.56,96.62,122.02z"/>
					<path class="st7" d="M98.77,132.12c-0.58-2.29-1.13-4.59-1.74-6.87c-0.13-0.47-0.32-0.93-0.67-1.27
						c-0.45-0.43-1.04-0.52-1.64-0.46c-1.01,0.1-2.04,0.36-2.59,1.3c-0.65,1.11,1.07,2.12,1.73,1.01c0.01-0.02,0.02-0.04,0.03-0.06
						c0.01,0,0.01-0.01,0.02-0.02c0.01-0.01,0-0.01,0.01-0.01c0.01,0,0.01,0,0.03-0.01c0.03-0.02,0.11-0.05,0.12-0.06
						c0.06-0.02,0.11-0.04,0.17-0.05c0.09-0.02,0.18-0.04,0.26-0.06c0.01,0,0.12-0.02,0.14-0.02c-0.01,0,0.25-0.01,0.37-0.02
						c0,0.01,0.01,0.01,0.01,0.03c0.02,0.07,0.04,0.14,0.06,0.21c0.13,0.46,0.24,0.93,0.35,1.39c0.47,1.84,0.94,3.69,1.4,5.53
						C97.16,133.9,99.09,133.37,98.77,132.12z"/>
					<path class="st7" d="M99.79,146.12c0-0.01-0.01-0.02-0.01-0.03c0.24-1.04,0.54-2.06,0.93-3.05c0.11-0.28,0.22-0.57,0.33-0.85
						c0.22-0.52-0.14-0.98-0.6-1.17c0.05-0.23,0.1-0.46,0.16-0.7c0.11-0.48-0.12-0.96-0.57-1.16c0.01-0.04,0.03-0.08,0.04-0.13
						c0.38-1.23-1.55-1.76-1.93-0.53c-0.38,1.23-0.76,2.47-1.14,3.7c-0.37,1.19-0.88,2.4-0.61,3.67c0.07,0.36,0.41,0.62,0.76,0.7
						l-0.23,1.05c-0.12,0.51,0.12,0.89,0.47,1.09c0.06,0.27,0.27,0.5,0.53,0.63c0.19,3.09,0.6,6.17,1.22,9.2
						c0.26,1.26,2.19,0.73,1.93-0.53C100.25,154.09,99.83,150.11,99.79,146.12z"/>
					<path class="st7" d="M117.37,212.59c-0.22-0.75-0.49-1.47-0.8-2.18c-0.03-0.12-0.07-0.22-0.1-0.34
						c-0.05-0.24-0.17-0.39-0.32-0.51c-0.03-0.06-0.05-0.11-0.08-0.17c-0.07-0.17-0.14-0.34-0.21-0.5c-0.75-1.75-1.7-3.41-2.38-5.19
						c-0.67-1.75-1.17-3.56-1.56-5.39c-1.59-7.45-1.38-15.14-2.71-22.64c-0.08-0.44-0.36-0.65-0.69-0.7
						c-0.08-2.09-0.29-4.17-0.96-6.16c-0.41-1.21-2.34-0.69-1.93,0.53c1.22,3.65,0.87,7.63,1.03,11.43
						c0.17,3.9,0.52,7.79,1.03,11.65c1.03,7.75,2.73,15.39,5.08,22.85c0.2,0.63,0.89,0.91,1.47,0.6c0.68-0.36,1.35-0.46,1.86-0.78
						c0.34-0.12,0.56-0.4,0.65-0.77c0.06-0.15,0.11-0.33,0.14-0.54c0.01-0.03,0-0.07,0.01-0.1
						C117.26,213.46,117.51,213.06,117.37,212.59z"/>
					<path class="st1" d="M90.17,107.61c-1.38-1.35-2.78-2.71-3.93-4.27c-1.18-1.59-1.99-3.34-2.42-5.28
						c-0.17-0.74-0.28-1.49-0.38-2.24c-0.16-3.03,0.11-6.15-0.05-9.13c0.13-2.38,0.25-4.76,0.38-7.14c0.03-0.64-0.97-0.64-1,0
						c-0.09,1.76-0.19,3.52-0.28,5.28c-0.11,0.08-0.2,0.2-0.22,0.39c-0.18,2.12-0.22,4.24-0.15,6.36c-0.03,0.48-0.05,0.96-0.08,1.44
						c-0.07,1.35-0.15,2.71-0.22,4.06c-0.1,0.11-0.16,0.26-0.13,0.44c0.02,0.14,0.06,0.27,0.08,0.41c-0.03,0.63-0.07,1.26-0.1,1.89
						c-0.05,0.88-0.06,1.73,0.45,2.49c0.37,0.55,0.87,1.03,1.37,1.48c0.02,0.03,0.05,0.05,0.08,0.07c0.16,0.14,0.31,0.28,0.47,0.41
						c1.72,1.52,3.6,2.85,5.51,4.12C90.04,108.72,90.57,108.01,90.17,107.61z"/>
					<path class="st1" d="M89.92,110.37c-0.18-0.61-1.15-0.35-0.96,0.27c1.17,3.92,2.07,7.91,2.69,11.95
						c0.1,0.63,1.06,0.36,0.96-0.27C92,118.28,91.1,114.29,89.92,110.37z"/>
					<path class="st1" d="M95.19,130.62c-0.28-1.39-0.57-2.77-0.85-4.16c-0.05-0.26-0.37-0.42-0.61-0.35
						c-0.28,0.08-0.4,0.35-0.35,0.61c0.28,1.39,0.57,2.77,0.85,4.16c0.05,0.26,0.37,0.42,0.61,0.35
						C95.12,131.16,95.25,130.89,95.19,130.62z"/>
					<path class="st1" d="M100.72,156.55c-0.19-0.61-1.15-0.35-0.96,0.27c2.85,9.39,4.86,19.03,5.97,28.78c0.07,0.63,1.07,0.64,1,0
						C105.6,175.76,103.6,166.03,100.72,156.55z"/>
				</g>
				<g>
					<path class="st9" d="M126.34,80.61c0-0.01,0-0.01,0-0.02c0-0.22,0.08-0.43,0.27-0.59c-0.19,0.16-0.27,0.37-0.27,0.59
						C126.34,80.6,126.34,80.61,126.34,80.61c0,0.43,0.31,0.88,0.73,1.02C126.65,81.49,126.34,81.04,126.34,80.61z"/>
					<path class="st9" d="M119.87,94.51c5.75,0.33,14.29,1.77,19.15-2.08c-1.29-1.95-3.43-2.94-5.17-4.54
						c-1.18-1.09-2.02-2.3-2.81-3.62c-2.6,2.23-5.24,4.02-8.51,5.28c-3.08,1.18-5.85,2.4-8.48,4.4c-0.51,0.39-0.99,0.8-1.47,1.21
						C114.79,94.21,117.37,94.37,119.87,94.51z M127.46,90.66c0.51-0.42,1.11-0.71,1.66-1.08c0.61-0.42,1.03-0.99,1.52-1.54
						c0.81-0.91,2.41,0.32,1.69,1.31c-0.94,1.29-3.05,2.57-4.69,1.98C127.38,91.23,127.21,90.86,127.46,90.66z"/>
					<path class="st9" d="M94.4,133.5c-2.47,0.76-3.93,2.58-4.71,4.94c-1.09,3.27,0.33,7.06,3.41,9.36c0.53,0.4,1.05,0.83,1.8,0.93
						c-0.06-0.36-0.09-0.68-0.16-0.99c-0.4-1.78-0.3-3.51,0.43-5.2c0.37-0.87,0.73-1.75,1.05-2.64c0.51-1.4,1.04-2.81,0.98-4.34
						C97.12,133.93,95.96,133.02,94.4,133.5z"/>
					<path class="st9" d="M130.4,98.85c2.57-0.32,6.6-1.57,8.29-3.99c-3.24,1.64-7.21,1.63-10.82,1.67
						c-3.85,0.05-7.5-0.14-11.2-0.09c0.85,0.24,1.68,0.51,2.45,0.77C122.83,98.4,126.49,99.33,130.4,98.85z"/>
					<path class="st9" d="M109.91,146.13c0.84-5.08,1.91-10.11,3.22-15.09c0.1-0.39,0.21-0.77,0.31-1.16
						c-0.37,0.39-0.75,0.77-1.15,1.12c-1.92,1.7-3.98,3.27-6.3,4.38c-1.91,0.91-4.1,1.65-6.25,1.55c-0.08,1.13-0.37,2.27-0.77,3.29
						c-0.64,1.66-1.47,3.27-1.73,5.06c-0.12,0.83-0.4,3.14,0.56,3.74c0.13,0.02,0.25,0.05,0.35,0.1c0.94-0.04,1.88-0.09,2.81-0.16
						c2.92-0.22,5.82-0.63,8.69-1.19C109.75,147.23,109.82,146.68,109.91,146.13z"/>
					<path class="st9" d="M131.2,61.56c0.61-0.26,1.19-0.58,1.81-0.79c4.5-1.58,9.14-1.91,13.82-1.25c7.31,1.03,14.06,3.59,20.1,7.9
						c2.95,2.11,5.72,4.38,7.09,7.89c0.01,0.01,0.02,0.02,0.03,0.03c0.01,0.04,0.02,0.08,0.03,0.12c0.01,0.02,0.01,0.03,0.02,0.04
						c0.1,0.28,0.24,0.27,0.49,0.15c0.75-0.38,1.39-1.14,1.79-2.01c0.44-1.34,0.31-2.79-0.14-4.11c-0.22-0.65-0.55-1.26-0.91-1.86
						c-0.15-0.23-0.29-0.46-0.45-0.68c-1.1-1.51-2.15-3.05-3.15-4.63c-1.63-2.58-3.57-4.89-6.16-6.57
						c-6.2-4.03-12.87-4.84-19.93-2.8c-0.98,0.28-1.95,0.6-3,1.23c4,0.64,7.7,1.68,11.25,3.2c3.56,1.52,6.92,3.38,9.88,5.89
						c-0.04,0.05-0.08,0.11-0.11,0.16c-0.14-0.07-0.29-0.14-0.43-0.22c-3.46-1.91-7.05-3.51-10.83-4.7
						c-4.66-1.47-9.45-2.23-14.3-2.65c-1.94-0.17-3.76,0.28-5.34,1.48c-1.24,0.95-2.01,2.18-2.14,3.76
						c-0.02,0.18-0.04,0.43,0.06,0.54C130.85,61.84,131.04,61.62,131.2,61.56z"/>
					<path class="st9" d="M127.79,81.53L127.79,81.53c-0.04,0.02-0.08,0.02-0.12,0.04C127.71,81.56,127.75,81.56,127.79,81.53z"/>
					<path class="st9" d="M124.84,82.71c0.01-0.53,0.07-1.06,0.14-1.53c0.07-0.47,0.16-0.88,0.25-1.18
						c0.24-0.82,0.57-1.86,1.57-1.87c0.38,0,0.69,0.16,0.95,0.4c0.25,0.24,0.45,0.57,0.6,0.91c0.1,0.22,0.18,0.45,0.25,0.65
						c0.21,0.66,0.43,1.97,0.35,3.18c0.13-0.18,0.25-0.36,0.36-0.54c0.22-0.37,0.39-0.75,0.52-1.14c0.32-0.99,0.39-2.09,0.21-3.33
						c-0.36-2.6-1.8-5.55-4.49-4.31c-0.11,0.27-0.2,0.55-0.3,0.82c0.77-0.15,1.63-0.05,2.21,0.34c0.12,0.08,0.22,0.17,0.31,0.27
						c0.18,0.21,0.3,0.46,0.34,0.77c0.01,0.09-0.08,0.15-0.16,0.16c-0.69,0.07-1.43-0.05-2.13-0.01c-0.43,0.02-0.8,0.19-1.18,0.31
						c-0.95,3.2-1.42,6.63-1.57,10.14c0.8-0.38,1.59-0.78,2.38-1.2C124.95,84.86,124.81,83.77,124.84,82.71z"/>
					<path class="st9" d="M191.18,197.94c0.44-5.4,1.4-10.81,2.4-16.21c0.9-11.36,1.92-22.37,0.29-33.9
						c-0.96-6.8-2.46-13.55-4.63-20.07c-0.79-2.37-1.62-4.98-2.57-7.58c-1.74-3.75-4-7.12-6.34-10.55
						c-0.58-0.86-1.16-1.73-1.71-2.61c-2.38-3.28-4.41-6.74-4.86-11.15c-0.63-6.21-0.29-12.52-1.52-18.34
						c-0.43-0.6-0.78-1.28-1.04-1.72c-1.55-2.61-3.54-4.9-6-6.71c0,0,0,0-0.01-0.01c-3.23-2.15-6.71-3.87-10.4-5.21
						c-5.81-2.11-11.77-3.12-17.93-1.9c-0.52,0.1-1.04,0.23-1.54,0.37c-4.24,2.57-7.12,5.96-9.02,9.87
						c0.18-0.03,0.37-0.06,0.57-0.06c1.59-0.01,2.87,1.23,3.55,2.56c1.03,2.03,1.43,4.85,0.65,7.03c0.42-0.1,0.87,0.02,1.11,0.44
						c0.98,1.74,2.39,3.08,3.85,4.36c-2.43-4.3-2.86-9.31,0.73-13.74c4.3-5.31,12.53-6.33,18.38-3.04c6,3.37,8.08,11.71,7.46,18.11
						c-0.79,8.23-7.28,12.67-14.01,16.16c4.19,1.2,7.77,3.72,10.24,7.43c1.15,1.73,1.94,3.78,2.35,5.87
						c0.85,3.34,1.1,6.81,1.22,10.28c0.1,2.92,0.21,5.9-0.07,8.82c0,0.46-0.01,0.92-0.02,1.38c-0.14,4.05-2.03,7-5.55,8.94
						c-2.65,1.46-5.5,2.47-8.29,3.6c-0.96,0.39-1.91,0.77-2.86,1.18c-2.22,0.94-4.39,1.97-6.38,3.36c-2.62,1.82-4.89,3.97-6.38,6.84
						c-0.03,0.06-0.07,0.11-0.09,0.17c-0.5,1-0.81,2.04-0.69,3.17c0.08,0.77,0.49,1.17,1.26,1.21c0.4,0.02,0.79-0.01,1.19-0.1
						c1.09-0.27,2.16-0.62,3.2-1.03c1.32-0.52,2.67-0.9,4.03-1.21c1.81-0.41,3.64-0.67,5.51-0.75c3.91-0.18,7.8-0.37,11.68-0.93
						c4.05-0.58,7.95-1.63,11.5-3.73c4.91-2.91,8.43-6.95,9.95-12.56c1.17-4.29,1.04-8.62,0.3-12.96c-0.71-4.16-2.12-8.1-3.91-11.89
						c-0.86-1.83-1.53-3.69-2.02-5.58c0.04-0.17,0.08-0.35,0.14-0.51c0.02-0.05,0.02-0.07,0.03-0.09c0.04-0.08,0.11-0.2,0.12-0.22
						c0.02-0.03,0.08-0.1,0.13-0.17c0.02-0.02,0.03-0.04,0.04-0.06c0.06-0.06,0.14-0.12,0.2-0.18l0.05-0.03
						c0.04-0.03,0.09-0.05,0.13-0.07c0.09-0.03,0.24-0.07,0.25-0.08l0.09-0.02c0.14-0.03,0.12-0.02-0.07,0
						c0.09-0.04,0.29-0.02,0.39-0.02c0.1,0,0.21,0.01,0.31,0.01c0.03,0,0.05,0.01,0.07,0.01c0.05,0.01,0.09,0.02,0.14,0.03
						c0.09,0.02,0.18,0.04,0.27,0.07c0.28,1.17,0.62,2.32,1.06,3.45c1.28,3.24,2.77,6.4,3.84,9.73c1.03,3.24,1.68,6.54,1.8,9.96
						c0.12,3.41-0.19,6.85-1.2,10.12c-0.43,1.41-1.29,2.64-1.98,3.95c-0.74,1.41-1.52,2.82-2.59,4.01
						c-3.94,4.36-8.99,7.01-14.51,8.43c3.21,5.03,4.82,11.75,6.13,17.29c1.61,6.81,2.15,14.08,0.09,20.86
						c-2.5,8.25-8.6,12.11-15.73,13.22c4.3,1.55,8.02,4.12,13.01,4.08c6.72-0.05,11.08-5.48,15.92-9.28
						c0.14-0.11,0.37,0.03,0.26,0.2c-1.82,2.87-4.22,5.59-7.07,7.57c7.78,0.95,15.64,0.46,22.52-3.49
						C192.93,210.34,190.58,205.18,191.18,197.94z"/>
					<path class="st9" d="M168.1,200.63c0.23-0.81,0.41-1.63,0.56-2.46c0.15-0.82,0.27-1.65,0.35-2.49c0.12-1.25,0.17-2.5,0.16-3.76
						c-0.01-0.84-0.05-1.68-0.11-2.51c-0.22-2.93-0.75-5.85-1.46-8.67c-0.65-2.58-1.38-5.59-2.34-8.53
						c-0.24-0.74-0.5-1.47-0.77-2.18c-0.27-0.72-0.56-1.42-0.87-2.1c-0.31-0.69-0.64-1.35-0.99-1.98c-0.33-0.6-0.68-1.16-1.04-1.69
						c-0.3,0.06-0.6,0.14-0.9,0.19c-4.57,0.83-9.21,0.86-13.83,1.18c-2.32,0.16-4.6,0.49-6.82,1.18c-1.88,0.59-3.68,1.39-5.62,1.77
						c-2.98,0.59-5.15-1.29-4.83-4.2c0.1-0.89,0.35-1.76,0.68-2.59c0.11-0.28,0.24-0.54,0.36-0.8c1.36-2.9,3.52-5.17,6.03-7.14
						c1.15-0.9,2.36-1.68,3.61-2.38c2.07-1.15,4.25-2.09,6.45-2.98c1.98-0.81,3.98-1.55,5.94-2.39c0.67-0.29,1.34-0.6,1.99-0.92
						c0.2-0.1,0.4-0.18,0.6-0.28c2.07-1.07,3.6-2.55,4.37-4.64c0.44-1.63,0.67-3.29,0.79-4.97c0.01-0.16,0.02-0.32,0.03-0.48
						c0.12-2.24,0.04-4.5-0.03-6.74c-0.09-2.65-0.22-5.34-0.66-7.96c-0.25-1.25-0.55-2.5-0.91-3.75c-0.23-0.69-0.48-1.38-0.79-2.06
						c-0.08-0.18-0.1-0.36-0.08-0.52c-0.73-1.83-1.7-3.45-3.27-4.89c-2.31-2.1-5.22-3.37-8.27-3.94c-0.57-0.11-0.68-1-0.16-1.26
						c4.87-2.43,10.26-5.07,13.06-9.99c3.08-5.4,2.18-13.16-0.84-18.45c-4.06-7.12-15.46-7.84-20.58-1.53
						c-3.97,4.89-2.48,10.15,0.39,14.85c0.97,0.9,2.04,1.94,2.66,3.13c0.6,1.17,0.46,2.79-0.04,3.95c-0.61,1.41-2.33,2.38-3.64,3.1
						c-1.29,0.71-2.68,1.32-4.12,1.68c-2.16,0.55-4.39,0.66-6.6,0.47c0.77,2.45,0.13,5.02-1,7.4c-1.71,3.6-4.11,6.66-6.09,10.05
						c-0.47,0.89-0.89,1.8-1.25,2.74c-1.29,3.4-2.24,6.97-3.16,10.48c-2.23,8.47-3.85,17.23-4.81,25.96
						c-0.08,0.68-0.15,1.36-0.22,2.05c-0.01,0.09-0.02,0.18-0.03,0.28c0,0.01,0,0.03,0,0.04c-0.1,1-0.18,1.99-0.24,2.99
						c-0.01,0.11-0.01,0.22-0.02,0.33c-0.05,0.84-0.09,1.68-0.12,2.52c-0.01,0.24-0.01,0.47-0.02,0.71
						c-0.02,0.79-0.03,1.59-0.02,2.38c0,0.18,0,0.35,0,0.53c0.01,0.95,0.05,1.91,0.1,2.86c0,0.04,0,0.09,0,0.13
						c0.04,0.61,0.08,1.22,0.14,1.83c0.02,0.22,0.05,0.43,0.07,0.65c0.05,0.47,0.1,0.93,0.16,1.4c0.04,0.29,0.08,0.58,0.12,0.87
						c0.06,0.42,0.13,0.85,0.2,1.27c0.04,0.27,0.08,0.54,0.13,0.81c0.11,0.63,0.24,1.26,0.38,1.89c0.05,0.25,0.12,0.5,0.17,0.74
						c0.11,0.47,0.23,0.93,0.35,1.4c0.06,0.23,0.12,0.46,0.19,0.68c0.19,0.68,0.39,1.35,0.61,2.03c0.64,1.93,1.4,3.83,2.29,5.66
						c0.3,0.61,0.61,1.22,0.93,1.81c3.88,7.16,9.71,13.22,17.23,16.61c1.33,0.6,2.74,1.14,4.18,1.62c0.28-0.03,0.55,0.06,0.74,0.24
						C149.51,215.58,164.2,214.62,168.1,200.63z M144.94,74.05c0.88-1.69,3.72-2.06,5.38-1.51c1.73,0.57,2.28,2.4,2.5,4.03
						c0.02,0.17-0.22,0.24-0.32,0.13c-0.89-0.94-1.73-1.96-3.04-2.29c-1.47-0.37-2.61,0.46-4.01,0.53
						C144.98,74.97,144.74,74.43,144.94,74.05z M145.54,79.44c0.91-1.43,2.41-2.2,4.08-0.94c1.53,1.15,1.65,3.43,1.04,5.11
						c-0.57,1.58-2.09,3.56-3.99,2.84C144.27,85.54,143.67,81.17,145.54,79.44z"/>
					<path class="st9" d="M119.91,213.35c-1.64,2.74-5.61,3.84-8.47,4.77c-5.36,1.74-10.87,2.66-15.75,5.35
						c2.19,0.07,4.3,0.66,5.54,2.7c0.39,0.63,0.58,1.25,0.64,1.84c3.28-3.34,7.54-5.99,12.01-6.64c0.09-0.01,0.2,0.1,0.1,0.18
						c-3.6,2.87-7.47,4.65-10.63,7.67c4.44-1.52,9.71-1.03,12.95,2.31c1.95-1.94,4.3-3.09,6.66-4.62c4.13-2.68,6.55-5.93,8.1-10.5
						C127.24,217.18,123.34,216.07,119.91,213.35z"/>
					<path class="st9" d="M168.43,220.79c-2.66,0.32-6.1-0.04-9.27-1.06c0.13,1.52-0.73,2.85-2.09,4.02
						c-4.16,3.58-9.7,4.52-13.76,8.03c3.15,0.03,5.39,2.3,5.77,5.41c0.88-1.47,2.27-2.84,3.28-3.92c1.96-2.11,4.12-4.1,6.41-5.85
						c0.21-0.16,0.39,0.16,0.26,0.33c-1.69,2.16-3.65,4.1-5.47,6.16c-1.08,1.22-2.12,2.49-3.03,3.86c-0.12,0.18-0.22,0.34-0.33,0.5
						c4.87-2.47,12.4-2.83,15.83,1.17c3.7-6,6.71-12.09,5.53-19.36C170.55,220.41,169.51,220.66,168.43,220.79z"/>
					<path class="st9" d="M112.24,190.69c0.67,4.48,0.77,9.13,2.74,13.39c3.62,7.82,12.11,14.05,19.89,8.87
						C123.72,208.89,116.42,200.68,112.24,190.69z"/>
					<path d="M127.63,91.32c1.64,0.59,3.75-0.69,4.69-1.98c0.72-0.99-0.88-2.22-1.69-1.31c-0.49,0.55-0.9,1.12-1.52,1.54
						c-0.55,0.38-1.14,0.67-1.66,1.08C127.21,90.86,127.38,91.23,127.63,91.32z"/>
					<path d="M146.67,86.45c1.9,0.72,3.42-1.26,3.99-2.84c0.6-1.67,0.49-3.95-1.04-5.11c-1.67-1.26-3.18-0.49-4.08,0.94
						C143.67,81.17,144.27,85.54,146.67,86.45z M147.39,80.66c0.01-0.03,0.01-0.06,0.02-0.1c0.11-0.54,0.64-0.8,1.13-0.86
						c0.05-0.01,0.1-0.01,0.15-0.01c0.63-0.03,1.3,0.72,1.03,1.36c-0.02,0.04-0.04,0.07-0.05,0.1c-0.01,0.04-0.02,0.09-0.03,0.13
						c-0.13,0.62-0.86,0.98-1.44,0.82C147.57,81.93,147.26,81.28,147.39,80.66z"/>
					<path d="M145.45,74.94c1.4-0.07,2.54-0.9,4.01-0.53c1.31,0.33,2.15,1.34,3.04,2.29c0.1,0.11,0.34,0.03,0.32-0.13
						c-0.22-1.63-0.77-3.46-2.5-4.03c-1.66-0.55-4.5-0.18-5.38,1.51C144.74,74.43,144.98,74.97,145.45,74.94z"/>
					<path class="st1" d="M148.21,82.1c0.58,0.16,1.31-0.2,1.44-0.82c0.01-0.04,0.02-0.09,0.03-0.13c0.02-0.03,0.04-0.07,0.05-0.1
						c0.27-0.64-0.4-1.39-1.03-1.36c-0.05,0-0.1,0-0.15,0.01c-0.49,0.06-1.02,0.32-1.13,0.86c-0.01,0.03-0.01,0.06-0.02,0.1
						C147.26,81.28,147.57,81.93,148.21,82.1z"/>
					<path class="st1" d="M126.84,79.87L126.84,79.87c-0.09,0.04-0.16,0.09-0.22,0.14c-0.19,0.16-0.27,0.37-0.27,0.59
						c0,0.01,0,0.01,0,0.02c0,0.43,0.31,0.88,0.73,1.02c0,0,0,0,0,0c0.09,0.03,0.18,0.03,0.27,0.03c0.02,0,0.05,0.01,0.07,0.01
						c0.08-0.01,0.17-0.05,0.26-0.09c0.04-0.02,0.08-0.02,0.12-0.04c0.2-0.12,0.33-0.27,0.41-0.43c0.07-0.16,0.09-0.34,0.06-0.51
						c-0.04-0.22-0.17-0.44-0.34-0.59C127.64,79.78,127.25,79.68,126.84,79.87z"/>
					<path d="M200.7,213.53c-9.1-5.46-8.3-13.99-6.78-23.28c0.51-3.13,1.14-6.34,1.6-9.57c1.2-5.44,1.65-11.15,1.58-16.86
						c0.46-8.76-0.47-17.56-2.49-26.09c-1.99-8.38-4.79-16.68-9.23-24.07c-0.48-0.89-1.01-1.73-1.6-2.5
						c-0.08-0.12-0.16-0.25-0.24-0.38c-2.8-4.09-5.79-8.2-6.77-13.17c-0.04-0.21-0.14-0.36-0.26-0.47
						c-0.7-4.07-0.51-8.26-0.79-12.68c-0.13-2.07-0.42-4.08-0.85-6.03c0.27-0.17,0.51-0.39,0.75-0.58c0.58-0.46,1.1-0.96,1.56-1.55
						c1.26-1.15,1.98-2.67,1.93-4.63c-0.04-1.46-0.56-2.83-1.31-4.07c-1.77-2.9-3.6-5.77-5.59-8.53c-2.24-3.11-5.16-5.44-8.64-7.04
						c-4.68-2.15-9.59-2.71-14.66-1.95c-3.3,0.5-6.43,1.49-9.19,3.46c-0.26,0.18-0.51,0.17-0.8,0.15c-2.6-0.15-5.12,0.1-7.28,1.73
						c-1.97,1.49-3.49,3.32-3.04,5.98c0.08,0.5,0.06,0.89-0.04,1.23c0,0.01,0.01,0.02,0.01,0.03c0.07,0.12,0.14,0.24,0.22,0.35
						c0.01,0.01,0.01,0.02,0.02,0.03c0.04,0.04,0.08,0.09,0.12,0.13c0.09,0.09,0.18,0.18,0.27,0.26c0,0,0,0,0.01,0
						c0.05,0.03,0.09,0.06,0.14,0.09c0.09,0.06,0.19,0.11,0.29,0.16c0.05,0.02,0.11,0.04,0.16,0.05c0.05,0.02,0.1,0.02,0.15,0.04
						c-6.2,5.83-10.49,15.36-8.6,23.77c-1.65,0.76-3.32,1.53-5.02,2.46c-3.19,1.76-6.54,4.08-7.96,7.52
						c-0.07,0.18,0.02,0.33,0.16,0.43c0.03,0.08,0.1,0.15,0.21,0.14c4.93-0.48,8.36,0.7,13.01,1.95c1.12,0.3,2.26,0.53,3.41,0.69
						c-0.15,3.49-1.35,6.49-2.9,9.37c-0.06,0.06-0.13,0.11-0.18,0.19c-2.87,4.58-5.48,8.97-7.09,14.16
						c-0.01,0.04-0.02,0.07-0.03,0.11c-1.67,2.24-3.64,4.23-5.88,5.98c-1.36,1.06-2.79,2.03-4.34,2.78
						c-0.79,0.38-1.61,0.7-2.46,0.94c-0.87,0.24-1.74,0.57-2.63,0.71c-0.04-0.2-0.09-0.39-0.15-0.58c-0.01-0.03-0.01-0.06-0.01-0.08
						c-0.45-2.25-2.7-3.67-5.05-3.24c-4.92,0.9-8.08,6.49-7.32,11.26c0.61,3.85,2.65,6.54,5.99,7.99c0.09,0.05,0.17,0.08,0.26,0.13
						c0.01,0.01,0.02,0.01,0.04,0.02c0.46,0.22,0.94,0.37,1.44,0.48c0.05,0.01,0.1,0.04,0.15,0.05c0.04,0.01,0.07,0.02,0.11,0.04
						c0.01-0.01,0.01-0.02,0.02-0.03c1.05,0.19,2.14,0.18,3.25,0.12c-0.01-0.03-0.02-0.07-0.03-0.1c-0.06-0.38-0.11-0.77-0.15-1.16
						c-0.04-0.27-0.09-0.54-0.17-0.8c-0.06-0.02-0.12-0.05-0.19-0.05c-0.96-0.6-0.69-2.91-0.56-3.74c0.26-1.78,1.08-3.39,1.73-5.06
						c0.4-1.02,0.69-2.16,0.77-3.29c2.15,0.09,4.34-0.64,6.25-1.55c2.32-1.11,4.38-2.68,6.3-4.38c0.4-0.36,0.78-0.74,1.15-1.12
						c-0.1,0.39-0.21,0.77-0.31,1.16c-1.31,4.98-2.38,10.01-3.22,15.09c-0.09,0.55-0.17,1.1-0.25,1.64
						c-2.47,0.48-4.96,0.84-7.47,1.08c0.15,0.53,0.33,1.05,0.54,1.56c0.05,0.1,0.09,0.2,0.14,0.3c0.01,0.02,0.02,0.05,0.03,0.07
						c2.16-0.22,4.31-0.53,6.44-0.93c-0.03,0.21-0.06,0.41-0.09,0.61c-0.36,2.5-0.67,5-0.91,7.51c-0.08,0.83-0.16,1.66-0.23,2.48
						c-0.66,8.28-0.16,16.63,2.17,24.64c-0.11,9.16,0.95,19.37,7.54,26.32c0.34,0.36,0.69,0.7,1.05,1.02
						c-8.15,5.77-18.97,5.19-26.99,11.31c-0.92,0.7-0.24,1.58,0.58,1.66c1.5,0.16,2.78-0.57,4.36-0.02c1.26,0.44,2.36,1.42,2.8,2.68
						c0.27,0.79,0.27,1.68-0.02,2.46c-0.25,0.66-1.29,1.41-1.04,2.16c0.01,0.08,0.05,0.15,0.1,0.21c0.27,0.4,0.85,0.63,1.34,0.37
						c4.38-2.31,11.6-4.66,15.25,0.63c0.4,0.57,1.35,0.88,1.87,0.24c3.01-3.64,7.34-5.32,10.66-8.54c2.71-2.63,4.42-5.93,5.06-9.63
						c0.01-0.03,0-0.06,0-0.1c1.38-0.5,2.75-1.24,4.06-2.27c0.85,0.26,1.71,0.5,2.6,0.72c4.16,1,8.52,1.46,12.63,1.08
						c1.37,1.67,3.44,2.95,5.76,3.85c-0.47,4.48-8.54,6.17-11.7,7.89c-2.72,1.48-4.88,3.25-6.7,5.75c-0.39,0.53-0.12,1.14,0.46,1.38
						c0.65,0.26,1.27-0.29,1.91-0.44c1.49-0.33,3.15,0.04,4.29,1.06c0.93,0.83,1.49,2.05,1.57,3.29c0.03,0.44-0.68,3.99,0.9,2.67
						c3.81-3.18,14.09-4.53,16.77,0.33c0.3,0.54,1.03,0.47,1.34,0c4.31-6.5,8.12-13.75,6.29-21.73c0.38-0.17,0.74-0.37,1.1-0.56
						c0.08,0.07,0.18,0.12,0.31,0.15c8.56,2.13,18.93,1.27,26.25-3.99C201.24,214.7,201.32,213.91,200.7,213.53z M96.21,139.92
						c-0.33,0.89-0.68,1.77-1.05,2.64c-0.73,1.69-0.83,3.42-0.43,5.2c0.07,0.31,0.1,0.63,0.16,0.99c-0.75-0.1-1.27-0.54-1.8-0.93
						c-3.07-2.3-4.49-6.09-3.41-9.36c0.78-2.35,2.24-4.18,4.71-4.94c1.56-0.48,2.72,0.43,2.79,2.07
						C97.25,137.11,96.73,138.51,96.21,139.92z M130.64,61.14c0.13-1.58,0.9-2.81,2.14-3.76c1.58-1.21,3.4-1.65,5.34-1.48
						c4.85,0.42,9.64,1.18,14.3,2.65c3.78,1.19,7.37,2.79,10.83,4.7c0.14,0.08,0.29,0.15,0.43,0.22c0.04-0.05,0.08-0.11,0.12-0.16
						c-2.96-2.51-6.32-4.37-9.88-5.89c-3.55-1.52-7.24-2.56-11.25-3.2c1.05-0.62,2.02-0.95,3-1.23c7.06-2.04,13.73-1.22,19.93,2.8
						c2.59,1.68,4.53,3.98,6.16,6.57c0.99,1.58,2.04,3.12,3.15,4.63c0.16,0.22,0.3,0.45,0.45,0.68c0.36,0.6,0.68,1.21,0.91,1.86
						c0.45,1.32,0.58,2.77,0.14,4.11c-0.4,0.86-1.04,1.63-1.79,2.01c-0.24,0.12-0.39,0.13-0.49-0.15c-0.01-0.02-0.01-0.03-0.02-0.04
						c-0.01-0.04-0.02-0.08-0.03-0.12c-0.01-0.01-0.02-0.02-0.03-0.03c-1.37-3.51-4.14-5.78-7.09-7.89
						c-6.04-4.31-12.79-6.87-20.1-7.9c-4.68-0.66-9.32-0.33-13.82,1.25c-0.62,0.22-1.21,0.54-1.81,0.79
						c-0.16,0.07-0.35,0.29-0.5,0.12C130.6,61.57,130.62,61.32,130.64,61.14z M124.61,76.62c0.38-0.13,0.76-0.29,1.18-0.31
						c0.71-0.04,1.44,0.08,2.13,0.01c0.08-0.01,0.17-0.07,0.16-0.16c-0.04-0.31-0.16-0.57-0.34-0.77c-0.09-0.1-0.19-0.2-0.31-0.27
						c-0.58-0.4-1.44-0.49-2.21-0.34c0.1-0.28,0.2-0.55,0.3-0.82c2.7-1.24,4.13,1.71,4.49,4.31c0.17,1.24,0.11,2.34-0.21,3.33
						c-0.13,0.4-0.3,0.78-0.52,1.14c-0.11,0.18-0.23,0.36-0.36,0.54c0.08-1.21-0.14-2.51-0.35-3.18c-0.06-0.21-0.15-0.43-0.25-0.65
						c-0.15-0.33-0.35-0.66-0.6-0.91c-0.25-0.24-0.56-0.4-0.95-0.4c-1,0.01-1.33,1.05-1.57,1.87c-0.09,0.3-0.18,0.71-0.25,1.18
						c-0.07,0.47-0.13,0.99-0.14,1.53c-0.03,1.06,0.11,2.15,0.58,2.86c-0.78,0.42-1.57,0.82-2.38,1.2
						C123.19,83.25,123.67,79.83,124.61,76.62z M128.2,81.1c-0.07,0.16-0.2,0.31-0.41,0.43v0c-0.04,0.02-0.08,0.02-0.12,0.04
						c-0.09,0.04-0.17,0.08-0.26,0.09c-0.02,0-0.05-0.01-0.07-0.01c-0.09,0-0.19,0-0.27-0.03c0,0,0,0,0,0
						c-0.42-0.13-0.73-0.59-0.73-1.02c0-0.01,0-0.01,0-0.02c0-0.22,0.08-0.43,0.27-0.59c0.06-0.05,0.14-0.1,0.22-0.14v0
						c0.42-0.19,0.81-0.09,1.07,0.14c0.18,0.15,0.3,0.37,0.34,0.59C128.29,80.77,128.27,80.94,128.2,81.1z M114.05,93.95
						c2.63-2,5.4-3.22,8.48-4.4c3.27-1.26,5.91-3.05,8.51-5.28c0.79,1.32,1.63,2.53,2.81,3.62c1.74,1.6,3.87,2.59,5.17,4.54
						c-4.86,3.85-13.4,2.4-19.15,2.08c-2.51-0.14-5.08-0.3-7.29,0.65C113.06,94.75,113.54,94.34,114.05,93.95z M119.13,97.2
						c-0.78-0.25-1.61-0.53-2.46-0.77c3.7-0.05,7.35,0.14,11.2,0.09c3.6-0.05,7.58-0.03,10.82-1.67c-1.69,2.43-5.72,3.67-8.29,3.99
						C126.49,99.33,122.83,98.4,119.13,97.2z M122.97,226.9c-2.36,1.53-4.71,2.68-6.66,4.62c-3.24-3.34-8.51-3.84-12.95-2.31
						c3.15-3.02,7.03-4.8,10.63-7.67c0.09-0.07-0.01-0.19-0.1-0.18c-4.47,0.65-8.73,3.3-12.01,6.64c-0.06-0.6-0.25-1.21-0.64-1.84
						c-1.25-2.04-3.36-2.63-5.54-2.7c4.88-2.7,10.38-3.62,15.75-5.35c2.86-0.93,6.83-2.03,8.47-4.77c3.43,2.72,7.33,3.84,11.16,3.06
						C129.52,220.98,127.1,224.22,122.97,226.9z M114.99,204.08c-1.97-4.26-2.07-8.92-2.74-13.39c4.18,9.99,11.48,18.2,22.64,22.26
						C127.1,218.13,118.61,211.9,114.99,204.08z M137.58,211.87c-0.2-0.18-0.47-0.28-0.74-0.24c-1.45-0.48-2.85-1.02-4.18-1.62
						c-7.53-3.39-13.35-9.44-17.23-16.61c-0.32-0.6-0.63-1.2-0.93-1.81c-0.89-1.83-1.65-3.73-2.29-5.66
						c-0.22-0.67-0.42-1.35-0.61-2.03c-0.06-0.23-0.13-0.46-0.19-0.68c-0.12-0.46-0.24-0.93-0.35-1.4
						c-0.06-0.25-0.12-0.49-0.17-0.74c-0.14-0.63-0.27-1.26-0.38-1.89c-0.05-0.27-0.09-0.54-0.13-0.81
						c-0.07-0.42-0.14-0.85-0.2-1.27c-0.04-0.29-0.08-0.58-0.12-0.87c-0.06-0.47-0.11-0.93-0.16-1.4c-0.02-0.22-0.05-0.43-0.07-0.65
						c-0.05-0.61-0.1-1.22-0.14-1.83c0-0.04,0-0.09,0-0.13c-0.05-0.95-0.09-1.91-0.1-2.86c0-0.18,0-0.35,0-0.53
						c-0.01-0.79,0-1.59,0.02-2.38c0.01-0.24,0.01-0.47,0.02-0.71c0.03-0.84,0.07-1.68,0.12-2.52c0.01-0.11,0.01-0.22,0.02-0.33
						c0.07-1,0.15-2,0.24-2.99c0-0.01,0-0.03,0-0.04c0.01-0.09,0.02-0.18,0.03-0.28c0.07-0.68,0.14-1.36,0.22-2.05
						c0.96-8.73,2.58-17.49,4.81-25.96c0.92-3.52,1.88-7.08,3.16-10.48c0.35-0.94,0.78-1.85,1.25-2.74
						c1.98-3.39,4.38-6.45,6.09-10.05c1.13-2.38,1.77-4.95,1-7.4c2.21,0.19,4.43,0.08,6.6-0.47c1.43-0.36,2.82-0.98,4.12-1.68
						c1.31-0.72,3.02-1.69,3.64-3.1c0.51-1.17,0.65-2.78,0.04-3.95c-0.61-1.19-1.69-2.23-2.66-3.13c-2.87-4.71-4.36-9.96-0.39-14.85
						c5.12-6.3,16.52-5.59,20.58,1.53c3.02,5.29,3.92,13.05,0.84,18.45c-2.81,4.92-8.19,7.56-13.06,9.99
						c-0.51,0.25-0.41,1.15,0.16,1.26c3.05,0.58,5.96,1.84,8.27,3.94c1.57,1.43,2.54,3.06,3.27,4.89c-0.01,0.17,0,0.34,0.08,0.52
						c0.31,0.67,0.56,1.36,0.79,2.06c0.36,1.24,0.67,2.49,0.91,3.75c0.45,2.62,0.57,5.31,0.66,7.96c0.07,2.24,0.15,4.5,0.03,6.74
						c-0.01,0.16-0.02,0.32-0.03,0.48c-0.11,1.68-0.34,3.34-0.79,4.97c-0.77,2.09-2.3,3.57-4.37,4.64c-0.2,0.1-0.4,0.19-0.6,0.28
						c-0.66,0.32-1.32,0.63-1.99,0.92c-1.96,0.85-3.97,1.59-5.94,2.39c-2.2,0.9-4.39,1.83-6.45,2.98c-1.25,0.7-2.46,1.48-3.61,2.38
						c-2.51,1.97-4.67,4.23-6.03,7.14c-0.12,0.26-0.25,0.53-0.36,0.8c-0.33,0.84-0.59,1.7-0.68,2.59c-0.32,2.92,1.85,4.79,4.83,4.2
						c1.94-0.38,3.75-1.18,5.62-1.77c2.22-0.7,4.5-1.02,6.82-1.18c4.61-0.33,9.25-0.35,13.83-1.18c0.3-0.05,0.6-0.13,0.9-0.19
						c0.36,0.53,0.71,1.09,1.04,1.69c0.35,0.63,0.67,1.29,0.99,1.98c0.31,0.68,0.59,1.38,0.87,2.1c0.27,0.71,0.52,1.44,0.77,2.18
						c0.96,2.94,1.69,5.94,2.34,8.53c0.71,2.82,1.24,5.74,1.46,8.67c0.06,0.84,0.1,1.68,0.11,2.51c0.01,1.26-0.03,2.51-0.16,3.76
						c-0.08,0.83-0.2,1.66-0.35,2.49c-0.15,0.82-0.34,1.64-0.56,2.46C164.19,214.62,149.51,215.58,137.58,211.87z M166.03,239.43
						c-3.42-4-10.96-3.64-15.83-1.17c0.1-0.16,0.21-0.32,0.33-0.5c0.91-1.36,1.94-2.63,3.03-3.86c1.82-2.05,3.78-3.99,5.47-6.16
						c0.13-0.17-0.05-0.49-0.26-0.33c-2.29,1.75-4.44,3.74-6.41,5.85c-1.01,1.08-2.4,2.45-3.28,3.92c-0.38-3.11-2.62-5.37-5.77-5.41
						c4.06-3.51,9.61-4.45,13.76-8.03c1.35-1.17,2.22-2.5,2.09-4.02c3.17,1.02,6.61,1.38,9.27,1.06c1.08-0.13,2.12-0.38,3.12-0.73
						C172.74,227.34,169.73,233.43,166.03,239.43z M176.05,217.77c2.85-1.98,5.25-4.7,7.07-7.57c0.11-0.17-0.12-0.31-0.26-0.2
						c-4.84,3.8-9.21,9.22-15.92,9.28c-4.98,0.04-8.71-2.54-13.01-4.08c7.13-1.11,13.23-4.97,15.73-13.22
						c2.05-6.78,1.52-14.05-0.09-20.86c-1.31-5.54-2.92-12.26-6.13-17.29c5.52-1.42,10.56-4.06,14.51-8.43
						c1.07-1.19,1.85-2.6,2.59-4.01c0.69-1.31,1.55-2.55,1.98-3.95c1.01-3.27,1.32-6.71,1.2-10.12c-0.12-3.42-0.77-6.72-1.8-9.96
						c-1.06-3.33-2.56-6.49-3.84-9.73c-0.45-1.13-0.79-2.28-1.06-3.45c-0.09-0.03-0.18-0.05-0.27-0.07
						c-0.05-0.01-0.09-0.02-0.14-0.03c-0.02,0-0.04,0-0.07-0.01c-0.1,0-0.21-0.01-0.31-0.01c-0.1,0-0.29-0.02-0.39,0.02
						c0.19-0.03,0.22-0.03,0.07,0l-0.09,0.02c-0.02,0-0.16,0.05-0.25,0.08c-0.04,0.02-0.09,0.05-0.13,0.07l-0.05,0.03
						c-0.06,0.06-0.15,0.12-0.2,0.18c-0.01,0.03-0.02,0.05-0.04,0.06c-0.05,0.07-0.11,0.14-0.13,0.17
						c-0.01,0.02-0.08,0.14-0.12,0.22c-0.01,0.02-0.01,0.04-0.03,0.09c-0.06,0.17-0.1,0.34-0.14,0.51c0.49,1.89,1.16,3.75,2.02,5.58
						c1.78,3.79,3.2,7.74,3.91,11.89c0.74,4.34,0.87,8.67-0.3,12.96c-1.52,5.6-5.04,9.64-9.95,12.56c-3.55,2.1-7.45,3.15-11.5,3.73
						c-3.88,0.56-7.77,0.75-11.68,0.93c-1.86,0.08-3.7,0.34-5.51,0.75c-1.36,0.31-2.71,0.7-4.03,1.21c-1.04,0.41-2.11,0.76-3.2,1.03
						c-0.4,0.1-0.79,0.12-1.19,0.1c-0.77-0.04-1.18-0.44-1.26-1.21c-0.12-1.13,0.19-2.17,0.69-3.17c0.03-0.06,0.06-0.11,0.09-0.17
						c1.49-2.87,3.76-5.02,6.38-6.84c1.99-1.39,4.16-2.42,6.38-3.36c0.95-0.4,1.9-0.79,2.86-1.18c2.79-1.13,5.64-2.13,8.29-3.6
						c3.51-1.94,5.41-4.89,5.55-8.94c0.02-0.46,0.02-0.92,0.02-1.38c0.28-2.92,0.17-5.9,0.07-8.82c-0.12-3.47-0.37-6.94-1.22-10.28
						c-0.41-2.09-1.2-4.14-2.35-5.87c-2.47-3.71-6.06-6.23-10.24-7.43c6.72-3.49,13.22-7.92,14.01-16.16
						c0.62-6.4-1.46-14.74-7.46-18.11c-5.85-3.28-14.08-2.26-18.38,3.04c-3.59,4.43-3.16,9.44-0.73,13.74
						c-1.46-1.28-2.88-2.62-3.85-4.36c-0.24-0.42-0.69-0.55-1.11-0.44c0.78-2.19,0.38-5.01-0.65-7.03
						c-0.68-1.33-1.96-2.57-3.55-2.56c-0.2,0-0.38,0.03-0.57,0.06c1.9-3.91,4.78-7.31,9.02-9.87c0.51-0.14,1.02-0.27,1.54-0.37
						c6.16-1.22,12.12-0.21,17.93,1.9c3.69,1.34,7.16,3.06,10.4,5.21c0,0,0,0,0.01,0.01c2.45,1.81,4.44,4.1,6,6.71
						c0.26,0.44,0.61,1.12,1.04,1.72c1.23,5.82,0.89,12.13,1.52,18.34c0.45,4.41,2.48,7.87,4.86,11.15
						c0.55,0.88,1.12,1.75,1.71,2.61c2.34,3.44,4.6,6.8,6.34,10.55c0.96,2.6,1.78,5.21,2.58,7.58c2.18,6.52,3.67,13.27,4.63,20.07
						c1.62,11.53,0.6,22.54-0.29,33.9c-0.99,5.4-1.96,10.82-2.4,16.21c-0.59,7.24,1.76,12.4,7.39,16.34
						C191.68,218.23,183.82,218.72,176.05,217.77z"/>
				</g>
				<g>
					<path d="M109.95,199.26c-3.03-13.95-6.18-27.87-9.36-41.79c-1.18-5.15-2.35-10.31-3.53-15.46c-0.38,0.84-0.79,1.68-1.21,2.54
						c3.93,17.1,7.95,34.17,11.6,51.33c1.43,6.72,3.05,13.4,4.58,20.1c-0.01,0-0.02,0-0.02,0.01c0.08,0.37,0.17,0.74,0.25,1.1
						c0.13-0.04,0.26-0.08,0.41-0.11c0.42-0.07,0.84-0.14,1.27-0.21C112.58,210.95,111.22,205.11,109.95,199.26z"/>
					<path d="M93.16,132.78c0.41-0.19,0.89-0.3,1.44-0.3h0.28c-0.51-2.22-1.02-4.44-1.52-6.66c-0.11-0.47-0.55-1.05,0.07-1.45
						c0.71-0.45,1.52-0.67,2.37-0.53c0.36,0.06,0.34,0.45,0.41,0.72c0.48,2.01,0.92,4.03,1.41,6.03c3.54,14.38,6.69,28.85,9.8,42.26
						c1.77,7.74,3.41,15.05,5.05,22.2c-0.02-1.06,0.02-2.12,0.14-3.18c-0.26-1.57-0.48-3.15-0.67-4.75c-0.06-0.57,0-1.06,0.15-1.48
						l-4.16-18.22c-1.75-7.65-3.6-15.28-5.21-22.95c-1.6-7.65-4.01-15.13-4.8-22.96c-0.25-2.48-1.08-4.89-1.62-7.34
						c-0.31-1.44-0.76-2.84-0.83-4.33c-0.02-0.57-0.07-1.24-0.52-1.65c-0.53-0.48-0.36-0.88-0.12-1.4c0.98-2.14,1.94-4.3,2.76-6.51
						c0.44-1.18,0.35-2.23-0.27-3.36c-4.46-8.03-8.86-16.09-13.28-24.15c-0.31-0.57-0.66-1.08-1.43-0.9
						c-0.78,0.18-0.82,0.82-0.85,1.46c-0.47,9.12-0.93,18.23-1.45,27.34c-0.09,1.52,0.37,2.68,1.44,3.71c1.66,1.6,3.4,3.1,5.19,4.54
						c0.36,0.29,0.54,0.55,0.42,1.04c-0.14,0.58-0.14,1.19,0.22,1.71c0.49,0.7,0.65,1.5,0.83,2.3c1.01,4.36,1.8,8.77,3.42,12.97
						C92.27,128.88,92.72,130.83,93.16,132.78z M96.04,121.63c-0.01,0.62-0.57,0.43-0.94,0.49c-0.52,0.08-1.04,0.15-1.56,0.26
						c-1.27,0.28-1.27,0.29-1.55-0.94c-0.25-1.07-0.25-1.08,0.85-1.05c0.76,0.02,1.52,0.08,2.28,0.1
						C95.89,120.51,96.04,121.06,96.04,121.63z M95.88,98.2c0.21,0.37,0.23,0.71,0.09,1.09c-1.04,2.7-2.21,5.34-3.38,7.98
						c-0.11,0.24-0.23,0.54-0.53,0.52c-0.41-0.02-0.37-0.42-0.43-0.68c-1.07-4.56-2.06-9.15-3.22-13.69c-0.77-3-1.44-6.02-2.16-9.03
						c-0.41-1.69-1.03-3.32-1.33-5.04c-0.04-0.21-0.1-0.43-0.14-0.64C88.38,85.28,92.21,91.7,95.88,98.2z M82.67,102.68
						c-0.41-0.4-0.65-0.84-0.61-1.48c0.53-8.07,1.03-16.15,1.54-24.22c0.12,1,0.41,1.96,0.63,2.93c0.79,3.57,1.72,7.11,2.37,10.71
						c1.02,5.6,2.47,11.11,3.65,16.67c0.07,0.32,0.33,0.72-0.12,0.94c-0.43,0.21-0.89,0.3-1.32-0.08
						C86.75,106.34,84.64,104.59,82.67,102.68z M89.12,110.65c-0.08-0.58,0.36-0.67,0.77-0.76c0.46-0.11,0.92-0.21,1.38-0.32
						c0,0,0,0.01,0,0.01c0.49-0.11,0.98-0.22,1.46-0.34c0.4-0.1,0.69-0.05,0.81,0.41c0.12,0.46,0.08,0.86-0.43,0.99
						c-1,0.25-2,0.49-3.02,0.67C89.63,111.4,89.2,111.22,89.12,110.65z M90.11,113.2c-0.1-0.46,0.16-0.65,0.54-0.74
						c0.83-0.2,1.66-0.38,2.49-0.58c0.54-0.13,0.76,0.14,0.84,0.6c0.11,0.41,0.13,0.7-0.42,0.75c-0.9,0.08-1.8,0.22-2.7,0.34
						C90.51,113.62,90.21,113.65,90.11,113.2z M90.8,116.26c-0.01-0.14-0.06-0.29-0.09-0.43c-0.32-1.39-0.31-1.38,1.11-1.51
						c0.52-0.05,1.05-0.09,1.57-0.16c0.6-0.08,0.99,0.04,1.17,0.73c0.19,0.75-0.36,0.83-0.79,1.03c-0.64,0.3-1.31,0.51-1.93,0.83
						C91.22,117.07,90.85,117.04,90.8,116.26z M91.41,118.92c-0.08-0.4-0.26-0.83,0.27-1.07c0.83-0.38,1.66-0.75,2.5-1.11
						c0.36-0.15,0.63-0.03,0.75,0.37c0.14,0.45,0.29,0.9,0.38,1.2c0.3,1.17,0.3,1.15-0.75,1.12c-0.79-0.03-1.59-0.05-2.38-0.01
						C91.75,119.46,91.5,119.36,91.41,118.92z"/>
					<path d="M117.46,209.16c-1.2-1.15-2.05-2.64-2.7-4.23c0.1,0.43,0.2,0.85,0.3,1.28c0.72,3.02,1.45,6.04,2.17,9.06
						c0.38-0.43,0.82-0.84,1.35-1.21c-0.06-0.25-0.11-0.49-0.17-0.74C118.1,211.94,117.78,210.55,117.46,209.16z"/>
					<path d="M111.58,199.57c0.19,5.29,1.29,10.38,3.38,15.26c0.24,0.55,0.45,1.1,0.66,1.66c0.26-0.05,0.53-0.09,0.79-0.14
						c-0.23-0.67-0.48-1.34-0.75-2c-1.88-4.65-3.05-9.46-3.31-14.48c-0.09-1.75-0.45-3.42-1.2-5.08c-0.34,0.4-0.19,0.78-0.1,1.13
						C111.35,197.11,111.54,198.33,111.58,199.57z"/>
					<path d="M100.95,148.91c0.11,1.11,0.22,2.08,0.31,3.05c0.24,2.54,1.02,4.95,1.83,7.35c1.15,3.41,1.94,6.89,2.04,10.67
						c-0.56-0.71-0.7-1.41-0.8-2.11c-0.45-3.22-1.32-6.32-2.34-9.41c-0.86-2.6-1.62-5.24-1.51-8.02
						C100.51,149.59,100.53,149.59,100.95,148.91z"/>
					<path d="M109.29,188.87c-0.52-1.79-0.98-3.33-1.4-4.88c-0.81-2.98-1.93-5.89-2.16-9c-0.07-0.88-0.05-1.76,0.24-2.7
						c0.39,0.3,0.33,0.67,0.32,0.99c-0.06,3.28,1.08,6.31,1.94,9.39c0.6,2.16,1.32,4.28,1.76,6.48c0.02,0.12,0.06,0.24,0.05,0.35
						c-0.03,0.34,0.08,0.79-0.34,0.92c-0.42,0.14-0.64-0.24-0.81-0.54c-0.5-0.91-0.96-1.85-1.16-3.14
						C108.46,187.39,108.57,188.18,109.29,188.87z"/>
					<path d="M98.21,138.82c-0.13,0.53-0.29,1.05-0.48,1.56c0.14,0.79,0.37,1.56,0.93,2.19C98.53,141.32,98.38,140.07,98.21,138.82z
						"/>
					<path d="M96.3,132.14c0.05,0.21,0.09,0.41,0.14,0.62c0.29,0.12,0.56,0.27,0.81,0.45c-0.62-2.85-1.48-5.65-2.77-8.4
						c-0.19,0.51-0.03,0.78,0.02,1.06C94.89,128.02,95.74,130.04,96.3,132.14z"/>
				</g>
			</g>
			<g>
				<path class="st3" d="M146.19,164.27c-3.74,0.38-6.9,2.39-10.51,3.2c-0.21,0.05-0.41,0.06-0.6,0.06c-1.04,0.2-2.07,0.1-2.97-0.62
					c-3.61-2.86,0.83-8.65,3.05-10.78c3.28-3.13,7.47-4.86,11.63-6.47c3.18-1.23,6.49-2.45,9.25-4.49
					c-5.51-5.81-10.71-11.91-15.54-18.29c-0.8-1.06-1.59-2.12-2.37-3.19c-0.6-0.83-1.24-2.04-2.44-1.87
					c-1.03,0.14-1.45,1.14-1.88,1.96c-0.6,1.13-1.25,2.23-1.94,3.31c-2.77,4.38-6.11,8.36-9.52,12.26
					c-3.88,4.42-7.85,8.76-11.38,13.47c-0.13,0.17-0.18,0.34-0.17,0.5c-0.18,0.32-0.2,0.72,0.11,1.07
					c8.62,9.63,16.92,19.54,24.9,29.71c0.38,0.48,1.16,0.27,1.44-0.19c4.37-7.23,9.49-13.96,15.22-20.13
					C150.38,163.94,148.28,164.06,146.19,164.27z"/>
				<path class="st7" d="M146.4,139.19c1.95,2.24,3.88,4.5,5.88,6.69c0.29,0.36,0.58,0.71,0.87,1.07c0.58-0.3,1.16-0.62,1.71-0.97
					c-0.42-0.45-0.84-0.9-1.26-1.35c-1.55-1.9-3.09-3.8-4.63-5.71c-4.12-5.08-8.25-10.16-12.37-15.24
					c-0.67-0.82-1.94,0.23-1.44,1.11C138.19,130.1,142.41,134.61,146.4,139.19z"/>
				<path class="st7" d="M146.19,164.27c-0.18,0.02-0.35,0.06-0.53,0.08c-4.24,4.65-8.19,9.56-11.76,14.76
					c-0.42,0.6,0.04,1.19,0.6,1.31c-0.16,0.82,0.01,1.67,0.72,2.26c0.41,0.34,1.16,0.39,1.44-0.19c1.77-3.7,4.32-6.9,6.95-10.02
					c2.42-2.86,4.84-5.72,7.27-8.57C149.32,164.01,147.75,164.11,146.19,164.27z"/>
				<path class="st8" d="M133.79,167.59c-0.59-0.06-1.16-0.27-1.69-0.69c-1.12-0.89-1.46-2.05-1.34-3.31l-2.55-3.36
					c-1.01-1.34-2.02-2.67-3.04-4.01c-0.51-0.67-1.01-1.34-1.52-2.01c-0.22-0.29-0.65-0.74-0.98-1.14c0.17-0.19,0.35-0.37,0.44-0.49
					c0.28-0.36,0.55-0.71,0.83-1.07c0.64-0.83,1.28-1.66,1.93-2.5c1.24-1.61,2.48-3.21,3.71-4.82c2.52-3.27,5.04-6.54,7.57-9.81
					c0.75-0.98,0.15-2.56-0.82-3.13c-1.18-0.69-2.37-0.16-3.13,0.82c-4.86,6.3-9.78,12.56-14.58,18.91
					c-0.63,0.83-1.01,1.72-0.72,2.79c0.25,0.91,0.97,1.64,1.53,2.38c1.2,1.58,2.39,3.16,3.59,4.74c2.48,3.28,4.97,6.56,7.45,9.84
					c0.74,0.98,1.97,1.5,3.13,0.82c0.97-0.57,1.57-2.14,0.82-3.13L133.79,167.59z"/>
				<path class="st1" d="M129.56,137.35c-3.86,5.26-7.94,10.35-12.22,15.27c-0.77,0.88,0.52,2.18,1.29,1.29
					c4.38-5.04,8.55-10.26,12.5-15.64C131.84,137.32,130.25,136.41,129.56,137.35z"/>
				<path class="st1" d="M133.99,134.08c0.16-0.17,0.27-0.41,0.27-0.65c0-0.22-0.1-0.49-0.27-0.65c-0.17-0.16-0.4-0.28-0.65-0.27
					c-0.24,0.01-0.48,0.09-0.65,0.27c-0.6,0.64-1.05,1.42-1.29,2.27c-0.06,0.23-0.03,0.5,0.09,0.7c0.11,0.19,0.33,0.37,0.55,0.42
					c0.23,0.05,0.5,0.04,0.7-0.09c0.2-0.13,0.35-0.31,0.42-0.55c0.04-0.14,0.09-0.28,0.15-0.42c0.13-0.28,0.29-0.55,0.47-0.81
					C133.86,134.23,133.92,134.15,133.99,134.08z"/>
				<path class="st1" d="M127.45,166.46c-1.81-2.09-3.47-4.3-4.96-6.63c-0.27-0.42-0.81-0.58-1.25-0.33
					c-0.41,0.24-0.6,0.83-0.33,1.25c1.57,2.46,3.33,4.8,5.25,7c0.32,0.37,0.96,0.33,1.29,0
					C127.82,167.38,127.78,166.83,127.45,166.46z"/>
				<path d="M155.57,144.32c-0.55-0.13-0.92-0.64-1.39-1.14c-0.69-0.74-1.37-1.49-2.05-2.24c-1.36-1.51-2.7-3.03-4.01-4.57
					c-2.63-3.09-5.17-6.25-7.62-9.48c-0.8-1.06-1.59-2.12-2.37-3.19c-0.6-0.83-1.24-2.04-2.44-1.87c-1.03,0.14-1.45,1.14-1.88,1.96
					c-0.6,1.13-1.25,2.23-1.94,3.31c-2.77,4.38-6.11,8.37-9.52,12.26c-3.88,4.42-7.85,8.76-11.38,13.47
					c-0.13,0.17-0.18,0.34-0.17,0.5c-0.18,0.32-0.2,0.72,0.11,1.07c8.62,9.63,16.92,19.54,24.9,29.71c0.38,0.48,1.16,0.27,1.44-0.19
					c4.07-6.72,8.79-13.01,14.05-18.83c1.43-0.06,2.87-0.09,4.29-0.12c1.29-0.03,1.29-2.03,0-2c-3.95,0.08-7.9,0.19-11.8,0.8
					c-1.97,0.31-3.92,0.75-5.81,1.39c-1.58,0.54-3.91,1.83-5.51,0.69c-1.65-1.18-0.26-3.82,0.55-5.09c1.02-1.58,2.39-2.96,3.81-4.19
					c2.87-2.49,6.26-4.06,9.75-5.46c3.65-1.47,7.27-2.91,10.4-5.35c0.3-0.23,0.64-0.53,0.77-0.9c0.1-0.29,0.03-0.67-0.25-0.81
					c-0.32-0.17-0.69,0.06-1.04,0.18C156.11,144.36,155.82,144.38,155.57,144.32z M144.53,149.8c-3.77,1.57-7.28,3.51-10.22,6.38
					c-2.32,2.26-5.73,6.22-4.25,9.74c1.77,4.21,7.04,1.52,9.99,0.69c2.84-0.8,5.76-1.18,8.7-1.38c-4.57,5.21-8.73,10.77-12.38,16.66
					c-7.61-9.66-15.52-19.1-23.71-28.27c5.85-7.78,12.97-14.51,18.65-22.42c1.42-1.97,2.73-4.02,3.9-6.15
					c0.03-0.06,0.66-1.36,0.67-1.36c0.21-0.01,0.9,1.23,1.05,1.44c0.82,1.12,1.66,2.24,2.5,3.35c3.17,4.16,6.49,8.22,9.95,12.14
					c1.47,1.66,2.97,3.3,4.49,4.91C150.96,147.34,147.68,148.49,144.53,149.8z"/>
			</g>
		</g>
		<g>
			<g>
				<g>
					<path class="st3" d="M71.13,42.07c0.14,0,0.22,0.11,0.3,0.2c0.91,0.97,1.79,1.98,2.65,2.99c1.65,1.93,3.36,3.81,5.04,5.71
						c1.04,1.18,2.08,2.36,3.12,3.54c0.16,0.18,0.15,0.32-0.01,0.5c-3.38,3.86-6.82,7.67-10.16,11.55
						c-0.24,0.28-0.49,0.54-0.73,0.82c-0.16,0.18-0.29,0.18-0.45,0c-2.43-2.77-4.85-5.53-7.28-8.3c-1.15-1.31-2.31-2.63-3.46-3.94
						c-0.34-0.39-0.33-0.41,0.01-0.79c2.26-2.48,4.44-5.02,6.67-7.53c1.34-1.51,2.67-3.03,4.01-4.54
						C70.91,42.19,70.98,42.08,71.13,42.07z M74.3,56.46c0.01-0.49-0.04-0.99-0.13-1.47c-0.14-0.79-0.35-1.57-0.91-2.19
						c-0.57-0.64-1.23-0.73-1.97-0.32c-1.24,0.7-1.84,1.81-2.12,3.15c-0.38,1.8-1.23,3.36-2.52,4.67c-0.12,0.12-0.12,0.18,0,0.3
						c1.12,1.15,2.34,2.19,3.64,3.12c0.14,0.1,0.24,0.12,0.38,0.02c1.02-0.71,1.89-1.57,2.52-2.64
						C74.04,59.68,74.26,58.09,74.3,56.46z M76.54,59.07c0.03-0.02,0.05-0.03,0.06-0.05c0.04-0.21,0.11-0.41,0.13-0.62
						c0.1-1.51-0.03-2.99-0.73-4.37c-0.35-0.7-0.77-1.36-1.16-2.04c-0.21-0.37-0.16-0.48,0.24-0.61c0.36-0.12,0.73-0.17,1.1-0.23
						c0.31-0.05,0.37-0.15,0.33-0.45c-0.01-0.11-0.06-0.2-0.11-0.29c-0.32-0.51-0.74-0.93-1.3-1.16c-0.41-0.17-0.67-0.43-0.87-0.82
						c-0.98-1.98-3.34-2.29-4.87-1.11c-0.9,0.69-1.36,1.63-1.44,2.74c-0.08,1.15-0.43,2.18-1.1,3.12c-0.52,0.72-0.96,1.49-1.25,2.34
						c-0.28,0.84-0.51,1.68-0.44,2.58c0.03,0.33,0.05,0.67,0.19,1.06c0.11-1.04,0.31-1.98,0.66-2.88c0.46-1.2,1.16-2.27,1.84-3.34
						c0.3-0.47,0.52-0.96,0.63-1.52c0.1-0.53,0.08-1.08,0.17-1.61c0.35-2.03,1.8-2.79,3.67-2.26c0.86,0.24,1.42,0.83,1.71,1.68
						c0.07,0.2,0.18,0.34,0.4,0.41c0.37,0.12,0.68,0.36,0.95,0.64c0.26,0.28,0.22,0.45-0.14,0.56c-0.35,0.11-0.71,0.19-1.07,0.26
						c-0.25,0.04-0.3,0.18-0.25,0.39c0.03,0.12,0.09,0.23,0.14,0.35c0.26,0.52,0.6,0.99,0.9,1.48c0.7,1.17,1.23,2.4,1.45,3.76
						C76.49,57.72,76.52,58.39,76.54,59.07z M71.98,49.13c-0.25-0.01-0.49,0.23-0.5,0.49c-0.01,0.25,0.2,0.48,0.46,0.5
						c0.28,0.02,0.5-0.19,0.51-0.47C72.46,49.38,72.24,49.14,71.98,49.13z"/>
				</g>
			</g>
			<g>
				<g>
					<path class="st3" d="M212.34,241.84c-0.14,0-0.22-0.11-0.3-0.2c-0.91-0.97-1.79-1.98-2.65-2.99c-1.65-1.93-3.36-3.81-5.04-5.71
						c-1.04-1.18-2.08-2.36-3.12-3.54c-0.16-0.18-0.15-0.32,0.01-0.5c3.38-3.86,6.82-7.67,10.16-11.55
						c0.24-0.28,0.49-0.54,0.73-0.82c0.16-0.18,0.29-0.18,0.45,0c2.43,2.77,4.85,5.53,7.28,8.3c1.15,1.31,2.31,2.63,3.46,3.94
						c0.34,0.39,0.33,0.41-0.01,0.79c-2.26,2.48-4.44,5.02-6.67,7.53c-1.34,1.51-2.67,3.03-4.01,4.54
						C212.55,241.71,212.48,241.83,212.34,241.84z M209.17,227.45c-0.01,0.49,0.04,0.99,0.13,1.47c0.14,0.79,0.35,1.57,0.91,2.19
						c0.57,0.64,1.23,0.73,1.97,0.32c1.24-0.7,1.84-1.81,2.12-3.15c0.38-1.8,1.23-3.36,2.52-4.67c0.12-0.12,0.12-0.18,0-0.3
						c-1.12-1.15-2.34-2.19-3.64-3.12c-0.14-0.1-0.24-0.12-0.38-0.02c-1.02,0.71-1.89,1.57-2.52,2.64
						C209.43,224.23,209.21,225.82,209.17,227.45z M206.93,224.83c-0.03,0.02-0.05,0.03-0.06,0.05c-0.04,0.21-0.11,0.41-0.13,0.62
						c-0.1,1.51,0.03,2.99,0.73,4.37c0.35,0.7,0.77,1.36,1.16,2.04c0.21,0.37,0.16,0.48-0.24,0.61c-0.36,0.12-0.73,0.17-1.1,0.23
						c-0.31,0.05-0.37,0.15-0.33,0.45c0.01,0.11,0.06,0.2,0.11,0.29c0.32,0.51,0.74,0.93,1.3,1.16c0.41,0.17,0.67,0.43,0.87,0.82
						c0.98,1.98,3.34,2.29,4.87,1.11c0.9-0.69,1.36-1.63,1.44-2.74c0.08-1.15,0.43-2.18,1.1-3.12c0.52-0.72,0.96-1.49,1.25-2.34
						c0.28-0.84,0.51-1.68,0.44-2.58c-0.03-0.33-0.05-0.67-0.19-1.06c-0.11,1.04-0.31,1.98-0.66,2.88c-0.46,1.2-1.16,2.27-1.84,3.34
						c-0.3,0.47-0.52,0.96-0.63,1.52c-0.1,0.53-0.08,1.08-0.17,1.61c-0.35,2.03-1.8,2.79-3.67,2.26c-0.86-0.24-1.42-0.83-1.71-1.68
						c-0.07-0.2-0.18-0.34-0.4-0.41c-0.37-0.12-0.68-0.36-0.95-0.64c-0.26-0.28-0.22-0.45,0.14-0.56c0.35-0.11,0.71-0.19,1.07-0.26
						c0.25-0.04,0.3-0.18,0.25-0.39c-0.03-0.12-0.09-0.23-0.14-0.35c-0.26-0.52-0.6-0.99-0.9-1.48c-0.7-1.17-1.23-2.4-1.45-3.76
						C206.97,226.19,206.94,225.52,206.93,224.83z M211.48,234.78c0.25,0.01,0.49-0.23,0.5-0.49c0.01-0.25-0.2-0.48-0.46-0.5
						c-0.28-0.02-0.5,0.19-0.51,0.47C211.01,234.52,211.22,234.77,211.48,234.78z"/>
				</g>
			</g>
		</g>
		<g>
			<path class="st3" d="M76.43,26.37l-0.53-0.09c-0.58-0.11-1.33-0.13-1.73-0.13v10.02c0,2.88-2.33,3.68-4.39,3.68
				c-1,0-1.91-0.18-2.51-0.4l0.07-2.66c0.93,0,2.39-0.22,2.39-1.6v-9.05c-0.4,0-1.15,0.02-1.73,0.13l-0.53,0.09l0.04-2.9l4.43,0.07
				l4.43-0.07L76.43,26.37z"/>
		</g>
		<g>
			<path class="st3" d="M207.03,257.09l0.53,0.09c0.58,0.11,1.33,0.13,1.73,0.13v-10.02c0-2.88,2.33-3.68,4.39-3.68
				c1,0,1.91,0.18,2.51,0.4l-0.07,2.66c-0.93,0-2.39,0.22-2.39,1.6v9.05c0.4,0,1.15-0.02,1.73-0.13l0.53-0.09l-0.04,2.9l-4.43-0.07
				l-4.43,0.07L207.03,257.09z"/>
		</g>
	</g>
</g>
</svg>
