<?xml version="1.0" encoding="utf-8"?>
<!-- Generator: Adobe Illustrator 24.0.1, SVG Export Plug-In . SVG Version: 6.00 Build 0)  -->
<svg version="1.1" xmlns="http://www.w3.org/2000/svg" xmlns:xlink="http://www.w3.org/1999/xlink" x="0px" y="0px"
	 viewBox="0 0 283.46 283.46" style="enable-background:new 0 0 283.46 283.46;" xml:space="preserve">
<style type="text/css">
	.st0{fill:#DBDDD9;}
	.st1{fill:#FFFFFF;}
	.st2{fill:none;stroke:#000000;stroke-width:3;stroke-miterlimit:10;}
	.st3{fill:#E30613;}
	.st4{fill:#894F28;}
	.st5{fill:#3E2215;}
	.st6{fill:#DEB27E;}
	.st7{opacity:0.25;fill:#312783;}
	.st8{opacity:0.53;fill:#F5F0DA;}
	.st9{fill:none;}
	.st10{fill:#EB941E;}
	.st11{fill:#1F201D;}
	.st12{fill:#E2E0DB;}
	.st13{fill:#B7B6B0;}
	.st14{fill:#2FAC66;}
	.st15{fill:#312783;}
	.st16{fill:#E94D2A;}
	.st17{fill:#F5EA61;}
	.st18{fill:#1D71B8;}
	.st19{fill:#2D3B49;}
</style>
<g id="bg">
</g>
<g id="CUT">
</g>
<g id="BACK">
</g>
<g id="ILLUSTRATION">
</g>
<g id="SYMBOLS">
</g>
<g id="CARDS">
	<g>
		<path class="st1" d="M217.23,267.73h-151c-8.01,0-14.5-6.49-14.5-14.5v-223c0-8.01,6.49-14.5,14.5-14.5h151
			c8.01,0,14.5,6.49,14.5,14.5v223C231.73,261.24,225.24,267.73,217.23,267.73z"/>
		<g>
			<g>
				<path class="st12" d="M108.9,138.83c-0.41-0.28-0.43-0.89-0.25-1.34c0.18-0.46,0.52-0.84,0.73-1.29
					c0.57-1.24,0.02-2.76-0.96-3.72s-2.29-1.46-3.57-1.95c0.41,1.72,0.71,3.48,0.88,5.24c-1.09-1.46-2.8-2.45-4.61-2.66
					c-0.47-0.05-0.96-0.07-1.35-0.33c-0.9-0.6-0.64-1.97-0.27-2.99c-2.98,0.27-5.53,2.43-7.03,5.01c-1.37,2.36-3,6.41-2.59,9.19
					c3.49,6.03,8,10.03,14.54,13.2c6.77,3.29,14.16,3.56,21.34,1.78c-0.37-0.4-0.74-0.82-1.1-1.25c-3.98,0.66-8.23,0.36-11.63-2.02
					c-0.06-0.04-0.02-0.13,0.05-0.11c3.48,0.68,6.82,1.15,10.32,0.55c-5.06-6.7-8.18-15.54-6.9-23.76c-0.05,0-0.11,0-0.16-0.01
					c-1.15,1.47-3.02,2.48-4.51,3.59c-0.93,0.69-2.1,1.96-3.33,2.31c1.15,1.9,2.47,3.77,4.02,5.68c0.75,0.46,1.45,0.94,2.07,1.42
					c0.32,0.25,0.32,0.9,0,1.15c-4.58,3.61-10.1,3.5-15.19,0.82c-0.24-0.13-0.06-0.43,0.17-0.4c4.67,0.68,8.85,1.43,12.98-1.01
					c-3.72-2.43-8.5-4.04-12.77-4.73c-1.57-0.26-3.14-0.42-4.73-0.32c-1.29,0.19-2.78,0.11-3.94,0.74
					c-0.49,0.26-0.92,0.66-1.13,1.17c-0.07,0.17-0.11,0.35-0.12,0.52"/>
				<path class="st10" d="M139.98,177.99c-0.44,0.39-1.13,0.24-1.3-0.34c-0.32-1.07-0.63-2.15-0.95-3.22
					c-0.17,0.14-0.35,0.28-0.53,0.42c-1.37,5.69-2.48,12.11-4.99,17.41c-1.67,3.53-4.71,5.08-8.32,6.2
					c-9.83,3.03-20.69,1.05-30.01,5.39c1.85-0.02,3.61,0.48,4.2,2.28c0.31,0.95,0.14,1.82-0.32,2.62
					c8.86-3.81,18.35-6.38,27.66-8.54c0.33-0.08,0.45,0.39,0.14,0.5c-9.98,3.57-20.15,6.27-29.73,10.7
					c8.76-1.22,19.25,0.67,19.11,9.94c5.53-5.98,11.7-11.42,17.57-17.05c3.46-3.32,4.52-3.78,4.93-9.67
					c0.05-0.74-0.04-1.5,0.06-2.25c0.62-4.93,3.14-10.06,4.73-14.76c-0.2-0.42-0.39-0.84-0.57-1.27
					C141.11,176.91,140.57,177.46,139.98,177.99z"/>
				<path class="st10" d="M144.71,83.52c1.77-0.26,3.51-0.69,5.28-0.93c1.09-0.14,2.22-0.34,3.32-0.31
					c1.04,0.03,2.09,0.13,3.13-0.12c0.96-0.23,1.9-0.87,2.14-1.82c0.1-0.39,0.07-0.8-0.05-1.18c-0.07-0.22-0.25-0.45-0.4-0.67
					c-2.32-1.72-5.44-1.59-7.97-3.19c-1.92-1.22-2.92-3.21-4.15-5.03c-0.67-0.47-1.43-0.67-2.23-0.24
					c-0.83,0.45-1.56,1.01-2.45,1.35c-0.8,0.3-1.67,0.52-2.52,0.49c-1.19,0.14-2.48,0.01-4.09-0.4c-4.18-1.08-8.08-1.56-11.57,1.68
					c-2.04,1.89-2.91,4.29-3.78,6.77c-0.11,1.16,0.62,0.45,2.98-0.56c2.44-1.05,5.11-1.46,7.75-1.49
					c8.19-0.11,15.97,3.02,24.14,0.46c0.83-0.26,1.18,1.04,0.36,1.3c-8.07,2.52-16.55-0.36-24.58-0.13
					C134.82,82.61,138.54,84.43,144.71,83.52z M145.4,75.35c-0.52,0.21-1.04,0.08-1.56-0.04c-0.46-0.11-0.88-0.26-1.13-0.68
					c-0.12-0.19-0.01-0.5,0.22-0.54c0.34-0.06,0.67,0.03,1.01-0.03c0.34-0.06,0.68-0.31,1-0.44c0.45-0.18,0.98,0.2,1.1,0.62
					C146.16,74.75,145.85,75.16,145.4,75.35z"/>
				<path class="st10" d="M165.2,181.16c-0.36,0.58-1.15,0.41-1.38-0.18c-0.27-0.69-0.53-1.38-0.8-2.07
					c-0.2,0.3-0.42,0.59-0.63,0.87c1.04,8.75,2.92,20.7-1.44,28.69c-4.27,7.84-14.44,10.75-17.58,19.14
					c3.17-2.04,7.21-1.64,10.86-0.15c2.87,1.17,4.39,2.99,5.26,5.32c0.32-2.29,0.99-4.58,1.37-6.83c0.65-3.8,0.98-7.73,1.95-11.45
					c0.04-0.15,0.25-0.11,0.26,0.04c0.24,3.64-0.31,7.34-0.81,10.94c-0.32,2.32-0.5,4.84-1.06,7.19c4.14-5.55,12.02-6.79,17.85-2.31
					c-0.87-4.85-2.84-9.15-5.9-13.15c-2.11-2.75-4.15-5.2-5.1-8.61c-2.27-8.15-0.45-18.18,0.65-26.41
					c-0.94-0.89-1.55-2.05-2.39-3.06C165.98,179.83,165.61,180.49,165.2,181.16z"/>
				<path class="st11" d="M81.9,129.32c5.19,3.08,11.8,0.73,14.84-4.35c0.48-0.8,0.84-3.22,2.21-3.47c0.32-0.06,0.58,0.04,0.78,0.32
					c0.21,0.3,0.36,0.66,0.47,1.03c0.91,2.1,0.18,4.97-0.16,7.13c-0.47,3.04-1.4,6.68-3.56,9.07c4.24-0.02,8.99,1.34,12.95,3.23
					c-4.17-4.78-7.26-11.91-6.52-17.83c-0.11-1.26,0.01-2.54,1.12-3.04c0.18-0.08,0.42-0.09,0.57,0.07
					c1.82,2.03,2.66,4.73,4.73,6.67c2.11,1.97,4.87,2.87,7.62,2.79c0.08-0.03,0.16-0.03,0.24-0.01c3.01-0.15,5.96-1.49,7.96-3.98
					c3.05-3.8,2.55-11.63-0.69-14.98c-4.08-4.23-10.26-3.43-14.89-0.71c-0.81,0.48-1.42-0.56-0.93-1.2
					c0.63-0.82,1.23-1.63,1.82-2.44c1.65-3.29,3.13-6.37,2.52-10.4c-0.96-6.37-5.8-10.15-12.21-9.48
					c-5.83,0.61-10.56,4.99-10.85,11.05c-0.21,4.33,2.2,7.14,4.27,10.45c0.23,0.27,0.44,0.55,0.68,0.81
					c0.6,0.66-0.15,1.61-0.94,1.21c-5.53-2.79-12.37-3.79-16.24,2.39C74.4,118.88,76.81,126.29,81.9,129.32z"/>
				<path class="st12" d="M135.53,174.29c0.7-0.56,1.39-1.14,2.07-1.73c0.43-0.38,1.1-0.23,1.27,0.34c0.31,1.03,0.63,2.05,0.94,3.08
					c0.52-0.53,1.03-1.08,1.51-1.66c0.41-0.5,1.13-0.15,1.32,0.35c0.29,0.78,0.63,1.52,0.99,2.26c0.87-1.96,1.63-3.96,2.28-6
					c-3.63-1.1-7.14-2.54-10.43-4.39C136.08,168.96,135.84,171.77,135.53,174.29z"/>
				<path class="st12" d="M127.41,125.05c-1.58,4.58-5.22,7.01-9.81,7.31c0.7,10.49,2.97,19.85,11.08,27.36
					c8.27,7.66,19.28,10.97,30.23,12.34c0.49,0.06,0.73,0.48,0.73,0.86c1.25,1.26,1.49,3.96,1.58,6.07
					c0.49-0.68,0.92-1.39,1.32-2.16c0.32-0.62,1.16-0.38,1.37,0.18c0.26,0.68,0.52,1.35,0.78,2.03c0.28-0.51,0.54-1.03,0.79-1.58
					c0.22-0.47,0.85-0.44,1.18-0.15c1.19,1.04,1.84,2.62,2.97,3.68c0.77-3.86,1.78-8.85,4.41-11.62c0.21-0.23,0.69-0.07,0.65,0.27
					c-0.09,0.8-0.3,1.56-0.57,2.32c1.21-0.83,2.65-1.48,3.58-1.91c1.57-0.72,3.18-1.36,4.71-2.17c0.49-0.26,0.97-0.61,1.45-0.92
					c-7.92-2.29-15.07-8.28-19.39-14.93c-6.43-9.89-11.18-25.87-6.13-37.44c1.26-3.91,3.66-7.61,7.74-7.51
					c6.57,0.16,11.77,9.34,15.24,13.91c3.3,4.36,6.67,8.68,10.38,12.7c2.21,2.39,6.53,4.96,7.87,7.93c1.39,3.07-1.21,4.49-3.76,4.3
					c0.92,0.65,1.88,1.27,2.9,1.84c0.57,0.31,1.15,0.61,1.73,0.91c2.58-4.78,4.35-9.71,5.47-14.94c-1.38,1.8-2.86,3.51-4.53,5.11
					c-0.39,0.38-1.01-0.1-0.75-0.58c2.9-5.22,4.27-11.35,3.65-17.29c-0.88,2.46-2.1,4.82-4.1,6.34c-0.05,0.09-0.09,0.17-0.15,0.26
					c-0.12,0.19-0.34,0.13-0.41-0.03c-0.09-0.07-0.15-0.18-0.13-0.3c0.07-0.35,0.17-0.7,0.28-1.04c0.76-5.15,1.24-9.92-0.01-14.88
					c-1.06,3.72-2.42,7.26-4.27,10.67c-0.45,1.32-1.08,2.61-1.93,3.82c-0.1,0.15-0.35,0.06-0.3-0.13c0.15-0.52,0.29-1.05,0.42-1.57
					c0-0.03-0.02-0.06,0-0.1c0.03-0.07,0.05-0.13,0.07-0.2c0.81-3.35,1.18-6.72,0.67-10.12c-1.41,3.07-2.87,6.08-4.78,8.89
					c-0.29,0.42-1.09,0.16-0.88-0.37c0.52-1.31,0.64-2.73,0.37-4.09c-0.68,1.24-1.5,2.38-2.6,3.29c-0.16,0.42-0.7,0.69-1.14,0.28
					c-7.01-6.55-12.82-12.88-15.51-22.29c-1.58-5.53-2.25-11.45-2.21-17.34c-0.17-3.54-0.08-7.09,0.29-10.79
					c0.33-3.39,1.17-6.91,1.15-10.31c-0.02-3.62-3.5-7.94-6.56-10.05c-4.23-2.91-8.89-0.91-13.17,0.53
					c-3.47,1.17-7.86,2.38-10.75,4.71c-3.2,2.57-0.72,5.24-0.02,8.56c0.42,2.01,0.3,3.92-0.2,5.85c1.54-0.03,2.64-0.48,3.89-0.92
					c-0.54-0.5-0.6-1.49-0.6-2.19c0-1.12,0.22-2.4,1.35-2.93c1.04-0.49,2.01,0.15,2.41,1.14c0.26,0.65,0.47,1.85,0.14,2.63
					c0.6,0.18,1.06,0.65,1.41,1.23c0.24,0.23,0.45,0.52,0.69,0.85c1.73,2.46,3.05,4.11,6.14,4.89c1.95,0.49,4.39,0.97,5.48,2.58
					c1.05,0.87,1.31,2.7,0.71,3.82c-1.37,2.58-5.16,2.07-7.47,2.22c-4.56,0.29-9.51,1.52-13.99,1.19
					c-1.14,9.3-8.1,18.84-13.69,25.94C128.03,114.18,129.39,119.27,127.41,125.05z M145.63,61.59c-0.04,0.13-0.17,0.17-0.29,0.12
					c-0.94-0.41-1.56-1.29-2.53-1.65c-1.43-0.52-2.24,0.41-3.42,0.98c-0.08,0.04-0.17-0.02-0.15-0.11c0.42-1.56,1.88-2.68,3.53-2.43
					C144.11,58.7,146.16,60,145.63,61.59z M154.76,71.18c-2.55-1.17-1.69-5.93,0.64-7.01c1.06-0.78,2.64-0.77,3.38,0.46
					C160.07,66.79,157.85,72.6,154.76,71.18z M158.22,56.68c-1.68-0.42-2.79,0.16-4.06,0.78c-0.34,0.21-0.68,0.42-1.05,0.64
					c-0.4,0.23-0.83-0.23-0.62-0.62c0.76-1.41,1.35-2.64,2.88-3.33c1.1-0.5,2.35-0.52,3.49-0.17c2.94,0.91,3.95,3.89,4.23,6.67
					c0.06,0.57-0.81,0.64-0.96,0.13C161.58,58.84,160.24,57.18,158.22,56.68z"/>
				<path class="st13" d="M187.39,138.61c-0.1-0.2,0.16-0.42,0.32-0.25c1.44,1.62,2.93,3.2,4.53,4.66c0.66,0.6,1.62,1.78,2.51,1.84
					c0.66,0.05,1.88-0.63,2.33-1.09c1.54-1.57-0.74-2.87-1.79-3.79c-1.71-1.59-3.36-3.23-4.94-4.95c-3.18-3.43-6.09-7.09-8.95-10.79
					c-2.77-3.6-5.35-7.43-8.49-10.71c-3.26-3.4-7.57-7.79-12.48-0.99c-0.36,0.49-0.66,1.06-0.93,1.66
					c-2.16,12.4-1.06,24.49,5.64,35.61c6.4,10.64,16.37,16.17,28.18,16c-5.99-1.41-12.02-5.12-14.75-8.65
					c-0.07-0.09,0.02-0.24,0.13-0.17c7.83,4.3,14.74,8.85,23.39,6.67c-1.22-0.14-2.51-0.47-3.97-0.98
					c-4.79-1.66-9.46-4.31-12.76-8.21c-0.11-0.13,0.03-0.35,0.19-0.25c5.64,3.84,14.5,10.09,21.38,6.29
					c-7.18-3.48-14.57-7.74-20.3-13.24c-0.12-0.11,0.03-0.3,0.17-0.22c5.45,2.99,10.68,6.17,16.12,9.07
					c1.24-0.89,2.92-1.62,1.9-2.83c-0.52-0.61-2.04-0.93-2.81-1.33c-1.91-0.99-3.72-2.16-5.43-3.46
					C192.99,145.76,189.5,142.68,187.39,138.61z"/>
				<path class="st1" d="M155.4,64.17c-2.33,1.08-3.19,5.84-0.64,7.01c3.09,1.42,5.32-4.39,4.02-6.56
					C158.04,63.4,156.46,63.39,155.4,64.17z M158.15,66.96c-0.01,0.02-0.03,0.03-0.04,0.05c-0.3,0.39-0.94,0.42-1.35,0.26
					c-0.23-0.09-0.39-0.24-0.51-0.41c-0.01-0.01-0.02-0.03-0.04-0.04c-0.01-0.01-0.01-0.02-0.02-0.03
					c-0.08-0.11-0.15-0.23-0.19-0.39c0-0.01,0-0.02-0.01-0.03c-0.02-0.08,0-0.14-0.01-0.21c0-0.01,0-0.01,0-0.02
					c0-0.01,0-0.03,0-0.04c0-0.13,0.01-0.25,0.05-0.37c0.02-0.05,0.03-0.11,0.06-0.16c0.03-0.07,0.07-0.13,0.11-0.19
					c0.02-0.03,0.04-0.05,0.06-0.07c0.5-0.63,1.54-0.78,2.04,0.09c0.01,0.02,0.02,0.04,0.03,0.05
					C158.64,65.97,158.5,66.51,158.15,66.96z"/>
				<path class="st1" d="M144.93,73.63c-0.32,0.13-0.66,0.38-1,0.44c-0.33,0.06-0.67-0.03-1.01,0.03c-0.23,0.04-0.33,0.35-0.22,0.54
					c0.26,0.42,0.67,0.57,1.13,0.68c0.52,0.12,1.04,0.25,1.56,0.04c0.45-0.18,0.76-0.59,0.62-1.1
					C145.91,73.83,145.38,73.45,144.93,73.63z"/>
				<path class="st1" d="M142.77,58.5c-1.64-0.25-3.11,0.86-3.53,2.43c-0.02,0.09,0.07,0.15,0.15,0.11c1.18-0.57,1.99-1.5,3.42-0.98
					c0.97,0.35,1.59,1.24,2.53,1.65c0.12,0.05,0.24,0.01,0.29-0.12C146.16,60,144.11,58.7,142.77,58.5z"/>
				<path class="st1" d="M162.14,60.78c0.15,0.51,1.02,0.44,0.96-0.13c-0.28-2.78-1.28-5.75-4.23-6.67
					c-1.15-0.35-2.4-0.33-3.49,0.17c-1.53,0.69-2.12,1.92-2.88,3.33c-0.21,0.39,0.22,0.85,0.62,0.62c0.36-0.21,0.71-0.43,1.05-0.64
					c1.27-0.62,2.38-1.2,4.06-0.78C160.24,57.18,161.58,58.84,162.14,60.78z"/>
				<path class="st1" d="M87.68,132.28c2.63-0.21,5.16-1.21,7.21-2.87c0.88-0.71,1.66-1.52,2.33-2.43c0.69-0.94,1.31-3.51,2.18-2.49
					c0.03,0.96-0.04,1.93-0.06,2.15c-0.16,1.88-0.39,3.75-0.86,5.58c-0.67,2.66-1.93,4.61-3.24,6.88c-1.45,0.11-2.82,0.39-4.05,0.89
					c-3.71,1.52-3.26,4.22-1.5,6.81c2.24,5.42,9.18,10.03,13.64,12.26c7.4,3.71,16.18,4.21,23.95,1.45
					c2.17,2.06,4.52,3.83,7.02,5.33c-0.52,3.2-0.01,6.7-0.45,9.93c-0.07,0.55,0.5,1.27,1.09,0.84c0.15-0.11,0.29-0.24,0.44-0.35
					c-1.1,4.56-2.23,9.17-3.8,13.57c-2.65,7.39-11.04,8.33-17.9,8.94c-8.35,0.74-16.8,0.88-23.96,5.8
					c-0.62,0.43-0.26,1.52,0.54,1.27c0.06-0.04,0.1-0.06,0.17-0.07c0.11-0.08,0.23-0.15,0.34-0.22c1.2-0.66,2.73-0.7,3.96-0.05
					c0.82,0.44,1.46,1.23,1.61,2.15c0.32,1.95-1.2,2.23-2.55,2.87c-1.74,0.83-3.44,1.73-5.11,2.69c-0.78,0.44-0.25,1.84,0.63,1.49
					c8.59-3.41,24.6-3.81,23.52,9.26c-0.08,0.95,1.2,1.11,1.66,0.45c5.8-8.44,15.27-14.67,22.3-22.07c2-2.1,2.52-3.49,2.47-6.34
					c-0.1-5.84,2.09-11.18,3.98-16.63c0.36,0.22,0.9,0.17,1.1-0.25c1.2-2.53,2.22-5.11,3.07-7.77c3.76,1.04,7.63,1.76,11.49,2.24
					c0.01,0,0.02,0,0.04,0c0.95,1.83,0.87,5.91,0.96,7.29c0.04,0.57,0.76,0.97,1.19,0.49c0.17-0.18,0.31-0.36,0.47-0.55
					c0.66,10.42,2.67,23.7-5.33,31.42c-5.64,5.44-13.45,9.02-15,17.42c-0.12,0.67,0.73,1.37,1.27,0.74
					c2.63-3.09,6.35-3.07,9.95-1.94c4.52,1.43,6.03,4.76,6.49,9.05c0.09,0.84,1.3,1.13,1.56,0.21c2.43-8.85,12.73-11.41,19.1-4.76
					c0.44,0.46,1.43,0.14,1.35-0.56c-0.37-3.28-1.08-6.44-2.43-9.47c-1.78-4.01-4.73-6.81-7.03-10.45
					c-5.04-7.98-2.38-20.35-1.47-29.45c0.37,0.05,0.77-0.13,0.85-0.52c0.49-2.37,1.09-4.7,1.87-6.99c0.1-0.3,0.21-0.59,0.33-0.89
					c0.66-0.38,1.2-0.94,1.97-1.35c1.51-0.8,3.11-1.46,4.67-2.16c1.72-0.76,5.22-1.78,6.4-3.62c3.75,0.73,7.63,0.61,11.43-0.7
					c0.2-0.07,0.32-0.22,0.38-0.4c3.2,0.02,6.12-0.87,8.18-3.11c0.02-0.02,0.02-0.04,0.04-0.06c1.19-0.42,2.39-1.11,3.67-2.13
					c0.51-0.4,0.37-1.41-0.22-1.67c-1.84-0.84-3.63-1.73-5.39-2.65c1.51-0.44,2.79-1.34,3.67-2.72c0.21-0.33,0.19-0.78,0-1.12
					c-0.7-1.24-1.75-1.49-3.05-2.1c-0.97-0.45-1.94-0.92-2.9-1.4c3.24-5.96,5.41-12.26,6.32-19.01c0.12-0.92-0.99-1.52-1.56-0.66
					c-0.27,0.41-1.02,1.43-1.84,2.59c0.13-0.37,0.24-0.69,0.3-0.89c1.44-4.83,1.24-9.8,0.27-14.68c-0.19-0.93-1.53-0.82-1.78,0
					c-0.31,1.04-0.73,2.05-1.18,3.05c0.31-3.99-0.54-8.14-1.95-11.8c-0.28-0.73-1.43-0.89-1.64,0c-0.71,2.93-1.58,5.82-2.55,8.67
					c-0.01-1.92-0.31-3.87-0.84-5.8c-0.17-0.62-1.17-0.84-1.47-0.19c-1.07,2.35-1.96,5.01-3.07,7.49c-0.08-0.95-0.37-1.92-0.88-2.94
					c-0.29-0.58-1.33-0.63-1.61,0c-0.74,1.69-1.77,3.2-2.63,4.8c-6.2-6.83-11.81-12.71-14.28-22c-1.97-7.41-1.81-14.89-2.15-22.41
					c0.37-4.85,1.44-9.6,1.81-14.42c0.18-2.33-0.36-4.3-1.82-6.12c-1.92-2.39-5.35-6.45-8.39-7.36c-2.93-0.88-6.77,0.68-9.55,1.5
					c-3.88,1.15-7.65,2.64-11.27,4.45c-1.53,0.76-5.43,2.09-5.75,4.22c-0.1,0.7,0.52,1.46,0.78,2.05c1.58,3.62,2.69,6.57,2.23,10.54
					c-0.25-0.02-0.5-0.05-0.77-0.09c-1.55-0.24-3.02-0.99-4.55-1.32c-2.24-0.48-4.19-0.45-6.27,0.59c-3.46,1.73-6.6,5.51-7.22,9.47
					c-0.24,0.94-0.32,1.93-0.33,3.03c0,0.42,0.51,0.75,0.88,0.5c3.09-2.08,6.34-2.93,9.66-3.17c2.34,3.51,5.35,4.96,8.65,5.41
					c-3.26,9.17-7.58,17.4-13.66,25.09c-0.01,0.01-0.01,0.02-0.01,0.03c-3.16-2.44-7.62-3.21-12.3-1.43
					c0.39-0.62,0.73-1.26,1.04-1.92c2.27-3.74,2.95-8.14,1.37-12.62c-1.95-5.54-6.71-8.35-12.46-8.05
					c-5.23,0.27-10.02,3.22-12.07,8.16c-2.04,4.91-0.7,9.77,2.32,13.63c0.16,0.32,0.32,0.64,0.49,0.95
					c-4.64-1.87-9.29-2.23-13.51,1.46c-3.97,3.47-5.01,8.88-3.08,13.75C77.64,129.19,82,132.73,87.68,132.28z M104.43,157.2
					c-6.54-3.17-11.05-7.16-14.54-13.2c-0.06-0.4-0.05-0.81,0.1-1.19c0.2-0.51,0.64-0.91,1.13-1.17c1.17-0.63,2.65-0.55,3.94-0.74
					c1.6-0.11,3.16,0.06,4.73,0.32c4.27,0.69,9.05,2.3,12.77,4.73c-4.13,2.43-8.31,1.69-12.98,1.01c-0.22-0.03-0.41,0.27-0.17,0.4
					c5.09,2.69,10.61,2.8,15.19-0.82c0.32-0.25,0.32-0.9,0-1.15c-0.62-0.48-1.32-0.96-2.07-1.42c-1.55-1.91-2.87-3.78-4.02-5.68
					c1.23-0.35,2.4-1.62,3.33-2.31c1.49-1.11,3.36-2.12,4.51-3.59c0.05,0,0.11,0.01,0.16,0.01c-1.28,8.22,1.84,17.06,6.9,23.76
					c-3.5,0.6-6.84,0.13-10.32-0.55c-0.07-0.01-0.11,0.07-0.05,0.11c3.4,2.38,7.65,2.68,11.63,2.02c0,0,0,0,0,0
					c0.36,0.43,0.73,0.84,1.1,1.25C118.59,160.76,111.2,160.49,104.43,157.2z M107.87,137.25c-2.15-3.84-3.48-7.89-3.95-12.8
					c0.6-0.82,1.54,0.74,2.51,2.16c0.88,1.29,1.88,2.47,3.12,3.43c1.41,1.09,2.98,1.83,4.69,2.16c-1.19,0.74-2.31,1.76-3.35,2.56
					C110.01,135.43,108.56,136.21,107.87,137.25z M137.47,192.36c-0.09,0.74,0,1.51-0.06,2.25c-0.41,5.88-1.47,6.35-4.93,9.67
					c-5.86,5.63-12.04,11.08-17.57,17.05c0.14-9.27-10.35-11.16-19.11-9.94c9.58-4.43,19.75-7.13,29.73-10.7
					c0.31-0.11,0.19-0.57-0.14-0.5c-9.31,2.17-18.79,4.74-27.66,8.54c0.46-0.79,0.63-1.67,0.32-2.62c-0.59-1.8-2.36-2.31-4.2-2.28
					c9.32-4.33,20.19-2.36,30.01-5.39c3.62-1.12,6.65-2.67,8.32-6.2c2.51-5.3,3.63-11.72,4.99-17.41c0.17-0.14,0.36-0.27,0.53-0.42
					c0.32,1.07,0.63,2.15,0.95,3.22c0.17,0.58,0.87,0.74,1.3,0.34c0.59-0.53,1.13-1.08,1.65-1.65c0.18,0.43,0.37,0.85,0.57,1.27
					C140.62,182.3,138.09,187.43,137.47,192.36z M143.62,176.92c-0.36-0.73-0.7-1.48-0.99-2.26c-0.19-0.5-0.91-0.85-1.32-0.35
					c-0.48,0.59-0.99,1.13-1.51,1.66c-0.31-1.03-0.63-2.05-0.94-3.08c-0.17-0.57-0.84-0.71-1.27-0.34
					c-0.68,0.59-1.37,1.17-2.07,1.73c0.31-2.53,0.55-5.33-0.05-7.77c3.29,1.85,6.8,3.29,10.43,4.39
					C145.24,172.96,144.49,174.96,143.62,176.92z M168.06,208.62c0.95,3.41,2.99,5.86,5.1,8.61c3.06,4,5.03,8.3,5.9,13.15
					c-5.83-4.48-13.7-3.24-17.85,2.31c0.56-2.36,0.74-4.87,1.06-7.19c0.5-3.6,1.05-7.3,0.81-10.94c-0.01-0.14-0.22-0.19-0.26-0.04
					c-0.97,3.72-1.3,7.65-1.95,11.45c-0.39,2.25-1.05,4.54-1.37,6.83c-0.87-2.33-2.39-4.15-5.26-5.32c-3.65-1.49-7.7-1.9-10.86,0.15
					c3.14-8.4,13.31-11.31,17.58-19.14c4.35-7.99,2.47-19.93,1.44-28.69c0.21-0.29,0.43-0.57,0.63-0.87
					c0.27,0.69,0.53,1.38,0.8,2.07c0.23,0.59,1.01,0.76,1.38,0.18c0.42-0.67,0.78-1.33,1.12-2.01c0.84,1.01,1.44,2.17,2.39,3.06
					C167.61,190.44,165.79,200.46,168.06,208.62z M202.02,151.96c0.77,0.4,2.29,0.71,2.81,1.33c1.02,1.21-0.66,1.95-1.9,2.83
					c-5.44-2.9-10.67-6.07-16.12-9.07c-0.14-0.08-0.29,0.11-0.17,0.22c5.74,5.49,13.12,9.76,20.3,13.24
					c-6.88,3.8-15.74-2.45-21.38-6.29c-0.16-0.11-0.3,0.12-0.19,0.25c3.3,3.9,7.97,6.55,12.76,8.21c1.46,0.51,2.76,0.84,3.97,0.98
					c-8.66,2.18-15.56-2.37-23.39-6.67c-0.12-0.06-0.21,0.08-0.13,0.17c2.73,3.53,8.76,7.24,14.75,8.65
					c-11.82,0.17-21.78-5.37-28.18-16c-6.7-11.13-7.8-23.21-5.64-35.61c0.27-0.6,0.57-1.17,0.93-1.66c4.91-6.8,9.22-2.41,12.48,0.99
					c3.15,3.28,5.72,7.11,8.49,10.71c2.85,3.7,5.77,7.36,8.95,10.79c1.59,1.71,3.23,3.36,4.94,4.95c1.05,0.93,3.33,2.22,1.79,3.79
					c-0.45,0.46-1.67,1.14-2.33,1.09c-0.89-0.06-1.85-1.24-2.51-1.84c-1.6-1.46-3.09-3.04-4.53-4.66c-0.16-0.18-0.42,0.05-0.32,0.25
					c2.11,4.07,5.6,7.15,9.2,9.89C198.31,149.8,200.12,150.97,202.02,151.96z M130.02,79.49c8.03-0.23,16.51,2.65,24.58,0.13
					c0.82-0.26,0.47-1.56-0.36-1.3c-8.17,2.56-15.95-0.57-24.14-0.46c-2.64,0.04-5.31,0.44-7.75,1.49
					c-2.36,1.02-3.09,1.72-2.98,0.56c0.87-2.48,1.74-4.88,3.78-6.77c3.49-3.23,7.4-2.76,11.57-1.68c1.61,0.42,2.9,0.54,4.09,0.4
					c0.85,0.03,1.73-0.19,2.52-0.49c0.89-0.34,1.62-0.89,2.45-1.35c0.79-0.44,1.56-0.23,2.23,0.24c1.23,1.82,2.23,3.81,4.15,5.03
					c2.53,1.6,5.65,1.47,7.97,3.19c0.15,0.22,0.34,0.44,0.4,0.67c0.12,0.38,0.15,0.79,0.05,1.18c-0.24,0.95-1.18,1.59-2.14,1.82
					c-1.04,0.25-2.09,0.15-3.13,0.12c-1.11-0.03-2.23,0.17-3.32,0.31c-1.77,0.23-3.51,0.67-5.28,0.93
					C138.54,84.43,134.82,82.61,130.02,79.49z M143.68,65.62c0.01-0.02,0.02-0.03,0.03-0.05c0.14-0.22,0.43-0.28,0.65-0.19
					c0.22,0.06,0.4,0.23,0.39,0.5c-0.01,0.23-0.1,0.4-0.3,0.52c-0.24,0.16-0.6,0.05-0.74-0.19c-0.01-0.02-0.02-0.04-0.03-0.05
					C143.59,66,143.58,65.78,143.68,65.62z M138.55,85.08c4.48,0.33,9.43-0.9,13.99-1.19c2.31-0.14,6.1,0.36,7.47-2.22
					c0.59-1.12,0.34-2.95-0.71-3.82c-1.08-1.61-3.53-2.09-5.48-2.58c-3.09-0.78-4.41-2.42-6.14-4.89c-0.24-0.34-0.45-0.62-0.69-0.85
					c-0.35-0.58-0.81-1.05-1.41-1.23c0.33-0.78,0.12-1.99-0.14-2.63c-0.4-0.99-1.37-1.63-2.41-1.14c-1.13,0.53-1.35,1.81-1.35,2.93
					c0,0.7,0.06,1.69,0.6,2.19c-1.25,0.44-2.35,0.89-3.89,0.92c0.5-1.93,0.63-3.83,0.2-5.85c-0.7-3.32-3.18-5.99,0.02-8.56
					c2.89-2.32,7.28-3.54,10.75-4.71c4.28-1.44,8.94-3.44,13.17-0.53c3.06,2.11,6.54,6.43,6.56,10.05c0.01,3.4-0.82,6.93-1.15,10.31
					c-0.36,3.7-0.45,7.25-0.29,10.79c-0.04,5.88,0.63,11.81,2.21,17.34c2.69,9.41,8.5,15.74,15.51,22.29
					c0.44,0.41,0.98,0.14,1.14-0.28c1.1-0.91,1.92-2.05,2.6-3.29c0.27,1.36,0.15,2.78-0.37,4.09c-0.21,0.53,0.59,0.79,0.88,0.37
					c1.91-2.81,3.38-5.82,4.78-8.89c0.52,3.39,0.14,6.77-0.67,10.12c-0.03,0.07-0.05,0.13-0.07,0.2c-0.02,0.04,0,0.07,0,0.1
					c-0.13,0.52-0.27,1.05-0.42,1.57c-0.05,0.19,0.2,0.27,0.3,0.13c0.86-1.21,1.49-2.5,1.93-3.82c1.84-3.41,3.21-6.94,4.27-10.67
					c1.25,4.96,0.77,9.73,0.01,14.88c-0.1,0.34-0.2,0.69-0.28,1.04c-0.02,0.12,0.04,0.23,0.13,0.3c0.08,0.16,0.3,0.22,0.41,0.03
					c0.05-0.08,0.1-0.17,0.15-0.26c2-1.52,3.22-3.88,4.1-6.34c0.61,5.94-0.75,12.07-3.65,17.29c-0.26,0.47,0.35,0.95,0.75,0.58
					c1.67-1.6,3.15-3.31,4.53-5.11c-1.12,5.23-2.89,10.16-5.47,14.94c-0.58-0.3-1.16-0.59-1.73-0.91c-1.02-0.57-1.98-1.18-2.9-1.84
					c2.55,0.19,5.15-1.23,3.76-4.3c-1.34-2.97-5.67-5.54-7.87-7.93c-3.71-4.02-7.08-8.35-10.38-12.7
					c-3.47-4.57-8.67-13.75-15.24-13.91c-4.07-0.1-6.47,3.6-7.74,7.51c-5.05,11.56-0.3,27.54,6.13,37.44
					c4.32,6.65,11.47,12.64,19.39,14.93c-0.48,0.32-0.96,0.66-1.45,0.92c-1.53,0.81-3.14,1.44-4.71,2.17
					c-0.93,0.43-2.37,1.08-3.58,1.91c0.27-0.76,0.48-1.52,0.57-2.32c0.04-0.34-0.44-0.5-0.65-0.27c-2.62,2.77-3.63,7.76-4.41,11.62
					c-1.13-1.06-1.78-2.64-2.97-3.68c-0.33-0.29-0.97-0.32-1.18,0.15c-0.25,0.55-0.51,1.07-0.79,1.58
					c-0.26-0.68-0.52-1.35-0.78-2.03c-0.21-0.55-1.05-0.8-1.37-0.18c-0.4,0.76-0.83,1.47-1.32,2.16c-0.09-2.1-0.32-4.8-1.58-6.07
					c0-0.38-0.24-0.8-0.73-0.86c-10.96-1.37-21.97-4.68-30.23-12.34c-8.1-7.51-10.37-16.87-11.08-27.36
					c4.59-0.31,8.23-2.73,9.81-7.31c1.99-5.78,0.62-10.87-2.54-14.03C130.46,103.91,137.41,94.38,138.55,85.08z M77.68,113.66
					c3.88-6.18,10.72-5.17,16.24-2.39c0.78,0.39,1.54-0.55,0.94-1.21c-0.24-0.26-0.45-0.54-0.68-0.81
					c-2.07-3.31-4.48-6.12-4.27-10.45c0.29-6.06,5.03-10.45,10.85-11.05c6.42-0.67,11.25,3.11,12.21,9.48
					c0.61,4.03-0.87,7.11-2.52,10.4c-0.59,0.81-1.19,1.63-1.82,2.44c-0.5,0.64,0.12,1.68,0.93,1.2c4.63-2.72,10.8-3.51,14.89,0.71
					c3.24,3.35,3.74,11.17,0.69,14.98c-1.99,2.48-4.95,3.83-7.96,3.98c-0.08-0.02-0.17-0.02-0.24,0.01
					c-2.74,0.08-5.51-0.82-7.62-2.79c-2.08-1.94-2.91-4.64-4.73-6.67c-0.15-0.17-0.38-0.16-0.57-0.07c-1.11,0.5-1.23,1.79-1.12,3.04
					c-0.74,5.92,2.35,13.05,6.52,17.83c-3.96-1.89-8.7-3.25-12.95-3.23c2.16-2.39,3.09-6.03,3.56-9.07
					c0.33-2.16,1.07-5.03,0.16-7.13c-0.11-0.38-0.26-0.73-0.47-1.03c-0.19-0.27-0.45-0.38-0.78-0.32c-1.37,0.25-1.73,2.67-2.21,3.47
					c-3.03,5.08-9.65,7.43-14.84,4.35C76.81,126.29,74.4,118.88,77.68,113.66z"/>
				<path class="st1" d="M144.45,66.4c0.2-0.13,0.29-0.29,0.3-0.52c0.01-0.28-0.17-0.44-0.39-0.5c-0.22-0.09-0.51-0.03-0.65,0.19
					c-0.01,0.02-0.02,0.03-0.03,0.05c-0.1,0.16-0.09,0.38,0,0.54c0.01,0.02,0.02,0.04,0.03,0.05
					C143.85,66.46,144.21,66.56,144.45,66.4z"/>
				<path class="st1" d="M158.31,65.39c-0.51-0.88-1.54-0.72-2.04-0.09c-0.02,0.02-0.04,0.04-0.06,0.07
					c-0.04,0.06-0.08,0.12-0.11,0.19c-0.02,0.05-0.04,0.11-0.06,0.16c-0.04,0.12-0.05,0.24-0.05,0.37c0,0.01,0,0.03,0,0.04
					c0,0.01,0,0.01,0,0.02c0,0.07-0.01,0.14,0.01,0.21c0,0.01,0,0.02,0.01,0.03c0.03,0.15,0.1,0.28,0.19,0.39
					c0.01,0.01,0.01,0.02,0.02,0.03c0.01,0.01,0.02,0.03,0.04,0.04c0.12,0.17,0.28,0.32,0.51,0.41c0.41,0.17,1.05,0.13,1.35-0.26
					c0.01-0.02,0.03-0.03,0.04-0.05c0.35-0.45,0.5-0.99,0.2-1.51C158.33,65.43,158.32,65.41,158.31,65.39z"/>
			</g>
			<path class="st7" d="M155.31,77.87c-4.04-0.46-7.8,0.4-11.95-0.32c-3.01-0.52-5.98-1.24-9.03-1.56
				c-5.21-0.56-11.99,0.1-15.27,4.72c-0.05,0.07,0.02,0.19,0.1,0.18c3.65-0.46,6.65-2.4,10.45-2.62c3.89-0.22,7.7,0.7,11.5,1.42
				c4.46,0.84,10.88,2.52,14.66-0.7C156.24,78.57,155.81,77.93,155.31,77.87z"/>
			<path class="st7" d="M159.92,80.72c-0.01-0.17-0.23-0.19-0.29-0.04c-1.58,3.92-7.8,1.94-11.03,2.45
				c-3.71,0.59-7.32,1.16-11.05,1.59c-0.09,0.01-0.14,0.11-0.08,0.19c3.67,4.16,11.69,0.54,16.24,0.86
				C157.51,86.05,160.18,85.18,159.92,80.72z"/>
			<path class="st7" d="M199.72,111.15c-0.05-0.05-0.13-0.04-0.17,0.02c-1.53,2.4-1.06,5.17-1.15,7.9
				c-0.12,3.47-0.4,6.88-0.29,10.35c0.01,0.43,0.57,0.58,0.8,0.22c1.94-3.11,2.81-6.27,2.96-9.91
				C201.99,116.72,202.16,113.29,199.72,111.15z"/>
			<path class="st7" d="M194.12,113.55c-0.03-0.02-0.06-0.02-0.09,0c-1.27,0.99-1.04,3.54-1.23,4.96c-0.26,2.01-0.53,4.02-0.76,6.04
				c-0.03,0.25,0.35,0.33,0.47,0.13c1.06-1.92,1.82-4.02,2.11-6.2C194.83,116.96,195.45,114.64,194.12,113.55z"/>
			<path class="st7" d="M141.02,176.5c-4.11,2.7-4.91,9.42-5.37,13.99c-0.18,1.74,0,3.51-0.17,5.23c-0.28,2.96-1.41,5.25-3.26,7.71
				c-2.07,2.75-4.61,5.15-6.93,7.69c-0.07,0.08,0.02,0.2,0.11,0.15c4.75-2.65,12.16-6.61,13.41-12.4c0.8-3.67,0.07-7.6,0.81-11.36
				c0.68-3.43,2.83-6.85,2.58-10.32C142.18,176.62,141.56,176.14,141.02,176.5z"/>
			<path class="st7" d="M205.37,158.37c-0.21-0.02-3.21-0.39-4.35-1.27c1.22-0.08,2.31-0.5,3.7-1.4c1.17-0.75,1.38-2.7,0-3.4
				c-1.77-0.9-3.42-1.93-4.98-3.06c0.17,0,0.33-0.03,0.49-0.13c1.95-1.15,2.87-4.38,3.71-6.36c1.21-2.84,2.21-5.76,3.16-8.7
				c0.39-1.21-1.4-1.62-1.86-0.51c-0.65,1.57-1.63,3.06-2.86,4.24c1.83-3.71,2.17-8.87,2.6-12.42c0.1-0.8,0.81-5.75-1.1-5.22
				c-0.1,0.03-0.1,0.17,0,0.2c0.32,0.09-2.91,11.13-4.21,17.01c-0.78-0.81-1.57-1.55-2.17-2.16c-7.72-7.89-13.54-17.28-21.93-24.41
				c-4.54-7.91-7.66-16.06-7.45-25.6c0.21-9.62,2.1-19.18,0.6-28.8c-0.08-0.5-0.57-0.55-0.91-0.33c-0.34-1.25-0.88-2.41-1.73-3.41
				c-3.17-3.73-8.56-4.4-13.03-3.23c-0.47,0.12-0.37,0.84,0.11,0.84c4.22,0.02,7.94,1.12,10.56,4.53c2.61,3.39,1.37,8.07,0.98,12.13
				c-0.66,6.87-1.43,13.76-1.39,20.67c0.03,5.51,0.41,10.91,3.19,15.78c2.77,4.84,6.74,8.48,10.47,12.51
				c2.39,3.73,5.11,7.17,8.01,10.75c2.04,2.52,4.06,5.06,6.2,7.5c-5.2-5.44-10.19-11.25-14.08-17.64c-0.43-0.71-1.6-0.25-1.36,0.57
				c1.1,3.86,2.68,7.18,4.49,10.77c1.1,2.18,2.22,4.41,2.83,6.78c0.46,1.8,1.25,3.03-0.51,3.68c-1.53,0.57-2.77-0.77-3.93-1.62
				c-0.76-0.55-1.59,0.49-1.21,1.21c0.8,1.49,3.25,4.25,1.63,5.1c-2.03,1.06-4.81-2.56-6.16-3.9c-0.44-0.44-1.36,0-1.11,0.65
				c0.78,2.02,1.54,4.04,2.3,6.06c0.33,0.87,0.65,1.73,0.98,2.6c-1.53,1.09-2.84,0.83-3.94-0.78c-0.52-0.45-1.24-0.01-1.11,0.65
				c0.41,2.21-0.12,3.78-2.54,2.61c-1.17-0.57-2.3-1.91-3.23-2.79c-0.03-0.02-0.08,0-0.07,0.04c0.28,0.75,0.73,1.6,1.29,2.42
				c-0.45,0.11-0.86,0.41-1.12,0.98c-8.03,17.2-28.27,9.62-40.48,2.25c-0.16-0.1-0.43,0.07-0.34,0.26c0.24,0.58,0.53,1.13,0.85,1.67
				c-4.69-6.45-7.03-13.99-6.9-22.01c0.03-1.76-2.12-2-3.02-0.82c-0.97,0.81-1.95,1.63-2.92,2.44c-0.26,0.14-0.44,0.34-0.57,0.55
				c-0.14-0.01-0.28-0.02-0.42-0.01c-0.16,0.02-0.31,0.23-0.15,0.36c0.13,0.1,0.25,0.22,0.37,0.34c-0.02,0.58,0.25,1.19,0.77,1.55
				c0.32,0.22,0.61,0.48,0.89,0.76c1.09,2.12,1.66,4.79,1.95,7.1c-3.17,0.57-5.6,2.99-9.27,2.82c-4.17-0.19-7.11-2.11-10.82-3.58
				c-0.11-0.04-0.21,0.08-0.18,0.18c1.09,4.29,6.18,7.05,10.34,7.34c2.9,0.21,7.56-0.44,10.19-2.61c-0.04,3.12-0.69,6.11-1.94,9.06
				c-0.51,1.21,0.9,2.05,1.89,1.89c3.15-0.5,6.31-0.92,9.48-1.3c1.29-0.16,1.93-1.26,1.51-2.33c1.63,2.04,3.8,3.71,6.24,5.01
				c1.06,1.59,2.67,2.8,4.56,3.71c-0.04,0-0.07,0-0.11,0c-0.94,0.05-1.46,0.98-1.04,1.81c0.17,0.34,0.45,0.57,0.77,0.74
				c-0.54,0.18-1.02,0.46-1.39,0.93c-0.09,0.11-0.1,0.29,0.05,0.37c1.36,0.74,2.96,0.33,4.45,0.57c1.96,0.31,3.9,1.21,5.38,2.53
				c0.76,0.68,2.16,0.26,2.12-0.88c-0.03-0.88-0.34-1.6-0.81-2.2c4.38,1.3,8.88,2.1,13.41,2.63c0.74,1.81,1.33,3.73,1.21,5.67
				c-0.05,0.76,0.62,1.22,1.28,1.22c-0.14,0.44-0.09,0.95,0.26,1.4c0.72,0.92,1.45,1.85,2.17,2.77c0.42,0.53,1.35,0.53,1.87,0.14
				c0.07,2.29-0.4,4.72-0.52,6.89c-0.21,3.88-0.42,7.91,0,11.77c0.51,4.78,2.83,9.19,6.71,12.09c0.02,0.02,0.04-0.01,0.03-0.03
				c-1.24-2.68-3.16-4.97-3.78-7.93c-0.73-3.51-0.31-7.79-0.25-11.37c0.08-4.82,1.8-10.82-0.02-15.41
				c-0.41-1.03-2.02-1.56-2.62-0.34c-0.17,0.26-0.34,0.51-0.5,0.77c-0.36-0.45-0.71-0.91-1.07-1.36c-0.28-0.36-0.62-0.51-0.96-0.5
				c0.47-0.93,0.84-1.85,1.17-2.84c0.73-0.24,1.46-0.5,2.21-0.71c1.88-0.52,3.81-0.49,5.69-0.97c0.48-0.12,0.85-0.58,0.91-1.07
				c0.18,0.02,0.37,0,0.55-0.09c3.16-1.57,6.39-3.17,9.37-5.06c1.27-0.81,0.53-2.46-0.68-2.5c-0.14-0.1-0.29-0.19-0.48-0.25
				c-3.37-0.91-6.13-2.74-8.7-4.9c2.1,1.67,4.41,2.92,7.03,3.55c-0.02,0.08-0.02,0.16,0.02,0.23c0.04,0.08,0.08,0.17,0.12,0.25
				c0.05,0.11,0.23,0.1,0.28,0c0.12-0.23,0.92-0.14,1.98,0.11c1.1,0.49,2.22,0.85,3.35,0.95c1.58,0.49,3.01,0.96,3.42,1.03
				c2.13,0.37,4.42,0.8,6.12-0.69c0.07-0.06,0.12-0.15,0.15-0.24c2.32,0.08,4.58-0.36,6.37-1.81c0.33-0.26,0.51-0.57,0.58-0.9
				c0.99-0.03,1.95-0.1,2.85-0.21c0.01,0,0.02,0,0.03,0c0,0,0,0,0-0.01c0.17-0.02,0.35-0.04,0.52-0.06
				C208.25,161.9,207.38,158.58,205.37,158.37z M143.19,168.13c0.42,0.06,0.85,0.11,1.27,0.16c-0.03,0.19-0.02,0.38,0.02,0.57
				C144.08,168.58,143.64,168.34,143.19,168.13z M167.89,154.47c-0.18-0.06-0.36-0.1-0.55-0.1c0.15-0.28,0.3-0.56,0.44-0.85
				c0.09,0.1,0.18,0.19,0.27,0.29C167.93,154,167.87,154.23,167.89,154.47z M169.56,156.9c-0.21-0.19-0.43-0.31-0.65-0.36
				c0.01-0.04,0.03-0.08,0.04-0.12c0.03-0.1,0.05-0.2,0.05-0.3c0.69,0.8,1.4,1.55,2.14,2.26
				C170.62,157.89,170.09,157.4,169.56,156.9z M196.98,145.25c-0.12-0.05-0.23-0.1-0.3-0.14c-0.18-0.1-0.36-0.11-0.52-0.09
				c1.05-0.73,2-1.55,1.89-3.02c-0.04-0.54-0.25-1.06-0.56-1.56C198.6,141.63,198.44,143.23,196.98,145.25z"/>
			<path class="st12" d="M108.25,139.79c-0.89-0.82-1.77-1.63-2.7-2.38c-0.06-0.39-0.3-0.76-0.8-1c-0.34-0.17-0.65-0.36-0.94-0.57
				c-0.37-0.34-0.75-0.66-1.1-1.02c-0.63-0.64-1.36-0.59-1.88-0.21c-0.29-0.18-0.62-0.27-0.95-0.27c-0.29-0.17-0.61-0.26-0.93-0.26
				c0-0.18-0.01-0.37-0.01-0.55c0.09-0.88,0.24-1.76,0.51-2.62c0.31-0.99-0.96-1.6-1.66-0.97c-0.8,0.73-2.01,0.74-2.84,1.48
				c-0.89,0.78-1.56,1.93-2.18,2.92c-1.37,2.21-2.36,4.51-2.5,7.13c-0.02,0.35,0.08,0.62,0.25,0.81c0.21,0.95,1.65,1.11,2.22,0.32
				c0.22-0.08,0.41-0.25,0.5-0.55c0.14-0.44,0.26-0.88,0.39-1.32c0.14,0.43,0.53,0.78,0.99,0.92c0.14,1.03,1.53,1.46,2.12,0.7
				c0.12,0.01,0.24,0.02,0.36,0.03c0.37,0.16,0.79,0.18,1.19,0.02c0.08,0,0.16,0,0.24,0c0.47,0.01,0.95,0.08,1.41-0.04
				c0.4-0.11,0.77-0.33,1.17-0.45c0.38-0.11,0.66-0.38,0.81-0.69c1.54,0.54,3.27,0.74,4.74,1.31
				C108.2,143.14,109.4,140.85,108.25,139.79z M94.57,138.88c-0.13,0.12-0.25,0.25-0.37,0.38c-0.07,0.07-0.15,0.15-0.22,0.21
				c-0.02,0.02-0.03,0.04-0.05,0.05c0.12-0.47,0.23-0.93,0.33-1.4c0.06-0.28-0.02-0.53-0.17-0.74c0-0.01,0-0.02,0-0.03
				c0.23-0.4,0.48-0.79,0.75-1.17C94.68,137.07,94.58,137.97,94.57,138.88z"/>
			<path class="st12" d="M109.24,133.07c-0.56-0.42-1.07-0.93-1.48-1.49c-0.33-0.45-0.81-0.58-1.24-0.5
				c-0.32-0.38-0.67-0.72-1.08-0.98c-0.19-0.12-0.4,0.04-0.41,0.24c-0.16,2.01,0.95,4.22,1.48,6.14c0.27,0.97,1.57,1.09,2.09,0.27
				c0.48-0.76,0.85-1.54,1.19-2.37C109.99,133.88,109.63,133.36,109.24,133.07z"/>
			<path class="st7" d="M97.9,121.46c-3.45,1.42-5.61,4.96-9.28,6.13c-6.72,2.13-9.97-3.99-12.18-9.1
				c-0.09-0.21-0.44-0.15-0.49,0.06c-1.16,5.59,3.33,11.62,9,12.7c4.95,0.94,13.28-4.14,13.3-9.52
				C98.25,121.56,98.07,121.39,97.9,121.46z"/>
			<path class="st7" d="M127.43,117.03c-0.01-0.07-0.12-0.07-0.14,0c-0.84,5.29-4.19,10.6-10.21,10.51
				c-4.55-0.07-8.83-3.45-12.08-6.34c-0.12-0.1-0.27,0-0.25,0.14c0.91,6.07,8.51,11,14.45,9.9
				C125.51,130.07,128.43,122.91,127.43,117.03z"/>
			<path class="st7" d="M113.24,95.44c-1.04-4.23-5.05-9.48-9.95-8.28c-0.17,0.04-0.22,0.32-0.05,0.4
				c4.23,2.04,6.55,6.76,6.79,11.39c0.2,3.96-1.46,7.49-2.14,11.31c-0.06,0.32,0.28,0.67,0.6,0.46
				C113.25,107.54,114.56,100.77,113.24,95.44z"/>
			<path class="st8" d="M127.66,196.91c-6.14,2-12.08,3.88-18.61,4.23c-3.66,0.19-9.76-1.05-11.9,2.68
				c-0.09,0.15-0.05,0.39,0.12,0.47c2.14,1.04,4.38,0.62,6.74,0.77c2.27,0.15,4.46,0.25,6.69,0.12c-2.1,0.78-4.18,1.73-5.42,3.45
				c-0.11,0.16,0.01,0.36,0.17,0.41c3.43,1.15,7.82-1.17,10.98-2.48c3.23-1.34,6.83-2.46,8.88-5.44c0.16-0.23,0.07-0.49-0.1-0.66
				c1.09-0.72,2.14-1.52,3.11-2.41C128.82,197.6,128.31,196.7,127.66,196.91z"/>
			<path class="st8" d="M164.83,203.63c-0.09-0.66-1.13-0.59-1.28,0c-2.19,8.91-12.78,12.39-16.67,20.19
				c-0.19,0.38,0.12,0.85,0.56,0.73c4.44-1.2,9.11-4.89,12.37-8.11c1.04-1.03,1.84-2.11,2.48-3.25c-0.27,3.65-0.21,7.3,0.66,10.55
				c0.15,0.55,0.84,0.46,1.02,0C166.4,217.78,165.71,209.92,164.83,203.63z"/>
			<path class="st8" d="M92.28,114.1c-1.38-7.31-14.35-3.62-14.34,2.77c0,0.89,1.02,1.52,1.8,1.03c1.93-1.21,3.53-2.25,5.88-2.5
				c1.74-0.18,3.54,0.39,5.3,0.48C91.91,115.93,92.44,114.95,92.28,114.1z"/>
			<path class="st8" d="M102.67,91.31c-3.34-2.78-7.62-0.09-9.46,3.26c-2.42,4.4-1.1,9.56,1.57,13.43c0.26,0.38,0.71,0.76,1.22,0.7
				c0.21-0.02,0.51,0,0.69-0.15c0.63-0.53,0.62-0.89,0.67-1.64c0.16-2.26-0.86-4.5-0.38-6.79c0.73-3.42,4.27-4.31,5.91-7.12
				C103.18,92.51,103.15,91.7,102.67,91.31z"/>
			<path class="st8" d="M143.98,71.35c-1.9,0-3.6,0.82-5.5,0.9c-2.54,0.1-5.02-0.64-7.54-0.77c-3.03-0.16-6.4,0.47-7.93,3.32
				c-0.29,0.53,0.18,1.16,0.78,1.01c5.03-1.24,9.05-0.1,14.1-0.03c2.85,0.04,5.91-0.4,6.91-3.36
				C144.97,71.89,144.5,71.35,143.98,71.35z"/>
			<path class="st8" d="M147.52,97.87c-2.95-4.85-9.58-3.98-12.31,0.57c-3.07,5.11-4.02,12.17-4.36,18.01
				c-0.33,5.7-0.63,12.45,5.56,14.74c1.87,0.69,4.46-0.08,5.78-1.53c1.35-1.49,2.28-3.35,2.96-5.36c1.46-3.12,2.31-6.79,2.74-9.39
				C148.66,110.23,150.1,102.11,147.52,97.87z"/>
			<path class="st8" d="M136.03,139.42c-0.63-1.33-2.57-2.05-3.94-1.6c-1.5,0.48-2.51,1.77-2.56,3.36
				c-0.05,1.67,0.24,3.12,1.21,4.37c0.05,0.19,0.09,0.37,0.13,0.55c0.23,0.97,1.08,1.79,2.04,2.04c2.57,0.68,4.32-1.52,4.38-3.89
				C137.33,142.57,136.75,140.92,136.03,139.42z"/>
			<path class="st8" d="M151.75,54.13c-0.29-0.47-0.69-0.89-1.18-1.21c-1.6-1.05-3.79-0.55-5.3,0.42c-1.82,1.17-3.36,3.16-2.7,5.46
				c0.72,2.48,3.48,3.61,5.82,2.78c1.62-0.58,2.98-1.73,3.81-3.24C152.91,57.01,152.75,55.24,151.75,54.13z"/>
			<path class="st1" d="M84.45,110.99c-1.66-0.35-3.51,0.91-4.59,2.09c-1.15,1.25-1.9,2.66-1.94,4.37c0,0.17,0.22,0.21,0.31,0.08
				c0.8-1.13,1.77-2.31,2.95-3.06c0.52-0.33,1.09-0.62,1.65-0.88c0.62-0.29,1.32-0.37,1.87-0.79
				C85.3,112.34,85.37,111.18,84.45,110.99z"/>
			<path class="st1" d="M87.18,111.21c-0.14-0.06-0.3-0.11-0.46-0.1c-0.12,0.01-0.22,0.09-0.33,0.11c-0.31,0.04-0.47,0.43-0.17,0.61
				c0.11,0.07,0.17,0.18,0.3,0.25c0.16,0.09,0.34,0.09,0.52,0.1C87.65,112.19,87.66,111.4,87.18,111.21z"/>
			<path class="st1" d="M97.15,93.78c-0.15-0.39-0.27-0.53-0.59-0.77c-0.35-0.26-0.95-0.22-1.3,0c-3.62,2.28-5.18,8.72-1.6,11.75
				c0.13,0.11,0.37,0.05,0.36-0.15c-0.05-1.64-0.34-3.34,0.07-4.96c0.46-1.85,1.58-3.17,2.74-4.61
				C97.09,94.69,97.32,94.23,97.15,93.78z"/>
			<path class="st1" d="M99.82,91.67c-0.18-0.32-0.53-0.41-0.87-0.35c-0.11,0.02-0.22,0.04-0.33,0.06c-0.32,0.06-0.64,0.46-0.6,0.79
				c0.02,0.14,0.03,0.26,0.1,0.38c0.01,0.01,0.01,0.02,0.02,0.03c0.22,0.4,0.73,0.49,1.12,0.29c0.1-0.05,0.19-0.1,0.29-0.15
				c0.22-0.11,0.41-0.41,0.38-0.67C99.91,91.92,99.89,91.8,99.82,91.67z"/>
			<path class="st1" d="M118.18,111.55c-1.02-1.43-3.36-0.62-4.36,0.42c-0.17,0.18-0.04,0.47,0.2,0.48
				c0.67,0.03,1.35,0.08,2.01,0.16c0.68,0.08,1.26,0.25,1.89-0.09C118.25,112.34,118.4,111.85,118.18,111.55z"/>
			<path class="st1" d="M120.72,111.89c-0.38-0.21-0.63-0.19-1.02-0.02c-0.23,0.1-0.23,0.39-0.15,0.58c0.14,0.33,0.34,0.5,0.69,0.58
				C120.91,113.19,121.35,112.25,120.72,111.89z"/>
			<path class="st1" d="M134.07,73.25c-1.54-1.28-4.61-1.8-6.57-1.43c-2.26,0.42-3.88,2.16-5.14,3.95
				c-0.17,0.24,0.18,0.43,0.37,0.28c1.92-1.49,4.02-2,6.41-1.93c1.62,0.04,3.38,0.37,4.87-0.39
				C134.18,73.64,134.22,73.37,134.07,73.25z"/>
			<path class="st1" d="M138.1,73.2c-0.34-0.29-0.72-0.36-1.16-0.38c-0.21-0.01-0.41-0.02-0.61,0.06c-0.16,0.07-0.22,0.17-0.36,0.26
				c-0.12,0.09-0.16,0.25-0.05,0.37c0.16,0.16,0.2,0.3,0.43,0.4c0.16,0.07,0.33,0.09,0.51,0.12c0.4,0.06,0.78,0.07,1.14-0.14
				C138.24,73.76,138.32,73.39,138.1,73.2z"/>
			<path class="st1" d="M167.17,111.07c-10.65-1.91-5.57,22.31-3.86,26.89c0.23,0.62,1.3,0.6,1.24-0.17
				c-0.52-6.9-2.93-21.04,2.79-26.1C167.54,111.52,167.44,111.12,167.17,111.07z"/>
			<path class="st1" d="M165.69,142.18c-0.26-0.67-0.48-1.21-0.94-1.76c-0.21-0.26-0.58-0.02-0.6,0.25c-0.06,0.72,0.08,1.29,0.26,2
				c0.15,0.61,0.34,1.28,0.86,1.69c0.24,0.2,0.61,0.14,0.71-0.19C166.17,143.49,165.93,142.81,165.69,142.18z"/>
			<path class="st1" d="M113.38,200.55c-2.02-0.43-4.12,0.19-6.14,0.5c-2.59,0.39-5.28,0.8-7.73,1.73c-0.25,0.1-0.2,0.43,0.06,0.46
				c2.33,0.24,4.77,0.01,7.09-0.32c2.26-0.32,4.85-0.34,6.84-1.51C113.83,201.21,113.79,200.63,113.38,200.55z"/>
			<path class="st1" d="M116.96,200.14c-0.38-0.38-1.07-0.43-1.54-0.22c-0.29,0.13-0.95,0.54-0.69,0.96
				c0.48,0.78,1.93,0.59,2.3-0.23C117.11,200.48,117.1,200.29,116.96,200.14z"/>
			<path class="st1" d="M121.35,202.65c-1.31-0.39-2.82,0.41-4.04,0.88c-1.1,0.43-2.46,0.68-3.16,1.69
				c-0.06,0.09,0.01,0.21,0.1,0.24c1.18,0.41,2.57-0.22,3.72-0.53c1.18-0.32,2.79-0.57,3.57-1.57
				C121.73,203.11,121.68,202.75,121.35,202.65z"/>
			<path class="st1" d="M123.3,201.84c-0.54-0.14-1.03,0.19-1.45,0.49c-0.25,0.17-0.16,0.56,0.15,0.57
				c0.51,0.02,1.11,0.05,1.49-0.35C123.7,202.32,123.61,201.93,123.3,201.84z"/>
			<path class="st1" d="M157.47,214.52c-1.02,0.27-1.66,0.81-2.47,1.45c-1.23,0.98-2.7,1.63-3.95,2.58
				c-1.88,1.42-3.89,3.56-4.76,5.78c-0.09,0.23,0.22,0.45,0.41,0.32c2.52-1.7,4.69-3.83,7.31-5.43c1.82-1.1,3.69-2.07,3.85-4.4
				C157.87,214.62,157.65,214.48,157.47,214.52z"/>
			<path class="st1" d="M160.49,210.82c-0.38-0.22-0.93-0.1-1.14,0.3c-0.23,0.43-0.41,0.85-0.51,1.32c-0.13,0.68,0.6,1.08,1.12,0.65
				c0.38-0.31,0.63-0.68,0.82-1.14C160.97,211.55,160.92,211.07,160.49,210.82z"/>
			<path class="st1" d="M163.06,221.16c-0.49,1.07-0.48,2.21-0.57,3.37c-0.09,1.21-0.18,2.29,0.23,3.44
				c0.05,0.14,0.22,0.15,0.3,0.04c0.67-0.92,0.92-1.89,1.21-2.98c0.29-1.1,0.76-2.22,0.69-3.36
				C164.86,220.76,163.5,220.19,163.06,221.16z"/>
			<path class="st1" d="M164.67,216.46c-0.09-0.11-0.31-0.14-0.43-0.06c-0.61,0.47-0.55,1.32-0.58,2.01
				c-0.01,0.19,0.11,0.39,0.28,0.49c0.09,0.05,0.19,0.13,0.3,0.1c0.05-0.01,0.09-0.03,0.14-0.04c0.18-0.05,0.36-0.2,0.39-0.39
				C164.9,217.89,165.16,217.04,164.67,216.46z"/>
			<g>
				<g>
					<path class="st9" d="M124.66,157.74c-3.98,0.66-8.23,0.36-11.63-2.02c-0.06-0.04-0.02-0.13,0.05-0.11
						c3.48,0.68,6.82,1.15,10.32,0.55c-5.06-6.7-8.18-15.54-6.9-23.76c-0.05,0-0.11,0-0.16-0.01c-1.15,1.47-3.02,2.48-4.51,3.59
						c-0.93,0.69-2.1,1.96-3.33,2.31c1.15,1.9,2.47,3.77,4.02,5.68c0.75,0.46,1.45,0.94,2.07,1.42c0.32,0.25,0.32,0.9,0,1.15
						c-4.58,3.61-10.1,3.5-15.19,0.82c-0.24-0.13-0.06-0.43,0.17-0.4c4.67,0.68,8.85,1.43,12.98-1.01
						c-3.72-2.43-8.5-4.04-12.77-4.73c-1.57-0.26-3.14-0.42-4.73-0.32c-1.29,0.19-2.78,0.11-3.94,0.74
						c-0.49,0.26-0.92,0.66-1.13,1.17c-0.15,0.38-0.16,0.78-0.1,1.19c3.49,6.03,8,10.03,14.54,13.2c6.77,3.29,14.16,3.56,21.34,1.78
						C125.39,158.58,125.02,158.16,124.66,157.74C124.67,157.74,124.66,157.74,124.66,157.74z"/>
					<path class="st9" d="M106.44,126.61c-0.97-1.43-1.92-2.99-2.51-2.16c0.47,4.91,1.8,8.96,3.95,12.8
						c0.69-1.04,2.14-1.82,3.02-2.49c1.05-0.81,2.16-1.82,3.35-2.56c-1.71-0.33-3.28-1.07-4.69-2.16
						C108.32,129.08,107.31,127.9,106.44,126.61z"/>
					<path class="st9" d="M139.98,177.99c-0.44,0.39-1.13,0.24-1.3-0.34c-0.32-1.07-0.63-2.15-0.95-3.22
						c-0.17,0.14-0.35,0.28-0.53,0.42c-1.37,5.69-2.48,12.11-4.99,17.41c-1.67,3.53-4.71,5.08-8.32,6.2
						c-9.83,3.03-20.69,1.05-30.01,5.39c1.85-0.02,3.61,0.48,4.2,2.28c0.31,0.95,0.14,1.82-0.32,2.62
						c8.86-3.81,18.35-6.38,27.66-8.54c0.33-0.08,0.45,0.39,0.14,0.5c-9.98,3.57-20.15,6.27-29.73,10.7
						c8.76-1.22,19.25,0.67,19.11,9.94c5.53-5.98,11.7-11.42,17.57-17.05c3.46-3.32,4.52-3.78,4.93-9.67
						c0.05-0.74-0.04-1.5,0.06-2.25c0.62-4.93,3.14-10.06,4.73-14.76c-0.2-0.42-0.39-0.84-0.57-1.27
						C141.11,176.91,140.57,177.46,139.98,177.99z"/>
					<path class="st9" d="M144.71,83.52c1.77-0.26,3.51-0.69,5.28-0.93c1.09-0.14,2.22-0.34,3.32-0.31
						c1.04,0.03,2.09,0.13,3.13-0.12c0.96-0.23,1.9-0.87,2.14-1.82c0.1-0.39,0.07-0.8-0.05-1.18c-0.07-0.22-0.25-0.45-0.4-0.67
						c-2.32-1.72-5.44-1.59-7.97-3.19c-1.92-1.22-2.92-3.21-4.15-5.03c-0.67-0.47-1.43-0.67-2.23-0.24
						c-0.83,0.45-1.56,1.01-2.45,1.35c-0.8,0.3-1.67,0.52-2.52,0.49c-1.19,0.14-2.48,0.01-4.09-0.4c-4.18-1.08-8.08-1.56-11.57,1.68
						c-2.04,1.89-2.91,4.29-3.78,6.77c-0.11,1.16,0.62,0.45,2.98-0.56c2.44-1.05,5.11-1.46,7.75-1.49
						c8.19-0.11,15.97,3.02,24.14,0.46c0.83-0.26,1.18,1.04,0.36,1.3c-8.07,2.52-16.55-0.36-24.58-0.13
						C134.82,82.61,138.54,84.43,144.71,83.52z M145.4,75.35c-0.52,0.21-1.04,0.08-1.56-0.04c-0.46-0.11-0.88-0.26-1.13-0.68
						c-0.12-0.19-0.01-0.5,0.22-0.54c0.34-0.06,0.67,0.03,1.01-0.03c0.34-0.06,0.68-0.31,1-0.44c0.45-0.18,0.98,0.2,1.1,0.62
						C146.16,74.75,145.85,75.16,145.4,75.35z"/>
					<path class="st9" d="M165.2,181.16c-0.36,0.58-1.15,0.41-1.38-0.18c-0.27-0.69-0.53-1.38-0.8-2.07
						c-0.2,0.3-0.42,0.59-0.63,0.87c1.04,8.75,2.92,20.7-1.44,28.69c-4.27,7.84-14.44,10.75-17.58,19.14
						c3.17-2.04,7.21-1.64,10.86-0.15c2.87,1.17,4.39,2.99,5.26,5.32c0.32-2.29,0.99-4.58,1.37-6.83c0.65-3.8,0.98-7.73,1.95-11.45
						c0.04-0.15,0.25-0.11,0.26,0.04c0.24,3.64-0.31,7.34-0.81,10.94c-0.32,2.32-0.5,4.84-1.06,7.19
						c4.14-5.55,12.02-6.79,17.85-2.31c-0.87-4.85-2.84-9.15-5.9-13.15c-2.11-2.75-4.15-5.2-5.1-8.61
						c-2.27-8.15-0.45-18.18,0.65-26.41c-0.94-0.89-1.55-2.05-2.39-3.06C165.98,179.83,165.61,180.49,165.2,181.16z"/>
					<path class="st9" d="M124.45,111.98c-4.08-4.23-10.26-3.43-14.89-0.71c-0.81,0.48-1.42-0.56-0.93-1.2
						c0.63-0.82,1.23-1.63,1.82-2.44c1.65-3.29,3.13-6.37,2.52-10.4c-0.96-6.37-5.8-10.15-12.21-9.48
						c-5.83,0.61-10.56,4.99-10.85,11.05c-0.21,4.33,2.2,7.14,4.27,10.45c0.23,0.27,0.44,0.55,0.68,0.81
						c0.6,0.66-0.15,1.61-0.94,1.21c-5.53-2.79-12.37-3.79-16.24,2.39c-3.28,5.22-0.87,12.64,4.22,15.66
						c5.19,3.08,11.8,0.73,14.84-4.35c0.48-0.8,0.84-3.22,2.21-3.47c0.32-0.06,0.58,0.04,0.78,0.32c0.21,0.3,0.36,0.66,0.47,1.03
						c0.91,2.1,0.18,4.97-0.16,7.13c-0.14,0.89-0.33,1.84-0.57,2.78c0.25,0.11,0.39,0.33,0.43,0.58c0.36,0.3,0.46,0.9,0.13,1.27
						c0.27,0.37,0.21,1.02-0.19,1.32c0.27,0.37,0.21,0.94-0.19,1.24c0.04,0,0.08,0,0.12,0.01c1.09,0.14,1.1,1.88,0,1.74
						c-1.06-0.14-2.11-0.12-3.15-0.03c-0.05,0.05-0.09,0.12-0.13,0.17c4.24-0.02,8.99,1.34,12.95,3.23
						c-4.17-4.78-7.26-11.91-6.52-17.83c-0.11-1.26,0.01-2.54,1.12-3.04c0.18-0.08,0.42-0.09,0.57,0.07
						c1.82,2.03,2.66,4.73,4.73,6.67c2.11,1.97,4.87,2.87,7.62,2.79c0.08-0.03,0.16-0.03,0.24-0.01c3.01-0.15,5.96-1.49,7.96-3.98
						C128.19,123.16,127.68,115.33,124.45,111.98z"/>
					<path class="st9" d="M135.53,174.29c0.7-0.56,1.39-1.14,2.07-1.73c0.43-0.38,1.1-0.23,1.27,0.34c0.31,1.03,0.63,2.05,0.94,3.08
						c0.52-0.53,1.03-1.08,1.51-1.66c0.41-0.5,1.13-0.15,1.32,0.35c0.29,0.78,0.63,1.52,0.99,2.26c0.87-1.96,1.63-3.96,2.28-6
						c-3.63-1.1-7.14-2.54-10.43-4.39C136.08,168.96,135.84,171.77,135.53,174.29z"/>
					<path class="st9" d="M164.47,152.03c-6.43-9.89-11.18-25.87-6.13-37.44c1.26-3.91,3.66-7.61,7.74-7.51
						c6.57,0.16,11.77,9.34,15.24,13.91c3.3,4.36,6.67,8.68,10.38,12.7c2.21,2.39,6.53,4.96,7.87,7.93c1.39,3.07-1.21,4.49-3.76,4.3
						c0.92,0.65,1.88,1.27,2.9,1.84c0.57,0.31,1.15,0.61,1.73,0.91c2.58-4.78,4.35-9.71,5.47-14.94c-1.38,1.8-2.86,3.51-4.53,5.11
						c-0.39,0.38-1.01-0.1-0.75-0.58c2.9-5.22,4.27-11.35,3.65-17.29c-0.88,2.46-2.1,4.82-4.1,6.34c-0.05,0.09-0.09,0.17-0.15,0.26
						c-0.12,0.19-0.34,0.13-0.41-0.03c-0.09-0.07-0.15-0.18-0.13-0.3c0.07-0.35,0.17-0.7,0.28-1.04c0.76-5.15,1.24-9.92-0.01-14.88
						c-1.06,3.72-2.42,7.26-4.27,10.67c-0.45,1.32-1.08,2.61-1.93,3.82c-0.1,0.15-0.35,0.06-0.3-0.13c0.15-0.52,0.29-1.05,0.42-1.57
						c0-0.03-0.02-0.06,0-0.1c0.03-0.07,0.05-0.13,0.07-0.2c0.81-3.35,1.18-6.72,0.67-10.12c-1.41,3.07-2.87,6.08-4.78,8.89
						c-0.29,0.42-1.09,0.16-0.88-0.37c0.52-1.31,0.64-2.73,0.37-4.09c-0.68,1.24-1.5,2.38-2.6,3.29c-0.16,0.42-0.7,0.69-1.14,0.28
						c-7.01-6.55-12.82-12.88-15.51-22.29c-1.58-5.53-2.25-11.45-2.21-17.34c-0.17-3.54-0.08-7.09,0.29-10.79
						c0.33-3.39,1.17-6.91,1.15-10.31c-0.02-3.62-3.5-7.94-6.56-10.05c-4.23-2.91-8.89-0.91-13.17,0.53
						c-3.47,1.17-7.86,2.38-10.75,4.71c-3.2,2.57-0.72,5.24-0.02,8.56c0.42,2.01,0.3,3.92-0.2,5.85c1.54-0.03,2.64-0.48,3.89-0.92
						c-0.54-0.5-0.6-1.49-0.6-2.19c0-1.12,0.22-2.4,1.35-2.93c1.04-0.49,2.01,0.15,2.41,1.14c0.26,0.65,0.47,1.85,0.14,2.63
						c0.6,0.18,1.06,0.65,1.41,1.23c0.24,0.23,0.45,0.52,0.69,0.85c1.73,2.46,3.05,4.11,6.14,4.89c1.95,0.49,4.39,0.97,5.48,2.58
						c1.05,0.87,1.31,2.7,0.71,3.82c-1.37,2.58-5.16,2.07-7.47,2.22c-4.56,0.29-9.51,1.52-13.99,1.19
						c-1.14,9.3-8.1,18.84-13.69,25.94c3.17,3.16,4.53,8.25,2.54,14.03c-1.58,4.58-5.22,7.01-9.81,7.31
						c0.7,10.49,2.97,19.85,11.08,27.36c8.27,7.66,19.28,10.97,30.23,12.34c0.49,0.06,0.73,0.48,0.73,0.86
						c1.25,1.26,1.49,3.96,1.58,6.07c0.49-0.68,0.92-1.39,1.32-2.16c0.32-0.62,1.16-0.38,1.37,0.18c0.26,0.68,0.52,1.35,0.78,2.03
						c0.28-0.51,0.54-1.03,0.79-1.58c0.22-0.47,0.85-0.44,1.18-0.15c1.19,1.04,1.84,2.62,2.97,3.68c0.77-3.86,1.78-8.85,4.41-11.62
						c0.21-0.23,0.69-0.07,0.65,0.27c-0.09,0.8-0.3,1.56-0.57,2.32c1.21-0.83,2.65-1.48,3.58-1.91c1.57-0.72,3.18-1.36,4.71-2.17
						c0.49-0.26,0.97-0.61,1.45-0.92C175.94,164.67,168.79,158.68,164.47,152.03z M145.63,61.59c-0.04,0.13-0.17,0.17-0.29,0.12
						c-0.94-0.41-1.56-1.29-2.53-1.65c-1.43-0.52-2.24,0.41-3.42,0.98c-0.08,0.04-0.17-0.02-0.15-0.11
						c0.42-1.56,1.88-2.68,3.53-2.43C144.11,58.7,146.16,60,145.63,61.59z M154.76,71.18c-2.55-1.17-1.69-5.93,0.64-7.01
						c1.06-0.78,2.64-0.77,3.38,0.46C160.07,66.79,157.85,72.6,154.76,71.18z M158.22,56.68c-1.68-0.42-2.79,0.16-4.06,0.78
						c-0.34,0.21-0.68,0.42-1.05,0.64c-0.4,0.23-0.83-0.23-0.62-0.62c0.76-1.41,1.35-2.64,2.88-3.33c1.1-0.5,2.35-0.52,3.49-0.17
						c2.94,0.91,3.95,3.89,4.23,6.67c0.06,0.57-0.81,0.64-0.96,0.13C161.58,58.84,160.24,57.18,158.22,56.68z"/>
					<path class="st9" d="M186.81,147.05c5.45,2.99,10.68,6.17,16.12,9.07c1.24-0.89,2.92-1.62,1.9-2.83
						c-0.52-0.61-2.04-0.93-2.81-1.33c-1.91-0.99-3.72-2.16-5.43-3.46c-3.6-2.74-7.1-5.82-9.2-9.89c-0.1-0.2,0.16-0.42,0.32-0.25
						c1.44,1.62,2.93,3.2,4.53,4.66c0.66,0.6,1.62,1.78,2.51,1.84c0.66,0.05,1.88-0.63,2.33-1.09c1.54-1.57-0.74-2.87-1.79-3.79
						c-1.71-1.59-3.36-3.23-4.94-4.95c-3.18-3.43-6.09-7.09-8.95-10.79c-2.77-3.6-5.35-7.43-8.49-10.71
						c-3.26-3.4-7.57-7.79-12.48-0.99c-0.36,0.49-0.66,1.06-0.93,1.66c-2.16,12.4-1.06,24.49,5.64,35.61
						c6.4,10.64,16.37,16.17,28.18,16c-5.99-1.41-12.02-5.12-14.75-8.65c-0.07-0.09,0.02-0.24,0.13-0.17
						c7.83,4.3,14.74,8.85,23.39,6.67c-1.22-0.14-2.51-0.47-3.97-0.98c-4.79-1.66-9.46-4.31-12.76-8.21
						c-0.11-0.13,0.03-0.35,0.19-0.25c5.64,3.84,14.5,10.09,21.38,6.29c-7.18-3.48-14.57-7.74-20.3-13.24
						C186.52,147.16,186.68,146.97,186.81,147.05z"/>
					<path d="M155.4,64.17c-2.33,1.08-3.19,5.84-0.64,7.01c3.09,1.42,5.32-4.39,4.02-6.56C158.04,63.4,156.46,63.39,155.4,64.17z"/>
					<path d="M144.93,73.63c-0.32,0.13-0.66,0.38-1,0.44c-0.33,0.06-0.67-0.03-1.01,0.03c-0.23,0.04-0.33,0.35-0.22,0.54
						c0.26,0.42,0.67,0.57,1.13,0.68c0.52,0.12,1.04,0.25,1.56,0.04c0.45-0.18,0.76-0.59,0.62-1.1
						C145.91,73.83,145.38,73.45,144.93,73.63z"/>
					<path d="M142.77,58.5c-1.64-0.25-3.11,0.86-3.53,2.43c-0.02,0.09,0.07,0.15,0.15,0.11c1.18-0.57,1.99-1.5,3.42-0.98
						c0.97,0.35,1.59,1.24,2.53,1.65c0.12,0.05,0.24,0.01,0.29-0.12C146.16,60,144.11,58.7,142.77,58.5z"/>
					<path d="M162.14,60.78c0.15,0.51,1.02,0.44,0.96-0.13c-0.28-2.78-1.28-5.75-4.23-6.67c-1.15-0.35-2.4-0.33-3.49,0.17
						c-1.53,0.69-2.12,1.92-2.88,3.33c-0.21,0.39,0.22,0.85,0.62,0.62c0.36-0.21,0.71-0.43,1.05-0.64c1.27-0.62,2.38-1.2,4.06-0.78
						C160.24,57.18,161.58,58.84,162.14,60.78z"/>
					<path d="M209.59,159.43c-1.84-0.84-3.63-1.73-5.39-2.65c1.51-0.44,2.79-1.34,3.67-2.72c0.21-0.33,0.19-0.78,0-1.12
						c-0.7-1.24-1.75-1.49-3.05-2.1c-0.97-0.45-1.94-0.92-2.9-1.4c3.24-5.96,5.41-12.26,6.32-19.01c0.12-0.92-0.99-1.52-1.56-0.66
						c-0.27,0.41-1.02,1.43-1.84,2.59c0.13-0.37,0.24-0.69,0.3-0.89c1.44-4.83,1.24-9.8,0.27-14.68c-0.19-0.93-1.53-0.82-1.78,0
						c-0.31,1.04-0.73,2.05-1.18,3.05c0.31-3.99-0.54-8.14-1.95-11.8c-0.28-0.73-1.43-0.89-1.64,0c-0.71,2.93-1.58,5.82-2.55,8.67
						c-0.01-1.92-0.31-3.87-0.84-5.8c-0.17-0.62-1.17-0.84-1.47-0.19c-1.07,2.35-1.96,5.01-3.07,7.49
						c-0.08-0.95-0.37-1.92-0.88-2.94c-0.29-0.58-1.33-0.63-1.61,0c-0.74,1.69-1.77,3.2-2.63,4.8c-6.2-6.83-11.81-12.71-14.28-22
						c-1.97-7.41-1.81-14.89-2.15-22.41c0.37-4.85,1.44-9.6,1.81-14.42c0.18-2.33-0.36-4.3-1.82-6.12
						c-1.92-2.39-5.35-6.45-8.39-7.36c-2.93-0.88-6.77,0.68-9.55,1.5c-3.88,1.15-7.65,2.64-11.27,4.45
						c-1.53,0.76-5.43,2.09-5.75,4.22c-0.1,0.7,0.52,1.46,0.78,2.05c1.58,3.62,2.69,6.57,2.23,10.54c-0.25-0.02-0.5-0.05-0.77-0.09
						c-1.55-0.24-3.02-0.99-4.55-1.32c-2.24-0.48-4.19-0.45-6.27,0.59c-3.46,1.73-6.6,5.51-7.22,9.47
						c-0.24,0.94-0.32,1.93-0.33,3.03c0,0.42,0.51,0.75,0.88,0.5c3.09-2.08,6.34-2.93,9.66-3.17c2.34,3.51,5.35,4.96,8.65,5.41
						c-3.26,9.17-7.58,17.4-13.66,25.09c-0.01,0.01-0.01,0.02-0.01,0.03c-3.16-2.44-7.62-3.21-12.3-1.43
						c0.39-0.62,0.73-1.26,1.04-1.92c2.27-3.74,2.95-8.14,1.37-12.62c-1.95-5.54-6.71-8.35-12.46-8.05
						c-5.23,0.27-10.02,3.22-12.07,8.16c-2.04,4.91-0.7,9.77,2.32,13.63c0.16,0.32,0.32,0.64,0.49,0.95
						c-4.64-1.87-9.29-2.23-13.51,1.46c-3.97,3.47-5.01,8.88-3.08,13.75c2.05,5.18,6.41,8.73,12.09,8.27
						c2.63-0.21,5.16-1.21,7.21-2.87c0.88-0.71,1.66-1.52,2.33-2.43c0.69-0.94,1.31-3.51,2.18-2.49c0.03,0.96-0.04,1.93-0.06,2.15
						c-0.06,0.67-0.13,1.35-0.21,2.02c-1.82-0.69-4.53,1.35-5.72,2.5c-1.75,1.68-3.65,4.23-3.43,6.74c0,0.01,0.01,0.02,0.01,0.03
						c-1.04,1.58-1.69,3.33-1.69,5.02c0,0.07,0.04,0.11,0.08,0.15c-0.09,1.16,0.45,2.45,1.31,3.7c2.24,5.42,9.18,10.03,13.64,12.26
						c7.4,3.71,16.18,4.21,23.95,1.45c2.17,2.06,4.52,3.83,7.02,5.33c-0.52,3.2-0.01,6.7-0.45,9.93c-0.07,0.55,0.5,1.27,1.09,0.84
						c0.15-0.11,0.29-0.24,0.44-0.35c-1.1,4.56-2.23,9.17-3.8,13.57c-2.65,7.39-11.04,8.33-17.9,8.94
						c-8.35,0.74-16.8,0.88-23.96,5.8c-0.62,0.43-0.26,1.52,0.54,1.27c0.06-0.04,0.1-0.06,0.17-0.07c0.11-0.08,0.23-0.15,0.34-0.22
						c1.2-0.66,2.73-0.7,3.96-0.05c0.82,0.44,1.46,1.23,1.61,2.15c0.32,1.95-1.2,2.23-2.55,2.87c-1.74,0.83-3.44,1.73-5.11,2.69
						c-0.78,0.44-0.25,1.84,0.63,1.49c8.59-3.41,24.6-3.81,23.52,9.26c-0.08,0.95,1.2,1.11,1.66,0.45
						c5.8-8.44,15.27-14.67,22.3-22.07c2-2.1,2.52-3.49,2.47-6.34c-0.1-5.84,2.09-11.18,3.98-16.63c0.36,0.22,0.9,0.17,1.1-0.25
						c1.2-2.53,2.22-5.11,3.07-7.77c3.76,1.04,7.63,1.76,11.49,2.24c0.01,0,0.02,0,0.04,0c0.95,1.83,0.87,5.91,0.96,7.29
						c0.04,0.57,0.76,0.97,1.19,0.49c0.17-0.18,0.31-0.36,0.47-0.55c0.66,10.42,2.67,23.7-5.33,31.42
						c-5.64,5.44-13.45,9.02-15,17.42c-0.12,0.67,0.73,1.37,1.27,0.74c2.63-3.09,6.35-3.07,9.95-1.94c4.52,1.43,6.03,4.76,6.49,9.05
						c0.09,0.84,1.3,1.13,1.56,0.21c2.43-8.85,12.73-11.41,19.1-4.76c0.44,0.46,1.43,0.14,1.35-0.56c-0.37-3.28-1.08-6.44-2.43-9.47
						c-1.78-4.01-4.73-6.81-7.03-10.45c-5.04-7.98-2.38-20.35-1.47-29.45c0.37,0.05,0.77-0.13,0.85-0.52
						c0.49-2.37,1.09-4.7,1.87-6.99c0.1-0.3,0.21-0.59,0.33-0.89c0.66-0.38,1.2-0.94,1.97-1.35c1.51-0.8,3.11-1.46,4.67-2.16
						c1.72-0.76,5.22-1.78,6.4-3.62c3.75,0.73,7.63,0.61,11.43-0.7c0.2-0.07,0.32-0.22,0.38-0.4c3.2,0.02,6.12-0.87,8.18-3.11
						c0.02-0.02,0.02-0.04,0.04-0.06c1.19-0.42,2.39-1.11,3.67-2.13C210.32,160.7,210.18,159.7,209.59,159.43z M130.02,79.49
						c8.03-0.23,16.51,2.65,24.58,0.13c0.82-0.26,0.47-1.56-0.36-1.3c-8.17,2.56-15.95-0.57-24.14-0.46
						c-2.64,0.04-5.31,0.44-7.75,1.49c-2.36,1.02-3.09,1.72-2.98,0.56c0.87-2.48,1.74-4.88,3.78-6.77c3.49-3.23,7.4-2.76,11.57-1.68
						c1.61,0.42,2.9,0.54,4.09,0.4c0.85,0.03,1.73-0.19,2.52-0.49c0.89-0.34,1.62-0.89,2.45-1.35c0.79-0.44,1.56-0.23,2.23,0.24
						c1.23,1.82,2.23,3.81,4.15,5.03c2.53,1.6,5.65,1.47,7.97,3.19c0.15,0.22,0.34,0.44,0.4,0.67c0.12,0.38,0.15,0.79,0.05,1.18
						c-0.24,0.95-1.18,1.59-2.14,1.82c-1.04,0.25-2.09,0.15-3.13,0.12c-1.11-0.03-2.23,0.17-3.32,0.31
						c-1.77,0.23-3.51,0.67-5.28,0.93C138.54,84.43,134.82,82.61,130.02,79.49z M98.95,121.5c-1.37,0.25-1.73,2.67-2.21,3.47
						c-3.03,5.08-9.65,7.43-14.84,4.35c-5.1-3.02-7.5-10.44-4.22-15.66c3.88-6.18,10.72-5.17,16.24-2.39
						c0.78,0.39,1.54-0.55,0.94-1.21c-0.24-0.26-0.45-0.54-0.68-0.81c-2.07-3.31-4.48-6.12-4.27-10.45
						c0.29-6.06,5.03-10.45,10.85-11.05c6.42-0.67,11.25,3.11,12.21,9.48c0.61,4.03-0.87,7.11-2.52,10.4
						c-0.59,0.81-1.19,1.63-1.82,2.44c-0.5,0.64,0.12,1.68,0.93,1.2c4.63-2.72,10.8-3.51,14.89,0.71
						c3.24,3.35,3.74,11.17,0.69,14.98c-1.99,2.48-4.95,3.83-7.96,3.98c-0.08-0.02-0.17-0.02-0.24,0.01
						c-2.74,0.08-5.51-0.82-7.62-2.79c-2.08-1.94-2.91-4.64-4.73-6.67c-0.15-0.17-0.38-0.16-0.57-0.07
						c-1.11,0.5-1.23,1.79-1.12,3.04c-0.4,3.22,0.34,6.8,1.76,10.16c-1.55-1.26-3.27-2.14-5.09-2.29c0.19-0.8,0.35-1.6,0.47-2.35
						c0.33-2.16,1.07-5.03,0.16-7.13c-0.11-0.38-0.26-0.73-0.47-1.03C99.53,121.55,99.27,121.44,98.95,121.5z M108.19,136.84
						c-0.12,0.13-0.23,0.27-0.32,0.41c-1.21-2.16-2.15-4.39-2.83-6.8c0.76,0.61,1.56,1.14,2.26,1.84c0.55,0.55,1.68,1.5,1.86,2.27
						C109.35,135.41,108.71,136.13,108.19,136.84z M110.89,134.76c0,0-0.01,0.01-0.01,0.01c-0.05-0.33-0.16-0.67-0.34-1.01
						c-1.06-1.92-3.46-4.18-5.58-4.83c-0.1-0.03-0.2-0.02-0.31,0c-0.33-1.42-0.58-2.91-0.73-4.49c0.6-0.82,1.54,0.74,2.51,2.16
						c0.88,1.29,1.88,2.47,3.12,3.43c1.41,1.09,2.98,1.83,4.69,2.16C113.05,132.93,111.93,133.95,110.89,134.76z M94.49,133.08
						c0.87-0.94,1.93-1.72,3.07-2.3c0.49-0.25,0.94-0.37,1.34-0.59c-0.12,0.68-0.25,1.35-0.42,2.02c-0.01,0.04-0.02,0.08-0.04,0.12
						c-0.03,0-0.06,0-0.09,0c-1.64,0.17-3.32,0.89-4.83,1.95C93.83,133.87,94.14,133.45,94.49,133.08z M97.9,135.09
						c5.08-1.65,7.49,2.44,10.29,5.66c0.4,0.53,0.81,1.05,1.24,1.54c-3.96-1.89-8.7-3.25-12.95-3.23c0.05-0.05,0.09-0.12,0.13-0.17
						c-0.44,0.04-0.88,0.08-1.32,0.14c-0.01,0.02-0.03,0.05-0.04,0.07c-1.3,0.1-2.54,0.34-3.68,0.76
						C93.4,137.83,95.38,135.91,97.9,135.09z M104.43,157.2c-6.54-3.17-11.05-7.16-14.54-13.2c-0.06-0.4-0.05-0.81,0.1-1.19
						c0.2-0.51,0.64-0.91,1.13-1.17c1.17-0.63,2.65-0.55,3.94-0.74c1.6-0.11,3.16,0.06,4.73,0.32c4.27,0.69,9.05,2.3,12.77,4.73
						c-4.13,2.43-8.31,1.69-12.98,1.01c-0.22-0.03-0.41,0.27-0.17,0.4c5.09,2.69,10.61,2.8,15.19-0.82c0.32-0.25,0.32-0.9,0-1.15
						c-0.62-0.48-1.32-0.96-2.07-1.42c-1.55-1.91-2.87-3.78-4.02-5.68c1.23-0.35,2.4-1.62,3.33-2.31c1.49-1.11,3.36-2.12,4.51-3.59
						c0.05,0,0.11,0.01,0.16,0.01c-1.28,8.22,1.84,17.06,6.9,23.76c-3.5,0.6-6.84,0.13-10.32-0.55c-0.07-0.01-0.11,0.07-0.05,0.11
						c3.4,2.38,7.65,2.68,11.63,2.02c0,0,0,0,0,0c0.36,0.43,0.73,0.84,1.1,1.25C118.59,160.76,111.2,160.49,104.43,157.2z
						 M137.47,192.36c-0.09,0.74,0,1.51-0.06,2.25c-0.41,5.88-1.47,6.35-4.93,9.67c-5.86,5.63-12.04,11.08-17.57,17.05
						c0.14-9.27-10.35-11.16-19.11-9.94c9.58-4.43,19.75-7.13,29.73-10.7c0.31-0.11,0.19-0.57-0.14-0.5
						c-9.31,2.17-18.79,4.74-27.66,8.54c0.46-0.79,0.63-1.67,0.32-2.62c-0.59-1.8-2.36-2.31-4.2-2.28
						c9.32-4.33,20.19-2.36,30.01-5.39c3.62-1.12,6.65-2.67,8.32-6.2c2.51-5.3,3.63-11.72,4.99-17.41c0.17-0.14,0.36-0.27,0.53-0.42
						c0.32,1.07,0.63,2.15,0.95,3.22c0.17,0.58,0.87,0.74,1.3,0.34c0.59-0.53,1.13-1.08,1.65-1.65c0.18,0.43,0.37,0.85,0.57,1.27
						C140.62,182.3,138.09,187.43,137.47,192.36z M143.62,176.92c-0.36-0.73-0.7-1.48-0.99-2.26c-0.19-0.5-0.91-0.85-1.32-0.35
						c-0.48,0.59-0.99,1.13-1.51,1.66c-0.31-1.03-0.63-2.05-0.94-3.08c-0.17-0.57-0.84-0.71-1.27-0.34
						c-0.68,0.59-1.37,1.17-2.07,1.73c0.31-2.53,0.55-5.33-0.05-7.77c3.29,1.85,6.8,3.29,10.43,4.39
						C145.24,172.96,144.49,174.96,143.62,176.92z M168.06,208.62c0.95,3.41,2.99,5.86,5.1,8.61c3.06,4,5.03,8.3,5.9,13.15
						c-5.83-4.48-13.7-3.24-17.85,2.31c0.56-2.36,0.74-4.87,1.06-7.19c0.5-3.6,1.05-7.3,0.81-10.94c-0.01-0.14-0.22-0.19-0.26-0.04
						c-0.97,3.72-1.3,7.65-1.95,11.45c-0.39,2.25-1.05,4.54-1.37,6.83c-0.87-2.33-2.39-4.15-5.26-5.32
						c-3.65-1.49-7.7-1.9-10.86,0.15c3.14-8.4,13.31-11.31,17.58-19.14c4.35-7.99,2.47-19.93,1.44-28.69
						c0.21-0.29,0.43-0.57,0.63-0.87c0.27,0.69,0.53,1.38,0.8,2.07c0.23,0.59,1.01,0.76,1.38,0.18c0.42-0.67,0.78-1.33,1.12-2.01
						c0.84,1.01,1.44,2.17,2.39,3.06C167.61,190.44,165.79,200.46,168.06,208.62z M182.41,167.89c-1.53,0.81-3.14,1.44-4.71,2.17
						c-0.93,0.43-2.37,1.08-3.58,1.91c0.27-0.76,0.48-1.52,0.57-2.32c0.04-0.34-0.44-0.5-0.65-0.27c-2.62,2.77-3.63,7.76-4.41,11.62
						c-1.13-1.06-1.78-2.64-2.97-3.68c-0.33-0.29-0.97-0.32-1.18,0.15c-0.25,0.55-0.51,1.07-0.79,1.58
						c-0.26-0.68-0.52-1.35-0.78-2.03c-0.21-0.55-1.05-0.8-1.37-0.18c-0.4,0.76-0.83,1.47-1.32,2.16c-0.09-2.1-0.32-4.8-1.58-6.07
						c0-0.38-0.24-0.8-0.73-0.86c-10.96-1.37-21.97-4.68-30.23-12.34c-8.1-7.51-10.37-16.87-11.08-27.36
						c4.59-0.31,8.23-2.73,9.81-7.31c1.99-5.78,0.62-10.87-2.54-14.03c5.6-7.11,12.55-16.64,13.69-25.94
						c4.48,0.33,9.43-0.9,13.99-1.19c2.31-0.14,6.1,0.36,7.47-2.22c0.59-1.12,0.34-2.95-0.71-3.82c-1.08-1.61-3.53-2.09-5.48-2.58
						c-3.09-0.78-4.41-2.42-6.14-4.89c-0.24-0.34-0.45-0.62-0.69-0.85c-0.35-0.58-0.81-1.05-1.41-1.23
						c0.33-0.78,0.12-1.99-0.14-2.63c-0.4-0.99-1.37-1.63-2.41-1.14c-1.13,0.53-1.35,1.81-1.35,2.93c0,0.7,0.06,1.69,0.6,2.19
						c-1.25,0.44-2.35,0.89-3.89,0.92c0.5-1.93,0.63-3.83,0.2-5.85c-0.7-3.32-3.18-5.99,0.02-8.56c2.89-2.32,7.28-3.54,10.75-4.71
						c4.28-1.44,8.94-3.44,13.17-0.53c3.06,2.11,6.54,6.43,6.56,10.05c0.01,3.4-0.82,6.93-1.15,10.31
						c-0.36,3.7-0.45,7.25-0.29,10.79c-0.04,5.88,0.63,11.81,2.21,17.34c2.69,9.41,8.5,15.74,15.51,22.29
						c0.44,0.41,0.98,0.14,1.14-0.28c1.1-0.91,1.92-2.05,2.6-3.29c0.27,1.36,0.15,2.78-0.37,4.09c-0.21,0.53,0.59,0.79,0.88,0.37
						c1.91-2.81,3.38-5.82,4.78-8.89c0.52,3.39,0.14,6.77-0.67,10.12c-0.03,0.07-0.05,0.13-0.07,0.2c-0.02,0.04,0,0.07,0,0.1
						c-0.13,0.52-0.27,1.05-0.42,1.57c-0.05,0.19,0.2,0.27,0.3,0.13c0.86-1.21,1.49-2.5,1.93-3.82c1.84-3.41,3.21-6.94,4.27-10.67
						c1.25,4.96,0.77,9.73,0.01,14.88c-0.1,0.34-0.2,0.69-0.28,1.04c-0.02,0.12,0.04,0.23,0.13,0.3c0.08,0.16,0.3,0.22,0.41,0.03
						c0.05-0.08,0.1-0.17,0.15-0.26c2-1.52,3.22-3.88,4.1-6.34c0.61,5.94-0.75,12.07-3.65,17.29c-0.26,0.47,0.35,0.95,0.75,0.58
						c1.67-1.6,3.15-3.31,4.53-5.11c-1.12,5.23-2.89,10.16-5.47,14.94c-0.58-0.3-1.16-0.59-1.73-0.91c-1.02-0.57-1.98-1.18-2.9-1.84
						c2.55,0.19,5.15-1.23,3.76-4.3c-1.34-2.97-5.67-5.54-7.87-7.93c-3.71-4.02-7.08-8.35-10.38-12.7
						c-3.47-4.57-8.67-13.75-15.24-13.91c-4.07-0.1-6.47,3.6-7.74,7.51c-5.05,11.56-0.3,27.54,6.13,37.44
						c4.32,6.65,11.47,12.64,19.39,14.93C183.38,167.28,182.91,167.62,182.41,167.89z M185.56,154.22c-0.16-0.11-0.3,0.12-0.19,0.25
						c3.3,3.9,7.97,6.55,12.76,8.21c1.46,0.51,2.76,0.84,3.97,0.98c-8.66,2.18-15.56-2.37-23.39-6.67
						c-0.12-0.06-0.21,0.08-0.13,0.17c2.73,3.53,8.76,7.24,14.75,8.65c-11.82,0.17-21.78-5.37-28.18-16
						c-6.7-11.13-7.8-23.21-5.64-35.61c0.27-0.6,0.57-1.17,0.93-1.66c4.91-6.8,9.22-2.41,12.48,0.99c3.15,3.28,5.72,7.11,8.49,10.71
						c2.85,3.7,5.77,7.36,8.95,10.79c1.59,1.71,3.23,3.36,4.94,4.95c1.05,0.93,3.33,2.22,1.79,3.79c-0.45,0.46-1.67,1.14-2.33,1.09
						c-0.89-0.06-1.85-1.24-2.51-1.84c-1.6-1.46-3.09-3.04-4.53-4.66c-0.16-0.18-0.42,0.05-0.32,0.25c2.11,4.07,5.6,7.15,9.2,9.89
						c1.71,1.3,3.52,2.47,5.43,3.46c0.77,0.4,2.29,0.71,2.81,1.33c1.02,1.21-0.66,1.95-1.9,2.83c-5.44-2.9-10.67-6.07-16.12-9.07
						c-0.14-0.08-0.29,0.11-0.17,0.22c5.74,5.49,13.12,9.76,20.3,13.24C200.06,164.31,191.2,158.06,185.56,154.22z"/>
				</g>
				<path class="st1" d="M144.37,65.38c-0.22-0.09-0.51-0.03-0.65,0.19c-0.01,0.02-0.02,0.03-0.03,0.05c-0.1,0.16-0.09,0.38,0,0.54
					c0.01,0.02,0.02,0.04,0.03,0.05c0.14,0.24,0.5,0.35,0.74,0.19c0.2-0.13,0.29-0.29,0.3-0.52
					C144.76,65.61,144.58,65.44,144.37,65.38z"/>
				<path class="st1" d="M158.34,65.45c-0.01-0.02-0.02-0.04-0.03-0.05c-0.51-0.88-1.54-0.72-2.04-0.09
					c-0.02,0.02-0.04,0.04-0.06,0.07c-0.04,0.06-0.08,0.12-0.11,0.19c-0.02,0.05-0.04,0.11-0.06,0.16
					c-0.04,0.12-0.05,0.24-0.05,0.37c0,0.01,0,0.03,0,0.04c0,0.01,0,0.01,0,0.02c0,0.07-0.01,0.14,0.01,0.21
					c0,0.01,0,0.02,0.01,0.03c0.03,0.15,0.1,0.28,0.19,0.39c0.01,0.01,0.01,0.02,0.02,0.03c0.01,0.01,0.02,0.03,0.04,0.04
					c0.12,0.17,0.28,0.32,0.51,0.41c0.41,0.17,1.05,0.13,1.35-0.26c0.01-0.02,0.03-0.03,0.04-0.05
					C158.5,66.51,158.64,65.97,158.34,65.45z"/>
			</g>
		</g>
		<g>
			<g>
				<g>
					<path d="M76.67,31.97h2.22v2.49l-1.2-0.02l0.71,1.71c0.18,0.42,0.27,0.55,0.6,0.55c0.27,0,0.69-0.07,0.98-0.11l-0.04,2.86
						l-5-0.04l-2.89,0.04l-0.04-2.86l0.53,0.07c0.6,0.07,0.89,0.11,1.31,0.11l-1.02-2.44c-0.6-0.02-1.09-0.02-1.29-0.02
						c-0.42,0-2.24,0.02-4.02,0.07l-1.02,2.4c0.22,0,0.64-0.04,1.27-0.09l0.53-0.04l-0.04,2.82l-2.93-0.04l-3.06,0.04l-0.04-2.86
						c0.44,0.09,0.73,0.13,0.95,0.13c0.4,0,0.53-0.18,0.69-0.56l0.73-1.73l-1.27,0.02v-3.15c0,0,1.11,0.09,2.53,0.22l1.64-3.82
						c0.98-2.29,1-4.35,1-4.71l4.6,0.44L76.67,31.97z M71.54,31.97h0.31l-1.6-3.86l-1.6,3.69C69.81,31.91,70.9,31.97,71.54,31.97z"
						/>
				</g>
			</g>
			<g>
				<g>
					<path d="M206.98,251.64h-2.22v-2.49l1.2,0.02l-0.71-1.71c-0.18-0.42-0.27-0.55-0.6-0.55c-0.27,0-0.69,0.07-0.98,0.11l0.04-2.86
						l5,0.04l2.89-0.04l0.04,2.86l-0.53-0.07c-0.6-0.07-0.89-0.11-1.31-0.11l1.02,2.44c0.6,0.02,1.09,0.02,1.29,0.02
						c0.42,0,2.24-0.02,4.02-0.07l1.02-2.4c-0.22,0-0.64,0.04-1.27,0.09l-0.53,0.04l0.04-2.82l2.93,0.04l3.06-0.04l0.04,2.86
						c-0.44-0.09-0.73-0.13-0.95-0.13c-0.4,0-0.53,0.18-0.69,0.56l-0.73,1.73l1.27-0.02v3.15c0,0-1.11-0.09-2.53-0.22l-1.64,3.82
						c-0.98,2.29-1,4.35-1,4.71l-4.6-0.44L206.98,251.64z M212.11,251.64h-0.31l1.6,3.86l1.6-3.69
						C213.84,251.7,212.75,251.64,212.11,251.64z"/>
				</g>
			</g>
			<g>
				<path d="M75.67,53.43c0.33,0.47,0.62,0.97,0.82,1.52c0.06-0.83-0.16-1.58-0.57-2.29c-0.34-0.6-0.76-1.14-1.2-1.66
					c-0.21-0.24-0.4-0.49-0.54-0.78c-0.3-0.61-0.17-1.12,0.41-1.47c0.56-0.34,1.18-0.52,1.82-0.65c0.62-0.13,1.26-0.14,1.89-0.28
					c-0.44-0.04-0.88-0.1-1.32-0.13c-1.05-0.08-2.11-0.04-3.15-0.23c-0.12-0.02-0.29,0.01-0.33-0.14c-0.03-0.12,0.12-0.18,0.19-0.26
					c0.25-0.24,0.52-0.45,0.83-0.61c0.24-0.12,0.23-0.25,0.09-0.45c-0.48-0.67-1.08-1.17-1.87-1.43c-0.84-0.28-1.69-0.34-2.54-0.07
					c-1.2,0.38-1.81,1.28-1.97,2.47c-0.11,0.8-0.17,1.61-0.04,2.42c0.12,0.78,0.49,1.38,1.06,1.88c0.47,0.41,0.98,0.77,1.43,1.2
					c1.58,1.51,1.95,3.17,1.04,5.15c-1.13,2.45-3.05,4.08-5.52,5.08c-0.74,0.3-1.54,0.3-2.33,0.13c-0.11-0.02-0.3-0.01-0.32-0.14
					c-0.02-0.15,0.16-0.16,0.27-0.22c1.46-0.71,2.81-1.58,3.92-2.78c0.76-0.82,1.35-1.74,1.71-2.81c0.04-0.11,0.13-0.22,0.03-0.39
					c-0.16,0.23-0.29,0.46-0.45,0.67c-1.62,2.18-3.64,3.88-6.16,4.95c-0.35,0.15-0.63,0.14-0.95-0.07c-1.81-1.2-2.82-2.85-3-5.03
					c-0.26-3.25,2.14-5.86,4.71-6.45c0.52-0.12,1.05-0.19,1.58-0.18c0.23,0.01,0.35-0.01,0.24-0.31c-1.33-3.52,1.14-7.57,4.87-8.01
					c1.98-0.23,3.69,0.29,5.12,1.68c0.53,0.52,0.9,1.16,1.18,1.85c0.11,0.27,0.26,0.38,0.56,0.39c1.23,0.07,2.35,0.43,3.16,1.42
					c0.22,0.27,0.49,0.6,0.37,0.91c-0.11,0.28-0.54,0.17-0.83,0.2c-0.83,0.1-1.65,0.27-2.46,0.47c-0.12,0.03-0.2,0.1-0.23,0.22
					c-0.08,0.31-0.16,0.61-0.27,0.91c-0.08,0.23,0.01,0.25,0.21,0.26c0.85,0.04,1.69,0.17,2.48,0.53c2,0.92,3.19,2.48,3.62,4.63
					c0.61,3.05-1.41,6.13-4.08,7.08c-1.76,0.63-3.48,0.56-5.12-0.41c-0.24-0.14-0.45-0.33-0.65-0.52c-0.07-0.07-0.13-0.19-0.25-0.14
					c-0.12,0.05-0.11,0.19-0.12,0.3c-0.06,0.64,0.12,1.23,0.38,1.8c0.69,1.49,1.82,2.55,3.24,3.32c0.09,0.05,0.18,0.09,0.27,0.14
					c0.12,0.07,0.18,0.18,0.15,0.32c-0.03,0.14-0.13,0.22-0.26,0.25c-0.14,0.02-0.28,0.03-0.42,0.03c-3.49,0-6.99,0-10.48,0
					c-0.26,0-0.63,0.11-0.71-0.27c-0.07-0.35,0.3-0.37,0.53-0.48c1.25-0.61,2.05-1.64,2.66-2.84c0.37-0.72,0.69-1.47,1.03-2.21
					c0.08-0.18,0.18-0.34,0.42-0.33c1.61,0.07,2.88-0.71,4.03-1.71c1.92-1.67,2.44-3.78,1.8-6.2c-0.02-0.07-0.03-0.14-0.05-0.21
					C75.62,53.46,75.64,53.45,75.67,53.43z"/>
				<path d="M73.54,46.37c0.01,0.32-0.26,0.61-0.59,0.62c-0.33,0.01-0.61-0.25-0.62-0.59c-0.01-0.33,0.29-0.66,0.6-0.66
					C73.24,45.75,73.53,46.06,73.54,46.37z"/>
			</g>
			<g>
				<path d="M207.98,230.18c-0.33-0.47-0.62-0.97-0.82-1.52c-0.06,0.83,0.16,1.58,0.57,2.29c0.34,0.6,0.76,1.14,1.2,1.66
					c0.21,0.24,0.4,0.49,0.54,0.78c0.3,0.61,0.17,1.12-0.41,1.47c-0.56,0.34-1.18,0.52-1.82,0.65c-0.62,0.13-1.26,0.14-1.89,0.28
					c0.44,0.04,0.88,0.1,1.32,0.13c1.05,0.08,2.11,0.04,3.15,0.23c0.12,0.02,0.29-0.01,0.33,0.14c0.03,0.12-0.12,0.18-0.19,0.26
					c-0.25,0.24-0.52,0.45-0.83,0.61c-0.24,0.12-0.23,0.25-0.09,0.45c0.48,0.67,1.08,1.17,1.87,1.43c0.84,0.28,1.69,0.34,2.54,0.07
					c1.2-0.38,1.81-1.28,1.97-2.47c0.11-0.8,0.17-1.61,0.04-2.42c-0.12-0.78-0.49-1.38-1.06-1.88c-0.47-0.41-0.98-0.77-1.43-1.2
					c-1.58-1.51-1.95-3.17-1.04-5.15c1.13-2.45,3.05-4.08,5.52-5.08c0.74-0.3,1.54-0.3,2.33-0.13c0.11,0.02,0.3,0.01,0.32,0.14
					c0.02,0.15-0.16,0.16-0.27,0.22c-1.46,0.71-2.81,1.58-3.92,2.78c-0.76,0.82-1.35,1.74-1.71,2.81c-0.04,0.11-0.13,0.22-0.03,0.39
					c0.16-0.23,0.29-0.46,0.45-0.67c1.62-2.18,3.64-3.88,6.16-4.95c0.35-0.15,0.63-0.14,0.95,0.07c1.81,1.2,2.82,2.85,3,5.03
					c0.26,3.25-2.14,5.86-4.71,6.45c-0.52,0.12-1.05,0.19-1.58,0.18c-0.23-0.01-0.35,0.01-0.24,0.31c1.33,3.52-1.14,7.57-4.87,8.01
					c-1.98,0.23-3.69-0.29-5.12-1.68c-0.53-0.52-0.9-1.16-1.18-1.85c-0.11-0.27-0.26-0.38-0.56-0.39c-1.23-0.07-2.35-0.43-3.16-1.42
					c-0.22-0.27-0.49-0.6-0.37-0.91c0.11-0.28,0.54-0.17,0.83-0.2c0.83-0.1,1.65-0.27,2.46-0.47c0.12-0.03,0.2-0.1,0.23-0.22
					c0.08-0.31,0.16-0.61,0.27-0.91c0.08-0.23-0.01-0.25-0.21-0.26c-0.85-0.04-1.69-0.17-2.48-0.53c-2-0.92-3.19-2.48-3.62-4.63
					c-0.61-3.05,1.41-6.13,4.08-7.08c1.76-0.63,3.48-0.56,5.12,0.41c0.24,0.14,0.45,0.33,0.65,0.52c0.07,0.07,0.13,0.19,0.25,0.14
					c0.12-0.05,0.11-0.19,0.12-0.3c0.06-0.64-0.12-1.23-0.38-1.8c-0.69-1.49-1.82-2.55-3.24-3.32c-0.09-0.05-0.18-0.09-0.27-0.14
					c-0.12-0.07-0.18-0.18-0.15-0.32c0.03-0.14,0.13-0.22,0.26-0.25c0.14-0.02,0.28-0.03,0.42-0.03c3.49,0,6.99,0,10.48,0
					c0.26,0,0.63-0.11,0.71,0.27c0.07,0.35-0.3,0.37-0.53,0.48c-1.25,0.61-2.05,1.64-2.66,2.84c-0.37,0.72-0.69,1.47-1.03,2.21
					c-0.08,0.18-0.18,0.34-0.42,0.33c-1.61-0.07-2.88,0.71-4.03,1.71c-1.92,1.67-2.44,3.78-1.8,6.2c0.02,0.07,0.03,0.14,0.05,0.21
					C208.03,230.15,208.01,230.17,207.98,230.18z"/>
				<path d="M210.11,237.24c-0.01-0.32,0.26-0.61,0.59-0.62c0.33-0.01,0.61,0.25,0.62,0.59c0.01,0.33-0.29,0.66-0.6,0.66
					C210.41,237.86,210.12,237.56,210.11,237.24z"/>
			</g>
		</g>
	</g>
</g>
</svg>
