<?xml version="1.0" encoding="utf-8"?>
<!-- Generator: Adobe Illustrator 24.0.1, SVG Export Plug-In . SVG Version: 6.00 Build 0)  -->
<svg version="1.1" xmlns="http://www.w3.org/2000/svg" xmlns:xlink="http://www.w3.org/1999/xlink" x="0px" y="0px"
	 viewBox="0 0 283.46 283.46" style="enable-background:new 0 0 283.46 283.46;" xml:space="preserve">
<style type="text/css">
	.st0{fill:#DBDDD9;}
	.st1{fill:#FFFFFF;}
	.st2{fill:none;stroke:#000000;stroke-width:3;stroke-miterlimit:10;}
	.st3{fill:#E30613;}
	.st4{fill:#894F28;}
	.st5{fill:#3E2215;}
	.st6{fill:#DEB27E;}
	.st7{opacity:0.25;fill:#312783;}
	.st8{opacity:0.53;fill:#F5F0DA;}
	.st9{fill:none;}
	.st10{fill:#EB941E;}
	.st11{fill:#1F201D;}
	.st12{fill:#E2E0DB;}
	.st13{fill:#B7B6B0;}
	.st14{fill:#2FAC66;}
	.st15{fill:#312783;}
	.st16{fill:#E94D2A;}
	.st17{fill:#F5EA61;}
	.st18{fill:#1D71B8;}
	.st19{fill:#2D3B49;}
</style>
<g id="bg">
</g>
<g id="CUT">
</g>
<g id="BACK">
</g>
<g id="ILLUSTRATION">
</g>
<g id="SYMBOLS">
	<g>
		<path class="st1" d="M217.23,267.73h-151c-8.01,0-14.5-6.49-14.5-14.5v-223c0-8.01,6.49-14.5,14.5-14.5h151
			c8.01,0,14.5,6.49,14.5,14.5v223C231.73,261.24,225.24,267.73,217.23,267.73z"/>
		<g>
			<g>
				<g>
					<path class="st19" d="M99.54,163.2c0.32,1.76,0.64,3.52,0.94,5.28c0.51,1.58,1.39,3.19,1.65,4.78c2.03,1.07,3.54,2.53,3.41,5
						c3.15-0.92,6.09-1.89,9-3.33c-2.1-1.49-1.43-5.02,0.14-7.95c0.14-0.29,0.31-0.56,0.48-0.84c-0.5,0.27-1.01,0.52-1.57,0.71
						C108.81,168.55,102.94,166.92,99.54,163.2z"/>
					<path class="st19" d="M119.56,161.72c0.61-0.42,1.23-0.8,1.86-1.13c3.33-1.75,6.81-3.11,10.27-4.51
						c-1.82-5.22-3.66-10.23-6.66-14.92c-1.08-1.69-2.31-3.26-3.57-4.8c-1.36,2.02-2.97,4.09-4.85,5.61
						c1.77,2.29,3.21,4.79,4.05,7.67C121.83,153.59,121.53,158.17,119.56,161.72z"/>
					<path class="st11" d="M94.94,160.27c-0.09,0.57-0.19,1.14-0.28,1.71c0.04,0.76-0.13,1.56-0.24,2.33
						c-0.22,1.52-0.55,3.03-0.93,4.52c0.98,1.65,3.92,2.45,6.66,3.54c-0.53-1.15-0.77-2.6-1.04-3.62c-0.4-1.52-0.74-3.18-0.84-4.83
						c-0.24-1.25-0.47-2.5-0.7-3.75c-0.14-0.76,0.92-1.32,1.31-0.55c3.58,7.02,14.76,8.52,19.07,1.27c3.8-6.39,0.35-14.12-3.98-19.2
						c-3.27-3.84-7.23-7.05-10.59-10.83c-1.85-2.09-3.52-4.5-5.52-6.44c-1.28-1.24-1.82-1.52-2.46-1.06
						c-3.41,7.27-11.39,11.5-16.5,17.47c-4.55,5.32-7.26,12.61-3.54,19.2c4.36,7.72,13.72,6.16,18.58-0.15
						C94.33,159.36,95.04,159.64,94.94,160.27z"/>
					<path class="st1" d="M131.26,135.21c-2.99,0.06-6.08-0.55-8.93-1.74c5.89,5.71,10.01,14.57,11.25,21.85
						c3.56-1.47,7.08-3.05,10.37-5.22c8.2-5.41,15.34-13.73,16.33-23.86c0.42-4.23-0.24-8.63-2.16-12.45
						c-2.95-5.88-7.64-7.84-13.6-6.96c0.99,1.12,1.34,2.38,1.14,4.17c-0.09,0.78-0.75,1.16-1.47,0.84c-3.4-1.47-9.2,3.75-12.43,4.86
						c-3.4,1.17-7.02,1.69-10.61,1.74c-9.06,0.13-17.22-4.46-26.09-4.41c2.58,2.75,6.39,4.95,9.36,6.75
						c4.48,2.71,9.5,5.53,13.8,9.04c4.2,2.07,8.41,3.69,13.1,4.9C131.6,134.81,131.53,135.21,131.26,135.21z"/>
					<path class="st19" d="M101.34,174.12c-0.57-0.26-1.14-0.52-1.72-0.78c-0.73-0.27-1.49-0.45-2.24-0.67
						c-1.42-0.4-3.83-0.7-4.88-1.93c-0.86-1-0.69-1.9-0.21-2.84c0.07-0.29,0.14-0.58,0.21-0.87c-5.61,1.44-11.01,8.57-4.46,12.84
						c2.08,1.36,4.78,2.13,7.26,2.25c1.38,0.07,2.84-0.02,4.19-0.33c1.78-0.41,3.47-1.38,3.9-3.31c0.02-0.08,0.03-0.15,0.04-0.23
						C103.69,176.65,102.88,174.73,101.34,174.12z"/>
					<path class="st19" d="M210.01,144.37c-0.62-6.78-2.01-13.49-4.11-19.95c-2.04-6.28-4.9-12.15-7.68-18.07
						c-1.12-2.02-2.27-4.04-3.41-6.09c-0.16-0.28-0.29-0.56-0.43-0.84c-0.64-0.96-1.28-1.93-1.91-2.89
						c-1.76-2.67-4.01-5.11-5.23-8.08c-0.02-0.04,0.04-0.07,0.07-0.05c1.95,1.16,3.62,2.82,5.07,4.73
						c-0.68-4.76,0.37-9.59,2.66-14.25c1.13-2.3,2.53-4.44,3.98-6.55c1-1.45,3.23-3.62,3.58-5.36c1.47-7.25-13.35-0.33-16.1,1.21
						c-3.51,1.96-9.08,7.31-13.97,7.71c2.71,2.07,5.24,4.47,7.68,7.23c0.08,0.09-0.04,0.21-0.13,0.13
						C166.8,71.8,148.4,66.1,131.18,70.35c-7.56,1.87-15.21,5.48-20.7,11.11c-3.8,3.91-6.25,8.99-9.63,13.23
						c-1.43,3.28-5.27,5.14-7.21,8.28c-2.64,4.27-1.49,7.79,1.09,10.71c3.5-1.93,7.24-0.25,10.99,0.58
						c5.28,1.17,10.81,2.06,16.24,1.83c5.91-0.25,10.79-2.08,15.77-5.17c2.08-1.29,3.62-1.97,5.51-1.54
						c-0.27-0.74-0.54-1.47-0.82-2.21c-0.02-0.02-0.03-0.05-0.05-0.07c-0.65-0.22-0.8-1.27,0.02-1.51
						c17.84-5.16,23.06,17.02,17.1,29.87c-3.86,8.31-11.11,14.47-19.02,18.78c-8.19,4.45-23.09,6.34-24.87,16.73
						c0.35,0.75,1.09,1.31,2.41,1.54c-0.26-0.05,3.87-0.44,3.68-0.44c3.55,0.03,6.92,1.29,10.34,2.09c8.5,1.98,17.09,1.47,25.18-1.9
						c7.88-3.28,15.1-9.06,18.23-17.22c2.85-7.4,2.85-16.7,2.63-24.55c-0.01-0.22,0.3-0.2,0.33,0c0.97,7.9,1.94,15.77-0.18,23.17
						c0.07,8.78,6.52,16.47,5.04,25.4c-0.75,4.54-4.01,11.51-9.4,11.54c-2.06,0.01-4.04-0.7-6.08-1.01
						c-2.88-0.44-5.57,0.53-7.68,2.49c-0.75,0.7-1.41,1.49-2.11,2.24c-2.54,2.74-5.22,5.31-8.32,7.42
						c-7.03,4.78-15.07,6.49-23.46,6.14c-0.58-0.02-0.94-0.91-0.32-1.19c9.92-4.46,15.07-18.48,12.31-28.87
						c-0.83-0.03-1.65-0.08-2.47-0.16c0.81,8.99-0.91,27.86-13.73,24.44c-6.93-1.85-10.57-9.29-17.23-11.82
						c-3.96-1.5-8.35-1.57-12.5-1.11c-2.45,0.27-13.78,1.78-14.11,5.49c2.26,1.15,5.82,0.26,8.21,1.16c1.5,0.57,2.77,1.46,3.96,2.51
						c1.92,1.69,3.14,3.77,4.63,5.83c2.41,3.34,4.83,4.76,8.86,5.59c0.39,0.08,0.46,0.68,0.11,0.86c-0.11,0.06-0.21,0.09-0.32,0.14
						c-0.06,0.11-0.15,0.21-0.27,0.26c-2.93,1.2-3.07,6.64-4.21,9.28c-0.9,2.09-2.09,4.11-3.71,5.73c-1.6,1.6-3.93,2.06-5.49,3.43
						c-1.91-0.02-2.27,0.81-1.08,2.48c0.51,0.15,1.01,0.31,1.52,0.46c1.62,0.97,4.31,0.79,6.21,0.83
						c7.92,0.17,16.25-3.04,19.95-10.45c0.6-1.21,1.07-2.44,1.61-3.52c2.24-8.65,19.19-1.24,24.23-1.02
						c14.86,0.65,32.34-7.26,43.49-16.81C202.77,186.94,210.58,165.74,210.01,144.37z M142.45,101.08
						c-2.43,3.72-7.62,2.32-9.27-1.35c-0.37-0.82-0.48-2.29-0.26-3.72c0.04-0.91,0.32-1.76,0.88-2.55c0.05-0.07,0.1-0.15,0.15-0.21
						c0.07-0.09,0.15-0.18,0.22-0.26c0.03-0.03,0.05-0.06,0.08-0.09c0.1-0.11,0.19-0.22,0.3-0.33c1.29-1.25,3.25-1.85,5.02-1.47
						C144.18,92.07,144.68,97.66,142.45,101.08z M153.5,94.34c-3.82-0.22-6.6-3.64-9.68-5.49c-6.88-4.12-16.7-0.05-19,7.8
						c-0.13,0.45-0.9,0.38-0.84-0.11c0.04-0.41,0.1-0.81,0.16-1.2c0.66-7.46,5.67-13.56,12.57-16.43
						c6.46-2.69,17.15-3.12,22.24,2.68C162.94,86.14,160.19,94.73,153.5,94.34z"/>
					<path class="st1" d="M155.51,81.52c-3.79-2.5-9.45-2.73-13.78-1.89c-6.68,1.3-11.7,5.63-14.93,11.22
						c1.4-1.64,3.26-3.22,5.13-4.16c5.07-2.56,10.1-1.06,14.46,2.08c1.29,0.93,2.7,2.4,4.2,2.95
						C160.85,95.49,160.01,84.49,155.51,81.52z"/>
					<path class="st1" d="M128.79,206.65c8.39-0.1,16.65-3.12,23.11-8.53c4.15-3.48,7.67-9.88,13.45-10.74
						c3.79-0.56,7.27,2.11,11.17,0.27c4.71-2.23,5.43-10.79,4.58-15.09c-1.08-5.5-3.76-10.37-3.96-15.77
						c-0.68,1.62-1.52,3.21-2.59,4.77c-5.43,7.93-14.48,12.96-23.69,15.11c-3.75,0.88-7.7,1.27-11.6,1.19
						c2.15,5.6,0.37,13.37-1.8,18.58C135.64,200.79,132.76,204.34,128.79,206.65z"/>
					<path class="st1" d="M138.23,92.25c-2.05,0.11-3.41,1.62-4.16,3.39c-0.19,1.14,0.02,2.34,0.52,3.38
						c1.44,3.05,5.4,3.77,7.08,0.45C143.11,96.64,142.15,92.05,138.23,92.25z M139.77,98.71c-0.29,0.71-0.8,1.3-1.63,1.46
						c-2.83,0.55-3.78-3.27-2.53-5.19c0.61-0.94,1.68-1.35,2.68-1c0.17,0.04,0.34,0.1,0.49,0.21c0.18,0.12,0.33,0.26,0.47,0.4
						c0.49,0.46,0.83,1.06,0.94,1.73C140.34,97.13,140.21,98,139.77,98.71z"/>
					<path class="st1" d="M139.58,91.08c-1.76-0.38-3.73,0.22-5.02,1.47c-0.11,0.11-0.2,0.22-0.3,0.33
						c-0.03,0.03-0.06,0.06-0.08,0.09c-0.08,0.09-0.15,0.17-0.22,0.26c-0.05,0.07-0.1,0.14-0.15,0.21
						c-0.56,0.79-0.84,1.64-0.88,2.55c-0.21,1.43-0.1,2.91,0.26,3.72c1.65,3.68,6.84,5.07,9.27,1.35
						C144.68,97.66,144.18,92.07,139.58,91.08z M141.67,99.47c-1.69,3.32-5.64,2.61-7.08-0.45c-0.49-1.04-0.71-2.24-0.52-3.38
						c0.75-1.78,2.11-3.28,4.16-3.39C142.15,92.05,143.11,96.64,141.67,99.47z"/>
					<path class="st1" d="M139.25,94.58c-0.14-0.14-0.29-0.27-0.47-0.4c-0.15-0.1-0.32-0.16-0.49-0.21c-1-0.35-2.07,0.07-2.68,1
						c-1.25,1.92-0.3,5.74,2.53,5.19c0.83-0.16,1.34-0.75,1.63-1.46c0.44-0.71,0.57-1.58,0.43-2.4
						C140.08,95.65,139.74,95.04,139.25,94.58z"/>
					<path class="st1" d="M206.67,120.81c-2.05-6.49-4.81-12.65-8.44-18.57c-3.68-6-5.57-11.71-3.18-18.72
						c1.82-5.35,5.25-9.59,8.24-14.28c0.89-1.4,3.35-4.49,2.13-6.38c-1.11-1.73-4.71-1.16-6.19-1c-4.56,0.49-8.84,2.2-12.84,4.38
						c-4.51,2.45-10.26,8.14-15.75,8.27c-3.3-2.26-6.92-4.06-11.07-5.42c-8.49-2.78-17.69-3.28-26.45-1.59
						c-7.78,1.5-15.13,4.81-21.12,10.03c-5.92,5.17-9.87,12.04-13.96,18.68c-2.8,2.6-6.24,4.55-7.71,8.37
						c-1.74,4.54,0.42,8.88,3.8,11.99c4.94,4.55,11.37,7.44,16.99,11.02c2.84,1.8,5.39,3.65,7.78,5.68c0.47,0.57,0.94,1.13,1.41,1.7
						c-0.27,0.41-0.55,0.82-0.84,1.21c-0.08,0.11-0.16,0.22-0.25,0.33c-0.43,0.57-0.88,1.14-1.35,1.68
						c-0.75,0.85-1.59,1.61-2.39,2.41c-3.54-4.14-8.03-7.63-11.73-11.49c-1.39-1.45-5.11-7.77-7.44-7.77
						c-1.12,0-1.84,1.41-2.36,2.51c-4.84,5.15-10.34,9.41-15.22,14.54c-4.59,4.82-8.08,10.99-6.81,17.88
						c0.96,5.16,4.73,10.08,10.1,11c3.93,0.67,8.55-0.93,11.19-4.03c-0.05,0.34-0.1,0.69-0.16,1.02c-0.08,0.43-0.17,0.86-0.26,1.29
						c-4.89,0.83-9.67,4.77-9.14,10.18c0.47,4.91,6.1,7.21,10.38,7.79c3.37,0.46,9.67,0.07,11.17-3.74
						c0.38-0.03,0.76-0.06,1.14-0.11c0.39-0.04,0.78-0.09,1.17-0.17c1.41-0.25,2.82-0.62,4.21-1.07c2.33-0.61,4.35-1.39,6.42-2.77
						c0.04-0.03,0.08-0.06,0.11-0.09c1.13-0.16,2.28-0.52,3.43-0.52c2.14,0.01,4.2,0.59,6.26,1.08c2,0.48,4,1,6.03,1.31
						c1.13,10.46-2.86,31.47-17.29,19.54c-5.22-4.32-9.16-8.45-16.21-9.43c-6.05-0.84-13.84,0.07-19.41,2.69
						c-1.22,0.57-5.47,3.04-4.03,4.71c0.22,0.99,0.94,1.43,2.19,1.81c1.95,0.6,4.01-0.4,6.09,0.23c3.12,0.94,4.98,3.38,6.72,5.95
						c1.92,2.84,4.83,7.57,8.53,8.23c-2.23,2.16-2.2,6.77-3.63,9.56c-2.28,4.46-5.42,6.14-9.97,7.7c-1.61,0.55-2.19,0.62-2.8,2.18
						c-0.11,0.29,0.02,0.67,0.23,0.88c5.24,5.11,16.57,4.2,22.78,1.79c3.48-1.35,6.6-3.55,8.91-6.49c2.34-2.98,3.05-7.08,5.99-9.36
						c5.28-2.19,14.52,2.29,19.41,2.62c6.55,0.45,13.14-0.94,19.3-3.06c13.42-4.63,25.81-11.89,34.76-23.05
						C211.96,173.5,217.05,145.03,206.67,120.81z M118.23,129.84c-4.3-3.51-9.32-6.33-13.8-9.04c-2.97-1.8-6.78-4-9.36-6.75
						c8.87-0.06,17.03,4.54,26.09,4.41c3.59-0.05,7.21-0.57,10.61-1.74c3.23-1.11,9.03-6.34,12.43-4.86
						c0.72,0.31,1.38-0.06,1.47-0.84c0.21-1.79-0.14-3.05-1.14-4.17c5.96-0.88,10.65,1.08,13.6,6.96c1.92,3.82,2.57,8.22,2.16,12.45
						c-1,10.12-8.14,18.45-16.33,23.86c-3.29,2.17-6.81,3.75-10.37,5.22c-1.24-7.28-5.36-16.14-11.25-21.85
						c2.85,1.19,5.94,1.81,8.93,1.74c0.27-0.01,0.33-0.41,0.06-0.48C126.64,133.52,122.43,131.9,118.23,129.84z M121.47,136.37
						c1.26,1.54,2.49,3.11,3.57,4.8c3,4.7,4.83,9.71,6.66,14.92c-3.46,1.39-6.94,2.75-10.27,4.51c-0.62,0.33-1.25,0.71-1.86,1.13
						c1.97-3.55,2.26-8.14,1.11-12.08c-0.84-2.88-2.29-5.38-4.05-7.67C118.51,140.46,120.11,138.39,121.47,136.37z M75.36,160.01
						c-3.72-6.59-1.01-13.89,3.54-19.2c5.11-5.97,13.09-10.2,16.5-17.47c0.64-0.46,1.18-0.18,2.46,1.06c2,1.94,3.67,4.35,5.52,6.44
						c3.35,3.78,7.31,6.99,10.59,10.83c4.33,5.09,7.79,12.81,3.98,19.2c-4.31,7.25-15.49,5.75-19.07-1.27
						c-0.39-0.77-1.45-0.2-1.31,0.55c0.23,1.25,0.46,2.5,0.7,3.75c0.11,1.65,0.44,3.31,0.84,4.83c0.27,1.02,0.5,2.47,1.04,3.62
						c-2.74-1.09-5.68-1.89-6.66-3.54c0.38-1.49,0.71-3,0.93-4.52c0.11-0.77,0.28-1.56,0.24-2.33c0.09-0.57,0.19-1.13,0.28-1.71
						c0.1-0.63-0.61-0.91-0.99-0.42C89.09,166.17,79.72,167.72,75.36,160.01z M103.45,178.25c-0.01,0.08-0.03,0.16-0.04,0.23
						c-0.43,1.93-2.12,2.9-3.9,3.31c-1.35,0.31-2.81,0.4-4.19,0.33c-2.48-0.12-5.18-0.89-7.26-2.25c-6.55-4.28-1.15-11.4,4.46-12.84
						c-0.07,0.29-0.14,0.58-0.21,0.87c-0.48,0.93-0.65,1.83,0.21,2.84c1.05,1.23,3.46,1.53,4.88,1.93c0.75,0.21,1.51,0.39,2.24,0.67
						c0.57,0.26,1.14,0.52,1.72,0.78C102.88,174.73,103.69,176.65,103.45,178.25z M114.69,166.98c-1.57,2.93-2.24,6.46-0.14,7.95
						c-2.91,1.44-5.85,2.41-9,3.33c0.13-2.47-1.39-3.93-3.41-5c-0.26-1.6-1.14-3.21-1.65-4.78c-0.3-1.76-0.62-3.52-0.94-5.28
						c3.4,3.72,9.27,5.35,14.05,3.66c0.56-0.2,1.08-0.45,1.57-0.71C114.99,166.42,114.83,166.69,114.69,166.98z M185.87,201.41
						c-11.16,9.55-28.63,17.46-43.49,16.81c-5.03-0.22-21.98-7.63-24.23,1.02c-0.54,1.08-1,2.31-1.61,3.52
						c-3.7,7.41-12.03,10.63-19.95,10.45c-1.9-0.04-4.59,0.14-6.21-0.83c-0.51-0.15-1.01-0.31-1.52-0.46
						c-1.19-1.67-0.83-2.49,1.08-2.48c1.56-1.37,3.89-1.83,5.49-3.43c1.62-1.62,2.81-3.64,3.71-5.73c1.14-2.65,1.28-8.09,4.21-9.28
						c0.12-0.05,0.22-0.15,0.27-0.26c0.11-0.05,0.21-0.08,0.32-0.14c0.35-0.18,0.28-0.78-0.11-0.86c-4.03-0.82-6.45-2.25-8.86-5.59
						c-1.49-2.06-2.7-4.14-4.63-5.83c-1.19-1.05-2.46-1.95-3.96-2.51c-2.39-0.9-5.94-0.01-8.21-1.16
						c0.32-3.71,11.66-5.22,14.11-5.49c4.15-0.46,8.54-0.4,12.5,1.11c6.66,2.53,10.3,9.97,17.23,11.82
						c12.82,3.42,14.54-15.45,13.73-24.44c0.82,0.08,1.64,0.12,2.47,0.16c2.76,10.39-2.39,24.42-12.31,28.87
						c-0.62,0.28-0.26,1.16,0.32,1.19c8.39,0.35,16.43-1.36,23.46-6.14c3.1-2.1,5.78-4.67,8.32-7.42c0.69-0.75,1.36-1.54,2.11-2.24
						c2.1-1.96,4.8-2.93,7.68-2.49c2.03,0.31,4.02,1.02,6.08,1.01c5.39-0.03,8.65-7,9.4-11.54c1.48-8.93-4.97-16.62-5.04-25.4
						c2.12-7.4,1.14-15.27,0.18-23.17c-0.02-0.2-0.33-0.22-0.33,0c0.22,7.85,0.21,17.15-2.63,24.55
						c-3.14,8.16-10.35,13.93-18.23,17.22c-8.09,3.37-16.68,3.88-25.18,1.9c-3.42-0.8-6.78-2.06-10.34-2.09
						c0.19,0-3.94,0.4-3.68,0.44c-1.32-0.23-2.06-0.79-2.41-1.54c1.78-10.39,16.68-12.27,24.87-16.73
						c7.92-4.31,15.17-10.47,19.02-18.78c5.96-12.84,0.74-35.03-17.1-29.87c-0.82,0.24-0.67,1.29-0.02,1.51
						c0.02,0.02,0.02,0.05,0.05,0.07c0.27,0.74,0.54,1.47,0.82,2.21c-1.89-0.44-3.43,0.25-5.51,1.54
						c-4.98,3.08-9.86,4.92-15.77,5.17c-5.43,0.23-10.95-0.67-16.24-1.83c-3.75-0.83-7.49-2.51-10.99-0.58
						c-2.59-2.92-3.73-6.44-1.09-10.71c1.94-3.14,5.78-5,7.21-8.28c3.38-4.24,5.82-9.32,9.63-13.23c5.48-5.64,13.14-9.25,20.7-11.11
						c17.23-4.25,35.63,1.45,48.89,12.9c0.09,0.08,0.21-0.04,0.13-0.13c-2.45-2.77-4.97-5.16-7.68-7.23
						c4.89-0.41,10.46-5.75,13.97-7.71c2.75-1.54,17.57-8.47,16.1-1.21c-0.35,1.74-2.58,3.91-3.58,5.36
						c-1.45,2.11-2.84,4.25-3.98,6.55c-2.3,4.65-3.35,9.49-2.66,14.25c-1.45-1.91-3.13-3.56-5.07-4.73
						c-0.03-0.02-0.09,0.01-0.07,0.05c1.22,2.97,3.47,5.41,5.23,8.08c0.64,0.96,1.28,1.93,1.91,2.89c0.14,0.28,0.28,0.56,0.43,0.84
						c1.15,2.05,2.29,4.07,3.41,6.09c2.79,5.92,5.64,11.79,7.68,18.07c2.1,6.46,3.49,13.18,4.11,19.95
						C210.58,165.74,202.77,186.94,185.87,201.41z M139.26,177.85c3.9,0.08,7.84-0.31,11.6-1.19c9.21-2.15,18.26-7.18,23.69-15.11
						c1.07-1.56,1.91-3.15,2.59-4.77c0.2,5.4,2.89,10.27,3.96,15.77c0.84,4.31,0.13,12.87-4.58,15.09
						c-3.89,1.84-7.38-0.83-11.17-0.27c-5.78,0.86-9.3,7.26-13.45,10.74c-6.46,5.41-14.71,8.43-23.11,8.53
						c3.97-2.31,6.85-5.86,8.67-10.22C139.64,191.22,141.42,183.44,139.26,177.85z"/>
					<path class="st1" d="M136.71,78.91c-6.9,2.87-11.91,8.98-12.57,16.43c-0.06,0.39-0.12,0.79-0.16,1.2
						c-0.05,0.49,0.71,0.56,0.84,0.11c2.3-7.85,12.12-11.92,19-7.8c3.08,1.84,5.86,5.27,9.68,5.49c6.69,0.39,9.45-8.2,5.45-12.75
						C153.85,75.79,143.16,76.22,136.71,78.91z M150.6,91.73c-1.5-0.55-2.91-2.03-4.2-2.95c-4.37-3.14-9.4-4.64-14.46-2.08
						c-1.87,0.95-3.74,2.52-5.13,4.16c3.23-5.59,8.26-9.93,14.93-11.22c4.34-0.84,9.99-0.62,13.78,1.89
						C160.01,84.49,160.85,95.49,150.6,91.73z"/>
				</g>
				<path class="st7" d="M132.17,154.37c-2.66-5.38-4.25-10.89-7.57-15.94c-0.42-0.63-1.06-0.72-1.57-0.5
					c-0.52-0.86-1.12-1.63-1.88-2.22c-0.1-0.08-0.26-0.04-0.27,0.11c-0.1,3.28,1.79,6.54,2.5,9.76c0.94,4.26,1.22,8.47,0.83,12.81
					c-0.09,1.03,1.15,1.53,1.94,1.11c1.81-0.96,3.53-2.01,5.41-2.83C132.44,156.29,132.54,155.11,132.17,154.37z"/>
				<path class="st7" d="M114.93,142.49c-0.09-0.12-0.27-0.02-0.2,0.12c2.77,5.53,4.89,11.95,0.97,17.52
					c-5.06,7.18-12.84,1.19-17.02-3.15c-0.44-0.45-1.37-0.41-1.66,0.21c-0.1,0.23-0.2,0.46-0.31,0.69c0.02-0.15,0.03-0.29,0.05-0.44
					c0.12-1.08-1.38-1.55-2.07-0.86c-2.66,2.68-5.4,5.6-9.24,6.48c-4.98,1.14-9.46-2.46-12.07-6.37c-0.17-0.25-0.64-0.1-0.51,0.22
					c1.79,4.59,3.76,8.41,9.19,9c4.68,0.51,8.81-1.86,12.04-5.04c-0.09,1.24-0.17,2.48-0.26,3.72c-0.07,0.14-0.11,0.3-0.1,0.5
					c0.01,0.24,0.01,0.48,0.02,0.71c0.01,0.21,0.06,0.37,0.14,0.51c0.05,0.41,0.11,0.82,0.16,1.22c0.01,0.04,0.03,0.08,0.03,0.12
					c-0.22-0.06-0.44-0.09-0.71-0.08c-0.09,0-0.15,0.07-0.16,0.16c-0.07,2.36,3.38,3.88,5.2,4.54c1.22,0.44,1.91-1.01,1.5-1.95
					c-0.87-2.02-1.4-4.16-1.52-6.36c-0.07-1.23,0-2.47-0.2-3.67c3.11,4.48,8.89,7.26,14.06,5.91c-0.1,0.04-0.2,0.08-0.3,0.15
					c-2.8,1.74-6.61,0.42-9.22-1.1c-1.26-0.74-2.61-2.73-4.2-2.35c-0.11,0.03-0.14,0.17-0.07,0.25c0.7,0.7,0.96,2.53,1.6,3.41
					c0.99,1.36,2.4,2.5,3.9,3.23c3.05,1.48,6.97,1.63,9.88-0.2c1.78-1.12,0.58-3.73-1.13-3.52c1.26-0.39,2.49-1.04,3.61-1.98
					C123.31,158.26,119.31,148.53,114.93,142.49z"/>
				<path class="st7" d="M100.53,176.14c-1.06,3.4-4.52,3.46-7.48,3.14c-3.73-0.4-5.66-2.2-8.38-4.47c-0.1-0.08-0.23,0.02-0.17,0.13
					c2.19,4.55,4.67,6.85,9.76,7.22c4.17,0.3,8.24-0.81,9.6-5.1C104.53,174.94,101.19,174.02,100.53,176.14z"/>
				<path class="st7" d="M178.92,135.73c-0.24-2.29-0.69-4.61-1.33-6.99c-0.16-0.6-1.11-0.49-1.09,0.15
					c0.46,14.9-4.36,31.21-18.01,39.07c-7.08,4.08-15.36,4.91-23.31,3.45c-3.11-0.57-6.17-1.47-9.33-1.71
					c-3.67-0.28-7.2,0.72-10.83,0.43c-0.32-0.03-0.39,0.42-0.15,0.57c3.35,2.11,6.69,2.16,10.48,2.72
					c4.56,0.67,8.98,2.06,13.58,2.48c0.9,0.08,1.81,0.13,2.72,0.15c-2.66,0.29-5.24,0.78-7.46,1.95c-0.05,0.03-0.04,0.1,0,0.12
					c5.24,3.17,13.02,1.79,18.73,0.55c6.48-1.41,12.64-4.09,17.76-8.34c4.52-3.75,8.04-8.65,9.72-14.31
					C182.51,148.9,181.1,142.54,178.92,135.73z M166.51,168.63c-4.42,3.21-9.57,5.17-14.88,6.3c3.82-0.96,7.48-2.53,10.77-4.73
					c6.18-4.14,10.99-10.11,13.9-16.94c0.4-0.94,0.75-1.87,1.06-2.8C176.04,157.51,173,163.92,166.51,168.63z"/>
				<path class="st7" d="M208.44,159.74c2.43-12.94,1.44-26.52-3.1-39.38c-0.12-0.35-0.62-0.21-0.56,0.15
					c4.6,25.94,0.33,54.62-18.59,74.12c-8.45,8.7-19.12,15.04-30.97,17.8c-6.64,1.55-13.69,1.99-20.49,1.51
					c-2.74-0.19-7.96-2.13-10.93-0.72c-2.97,0.11-5.74,1.34-7.9,4.27c-5.26,7.15-12.02,12.08-20.55,12.3
					c4.86-4.41,8.01-11.4,5.7-17.6c-0.06-0.17-0.33-0.2-0.38,0c-1.7,7.85-4.39,13.84-12.11,17.38c-1.52,0.7-1.15,3.33,0.48,3.64
					c7.58,1.43,15.35,0.02,21.73-4.43c2.95-2.05,5.18-4.6,7.28-7.49c1.09-1.49,2.1-3.32,3.49-4.56c1.19-1.05,2.44-1.59,3.72-1.81
					c1.33,0.31,2.7,0.99,3.86,1.28c1.96,0.51,4.04,0.81,6.04,1.11c3.34,0.5,6.76,0.68,10.14,0.52c6.43-0.31,12.87-1.67,18.89-3.94
					c5.34-2.02,10.4-4.75,15.06-8.06c6.54-3.79,12.35-9.13,16.85-14.82c3.59-4.54,6.65-9.47,9.05-14.74
					c2.39-5.25,2.75-10.66,3.42-16.31C208.58,159.84,208.52,159.78,208.44,159.74z"/>
				<path class="st7" d="M155.5,108.69c-3.06-2.82-6.29-3.47-10.29-2.48c-0.72,0.18-1.27,0.92-1.26,1.66
					c0.03,3.35-9.42,6.3-11.97,7.17c-4.39,1.49-9.1,2.08-13.73,1.9c-7.6-0.3-15.7-4.38-23.26-2.81c-0.14,0.03-0.11,0.21,0,0.26
					c10.26,3.85,21.72,7.74,32.76,5.71c4.92-0.91,9.47-2.89,13.91-5.13c2.88-1.45,5.78-2.84,5.86-5.86
					c2.58-0.69,5.15-0.75,7.81-0.14C155.49,108.98,155.62,108.8,155.5,108.69z"/>
				<path class="st7" d="M146.85,93.9c-0.39-2.81-2.31-5.17-5.21-5.51c-4.87-0.57-10.28,3-9.36,8.43c0.03,0.16,0.25,0.16,0.33,0.04
					c1.69-2.57,4.16-7.42,8.1-5.8c4.08,1.68,2.74,6.98,1.77,10.25c-0.14,0.47,0.52,0.91,0.86,0.5
					C145.31,99.47,147.3,97.15,146.85,93.9z"/>
				<path class="st7" d="M203.83,64.52c-0.06-0.62-0.69-1.11-1.29-0.74c-0.29,0.18-0.58,0.38-0.86,0.6
					c-0.35-0.93-1.19-1.41-2.72-0.62c-0.02,0.01-0.03,0.04-0.01,0.05c1.48,1.99-1.59,4.46-2.72,6.07c-1.88,2.67-3.54,5.52-4.84,8.52
					c-2.02,4.67-3.16,9.74-1.79,14.75c0.54,1.95,3.54,1.57,3.54-0.48c0-6.2,1.99-12.46,5.06-17.81
					C199.98,71.75,204.22,68.3,203.83,64.52z"/>
				<path class="st8" d="M166.02,75.17c-11.29-6.48-26.24-7.89-38.27-3.02c-5.54,2.25-11,5.57-14.93,10.13
					c-3.24,3.76-7.53,8.69-7.92,13.83c-0.03,0.36,0.41,0.45,0.64,0.27c4.17-3.33,6.95-8.03,11.23-11.42
					c4.25-3.35,8.68-6.4,13.78-8.35c11.75-4.49,23.21-4.37,34.93-0.18C166.23,76.69,166.68,75.55,166.02,75.17z"/>
				<path class="st8" d="M199.15,63.9c-4.42-0.38-7.92,1.98-11.33,4.59c-3.82,2.93-7.99,5.62-11.65,8.72
					c-0.17,0.15-0.03,0.42,0.18,0.43c4.13,0.09,7.55-2.67,10.72-5c3.98-2.93,8.03-5.21,12.42-7.45
					C200.16,64.84,199.77,63.95,199.15,63.9z"/>
				<path class="st8" d="M203.1,138.95c-0.46-6.44-1.88-12.89-3.74-19.07c-1.56-5.18-3.71-12.35-8.54-15.37
					c-0.26-0.16-0.54,0.06-0.56,0.32c-0.53,5.35,2.47,11.36,3.79,16.51c1.56,6.07,2.17,12.21,2.54,18.45
					c0.36,6.21,0.04,12.39-0.82,18.55c-0.88,6.26-0.57,12.47-2.23,18.67c-0.16,0.6,0.74,1.02,1.03,0.43
					c2.84-5.76,6.57-11.79,7.6-18.21C203.24,152.56,203.59,145.69,203.1,138.95z"/>
				<path class="st8" d="M166.67,127.22c-0.17-0.6-1-0.44-1.04,0.14c-0.92,11.92-9.65,20.5-19.77,25.91
					c-8.56,4.58-18.61,6.32-25.64,13.29c-0.23,0.23,0,0.71,0.33,0.57c11.35-4.63,24.16-6.19,34.38-13.35
					C163.53,147.76,169.73,138.07,166.67,127.22z"/>
				<path class="st8" d="M114.91,201.72c-5.71-11.97-19.9-12.19-30.93-9.14c-0.17,0.05-0.19,0.33,0,0.36
					c5.24,0.99,10.84,0.66,15.95,2.13c5.36,1.55,8.54,5.94,13.44,8.18C114.4,203.73,115.41,202.77,114.91,201.72z"/>
				<path class="st8" d="M96.12,174.55c0.26,0.17-0.53-0.55-0.55-0.56c-0.24-0.15-0.55-0.21-0.83-0.29c-0.73-0.22-1.48-0.4-2.18-0.7
					c-1.21-0.53-2.2-1.9-3.53-2.08c-0.5-0.07-1.01,0.11-1.16,0.66c-0.5,1.91,1.52,3.56,2.92,4.49c0.85,0.56,1.76,0.95,2.77,1.12
					c0.5,0.09,1.08,0.2,1.58,0.05c0.3-0.08,0.56-0.24,0.78-0.45c0.29-0.43,0.35-0.49,0.19-0.17
					C96.94,176.16,96.84,175.02,96.12,174.55z"/>
				<path class="st8" d="M96.24,126.06c-2.42,3.5-5.44,7.39-8.34,10.53c-2.63,2.85-6.11,4.9-8.4,8.07
					c-2.77,3.84-3.85,11.88,0.96,14.64c0.34,0.19,0.66-0.06,0.71-0.4c0.52-4.16-0.63-7.1,2.2-10.81c2.01-2.63,4.98-4.19,7.35-6.45
					c4.71-4.47,6.63-8.84,6.63-15.27C97.35,125.74,96.57,125.59,96.24,126.06z"/>
				<path class="st8" d="M135.47,109.63c-8.42,3.15-16.08,2.44-24.62,0.35c-5.65-1.38-11.16-2.31-16.29,0.9
					c-0.29,0.18-0.2,0.73,0.19,0.7c8.19-0.64,15.45,2.39,23.39,3.62c6.64,1.03,12.44-0.36,17.91-4.2
					C136.69,110.55,136.33,109.31,135.47,109.63z"/>
				<path class="st1" d="M131.65,72.14c-10.58,0.36-20.86,9.64-24.13,19.43c-0.05,0.14,0.14,0.19,0.21,0.09
					c3.43-4.5,7.02-8.64,11.6-12.01c3.85-2.84,8.31-4.56,12.52-6.76C132.2,72.7,132.04,72.13,131.65,72.14z"/>
				<path class="st1" d="M134.51,71.39c-0.21,0.01-0.45,0.04-0.64,0.14c-0.23,0.12-0.25,0.3-0.42,0.48
					c-0.12,0.13-0.07,0.35,0.1,0.39c0.14,0.04,0.24,0.18,0.39,0.22c0.19,0.06,0.46,0.06,0.65,0.05c0.38-0.02,0.84-0.24,0.79-0.69
					C135.33,71.56,134.89,71.38,134.51,71.39z"/>
				<path class="st1" d="M190.22,67.73c-2.01-0.31-4.01,1.76-5.49,2.96c-2.41,1.95-4.68,4.02-7.56,5.27
					c-0.26,0.11-0.06,0.47,0.18,0.43c2.75-0.52,4.95-1.81,7.23-3.38c1.16-0.8,2.25-1.69,3.4-2.51c0.98-0.7,1.97-1.08,2.46-2.2
					C190.53,68.09,190.49,67.77,190.22,67.73z"/>
				<path class="st1" d="M193.7,66.2c-0.37-0.1-0.64,0.01-0.98,0.15c-0.39,0.15-0.52,0.3-0.8,0.6c-0.12,0.12-0.03,0.31,0.13,0.32
					c0.45,0.03,0.65,0.03,1.08-0.13c0.32-0.13,0.55-0.23,0.74-0.53C193.97,66.46,193.87,66.25,193.7,66.2z"/>
				<path class="st1" d="M194.41,110.42c-0.17-0.24-0.62-0.11-0.51,0.22c2.7,8.49,5.6,16.27,6.51,25.23
					c0.83,8.12,0.67,16.75,0.14,24.89c-0.03,0.39,0.6,0.48,0.69,0.09C204.87,144.93,204.27,124.28,194.41,110.42z"/>
				<path class="st1" d="M200.5,163.19c-0.06-0.01-0.12-0.02-0.18-0.03c-0.01,0-0.02,0-0.04,0c-0.38-0.04-0.68,0.29-0.8,0.61
					c-0.22,0.61-0.32,1.1,0.08,1.65c0.18,0.25,0.5,0.38,0.79,0.21c0.65-0.4,0.73-0.91,0.76-1.63
					C201.13,163.64,200.85,163.26,200.5,163.19z"/>
				<path class="st1" d="M157.57,147.21c-2.7,1.65-5.05,3.77-7.84,5.3c-3.28,1.8-6.81,3.01-10.32,4.27
					c-5.62,2.03-11.25,3.94-15.84,7.88c-0.11,0.09,0.03,0.23,0.14,0.18c7.07-3.21,14.53-5.09,21.7-7.99
					c4.72-1.92,10.27-4.34,12.73-9.06C158.33,147.43,157.95,146.98,157.57,147.21z"/>
				<path class="st1" d="M161,143.06c-0.54,0.41-0.96,1.09-1.05,1.76c-0.04,0.29,0.28,0.41,0.5,0.38c0.73-0.1,1.37-0.95,1.36-1.68
					C161.8,143.16,161.34,142.81,161,143.06z"/>
				<path class="st1" d="M91,133.38c0.09-0.39-0.42-0.6-0.64-0.27c-4.55,6.79-17.92,13.64-11.85,23.43c0.09,0.14,0.37,0.1,0.35-0.09
					c-0.76-6.62,2.15-10.06,6.52-14.45C87.85,139.52,90.2,136.89,91,133.38z"/>
				<path class="st1" d="M93.49,129.86c-0.11-0.32-0.46-0.38-0.71-0.19c-0.44,0.34-0.54,0.86-0.74,1.35
					c-0.1,0.24,0.2,0.52,0.43,0.43C93.14,131.2,93.74,130.63,93.49,129.86z"/>
				<path class="st1" d="M91.36,173.64c-0.25-0.2-0.5-0.44-0.76-0.62c-0.21-0.15-0.4-0.15-0.65-0.16c-0.13,0-0.27,0.12-0.26,0.26
					c0.02,0.25,0.03,0.43,0.18,0.63c0.19,0.26,0.45,0.48,0.67,0.71c0.18,0.2,0.48,0.21,0.71,0.09c0.16-0.08,0.2-0.19,0.27-0.35
					C91.58,174.03,91.5,173.75,91.36,173.64z"/>
				<path class="st1" d="M93.21,174.47c-0.39-0.28-0.74-0.17-1.13,0.05c-0.25,0.14-0.2,0.46,0,0.61c0.26,0.19,0.33,0.35,0.66,0.46
					C93.44,175.81,93.74,174.85,93.21,174.47z"/>
				<path class="st1" d="M100.76,192.28c-1.82-1.33-4.58-0.99-6.76-0.95c-2.47,0.04-5.21,0.15-7.55,1c-0.28,0.1-0.17,0.51,0.12,0.45
					c2.72-0.56,5.77-0.09,8.53,0.07c1.92,0.11,3.86,0.69,5.65-0.09C100.97,192.67,100.91,192.39,100.76,192.28z"/>
				<path class="st1" d="M104.23,192.93c-0.52-0.12-0.95-0.07-1.47,0c-0.24,0.03-0.26,0.41-0.07,0.51c0.48,0.26,0.86,0.43,1.4,0.5
					C104.67,194.02,104.79,193.06,104.23,192.93z"/>
				<path class="st1" d="M111.25,196.68c-0.49-0.35-1.01-0.65-1.54-0.95c-0.6-0.34-1.17-0.42-1.81-0.65
					c-0.28-0.1-0.53,0.32-0.3,0.51c0.51,0.41,0.89,0.9,1.4,1.31c0.47,0.38,0.9,0.79,1.36,1.18c0.39,0.34,1.59,1.37,2.11,0.66
					C113,198.01,111.72,197.01,111.25,196.68z"/>
				<g>
					<g>
						<g>
							<path class="st9" d="M99.54,163.2c0.32,1.76,0.64,3.52,0.94,5.28c0.51,1.58,1.39,3.19,1.65,4.78c2.03,1.07,3.54,2.53,3.41,5
								c3.15-0.92,6.09-1.89,9-3.33c-2.1-1.49-1.43-5.02,0.14-7.95c0.14-0.29,0.31-0.56,0.48-0.84c-0.5,0.27-1.01,0.52-1.57,0.71
								C108.81,168.55,102.94,166.92,99.54,163.2z"/>
							<path class="st9" d="M119.56,161.72c0.61-0.42,1.23-0.8,1.86-1.13c3.33-1.75,6.81-3.11,10.27-4.51
								c-1.82-5.22-3.66-10.23-6.66-14.92c-1.08-1.69-2.31-3.26-3.57-4.8c-1.36,2.02-2.97,4.09-4.85,5.61
								c1.77,2.29,3.21,4.79,4.05,7.67C121.83,153.59,121.53,158.17,119.56,161.72z"/>
							<path class="st9" d="M94.94,160.27c-0.09,0.57-0.19,1.14-0.28,1.71c0.04,0.76-0.13,1.56-0.24,2.33
								c-0.22,1.52-0.55,3.03-0.93,4.52c0.98,1.65,3.92,2.45,6.66,3.54c-0.53-1.15-0.77-2.6-1.04-3.62
								c-0.4-1.52-0.74-3.18-0.84-4.83c-0.24-1.25-0.47-2.5-0.7-3.75c-0.14-0.76,0.92-1.32,1.31-0.55
								c3.58,7.02,14.76,8.52,19.07,1.27c3.8-6.39,0.35-14.12-3.98-19.2c-3.27-3.84-7.23-7.05-10.59-10.83
								c-1.85-2.09-3.52-4.5-5.52-6.44c-1.28-1.24-1.82-1.52-2.46-1.06c-3.41,7.27-11.39,11.5-16.5,17.47
								c-4.55,5.32-7.26,12.61-3.54,19.2c4.36,7.72,13.72,6.16,18.58-0.15C94.33,159.36,95.04,159.64,94.94,160.27z"/>
							<path class="st9" d="M131.26,135.21c-2.99,0.06-6.08-0.55-8.93-1.74c5.89,5.71,10.01,14.57,11.25,21.85
								c3.56-1.47,7.08-3.05,10.37-5.22c8.2-5.41,15.34-13.73,16.33-23.86c0.42-4.23-0.24-8.63-2.16-12.45
								c-2.95-5.88-7.64-7.84-13.6-6.96c0.99,1.12,1.34,2.38,1.14,4.17c-0.09,0.78-0.75,1.16-1.47,0.84
								c-3.4-1.47-9.2,3.75-12.43,4.86c-3.4,1.17-7.02,1.69-10.61,1.74c-9.06,0.13-17.22-4.46-26.09-4.41
								c2.58,2.75,6.39,4.95,9.36,6.75c4.48,2.71,9.5,5.53,13.8,9.04c4.2,2.07,8.41,3.69,13.1,4.9
								C131.6,134.81,131.53,135.21,131.26,135.21z"/>
							<path class="st9" d="M101.34,174.12c-0.57-0.26-1.14-0.52-1.72-0.78c-0.73-0.27-1.49-0.45-2.24-0.67
								c-1.42-0.4-3.83-0.7-4.88-1.93c-0.86-1-0.69-1.9-0.21-2.84c0.07-0.29,0.14-0.58,0.21-0.87c-5.61,1.44-11.01,8.57-4.46,12.84
								c2.08,1.36,4.78,2.13,7.26,2.25c1.38,0.07,2.84-0.02,4.19-0.33c1.78-0.41,3.47-1.38,3.9-3.31c0.02-0.08,0.03-0.15,0.04-0.23
								C103.69,176.65,102.88,174.73,101.34,174.12z"/>
							<path class="st9" d="M205.9,124.42c-2.04-6.28-4.9-12.15-7.68-18.07c-1.12-2.02-2.27-4.04-3.41-6.09
								c-0.16-0.28-0.29-0.56-0.43-0.84c-0.64-0.96-1.28-1.93-1.91-2.89c-1.76-2.67-4.01-5.11-5.23-8.08
								c-0.02-0.04,0.04-0.07,0.07-0.05c1.95,1.16,3.62,2.82,5.07,4.73c-0.68-4.76,0.37-9.59,2.66-14.25
								c1.13-2.3,2.53-4.44,3.98-6.55c1-1.45,3.23-3.62,3.58-5.36c1.47-7.25-13.35-0.33-16.1,1.21c-3.51,1.96-9.08,7.31-13.97,7.71
								c2.71,2.07,5.24,4.47,7.68,7.23c0.08,0.09-0.04,0.21-0.13,0.13C166.8,71.8,148.4,66.1,131.18,70.35
								c-7.56,1.87-15.21,5.48-20.7,11.11c-3.8,3.91-6.25,8.99-9.63,13.23c-1.43,3.28-5.27,5.14-7.21,8.28
								c-2.64,4.27-1.49,7.79,1.09,10.71c3.5-1.93,7.24-0.25,10.99,0.58c5.28,1.17,10.81,2.06,16.24,1.83
								c5.91-0.25,10.79-2.08,15.77-5.17c2.08-1.29,3.62-1.97,5.51-1.54c-0.27-0.74-0.54-1.47-0.82-2.21
								c-0.02-0.02-0.03-0.05-0.05-0.07c-0.65-0.22-0.8-1.27,0.02-1.51c17.84-5.16,23.06,17.02,17.1,29.87
								c-3.86,8.31-11.11,14.47-19.02,18.78c-8.19,4.45-23.09,6.34-24.87,16.73c0.35,0.75,1.09,1.31,2.41,1.54
								c-0.26-0.05,3.87-0.44,3.68-0.44c3.55,0.03,6.92,1.29,10.34,2.09c8.5,1.98,17.09,1.47,25.18-1.9
								c7.88-3.28,15.1-9.06,18.23-17.22c2.85-7.4,2.85-16.7,2.63-24.55c-0.01-0.22,0.3-0.2,0.33,0c0.97,7.9,1.94,15.77-0.18,23.17
								c0.07,8.78,6.52,16.47,5.04,25.4c-0.75,4.54-4.01,11.51-9.4,11.54c-2.06,0.01-4.04-0.7-6.08-1.01
								c-2.88-0.44-5.57,0.53-7.68,2.49c-0.75,0.7-1.41,1.49-2.11,2.24c-2.54,2.74-5.22,5.31-8.32,7.42
								c-7.03,4.78-15.07,6.49-23.46,6.14c-0.58-0.02-0.94-0.91-0.32-1.19c9.92-4.46,15.07-18.48,12.31-28.87
								c-0.83-0.03-1.65-0.08-2.47-0.16c0.81,8.99-0.91,27.86-13.73,24.44c-6.93-1.85-10.57-9.29-17.23-11.82
								c-3.96-1.5-8.35-1.57-12.5-1.11c-2.45,0.27-13.78,1.78-14.11,5.49c2.26,1.15,5.82,0.26,8.21,1.16
								c1.5,0.57,2.77,1.46,3.96,2.51c1.92,1.69,3.14,3.77,4.63,5.83c2.41,3.34,4.83,4.76,8.86,5.59c0.39,0.08,0.46,0.68,0.11,0.86
								c-0.11,0.06-0.21,0.09-0.32,0.14c-0.06,0.11-0.15,0.21-0.27,0.26c-2.93,1.2-3.07,6.64-4.21,9.28
								c-0.9,2.09-2.09,4.11-3.71,5.73c-1.6,1.6-3.93,2.06-5.49,3.43c-1.91-0.02-2.27,0.81-1.08,2.48c0.51,0.15,1.01,0.31,1.52,0.46
								c1.62,0.97,4.31,0.79,6.21,0.83c7.92,0.17,16.25-3.04,19.95-10.45c0.6-1.21,1.07-2.44,1.61-3.52
								c2.24-8.65,19.19-1.24,24.23-1.02c14.86,0.65,32.34-7.26,43.49-16.81c16.9-14.47,24.71-35.67,24.14-57.04
								C209.39,137.59,208,130.88,205.9,124.42z M142.45,101.08c-2.43,3.72-7.62,2.32-9.27-1.35c-0.37-0.82-0.48-2.29-0.26-3.72
								c0.04-0.91,0.32-1.76,0.88-2.55c0.05-0.07,0.1-0.15,0.15-0.21c0.07-0.09,0.15-0.18,0.22-0.26c0.03-0.03,0.05-0.06,0.08-0.09
								c0.1-0.11,0.19-0.22,0.3-0.33c1.29-1.25,3.25-1.85,5.02-1.47C144.18,92.07,144.68,97.66,142.45,101.08z"/>
							<path class="st9" d="M128.79,206.65c8.39-0.1,16.65-3.12,23.11-8.53c4.15-3.48,7.67-9.88,13.45-10.74
								c3.79-0.56,7.27,2.11,11.17,0.27c4.71-2.23,5.43-10.79,4.58-15.09c-1.08-5.5-3.76-10.37-3.96-15.77
								c-0.68,1.62-1.52,3.21-2.59,4.77c-5.43,7.93-14.48,12.96-23.69,15.11c-3.75,0.88-7.7,1.27-11.6,1.19
								c2.15,5.6,0.37,13.37-1.8,18.58C135.64,200.79,132.76,204.34,128.79,206.65z"/>
							<path class="st9" d="M138.23,92.25c-2.05,0.11-3.41,1.62-4.16,3.39c-0.19,1.14,0.02,2.34,0.52,3.38
								c1.44,3.05,5.4,3.77,7.08,0.45C143.11,96.64,142.15,92.05,138.23,92.25z M139.77,98.71c-0.29,0.71-0.8,1.3-1.63,1.46
								c-2.83,0.55-3.78-3.27-2.53-5.19c0.61-0.94,1.68-1.35,2.68-1c0.17,0.04,0.34,0.1,0.49,0.21c0.18,0.12,0.33,0.26,0.47,0.4
								c0.49,0.46,0.83,1.06,0.94,1.73C140.34,97.13,140.21,98,139.77,98.71z"/>
							<path d="M139.58,91.08c-1.76-0.38-3.73,0.22-5.02,1.47c-0.11,0.11-0.2,0.22-0.3,0.33c-0.03,0.03-0.06,0.06-0.08,0.09
								c-0.08,0.09-0.15,0.17-0.22,0.26c-0.05,0.07-0.1,0.14-0.15,0.21c-0.56,0.79-0.84,1.64-0.88,2.55
								c-0.21,1.43-0.1,2.91,0.26,3.72c1.65,3.68,6.84,5.07,9.27,1.35C144.68,97.66,144.18,92.07,139.58,91.08z M141.67,99.47
								c-1.69,3.32-5.64,2.61-7.08-0.45c-0.49-1.04-0.71-2.24-0.52-3.38c0.75-1.78,2.11-3.28,4.16-3.39
								C142.15,92.05,143.11,96.64,141.67,99.47z"/>
							<path d="M139.25,94.58c-0.14-0.14-0.29-0.27-0.47-0.4c-0.15-0.1-0.32-0.16-0.49-0.21c-1-0.35-2.07,0.07-2.68,1
								c-1.25,1.92-0.3,5.74,2.53,5.19c0.83-0.16,1.34-0.75,1.63-1.46c0.44-0.71,0.57-1.58,0.43-2.4
								C140.08,95.65,139.74,95.04,139.25,94.58z"/>
							<path d="M206.67,120.81c-2.05-6.49-4.81-12.65-8.44-18.57c-3.68-6-5.57-11.71-3.18-18.72c1.82-5.35,5.25-9.59,8.24-14.28
								c0.89-1.4,3.35-4.49,2.13-6.38c-1.11-1.73-4.71-1.16-6.19-1c-4.56,0.49-8.84,2.2-12.84,4.38
								c-4.51,2.45-10.26,8.14-15.75,8.27c-3.3-2.26-6.92-4.06-11.07-5.42c-8.49-2.78-17.69-3.28-26.45-1.59
								c-7.78,1.5-15.13,4.81-21.12,10.03c-5.92,5.17-9.87,12.04-13.96,18.68c-2.8,2.6-6.24,4.55-7.71,8.37
								c-1.74,4.54,0.42,8.88,3.8,11.99c4.94,4.55,11.37,7.44,16.99,11.02c2.84,1.8,5.39,3.65,7.78,5.68
								c0.47,0.57,0.94,1.13,1.41,1.7c-0.27,0.41-0.55,0.82-0.84,1.21c-0.08,0.11-0.16,0.22-0.25,0.33
								c-0.43,0.57-0.88,1.14-1.35,1.68c-0.75,0.85-1.59,1.61-2.39,2.41c-3.54-4.14-8.03-7.63-11.73-11.49
								c-1.39-1.45-5.11-7.77-7.44-7.77c-1.12,0-1.84,1.41-2.36,2.51c-4.84,5.15-10.34,9.41-15.22,14.54
								c-4.59,4.82-8.08,10.99-6.81,17.88c0.96,5.16,4.73,10.08,10.1,11c3.93,0.67,8.55-0.93,11.19-4.03
								c-0.05,0.34-0.1,0.69-0.16,1.02c-0.08,0.43-0.17,0.86-0.26,1.29c-4.89,0.83-9.67,4.77-9.14,10.18
								c0.47,4.91,6.1,7.21,10.38,7.79c3.37,0.46,9.67,0.07,11.17-3.74c0.38-0.03,0.76-0.06,1.14-0.11
								c0.39-0.04,0.78-0.09,1.17-0.17c1.41-0.25,2.82-0.62,4.21-1.07c2.33-0.61,4.35-1.39,6.42-2.77c0.04-0.03,0.08-0.06,0.11-0.09
								c1.13-0.16,2.28-0.52,3.43-0.52c2.14,0.01,4.2,0.59,6.26,1.08c2,0.48,4,1,6.03,1.31c1.13,10.46-2.86,31.47-17.29,19.54
								c-5.22-4.32-9.16-8.45-16.21-9.43c-6.05-0.84-13.84,0.07-19.41,2.69c-1.22,0.57-5.47,3.04-4.03,4.71
								c0.22,0.99,0.94,1.43,2.19,1.81c1.95,0.6,4.01-0.4,6.09,0.23c3.12,0.94,4.98,3.38,6.72,5.95c1.92,2.84,4.83,7.57,8.53,8.23
								c-2.23,2.16-2.2,6.77-3.63,9.56c-2.28,4.46-5.42,6.14-9.97,7.7c-1.61,0.55-2.19,0.62-2.8,2.18
								c-0.11,0.29,0.02,0.67,0.23,0.88c5.24,5.11,16.57,4.2,22.78,1.79c3.48-1.35,6.6-3.55,8.91-6.49
								c2.34-2.98,3.05-7.08,5.99-9.36c5.28-2.19,14.52,2.29,19.41,2.62c6.55,0.45,13.14-0.94,19.3-3.06
								c13.42-4.63,25.81-11.89,34.76-23.05C211.96,173.5,217.05,145.03,206.67,120.81z M118.23,129.84
								c-4.3-3.51-9.32-6.33-13.8-9.04c-2.97-1.8-6.78-4-9.36-6.75c8.87-0.06,17.03,4.54,26.09,4.41c3.59-0.05,7.21-0.57,10.61-1.74
								c3.23-1.11,9.03-6.34,12.43-4.86c0.72,0.31,1.38-0.06,1.47-0.84c0.21-1.79-0.14-3.05-1.14-4.17
								c5.96-0.88,10.65,1.08,13.6,6.96c1.92,3.82,2.57,8.22,2.16,12.45c-1,10.12-8.14,18.45-16.33,23.86
								c-3.29,2.17-6.81,3.75-10.37,5.22c-1.24-7.28-5.36-16.14-11.25-21.85c2.85,1.19,5.94,1.81,8.93,1.74
								c0.27-0.01,0.33-0.41,0.06-0.48C126.64,133.52,122.43,131.9,118.23,129.84z M121.47,136.37c1.26,1.54,2.49,3.11,3.57,4.8
								c3,4.7,4.83,9.71,6.66,14.92c-3.46,1.39-6.94,2.75-10.27,4.51c-0.62,0.33-1.25,0.71-1.86,1.13
								c1.97-3.55,2.26-8.14,1.11-12.08c-0.84-2.88-2.29-5.38-4.05-7.67C118.51,140.46,120.11,138.39,121.47,136.37z M75.36,160.01
								c-3.72-6.59-1.01-13.89,3.54-19.2c5.11-5.97,13.09-10.2,16.5-17.47c0.64-0.46,1.18-0.18,2.46,1.06
								c2,1.94,3.67,4.35,5.52,6.44c3.35,3.78,7.31,6.99,10.59,10.83c4.33,5.09,7.79,12.81,3.98,19.2
								c-4.31,7.25-15.49,5.75-19.07-1.27c-0.39-0.77-1.45-0.2-1.31,0.55c0.23,1.25,0.46,2.5,0.7,3.75
								c0.11,1.65,0.44,3.31,0.84,4.83c0.27,1.02,0.5,2.47,1.04,3.62c-2.74-1.09-5.68-1.89-6.66-3.54c0.38-1.49,0.71-3,0.93-4.52
								c0.11-0.77,0.28-1.56,0.24-2.33c0.09-0.57,0.19-1.13,0.28-1.71c0.1-0.63-0.61-0.91-0.99-0.42
								C89.09,166.17,79.72,167.72,75.36,160.01z M103.45,178.25c-0.01,0.08-0.03,0.16-0.04,0.23c-0.43,1.93-2.12,2.9-3.9,3.31
								c-1.35,0.31-2.81,0.4-4.19,0.33c-2.48-0.12-5.18-0.89-7.26-2.25c-6.55-4.28-1.15-11.4,4.46-12.84
								c-0.07,0.29-0.14,0.58-0.21,0.87c-0.48,0.93-0.65,1.83,0.21,2.84c1.05,1.23,3.46,1.53,4.88,1.93
								c0.75,0.21,1.51,0.39,2.24,0.67c0.57,0.26,1.14,0.52,1.72,0.78C102.88,174.73,103.69,176.65,103.45,178.25z M114.69,166.98
								c-1.57,2.93-2.24,6.46-0.14,7.95c-2.91,1.44-5.85,2.41-9,3.33c0.13-2.47-1.39-3.93-3.41-5c-0.26-1.6-1.14-3.21-1.65-4.78
								c-0.3-1.76-0.62-3.52-0.94-5.28c3.4,3.72,9.27,5.35,14.05,3.66c0.56-0.2,1.08-0.45,1.57-0.71
								C114.99,166.42,114.83,166.69,114.69,166.98z M185.87,201.41c-11.16,9.55-28.63,17.46-43.49,16.81
								c-5.03-0.22-21.98-7.63-24.23,1.02c-0.54,1.08-1,2.31-1.61,3.52c-3.7,7.41-12.03,10.63-19.95,10.45
								c-1.9-0.04-4.59,0.14-6.21-0.83c-0.51-0.15-1.01-0.31-1.52-0.46c-1.19-1.67-0.83-2.49,1.08-2.48
								c1.56-1.37,3.89-1.83,5.49-3.43c1.62-1.62,2.81-3.64,3.71-5.73c1.14-2.65,1.28-8.09,4.21-9.28c0.12-0.05,0.22-0.15,0.27-0.26
								c0.11-0.05,0.21-0.08,0.32-0.14c0.35-0.18,0.28-0.78-0.11-0.86c-4.03-0.82-6.45-2.25-8.86-5.59
								c-1.49-2.06-2.7-4.14-4.63-5.83c-1.19-1.05-2.46-1.95-3.96-2.51c-2.39-0.9-5.94-0.01-8.21-1.16
								c0.32-3.71,11.66-5.22,14.11-5.49c4.15-0.46,8.54-0.4,12.5,1.11c6.66,2.53,10.3,9.97,17.23,11.82
								c12.82,3.42,14.54-15.45,13.73-24.44c0.82,0.08,1.64,0.12,2.47,0.16c2.76,10.39-2.39,24.42-12.31,28.87
								c-0.62,0.28-0.26,1.16,0.32,1.19c8.39,0.35,16.43-1.36,23.46-6.14c3.1-2.1,5.78-4.67,8.32-7.42
								c0.69-0.75,1.36-1.54,2.11-2.24c2.1-1.96,4.8-2.93,7.68-2.49c2.03,0.31,4.02,1.02,6.08,1.01c5.39-0.03,8.65-7,9.4-11.54
								c1.48-8.93-4.97-16.62-5.04-25.4c2.12-7.4,1.14-15.27,0.18-23.17c-0.02-0.2-0.33-0.22-0.33,0
								c0.22,7.85,0.21,17.15-2.63,24.55c-3.14,8.16-10.35,13.93-18.23,17.22c-8.09,3.37-16.68,3.88-25.18,1.9
								c-3.42-0.8-6.78-2.06-10.34-2.09c0.19,0-3.94,0.4-3.68,0.44c-1.32-0.23-2.06-0.79-2.41-1.54
								c1.78-10.39,16.68-12.27,24.87-16.73c7.92-4.31,15.17-10.47,19.02-18.78c5.96-12.84,0.74-35.03-17.1-29.87
								c-0.82,0.24-0.67,1.29-0.02,1.51c0.02,0.02,0.02,0.05,0.05,0.07c0.27,0.74,0.54,1.47,0.82,2.21
								c-1.89-0.44-3.43,0.25-5.51,1.54c-4.98,3.08-9.86,4.92-15.77,5.17c-5.43,0.23-10.95-0.67-16.24-1.83
								c-3.75-0.83-7.49-2.51-10.99-0.58c-2.59-2.92-3.73-6.44-1.09-10.71c1.94-3.14,5.78-5,7.21-8.28
								c3.38-4.24,5.82-9.32,9.63-13.23c5.48-5.64,13.14-9.25,20.7-11.11c17.23-4.25,35.63,1.45,48.89,12.9
								c0.09,0.08,0.21-0.04,0.13-0.13c-2.45-2.77-4.97-5.16-7.68-7.23c4.89-0.41,10.46-5.75,13.97-7.71
								c2.75-1.54,17.57-8.47,16.1-1.21c-0.35,1.74-2.58,3.91-3.58,5.36c-1.45,2.11-2.84,4.25-3.98,6.55
								c-2.3,4.65-3.35,9.49-2.66,14.25c-1.45-1.91-3.13-3.56-5.07-4.73c-0.03-0.02-0.09,0.01-0.07,0.05
								c1.22,2.97,3.47,5.41,5.23,8.08c0.64,0.96,1.28,1.93,1.91,2.89c0.14,0.28,0.28,0.56,0.43,0.84c1.15,2.05,2.29,4.07,3.41,6.09
								c2.79,5.92,5.64,11.79,7.68,18.07c2.1,6.46,3.49,13.18,4.11,19.95C210.58,165.74,202.77,186.94,185.87,201.41z
								 M139.26,177.85c3.9,0.08,7.84-0.31,11.6-1.19c9.21-2.15,18.26-7.18,23.69-15.11c1.07-1.56,1.91-3.15,2.59-4.77
								c0.2,5.4,2.89,10.27,3.96,15.77c0.84,4.31,0.13,12.87-4.58,15.09c-3.89,1.84-7.38-0.83-11.17-0.27
								c-5.78,0.86-9.3,7.26-13.45,10.74c-6.46,5.41-14.71,8.43-23.11,8.53c3.97-2.31,6.85-5.86,8.67-10.22
								C139.64,191.22,141.42,183.44,139.26,177.85z"/>
						</g>
						<path d="M158.94,81.58c-5.09-5.8-15.78-5.36-22.24-2.68c-6.9,2.87-11.91,8.98-12.57,16.43c-0.06,0.39-0.12,0.79-0.16,1.2
							c-0.05,0.49,0.71,0.56,0.84,0.11c2.3-7.85,12.12-11.92,19-7.8c3.08,1.85,5.86,5.27,9.68,5.49
							C160.19,94.73,162.94,86.14,158.94,81.58z M150.6,91.73c-1.5-0.55-2.91-2.03-4.2-2.95c-4.37-3.14-9.4-4.64-14.46-2.08
							c-1.87,0.95-3.74,2.52-5.13,4.16c3.23-5.59,8.26-9.93,14.93-11.22c4.34-0.84,9.99-0.62,13.78,1.89
							C160.01,84.49,160.85,95.49,150.6,91.73z"/>
					</g>
					<path class="st1" d="M139.33,95.65c-0.05-0.24-0.14-0.44-0.32-0.65c-0.39-0.44-1.1-0.37-1.5,0c-0.49,0.46-0.51,1.27,0,1.72
						c0.39,0.35,0.84,0.38,1.3,0.17c0.02-0.01,0.05-0.02,0.07-0.03C139.38,96.63,139.47,96.11,139.33,95.65z"/>
				</g>
			</g>
			<path class="st1" d="M122.66,148.27c-0.88-3.97-2.81-7.8-5.21-10.89c-0.36-0.47-0.82-0.96-1.41-0.98
				c-0.97-0.03-1.56,0.87-2.55,0.3c-0.28-0.16-0.52-0.51-0.9-0.44c-0.39,0.07-0.6,0.54-0.3,0.85c0.59,0.6,1.19,1.21,1.78,1.82
				c1.71,1.88,3.23,3.91,4.57,6.06c0.68,1.43,1.22,2.95,1.63,4.48c0.26,0.97,0.48,1.95,0.68,2.94c0.2,0.99,0.44,2.01,0.5,3.02
				c0.01,0.17,0,0.32-0.01,0.48c-0.02,0.19-0.03,0.38-0.05,0.57c-0.1,0.63-0.28,1.24-0.49,1.87c-0.38,1.15-0.96,2.27-1.41,3.4
				c0.11-0.28,1.01-0.73,1.26-0.98c0.4-0.4,0.75-0.85,1.04-1.34c0.58-0.99,0.86-2.31,1.08-3.43
				C123.35,153.49,123.23,150.85,122.66,148.27z"/>
			<path class="st1" d="M115.12,165.94c-0.49,0.26-1.1,0.5-1.28,0.58c-0.72,0.32-1.48,0.55-2.26,0.7c-1.64,0.31-3.17,0.18-4.74-0.35
				c-2.49-0.85-5.07-1.86-6.8-3.93c-0.34-0.4-0.95,0.03-0.84,0.49c0.4,1.6,0.79,3.2,1.2,4.8c0.24,0.93,0.49,1.85,0.7,2.78
				c0.13,0.58,0.2,1.61,0.63,2.05c0.1,0.1,0.23,0.17,0.35,0.24c1.27,0.72,2.61,1.62,3.24,2.98c-0.12-0.26-0.11-0.58-0.2-0.85
				c-0.13-0.41-0.32-0.8-0.47-1.2c-0.32-0.81-0.71-1.61-0.96-2.44c-0.22-0.71-0.73-1.3-0.84-2.06c-0.11-0.72,0.18-1.54,0.84-1.83
				c0.74-0.32,1.52-0.01,2.23,0.19c0.88,0.25,1.79,0.38,2.7,0.41c1.8,0.06,3.61-0.3,5.24-1.07c0.89-0.42,1.81-1.08,1.94-2.05
				C115.79,165.54,115.49,165.74,115.12,165.94z"/>
			<path d="M134.94,154.78l-6.97,2.77c-2.09,0.83-4.2,1.63-6.21,2.66c-0.76,0.39-1.5,0.82-2.22,1.29c0.39-0.7,0.68-1.44,0.91-2.2
				c0.08-0.04,0.16-0.1,0.22-0.21c2.03-4.03,0.73-8.63-1.15-12.45c-1.83-3.72-4.49-7-7.65-9.69c-0.49-0.42-1.2,0.29-0.71,0.71
				c2.94,2.5,5.43,5.5,7.21,8.93c1.22,2.35,2.29,5.12,2.33,7.84c-0.23,0.02-0.47,0.17-0.5,0.47c-0.22,2.07-0.45,4.23-1.5,6.07
				c-1.01,1.76-2.56,3.47-4.44,4.3c-3.34,1.47-7.64,0.89-10.82-0.73c-1.82-0.92-3.4-2.25-4.53-3.95c-0.36-0.53-1.22-0.03-0.86,0.5
				c0.11,0.16,0.23,0.3,0.35,0.46c-0.13,0.11-0.22,0.27-0.18,0.49c0.7,3.58,1.6,7.1,2.7,10.58c-0.46,0.02-0.77,0.68-0.27,0.91
				c1.49,0.68,3.5,1.51,4.37,3c0.99,1.71-0.21,3.63-1.67,4.58c-3.13,2.04-7.45,2.14-10.92,1.05c-0.61-0.19-0.88,0.77-0.27,0.96
				c2.14,0.68,4.4,0.88,6.63,0.57c2.04-0.28,4.22-0.93,5.82-2.28c1.42-1.21,2.26-3.26,1.45-5.05c-0.7-1.55-2.38-2.51-3.94-3.25
				c-1.1-3.41-2.01-6.87-2.73-10.38c2.22,2.32,5.26,3.76,8.46,4.19c2.06,0.28,4.26,0.2,6.24-0.51c0.26-0.09,0.51-0.2,0.75-0.31
				c-0.49,0.77-0.9,1.59-1.19,2.48c-0.71,2.16-0.7,4.53,0.92,6.28c0.44,0.47,1.14-0.24,0.71-0.71c-2.74-2.95,0.01-7.62,2.35-9.89
				c2.87-2.78,6.74-4.2,10.38-5.65c2.4-0.95,4.8-1.91,7.2-2.86C135.79,155.51,135.54,154.54,134.94,154.78z"/>
		</g>
		<g>
			<g>
				<g>
					<g>
						<path d="M76.71,31.98h2.22v2.49l-1.2-0.02l0.71,1.71c0.18,0.42,0.27,0.55,0.6,0.55c0.27,0,0.69-0.07,0.98-0.11l-0.04,2.86
							l-5-0.04l-2.89,0.04l-0.04-2.86l0.53,0.07c0.6,0.07,0.89,0.11,1.31,0.11l-1.02-2.44c-0.6-0.02-1.09-0.02-1.29-0.02
							c-0.42,0-2.24,0.02-4.02,0.07l-1.02,2.4c0.22,0,0.64-0.04,1.27-0.09l0.53-0.04l-0.04,2.82l-2.93-0.04l-3.06,0.04l-0.04-2.86
							c0.44,0.09,0.73,0.13,0.95,0.13c0.4,0,0.53-0.18,0.69-0.56l0.73-1.73l-1.27,0.02v-3.15c0,0,1.11,0.09,2.53,0.22l1.64-3.82
							c0.98-2.29,1-4.35,1-4.71l4.6,0.44L76.71,31.98z M71.58,31.98h0.31l-1.6-3.86l-1.6,3.69C69.85,31.91,70.93,31.98,71.58,31.98z
							"/>
					</g>
				</g>
			</g>
			<g>
				<g>
					<g>
						<path d="M206.65,251.49h-2.22V249l1.2,0.02l-0.71-1.71c-0.18-0.42-0.27-0.55-0.6-0.55c-0.27,0-0.69,0.07-0.98,0.11l0.04-2.86
							l5,0.04l2.89-0.04l0.04,2.86l-0.53-0.07c-0.6-0.07-0.89-0.11-1.31-0.11l1.02,2.44c0.6,0.02,1.09,0.02,1.29,0.02
							c0.42,0,2.24-0.02,4.02-0.07l1.02-2.4c-0.22,0-0.64,0.04-1.27,0.09l-0.53,0.04l0.04-2.82l2.93,0.04l3.06-0.04l0.04,2.86
							c-0.44-0.09-0.73-0.13-0.95-0.13c-0.4,0-0.53,0.18-0.69,0.56l-0.73,1.73L220,249v3.15c0,0-1.11-0.09-2.53-0.22l-1.64,3.82
							c-0.98,2.29-1,4.35-1,4.71l-4.6-0.44L206.65,251.49z M211.78,251.49h-0.31l1.6,3.86l1.6-3.69
							C213.51,251.56,212.42,251.49,211.78,251.49z"/>
					</g>
				</g>
			</g>
			<g>
				<g>
					<path d="M67.28,56.28c-2.18,0.55-3.64,2.07-3.68,4.02c-0.01,0.73,0.23,1.4,0.78,1.91c0.05,0.05,0.11,0.1,0.15,0.16
						c0.01,0.02,0.02,0.04,0.03,0.08c-0.03,0.01-0.07,0.03-0.1,0.02c-1.63-0.6-3.05-1.49-3.86-3.09c-1.15-2.25-0.96-4.46,0.34-6.6
						c0.45-0.74,1.01-1.38,1.62-2c0.93-0.95,1.85-1.89,2.79-2.83c0.2-0.2,0.27-0.41,0.21-0.69c-0.11-0.56-0.35-1.04-0.67-1.49
						c-0.11-0.16-0.24-0.31-0.35-0.47c-0.21-0.32-0.12-0.59,0.25-0.71c0.62-0.19,1.25-0.18,1.89-0.07c0.47,0.08,0.94,0.18,1.38,0.36
						c0.27,0.1,0.46,0.05,0.65-0.15c0.69-0.71,1.39-1.42,2.09-2.12c0.41-0.41,0.52-0.41,0.94-0.01c1.72,1.63,3.44,3.25,5.15,4.88
						c0.35,0.33,0.74,0.54,1.18,0.71c2.7,1.04,4.35,3.04,5.13,5.78c0.18,0.62,0.3,1.26,0.32,1.91c0.02,0.43-0.1,0.8-0.39,1.11
						c-0.36,0.37-0.55,0.81-0.71,1.3c-0.57,1.73-1.72,2.98-3.34,3.77c-2.08,1.02-4.09,0.87-6.01-0.44c-0.15-0.1-0.3-0.21-0.45-0.31
						c-0.01-0.01-0.02-0.01-0.07-0.02c-0.14,0.51,0.02,0.99,0.2,1.44c0.41,1.04,1.09,1.91,1.82,2.74c0.48,0.56,1.03,1.05,1.58,1.53
						c0.08,0.07,0.18,0.13,0.25,0.21c0.15,0.15,0.39,0.28,0.28,0.54c-0.1,0.24-0.34,0.25-0.57,0.25c-3.21,0-6.42,0-9.63,0
						c-0.21,0-0.44-0.01-0.52-0.25c-0.08-0.23,0.1-0.36,0.25-0.49c1.07-0.87,2.03-1.85,2.75-3.04c0.54-0.9,0.98-1.84,1.01-2.92
						c0.01-0.27,0.1-0.49,0.37-0.58c0.83-0.28,1.49-0.84,2.21-1.3c1.35-0.87,2.76-1.58,4.34-1.91c0.83-0.17,1.66-0.31,2.5-0.36
						c0.68-0.04,1.37-0.11,2.05-0.09c0.19,0.01,0.48,0.01,0.52-0.18c0.04-0.2-0.25-0.21-0.4-0.28c-1.71-0.78-3.5-1.33-5.23-2.06
						c-0.67-0.28-1.39-0.3-2.09-0.13c-0.68,0.17-1.24,0.5-1.59,1.19c-0.73,1.44-1.67,2.74-3,3.7c-1.01,0.73-2.1,1.25-3.38,1.26
						c-0.09,0-0.17,0-0.26-0.01c-0.77-0.11-0.93-0.41-0.56-1.08c0.55-0.97,1.13-1.92,1.69-2.89C67.19,56.5,67.28,56.42,67.28,56.28z
						 M75.09,52.89c0.62,0.02,1.29-0.16,1.96-0.35c0.43-0.12,0.46-0.18,0.21-0.56c-0.96-1.43-3.49-1.93-5.12-1.03
						c-0.5,0.28-0.53,0.51-0.08,0.88C72.91,52.55,73.88,52.91,75.09,52.89z M78.98,53.62c0-0.33-0.26-0.61-0.52-0.6
						c-0.24,0.01-0.34,0.15-0.33,0.39c0.01,0.28,0.24,0.55,0.49,0.55C78.85,53.95,78.97,53.81,78.98,53.62z"/>
				</g>
			</g>
			<g>
				<g>
					<path d="M216.46,227.18c2.18-0.55,3.64-2.07,3.68-4.02c0.01-0.73-0.23-1.4-0.78-1.91c-0.05-0.05-0.11-0.1-0.15-0.16
						c-0.01-0.02-0.02-0.04-0.03-0.08c0.03-0.01,0.07-0.03,0.1-0.02c1.63,0.6,3.05,1.49,3.86,3.09c1.15,2.25,0.96,4.46-0.34,6.6
						c-0.45,0.74-1.01,1.38-1.62,2c-0.93,0.95-1.85,1.89-2.79,2.83c-0.2,0.2-0.27,0.41-0.21,0.69c0.11,0.56,0.35,1.04,0.67,1.49
						c0.11,0.16,0.24,0.31,0.35,0.47c0.21,0.32,0.12,0.59-0.25,0.71c-0.62,0.19-1.25,0.18-1.89,0.07c-0.47-0.08-0.94-0.18-1.38-0.36
						c-0.27-0.1-0.46-0.05-0.65,0.15c-0.69,0.71-1.39,1.42-2.09,2.12c-0.41,0.41-0.52,0.41-0.94,0.01
						c-1.72-1.63-3.44-3.25-5.15-4.88c-0.35-0.33-0.74-0.54-1.18-0.71c-2.7-1.04-4.35-3.04-5.13-5.78c-0.18-0.62-0.3-1.26-0.32-1.91
						c-0.02-0.43,0.1-0.8,0.39-1.11c0.36-0.37,0.55-0.81,0.71-1.3c0.57-1.73,1.72-2.98,3.34-3.77c2.08-1.02,4.09-0.87,6.01,0.44
						c0.15,0.1,0.3,0.21,0.45,0.31c0.01,0.01,0.02,0.01,0.07,0.02c0.14-0.51-0.02-0.99-0.2-1.44c-0.41-1.04-1.09-1.91-1.82-2.74
						c-0.48-0.56-1.03-1.05-1.58-1.53c-0.08-0.07-0.18-0.13-0.25-0.21c-0.15-0.15-0.39-0.28-0.28-0.54c0.1-0.24,0.34-0.25,0.57-0.25
						c3.21,0,6.42,0,9.63,0c0.21,0,0.44,0.01,0.52,0.25c0.08,0.23-0.1,0.36-0.25,0.49c-1.07,0.87-2.03,1.85-2.75,3.04
						c-0.54,0.9-0.98,1.84-1.01,2.92c-0.01,0.27-0.1,0.49-0.37,0.58c-0.83,0.28-1.49,0.84-2.21,1.3c-1.35,0.87-2.76,1.58-4.34,1.91
						c-0.83,0.17-1.66,0.31-2.5,0.36c-0.68,0.04-1.37,0.11-2.05,0.09c-0.19-0.01-0.48-0.01-0.52,0.18c-0.04,0.2,0.25,0.21,0.4,0.28
						c1.71,0.78,3.5,1.33,5.23,2.06c0.67,0.28,1.39,0.3,2.09,0.13c0.68-0.17,1.24-0.5,1.59-1.19c0.73-1.44,1.67-2.74,3-3.7
						c1.01-0.73,2.1-1.25,3.38-1.26c0.09,0,0.17,0,0.26,0.01c0.77,0.11,0.93,0.41,0.56,1.08c-0.55,0.97-1.13,1.92-1.69,2.89
						C216.55,226.96,216.46,227.05,216.46,227.18z M208.65,230.57c-0.62-0.02-1.29,0.16-1.96,0.35c-0.43,0.12-0.46,0.18-0.21,0.56
						c0.96,1.43,3.49,1.93,5.12,1.03c0.5-0.28,0.53-0.51,0.08-0.88C210.83,230.92,209.86,230.55,208.65,230.57z M204.76,229.85
						c0,0.33,0.26,0.61,0.52,0.6c0.24-0.01,0.34-0.15,0.33-0.39c-0.01-0.28-0.24-0.55-0.49-0.55
						C204.89,229.52,204.77,229.65,204.76,229.85z"/>
				</g>
			</g>
		</g>
	</g>
</g>
<g id="CARDS">
</g>
</svg>
