<?xml version="1.0" encoding="utf-8"?>
<!-- Generator: Adobe Illustrator 24.0.1, SVG Export Plug-In . SVG Version: 6.00 Build 0)  -->
<svg version="1.1" xmlns="http://www.w3.org/2000/svg" xmlns:xlink="http://www.w3.org/1999/xlink" x="0px" y="0px"
	 viewBox="0 0 283.46 283.46" style="enable-background:new 0 0 283.46 283.46;" xml:space="preserve">
<style type="text/css">
	.st0{fill:#DBDDD9;}
	.st1{fill:#FFFFFF;}
	.st2{fill:none;stroke:#000000;stroke-width:3;stroke-miterlimit:10;}
	.st3{fill:#E30613;}
	.st4{fill:#894F28;}
	.st5{fill:#3E2215;}
	.st6{fill:#DEB27E;}
	.st7{opacity:0.25;fill:#312783;}
	.st8{opacity:0.53;fill:#F5F0DA;}
	.st9{fill:none;}
	.st10{fill:#EB941E;}
	.st11{fill:#1F201D;}
	.st12{fill:#E2E0DB;}
	.st13{fill:#B7B6B0;}
	.st14{fill:#2FAC66;}
	.st15{fill:#312783;}
	.st16{fill:#E94D2A;}
	.st17{fill:#F5EA61;}
	.st18{fill:#1D71B8;}
	.st19{fill:#2D3B49;}
</style>
<g id="bg">
</g>
<g id="CUT">
</g>
<g id="BACK">
</g>
<g id="ILLUSTRATION">
</g>
<g id="SYMBOLS">
</g>
<g id="CARDS">
	<g>
		<path class="st1" d="M217.23,267.73h-151c-8.01,0-14.5-6.49-14.5-14.5v-223c0-8.01,6.49-14.5,14.5-14.5h151
			c8.01,0,14.5,6.49,14.5,14.5v223C231.73,261.24,225.24,267.73,217.23,267.73z"/>
		<g>
			<g>
				<g>
					<g>
						<g>
							<path class="st1" d="M90.15,133.54c-0.11,0-0.22,0.01-0.34,0.01C89.93,133.55,90.04,133.54,90.15,133.54z"/>
							<polygon class="st1" points="92.09,133.44 92.09,133.44 92.09,133.45 92.09,133.44 							"/>
							<path class="st1" d="M89.02,141.27c0-0.1,0-0.21,0-0.31C89.02,141.06,89.01,141.16,89.02,141.27z"/>
							<path class="st1" d="M89.05,140.13c0.01-0.1,0.01-0.2,0.02-0.3C89.06,139.93,89.05,140.03,89.05,140.13z"/>
							<path class="st1" d="M89.56,137.61c0.01-0.04,0.03-0.07,0.04-0.11C89.58,137.54,89.57,137.57,89.56,137.61z"/>
							<path class="st1" d="M90,136.49c0.01-0.03,0.03-0.06,0.04-0.09C90.03,136.43,90.01,136.46,90,136.49z"/>
							<path class="st1" d="M97.33,151.76c0-0.02,0-0.03,0-0.05C97.33,151.72,97.33,151.74,97.33,151.76z"/>
							<path class="st1" d="M99.21,145.77c0,0.04-0.01,0.07-0.01,0.11C99.2,145.84,99.2,145.81,99.21,145.77z"/>
							<path class="st1" d="M99.23,145.57c0-0.03,0.01-0.05,0.01-0.07c0,0,0,0,0,0C99.24,145.52,99.24,145.55,99.23,145.57z"/>
							<path class="st1" d="M108.86,148.27c-0.17,0.03-0.34,0.05-0.52,0.08C108.52,148.32,108.69,148.29,108.86,148.27z"/>
							<path class="st1" d="M107.13,151.11c0.01,0.21,0.01,0.42-0.01,0.64C107.13,151.53,107.14,151.32,107.13,151.11z"/>
							<path class="st1" d="M111.36,149.86c-0.73,0.14-1.47,0.25-2.2,0.37C109.9,150.11,110.63,149.99,111.36,149.86z"/>
							<polygon class="st1" points="107.07,150.52 107.07,150.52 107.07,150.52 							"/>
							<path class="st1" d="M128.36,80.61c0-0.01,0-0.01,0-0.02c0-0.22,0.08-0.43,0.27-0.59c-0.19,0.16-0.27,0.37-0.27,0.59
								C128.36,80.6,128.36,80.61,128.36,80.61c0,0.43,0.31,0.88,0.73,1.02C128.67,81.49,128.36,81.04,128.36,80.61z"/>
							<path class="st10" d="M121.89,94.51c5.75,0.33,14.29,1.77,19.15-2.08c-1.29-1.95-3.43-2.94-5.17-4.54
								c-1.18-1.09-2.02-2.3-2.81-3.62c-2.6,2.23-5.24,4.02-8.51,5.28c-3.08,1.18-5.85,2.4-8.48,4.4c-0.51,0.39-0.99,0.8-1.47,1.21
								C116.81,94.21,119.39,94.37,121.89,94.51z M129.48,90.66c0.51-0.42,1.11-0.71,1.66-1.08c0.61-0.42,1.03-0.99,1.52-1.54
								c0.81-0.91,2.41,0.32,1.69,1.31c-0.94,1.29-3.05,2.57-4.69,1.98C129.4,91.23,129.23,90.86,129.48,90.66z"/>
							<path class="st11" d="M98.23,139.92c0.51-1.4,1.04-2.81,0.98-4.34c-0.07-1.64-1.23-2.55-2.79-2.07
								c-2.47,0.76-3.93,2.58-4.71,4.94c-1.09,3.27,0.33,7.06,3.41,9.36c0.53,0.4,1.05,0.83,1.8,0.93
								c-0.06-0.36-0.09-0.68-0.16-0.99c-0.4-1.78-0.3-3.51,0.43-5.2C97.56,141.69,97.91,140.8,98.23,139.92z"/>
							<path class="st10" d="M132.43,98.85c2.57-0.32,6.6-1.57,8.29-3.99c-3.24,1.64-7.21,1.63-10.82,1.67
								c-3.85,0.05-7.5-0.14-11.2-0.09c0.85,0.24,1.68,0.51,2.45,0.77C124.85,98.4,128.51,99.33,132.43,98.85z"/>
							<path class="st11" d="M104.64,147.12c0.71,0.41,1.26,0.91,1.67,1.49c0.68-0.08,1.36-0.17,2.03-0.27
								c0.17-0.03,0.34-0.05,0.52-0.08c0.94-0.15,1.88-0.31,2.82-0.49c0.09-0.55,0.16-1.1,0.25-1.64
								c0.84-5.08,1.91-10.11,3.22-15.09c0.1-0.39,0.21-0.77,0.31-1.16c-0.37,0.39-0.75,0.77-1.15,1.12
								c-1.92,1.7-3.98,3.27-6.3,4.38c-1.5,0.72-3.17,1.32-4.86,1.5c0.58,3.19,1,6.4,1.11,9.65
								C104.27,146.83,104.42,146.99,104.64,147.12z"/>
							<path class="st3" d="M133.22,61.56c0.61-0.26,1.19-0.58,1.81-0.79c4.5-1.58,9.14-1.91,13.82-1.25
								c7.31,1.03,14.06,3.59,20.1,7.9c2.95,2.11,5.72,4.38,7.09,7.89c0.01,0.01,0.02,0.02,0.03,0.03c0.01,0.04,0.02,0.08,0.03,0.12
								c0.01,0.02,0.01,0.03,0.02,0.04c0.1,0.28,0.24,0.27,0.49,0.15c0.75-0.38,1.39-1.14,1.79-2.01c0.44-1.34,0.31-2.79-0.14-4.11
								c-0.22-0.65-0.55-1.26-0.91-1.86c-0.15-0.23-0.29-0.46-0.45-0.68c-1.1-1.51-2.15-3.05-3.15-4.63
								c-1.63-2.58-3.57-4.89-6.16-6.57c-6.2-4.03-12.87-4.84-19.93-2.8c-0.98,0.28-1.95,0.6-3,1.23c4,0.64,7.7,1.68,11.25,3.2
								c3.56,1.52,6.92,3.38,9.88,5.89c-0.04,0.05-0.08,0.11-0.11,0.16c-0.14-0.07-0.29-0.14-0.43-0.22
								c-3.46-1.91-7.05-3.51-10.83-4.7c-4.66-1.47-9.45-2.23-14.3-2.65c-1.94-0.17-3.76,0.28-5.34,1.48
								c-1.24,0.95-2.01,2.18-2.14,3.76c-0.02,0.18-0.04,0.43,0.06,0.54C132.88,61.84,133.06,61.62,133.22,61.56z"/>
							<path class="st1" d="M129.81,81.53L129.81,81.53c-0.04,0.02-0.08,0.02-0.12,0.04C129.74,81.56,129.77,81.56,129.81,81.53z"/>
							<path class="st1" d="M126.86,82.71c0.01-0.53,0.07-1.06,0.14-1.53c0.07-0.47,0.16-0.88,0.25-1.18
								c0.24-0.82,0.57-1.86,1.57-1.87c0.38,0,0.69,0.16,0.95,0.4c0.25,0.24,0.45,0.57,0.6,0.91c0.1,0.22,0.18,0.45,0.25,0.65
								c0.21,0.66,0.43,1.97,0.35,3.18c0.13-0.18,0.25-0.36,0.36-0.54c0.22-0.37,0.39-0.75,0.52-1.14c0.32-0.99,0.39-2.09,0.21-3.33
								c-0.36-2.6-1.8-5.55-4.49-4.31c-0.11,0.27-0.2,0.55-0.3,0.82c0.77-0.15,1.63-0.05,2.21,0.34c0.12,0.08,0.22,0.17,0.31,0.27
								c0.18,0.21,0.3,0.46,0.34,0.77c0.01,0.09-0.08,0.15-0.16,0.16c-0.69,0.07-1.43-0.05-2.13-0.01c-0.43,0.02-0.8,0.19-1.18,0.31
								c-0.95,3.2-1.42,6.63-1.57,10.14c0.8-0.38,1.59-0.78,2.38-1.2C126.97,84.86,126.83,83.77,126.86,82.71z"/>
							<path class="st11" d="M193.2,197.94c0.44-5.4,1.4-10.81,2.4-16.21c0.9-11.36,1.92-22.37,0.29-33.9
								c-0.96-6.8-2.46-13.55-4.63-20.07c-0.79-2.37-1.62-4.98-2.57-7.58c-1.74-3.75-4-7.12-6.34-10.55
								c-0.58-0.86-1.16-1.73-1.71-2.61c-2.38-3.28-4.41-6.74-4.86-11.15c-0.63-6.21-0.29-12.52-1.52-18.34
								c-0.43-0.6-0.78-1.28-1.04-1.72c-1.55-2.61-3.54-4.9-6-6.71c0,0,0,0-0.01-0.01c-3.23-2.15-6.71-3.87-10.4-5.21
								c-5.81-2.11-11.77-3.12-17.93-1.9c-0.52,0.1-1.04,0.23-1.54,0.37c-4.24,2.57-7.12,5.96-9.02,9.87
								c0.18-0.03,0.37-0.06,0.57-0.06c1.59-0.01,2.87,1.23,3.55,2.56c1.03,2.03,1.43,4.85,0.65,7.03c0.42-0.1,0.87,0.02,1.11,0.44
								c0.98,1.74,2.39,3.08,3.85,4.36c-2.43-4.3-2.86-9.31,0.73-13.74c4.3-5.31,12.53-6.33,18.38-3.04
								c6,3.37,8.08,11.71,7.46,18.11c-0.79,8.23-7.28,12.67-14.01,16.16c4.19,1.2,7.77,3.72,10.24,7.43
								c1.15,1.73,1.94,3.78,2.35,5.87c0.85,3.34,1.1,6.81,1.22,10.28c0.1,2.92,0.21,5.9-0.07,8.82c0,0.46-0.01,0.92-0.02,1.38
								c-0.14,4.05-2.03,7-5.55,8.94c-2.65,1.46-5.5,2.47-8.29,3.6c-0.96,0.39-1.91,0.77-2.86,1.18c-2.22,0.94-4.39,1.97-6.38,3.36
								c-2.62,1.82-4.89,3.97-6.38,6.84c-0.03,0.06-0.07,0.11-0.09,0.17c-0.5,1-0.81,2.04-0.69,3.17c0.08,0.77,0.49,1.17,1.26,1.21
								c0.4,0.02,0.79-0.01,1.19-0.1c1.09-0.27,2.16-0.62,3.2-1.03c1.32-0.52,2.67-0.9,4.03-1.21c1.81-0.41,3.64-0.67,5.51-0.75
								c3.91-0.18,7.8-0.37,11.68-0.93c4.05-0.58,7.95-1.63,11.5-3.73c4.91-2.91,8.43-6.95,9.95-12.56
								c1.17-4.29,1.04-8.62,0.3-12.96c-0.71-4.16-2.12-8.1-3.91-11.89c-0.86-1.83-1.53-3.69-2.02-5.58
								c0.04-0.17,0.08-0.35,0.14-0.51c0.02-0.05,0.02-0.07,0.03-0.09c0.04-0.08,0.11-0.2,0.12-0.22c0.02-0.03,0.08-0.1,0.13-0.17
								c0.02-0.02,0.03-0.04,0.04-0.06c0.06-0.06,0.14-0.12,0.2-0.18l0.05-0.03c0.04-0.03,0.09-0.05,0.13-0.07
								c0.09-0.03,0.24-0.07,0.25-0.08l0.09-0.02c0.14-0.03,0.12-0.02-0.07,0c0.09-0.04,0.29-0.02,0.39-0.02
								c0.1,0,0.21,0.01,0.31,0.01c0.03,0,0.05,0.01,0.07,0.01c0.05,0.01,0.09,0.02,0.14,0.03c0.09,0.02,0.18,0.04,0.27,0.07
								c0.28,1.17,0.62,2.32,1.06,3.45c1.28,3.24,2.77,6.4,3.84,9.73c1.03,3.24,1.68,6.54,1.8,9.96c0.12,3.41-0.19,6.85-1.2,10.12
								c-0.43,1.41-1.29,2.64-1.98,3.95c-0.74,1.41-1.52,2.82-2.59,4.01c-3.94,4.36-8.99,7.01-14.51,8.43
								c3.21,5.03,4.82,11.75,6.13,17.29c1.61,6.81,2.15,14.08,0.09,20.86c-2.5,8.25-8.6,12.11-15.73,13.22
								c4.3,1.55,8.02,4.12,13.01,4.08c6.72-0.05,11.08-5.48,15.92-9.28c0.14-0.11,0.37,0.03,0.26,0.2
								c-1.82,2.87-4.22,5.59-7.07,7.57c7.78,0.95,15.64,0.46,22.52-3.49C194.96,210.34,192.6,205.18,193.2,197.94z"/>
							<path class="st1" d="M170.12,200.63c0.23-0.81,0.41-1.63,0.56-2.46c0.15-0.82,0.27-1.65,0.35-2.49
								c0.12-1.25,0.17-2.5,0.16-3.76c-0.01-0.84-0.05-1.68-0.11-2.51c-0.22-2.93-0.75-5.85-1.46-8.67
								c-0.65-2.58-1.38-5.59-2.34-8.53c-0.24-0.74-0.5-1.47-0.77-2.18c-0.27-0.72-0.56-1.42-0.87-2.1
								c-0.31-0.69-0.64-1.35-0.99-1.98c-0.33-0.6-0.68-1.16-1.04-1.69c-0.3,0.06-0.6,0.14-0.9,0.19
								c-4.57,0.83-9.21,0.86-13.83,1.18c-2.32,0.16-4.6,0.49-6.82,1.18c-1.88,0.59-3.68,1.39-5.62,1.77
								c-2.98,0.59-5.15-1.29-4.83-4.2c0.1-0.89,0.35-1.76,0.68-2.59c0.11-0.28,0.24-0.54,0.36-0.8c1.36-2.9,3.52-5.17,6.03-7.14
								c1.15-0.9,2.36-1.68,3.61-2.38c2.07-1.15,4.25-2.09,6.45-2.98c1.98-0.81,3.98-1.55,5.94-2.39c0.67-0.29,1.34-0.6,1.99-0.92
								c0.2-0.1,0.4-0.18,0.6-0.28c2.07-1.07,3.6-2.55,4.37-4.64c0.44-1.63,0.67-3.29,0.79-4.97c0.01-0.16,0.02-0.32,0.03-0.48
								c0.12-2.24,0.04-4.5-0.03-6.74c-0.09-2.65-0.22-5.34-0.66-7.96c-0.25-1.25-0.55-2.5-0.91-3.75
								c-0.23-0.69-0.48-1.38-0.79-2.06c-0.08-0.18-0.1-0.36-0.08-0.52c-0.73-1.83-1.7-3.45-3.27-4.89
								c-2.31-2.1-5.22-3.37-8.27-3.94c-0.57-0.11-0.68-1-0.16-1.26c4.87-2.43,10.26-5.07,13.06-9.99
								c3.08-5.4,2.18-13.16-0.84-18.45c-4.06-7.12-15.46-7.84-20.58-1.53c-3.97,4.89-2.48,10.15,0.39,14.85
								c0.97,0.9,2.04,1.94,2.66,3.13c0.6,1.17,0.46,2.79-0.04,3.95c-0.61,1.41-2.33,2.38-3.64,3.1c-1.29,0.71-2.68,1.32-4.12,1.68
								c-2.16,0.55-4.39,0.66-6.6,0.47c0.77,2.45,0.13,5.02-1,7.4c-1.71,3.6-4.11,6.66-6.09,10.05c-0.47,0.89-0.89,1.8-1.25,2.74
								c-1.29,3.4-2.24,6.97-3.16,10.48c-2.23,8.47-3.85,17.23-4.81,25.96c-0.08,0.68-0.15,1.36-0.22,2.05
								c-0.01,0.09-0.02,0.18-0.03,0.28c0,0.01,0,0.03,0,0.04c-0.1,1-0.18,1.99-0.24,2.99c-0.01,0.11-0.01,0.22-0.02,0.33
								c-0.05,0.84-0.09,1.68-0.12,2.52c-0.01,0.24-0.01,0.47-0.02,0.71c-0.02,0.79-0.03,1.59-0.02,2.38c0,0.18,0,0.35,0,0.53
								c0.01,0.95,0.05,1.91,0.1,2.86c0,0.04,0,0.09,0,0.13c0.04,0.61,0.08,1.22,0.14,1.83c0.02,0.22,0.05,0.43,0.07,0.65
								c0.05,0.47,0.1,0.93,0.16,1.4c0.04,0.29,0.08,0.58,0.12,0.87c0.06,0.42,0.13,0.85,0.2,1.27c0.04,0.27,0.08,0.54,0.13,0.81
								c0.11,0.63,0.24,1.26,0.38,1.89c0.05,0.25,0.12,0.5,0.17,0.74c0.11,0.47,0.23,0.93,0.35,1.4c0.06,0.23,0.12,0.46,0.19,0.68
								c0.19,0.68,0.39,1.35,0.61,2.03c0.64,1.93,1.4,3.83,2.29,5.66c0.3,0.61,0.61,1.22,0.93,1.81
								c3.88,7.16,9.71,13.22,17.23,16.61c1.33,0.6,2.74,1.14,4.18,1.62c0.28-0.03,0.55,0.06,0.74,0.24
								C151.53,215.58,166.22,214.62,170.12,200.63z M146.96,74.05c0.88-1.69,3.72-2.06,5.38-1.51c1.73,0.57,2.28,2.4,2.5,4.03
								c0.02,0.17-0.22,0.24-0.32,0.13c-0.89-0.94-1.73-1.96-3.04-2.29c-1.47-0.37-2.61,0.46-4.01,0.53
								C147,74.97,146.76,74.43,146.96,74.05z M147.56,79.44c0.91-1.43,2.41-2.2,4.08-0.94c1.53,1.15,1.65,3.43,1.04,5.11
								c-0.57,1.58-2.09,3.56-3.99,2.84C146.29,85.54,145.69,81.17,147.56,79.44z"/>
							<path class="st10" d="M121.93,213.35c-1.64,2.74-5.61,3.84-8.47,4.77c-5.36,1.74-10.87,2.66-15.75,5.35
								c2.19,0.07,4.3,0.66,5.54,2.7c0.39,0.63,0.58,1.25,0.64,1.84c3.28-3.34,7.54-5.99,12.01-6.64c0.09-0.01,0.2,0.1,0.1,0.18
								c-3.6,2.87-7.47,4.65-10.63,7.67c4.44-1.52,9.71-1.03,12.95,2.31c1.95-1.94,4.3-3.09,6.66-4.62c4.13-2.68,6.55-5.93,8.1-10.5
								C129.26,217.18,125.36,216.07,121.93,213.35z"/>
							<path class="st10" d="M170.45,220.79c-2.66,0.32-6.1-0.04-9.27-1.06c0.13,1.52-0.73,2.85-2.09,4.02
								c-4.16,3.58-9.7,4.52-13.76,8.03c3.15,0.03,5.39,2.3,5.77,5.41c0.88-1.47,2.27-2.84,3.28-3.92c1.96-2.11,4.12-4.1,6.41-5.85
								c0.21-0.16,0.39,0.16,0.26,0.33c-1.69,2.16-3.65,4.1-5.47,6.16c-1.08,1.22-2.12,2.49-3.03,3.86
								c-0.12,0.18-0.22,0.34-0.33,0.5c4.87-2.47,12.4-2.83,15.83,1.17c3.7-6,6.71-12.09,5.53-19.36
								C172.57,220.41,171.53,220.66,170.45,220.79z"/>
							<path class="st11" d="M114.26,190.69c0.67,4.48,0.77,9.13,2.74,13.39c3.62,7.82,12.11,14.05,19.89,8.87
								C125.74,208.89,118.44,200.68,114.26,190.69z"/>
							<path class="st1" d="M129.66,91.32c1.64,0.59,3.75-0.69,4.69-1.98c0.72-0.99-0.88-2.22-1.69-1.31
								c-0.49,0.55-0.9,1.12-1.52,1.54c-0.55,0.38-1.14,0.67-1.66,1.08C129.23,90.86,129.4,91.23,129.66,91.32z"/>
							<path class="st1" d="M148.69,86.45c1.9,0.72,3.42-1.26,3.99-2.84c0.6-1.67,0.49-3.95-1.04-5.11
								c-1.67-1.26-3.18-0.49-4.08,0.94C145.69,81.17,146.29,85.54,148.69,86.45z M149.41,80.66c0.01-0.03,0.01-0.06,0.02-0.1
								c0.11-0.54,0.64-0.8,1.13-0.86c0.05-0.01,0.1-0.01,0.15-0.01c0.63-0.03,1.3,0.72,1.03,1.36c-0.02,0.04-0.04,0.07-0.05,0.1
								c-0.01,0.04-0.02,0.09-0.03,0.13c-0.13,0.62-0.86,0.98-1.44,0.82C149.6,81.93,149.28,81.28,149.41,80.66z"/>
							<path class="st1" d="M147.47,74.94c1.4-0.07,2.54-0.9,4.01-0.53c1.31,0.33,2.15,1.34,3.04,2.29c0.1,0.11,0.34,0.03,0.32-0.13
								c-0.22-1.63-0.77-3.46-2.5-4.03c-1.66-0.55-4.5-0.18-5.38,1.51C146.76,74.43,147,74.97,147.47,74.94z"/>
							<path class="st1" d="M150.23,82.1c0.58,0.16,1.31-0.2,1.44-0.82c0.01-0.04,0.02-0.09,0.03-0.13c0.02-0.03,0.04-0.07,0.05-0.1
								c0.27-0.64-0.4-1.39-1.03-1.36c-0.05,0-0.1,0-0.15,0.01c-0.49,0.06-1.02,0.32-1.13,0.86c-0.01,0.03-0.01,0.06-0.02,0.1
								C149.28,81.28,149.6,81.93,150.23,82.1z"/>
							<path class="st1" d="M128.86,79.87L128.86,79.87c-0.09,0.04-0.16,0.09-0.22,0.14c-0.19,0.16-0.27,0.37-0.27,0.59
								c0,0.01,0,0.01,0,0.02c0,0.43,0.31,0.88,0.73,1.02c0,0,0,0,0,0c0.09,0.03,0.18,0.03,0.27,0.03c0.02,0,0.05,0.01,0.07,0.01
								c0.08-0.01,0.17-0.05,0.26-0.09c0.04-0.02,0.08-0.02,0.12-0.04c0.2-0.12,0.33-0.27,0.41-0.43c0.07-0.16,0.09-0.34,0.06-0.51
								c-0.04-0.22-0.17-0.44-0.34-0.59C129.66,79.78,129.27,79.68,128.86,79.87z"/>
							<path class="st1" d="M103.57,134.48c0.24-0.07,0.47-0.15,0.71-0.21C104.04,134.33,103.8,134.41,103.57,134.48z"/>
							<path class="st1" d="M89.59,137.5c0.12-0.34,0.25-0.68,0.41-1.01C89.85,136.82,89.71,137.16,89.59,137.5z"/>
							<path class="st1" d="M90.04,136.4c0.52-1.1,1.21-2.11,2.05-2.95C91.25,134.29,90.56,135.3,90.04,136.4z"/>
							<path class="st1" d="M89.02,140.95c0-0.27,0.01-0.55,0.03-0.82C89.02,140.4,89.01,140.68,89.02,140.95z"/>
							<path class="st1" d="M97.12,151.01c0.06,0.01,0.13,0.01,0.2,0.02l0,0C97.25,151.03,97.18,151.03,97.12,151.01z"/>
							<path class="st1" d="M89.07,139.83c0.08-0.75,0.24-1.5,0.49-2.22C89.31,138.33,89.15,139.08,89.07,139.83z"/>
							<path class="st1" d="M109.16,150.23c-0.7,0.11-1.39,0.2-2.09,0.3C107.77,150.43,108.47,150.34,109.16,150.23z"/>
							<path class="st1" d="M89.12,142.34c-0.06-0.36-0.08-0.72-0.1-1.08C89.03,141.63,89.06,141.99,89.12,142.34z"/>
							<path class="st1" d="M98.91,131.31c-0.75-0.29-1.6-0.39-2.47-0.23c-1,0.18-1.93,0.57-2.77,1.1c1.55-0.18,3.12-0.44,4.73-0.77
								C98.56,131.38,98.74,131.34,98.91,131.31z"/>
							<path class="st1" d="M96.75,147.75c0.07,0.31,0.1,0.63,0.16,0.99c-0.75-0.1-1.27-0.54-1.8-0.93
								c-3.07-2.3-4.49-6.09-3.41-9.36c0.78-2.35,2.24-4.18,4.71-4.94c1.56-0.48,2.72,0.43,2.79,2.07c0.07,1.53-0.46,2.94-0.98,4.34
								c-0.33,0.89-0.68,1.77-1.05,2.64C96.45,144.24,96.35,145.97,96.75,147.75z"/>
							<path class="st1" d="M202.72,213.53c-9.1-5.46-8.3-13.99-6.78-23.28c0.51-3.13,1.14-6.34,1.6-9.57
								c1.2-5.44,1.65-11.15,1.58-16.86c0.46-8.76-0.47-17.56-2.49-26.09c-1.99-8.38-4.79-16.68-9.23-24.07
								c-0.48-0.89-1.01-1.73-1.6-2.5c-0.08-0.12-0.16-0.25-0.24-0.38c-2.8-4.09-5.79-8.2-6.77-13.17
								c-0.04-0.21-0.14-0.36-0.26-0.47c-0.7-4.07-0.51-8.26-0.79-12.68c-0.13-2.07-0.42-4.08-0.85-6.03
								c0.27-0.17,0.51-0.39,0.75-0.58c0.58-0.46,1.1-0.96,1.56-1.55c1.26-1.15,1.98-2.67,1.93-4.63c-0.04-1.46-0.56-2.83-1.31-4.07
								c-1.77-2.9-3.6-5.77-5.59-8.53c-2.24-3.11-5.16-5.44-8.64-7.04c-4.68-2.15-9.59-2.71-14.66-1.95
								c-3.3,0.5-6.43,1.49-9.19,3.46c-0.26,0.18-0.51,0.17-0.8,0.15c-2.6-0.15-5.12,0.1-7.28,1.73c-1.97,1.49-3.49,3.32-3.05,5.98
								c0.08,0.5,0.06,0.89-0.04,1.23c0,0.01,0.01,0.02,0.01,0.03c0.07,0.12,0.14,0.24,0.22,0.35c0.01,0.01,0.01,0.02,0.02,0.03
								c0.04,0.04,0.08,0.09,0.12,0.13c0.09,0.09,0.18,0.18,0.27,0.26c0,0,0,0,0.01,0c0.05,0.03,0.09,0.06,0.14,0.09
								c0.09,0.06,0.19,0.11,0.29,0.16c0.05,0.02,0.11,0.04,0.16,0.05c0.05,0.02,0.1,0.02,0.15,0.04
								c-6.2,5.83-10.49,15.36-8.6,23.77c-1.65,0.76-3.32,1.53-5.02,2.46c-3.19,1.76-6.54,4.08-7.96,7.52
								c-0.07,0.18,0.02,0.33,0.16,0.43c0.03,0.08,0.1,0.15,0.21,0.14c4.93-0.48,8.36,0.7,13.01,1.95c1.12,0.3,2.26,0.53,3.41,0.69
								c-0.15,3.49-1.35,6.49-2.9,9.37c-0.06,0.06-0.13,0.11-0.18,0.19c-2.87,4.58-5.48,8.97-7.09,14.16
								c-0.01,0.04-0.02,0.07-0.03,0.11c-1.67,2.24-3.64,4.23-5.88,5.98c-1.36,1.06-2.79,2.03-4.34,2.78
								c-0.79,0.38-1.61,0.7-2.46,0.94c-0.24,0.07-0.47,0.14-0.71,0.21c-0.27,0.08-0.55,0.17-0.82,0.24
								c0.11,0.6,0.23,1.21,0.34,1.81c0.02,0.12,0.04,0.23,0.06,0.35c1.69-0.18,3.37-0.78,4.86-1.5c2.32-1.11,4.38-2.68,6.3-4.38
								c0.4-0.36,0.78-0.74,1.15-1.12c-0.1,0.39-0.21,0.77-0.31,1.16c-1.31,4.98-2.38,10.01-3.22,15.09
								c-0.09,0.55-0.17,1.1-0.25,1.64c-0.94,0.18-1.88,0.34-2.82,0.49c-0.17,0.03-0.34,0.05-0.52,0.08
								c-0.68,0.1-1.35,0.19-2.03,0.28c0.39,0.56,0.64,1.2,0.75,1.9c0,0,0,0,0,0c0.7-0.09,1.39-0.19,2.09-0.3
								c0.73-0.11,1.47-0.23,2.2-0.37c-0.03,0.21-0.06,0.41-0.09,0.61c-0.36,2.5-0.67,5-0.91,7.51c-0.08,0.83-0.16,1.66-0.23,2.48
								c-0.66,8.28-0.16,16.63,2.17,24.64c-0.11,9.16,0.95,19.37,7.54,26.32c0.34,0.36,0.69,0.7,1.05,1.02
								c-8.15,5.77-18.97,5.19-26.99,11.31c-0.92,0.7-0.24,1.58,0.58,1.66c1.5,0.16,2.78-0.57,4.36-0.02
								c1.26,0.44,2.36,1.42,2.8,2.68c0.27,0.79,0.27,1.68-0.02,2.46c-0.25,0.66-1.29,1.41-1.04,2.16c0.01,0.08,0.05,0.15,0.1,0.21
								c0.27,0.4,0.85,0.63,1.34,0.37c4.38-2.31,11.6-4.66,15.25,0.63c0.4,0.57,1.35,0.88,1.87,0.24c3.01-3.64,7.34-5.32,10.66-8.54
								c2.71-2.63,4.42-5.93,5.06-9.63c0.01-0.03,0-0.06,0-0.1c1.38-0.5,2.75-1.24,4.06-2.27c0.85,0.26,1.71,0.5,2.6,0.72
								c4.16,1,8.53,1.46,12.63,1.08c1.37,1.67,3.44,2.95,5.76,3.85c-0.47,4.48-8.54,6.17-11.7,7.89c-2.72,1.48-4.88,3.25-6.7,5.75
								c-0.39,0.53-0.12,1.14,0.46,1.38c0.65,0.26,1.27-0.29,1.91-0.44c1.49-0.33,3.15,0.04,4.29,1.06
								c0.93,0.83,1.49,2.05,1.57,3.29c0.03,0.44-0.68,3.99,0.9,2.67c3.81-3.18,14.09-4.53,16.77,0.33c0.3,0.54,1.03,0.47,1.34,0
								c4.31-6.5,8.12-13.75,6.29-21.73c0.37-0.17,0.74-0.37,1.1-0.56c0.08,0.07,0.18,0.12,0.31,0.15
								c8.56,2.13,18.93,1.27,26.25-3.99C203.26,214.7,203.34,213.91,202.72,213.53z M132.66,61.14c0.13-1.58,0.9-2.81,2.14-3.76
								c1.58-1.21,3.4-1.65,5.34-1.48c4.85,0.42,9.64,1.18,14.3,2.65c3.78,1.19,7.37,2.79,10.83,4.7c0.14,0.08,0.29,0.15,0.43,0.22
								c0.04-0.05,0.08-0.11,0.11-0.16c-2.96-2.51-6.32-4.37-9.88-5.89c-3.55-1.52-7.24-2.56-11.25-3.2c1.05-0.62,2.02-0.95,3-1.23
								c7.06-2.04,13.73-1.22,19.93,2.8c2.59,1.68,4.53,3.98,6.16,6.57c0.99,1.58,2.04,3.12,3.15,4.63c0.16,0.22,0.3,0.45,0.45,0.68
								c0.36,0.6,0.68,1.21,0.91,1.86c0.45,1.32,0.58,2.77,0.14,4.11c-0.4,0.86-1.04,1.63-1.79,2.01c-0.24,0.12-0.39,0.13-0.49-0.15
								c-0.01-0.02-0.01-0.03-0.02-0.04c-0.01-0.04-0.02-0.08-0.03-0.12c-0.01-0.01-0.02-0.02-0.03-0.03
								c-1.37-3.51-4.14-5.78-7.09-7.89c-6.04-4.31-12.79-6.87-20.1-7.9c-4.68-0.66-9.32-0.33-13.82,1.25
								c-0.62,0.22-1.21,0.54-1.81,0.79c-0.16,0.07-0.35,0.29-0.5,0.12C132.62,61.57,132.65,61.32,132.66,61.14z M126.63,76.62
								c0.38-0.13,0.76-0.29,1.18-0.31c0.71-0.04,1.44,0.08,2.13,0.01c0.08-0.01,0.17-0.07,0.16-0.16
								c-0.04-0.31-0.16-0.57-0.34-0.77c-0.09-0.1-0.19-0.2-0.31-0.27c-0.58-0.4-1.44-0.49-2.21-0.34c0.1-0.28,0.2-0.55,0.3-0.82
								c2.7-1.24,4.13,1.71,4.49,4.31c0.17,1.24,0.11,2.34-0.21,3.33c-0.13,0.4-0.3,0.78-0.52,1.14c-0.11,0.18-0.23,0.36-0.36,0.54
								c0.08-1.21-0.14-2.51-0.35-3.18c-0.06-0.21-0.14-0.43-0.25-0.65c-0.15-0.33-0.35-0.66-0.6-0.91c-0.25-0.24-0.56-0.4-0.95-0.4
								c-1,0.01-1.33,1.05-1.57,1.87c-0.09,0.3-0.18,0.71-0.25,1.18c-0.07,0.47-0.13,0.99-0.14,1.53c-0.03,1.06,0.11,2.15,0.58,2.86
								c-0.78,0.42-1.57,0.82-2.38,1.2C125.21,83.25,125.69,79.83,126.63,76.62z M130.22,81.1c-0.07,0.16-0.2,0.31-0.41,0.43v0
								c-0.04,0.02-0.08,0.02-0.12,0.04c-0.09,0.04-0.17,0.08-0.26,0.09c-0.02,0-0.05-0.01-0.07-0.01c-0.09,0-0.19,0-0.27-0.03
								c0,0,0,0,0,0c-0.42-0.13-0.73-0.59-0.73-1.02c0-0.01,0-0.01,0-0.02c0-0.22,0.08-0.43,0.27-0.59c0.06-0.05,0.14-0.1,0.22-0.14
								v0c0.42-0.19,0.81-0.09,1.07,0.14c0.18,0.15,0.3,0.37,0.34,0.59C130.31,80.77,130.29,80.94,130.22,81.1z M116.07,93.95
								c2.63-2,5.4-3.22,8.48-4.4c3.27-1.26,5.91-3.05,8.51-5.28c0.79,1.32,1.63,2.53,2.81,3.62c1.74,1.6,3.87,2.59,5.17,4.54
								c-4.86,3.85-13.4,2.4-19.15,2.08c-2.51-0.14-5.08-0.3-7.29,0.65C115.08,94.75,115.56,94.34,116.07,93.95z M121.16,97.2
								c-0.78-0.25-1.61-0.53-2.45-0.77c3.7-0.05,7.35,0.14,11.2,0.09c3.6-0.05,7.58-0.03,10.82-1.67
								c-1.69,2.43-5.72,3.67-8.29,3.99C128.51,99.33,124.85,98.4,121.16,97.2z M124.99,226.9c-2.36,1.53-4.71,2.68-6.66,4.62
								c-3.24-3.34-8.51-3.84-12.95-2.31c3.15-3.02,7.03-4.8,10.63-7.67c0.09-0.07-0.01-0.19-0.1-0.18
								c-4.47,0.65-8.73,3.3-12.01,6.64c-0.05-0.6-0.25-1.21-0.64-1.84c-1.25-2.04-3.36-2.63-5.54-2.7
								c4.88-2.7,10.38-3.62,15.75-5.35c2.86-0.93,6.83-2.03,8.47-4.77c3.43,2.72,7.33,3.84,11.16,3.06
								C131.54,220.98,129.12,224.22,124.99,226.9z M117.01,204.08c-1.97-4.26-2.07-8.92-2.74-13.39
								c4.18,9.99,11.48,18.2,22.64,22.26C129.12,218.13,120.63,211.9,117.01,204.08z M139.6,211.87c-0.2-0.18-0.47-0.28-0.74-0.24
								c-1.45-0.48-2.85-1.02-4.18-1.62c-7.53-3.39-13.35-9.44-17.23-16.61c-0.32-0.6-0.63-1.2-0.93-1.81
								c-0.89-1.83-1.65-3.73-2.29-5.66c-0.22-0.67-0.42-1.35-0.61-2.03c-0.06-0.23-0.13-0.46-0.19-0.68
								c-0.12-0.46-0.24-0.93-0.35-1.4c-0.06-0.25-0.12-0.49-0.17-0.74c-0.14-0.63-0.27-1.26-0.38-1.89
								c-0.05-0.27-0.09-0.54-0.13-0.81c-0.07-0.42-0.14-0.85-0.2-1.27c-0.04-0.29-0.08-0.58-0.12-0.87
								c-0.06-0.47-0.11-0.93-0.16-1.4c-0.02-0.22-0.05-0.43-0.07-0.65c-0.05-0.61-0.1-1.22-0.14-1.83c0-0.04,0-0.09,0-0.13
								c-0.05-0.95-0.09-1.91-0.1-2.86c0-0.18,0-0.35,0-0.53c-0.01-0.79,0-1.59,0.02-2.38c0.01-0.24,0.01-0.47,0.02-0.71
								c0.03-0.84,0.07-1.68,0.12-2.52c0.01-0.11,0.01-0.22,0.02-0.33c0.07-1,0.15-2,0.24-2.99c0-0.01,0-0.03,0-0.04
								c0.01-0.09,0.02-0.18,0.03-0.28c0.07-0.68,0.14-1.36,0.22-2.05c0.96-8.73,2.58-17.49,4.81-25.96
								c0.92-3.52,1.88-7.08,3.16-10.48c0.35-0.94,0.78-1.85,1.25-2.74c1.98-3.39,4.38-6.45,6.09-10.05c1.13-2.38,1.77-4.95,1-7.4
								c2.21,0.19,4.43,0.08,6.6-0.47c1.43-0.36,2.82-0.98,4.12-1.68c1.31-0.72,3.02-1.69,3.64-3.1c0.51-1.17,0.65-2.78,0.04-3.95
								c-0.61-1.19-1.69-2.23-2.66-3.13c-2.87-4.71-4.36-9.96-0.39-14.85c5.12-6.3,16.52-5.59,20.58,1.53
								c3.02,5.29,3.92,13.05,0.84,18.45c-2.81,4.92-8.19,7.56-13.06,9.99c-0.51,0.25-0.41,1.15,0.16,1.26
								c3.05,0.58,5.96,1.84,8.27,3.94c1.57,1.43,2.54,3.06,3.27,4.89c-0.01,0.17,0,0.34,0.08,0.52c0.31,0.67,0.56,1.36,0.79,2.06
								c0.36,1.24,0.67,2.49,0.91,3.75c0.45,2.62,0.57,5.31,0.66,7.96c0.07,2.24,0.15,4.5,0.03,6.74c-0.01,0.16-0.02,0.32-0.03,0.48
								c-0.11,1.68-0.34,3.34-0.79,4.97c-0.77,2.09-2.3,3.57-4.37,4.64c-0.2,0.1-0.4,0.19-0.6,0.28c-0.66,0.32-1.32,0.63-1.99,0.92
								c-1.96,0.85-3.97,1.59-5.94,2.39c-2.2,0.9-4.39,1.83-6.45,2.98c-1.25,0.7-2.46,1.48-3.61,2.38
								c-2.51,1.97-4.67,4.23-6.03,7.14c-0.12,0.26-0.25,0.53-0.36,0.8c-0.33,0.84-0.59,1.7-0.68,2.59
								c-0.32,2.92,1.85,4.79,4.83,4.2c1.94-0.38,3.75-1.18,5.62-1.77c2.22-0.7,4.5-1.02,6.82-1.18c4.61-0.33,9.25-0.35,13.83-1.18
								c0.3-0.05,0.6-0.13,0.9-0.19c0.36,0.53,0.71,1.09,1.04,1.69c0.35,0.63,0.67,1.29,0.99,1.98c0.31,0.68,0.59,1.38,0.87,2.1
								c0.27,0.71,0.52,1.44,0.77,2.18c0.96,2.94,1.69,5.94,2.34,8.53c0.71,2.82,1.24,5.74,1.46,8.67c0.06,0.84,0.1,1.68,0.11,2.51
								c0.01,1.26-0.03,2.51-0.16,3.76c-0.08,0.83-0.2,1.66-0.35,2.49c-0.15,0.82-0.34,1.64-0.56,2.46
								C166.22,214.62,151.53,215.58,139.6,211.87z M168.05,239.43c-3.42-4-10.96-3.64-15.83-1.17c0.1-0.16,0.21-0.32,0.33-0.5
								c0.91-1.36,1.94-2.63,3.03-3.86c1.82-2.05,3.78-3.99,5.47-6.16c0.13-0.17-0.05-0.49-0.26-0.33
								c-2.29,1.75-4.44,3.74-6.41,5.85c-1.01,1.08-2.4,2.45-3.28,3.92c-0.38-3.11-2.62-5.37-5.77-5.41
								c4.06-3.51,9.61-4.45,13.76-8.03c1.35-1.17,2.22-2.5,2.09-4.02c3.17,1.02,6.61,1.38,9.27,1.06c1.08-0.13,2.12-0.38,3.12-0.73
								C174.76,227.34,171.75,233.43,168.05,239.43z M178.07,217.77c2.85-1.98,5.25-4.7,7.07-7.57c0.11-0.17-0.12-0.31-0.26-0.2
								c-4.84,3.8-9.21,9.22-15.92,9.28c-4.98,0.04-8.71-2.54-13.01-4.08c7.13-1.11,13.24-4.97,15.73-13.22
								c2.05-6.78,1.52-14.05-0.09-20.86c-1.31-5.54-2.92-12.26-6.13-17.29c5.52-1.42,10.56-4.06,14.51-8.43
								c1.07-1.19,1.85-2.6,2.59-4.01c0.69-1.31,1.55-2.55,1.98-3.95c1.01-3.27,1.32-6.71,1.2-10.12c-0.12-3.42-0.77-6.72-1.8-9.96
								c-1.06-3.33-2.56-6.49-3.84-9.73c-0.45-1.13-0.79-2.28-1.06-3.45c-0.09-0.03-0.18-0.05-0.27-0.07
								c-0.05-0.01-0.09-0.02-0.14-0.03c-0.02,0-0.04,0-0.07-0.01c-0.1,0-0.21-0.01-0.31-0.01c-0.1,0-0.29-0.02-0.39,0.02
								c0.19-0.03,0.22-0.03,0.07,0l-0.09,0.02c-0.02,0-0.16,0.05-0.25,0.08c-0.04,0.02-0.09,0.05-0.13,0.07l-0.05,0.03
								c-0.06,0.06-0.15,0.12-0.2,0.18c-0.01,0.03-0.02,0.05-0.04,0.06c-0.05,0.07-0.11,0.14-0.13,0.17
								c-0.01,0.02-0.08,0.14-0.12,0.22c-0.01,0.02-0.01,0.04-0.03,0.09c-0.06,0.17-0.1,0.34-0.14,0.51
								c0.49,1.89,1.16,3.75,2.02,5.58c1.78,3.79,3.2,7.74,3.91,11.89c0.74,4.34,0.87,8.67-0.3,12.96
								c-1.52,5.6-5.04,9.64-9.95,12.56c-3.55,2.1-7.45,3.15-11.5,3.73c-3.88,0.56-7.77,0.75-11.68,0.93
								c-1.86,0.08-3.7,0.34-5.51,0.75c-1.36,0.31-2.71,0.7-4.03,1.21c-1.04,0.41-2.11,0.76-3.2,1.03c-0.4,0.1-0.79,0.12-1.19,0.1
								c-0.77-0.04-1.18-0.44-1.26-1.21c-0.12-1.13,0.19-2.17,0.69-3.17c0.03-0.06,0.06-0.11,0.09-0.17
								c1.49-2.87,3.76-5.02,6.38-6.84c1.99-1.39,4.16-2.42,6.38-3.36c0.95-0.4,1.9-0.79,2.86-1.18c2.79-1.13,5.64-2.13,8.29-3.6
								c3.51-1.94,5.41-4.89,5.55-8.94c0.02-0.46,0.02-0.92,0.02-1.38c0.28-2.92,0.17-5.9,0.07-8.82
								c-0.12-3.47-0.37-6.94-1.22-10.28c-0.41-2.09-1.2-4.14-2.35-5.87c-2.47-3.71-6.06-6.23-10.24-7.43
								c6.72-3.49,13.22-7.92,14.01-16.16c0.62-6.4-1.46-14.74-7.46-18.11c-5.85-3.28-14.08-2.26-18.38,3.04
								c-3.59,4.43-3.16,9.44-0.73,13.74c-1.46-1.28-2.88-2.62-3.85-4.36c-0.24-0.42-0.69-0.55-1.11-0.44
								c0.78-2.19,0.38-5.01-0.65-7.03c-0.68-1.33-1.96-2.57-3.55-2.56c-0.2,0-0.38,0.03-0.57,0.06c1.9-3.91,4.78-7.31,9.02-9.87
								c0.51-0.14,1.02-0.27,1.54-0.37c6.16-1.22,12.12-0.21,17.93,1.9c3.69,1.34,7.16,3.06,10.4,5.21c0,0,0,0,0.01,0.01
								c2.45,1.81,4.44,4.1,6,6.71c0.26,0.44,0.61,1.12,1.04,1.72c1.23,5.82,0.89,12.13,1.52,18.34c0.45,4.41,2.48,7.87,4.86,11.15
								c0.55,0.88,1.12,1.75,1.71,2.61c2.34,3.44,4.6,6.8,6.34,10.55c0.96,2.6,1.78,5.21,2.57,7.58c2.18,6.52,3.67,13.27,4.63,20.07
								c1.62,11.53,0.6,22.54-0.29,33.9c-0.99,5.4-1.96,10.82-2.4,16.21c-0.59,7.24,1.76,12.4,7.39,16.34
								C193.71,218.23,185.84,218.72,178.07,217.77z"/>
							<path class="st1" d="M99.21,145.77c0.01-0.07,0.02-0.14,0.02-0.2c0-0.02,0.01-0.05,0.01-0.07c-0.11,0.1-0.2,0.21-0.16,0.4
								c0.02,0.09,0.05,0.15,0.09,0.21c0.01-0.08,0.02-0.16,0.02-0.24C99.2,145.84,99.2,145.81,99.21,145.77z"/>
							<path class="st1" d="M111.68,147.78c-0.94,0.18-1.88,0.34-2.82,0.49C109.81,148.12,110.75,147.96,111.68,147.78z"/>
							<path class="st1" d="M106.32,148.62c0.68-0.08,1.35-0.18,2.03-0.28C107.67,148.45,106.99,148.53,106.32,148.62
								C106.32,148.62,106.32,148.62,106.32,148.62z"/>
							<path class="st1" d="M99.23,145.57c-0.01,0.06-0.02,0.13-0.02,0.2C99.22,145.7,99.22,145.63,99.23,145.57z"/>
							<path class="st1" d="M99.17,146.12C99.17,146.12,99.18,146.12,99.17,146.12c0.01-0.08,0.02-0.16,0.02-0.24
								C99.19,145.96,99.18,146.03,99.17,146.12z"/>
							<path class="st1" d="M97.32,151.04c-0.01,0.22-0.01,0.44,0.01,0.67C97.31,151.48,97.31,151.26,97.32,151.04L97.32,151.04z"/>
							<path class="st1" d="M107.13,151.11c-0.01-0.2-0.03-0.4-0.06-0.59l0,0C107.1,150.71,107.12,150.91,107.13,151.11z"/>
							<path class="st1" d="M89.81,133.55c-0.68,0.01-1.36-0.01-2.04-0.06C88.45,133.54,89.13,133.55,89.81,133.55z"/>
							<path class="st1" d="M97.43,152.47c-0.05-0.24-0.08-0.48-0.1-0.71C97.35,151.99,97.38,152.23,97.43,152.47z"/>
							<path class="st1" d="M92.09,133.44c-0.65,0.05-1.3,0.08-1.94,0.1C90.8,133.53,91.45,133.5,92.09,133.44z"/>
							<path class="st1" d="M99.24,145.5c0.01-0.07,0.02-0.15,0.03-0.21C99.26,145.35,99.25,145.42,99.24,145.5
								C99.24,145.5,99.24,145.5,99.24,145.5z"/>
							<path class="st1" d="M105.75,149c0.25,0.39,0.38,0.81,0.4,1.26c0.03,0.13,0.03,0.26,0.03,0.39c0.29-0.04,0.59-0.08,0.88-0.12
								c-0.11-0.7-0.36-1.34-0.75-1.9c-0.26,0.03-0.51,0.07-0.77,0.09C105.62,148.81,105.7,148.9,105.75,149z"/>
							<path class="st1" d="M101.5,134.41c-0.01-0.03-0.01-0.06-0.01-0.08c0,0,0-0.01,0-0.01c-0.11,0.23-0.38,0.42-0.89,0.78
								c-0.17,0.12-0.34,0.24-0.51,0.36c0.05,0.2,0.09,0.41,0.12,0.62c0.46-0.33,0.88-0.63,1.29-0.91c0.19-0.14,0.28-0.06,0.32,0.15
								c0.07,0.38,0.14,0.77,0.22,1.15c0.04,0.21-0.02,0.32-0.24,0.27c-0.49-0.11-1-0.23-1.55-0.36c0.02,0.18,0.03,0.36,0.03,0.54
								c0.25,0.05,0.5,0.12,0.77,0.24c0.19,0.09,0.41,0.12,0.62,0.15c0.03,0,0.05,0.01,0.07,0.02c0.01-0.13,0.04-0.26,0.04-0.39
								c0.46,0.02,0.92,0,1.39-0.05c-0.02-0.12-0.04-0.23-0.06-0.35c-0.11-0.6-0.23-1.21-0.34-1.81c-0.36,0.1-0.73,0.2-1.1,0.26
								C101.61,134.79,101.56,134.6,101.5,134.41z"/>
							<path class="st1" d="M97.88,144.67c0.02-0.06,0.05-0.12,0.07-0.18C97.91,144.59,97.89,144.64,97.88,144.67z"/>
							<path class="st1" d="M99.17,146.12c-0.04-0.06-0.08-0.12-0.09-0.21c-0.04-0.2,0.05-0.31,0.16-0.4
								c0.01-0.08,0.02-0.15,0.03-0.21c0.03-0.23,0.1-0.45,0.15-0.67c-0.06,0.05-0.12,0.09-0.18,0.14
								c-0.37,0.28-0.52,0.18-0.61-0.23c-0.08-0.32-0.17-0.65-0.27-1c-0.01,0.03-0.03,0.07-0.04,0.1c-0.08,0.2-0.49,1.17-0.44,1.04
								c-0.06,0.14-0.11,0.27-0.17,0.41c0.24,0.81,0.5,1.61,0.81,2.4c0.11,0.27,0.09,0.47-0.09,0.68c-0.71,0.88-1.07,1.83-1.12,2.87
								l0,0l0,0c0.15,0.02,0.29,0.03,0.44,0.05c0,0,0-0.01,0-0.01c-0.02-0.67,0.23-1.5,0.6-2.06c0.28-0.42,0.57-0.73,0.89-1.02
								C99.12,147.4,99.12,146.7,99.17,146.12z"/>
							<path class="st1" d="M98.91,131.31c-0.17,0.03-0.34,0.07-0.51,0.09c-1.61,0.33-3.18,0.59-4.73,0.77
								c-0.57,0.36-1.1,0.79-1.58,1.27c0.72-0.06,1.45-0.13,2.17-0.23c0.51-0.4,1.16-0.68,1.96-0.71c0.6-0.03,1.11,0.05,1.56,0.2
								c0.85-0.16,1.7-0.32,2.55-0.48C99.93,131.83,99.44,131.52,98.91,131.31z"/>
							<path class="st1" d="M101.21,139.64c-0.42-0.1-0.84-0.2-1.25-0.31c-0.01,0.04-0.02,0.07-0.03,0.11
								c-0.05,0.16-0.1,0.31-0.15,0.47c0.27,0.08,0.52,0.15,0.8,0.23c-0.41,0.27-0.78,0.52-1.15,0.76
								c-0.12,0.33-0.25,0.66-0.38,0.99c0.59-0.4,1.18-0.8,1.77-1.2c0.06-0.15,0.12-0.3,0.18-0.45
								C101.07,140.04,101.14,139.84,101.21,139.64z"/>
							<path class="st1" d="M99.18,146.12C99.18,146.12,99.17,146.12,99.18,146.12c-0.05,0.58-0.06,1.28,0.07,1.87l0,0
								C99.12,147.4,99.13,146.7,99.18,146.12z"/>
							<path class="st1" d="M105.55,148.72L105.55,148.72c0.26-0.03,0.51-0.06,0.77-0.09c0,0,0-0.01,0-0.01
								C106.06,148.65,105.81,148.69,105.55,148.72z"/>
						</g>
						<path class="st7" d="M163.37,77.31c-3-4.96-8.69-8.07-14.49-7.91c-3.05,0.08-6.27,1.03-8.42,3.29
							c-2.03,2.14-3.05,5.11-3.16,8.02c-0.12,3.14,0.8,6.17,2.04,9.03c-0.26-0.28-0.53-0.55-0.82-0.8c-0.29-0.25-0.6-0.3-0.88-0.24
							c-1.15-0.78-2.23-1.65-3.11-2.72c-0.14-0.24-0.27-0.48-0.37-0.74c-0.1-0.27-0.29-0.44-0.5-0.55
							c-0.08-0.14-0.16-0.27-0.24-0.42c-0.39-0.79-1.65-0.53-1.83,0.25c-0.09-0.02-0.17-0.05-0.28-0.05
							c-1.2,0.05-1.89,0.89-2.85,1.48c-0.95,0.59-2.03,1-3.14,1.15c-0.54,0.07-0.99,0.41-1,1c0,0.49,0.46,1.07,1,1
							c1.14-0.15,2.2-0.43,3.24-0.92c0.47-0.22,0.92-0.48,1.34-0.79c0.21-0.15,0.47-0.41,0.74-0.62c0.59,1.54,1.78,2.68,3.14,3.73
							c1.53,1.17,2.84,2.45,3.91,4.02c-2.22,0.74-4.58,0.98-6.94,1.06c-3.89,0.13-7.79,0.06-11.69,0.07c-1.29,0-1.29,2,0,2
							c4.13-0.01,8.29,0.1,12.42-0.1c3.29-0.16,6.58-0.69,9.48-2.28c-0.71,1.84-2.2,3.05-4.04,3.86c-1.03,0.45-2.11,0.81-3.18,1.14
							c-1.13,0.35-2.26,0.62-3.42,0.23c-0.35-0.11-0.63-0.03-0.84,0.14c-0.17-0.08-0.33-0.18-0.49-0.3
							c-0.43-0.33-1.12-0.06-1.37,0.36c-0.31,0.51-0.07,1.04,0.36,1.37c2.54,1.95,6.45,0.5,9.07-0.5c2.96-1.13,6.18-3.16,6.09-6.74
							c-0.02-0.62-0.54-0.97-1.05-0.97c-0.08-0.38-0.35-0.72-0.71-0.82c-0.06-0.15-0.14-0.29-0.2-0.43c0.65-0.01,1.34-0.71,0.95-1.5
							c-1.68-3.42-3.19-7.22-2.81-11.11c0.35-3.47,2.26-6.68,5.64-7.88c6.13-2.19,13.34,0.72,16.65,6.2
							C162.31,79.42,164.04,78.42,163.37,77.31z"/>
						<path class="st7" d="M179.32,70.94c-0.21-1.3-0.84-2.49-1.52-3.61c-0.79-1.3-1.62-2.57-2.43-3.86
							c-0.93-1.48-1.86-2.95-2.79-4.43c-0.64-1.27-1.46-2.48-2.27-3.61c-0.74-1.02-2.43-0.1-1.73,1.01
							c0.83,1.32,1.66,2.64,2.49,3.95c0.6,1.32,0.91,2.71,0.56,4.15c-0.27,1.14-0.92,2.28-2.04,2.76c-1.61,0.69-3.45-0.22-4.88-0.93
							c-0.49-0.25-0.94-0.06-1.23,0.26c-1.79-0.83-3.63-1.56-5.45-2.24c-7.36-2.75-15.95-5.33-23.21-0.87
							c-0.37,0.23-0.49,0.58-0.45,0.92c-1.55,0.7-3,1.61-4.3,2.78c-0.96,0.86,0.46,2.27,1.41,1.41c5.39-4.87,13.7-4.76,20.41-3.46
							c7.24,1.4,14.1,4.85,18.76,10.68c2.48,3.11,4.17,6.77,4.86,10.69c0.22,1.27,2.15,0.73,1.93-0.53
							c-0.43-2.44-1.21-4.7-2.26-6.79c0.48-0.13,0.84-0.56,0.6-1.15c-1.49-3.71-4.08-6.43-7.18-8.56c0.42-0.02,0.85-0.07,1.27-0.2
							c0.08-0.02,0.15-0.06,0.23-0.09c0.03,0.18,0.1,0.36,0.25,0.53c1.07,1.16,2.14,2.33,3.21,3.49c0.49,0.54,0.99,1.08,1.48,1.61
							c0.34,0.37,0.69,0.86,1.2,1c1.11,0.3,2.16-0.85,2.61-1.73C179.37,73.17,179.5,72.03,179.32,70.94z"/>
						<path class="st7" d="M164.56,61.72c-1.9-2.71-4.6-4.57-7.47-6.14c-1.43-0.78-2.88-1.51-4.31-2.28
							c-0.74-0.4-1.47-0.91-2.25-1.23c-0.93-0.38-1.81-0.21-2.72,0.15c-0.12,0.05-0.22,0.11-0.31,0.19
							c-0.33,0.03-0.58,0.2-0.74,0.45c-0.55-0.1-1.09-0.19-1.65-0.27c-1.26-0.18-1.8,1.75-0.53,1.93c1.85,0.27,3.71,0.55,5.51,1.12
							c1.64,0.52,3.16,1.31,4.62,2.22c2.83,1.76,5.44,3.86,8.49,5.25C164,63.46,165.2,62.63,164.56,61.72z"/>
						<path class="st7" d="M172.79,219.7c-2.83,0.45-5.7,0.46-8.54,0.12c-0.32-0.04-0.58,0.02-0.79,0.13
							c-0.61-0.23-1.22-0.47-1.8-0.71c-0.94-0.39-1.87,0.58-1.9,1.45c-0.07,2.36-3.88,3.74-5.57,4.68
							c-2.89,1.61-5.78,3.22-8.67,4.82c-1.69,0.94-0.18,3.53,1.51,2.59c3.45-1.92,6.9-3.84,10.36-5.76
							c1.93-1.08,3.99-2.35,4.89-4.32c3.81,1.41,8.1,2.27,11.65-0.25C175.37,221.44,174.48,219.43,172.79,219.7z"/>
						<path class="st7" d="M131.99,215.56c-1.62-0.03-3.23-0.17-4.82-0.45c-0.81-0.14-1.61-0.31-2.4-0.52
							c-0.37-0.09-0.74-0.19-1.11-0.3c0.01-0.9-0.98-1.72-1.92-1.48c-1.08,0.28-1.71,1.26-1.73,2.31c-0.36,0.04-0.72,0.19-0.96,0.42
							c-0.63,0.63-0.5,1.48,0,2.12c1.8,2.32,4.71,3.49,7.51,4.01c1.64,0.3,3.33,0.55,4.74-0.54c1.16-0.9,1.71-2.31,2.14-3.68
							C133.74,216.51,132.94,215.58,131.99,215.56z"/>
						<path class="st7" d="M186.74,135.77c-0.91-7.24-3.56-14.04-6.23-20.77c-0.19-0.49-0.55-0.78-0.96-0.91
							c-0.83-1.28-3.09-0.5-2.69,1.22c2.32,9.99,4.78,21.18-0.21,30.79c-2.07,3.99-5.29,7.31-9.56,8.89
							c-2.51,0.93-5.16,1.42-7.76,2.06c-2.74,0.67-5.45,1.45-8.13,2.34c-2.95,0.98-5.84,2.1-8.71,3.3
							c-1.71,0.72-4.56,2.08-6.11,0.44c-0.52-0.55-1.17-0.55-1.68-0.27c-0.6-0.21-1.32-0.09-1.77,0.6
							c-1.87,2.89,0.19,6.41,3.21,7.34c3.66,1.12,7.25-1.07,10.62-2.19c2.54-0.85,5.13-1.47,7.74-1.96
							c0.47-0.02,0.95-0.05,1.42-0.06c2.16-0.04,4.34-0.04,6.5-0.14c2.04,6.72,4.18,13.72,3.45,20.83
							c-0.56,5.49-3.1,11.24-7.94,14.22c-5.43,3.33-12.76,3.33-18.78,1.87c-6.04-1.46-11.55-4.62-15.86-9.1
							c-1.43-1.49-2.75-3.11-3.88-4.85c-1.14-1.75-1.88-3.81-2.76-5.71c-1.92-4.17-3.84-8.33-5.76-12.5
							c0.37,0.92,0.25,2.37,0.36,3.36c0.13,1.18,0.33,2.38,0.38,3.56c0.08,2.09,0.86,4.08,1.66,6.02c-0.63,0.27-1.07,0.9-0.77,1.7
							c0.49,1.3,1.07,2.57,1.69,3.81c-0.93-0.01-1.84,0.7-1.42,1.8c4.07,10.61,13.03,18.31,23.34,22.66
							c0.75,0.32,1.64-0.34,1.85-1.05c0.06-0.2,0.07-0.38,0.05-0.56c4.47,1.21,9.25,1.52,13.85,1.64c0.29,0.01,0.54-0.06,0.74-0.17
							c3.34-0.06,6.64-0.67,9.68-2.07c3.19-1.47,5.83-4,7.29-7.21c1.68-3.71,2.22-7.93,2.31-11.97c0.2-9.21-2.5-18.19-6.26-26.52
							c2.82-0.31,5.58-0.91,8.23-2.17C184.51,159,188.12,146.72,186.74,135.77z M136.01,167.37c-0.42-0.36-0.7-0.83-0.75-1.34
							c0.72,0.45,1.53,0.69,2.37,0.77C137.09,166.99,136.55,167.17,136.01,167.37z M173.26,160.99c-0.67,0.36-1.36,0.67-2.06,0.94
							c-0.2-0.1-0.44-0.15-0.73-0.13c-2.65,0.2-5.3,0.42-7.95,0.69c4.28-0.8,8.47-1.85,12.25-4.17c3.22-1.98,5.85-4.82,7.64-8.14
							C180.73,154.77,177.61,158.66,173.26,160.99z"/>
						<path class="st7" d="M199.25,213.12c-0.47-0.17-0.91-0.41-1.32-0.67c-0.04-0.13-0.1-0.25-0.19-0.38
							c-1.87-2.73-2.95-5.66-3.51-8.69c-0.08-0.84-0.12-1.68-0.14-2.5c-0.08-2.82-0.03-5.64,0.08-8.46
							c0.59-4.34,1.74-8.67,2.87-12.73c0.35-1.26-0.85-2.03-1.84-1.82c0.64-5.94,1.55-11.85,2.72-17.71
							c0.12-0.62-0.11-1.13-0.49-1.45c0.04-0.49,0.09-0.99,0.11-1.48c0.36-7.19-1.49-14.12-3.23-21.04
							c-1.93-7.67-4.16-15.26-7.26-22.55c-0.75-1.77-3.34-0.24-2.59,1.51c2.88,6.74,4.92,13.81,6.73,20.91
							c1.82,7.12,3.77,14.22,3.33,21.64c-0.83,13.9-7.46,27.09-5.93,41.21c0.69,6.43,3.14,14.7,9.87,17.14
							C200.27,216.67,201.05,213.77,199.25,213.12z"/>
						<path class="st11" d="M99.66,134.6c-0.47-1.22-1.67-2.73-3.15-1.87c-0.01,0.01-0.02,0.02-0.03,0.02
							c-0.57-0.3-1.25-0.16-1.76,0.26c-2.5,2.08-4.42,5.21-4.03,8.58c0.19,1.68,0.93,3.22,1.8,4.65c0.84,1.38,1.87,2.56,3.18,3.51
							c1.27,0.91,2.75-0.83,2.05-2.05C95.2,143.28,101.4,139.17,99.66,134.6z"/>
						<path class="st7" d="M98.37,140.22c0.94-2.29,1.41-5.17-0.17-7.31c-0.48-0.65-1.3-0.98-2.05-0.54
							c-0.64,0.38-1.02,1.4-0.54,2.05c1.36,1.84,0.22,4.17-0.58,6.01c-1.14,2.61-1.77,5.19-0.89,7.99c0.57,1.84,3.47,1.05,2.89-0.8
							c-0.38-1.23-0.45-2.47-0.12-3.72C97.25,142.63,97.87,141.44,98.37,140.22z"/>
						<path class="st7" d="M113.61,129.93c-1.27,3.26-2.27,6.62-2.96,10.05c-0.15,0.75-0.28,1.5-0.41,2.25
							c-0.3,0.48-0.67,0.91-1.16,1.25c-0.7,0.47-1.49,0.77-2.3,1c-0.18-2.66-0.51-5.31-1-7.94c-0.15-0.8-1.11-1.25-1.84-1.05
							c-0.84,0.23-1.19,1.05-1.05,1.85c0.55,2.99,0.88,6,1,9.04c0.03,0.71,0.48,1.24,1.08,1.42c-0.01,0.08-0.02,0.16-0.02,0.25
							c0,0.74,0.69,1.59,1.5,1.5c1.03-0.12,2.06-0.24,3.1-0.36c0.98-0.11,2-0.14,2.62-1.03c0.56-0.79,0.52-1.83,0.63-2.76
							c0.08-0.71,0.2-1.42,0.31-2.12c0.21-0.38,0.39-0.79,0.55-1.21c0.65-1.68,0.97-3.5,1.39-5.25c0.49-2.03,0.98-4.06,1.46-6.09
							C116.96,128.81,114.3,128.16,113.61,129.93z"/>
						<path class="st8" d="M167.32,231.24c-0.07-0.31-0.14-0.62-0.19-0.93c-0.01-0.07-0.02-0.14-0.03-0.21c0-0.01,0-0.01,0-0.02
							c-0.02-0.17-0.04-0.34-0.05-0.52c-0.06-0.71-0.07-1.43-0.09-2.14c-0.01-0.75-0.56-1.37-1.3-1.47
							c-0.4-0.05-0.77,0.06-1.06,0.28c-0.5,0.02-0.98,0.23-1.24,0.7c-0.62,1.12-1.25,2.23-1.87,3.35c-0.32,0.56-0.68,1.13-0.86,1.75
							c-0.24,0.82-0.1,1.8,0.56,2.38c0.64,0.57,1.45,0.64,2.27,0.64c0.66,0,1.35-0.03,1.99-0.17c0.82-0.18,1.49-0.72,1.81-1.49
							C167.54,232.69,167.47,231.96,167.32,231.24z"/>
						<path class="st8" d="M120.1,222.25c-0.02-0.02-0.05-0.02-0.07-0.04c-0.12-0.2-0.28-0.37-0.49-0.48
							c-0.34-0.18-0.78-0.29-1.16-0.15c-1.29,0.48-2.46,1.17-3.47,2.12c-0.54,0.5-1.1,1.1-1.28,1.83c-0.16,0.67-0.02,1.37,0.46,1.88
							c0.4,0.42,1,0.63,1.58,0.61c1.45-0.07,2.8-0.66,3.93-1.55c0.22-0.17,0.43-0.36,0.62-0.57c0.32-0.35,0.51-0.69,0.68-1.13
							C121.24,223.87,120.94,222.78,120.1,222.25z"/>
						<path class="st8" d="M112.05,220.98c-0.2-0.31-0.52-0.63-0.9-0.69c-1.13-0.17-2.21-0.16-3.34,0.07
							c-0.98,0.2-1.94,0.6-2.79,1.14c-0.66,0.42-0.99,1.35-0.54,2.05c0.43,0.66,1.34,0.99,2.05,0.54c0.28-0.18,0.58-0.33,0.89-0.47
							c0.49-0.19,1-0.33,1.52-0.41c0.55-0.05,1.1-0.06,1.64,0.01c-0.06-0.01-0.11-0.02-0.17-0.02c0.39,0.05,0.74,0.05,1.09-0.16
							c0.31-0.18,0.61-0.54,0.69-0.9C112.28,221.75,112.27,221.32,112.05,220.98z"/>
						<path class="st8" d="M173.95,127.67c-0.64-4.06-2.49-7.77-5.82-10.24c-0.76-0.56-2.01,0.02-2.2,0.9
							c-0.45,2.1-0.08,4.1,0.3,6.18c0.42,2.26,0.68,4.54,0.81,6.83c0.2,3.83,0.26,8.07-1.37,11.63c-2.72,5.93-9.79,6.9-15.32,8.76
							c-3.25,1.09-6.43,2.55-8.77,5.13c-0.19,0.21-0.3,0.44-0.36,0.66c-0.09,0.07-0.19,0.14-0.28,0.22
							c-1.36,1.1,0.38,3.16,1.82,2.36c3.98-2.22,8.13-4.1,12.44-5.59c3.85-1.33,8.21-1.96,11.68-4.17c3.62-2.31,5.29-6.3,6.31-10.32
							C174.19,136,174.6,131.77,173.95,127.67z"/>
						<path class="st8" d="M183.65,169.13c-0.84-1.11-1.98-2.05-3.42-2.2c-1.34-0.14-2.65,0.48-3.56,1.47
							c-0.94,1.02-1.43,2.26-1.66,3.58c-0.18,0.23-0.29,0.54-0.27,0.92c0.14,2.8,0.3,5.62,0.92,8.37c0.57,2.54,1.6,5.46,3.48,7.35
							c0.96,0.97,2.39,1.27,3.58,0.51c1.13-0.72,1.6-2.09,1.89-3.32c0.7-2.92,0.92-6.05,0.97-9.06
							C185.64,174.11,185.29,171.29,183.65,169.13z"/>
						<path class="st8" d="M182.62,200.45c-0.12-1.29-0.47-2.5-1.1-3.64c-0.29-0.53-0.95-0.8-1.55-0.72
							c-0.2-0.02-0.41-0.01-0.63,0.05c-1.42,0.38-1.66,2.13-1.68,3.38c-0.01,0.39,0.03,0.78,0.09,1.16c0.01,0.11,0,0.22,0.02,0.33
							c0.06,0.49,0.17,1.02,0.36,1.51c0.18,0.65,0.4,1.29,0.63,1.92c0.27,0.73,1.03,1.31,1.85,1.05c0.54-0.18,1.03-0.69,1.11-1.27
							c0.05-0.04,0.1-0.07,0.14-0.12c0.55-0.55,0.64-1.33,0.73-2.06C182.66,201.52,182.67,200.99,182.62,200.45z"/>
						<path class="st8" d="M147.82,55.98c-2.74,0.13-5.4-0.78-8.15-0.41c-2.52,0.34-4.86,1.52-6.65,3.32
							c-1.36,1.37,0.76,3.5,2.12,2.12c1.4-1.41,3.28-2.38,5.28-2.53c2.48-0.19,4.91,0.61,7.4,0.49c0.81-0.04,1.5-0.66,1.5-1.5
							C149.32,56.7,148.64,55.94,147.82,55.98z"/>
						<path class="st8" d="M172.19,62c-0.42-1.76-1.61-3.11-3.01-4.19c-1.65-1.28-3.47-2.36-5.23-3.49
							c-1.78-1.14-3.62-2.12-5.71-2.56c-2.09-0.44-4.24-0.5-6.37-0.53c-1.93-0.03-1.93,2.97,0,3c1.75,0.03,3.52,0.03,5.24,0.36
							c1.86,0.36,3.44,1.13,5.03,2.14c1.53,0.98,3.08,1.95,4.57,2.98c1.13,0.78,2.24,1.7,2.57,3.09
							C169.75,64.68,172.64,63.88,172.19,62z"/>
						<path class="st8" d="M96.44,133.5c-0.53-0.53-1.61-0.63-2.12,0c-2.78,3.4-3.82,8-2.59,12.24c0.21,0.71,0.91,1.19,1.65,1.07
							c0.68-0.1,1.37-0.72,1.3-1.47c-0.16-1.66-0.36-3.5-0.1-5.08c0.23-1.42,0.71-2.63,1.67-3.59c0.42-0.42,0.51-0.91,0.39-1.35
							C96.96,134.73,96.96,134.02,96.44,133.5z"/>
						<path class="st1" d="M94.84,135.42c-0.18-0.18-0.53-0.21-0.71,0c-1.22,1.43-1.9,3.27-1.85,5.15c0.01,0.64,1.01,0.64,1,0
							c-0.04-1.61,0.51-3.22,1.56-4.45C95.02,135.92,95.05,135.62,94.84,135.42z"/>
						<path class="st1" d="M93.9,144.17c-0.1-0.43-0.2-0.86-0.31-1.28c-0.06-0.25-0.36-0.43-0.61-0.35
							c-0.27,0.09-0.41,0.34-0.35,0.62c0.1,0.43,0.2,0.86,0.31,1.28c0.06,0.25,0.36,0.43,0.62,0.35
							C93.81,144.7,93.96,144.45,93.9,144.17z"/>
						<path class="st1" d="M168.79,121.76c-0.39-1.22-2.32-0.7-1.93,0.53c1.81,5.69,2.55,12.71,0.37,18.42
							c-1.89,4.96-7.08,7.47-11.57,9.62c-1.16,0.56-0.15,2.28,1.01,1.73c4.88-2.35,10.16-5.11,12.32-10.41
							c1.22-2.99,1.51-6.42,1.47-9.62C170.43,128.55,169.85,125.08,168.79,121.76z"/>
						<path class="st1" d="M152.38,153.31c-0.15-0.47-0.71-0.91-1.23-0.7c-1.46,0.6-2.92,1.19-4.37,1.79
							c-0.25,0.1-0.46,0.22-0.6,0.46c-0.13,0.21-0.18,0.53-0.1,0.77c0.15,0.47,0.71,0.91,1.23,0.7c1.46-0.6,2.92-1.19,4.37-1.79
							c0.25-0.1,0.46-0.22,0.6-0.46C152.41,153.87,152.46,153.55,152.38,153.31z"/>
						<path class="st1" d="M181.16,170.87c-0.17-0.51-0.69-0.85-1.23-0.7c-0.5,0.14-0.87,0.72-0.7,1.23
							c0.92,2.76,1.25,5.64,0.99,8.54c-0.05,0.54,0.49,1,1,1c0.58,0,0.95-0.46,1-1C182.49,176.88,182.13,173.78,181.16,170.87z"/>
						<path class="st1" d="M181.32,182.61c-1.29,0-1.29,2,0,2C182.6,184.61,182.61,182.61,181.32,182.61z"/>
						<path class="st1" d="M181.61,202.07c-0.21-1.12-0.42-2.24-0.62-3.36c-0.1-0.52-0.75-0.85-1.23-0.7
							c-0.55,0.18-0.8,0.68-0.7,1.23c0.21,1.12,0.42,2.24,0.62,3.36c0.1,0.52,0.75,0.85,1.23,0.7
							C181.46,203.12,181.71,202.62,181.61,202.07z"/>
						<path class="st1" d="M165.96,232.47c-0.09-0.34-0.17-0.68-0.23-1.03c-0.01-0.04-0.01-0.08-0.02-0.12
							c-0.01-0.07-0.02-0.14-0.02-0.21c-0.02-0.17-0.03-0.35-0.04-0.52c-0.02-0.35-0.01-0.7,0.01-1.05
							c0.01-0.16,0.03-0.32,0.04-0.48c0-0.02,0-0.02,0-0.03c0-0.01,0-0.01,0-0.02c0.02-0.11,0.03-0.21,0.05-0.32
							c0.09-0.51-0.14-1.1-0.7-1.23c-0.49-0.11-1.13,0.15-1.23,0.7c-0.29,1.62-0.25,3.27,0.19,4.86c0.14,0.5,0.72,0.86,1.23,0.7
							C165.77,233.53,166.11,233.01,165.96,232.47z"/>
						<path class="st1" d="M109.99,221.18c-0.15-0.46-0.71-0.92-1.23-0.7c-0.76,0.32-1.54,0.59-2.33,0.81
							c-0.39,0.11-0.78,0.2-1.18,0.28c-0.21,0.04-0.41,0.08-0.62,0.12c-0.09,0.01-0.18,0.03-0.27,0.04
							c-0.04,0.01-0.41,0.06-0.18,0.03c-0.28,0.04-0.5,0.09-0.71,0.29c-0.17,0.17-0.3,0.46-0.29,0.71c0.02,0.48,0.44,1.07,1,1
							c1.76-0.23,3.47-0.66,5.1-1.34c0.25-0.11,0.45-0.21,0.6-0.46C110.02,221.74,110.07,221.42,109.99,221.18z"/>
						<path class="st1" d="M111.56,219.41c-1.29,0-1.29,2,0,2C112.84,221.41,112.85,219.41,111.56,219.41z"/>
						<path class="st1" d="M119.77,223.06c-0.38-0.35-1.04-0.41-1.41,0c-0.17,0.19-0.35,0.37-0.54,0.54
							c-0.1,0.09-0.19,0.17-0.29,0.25c0,0,0,0,0,0c0,0-0.01,0.01-0.01,0.01c-0.05,0.04-0.1,0.08-0.16,0.11
							c-0.39,0.28-0.81,0.51-1.25,0.7c-0.21,0.09-0.43,0.17-0.65,0.23c-0.5,0.15-0.87,0.71-0.7,1.23c0.16,0.51,0.69,0.86,1.23,0.7
							c1.44-0.43,2.77-1.25,3.79-2.36C120.13,224.08,120.18,223.43,119.77,223.06z"/>
					</g>
					<path class="st10" d="M109.61,125.41c-0.11-0.82-1.17-0.86-1.67-0.44c-2.83,2.35-6.49,3.33-10.13,2.89
						c-0.48-0.06-0.79,0.26-0.91,0.65c-0.17,0.04-0.35,0.09-0.53,0.17c-0.83,0.38-1.67,0.58-2.57,0.76
						c-0.57,0.11-1.26,0.25-1.99,0.35c0,0-0.01,0-0.01,0c-1.34-0.06-2.65-0.21-3.96-0.47c-0.01,0-0.02,0-0.04,0
						c-0.11-0.19-0.27-0.31-0.46-0.36c-0.63-0.35-1.56-0.1-1.46,0.79c0.06,0.51,0.14,0.98,0.28,1.47c0.06,0.2,0.17,0.34,0.29,0.46
						c0.01,0.05,0.02,0.1,0.02,0.16c0.06,0.69,0.59,1.08,1.27,0.96c0.47-0.08,1.09,0.22,1.57,0.26c0.55,0.04,1.11-0.03,1.65-0.08
						c1.18-0.1,2.35-0.22,3.52-0.36c2.31-0.29,4.59-0.71,6.83-1.33c2.07-0.57,4.16-1.14,6.14-1.99c0.69-0.3,1.79-0.62,2.19-1.34
						C110.06,127.23,109.71,126.17,109.61,125.41z"/>
					<path class="st10" d="M105.99,149.68c-0.32-0.77-0.88-1.41-1.61-1.82c-1.32-0.74-2.78-0.61-4.07-0.02
						c-0.34-0.11-0.72-0.04-1.01,0.23c-1.3,1.2-2.09,3.03-1.26,4.72c0.36,0.73,0.99,1.37,1.63,1.86c0.72,0.55,1.57,0.88,2.49,0.79
						c0.86-0.09,1.79-0.41,2.51-0.91c0.77-0.55,1.22-1.31,1.42-2.23C106.27,151.43,106.32,150.51,105.99,149.68z M104.22,151.42
						c-0.02,0.22-0.02,0.11-0.01,0.06c-0.01,0.09-0.03,0.18-0.05,0.27c-0.03,0.14-0.07,0.29-0.11,0.43
						c-0.07,0.22-0.14,0.35-0.29,0.51c0.01-0.01-0.09,0.08-0.13,0.12c-0.03,0.02-0.08,0.06-0.09,0.07c-0.11,0.07-0.23,0.14-0.35,0.2
						c-0.01,0.01-0.07,0.03-0.11,0.05c-0.04,0.01-0.11,0.04-0.12,0.05c-0.16,0.06-0.32,0.12-0.48,0.16
						c-0.13,0.04-0.36,0.1-0.45,0.11c0.09-0.01-0.15,0.01-0.16,0.01c-0.01,0-0.14,0-0.17,0c-0.24-0.03-0.37-0.09-0.62-0.25
						c-0.06-0.04-0.12-0.08-0.17-0.11c-0.02-0.01-0.02-0.01-0.03-0.02c-0.01-0.01,0,0-0.02-0.02c-0.11-0.09-0.21-0.18-0.31-0.28
						c-0.1-0.1-0.2-0.2-0.29-0.3c-0.05-0.05-0.1-0.11-0.14-0.16c-0.03-0.04-0.07-0.08-0.1-0.12c0.04,0.05,0.04,0.04,0-0.01
						c-0.21-0.3-0.27-0.4-0.33-0.74c0-0.02,0-0.02,0-0.05c0-0.09,0-0.19,0.01-0.28c0-0.01,0-0.02,0.01-0.04
						c0.02-0.08,0.04-0.16,0.06-0.24c0.02-0.06,0.04-0.13,0.06-0.19c0.01-0.02,0.01-0.03,0.01-0.03c0.01-0.01,0.01-0.02,0.03-0.06
						c0.06-0.11,0.12-0.21,0.19-0.32c0.13-0.05,0.26-0.12,0.38-0.21c-0.1,0.08,0.04-0.03,0.05-0.03c0.06-0.04,0.12-0.08,0.18-0.12
						c0.14-0.09,0.27-0.16,0.42-0.24c0.16-0.08,0.07-0.05,0.25-0.11c0.15-0.05,0.3-0.1,0.45-0.14c0.03-0.01,0.41-0.07,0.25-0.05
						c0.16-0.01,0.31-0.02,0.47-0.01c0.01,0,0.07,0,0.11,0.01c0.03,0,0.08,0.01,0.1,0.01c0.14,0.03,0.26,0.07,0.4,0.11
						c0.02,0.01,0.03,0.01,0.05,0.01c0.05,0.02,0.09,0.04,0.13,0.06c0.12,0.06,0.24,0.14,0.35,0.21c0,0,0,0,0,0c0,0,0,0,0.01,0.01
						c0.04,0.04,0.09,0.08,0.13,0.12c0.04,0.04,0.08,0.09,0.12,0.13c0.02,0.02,0.04,0.05,0.05,0.07c0.05,0.08,0.1,0.16,0.14,0.24
						c0.01,0.03,0.04,0.08,0.05,0.11c0.02,0.07,0.04,0.14,0.06,0.21c0.04,0.18,0.03,0.09,0.03,0.28
						C104.24,151.09,104.23,151.26,104.22,151.42z"/>
					<path class="st4" d="M103.28,141.51c-0.33-1.52-0.6-3.06-0.83-4.6c-0.08-0.53-0.76-0.83-1.23-0.7
						c-0.57,0.16-0.78,0.69-0.7,1.23c0.08,0.55,0.17,1.09,0.27,1.64c-0.38,0.05-0.74,0.28-0.84,0.69c-0.51,2.07-0.88,4.16-1.14,6.27
						c-0.05,0.39,0.34,0.9,0.73,0.96c1.19,0.19,2.37,0.26,3.57,0.16c0.57-0.05,0.95-0.42,1-1
						C104.23,144.61,103.61,143.01,103.28,141.51z"/>
					<path class="st4" d="M101.8,133.59c-0.09-0.44-0.24-0.84-0.42-1.25c-0.09-0.21-0.38-0.4-0.6-0.46
						c-0.24-0.07-0.56-0.04-0.77,0.1c-0.21,0.14-0.4,0.34-0.46,0.6c-0.01,0.09-0.02,0.18-0.04,0.27c0,0.12,0.03,0.23,0.07,0.34
						c0.02,0.05,0.03,0.1,0.05,0.14c0.01,0.05,0,0.1,0.01,0.15c0.12,0.41,0.21,0.83,0.27,1.25c0.01,0.06,0.02,0.13,0.02,0.19
						c0.02,0.27,0.1,0.51,0.29,0.71c0.17,0.17,0.46,0.3,0.71,0.29c0.26-0.01,0.53-0.1,0.71-0.29c0.18-0.2,0.29-0.43,0.29-0.71
						C101.93,134.47,101.88,134.02,101.8,133.59z"/>
					<path class="st3" d="M104.18,150.52c-0.21-0.34-0.51-0.63-0.85-0.84c-0.41-0.24-0.88-0.35-1.35-0.29
						c-0.25,0.03-0.47,0.1-0.69,0.22c-0.26,0.14-0.44,0.35-0.61,0.58c-0.09,0.13-0.12,0.32-0.12,0.5c-0.08,0.15-0.15,0.31-0.19,0.49
						c-0.1,0.46-0.05,0.94,0.2,1.34c0.09,0.15,0.21,0.3,0.35,0.42c0.22,0.19,0.4,0.29,0.67,0.4c0.38,0.15,0.81,0.14,1.2,0.05
						c0.4-0.09,0.76-0.31,1.07-0.57c0.14-0.12,0.26-0.27,0.36-0.43c0.15-0.25,0.21-0.5,0.24-0.78
						C104.49,151.25,104.37,150.84,104.18,150.52z"/>
					<path class="st13" d="M101.78,126.82c-2.22-11.12-4.44-22.24-6.65-33.36c-0.02-0.08-0.06-0.14-0.09-0.21
						c-0.78-4.81-1.62-9.61-2.59-14.38c-0.01-0.07-0.05-0.11-0.07-0.16c0.16-1.8-0.13-3.56-0.93-5.21
						c-0.94-1.92-2.79-3.17-3.73-5.07c-0.34-0.68-1.34-0.6-1.71-0.03c-0.3,0.07-0.57,0.27-0.68,0.66c-0.7,2.6-1.17,5.24-1.44,7.91
						c-0.03,0.35,0.13,0.6,0.36,0.76c0.08,1.14,0.24,2.26,0.47,3.37c0,0.02-0.01,0.04-0.01,0.07c0.01,0.09,0.03,0.18,0.04,0.27
						c0,0,0,0,0,0c0,0.01,0,0.01,0.01,0.02c0.2,1.8,0.6,3.54,1.15,5.24c-0.03,0.14-0.04,0.29-0.01,0.46
						c2.83,13.83,5.43,27.71,7.78,41.63c0.14,0.82,1.15,0.86,1.67,0.44c0.55-0.45,1.68-1.72,2.33-1.83
						c0.73-0.12,2.15,0.49,2.86,0.66C101.33,128.23,101.93,127.58,101.78,126.82z"/>
					<path class="st7" d="M97.99,107.68c-0.44-2.7-0.83-5.41-1.15-8.13c-0.11-0.97-0.22-1.93-0.33-2.9
						c-0.02-0.06-0.05-0.12-0.07-0.19c-1.26-4.63-2.07-9.35-2.88-14.08c-0.1-0.61-0.02-1.15,0.18-1.61
						c-0.41-1.71-0.84-3.41-1.3-5.11c-0.09-0.34-0.11-0.65-0.08-0.95c-0.11-0.32-0.2-0.65-0.32-0.97c-0.23-0.63-0.86-0.78-1.35-0.61
						c-0.13-0.21-0.27-0.42-0.4-0.63c-0.79-1.75-1.81-3.4-3.12-4.87c-0.76-0.84-2.18,0.25-1.57,1.21c0.09,0.14,0.18,0.28,0.27,0.42
						c-0.17,0.27-0.21,0.6,0.01,0.96c0.96,1.56,2.03,3.04,3.2,4.45c1.69,4.48,2.03,9.6,2.83,14.21c1.11,6.45,2.66,12.82,4.15,19.19
						c1.06,6.5,2.41,12.95,3.83,19.39c0.28,1.29,2.1,0.7,1.93-0.53C100.9,120.44,99.48,114.05,97.99,107.68z"/>
					<path class="st7" d="M101.85,132.3c-0.08-0.54-0.75-0.82-1.23-0.7c-0.57,0.15-0.78,0.7-0.7,1.23c0.34,2.29,0.65,4.66,0.34,6.97
						c-0.15,1.1-0.49,2.14-0.91,3.16c-0.46,1.12-0.79,2.19-0.54,3.41c0.26,1.26,2.19,0.73,1.93-0.53c-0.22-1.08,0.53-2.24,0.89-3.22
						c0.38-1.06,0.58-2.17,0.68-3.29C102.52,136.98,102.19,134.62,101.85,132.3z"/>
					<path class="st7" d="M109.61,125.04c-0.45-1.19-2.38-0.68-1.93,0.53c0.13,0.36,0.33,0.78,0.34,1.17
						c0.02,0.62-0.26,0.69-0.79,0.88c-0.92,0.32-1.88,0.54-2.82,0.79c-1.95,0.52-3.92,0.98-5.91,1.37c-2.03,0.39-4.08,0.7-6.14,0.88
						c-0.97,0.09-1.94,0.15-2.91,0.18c-0.39,0.01-0.91,0.09-1.35,0.06c-0.02-0.06-0.03-0.11-0.06-0.19
						c-0.06-0.27-0.11-0.53-0.17-0.8c-0.26-1.26-2.19-0.73-1.93,0.53c0.19,0.92,0.24,2.07,1.32,2.37c1.14,0.31,2.68,0.03,3.85-0.05
						c2.8-0.18,5.58-0.58,8.32-1.13c2.73-0.55,5.44-1.23,8.12-2.02c0.96-0.28,1.89-0.67,2.28-1.66
						C110.22,127,109.95,125.96,109.61,125.04z"/>
					<path class="st1" d="M91.58,106.26c-0.35-1.47-0.69-2.94-0.92-4.44c-0.22-1.45-0.35-2.91-0.52-4.37
						c-0.32-2.87-0.9-5.66-1.59-8.46c-0.79-3.21-1.62-6.43-1.83-9.75c-0.04-0.64-1.04-0.64-1,0c0.36,5.88,2.6,11.43,3.31,17.26
						c0.35,2.9,0.61,5.78,1.26,8.63c0.68,2.99,1.39,5.96,1.98,8.97c0.65,3.34,1.2,6.7,1.65,10.07c0.09,0.63,1.05,0.36,0.96-0.27
						C94.08,117.97,92.96,112.09,91.58,106.26z"/>
				</g>
				<g>
					<path class="st9" d="M128.36,80.61c0-0.01,0-0.01,0-0.02c0-0.22,0.08-0.43,0.27-0.59c-0.19,0.16-0.27,0.37-0.27,0.59
						C128.36,80.6,128.36,80.61,128.36,80.61c0,0.43,0.31,0.88,0.73,1.02C128.67,81.49,128.36,81.04,128.36,80.61z"/>
					<path class="st9" d="M121.89,94.51c5.75,0.33,14.29,1.77,19.15-2.08c-1.29-1.95-3.43-2.94-5.17-4.54
						c-1.18-1.09-2.02-2.3-2.81-3.62c-2.6,2.23-5.24,4.02-8.51,5.28c-3.08,1.18-5.85,2.4-8.48,4.4c-0.51,0.39-0.99,0.8-1.47,1.21
						C116.81,94.21,119.39,94.37,121.89,94.51z M129.48,90.66c0.51-0.42,1.11-0.71,1.66-1.08c0.61-0.42,1.03-0.99,1.52-1.54
						c0.81-0.91,2.41,0.32,1.69,1.31c-0.94,1.29-3.05,2.57-4.69,1.98C129.4,91.23,129.23,90.86,129.48,90.66z"/>
					<path class="st9" d="M96.42,133.5c-2.47,0.76-3.93,2.58-4.71,4.94c-1.09,3.27,0.33,7.06,3.41,9.36c0.53,0.4,1.05,0.83,1.8,0.93
						c-0.06-0.36-0.09-0.68-0.16-0.99c-0.4-1.78-0.3-3.51,0.43-5.2c0.37-0.87,0.73-1.75,1.05-2.64c0.51-1.4,1.04-2.81,0.98-4.34
						C99.14,133.93,97.98,133.02,96.42,133.5z"/>
					<path class="st9" d="M132.43,98.85c2.57-0.32,6.6-1.57,8.29-3.99c-3.24,1.64-7.21,1.63-10.82,1.67
						c-3.85,0.05-7.5-0.14-11.2-0.09c0.85,0.24,1.68,0.51,2.45,0.77C124.85,98.4,128.51,99.33,132.43,98.85z"/>
					<path class="st9" d="M111.93,146.13c0.84-5.08,1.91-10.11,3.22-15.09c0.1-0.39,0.21-0.77,0.31-1.16
						c-0.37,0.39-0.75,0.77-1.15,1.12c-1.92,1.7-3.98,3.27-6.3,4.38c-1.91,0.91-4.1,1.65-6.25,1.55c-0.08,1.13-0.37,2.27-0.77,3.29
						c-0.64,1.66-1.47,3.27-1.73,5.06c-0.12,0.83-0.4,3.14,0.56,3.74c0.13,0.02,0.25,0.05,0.35,0.1c0.94-0.04,1.88-0.09,2.81-0.16
						c2.92-0.22,5.82-0.63,8.69-1.19C111.77,147.23,111.84,146.68,111.93,146.13z"/>
					<path class="st9" d="M133.22,61.56c0.61-0.26,1.19-0.58,1.81-0.79c4.5-1.58,9.14-1.91,13.82-1.25
						c7.31,1.03,14.06,3.59,20.1,7.9c2.95,2.11,5.72,4.38,7.09,7.89c0.01,0.01,0.02,0.02,0.03,0.03c0.01,0.04,0.02,0.08,0.03,0.12
						c0.01,0.02,0.01,0.03,0.02,0.04c0.1,0.28,0.24,0.27,0.49,0.15c0.75-0.38,1.39-1.14,1.79-2.01c0.44-1.34,0.31-2.79-0.14-4.11
						c-0.22-0.65-0.55-1.26-0.91-1.86c-0.15-0.23-0.29-0.46-0.45-0.68c-1.1-1.51-2.15-3.05-3.15-4.63
						c-1.63-2.58-3.57-4.89-6.16-6.57c-6.2-4.03-12.87-4.84-19.93-2.8c-0.98,0.28-1.95,0.6-3,1.23c4,0.64,7.7,1.68,11.25,3.2
						c3.56,1.52,6.92,3.38,9.88,5.89c-0.04,0.05-0.08,0.11-0.11,0.16c-0.14-0.07-0.29-0.14-0.43-0.22
						c-3.46-1.91-7.05-3.51-10.83-4.7c-4.66-1.47-9.45-2.23-14.3-2.65c-1.94-0.17-3.76,0.28-5.34,1.48
						c-1.24,0.95-2.01,2.18-2.14,3.76c-0.02,0.18-0.04,0.43,0.06,0.54C132.88,61.84,133.06,61.62,133.22,61.56z"/>
					<path class="st9" d="M129.81,81.53L129.81,81.53c-0.04,0.02-0.08,0.02-0.12,0.04C129.74,81.56,129.77,81.56,129.81,81.53z"/>
					<path class="st9" d="M126.86,82.71c0.01-0.53,0.07-1.06,0.14-1.53c0.07-0.47,0.16-0.88,0.25-1.18
						c0.24-0.82,0.57-1.86,1.57-1.87c0.38,0,0.69,0.16,0.95,0.4c0.25,0.24,0.45,0.57,0.6,0.91c0.1,0.22,0.18,0.45,0.25,0.65
						c0.21,0.66,0.43,1.97,0.35,3.18c0.13-0.18,0.25-0.36,0.36-0.54c0.22-0.37,0.39-0.75,0.52-1.14c0.32-0.99,0.39-2.09,0.21-3.33
						c-0.36-2.6-1.8-5.55-4.49-4.31c-0.11,0.27-0.2,0.55-0.3,0.82c0.77-0.15,1.63-0.05,2.21,0.34c0.12,0.08,0.22,0.17,0.31,0.27
						c0.18,0.21,0.3,0.46,0.34,0.77c0.01,0.09-0.08,0.15-0.16,0.16c-0.69,0.07-1.43-0.05-2.13-0.01c-0.43,0.02-0.8,0.19-1.18,0.31
						c-0.95,3.2-1.42,6.63-1.57,10.14c0.8-0.38,1.59-0.78,2.38-1.2C126.97,84.86,126.83,83.77,126.86,82.71z"/>
					<path class="st9" d="M193.2,197.94c0.44-5.4,1.4-10.81,2.4-16.21c0.9-11.36,1.92-22.37,0.29-33.9
						c-0.96-6.8-2.46-13.55-4.63-20.07c-0.79-2.37-1.62-4.98-2.57-7.58c-1.74-3.75-4-7.12-6.34-10.55
						c-0.58-0.86-1.16-1.73-1.71-2.61c-2.38-3.28-4.41-6.74-4.86-11.15c-0.63-6.21-0.29-12.52-1.52-18.34
						c-0.43-0.6-0.78-1.28-1.04-1.72c-1.55-2.61-3.54-4.9-6-6.71c0,0,0,0-0.01-0.01c-3.23-2.15-6.71-3.87-10.4-5.21
						c-5.81-2.11-11.77-3.12-17.93-1.9c-0.52,0.1-1.04,0.23-1.54,0.37c-4.24,2.57-7.12,5.96-9.02,9.87
						c0.18-0.03,0.37-0.06,0.57-0.06c1.59-0.01,2.87,1.23,3.55,2.56c1.03,2.03,1.43,4.85,0.65,7.03c0.42-0.1,0.87,0.02,1.11,0.44
						c0.98,1.74,2.39,3.08,3.85,4.36c-2.43-4.3-2.86-9.31,0.73-13.74c4.3-5.31,12.53-6.33,18.38-3.04c6,3.37,8.08,11.71,7.46,18.11
						c-0.79,8.23-7.28,12.67-14.01,16.16c4.19,1.2,7.77,3.72,10.24,7.43c1.15,1.73,1.94,3.78,2.35,5.87
						c0.85,3.34,1.1,6.81,1.22,10.28c0.1,2.92,0.21,5.9-0.07,8.82c0,0.46-0.01,0.92-0.02,1.38c-0.14,4.05-2.03,7-5.55,8.94
						c-2.65,1.46-5.5,2.47-8.29,3.6c-0.96,0.39-1.91,0.77-2.86,1.18c-2.22,0.94-4.39,1.97-6.38,3.36c-2.62,1.82-4.89,3.97-6.38,6.84
						c-0.03,0.06-0.07,0.11-0.09,0.17c-0.5,1-0.81,2.04-0.69,3.17c0.08,0.77,0.49,1.17,1.26,1.21c0.4,0.02,0.79-0.01,1.19-0.1
						c1.09-0.27,2.16-0.62,3.2-1.03c1.32-0.52,2.67-0.9,4.03-1.21c1.81-0.41,3.64-0.67,5.51-0.75c3.91-0.18,7.8-0.37,11.68-0.93
						c4.05-0.58,7.95-1.63,11.5-3.73c4.91-2.91,8.43-6.95,9.95-12.56c1.17-4.29,1.04-8.62,0.3-12.96c-0.71-4.16-2.12-8.1-3.91-11.89
						c-0.86-1.83-1.53-3.69-2.02-5.58c0.04-0.17,0.08-0.35,0.14-0.51c0.02-0.05,0.02-0.07,0.03-0.09c0.04-0.08,0.11-0.2,0.12-0.22
						c0.02-0.03,0.08-0.1,0.13-0.17c0.02-0.02,0.03-0.04,0.04-0.06c0.06-0.06,0.14-0.12,0.2-0.18l0.05-0.03
						c0.04-0.03,0.09-0.05,0.13-0.07c0.09-0.03,0.24-0.07,0.25-0.08l0.09-0.02c0.14-0.03,0.12-0.02-0.07,0
						c0.09-0.04,0.29-0.02,0.39-0.02c0.1,0,0.21,0.01,0.31,0.01c0.03,0,0.05,0.01,0.07,0.01c0.05,0.01,0.09,0.02,0.14,0.03
						c0.09,0.02,0.18,0.04,0.27,0.07c0.28,1.17,0.62,2.32,1.06,3.45c1.28,3.24,2.77,6.4,3.84,9.73c1.03,3.24,1.68,6.54,1.8,9.96
						c0.12,3.41-0.19,6.85-1.2,10.12c-0.43,1.41-1.29,2.64-1.98,3.95c-0.74,1.41-1.52,2.82-2.59,4.01
						c-3.94,4.36-8.99,7.01-14.51,8.43c3.21,5.03,4.82,11.75,6.13,17.29c1.61,6.81,2.15,14.08,0.09,20.86
						c-2.5,8.25-8.6,12.11-15.73,13.22c4.3,1.55,8.02,4.12,13.01,4.08c6.72-0.05,11.08-5.48,15.92-9.28
						c0.14-0.11,0.37,0.03,0.26,0.2c-1.82,2.87-4.22,5.59-7.07,7.57c7.78,0.95,15.64,0.46,22.52-3.49
						C194.96,210.34,192.6,205.18,193.2,197.94z"/>
					<path class="st9" d="M170.12,200.63c0.23-0.81,0.41-1.63,0.56-2.46c0.15-0.82,0.27-1.65,0.35-2.49
						c0.12-1.25,0.17-2.5,0.16-3.76c-0.01-0.84-0.05-1.68-0.11-2.51c-0.22-2.93-0.75-5.85-1.46-8.67c-0.65-2.58-1.38-5.59-2.34-8.53
						c-0.24-0.74-0.5-1.47-0.77-2.18c-0.27-0.72-0.56-1.42-0.87-2.1c-0.31-0.69-0.64-1.35-0.99-1.98c-0.33-0.6-0.68-1.16-1.04-1.69
						c-0.3,0.06-0.6,0.14-0.9,0.19c-4.57,0.83-9.21,0.86-13.83,1.18c-2.32,0.16-4.6,0.49-6.82,1.18c-1.88,0.59-3.68,1.39-5.62,1.77
						c-2.98,0.59-5.15-1.29-4.83-4.2c0.1-0.89,0.35-1.76,0.68-2.59c0.11-0.28,0.24-0.54,0.36-0.8c1.36-2.9,3.52-5.17,6.03-7.14
						c1.15-0.9,2.36-1.68,3.61-2.38c2.07-1.15,4.25-2.09,6.45-2.98c1.98-0.81,3.98-1.55,5.94-2.39c0.67-0.29,1.34-0.6,1.99-0.92
						c0.2-0.1,0.4-0.18,0.6-0.28c2.07-1.07,3.6-2.55,4.37-4.64c0.44-1.63,0.67-3.29,0.79-4.97c0.01-0.16,0.02-0.32,0.03-0.48
						c0.12-2.24,0.04-4.5-0.03-6.74c-0.09-2.65-0.22-5.34-0.66-7.96c-0.25-1.25-0.55-2.5-0.91-3.75c-0.23-0.69-0.48-1.38-0.79-2.06
						c-0.08-0.18-0.1-0.36-0.08-0.52c-0.73-1.83-1.7-3.45-3.27-4.89c-2.31-2.1-5.22-3.37-8.27-3.94c-0.57-0.11-0.68-1-0.16-1.26
						c4.87-2.43,10.26-5.07,13.06-9.99c3.08-5.4,2.18-13.16-0.84-18.45c-4.06-7.12-15.46-7.84-20.58-1.53
						c-3.97,4.89-2.48,10.15,0.39,14.85c0.97,0.9,2.04,1.94,2.66,3.13c0.6,1.17,0.46,2.79-0.04,3.95c-0.61,1.41-2.33,2.38-3.64,3.1
						c-1.29,0.71-2.68,1.32-4.12,1.68c-2.16,0.55-4.39,0.66-6.6,0.47c0.77,2.45,0.13,5.02-1,7.4c-1.71,3.6-4.11,6.66-6.09,10.05
						c-0.47,0.89-0.89,1.8-1.25,2.74c-1.29,3.4-2.24,6.97-3.16,10.48c-2.23,8.47-3.85,17.23-4.81,25.96
						c-0.08,0.68-0.15,1.36-0.22,2.05c-0.01,0.09-0.02,0.18-0.03,0.28c0,0.01,0,0.03,0,0.04c-0.1,1-0.18,1.99-0.24,2.99
						c-0.01,0.11-0.01,0.22-0.02,0.33c-0.05,0.84-0.09,1.68-0.12,2.52c-0.01,0.24-0.01,0.47-0.02,0.71
						c-0.02,0.79-0.03,1.59-0.02,2.38c0,0.18,0,0.35,0,0.53c0.01,0.95,0.05,1.91,0.1,2.86c0,0.04,0,0.09,0,0.13
						c0.04,0.61,0.08,1.22,0.14,1.83c0.02,0.22,0.05,0.43,0.07,0.65c0.05,0.47,0.1,0.93,0.16,1.4c0.04,0.29,0.08,0.58,0.12,0.87
						c0.06,0.42,0.13,0.85,0.2,1.27c0.04,0.27,0.08,0.54,0.13,0.81c0.11,0.63,0.24,1.26,0.38,1.89c0.05,0.25,0.12,0.5,0.17,0.74
						c0.11,0.47,0.23,0.93,0.35,1.4c0.06,0.23,0.12,0.46,0.19,0.68c0.19,0.68,0.39,1.35,0.61,2.03c0.64,1.93,1.4,3.83,2.29,5.66
						c0.3,0.61,0.61,1.22,0.93,1.81c3.88,7.16,9.71,13.22,17.23,16.61c1.33,0.6,2.74,1.14,4.18,1.62c0.28-0.03,0.55,0.06,0.74,0.24
						C151.53,215.58,166.22,214.62,170.12,200.63z M146.96,74.05c0.88-1.69,3.72-2.06,5.38-1.51c1.73,0.57,2.28,2.4,2.5,4.03
						c0.02,0.17-0.22,0.24-0.32,0.13c-0.89-0.94-1.73-1.96-3.04-2.29c-1.47-0.37-2.61,0.46-4.01,0.53
						C147,74.97,146.76,74.43,146.96,74.05z M147.56,79.44c0.91-1.43,2.41-2.2,4.08-0.94c1.53,1.15,1.65,3.43,1.04,5.11
						c-0.57,1.58-2.09,3.56-3.99,2.84C146.29,85.54,145.69,81.17,147.56,79.44z"/>
					<path class="st9" d="M121.93,213.35c-1.64,2.74-5.61,3.84-8.47,4.77c-5.36,1.74-10.87,2.66-15.75,5.35
						c2.19,0.07,4.3,0.66,5.54,2.7c0.39,0.63,0.58,1.25,0.64,1.84c3.28-3.34,7.54-5.99,12.01-6.64c0.09-0.01,0.2,0.1,0.1,0.18
						c-3.6,2.87-7.47,4.65-10.63,7.67c4.44-1.52,9.71-1.03,12.95,2.31c1.95-1.94,4.3-3.09,6.66-4.62c4.13-2.68,6.55-5.93,8.1-10.5
						C129.26,217.18,125.36,216.07,121.93,213.35z"/>
					<path class="st9" d="M170.45,220.79c-2.66,0.32-6.1-0.04-9.27-1.06c0.13,1.52-0.73,2.85-2.09,4.02
						c-4.16,3.58-9.7,4.52-13.76,8.03c3.15,0.03,5.39,2.3,5.77,5.41c0.88-1.47,2.27-2.84,3.28-3.92c1.96-2.11,4.12-4.1,6.41-5.85
						c0.21-0.16,0.39,0.16,0.26,0.33c-1.69,2.16-3.65,4.1-5.47,6.16c-1.08,1.22-2.12,2.49-3.03,3.86c-0.12,0.18-0.22,0.34-0.33,0.5
						c4.87-2.47,12.4-2.83,15.83,1.17c3.7-6,6.71-12.09,5.53-19.36C172.57,220.41,171.53,220.66,170.45,220.79z"/>
					<path class="st9" d="M114.26,190.69c0.67,4.48,0.77,9.13,2.74,13.39c3.62,7.82,12.11,14.05,19.89,8.87
						C125.74,208.89,118.44,200.68,114.26,190.69z"/>
					<path d="M129.66,91.32c1.64,0.59,3.75-0.69,4.69-1.98c0.72-0.99-0.88-2.22-1.69-1.31c-0.49,0.55-0.9,1.12-1.52,1.54
						c-0.55,0.38-1.14,0.67-1.66,1.08C129.23,90.86,129.4,91.23,129.66,91.32z"/>
					<path d="M148.69,86.45c1.9,0.72,3.42-1.26,3.99-2.84c0.6-1.67,0.49-3.95-1.04-5.11c-1.67-1.26-3.18-0.49-4.08,0.94
						C145.69,81.17,146.29,85.54,148.69,86.45z M149.41,80.66c0.01-0.03,0.01-0.06,0.02-0.1c0.11-0.54,0.64-0.8,1.13-0.86
						c0.05-0.01,0.1-0.01,0.15-0.01c0.63-0.03,1.3,0.72,1.03,1.36c-0.02,0.04-0.04,0.07-0.05,0.1c-0.01,0.04-0.02,0.09-0.03,0.13
						c-0.13,0.62-0.86,0.98-1.44,0.82C149.6,81.93,149.28,81.28,149.41,80.66z"/>
					<path d="M147.47,74.94c1.4-0.07,2.54-0.9,4.01-0.53c1.31,0.33,2.15,1.34,3.04,2.29c0.1,0.11,0.34,0.03,0.32-0.13
						c-0.22-1.63-0.77-3.46-2.5-4.03c-1.66-0.55-4.5-0.18-5.38,1.51C146.76,74.43,147,74.97,147.47,74.94z"/>
					<path class="st1" d="M150.23,82.1c0.58,0.16,1.31-0.2,1.44-0.82c0.01-0.04,0.02-0.09,0.03-0.13c0.02-0.03,0.04-0.07,0.05-0.1
						c0.27-0.64-0.4-1.39-1.03-1.36c-0.05,0-0.1,0-0.15,0.01c-0.49,0.06-1.02,0.32-1.13,0.86c-0.01,0.03-0.01,0.06-0.02,0.1
						C149.28,81.28,149.6,81.93,150.23,82.1z"/>
					<path class="st1" d="M128.86,79.87L128.86,79.87c-0.09,0.04-0.16,0.09-0.22,0.14c-0.19,0.16-0.27,0.37-0.27,0.59
						c0,0.01,0,0.01,0,0.02c0,0.43,0.31,0.88,0.73,1.02c0,0,0,0,0,0c0.09,0.03,0.18,0.03,0.27,0.03c0.02,0,0.05,0.01,0.07,0.01
						c0.08-0.01,0.17-0.05,0.26-0.09c0.04-0.02,0.08-0.02,0.12-0.04c0.2-0.12,0.33-0.27,0.41-0.43c0.07-0.16,0.09-0.34,0.06-0.51
						c-0.04-0.22-0.17-0.44-0.34-0.59C129.66,79.78,129.27,79.68,128.86,79.87z"/>
					<path d="M202.72,213.53c-9.1-5.46-8.3-13.99-6.78-23.28c0.51-3.13,1.14-6.34,1.6-9.57c1.2-5.44,1.65-11.15,1.58-16.86
						c0.46-8.76-0.47-17.56-2.49-26.09c-1.99-8.38-4.79-16.68-9.23-24.07c-0.48-0.89-1.01-1.73-1.6-2.5
						c-0.08-0.12-0.16-0.25-0.24-0.38c-2.8-4.09-5.79-8.2-6.77-13.17c-0.04-0.21-0.14-0.36-0.26-0.47
						c-0.7-4.07-0.51-8.26-0.79-12.68c-0.13-2.07-0.42-4.08-0.85-6.03c0.27-0.17,0.51-0.39,0.75-0.58c0.58-0.46,1.1-0.96,1.56-1.55
						c1.26-1.15,1.98-2.67,1.93-4.63c-0.04-1.46-0.56-2.83-1.31-4.07c-1.77-2.9-3.6-5.77-5.59-8.53c-2.24-3.11-5.16-5.44-8.64-7.04
						c-4.68-2.15-9.59-2.71-14.66-1.95c-3.3,0.5-6.43,1.49-9.19,3.46c-0.26,0.18-0.51,0.17-0.8,0.15c-2.6-0.15-5.12,0.1-7.28,1.73
						c-1.97,1.49-3.49,3.32-3.05,5.98c0.08,0.5,0.06,0.89-0.04,1.23c0,0.01,0.01,0.02,0.01,0.03c0.07,0.12,0.14,0.24,0.22,0.35
						c0.01,0.01,0.01,0.02,0.02,0.03c0.04,0.04,0.08,0.09,0.12,0.13c0.09,0.09,0.18,0.18,0.27,0.26c0,0,0,0,0.01,0
						c0.05,0.03,0.09,0.06,0.14,0.09c0.09,0.06,0.19,0.11,0.29,0.16c0.05,0.02,0.11,0.04,0.16,0.05c0.05,0.02,0.1,0.02,0.15,0.04
						c-6.2,5.83-10.49,15.36-8.6,23.77c-1.65,0.76-3.32,1.53-5.02,2.46c-3.19,1.76-6.54,4.08-7.96,7.52
						c-0.07,0.18,0.02,0.33,0.16,0.43c0.03,0.08,0.1,0.15,0.21,0.14c4.93-0.48,8.36,0.7,13.01,1.95c1.12,0.3,2.26,0.53,3.41,0.69
						c-0.15,3.49-1.35,6.49-2.9,9.37c-0.06,0.06-0.13,0.11-0.18,0.19c-2.87,4.58-5.48,8.97-7.09,14.16
						c-0.01,0.04-0.02,0.07-0.03,0.11c-1.67,2.24-3.64,4.23-5.88,5.98c-1.36,1.06-2.79,2.03-4.34,2.78
						c-0.79,0.38-1.61,0.7-2.46,0.94c-0.87,0.24-1.74,0.57-2.63,0.71c-0.04-0.2-0.09-0.39-0.15-0.58c-0.01-0.03-0.01-0.06-0.01-0.08
						c-0.45-2.25-2.7-3.67-5.05-3.24c-4.92,0.9-8.08,6.49-7.32,11.26c0.61,3.85,2.65,6.54,5.99,7.99c0.09,0.05,0.17,0.08,0.26,0.13
						c0.01,0.01,0.02,0.01,0.04,0.02c0.46,0.22,0.94,0.37,1.44,0.48c0.05,0.01,0.1,0.04,0.15,0.05c0.04,0.01,0.07,0.02,0.11,0.04
						c0.01-0.01,0.01-0.02,0.02-0.03c0.21,0.04,0.42,0.05,0.63,0.07c0,0,0-0.01,0-0.01c-0.02-0.67,0.23-1.5,0.6-2.06
						c0.28-0.42,0.57-0.73,0.89-1.02c-0.2-0.93-0.06-2.14,0.02-2.7c0.26-1.78,1.08-3.39,1.73-5.06c0.4-1.02,0.69-2.16,0.77-3.29
						c2.15,0.09,4.34-0.64,6.25-1.55c2.32-1.11,4.38-2.68,6.3-4.38c0.4-0.36,0.78-0.74,1.15-1.12c-0.1,0.39-0.21,0.77-0.31,1.16
						c-1.31,4.98-2.38,10.01-3.22,15.09c-0.09,0.55-0.17,1.1-0.25,1.64c-2.03,0.4-4.08,0.71-6.13,0.94c0.07,0.09,0.14,0.18,0.2,0.28
						c0.25,0.39,0.38,0.81,0.4,1.26c0.03,0.13,0.03,0.26,0.03,0.39c1.73-0.21,3.46-0.47,5.17-0.78c-0.03,0.21-0.06,0.41-0.09,0.61
						c-0.36,2.5-0.67,5-0.91,7.51c-0.08,0.83-0.16,1.66-0.23,2.48c-0.66,8.28-0.16,16.63,2.17,24.64
						c-0.11,9.16,0.95,19.37,7.54,26.32c0.34,0.36,0.69,0.7,1.05,1.02c-8.15,5.77-18.97,5.19-26.99,11.31
						c-0.92,0.7-0.24,1.58,0.58,1.66c1.5,0.16,2.78-0.57,4.36-0.02c1.26,0.44,2.36,1.42,2.8,2.68c0.27,0.79,0.27,1.68-0.02,2.46
						c-0.25,0.66-1.29,1.41-1.04,2.16c0.01,0.08,0.05,0.15,0.1,0.21c0.27,0.4,0.85,0.63,1.34,0.37c4.38-2.31,11.6-4.66,15.25,0.63
						c0.4,0.57,1.35,0.88,1.87,0.24c3.01-3.64,7.34-5.32,10.66-8.54c2.71-2.63,4.42-5.93,5.06-9.63c0.01-0.03,0-0.06,0-0.1
						c1.38-0.5,2.75-1.24,4.06-2.27c0.85,0.26,1.71,0.5,2.6,0.72c4.16,1,8.53,1.46,12.63,1.08c1.37,1.67,3.44,2.95,5.76,3.85
						c-0.47,4.48-8.54,6.17-11.7,7.89c-2.72,1.48-4.88,3.25-6.7,5.75c-0.39,0.53-0.12,1.14,0.46,1.38c0.65,0.26,1.27-0.29,1.91-0.44
						c1.49-0.33,3.15,0.04,4.29,1.06c0.93,0.83,1.49,2.05,1.57,3.29c0.03,0.44-0.68,3.99,0.9,2.67c3.81-3.18,14.09-4.53,16.77,0.33
						c0.3,0.54,1.03,0.47,1.34,0c4.31-6.5,8.12-13.75,6.29-21.73c0.37-0.17,0.74-0.37,1.1-0.56c0.08,0.07,0.18,0.12,0.31,0.15
						c8.56,2.13,18.93,1.27,26.25-3.99C203.26,214.7,203.34,213.91,202.72,213.53z M98.23,139.92c-0.33,0.89-0.68,1.77-1.05,2.64
						c-0.73,1.69-0.83,3.42-0.43,5.2c0.07,0.31,0.1,0.63,0.16,0.99c-0.75-0.1-1.27-0.54-1.8-0.93c-3.07-2.3-4.49-6.09-3.41-9.36
						c0.78-2.35,2.24-4.18,4.71-4.94c1.56-0.48,2.72,0.43,2.79,2.07C99.27,137.11,98.75,138.51,98.23,139.92z M132.66,61.14
						c0.13-1.58,0.9-2.81,2.14-3.76c1.58-1.21,3.4-1.65,5.34-1.48c4.85,0.42,9.64,1.18,14.3,2.65c3.78,1.19,7.37,2.79,10.83,4.7
						c0.14,0.08,0.29,0.15,0.43,0.22c0.04-0.05,0.08-0.11,0.11-0.16c-2.96-2.51-6.32-4.37-9.88-5.89c-3.55-1.52-7.24-2.56-11.25-3.2
						c1.05-0.62,2.02-0.95,3-1.23c7.06-2.04,13.73-1.22,19.93,2.8c2.59,1.68,4.53,3.98,6.16,6.57c0.99,1.58,2.04,3.12,3.15,4.63
						c0.16,0.22,0.3,0.45,0.45,0.68c0.36,0.6,0.68,1.21,0.91,1.86c0.45,1.32,0.58,2.77,0.14,4.11c-0.4,0.86-1.04,1.63-1.79,2.01
						c-0.24,0.12-0.39,0.13-0.49-0.15c-0.01-0.02-0.01-0.03-0.02-0.04c-0.01-0.04-0.02-0.08-0.03-0.12
						c-0.01-0.01-0.02-0.02-0.03-0.03c-1.37-3.51-4.14-5.78-7.09-7.89c-6.04-4.31-12.79-6.87-20.1-7.9
						c-4.68-0.66-9.32-0.33-13.82,1.25c-0.62,0.22-1.21,0.54-1.81,0.79c-0.16,0.07-0.35,0.29-0.5,0.12
						C132.62,61.57,132.65,61.32,132.66,61.14z M126.63,76.62c0.38-0.13,0.76-0.29,1.18-0.31c0.71-0.04,1.44,0.08,2.13,0.01
						c0.08-0.01,0.17-0.07,0.16-0.16c-0.04-0.31-0.16-0.57-0.34-0.77c-0.09-0.1-0.19-0.2-0.31-0.27c-0.58-0.4-1.44-0.49-2.21-0.34
						c0.1-0.28,0.2-0.55,0.3-0.82c2.7-1.24,4.13,1.71,4.49,4.31c0.17,1.24,0.11,2.34-0.21,3.33c-0.13,0.4-0.3,0.78-0.52,1.14
						c-0.11,0.18-0.23,0.36-0.36,0.54c0.08-1.21-0.14-2.51-0.35-3.18c-0.06-0.21-0.14-0.43-0.25-0.65c-0.15-0.33-0.35-0.66-0.6-0.91
						c-0.25-0.24-0.56-0.4-0.95-0.4c-1,0.01-1.33,1.05-1.57,1.87c-0.09,0.3-0.18,0.71-0.25,1.18c-0.07,0.47-0.13,0.99-0.14,1.53
						c-0.03,1.06,0.11,2.15,0.58,2.86c-0.78,0.42-1.57,0.82-2.38,1.2C125.21,83.25,125.69,79.83,126.63,76.62z M130.22,81.1
						c-0.07,0.16-0.2,0.31-0.41,0.43v0c-0.04,0.02-0.08,0.02-0.12,0.04c-0.09,0.04-0.17,0.08-0.26,0.09c-0.02,0-0.05-0.01-0.07-0.01
						c-0.09,0-0.19,0-0.27-0.03c0,0,0,0,0,0c-0.42-0.13-0.73-0.59-0.73-1.02c0-0.01,0-0.01,0-0.02c0-0.22,0.08-0.43,0.27-0.59
						c0.06-0.05,0.14-0.1,0.22-0.14v0c0.42-0.19,0.81-0.09,1.07,0.14c0.18,0.15,0.3,0.37,0.34,0.59
						C130.31,80.77,130.29,80.94,130.22,81.1z M116.07,93.95c2.63-2,5.4-3.22,8.48-4.4c3.27-1.26,5.91-3.05,8.51-5.28
						c0.79,1.32,1.63,2.53,2.81,3.62c1.74,1.6,3.87,2.59,5.17,4.54c-4.86,3.85-13.4,2.4-19.15,2.08c-2.51-0.14-5.08-0.3-7.29,0.65
						C115.08,94.75,115.56,94.34,116.07,93.95z M121.16,97.2c-0.78-0.25-1.61-0.53-2.45-0.77c3.7-0.05,7.35,0.14,11.2,0.09
						c3.6-0.05,7.58-0.03,10.82-1.67c-1.69,2.43-5.72,3.67-8.29,3.99C128.51,99.33,124.85,98.4,121.16,97.2z M124.99,226.9
						c-2.36,1.53-4.71,2.68-6.66,4.62c-3.24-3.34-8.51-3.84-12.95-2.31c3.15-3.02,7.03-4.8,10.63-7.67c0.09-0.07-0.01-0.19-0.1-0.18
						c-4.47,0.65-8.73,3.3-12.01,6.64c-0.05-0.6-0.25-1.21-0.64-1.84c-1.25-2.04-3.36-2.63-5.54-2.7c4.88-2.7,10.38-3.62,15.75-5.35
						c2.86-0.93,6.83-2.03,8.47-4.77c3.43,2.72,7.33,3.84,11.16,3.06C131.54,220.98,129.12,224.22,124.99,226.9z M117.01,204.08
						c-1.97-4.26-2.07-8.92-2.74-13.39c4.18,9.99,11.48,18.2,22.64,22.26C129.12,218.13,120.63,211.9,117.01,204.08z M139.6,211.87
						c-0.2-0.18-0.47-0.28-0.74-0.24c-1.45-0.48-2.85-1.02-4.18-1.62c-7.53-3.39-13.35-9.44-17.23-16.61
						c-0.32-0.6-0.63-1.2-0.93-1.81c-0.89-1.83-1.65-3.73-2.29-5.66c-0.22-0.67-0.42-1.35-0.61-2.03c-0.06-0.23-0.13-0.46-0.19-0.68
						c-0.12-0.46-0.24-0.93-0.35-1.4c-0.06-0.25-0.12-0.49-0.17-0.74c-0.14-0.63-0.27-1.26-0.38-1.89
						c-0.05-0.27-0.09-0.54-0.13-0.81c-0.07-0.42-0.14-0.85-0.2-1.27c-0.04-0.29-0.08-0.58-0.12-0.87c-0.06-0.47-0.11-0.93-0.16-1.4
						c-0.02-0.22-0.05-0.43-0.07-0.65c-0.05-0.61-0.1-1.22-0.14-1.83c0-0.04,0-0.09,0-0.13c-0.05-0.95-0.09-1.91-0.1-2.86
						c0-0.18,0-0.35,0-0.53c-0.01-0.79,0-1.59,0.02-2.38c0.01-0.24,0.01-0.47,0.02-0.71c0.03-0.84,0.07-1.68,0.12-2.52
						c0.01-0.11,0.01-0.22,0.02-0.33c0.07-1,0.15-2,0.24-2.99c0-0.01,0-0.03,0-0.04c0.01-0.09,0.02-0.18,0.03-0.28
						c0.07-0.68,0.14-1.36,0.22-2.05c0.96-8.73,2.58-17.49,4.81-25.96c0.92-3.52,1.88-7.08,3.16-10.48
						c0.35-0.94,0.78-1.85,1.25-2.74c1.98-3.39,4.38-6.45,6.09-10.05c1.13-2.38,1.77-4.95,1-7.4c2.21,0.19,4.43,0.08,6.6-0.47
						c1.43-0.36,2.82-0.98,4.12-1.68c1.31-0.72,3.02-1.69,3.64-3.1c0.51-1.17,0.65-2.78,0.04-3.95c-0.61-1.19-1.69-2.23-2.66-3.13
						c-2.87-4.71-4.36-9.96-0.39-14.85c5.12-6.3,16.52-5.59,20.58,1.53c3.02,5.29,3.92,13.05,0.84,18.45
						c-2.81,4.92-8.19,7.56-13.06,9.99c-0.51,0.25-0.41,1.15,0.16,1.26c3.05,0.58,5.96,1.84,8.27,3.94
						c1.57,1.43,2.54,3.06,3.27,4.89c-0.01,0.17,0,0.34,0.08,0.52c0.31,0.67,0.56,1.36,0.79,2.06c0.36,1.24,0.67,2.49,0.91,3.75
						c0.45,2.62,0.57,5.31,0.66,7.96c0.07,2.24,0.15,4.5,0.03,6.74c-0.01,0.16-0.02,0.32-0.03,0.48c-0.11,1.68-0.34,3.34-0.79,4.97
						c-0.77,2.09-2.3,3.57-4.37,4.64c-0.2,0.1-0.4,0.19-0.6,0.28c-0.66,0.32-1.32,0.63-1.99,0.92c-1.96,0.85-3.97,1.59-5.94,2.39
						c-2.2,0.9-4.39,1.83-6.45,2.98c-1.25,0.7-2.46,1.48-3.61,2.38c-2.51,1.97-4.67,4.23-6.03,7.14c-0.12,0.26-0.25,0.53-0.36,0.8
						c-0.33,0.84-0.59,1.7-0.68,2.59c-0.32,2.92,1.85,4.79,4.83,4.2c1.94-0.38,3.75-1.18,5.62-1.77c2.22-0.7,4.5-1.02,6.82-1.18
						c4.61-0.33,9.25-0.35,13.83-1.18c0.3-0.05,0.6-0.13,0.9-0.19c0.36,0.53,0.71,1.09,1.04,1.69c0.35,0.63,0.67,1.29,0.99,1.98
						c0.31,0.68,0.59,1.38,0.87,2.1c0.27,0.71,0.52,1.44,0.77,2.18c0.96,2.94,1.69,5.94,2.34,8.53c0.71,2.82,1.24,5.74,1.46,8.67
						c0.06,0.84,0.1,1.68,0.11,2.51c0.01,1.26-0.03,2.51-0.16,3.76c-0.08,0.83-0.2,1.66-0.35,2.49c-0.15,0.82-0.34,1.64-0.56,2.46
						C166.22,214.62,151.53,215.58,139.6,211.87z M168.05,239.43c-3.42-4-10.96-3.64-15.83-1.17c0.1-0.16,0.21-0.32,0.33-0.5
						c0.91-1.36,1.94-2.63,3.03-3.86c1.82-2.05,3.78-3.99,5.47-6.16c0.13-0.17-0.05-0.49-0.26-0.33c-2.29,1.75-4.44,3.74-6.41,5.85
						c-1.01,1.08-2.4,2.45-3.28,3.92c-0.38-3.11-2.62-5.37-5.77-5.41c4.06-3.51,9.61-4.45,13.76-8.03c1.35-1.17,2.22-2.5,2.09-4.02
						c3.17,1.02,6.61,1.38,9.27,1.06c1.08-0.13,2.12-0.38,3.12-0.73C174.76,227.34,171.75,233.43,168.05,239.43z M178.07,217.77
						c2.85-1.98,5.25-4.7,7.07-7.57c0.11-0.17-0.12-0.31-0.26-0.2c-4.84,3.8-9.21,9.22-15.92,9.28c-4.98,0.04-8.71-2.54-13.01-4.08
						c7.13-1.11,13.24-4.97,15.73-13.22c2.05-6.78,1.52-14.05-0.09-20.86c-1.31-5.54-2.92-12.26-6.13-17.29
						c5.52-1.42,10.56-4.06,14.51-8.43c1.07-1.19,1.85-2.6,2.59-4.01c0.69-1.31,1.55-2.55,1.98-3.95c1.01-3.27,1.32-6.71,1.2-10.12
						c-0.12-3.42-0.77-6.72-1.8-9.96c-1.06-3.33-2.56-6.49-3.84-9.73c-0.45-1.13-0.79-2.28-1.06-3.45
						c-0.09-0.03-0.18-0.05-0.27-0.07c-0.05-0.01-0.09-0.02-0.14-0.03c-0.02,0-0.04,0-0.07-0.01c-0.1,0-0.21-0.01-0.31-0.01
						c-0.1,0-0.29-0.02-0.39,0.02c0.19-0.03,0.22-0.03,0.07,0l-0.09,0.02c-0.02,0-0.16,0.05-0.25,0.08
						c-0.04,0.02-0.09,0.05-0.13,0.07l-0.05,0.03c-0.06,0.06-0.15,0.12-0.2,0.18c-0.01,0.03-0.02,0.05-0.04,0.06
						c-0.05,0.07-0.11,0.14-0.13,0.17c-0.01,0.02-0.08,0.14-0.12,0.22c-0.01,0.02-0.01,0.04-0.03,0.09
						c-0.06,0.17-0.1,0.34-0.14,0.51c0.49,1.89,1.16,3.75,2.02,5.58c1.78,3.79,3.2,7.74,3.91,11.89c0.74,4.34,0.87,8.67-0.3,12.96
						c-1.52,5.6-5.04,9.64-9.95,12.56c-3.55,2.1-7.45,3.15-11.5,3.73c-3.88,0.56-7.77,0.75-11.68,0.93
						c-1.86,0.08-3.7,0.34-5.51,0.75c-1.36,0.31-2.71,0.7-4.03,1.21c-1.04,0.41-2.11,0.76-3.2,1.03c-0.4,0.1-0.79,0.12-1.19,0.1
						c-0.77-0.04-1.18-0.44-1.26-1.21c-0.12-1.13,0.19-2.17,0.69-3.17c0.03-0.06,0.06-0.11,0.09-0.17c1.49-2.87,3.76-5.02,6.38-6.84
						c1.99-1.39,4.16-2.42,6.38-3.36c0.95-0.4,1.9-0.79,2.86-1.18c2.79-1.13,5.64-2.13,8.29-3.6c3.51-1.94,5.41-4.89,5.55-8.94
						c0.02-0.46,0.02-0.92,0.02-1.38c0.28-2.92,0.17-5.9,0.07-8.82c-0.12-3.47-0.37-6.94-1.22-10.28c-0.41-2.09-1.2-4.14-2.35-5.87
						c-2.47-3.71-6.06-6.23-10.24-7.43c6.72-3.49,13.22-7.92,14.01-16.16c0.62-6.4-1.46-14.74-7.46-18.11
						c-5.85-3.28-14.08-2.26-18.38,3.04c-3.59,4.43-3.16,9.44-0.73,13.74c-1.46-1.28-2.88-2.62-3.85-4.36
						c-0.24-0.42-0.69-0.55-1.11-0.44c0.78-2.19,0.38-5.01-0.65-7.03c-0.68-1.33-1.96-2.57-3.55-2.56c-0.2,0-0.38,0.03-0.57,0.06
						c1.9-3.91,4.78-7.31,9.02-9.87c0.51-0.14,1.02-0.27,1.54-0.37c6.16-1.22,12.12-0.21,17.93,1.9c3.69,1.34,7.16,3.06,10.4,5.21
						c0,0,0,0,0.01,0.01c2.45,1.81,4.44,4.1,6,6.71c0.26,0.44,0.61,1.12,1.04,1.72c1.23,5.82,0.89,12.13,1.52,18.34
						c0.45,4.41,2.48,7.87,4.86,11.15c0.55,0.88,1.12,1.75,1.71,2.61c2.34,3.44,4.6,6.8,6.34,10.55c0.96,2.6,1.78,5.21,2.57,7.58
						c2.18,6.52,3.67,13.27,4.63,20.07c1.62,11.53,0.6,22.54-0.29,33.9c-0.99,5.4-1.96,10.82-2.4,16.21
						c-0.59,7.24,1.76,12.4,7.39,16.34C193.71,218.23,185.84,218.72,178.07,217.77z"/>
				</g>
				<g>
					<path d="M109.71,124.7c-0.52-1.05-1.12-1.18-2-0.42c-1.35,1.15-2.85,2.05-4.52,2.67c-0.48,0.18-0.61,0.08-0.7-0.39
						c-0.52-2.69-1.08-5.38-1.6-8.07c-1.14-5.95-2.26-11.9-3.39-17.85c0,0,0,0-0.01,0c-1.61-8.49-3.22-16.97-4.83-25.46
						c-0.15-0.81-0.35-1.62-0.83-2.29c-1.59-2.23-3.23-4.43-4.97-6.55c-0.21-0.26-0.46-0.53-0.85-0.45
						c-0.4,0.08-0.48,0.44-0.58,0.76c-0.51,1.69-1.05,3.36-1.5,5.06c-0.33,1.25-0.86,2.47-0.81,3.79c0.05,1.34,0.26,2.66,0.51,3.97
						c1.75,9.29,3.51,18.58,5.27,27.88c1.32,6.98,2.65,13.96,3.97,20.94c0.13,0.68,0.13,0.68-0.57,0.69
						c-1.82,0.03-3.58-0.27-5.29-0.86c-0.86-0.3-1.37-0.01-1.48,0.87c-0.11,0.87-0.07,1.73,0.11,2.6c0.3,1.47,0.64,1.78,2.12,1.89
						c2.18,0.16,4.34,0.01,6.49-0.27c0.51-0.4,1.16-0.68,1.96-0.71c0.6-0.03,1.11,0.05,1.56,0.2c1.02-0.19,2.04-0.39,3.05-0.58
						c-0.75,0.26-1.41,1-2.23,0.97c0.24,0.17,0.44,0.37,0.63,0.59c0.55-0.31,1.11-0.62,1.68-0.91c0.28-0.14,0.39-0.11,0.46,0.22
						c0.31,1.34,0.31,1.33-0.79,2.09c-0.17,0.12-0.34,0.24-0.51,0.36c0.05,0.2,0.09,0.41,0.12,0.62c0.46-0.33,0.88-0.63,1.29-0.91
						c0.19-0.14,0.28-0.06,0.32,0.15c0.07,0.38,0.14,0.77,0.22,1.15c0.04,0.21-0.02,0.32-0.24,0.27c-0.49-0.11-1-0.23-1.55-0.36
						c0.02,0.18,0.03,0.36,0.03,0.54c0.25,0.05,0.5,0.12,0.77,0.24c0.19,0.09,0.41,0.12,0.62,0.15c0.43,0.07,0.68,0.28,0.67,0.62
						c0.06,0.56,0.07,1.01,0.17,1.44c0.11,0.51-0.11,0.54-0.51,0.45c-0.68-0.15-1.35-0.32-2.02-0.5c-0.01,0.04-0.02,0.07-0.03,0.11
						c-0.05,0.16-0.1,0.31-0.15,0.47c0.27,0.08,0.52,0.15,0.8,0.23c-0.41,0.27-0.78,0.52-1.15,0.76c-0.12,0.33-0.25,0.66-0.38,0.99
						c0.65-0.44,1.3-0.89,1.95-1.33c0.31-0.21,1.29-0.19,1.58,0.02c0.14,0.1,0.1,0.25,0.14,0.38c0.27,0.89-0.12,1.42-0.87,1.89
						c-0.91,0.57-1.76,1.26-2.62,1.91c-0.37,0.28-0.52,0.18-0.61-0.23c-0.08-0.32-0.17-0.65-0.27-1c-0.01,0.03-0.03,0.07-0.04,0.1
						c-0.1,0.23-0.65,1.56-0.37,0.86c-0.08,0.2-0.16,0.39-0.24,0.59c0.24,0.81,0.5,1.61,0.81,2.4c0.11,0.27,0.09,0.47-0.09,0.68
						c-1.03,1.27-1.33,2.7-1,4.3c0.59,2.85,3.81,4.59,6.51,3.47c1.87-0.78,3.02-2.17,3.17-4.19c0.15-2.01-0.7-3.59-2.47-4.62
						c-0.23-0.13-0.37-0.29-0.38-0.59c-0.12-3.37-0.56-6.69-1.17-10c-0.26-1.42-0.54-2.83-0.81-4.25c-0.06-0.29-0.07-0.51,0.3-0.61
						c1.11-0.3,2.23-0.61,3.33-0.96c1.32-0.42,2.61-0.93,3.83-1.59c0.5-0.27,0.78-0.66,0.76-1.24
						C110.49,126.75,110.2,125.7,109.71,124.7z M106.02,150.64c0.37,2.06-0.98,4.04-3,4.4c-2.19,0.39-4.24-0.98-4.62-3.09
						c-0.36-2,0.92-3.89,2.89-4.23C103.59,147.31,105.66,148.59,106.02,150.64z M103.12,145.12c0.01,0.04,0.02,0.08,0.02,0.11
						c0.14,1.26,0.14,1.2-1.11,1.32c-0.84,0.08-1.62,0.01-2.42-0.19c-0.25-0.07-0.47-0.15-0.53-0.45c-0.06-0.3,0.16-0.41,0.34-0.55
						c0.1-0.08,0.22-0.13,0.3-0.22c0.84-0.98,1.87-0.85,2.96-0.57C103.01,144.65,103.1,144.84,103.12,145.12z M102.97,143.17
						c0.16,0.69,0.02,0.86-0.66,0.74c-0.22-0.04-0.44-0.09-0.73-0.15c0.38-0.28,0.69-0.51,1-0.73
						C102.78,142.88,102.91,142.87,102.97,143.17z M86.86,68.26c1.29,1.68,2.59,3.35,3.86,5.04c0.76,1.02,0.93,2.27,1.16,3.46
						c2.31,12.05,4.58,24.11,6.87,36.16c0.88,4.62,1.75,9.24,2.63,13.86c0.13,0.69,0.09,0.73-0.59,0.78
						c-0.62,0.04-1.24,0.12-1.85-0.12c-0.6-0.23-0.98-0.59-1.12-1.28c-2.42-11.77-4.51-23.61-6.79-35.41
						c-1.41-7.31-2.79-14.62-4.18-21.94c-0.03-0.17-0.07-0.35-0.1-0.52C86.8,68.28,86.83,68.27,86.86,68.26z M88.42,98.6
						c-1.33-7.34-2.79-14.66-4.09-22.01c-0.14-0.78-0.13-1.55,0.08-2.32c0.51-1.94,1.13-3.85,1.8-5.77
						c0.51,2.71,1.03,5.42,1.54,8.13c0.57,2.99,1.18,5.98,1.69,8.98c1.62,9.57,3.6,19.07,5.31,28.63c0.47,2.59,0.9,5.19,1.43,7.77
						c0.31,1.48,0.6,2.97,0.91,4.45c0.1,0.5-0.04,0.87-0.37,1.21c-0.61,0.62-1.4,0.89-2.21,1.1c-0.26,0.07-0.41-0.03-0.45-0.3
						c-0.02-0.12-0.05-0.24-0.07-0.37C92.13,118.27,90.21,108.45,88.42,98.6z M108.91,128.35c-1.69,0.77-3.44,1.34-5.21,1.85
						c-1.82,0.52-3.65,0.93-5.3,1.21c-3.47,0.71-6.74,1.13-10.06,1.04c-0.14,0-0.28-0.02-0.43-0.02c-0.99-0.06-1.12-0.16-1.25-1.14
						c-0.07-0.53-0.06-1.06-0.1-1.59c-0.04-0.44,0.1-0.58,0.54-0.43c1.91,0.65,3.87,0.89,5.88,0.81c1.76-0.07,3.38-0.46,4.61-1.84
						c0.15-0.17,0.3-0.21,0.52-0.1c1.89,0.98,3.73,0.53,5.56-0.19c1.67-0.66,3.2-1.55,4.57-2.7c0.31-0.26,0.47-0.23,0.61,0.16
						c0.23,0.65,0.48,1.3,0.58,1.99C109.5,127.83,109.38,128.14,108.91,128.35z"/>
					<path d="M99.61,152c-0.32-1.46,0.55-2.82,2.01-3.14c1.39-0.3,2.87,0.64,3.18,2.01c0.3,1.35-0.64,2.86-1.97,3.16
						C101.32,154.37,99.94,153.5,99.61,152z M100.44,151.81c0.19,0.93,1.16,1.61,2.07,1.45c0.92-0.17,1.67-1.21,1.5-2.1
						c-0.17-0.91-1.26-1.67-2.12-1.48C100.96,149.88,100.26,150.91,100.44,151.81z"/>
				</g>
			</g>
			<g>
				<path class="st3" d="M158.71,133.64c-3.04-4.45-8.57-6.92-13.91-6.27c-4.71,0.56-8.82,3.55-11.08,7.63
					c-1.71-3.37-4.87-5.96-8.57-6.89c-4.76-1.2-10.03,0.57-13.34,4.14c-3.5,3.77-4.6,9.41-3.1,14.3c0.78,2.56,2.29,4.74,3.95,6.8
					c1.96,2.44,3.97,4.82,5.8,7.36c3.99,5.54,7.39,11.48,10.18,17.71c0.25,0.56,1.18,0.66,1.57,0.2c2.15-2.55,4.66-4.72,7.17-6.91
					c2.19-1.91,4.32-3.89,6.38-5.94c-0.8,0.2-1.61,0.38-2.42,0.57c-0.07,0.02-0.13,0.03-0.2,0.05c-0.57,0.23-1.14,0.47-1.72,0.67
					c-1.45,0.51-3.2,1.12-4.75,0.79c-1.81-0.38-2.33-2.12-2.14-3.78c0.25-2.14,1.55-4.01,2.87-5.63c3.12-3.84,7.25-6.8,11.76-8.79
					c4.82-2.13,10.46-3.06,13.6-7.76C161.08,138.99,160.36,136.06,158.71,133.64z"/>
				<path class="st7" d="M139.43,167.06c-1.45,0.51-3.2,1.12-4.75,0.79c-0.81-0.17-1.35-0.62-1.7-1.21c-0.1,0.12-0.2,0.24-0.29,0.37
					c-1.38,1.75-3.16,3.53-4.18,5.52c-0.79,1.53-0.61,3.24,0.81,4.3c0.33,0.24,0.95,0.15,1.21-0.16c2.27-2.68,4.63-5.27,7.06-7.8
					c0.07-0.03,0.15-0.05,0.22-0.11c0.07-0.05,0.13-0.11,0.2-0.16c0,0,0,0,0,0c0,0,0.01-0.01,0.01-0.01
					c0.76-0.58,1.48-1.2,2.19-1.83C139.95,166.86,139.69,166.97,139.43,167.06z"/>
				<path class="st7" d="M143.93,130.21c4-1.33,7.36,1.9,8.71,5.39c0.82,2.1,1.03,4.26,0.24,6.39c-0.73,1.98-2.06,3.7-3.39,5.31
					c-0.6,0.72-1.22,1.42-1.84,2.12c3.87-1.63,8.19-2.62,11.29-5.44c0.67-2.18,0.78-4.48-0.12-6.72c-0.73-1.81-1.9-3.48-3.08-5.03
					c-1.18-1.55-2.54-2.81-4.39-3.48c-0.57-0.21-0.99,0.12-1.14,0.57c-1.98-1.31-4.38-1.85-6.81-1.05
					C142.18,128.69,142.7,130.62,143.93,130.21z"/>
				<path class="st8" d="M125.19,134.8c0.31-1.4-0.43-2.58-1.75-3.06c-3.05-1.1-6.33,0.89-8.46,2.95c-1.18,1.14-2.15,2.69-2.17,4.37
					c-0.01,0.99,0.35,2.03,1.06,2.74c0.39,0.39,0.92,0.7,1.46,0.84c0.84,0.23,1.66,0.06,2.44-0.29c0.77-0.35,1.32-1.03,1.92-1.61
					c0.45-0.43,0.92-0.83,1.41-1.22c0.93-0.69,1.92-1.32,2.96-1.84C125.05,137.18,125.5,135.85,125.19,134.8z"/>
				<path class="st8" d="M121.87,147.28c-0.08-0.3-0.2-0.6-0.37-0.86c-0.35-0.54-0.58-0.74-1.09-1.11c-0.25-0.18-0.55-0.3-0.84-0.38
					c-0.12-0.03-0.29-0.04-0.39-0.06c-0.1-0.01-0.27-0.05-0.39-0.05c-0.03,0-0.06,0-0.09,0c-0.22,0.03-0.44,0.06-0.66,0.09
					c-0.02,0-0.03,0.01-0.05,0.01c-0.11,0.03-0.28,0.11-0.35,0.14c-0.03,0.01-0.07,0.03-0.11,0.04c-0.06,0.01-0.13,0.02-0.19,0.03
					c-0.42,0.12-0.79,0.33-1.1,0.64c-0.13,0.17-0.26,0.34-0.39,0.51c-0.23,0.39-0.34,0.81-0.34,1.26c0.03,1.01,0.26,1.99,0.73,2.89
					c0.14,0.27,0.36,0.54,0.56,0.75c0.35,0.38,0.84,0.66,1.33,0.8c0.48,0.14,1.08,0.15,1.56,0c0.24-0.08,0.49-0.17,0.7-0.31
					c0.48-0.32,0.66-0.51,0.98-0.98c0.25-0.37,0.39-0.82,0.48-1.25C122,148.73,122.06,148.01,121.87,147.28z"/>
				<path class="st8" d="M145.77,134.49c-0.1-0.31-0.27-0.58-0.52-0.8c-0.31-0.31-0.68-0.52-1.1-0.64c-0.55-0.19-1.11-0.18-1.68-0.1
					c-0.3-0.13-0.61-0.2-0.94-0.19c-0.22,0.03-0.44,0.06-0.66,0.09c-0.42,0.12-0.79,0.33-1.1,0.64c-0.22,0.18-0.43,0.39-0.62,0.61
					c-0.31,0.37-0.61,0.75-0.86,1.17c-0.07,0.12-0.14,0.25-0.2,0.38c-0.14,0.32-0.32,0.65-0.39,1c-0.05,0.26-0.1,0.55-0.11,0.81
					c-0.01,0.28,0.04,0.57,0.1,0.84c0.06,0.32,0.2,0.63,0.37,0.9c0.28,0.45,0.63,0.79,1.08,1.07c0.22,0.13,0.46,0.23,0.7,0.3
					c0.03,0.01,0.06,0.01,0.09,0.02c0.22,0.03,0.44,0.06,0.66,0.09c0.02,0,0.05,0,0.07,0c0.69-0.02,1.33-0.27,1.92-0.61
					c0.4-0.24,0.77-0.53,1.12-0.82c0.21-0.17,0.4-0.35,0.59-0.55c0.53-0.59,1.03-1.25,1.34-1.99c0.23-0.39,0.34-0.81,0.34-1.26
					C145.99,135.11,145.92,134.78,145.77,134.49z"/>
				<path class="st1" d="M126.19,133.38c-4.68-2.72-9.93,0.99-11.67,5.46c-0.87,2.23-0.87,4.71,0.1,6.9
					c1.25,2.83,3.02,5.49,4.54,8.18c0.63,1.12,2.36,0.11,1.73-1.01c-1.22-2.16-2.44-4.31-3.65-6.47c-1.07-1.91-1.69-3.75-1.15-5.94
					c0.92-3.71,5.16-7.69,9.09-5.4C126.29,135.76,127.3,134.03,126.19,133.38z"/>
				<path class="st1" d="M124.31,158.64l-1.12-2.08c-0.12-0.22-0.36-0.4-0.6-0.46c-0.24-0.07-0.56-0.04-0.77,0.1
					c-0.47,0.3-0.62,0.87-0.36,1.37c0.37,0.69,0.75,1.39,1.12,2.08c0.12,0.22,0.36,0.4,0.6,0.46c0.24,0.07,0.56,0.04,0.77-0.1
					C124.42,159.7,124.58,159.13,124.31,158.64z"/>
				<path class="st1" d="M145.76,132.36c-0.18-0.55-0.68-0.8-1.23-0.7c-2.92,0.55-5.55,2.48-6.97,5.08
					c-0.25,0.46-0.13,1.11,0.36,1.37c0.47,0.25,1.1,0.13,1.37-0.36c0.15-0.28,0.32-0.55,0.5-0.82c0.05-0.08,0.11-0.16,0.17-0.23
					c0.02-0.03,0.02-0.03,0.03-0.04c0,0,0,0,0.02-0.02c0.1-0.12,0.2-0.25,0.31-0.37c0.21-0.24,0.44-0.47,0.67-0.68
					c0.13-0.12,0.26-0.23,0.4-0.34c0.04-0.03,0.07-0.06,0.11-0.09c0.01-0.01,0.14-0.1,0.15-0.11c0.52-0.37,1.08-0.69,1.66-0.95
					c0.02-0.01,0.04-0.02,0.05-0.02c0.02-0.01,0.03-0.01,0.06-0.02c0.06-0.02,0.12-0.05,0.18-0.07c0.16-0.06,0.33-0.12,0.5-0.17
					c0.32-0.1,0.65-0.18,0.98-0.24C145.58,133.49,145.92,132.84,145.76,132.36z"/>
				<path d="M161.93,138.28c-0.17,0.49-0.35,0.97-0.52,1.46c-0.12,0.32-0.57,0.98-0.58,1.32c0.11-2.62-0.62-5.23-2.11-7.41
					c-3.04-4.45-8.57-6.92-13.91-6.27c-4.71,0.56-8.82,3.55-11.08,7.63c-1.71-3.37-4.87-5.96-8.57-6.89
					c-4.76-1.2-10.03,0.57-13.34,4.14c-3.5,3.77-4.6,9.41-3.1,14.3c0.78,2.56,2.29,4.74,3.95,6.8c1.96,2.44,3.97,4.82,5.8,7.36
					c3.99,5.54,7.39,11.48,10.18,17.71c0.25,0.56,1.18,0.66,1.57,0.2c2.15-2.55,4.66-4.72,7.17-6.91c2.03-1.77,4-3.61,5.92-5.5
					c2.02-0.5,4.06-0.87,6.16-0.81c1.29,0.04,1.29-1.96,0-2c-3.98-0.12-7.72,1.24-11.54,2.12c-0.86,0.2-1.97,0.56-2.85,0.33
					c-1.09-0.29-1.3-1.35-1.17-2.34c0.24-1.91,1.66-3.68,2.94-5.04c5.17-5.47,12.84-7.3,19.24-10.83c1.75-0.97,3.53-2.05,4.99-3.43
					c0.88-0.83,1.49-1.87,1.92-2.98c0.49-1.28,0.41-2.05,0.35-3.34c-0.02-0.39-0.26-0.86-0.65-0.81c-0.31,0.04-0.47,0.38-0.58,0.68
					C162.05,137.93,161.99,138.11,161.93,138.28z M153.12,146.95c-3.76,1.85-7.72,3.29-11.37,5.36c-3.22,1.82-6.24,4.15-8.31,7.26
					c-1.02,1.53-1.83,3.4-1.51,5.28c0.29,1.69,1.52,2.89,3.25,3.04c1.3,0.11,2.66-0.17,3.98-0.53c-3.2,2.86-6.52,5.61-9.39,8.77
					c-2.05-4.41-4.39-8.69-7.06-12.76c-1.46-2.23-3.01-4.41-4.65-6.52c-1.58-2.05-3.33-3.96-4.86-6.04
					c-2.94-3.98-4.11-8.92-2.19-13.64c1.76-4.32,6.14-7.33,10.8-7.43c2.52-0.06,5,0.82,6.98,2.36c2.37,1.85,3.33,4.32,4.47,7.01
					c0.11,0.26,0.29,0.56,0.57,0.55c0.27-0.01,0.42-0.3,0.52-0.55c0.53-1.32,0.94-2.85,1.66-4.07c0.57-0.97,1.44-1.87,2.28-2.61
					c1.75-1.55,3.91-2.63,6.23-3.02c4.89-0.82,10.2,1.51,12.8,5.75c1.52,2.47,1.96,5.47,1.13,8.26c-0.05,0.16-0.11,0.33-0.17,0.49
					C156.66,145.09,154.9,146.07,153.12,146.95z"/>
			</g>
		</g>
		<g>
			<g>
				<g>
					<path class="st3" d="M70.8,60.52c-0.05-0.46-0.21-0.88-0.4-1.28c-0.46-1.03-1.02-2-1.84-2.79c-0.42-0.41-0.82-0.85-1.18-1.33
						c-1.18-1.56-0.62-3.6,1.2-4.3c1-0.38,2-0.5,2.96,0.16c0.27,0.19,0.53,0.39,0.69,0.68c0.08,0.15,0.15,0.32,0.02,0.46
						c-0.12,0.15-0.28,0.05-0.42,0c-0.09-0.03-0.19-0.07-0.37-0.14c0.14,0.2,0.24,0.32,0.31,0.45c0.09,0.16,0.19,0.32,0.24,0.49
						c0.08,0.24-0.02,0.34-0.26,0.26c-0.21-0.07-0.42-0.16-0.66-0.26c0.01,0.2,0.17,0.31,0.22,0.47c0.02,0.07,0.07,0.14,0.03,0.2
						c-0.06,0.09-0.15,0.05-0.22,0.02c-0.32-0.11-0.63-0.23-0.95-0.35c-0.63-0.23-1.19,0.05-1.38,0.7c-0.15,0.51-0.06,1,0.19,1.45
						c0.64,1.16,1.48,2.18,2.29,3.21c0.14,0.18,0.24,0.06,0.35-0.03c1.2-0.94,2.38-1.9,3.44-2.99c0.21-0.21,0.35-0.26,0.6-0.05
						c0.42,0.35,0.96,0.37,1.48,0.42c-0.78-0.3-1.35-0.87-1.86-1.5c-0.24-0.29-0.53-0.54-0.83-0.77c-0.35-0.28-0.73-0.39-1.17-0.25
						c-0.11,0.03-0.26,0.13-0.33,0c-0.07-0.12,0.07-0.22,0.15-0.31c0.11-0.13,0.24-0.25,0.38-0.4c-0.24-0.02-0.42,0.11-0.61,0.15
						c-0.08,0.02-0.16,0.05-0.23-0.01c-0.08-0.08-0.03-0.17,0-0.26c0.13-0.36,0.39-0.62,0.73-0.84c-0.14,0-0.29,0-0.43,0
						c-0.07,0-0.15,0.02-0.19-0.06c-0.05-0.09,0.03-0.15,0.08-0.21c0.14-0.14,0.3-0.24,0.49-0.31c0.81-0.32,1.61-0.13,2.4,0.05
						c0.48,0.11,0.93,0.3,1.39,0.46c0.47,0.16,0.66,0.09,0.92-0.33c0.46-0.73,0.81-1.51,0.98-2.36c0.09-0.47,0.04-0.58-0.4-0.73
						c-0.05-0.02-0.1-0.03-0.15-0.04c-0.11-0.03-0.19-0.07-0.16-0.21c0.03-0.15,0.13-0.16,0.26-0.14c0.27,0.05,0.53,0.15,0.79,0.23
						c0.11,0.04,0.25,0.1,0.3-0.07c0.05-0.16-0.05-0.24-0.2-0.29c-0.31-0.11-0.64-0.15-0.96-0.16c-0.14-0.01-0.28-0.02-0.28-0.2
						c0-0.2,0.16-0.18,0.29-0.19c0.33-0.02,0.65,0.01,0.98,0.05c0.12,0.02,0.29,0.04,0.3-0.16c0.01-0.19-0.15-0.15-0.27-0.17
						c-0.51-0.09-1.02-0.08-1.51,0.1c-0.14,0.05-0.26,0-0.38-0.06c-0.25-0.13-0.46-0.31-0.67-0.48c-0.53-0.41-1.09-0.4-1.67-0.11
						c-0.05,0.03-0.11,0.06-0.16,0.1c-0.5,0.44-1.03,0.64-1.7,0.38c-0.26-0.1-0.57-0.06-0.85-0.01c-0.11,0.02-0.24,0.02-0.22,0.19
						c0.02,0.17,0.16,0.17,0.28,0.16c0.07,0,0.14-0.02,0.21-0.03c0.27-0.03,0.53-0.03,0.79,0.02c0.11,0.02,0.2,0.04,0.18,0.19
						c-0.01,0.13-0.08,0.18-0.2,0.17c-0.3-0.02-0.58,0.08-0.88,0.13c-0.1,0.02-0.22,0.04-0.19,0.18c0.03,0.14,0.13,0.21,0.27,0.17
						c0.22-0.06,0.43-0.13,0.65-0.18c0.1-0.03,0.21-0.03,0.26,0.1c0.05,0.14-0.03,0.21-0.15,0.25c-0.14,0.05-0.28,0.12-0.42,0.17
						c-0.21,0.08-0.22,0.2-0.11,0.38c0.3,0.48,0.72,0.83,1.18,1.14c0.09,0.06,0.29,0.1,0.23,0.23c-0.05,0.13-0.22,0.02-0.33-0.01
						c-1.39-0.3-2.34-1.46-2.41-2.94c-0.03-0.57,0.03-1.12,0.18-1.67c0.06-0.2,0.04-0.34-0.09-0.51c-0.23-0.31-0.28-0.65-0.13-1.01
						c0.15-0.34,0.5-0.56,0.87-0.48c0.22,0.05,0.36-0.02,0.52-0.15c1.53-1.23,3.83-1.46,5.5-0.55c0.34,0.19,0.65,0.42,0.93,0.69
						c0.09,0.09,0.16,0.17,0.31,0.14c0.42-0.08,0.75,0.08,0.94,0.45c0.2,0.38,0.15,0.77-0.15,1.08c-0.2,0.2-0.21,0.37-0.13,0.62
						c0.38,1.15,0.71,2.32,0.91,3.52c0.39,2.33,0.34,4.62-0.78,6.77c-0.59,1.12-1.46,2.01-2.4,2.84c-1.76,1.57-3.55,3.11-5.31,4.67
						c-0.52,0.46-1.01,0.95-1.51,1.43c-0.15,0.15-0.27,0.14-0.42,0.01c-2.45-2.11-4.93-4.2-7.35-6.34c-1.4-1.24-2.66-2.64-3.52-4.33
						c-1.22-2.4-1.39-4.86-0.21-7.31c0.98-2.02,2.64-3.2,4.9-3.46c1.68-0.2,3.2,0.22,4.56,1.2c0.86,0.61,1.34,1.47,1.5,2.5
						c0.02,0.1,0.01,0.2,0.01,0.31c0,0.15-0.06,0.25-0.21,0.3c-0.14,0.05-0.23-0.03-0.32-0.12c-0.51-0.57-1.14-0.95-1.9-1.09
						c-1.43-0.26-2.67,0.41-3.25,1.75c-0.73,1.69-0.49,3.28,0.42,4.83c0.67,1.15,1.51,2.18,2.37,3.19
						C69.03,57.76,70.06,59.04,70.8,60.52z M74.12,46.05c0.22-0.01,0.38-0.11,0.39-0.34c0.01-0.22-0.1-0.37-0.34-0.38
						c-0.24-0.01-0.39,0.14-0.41,0.36C73.75,45.91,73.9,46.03,74.12,46.05z M77.94,46.05c0.21-0.01,0.35-0.13,0.35-0.35
						c-0.01-0.22-0.15-0.35-0.37-0.35c-0.21,0-0.35,0.14-0.35,0.34C77.56,45.9,77.68,46.04,77.94,46.05z"/>
				</g>
				<g>
					<path class="st3" d="M77.16,48.48c0.09,0,0.16-0.01,0.22,0c0.09,0.01,0.23-0.05,0.27,0.07c0.04,0.15-0.09,0.22-0.2,0.27
						c-0.4,0.2-0.81,0.22-1.19-0.03c-0.16-0.1-0.27-0.11-0.44-0.02c-0.36,0.2-0.74,0.22-1.11,0.03c-0.09-0.05-0.19-0.11-0.17-0.22
						c0.02-0.14,0.16-0.1,0.25-0.1c0.29,0.01,0.57,0.01,0.83-0.16c0.26-0.17,0.28-0.22,0.04-0.42c-0.19-0.17-0.39-0.33-0.51-0.56
						c-0.2-0.35-0.13-0.5,0.26-0.6c0.42-0.11,0.83-0.07,1.24,0.03c0.27,0.07,0.33,0.19,0.2,0.45c-0.12,0.25-0.3,0.46-0.49,0.66
						c-0.17,0.18-0.12,0.29,0.06,0.41C76.65,48.45,76.91,48.52,77.16,48.48z"/>
				</g>
			</g>
			<g>
				<g>
					<path class="st3" d="M212.67,223.27c0.05,0.46,0.21,0.88,0.4,1.28c0.46,1.03,1.02,2,1.84,2.79c0.42,0.41,0.82,0.85,1.18,1.33
						c1.18,1.56,0.62,3.6-1.2,4.3c-1,0.38-2,0.5-2.96-0.16c-0.27-0.19-0.53-0.39-0.69-0.68c-0.08-0.15-0.15-0.32-0.02-0.46
						c0.12-0.15,0.28-0.05,0.42,0c0.09,0.03,0.19,0.07,0.37,0.14c-0.14-0.2-0.24-0.32-0.31-0.45c-0.09-0.16-0.19-0.32-0.24-0.49
						c-0.08-0.24,0.02-0.34,0.26-0.26c0.21,0.07,0.42,0.16,0.66,0.26c-0.01-0.2-0.17-0.31-0.22-0.47c-0.02-0.07-0.07-0.14-0.03-0.2
						c0.06-0.09,0.15-0.05,0.22-0.02c0.32,0.11,0.63,0.23,0.95,0.35c0.63,0.23,1.19-0.05,1.38-0.7c0.15-0.51,0.06-1-0.19-1.45
						c-0.64-1.16-1.48-2.18-2.29-3.21c-0.14-0.18-0.24-0.06-0.35,0.03c-1.2,0.94-2.38,1.9-3.44,2.99c-0.21,0.21-0.35,0.26-0.6,0.05
						c-0.42-0.35-0.96-0.37-1.48-0.42c0.78,0.3,1.35,0.87,1.86,1.5c0.24,0.29,0.53,0.54,0.83,0.77c0.35,0.28,0.73,0.39,1.17,0.25
						c0.11-0.03,0.26-0.13,0.33,0c0.07,0.12-0.07,0.22-0.15,0.31c-0.11,0.13-0.24,0.25-0.38,0.4c0.24,0.02,0.42-0.11,0.61-0.15
						c0.08-0.02,0.16-0.05,0.23,0.01c0.08,0.08,0.03,0.17,0,0.26c-0.13,0.36-0.39,0.62-0.73,0.84c0.14,0,0.29,0,0.43,0
						c0.07,0,0.15-0.02,0.19,0.06c0.05,0.09-0.03,0.15-0.08,0.21c-0.14,0.14-0.3,0.24-0.49,0.31c-0.81,0.32-1.61,0.13-2.4-0.05
						c-0.48-0.11-0.93-0.3-1.39-0.46c-0.47-0.16-0.66-0.09-0.92,0.33c-0.46,0.73-0.81,1.51-0.98,2.36c-0.09,0.47-0.04,0.58,0.4,0.73
						c0.05,0.02,0.1,0.03,0.15,0.04c0.11,0.03,0.19,0.07,0.16,0.21c-0.03,0.15-0.13,0.16-0.26,0.14c-0.27-0.05-0.53-0.15-0.79-0.23
						c-0.11-0.04-0.25-0.1-0.3,0.07c-0.05,0.16,0.05,0.24,0.2,0.29c0.31,0.11,0.64,0.15,0.96,0.16c0.14,0.01,0.28,0.02,0.28,0.2
						c0,0.2-0.16,0.18-0.29,0.19c-0.33,0.02-0.65-0.01-0.98-0.05c-0.12-0.02-0.29-0.04-0.3,0.16c-0.01,0.19,0.15,0.15,0.27,0.17
						c0.51,0.09,1.02,0.08,1.51-0.1c0.14-0.05,0.26,0,0.38,0.06c0.25,0.13,0.46,0.31,0.67,0.48c0.53,0.41,1.09,0.4,1.67,0.11
						c0.05-0.03,0.11-0.06,0.16-0.1c0.5-0.44,1.03-0.64,1.7-0.38c0.26,0.1,0.57,0.06,0.85,0.01c0.11-0.02,0.24-0.02,0.22-0.19
						c-0.02-0.17-0.16-0.17-0.28-0.16c-0.07,0-0.14,0.02-0.21,0.03c-0.27,0.03-0.53,0.03-0.79-0.02c-0.11-0.02-0.2-0.04-0.18-0.19
						c0.01-0.13,0.08-0.18,0.2-0.17c0.3,0.02,0.58-0.08,0.88-0.13c0.1-0.02,0.22-0.04,0.19-0.18c-0.03-0.14-0.13-0.21-0.27-0.17
						c-0.22,0.06-0.43,0.13-0.65,0.18c-0.1,0.03-0.21,0.03-0.26-0.1c-0.05-0.14,0.03-0.21,0.15-0.25c0.14-0.05,0.28-0.12,0.42-0.17
						c0.21-0.08,0.22-0.2,0.11-0.38c-0.3-0.48-0.72-0.83-1.18-1.14c-0.09-0.06-0.29-0.1-0.23-0.23c0.05-0.13,0.22-0.02,0.33,0.01
						c1.39,0.3,2.34,1.46,2.41,2.94c0.03,0.57-0.03,1.12-0.18,1.67c-0.06,0.2-0.04,0.34,0.09,0.51c0.23,0.31,0.28,0.65,0.13,1.01
						c-0.15,0.34-0.5,0.56-0.87,0.48c-0.22-0.05-0.36,0.02-0.52,0.15c-1.53,1.23-3.83,1.46-5.5,0.55c-0.34-0.19-0.65-0.42-0.93-0.69
						c-0.09-0.09-0.16-0.17-0.31-0.14c-0.42,0.08-0.75-0.08-0.94-0.45c-0.2-0.38-0.15-0.77,0.15-1.08c0.2-0.2,0.21-0.37,0.13-0.62
						c-0.38-1.15-0.71-2.32-0.91-3.52c-0.39-2.33-0.34-4.62,0.78-6.77c0.59-1.12,1.46-2.01,2.4-2.84c1.76-1.57,3.55-3.11,5.31-4.67
						c0.52-0.46,1.01-0.95,1.51-1.43c0.15-0.15,0.27-0.14,0.42-0.01c2.45,2.11,4.93,4.2,7.35,6.34c1.4,1.24,2.66,2.64,3.52,4.33
						c1.22,2.4,1.39,4.86,0.21,7.31c-0.98,2.02-2.64,3.2-4.9,3.46c-1.68,0.2-3.2-0.22-4.56-1.2c-0.86-0.61-1.34-1.47-1.5-2.5
						c-0.02-0.1-0.01-0.2-0.01-0.31c0-0.15,0.06-0.25,0.21-0.3c0.14-0.05,0.23,0.03,0.32,0.12c0.51,0.57,1.14,0.95,1.9,1.09
						c1.43,0.26,2.67-0.41,3.25-1.75c0.73-1.69,0.49-3.28-0.42-4.83c-0.67-1.15-1.51-2.18-2.37-3.19
						C214.43,226.04,213.4,224.76,212.67,223.27z M209.34,237.75c-0.22,0.01-0.38,0.11-0.39,0.34c-0.01,0.22,0.1,0.37,0.34,0.38
						c0.24,0.01,0.39-0.14,0.41-0.36C209.72,237.88,209.56,237.76,209.34,237.75z M205.53,237.75c-0.21,0.01-0.35,0.13-0.35,0.35
						c0.01,0.22,0.15,0.35,0.37,0.35c0.21,0,0.35-0.14,0.35-0.34C205.91,237.89,205.79,237.75,205.53,237.75z"/>
				</g>
				<g>
					<path class="st3" d="M206.3,235.31c-0.09,0-0.16,0.01-0.22,0c-0.09-0.01-0.23,0.05-0.27-0.07c-0.04-0.15,0.09-0.22,0.2-0.27
						c0.4-0.2,0.81-0.22,1.19,0.03c0.16,0.1,0.27,0.11,0.44,0.02c0.36-0.2,0.74-0.22,1.11-0.03c0.09,0.05,0.19,0.11,0.17,0.22
						c-0.02,0.14-0.16,0.1-0.25,0.1c-0.29-0.01-0.57-0.01-0.83,0.16c-0.26,0.17-0.28,0.22-0.04,0.42c0.19,0.17,0.39,0.33,0.51,0.56
						c0.2,0.35,0.13,0.5-0.26,0.6c-0.42,0.11-0.83,0.07-1.24-0.03c-0.27-0.07-0.33-0.19-0.2-0.45c0.12-0.25,0.3-0.46,0.49-0.66
						c0.17-0.18,0.12-0.29-0.06-0.41C206.81,235.35,206.55,235.28,206.3,235.31z"/>
				</g>
			</g>
		</g>
		<g>
			<path class="st3" d="M76.06,26.37l-0.53-0.09c-0.58-0.11-1.33-0.13-1.73-0.13v10.02c0,2.88-2.33,3.68-4.39,3.68
				c-1,0-1.91-0.18-2.51-0.4l0.07-2.66c0.93,0,2.39-0.22,2.39-1.6v-9.05c-0.4,0-1.15,0.02-1.73,0.13l-0.53,0.09l0.04-2.9l4.43,0.07
				l4.43-0.07L76.06,26.37z"/>
		</g>
		<g>
			<path class="st3" d="M206.66,257.09l0.53,0.09c0.58,0.11,1.33,0.13,1.73,0.13v-10.02c0-2.88,2.33-3.68,4.39-3.68
				c1,0,1.91,0.18,2.51,0.4l-0.07,2.66c-0.93,0-2.39,0.22-2.39,1.6v9.05c0.4,0,1.15-0.02,1.73-0.13l0.53-0.09l-0.04,2.9l-4.43-0.07
				l-4.43,0.07L206.66,257.09z"/>
		</g>
	</g>
</g>
</svg>
