<?xml version="1.0" encoding="utf-8"?>
<!-- Generator: Adobe Illustrator 24.0.1, SVG Export Plug-In . SVG Version: 6.00 Build 0)  -->
<svg version="1.1" xmlns="http://www.w3.org/2000/svg" xmlns:xlink="http://www.w3.org/1999/xlink" x="0px" y="0px"
	 viewBox="0 0 283.46 283.46" style="enable-background:new 0 0 283.46 283.46;" xml:space="preserve">
<style type="text/css">
	.st0{fill:#DBDDD9;}
	.st1{fill:#FFFFFF;}
	.st2{fill:none;stroke:#000000;stroke-width:3;stroke-miterlimit:10;}
	.st3{fill:#E30613;}
	.st4{fill:#894F28;}
	.st5{fill:#3E2215;}
	.st6{fill:#DEB27E;}
	.st7{opacity:0.25;fill:#312783;}
	.st8{opacity:0.53;fill:#F5F0DA;}
	.st9{fill:none;}
	.st10{fill:#EB941E;}
	.st11{fill:#1F201D;}
	.st12{fill:#E2E0DB;}
	.st13{fill:#B7B6B0;}
	.st14{fill:#2FAC66;}
	.st15{fill:#312783;}
	.st16{fill:#E94D2A;}
	.st17{fill:#F5EA61;}
	.st18{fill:#1D71B8;}
	.st19{fill:#2D3B49;}
</style>
<g id="bg">
</g>
<g id="CUT">
</g>
<g id="BACK">
</g>
<g id="ILLUSTRATION">
</g>
<g id="SYMBOLS">
</g>
<g id="CARDS">
	<g>
		<path class="st1" d="M217.23,267.73h-151c-8.01,0-14.5-6.49-14.5-14.5v-223c0-8.01,6.49-14.5,14.5-14.5h151
			c8.01,0,14.5,6.49,14.5,14.5v223C231.73,261.24,225.24,267.73,217.23,267.73z"/>
		<g>
			<g>
				<g>
					<g>
						<g>
							<g>
								<path class="st11" d="M128.27,81.3c1.36-0.08,2.56,0.4,3.67,1.15c0.65,0.43,1.28,0.9,2.02,1.41
									c0.22-2.26,0.56-4.37,1.33-6.4c1.46-3.85,4.02-6.56,8.01-7.76c2.47-0.74,4.98-1.03,7.57-0.7c3.75,0.49,6.82,2.15,9.16,5.1
									c1.73,2.17,2.85,4.51,3.46,6.99c1.71,6.39,0.02,13.56-4.8,18.26c-3.26,3.18-7.46,5.21-10.23,8.92
									c-2.46,3.3-3.57,7.78-1.45,11.47c0.38-0.33,0.76-0.65,1.15-0.96c5.33-4.28,11.09-7.86,17.39-10.55
									c3.14-1.34,6.38-2.34,9.84-2.42c0.63-0.01,0.61-0.35,0.55-0.81c-0.27-1.94-0.41-3.9-0.36-5.86
									c0.11-4.3,0.48-8.59,0.25-12.89c-0.18-3.34-0.77-6.58-2.14-9.66c-0.29-0.66-0.69-1.21-1.25-1.69
									c-1.28-1.08-2.69-1.94-4.17-2.7c-6.25-3.19-12.93-4.92-19.87-5.7c-4.59-0.51-9.16-0.47-13.73,0.32
									c-2.58,0.45-4.88,1.28-6.53,3.43c-0.19,0.24-0.51,0.41-0.23,0.82c0.99,1.48,1.07,3.16,0.9,4.86
									c-0.15,1.58-0.61,3.09-1.05,4.6C127.61,81.06,127.62,81.34,128.27,81.3z"/>
								<path class="st1" d="M125.77,74.91c0.67,0.08,1.11,0.53,1.64,1.08c0.15-1.11,0.03-2.05-0.16-2.98
									c-0.04-0.2-0.09-0.46-0.34-0.52c-0.28-0.07-0.46,0.14-0.59,0.35c-0.31,0.51-0.56,1.06-0.74,1.63
									C125.51,74.68,125.5,74.88,125.77,74.91z"/>
								<path class="st10" d="M129.88,92.24c2.58-0.37,5-1.25,7.23-2.62c0.25-0.15,0.62-0.31,0.12-0.61c-2-1.21-3.58-2.91-5.32-4.43
									c-1.72-1.5-3.53-2-5.67-0.84c-4.74,2.56-9.7,4.66-14.57,6.95c-1.18,0.56-2.3,1.23-3.36,2.36c3.35-0.37,6.52-0.47,9.69-0.48
									C121.95,92.56,125.93,92.81,129.88,92.24z"/>
								<path class="st10" d="M133.69,40.9c-0.01-0.89-0.77-1.66-1.65-1.67c-0.96-0.01-1.71,0.72-1.72,1.67
									c-0.01,0.95,0.69,1.66,1.62,1.65C132.89,42.55,133.69,41.79,133.69,40.9z"/>
								<path class="st10" d="M86.93,95.83c-0.12-0.55-0.52-0.72-1.05-0.72c-1.12,0.18-2.25,0.34-3.37,0.53
									c-0.5,0.08-1.02,0.24-0.94,0.89c0.08,0.65,0.4,1.16,1.16,1.1c1.19-0.09,2.37-0.28,3.52-0.6
									C86.86,96.86,87.05,96.41,86.93,95.83z"/>
								<path class="st10" d="M131.66,96.49c2.82-0.63,5.26-1.88,7.05-4.23c0.35-0.47,0.59-0.98,0.53-1.59
									c-0.05-0.53-0.28-0.7-0.74-0.33c-0.9,0.72-1.9,1.27-2.95,1.73c-3.98,1.75-8.19,2.07-12.46,1.99
									c-2.75-0.05-5.49-0.18-8.24-0.27l-0.05,0.15c0.65,0.28,1.29,0.57,1.94,0.83C121.56,96.69,126.49,97.64,131.66,96.49z"/>
								<path class="st10" d="M87.32,124.49c0.73-0.2,1.45-0.45,2.16-0.71c0.2-0.07,0.11-0.28,0.1-0.44
									c-0.01-0.14-0.01-0.27-0.03-0.41c-0.65-4.59-1.29-9.19-1.97-13.78c-0.47-3.19-0.97-6.38-1.46-9.58
									c-0.06-0.42-0.2-0.74-0.72-0.67c-0.48,0.07-0.96,0.16-1.45,0.22c-0.56,0.07-0.68,0.32-0.59,0.89
									c0.6,3.69,1.17,7.4,1.74,11.1c0.66,4.32,1.3,8.64,1.95,12.96C87.09,124.25,87.05,124.56,87.32,124.49z"/>
								<path class="st11" d="M181.73,122.07c-2.47-0.64-4.98-0.52-7.46-0.26c-4.51,0.48-8.84,1.72-13.04,3.44
									c-3.62,1.49-7.19,3.13-11.09,3.77c-0.44,0.07-0.56,0.28-0.5,0.72c0.2,1.64,0.31,3.3,0.56,4.94
									c0.78,5.1,1.58,10.2,2.41,15.29c0.35,2.16,0.79,4.32,1.23,6.71c0.51-0.64,0.83-1.11,1.21-1.53
									c2.17-2.33,4.32-4.69,6.54-6.97c2.54-2.61,3.15-5.66,2.39-9.12c-0.4-1.8-1.26-3.41-1.99-5.08c-0.24-0.54-0.35-1.08,0.3-1.4
									c0.64-0.32,0.95,0.14,1.22,0.61c1.28,2.27,2.22,4.63,2.55,7.26c0.39,3.22-0.48,5.99-2.58,8.38
									c-1.71,1.94-3.52,3.79-5.31,5.65c-1.63,1.7-3.05,3.56-4.04,5.7c-2.32,5-2.23,9.85,1.07,14.43c0.65,0.9,1.39,1.76,2.44,2.25
									c1.06,0.49,1.99,0.21,2.61-0.78c0.41-0.65,0.63-1.39,0.83-2.12c0.92-3.49,3.16-5.77,6.47-7.03
									c2.06-0.79,4.15-1.47,6.21-2.26c5.12-1.98,9.94-4.38,13.48-8.83c3.37-4.23,4.92-8.95,4.07-14.3
									c-1.04-6.6-3.91-12.47-7.48-18.04C183.32,122.74,182.63,122.31,181.73,122.07z"/>
								<path class="st10" d="M182.4,53.03c1.02,0.01,1.7-0.61,1.72-1.57c0.02-0.9-0.75-1.71-1.63-1.72
									c-0.9-0.01-1.66,0.8-1.66,1.77C180.84,52.41,181.48,53.03,182.4,53.03z"/>
								<path class="st10" d="M173.8,69.27c-1.43-1.23-3.04-2.2-4.73-3.03c-8.22-4.06-16.99-5.73-26.09-5.93
									c-2.18-0.03-4.35,0.17-6.51,0.37c-1.4,0.13-2.81,0.32-4.12,0.9c-0.42,0.19-0.78,0.4-0.83,0.91
									c-0.07,0.73-0.11,1.46-0.18,2.19c-0.06,0.6,0.14,0.76,0.74,0.6c5.41-1.45,10.9-1.51,16.42-0.95
									c4.31,0.44,8.54,1.31,12.66,2.63c4.08,1.31,8.02,2.94,11.53,5.45c1.26,0.9,1.24,0.91,1.78-0.55
									C174.98,70.47,174.94,70.26,173.8,69.27z"/>
								<path class="st1" d="M170.38,108.76c-8.22,2.66-15.41,7.16-22.04,12.61c-0.81,0.67-1.63,1.38-2.14,2.34
									c-0.78,1.44-0.2,2.93,1.3,3.32c0.55,0.14,1.1,0.18,1.69,0.12c2.88-0.31,5.54-1.35,8.18-2.43
									c6.18-2.54,12.42-4.81,19.21-5.06c2.75-0.1,5.43,0,8,1.4c0.2-0.7-0.03-1.31-0.1-1.91c-0.25-2.23-0.76-4.4-1.79-6.41
									c-0.99-1.92-2.26-3.57-4.46-4.3C175.56,107.55,172.93,107.93,170.38,108.76z"/>
								<path class="st10" d="M132.63,58.27c0,0.8,0.24,0.89,0.94,0.73c2.91-0.65,5.87-0.83,8.83-0.82c3.59,0,7.17,0.26,10.71,0.87
									c7.62,1.32,14.96,3.38,21.32,8.04c0.48,0.35,0.62,0.13,0.79-0.3c0.84-2.06,1.71-4.12,2.57-6.18
									c0.47-1.12,0.94-2.23,1.4-3.35c-0.51,0.3-0.86,0.72-1.25,1.09c-0.9,0.85-1.93,1.51-3.12,1.88c-2.4,0.75-4.42-0.19-5.38-2.51
									c-0.41-0.99-0.57-2.03-0.65-3.1c-0.12-1.55-0.03-3.1,0.03-4.9c-0.42,0.51-0.69,0.85-0.97,1.16
									c-1.65,1.81-3.33,3.59-5.56,4.74c-3.53,1.81-6.92,0.95-9.09-2.35c-0.97-1.47-1.55-3.11-2.02-4.79
									c-0.35-1.21-0.64-2.44-0.96-3.7c-0.29,0.23-0.34,0.51-0.45,0.75c-1.21,2.54-2.58,4.98-4.43,7.12
									c-1.18,1.36-2.54,2.5-4.41,2.73c-2.29,0.28-3.88-0.96-5.25-2.58c-1.18-1.38-2-2.99-2.83-4.61
									C132.93,51.58,132.65,54.92,132.63,58.27z"/>
								<path class="st10" d="M151.09,40.92c0.91-0.04,1.71-0.82,1.69-1.65c-0.02-0.95-0.83-1.85-1.63-1.82
									c-0.98,0.04-1.87,0.97-1.83,1.92C149.35,40.22,150.2,40.96,151.09,40.92z"/>
								<path class="st10" d="M170.7,45.33c0.88,0.01,1.7-0.79,1.69-1.63c-0.01-0.96-0.81-1.71-1.79-1.69
									c-0.95,0.03-1.58,0.72-1.57,1.7C169.05,44.65,169.74,45.33,170.7,45.33z"/>
								<path class="st11" d="M171.03,206.72c-3.51-4.94-6.44-10.22-9.01-15.7c-0.72-1.54-1.42-3.1-2.21-4.82
									c-0.86,3.44-2.33,6.37-4.36,9.05c-3.68,4.87-8.23,8.54-14.15,10.26c-4.54,1.32-9.19,1.55-13.89,0.93
									c-5.03-0.66-9.63-2.36-13.79-5.3c-1.28-0.9-2.44-1.92-3.54-3.03c4.94,9.69,14.18,13.67,22.86,12.73
									c-0.3-0.5-0.21-0.75,0.35-0.79c0.82-0.05,1.63,0.09,2.43,0.25c2.81,0.59,5.6,1.39,8.52,1.23c0.5-0.03,0.84-0.02,0.72-0.68
									c-0.07-0.4,0.13-0.77,0.55-0.9c0.41-0.13,0.55,0.24,0.74,0.49c0.6,0.79,1.35,1.42,2.16,1.98c3.75,2.6,7.95,3.22,12.31,2.47
									c4.25-0.73,7.83-2.71,10.31-6.4C171.47,207.87,171.51,207.4,171.03,206.72z"/>
								<path class="st10" d="M164.06,216.1c-3.45,1.19-6.97,1.37-10.52,0.61c-0.63-0.13-0.81,0.07-0.92,0.62
									c-0.18,0.96-0.68,1.76-1.38,2.45c-1.18,1.17-2.62,1.93-4.08,2.66c-3.07,1.53-6.07,3.18-8.93,5.08
									c-0.34,0.23-0.7,0.45-0.98,0.83c0.63,0.08,1.18,0.13,1.71,0.22c1.5,0.25,2.83,0.81,3.65,2.18c0.19,0.31,0.34,0.4,0.58,0.05
									c0.17-0.25,0.38-0.46,0.57-0.69c1.81-2.24,3.84-4.22,6.21-5.86c0.27-0.18,0.59-0.47,0.85-0.14
									c0.25,0.31-0.13,0.54-0.34,0.72c-1.76,1.56-3.19,3.42-4.68,5.22c-0.74,0.89-1.47,1.8-2.01,2.9c0.15-0.01,0.23,0,0.3-0.03
									c2.45-1.12,5.03-1.52,7.7-1.43c2.54,0.09,4.78,0.96,6.7,2.62c0.45,0.39,0.67,0.37,1-0.08c1.48-2.02,2.9-4.08,4.09-6.29
									c1.9-3.54,2.66-7.22,1.33-11.16C164.75,216.09,164.58,215.92,164.06,216.1z"/>
								<path class="st10" d="M130.27,212.97c-3.03,0.01-5.93-0.67-8.75-1.72c-0.72-0.27-0.83-0.04-0.81,0.61
									c0.05,1.3-0.54,2.25-1.74,2.77c-0.65,0.28-1.3,0.56-1.97,0.79c-3.83,1.3-7.73,2.42-11.44,4.08
									c-1.62,0.72-3.25,1.44-4.81,2.41c0.12,0.06,0.16,0.1,0.21,0.1c2.21,0.29,4.08,1.13,5.17,3.23c0.28,0.53,0.49,0.08,0.65-0.09
									c2.94-3.18,6.73-5.02,10.62-6.68c0.15-0.06,0.3-0.12,0.46-0.16c0.2-0.04,0.39-0.03,0.48,0.19c0.07,0.18-0.03,0.32-0.16,0.42
									c-0.15,0.11-0.32,0.21-0.48,0.31c-2.05,1.28-4.12,2.54-6.15,3.86c-1.55,1.01-2.96,2.2-4.16,3.8c0.51-0.16,0.89-0.3,1.28-0.4
									c3.78-0.98,7.39-0.99,10.47,1.88c0.29,0.27,0.44,0.17,0.66-0.05c0.7-0.68,1.48-1.28,2.27-1.87
									c2.23-1.65,4.64-3.05,6.79-4.81c1.16-0.95,2.15-1.98,2.31-3.6c0.16-1.59-0.07-3.14-0.29-4.7
									C130.84,212.97,130.54,212.97,130.27,212.97z"/>
								<path class="st3" d="M173.27,209.49c-0.18-0.2-0.36-0.48-0.61-0.06c-0.92,1.55-2.12,2.86-3.6,4.04
									c3.32,0.46,6.51,1.03,9.96,1.03C176.78,212.98,174.93,211.34,173.27,209.49z"/>
								<path class="st3" d="M210.57,207.55c-1.63-0.76-3.22-1.61-4.61-2.77c-3.01-2.51-5.29-5.65-7.31-8.94
									c-5.16-8.41-8.83-17.46-11.08-27.08c-0.66-2.8-1.19-5.62-1.69-8.47c-0.12,0.04-0.21,0.05-0.27,0.09
									c-2.87,2.4-6.2,4-9.6,5.49c-2.67,1.17-5.5,1.89-8.19,3.02c-2.58,1.09-4.28,2.91-4.98,5.65c-0.2,0.76-0.42,1.52-0.8,2.22
									c-0.54,1.02-1.27,1.89-2.42,2.16c-0.68,0.16-0.77,0.36-0.52,0.98c2.29,5.8,4.64,11.57,7.71,17.01
									c2.61,4.63,5.37,9.15,9.24,12.9c4.46,4.32,9.86,6.38,15.94,6.77c2.6,0.17,5.22,0.11,7.81-0.3c3.5-0.55,6.86-1.47,9.9-3.34
									c1.19-0.73,2.27-1.59,2.99-2.84c0.35-0.61,0.23-1.09-0.29-1.51C211.85,208.17,211.21,207.85,210.57,207.55z M199.64,209.21
									c-1.41-0.24-2.87-0.66-4.3-1.19c-5.27-1.93-9.52-5.24-13.08-9.56c-4.88-5.92-8.02-12.71-10.27-19.97
									c-0.1-0.31-0.16-0.63-0.21-0.95c-0.02-0.15,0-0.34,0.2-0.4c0.19-0.05,0.32,0.05,0.39,0.21c0.13,0.27,0.24,0.55,0.34,0.83
									c2.07,5.78,4.46,11.42,8.06,16.44c3.37,4.69,7.36,8.74,12.54,11.47c1.89,1,3.89,1.69,5.96,2.18
									c0.21,0.05,0.42,0.11,0.63,0.16c0.24,0.06,0.5,0.11,0.49,0.44C200.38,209.09,200.15,209.2,199.64,209.21z"/>
								<path class="st11" d="M107.82,127.52c-0.98,0.3-1.78,0.56-2.59,0.79c-2.97,0.83-6.01,0.92-9.06,0.8
									c-0.37-0.01-0.67-0.07-0.81,0.42c-0.35,1.24-1,2.35-1.72,3.41c-0.35,0.51-0.44,1.04-0.35,1.62
									c0.08,0.51,0.17,1.02,0.24,1.53c0.57,3.95,1.15,7.9,1.69,11.86c0.08,0.59,0.3,0.86,0.84,1.02c1.25,0.37,2.49,0.79,3.74,1.17
									c1.04,0.32,1.03,0.3,1.23-0.76c0.99-5.32,2.23-10.58,4.18-15.65C105.98,131.67,106.87,129.66,107.82,127.52z"/>
								<path class="st10" d="M91.62,136.28c-1.18,1.97-2.3,3.73-1.93,6c0.44,2.71,0.81,5.42,1.22,8.14
									c0.57,3.81,1.16,7.63,1.71,11.44c0.49,3.36,0.94,6.72,1.43,10.08c0.59,4.03,1.28,8.05,1.8,12.09
									c0.62,4.77,1.39,9.51,2.11,14.26c0.62,4.11,1.25,8.21,1.84,12.33c0.24,1.69,0.24,1.72,1.95,1.6
									c0.7-0.05,0.96-0.36,0.86-1.06c-0.32-2.09-0.62-4.19-0.93-6.28c-1.2-8.17-2.4-16.34-3.59-24.51
									c-1.06-7.23-2.05-14.47-3.16-21.69C93.8,151.28,92.69,143.9,91.62,136.28z"/>
								<path class="st10" d="M99.05,215.06c0.08,0.67,0.61,0.91,1.33,0.9c1.1-0.18,2.29-0.26,3.45-0.58
									c0.52-0.15,0.7-0.5,0.59-0.99c-0.11-0.47-0.44-0.79-0.94-0.71c-1.12,0.17-2.27,0.17-3.38,0.41
									C99.5,214.2,98.96,214.35,99.05,215.06z"/>
								<path class="st1" d="M114.38,199.8c6.84,4.8,14.5,6.27,22.66,5.16c11.13-1.51,19.34-10.43,21.76-20.04
									c0.15-0.6,0.13-1.14-0.12-1.73c-0.43-1-0.84-2.01-1.12-3.06c-0.23-0.88-0.61-1.52-1.48-1.86c-0.37-0.14-0.7-0.43-0.99-0.71
									c-2.9-2.79-4.41-6.22-4.59-10.23c-0.13-2.87,0.61-5.55,1.84-8.11c0.18-0.37,0.33-0.73,0.23-1.17
									c-0.75-3.31-1.39-6.65-1.98-9.99c-1.06-5.99-2.05-12-2.71-18.05c-0.06-0.55-0.25-0.9-0.84-1.02
									c-0.9-0.2-1.67-0.64-2.27-1.36c-1.29-1.55-1.28-3.64,0.02-5.52c0.23-0.33,0.48-0.64,0.74-0.94
									c-2.18-3.33-2.07-7.61-0.44-11.15c3.66-7.97,13.61-10.2,16.3-18.86c1.17-3.79,1.07-7.96-0.52-11.61
									c-0.11-0.25-0.1-0.49-0.04-0.7c-0.03-0.07-0.05-0.14-0.08-0.2c-2.3-5.17-6.34-8.03-12.21-8.01
									c-0.99-0.05-2.01,0.15-3.02,0.34c-3.88,0.73-6.86,2.68-8.49,6.39c-0.97,2.22-1.49,4.53-1.49,6.97c0,0.79,0.29,1.31,0.88,1.8
									c1.06,0.88,2.28,1.48,3.41,2.24c0.83,0.57,1.22,1.33,1.18,2.36c-0.03,0.79-0.29,1.49-0.68,2.15
									c-1.01,1.72-2.52,2.91-4.23,3.86c-2.35,1.32-4.92,1.81-7.58,2.01c-0.7,0.05-1.52-0.12-2.06,0.28
									c-0.47,0.35-0.09,1.13-0.2,1.71c-0.02,0.11-0.04,0.21-0.06,0.32c-0.46,3.06-2.15,5.48-3.9,7.93
									c-1.83,2.56-3.69,5.1-5.47,7.69c-3.48,5.05-6.7,10.31-9,16.01c-3.38,8.4-5.25,17.13-5.91,26.14
									c-0.35,4.73-0.35,9.45,0.15,14.17c0.54,5.2,1.69,10.24,3.65,15.09C107.59,192.72,110.2,196.86,114.38,199.8z M142.77,79.25
									c0.32-1.56,1.17-3.17,2.74-3.75c1.33-0.49,2.73,0.02,3.46,1.23c0.67,1.12,0.74,2.54,0.48,3.8
									c-0.28,1.32-1.01,2.55-2.14,3.31c-1.21,0.81-2.88,0.87-3.8-0.4c-0.13-0.18-0.23-0.38-0.32-0.59
									C142.61,81.77,142.52,80.46,142.77,79.25z"/>
								<path class="st11" d="M93.3,129.21c0.71-1.84-0.47-3.55-2.43-3.51c-2.14,0.05-3.89,1.11-5.56,2.3
									c-1.86,1.34-2.78,3.22-2.87,5.5c-0.14,3.49,1.34,6.37,3.45,9c0.54,0.67,1.09,1.35,2.07,1.75c-0.04-0.36-0.03-0.61-0.1-0.84
									c-0.54-2.01-0.25-3.92,0.64-5.78c0.81-1.7,1.81-3.28,2.8-4.87C92.03,131.6,92.81,130.48,93.3,129.21z"/>
								<path class="st10" d="M213.35,206.88c-0.72-0.55-1.52-0.96-2.33-1.34c-2.08-0.96-3.9-2.26-5.45-3.95
									c-2.61-2.84-4.74-6.04-6.62-9.39c-5.73-10.16-9.24-21.09-11.07-32.58c-0.14-0.88,0.07-1.52,0.66-2.19
									c3.36-3.84,5.05-8.35,5.02-13.45c-0.02-2.73-0.54-5.41-1.37-8.01c-1.29-4.04-3.08-7.85-5.25-11.48
									c-0.16-0.27-0.49-0.58-0.34-0.88c0.58-1.14,0.22-2.31,0.13-3.45c-0.22-2.67-0.71-5.29-1.82-7.74
									c-1.13-2.49-2.64-4.7-5.3-5.71c-1.07-0.41-1.46-0.85-1.6-2.06c-0.48-4.14-0.25-8.27-0.04-12.39
									c0.3-5.72-0.07-11.31-2.41-16.63c-0.17-0.38-0.17-0.7,0.04-1.08c0.55-0.98,0.83-2.06,1.18-3.12
									c0.18-0.55,0.19-1.08-0.08-1.58c-0.22-0.41-0.15-0.75,0.02-1.15c1.73-4.11,3.46-8.23,5.15-12.36
									c0.27-0.66,0.64-0.98,1.34-1.09c1.33-0.21,2.29-0.98,2.86-2.19c0.81-1.72,0.25-3.65-1.35-4.86
									c-1.38-1.04-3.4-0.98-4.78,0.14c-1.48,1.21-1.85,3.1-0.97,4.85c0.13,0.26,0.34,0.5,0.11,0.82
									c-1.29,1.75-2.75,3.33-4.85,4.11c-1.33,0.49-2.22,0.07-2.76-1.24c-0.42-1.02-0.53-2.11-0.58-3.19
									c-0.09-1.69,0.13-3.37,0.14-5.06c0-0.73,0.23-1.03,0.93-1.23c2.08-0.6,3.18-2.68,2.59-4.76c-0.47-1.67-1.8-2.75-3.63-2.94
									c-1.42-0.15-3.06,0.79-3.76,2.14c-0.79,1.54-0.59,3.2,0.65,4.53c0.4,0.43,0.36,0.66,0.05,1.08
									c-1.27,1.75-2.75,3.31-4.35,4.75c-0.9,0.8-1.91,1.45-3.05,1.86c-2.03,0.72-3.83,0.17-5.13-1.56
									c-0.54-0.73-0.95-1.52-1.29-2.36c-0.77-1.93-1.18-3.96-1.71-5.95c-0.21-0.77-0.12-1.16,0.69-1.53
									c1.81-0.83,2.55-2.91,1.85-4.77c-0.79-2.09-2.72-3.19-4.7-2.7c-1.54,0.39-2.53,1.37-2.98,2.85
									c-0.48,1.53-0.11,2.91,1.05,4.03c0.37,0.35,0.45,0.63,0.23,1.12c-0.69,1.51-1.38,3.03-2.25,4.44
									c-1.09,1.76-2.13,3.55-3.83,4.83c-1.41,1.07-2.66,1.05-3.98-0.1c-2.1-1.83-3.23-4.26-4.14-6.83
									c-0.26-0.75-0.26-1.22,0.44-1.79c1.46-1.2,1.78-2.94,1.03-4.57c-0.74-1.59-2.51-2.56-4.22-2.31
									c-1.71,0.25-3.18,1.61-3.49,3.24c-0.34,1.78,0.49,3.62,2.07,4.4c0.55,0.27,0.74,0.6,0.73,1.2c-0.09,4.6-0.15,9.2-0.22,13.8
									c0,0.24,0.07,0.52-0.15,0.7c-1.15,0.92-1.14,2.22-1.16,3.5c-0.02,1.72-0.2,3.36-1.87,4.37c-0.2,0.12-0.36,0.33-0.52,0.52
									c-3.52,4.01-4.9,8.71-4.36,13.98c0.07,0.66-0.09,0.99-0.68,1.26c-1.98,0.9-3.98,1.76-6,2.56c-2.53,1.01-5.04,2.06-7.37,3.49
									c-1.43,0.88-2.58,2-3.11,3.65c-0.32,1,0.12,1.62,1.17,1.59c0.78-0.02,1.56-0.2,2.35-0.24c0.93-0.04,1.83-0.44,2.8-0.02
									c3.86,1.64,7.77,3.13,11.93,3.83c0.5,0.08,0.59,0.31,0.62,0.75c0.09,1.37-0.24,2.63-0.77,3.88
									c-0.95,2.21-2.43,4.06-3.89,5.92c-3.48,4.44-6.91,8.91-9.5,13.94c-0.6,1.17-1.44,1.82-2.6,2.27
									c-3.75,1.46-7.61,1.98-11.6,1.59c-0.4-0.04-0.55-0.25-0.68-0.58c-0.53-1.27-1.42-2.22-2.74-2.63
									c-0.66-0.21-0.89-0.54-0.98-1.19c-0.42-3.12-0.88-6.24-1.34-9.36c-0.7-4.78-1.41-9.57-2.12-14.35
									c-0.03-0.21-0.08-0.39,0.07-0.61c0.63-0.93,1.09-1.99,0.75-3.12c-0.35-1.13-1.11-1.74-2.28-1.89
									c-0.63-0.08-1.26-0.03-1.89,0.02c-0.82,0.06-1.65,0.13-2.44,0.36c-0.79,0.23-1.55,0.64-2.06,1.28
									c-1.07,1.35-0.51,3.32,0.88,4.19c0.27,0.17,0.33,0.39,0.37,0.67c0.65,3.72,1.13,7.46,1.68,11.2
									c0.66,4.54,1.36,9.08,2.08,13.61c0.11,0.69-0.08,1.05-0.64,1.45c-2.74,1.95-4.17,4.63-4.1,8c0.08,3.76,1.71,6.93,4.07,9.75
									c0.87,1.04,1.81,2.09,3.18,2.45c0.66,0.17,0.8,0.56,0.88,1.09c0.39,2.74,0.76,5.49,1.15,8.23
									c0.88,6.08,1.77,12.15,2.67,18.22c0.95,6.4,1.93,12.79,2.88,19.18c0.87,5.83,1.73,11.66,2.58,17.5
									c0.15,1.02,0.26,1.95-0.41,3c-1.21,1.89,0.24,4.16,2.49,4.16c1.45,0.01,2.86-0.32,4.27-0.61c1.18-0.24,1.92-0.95,2.11-2.1
									c0.21-1.2-0.11-2.32-1.19-3.01c-0.49-0.32-0.64-0.71-0.71-1.19c-0.88-5.91-1.77-11.82-2.62-17.74
									c-1.01-6.99-1.99-13.98-3-20.97c-0.98-6.8-1.99-13.6-3-20.4c-0.08-0.51,0.06-0.58,0.5-0.45c1.22,0.36,2.45,0.73,3.68,1.05
									c0.46,0.12,0.53,0.32,0.47,0.75c-0.36,2.37-0.61,4.75-0.7,7.14c-0.17,4.6-0.15,9.19,0.42,13.77
									c0.66,5.27,1.9,10.36,3.92,15.28c0.77,1.89,1.8,3.65,2.52,5.57c2.31,6.23,5.79,11.57,11.73,14.97
									c0.21,0.12,0.4,0.25,0.47,0.52c0.41,1.6,0.05,2.38-1.49,2.96c-3.41,1.28-6.95,2.18-10.34,3.55
									c-3.41,1.38-6.72,2.96-9.8,5.01c-0.48,0.32-0.88,0.71-0.7,1.34c0.18,0.65,0.75,0.6,1.27,0.61c1.28,0.03,2.56,0.1,3.81,0.35
									c1.97,0.39,3.52,1.7,2.57,4.19c-0.2,0.51-0.26,1.02,0.21,1.43c0.47,0.41,0.97,0.24,1.45,0.01c1.25-0.6,2.54-1.11,3.89-1.44
									c3.35-0.8,6.43-0.61,8.88,2.23c0.51,0.59,1,0.54,1.69-0.11c1.73-1.64,3.67-2.98,5.66-4.28c1.48-0.96,2.92-1.99,4.32-3.08
									c2.01-1.56,3.06-3.54,2.92-6.14c-0.06-1.09-0.15-2.17-0.31-3.24c-0.08-0.53-0.01-0.93,0.68-0.88
									c0.18,0.01,0.37-0.09,0.56-0.09c0.97-0.01,1.91-0.52,2.89-0.23c2.79,0.83,5.64,1.14,8.55,0.98c0.72-0.04,1.3,0.13,1.87,0.59
									c0.71,0.58,1.53,1.04,2.38,1.41c1.43,0.62,1.52,0.98,0.67,2.35c-0.26,0.42-0.6,0.78-1,1.06c-1,0.71-2.07,1.31-3.16,1.86
									c-3.38,1.7-6.78,3.37-9.78,5.71c-0.85,0.67-1.73,1.34-2.33,2.27c-0.24,0.37-0.42,0.77-0.15,1.22c0.24,0.41,0.62,0.4,1,0.37
									c1.04-0.08,2.07,0.04,3.09,0.19c3.1,0.47,3.48,1.58,3,3.89c-0.1,0.49-0.02,0.93,0.38,1.26c0.4,0.33,0.82,0.18,1.23-0.01
									c1.61-0.73,3.23-1.43,4.97-1.82c3.94-0.9,7.51-0.45,10.43,2.66c0.61,0.65,1.27,0.56,1.94-0.24c2.41-2.9,4.56-5.97,6.08-9.44
									c0.89-2.04,1.39-4.16,1.34-6.41c-0.04-1.6-0.33-3.13-0.77-4.65c-0.16-0.55-0.01-0.69,0.52-0.61
									c1.26,0.2,2.53,0.34,3.79,0.56c3.44,0.6,6.91,0.88,10.39,0.69c0.77-0.04,1.43,0.1,2.12,0.37c2.79,1.09,5.69,1.67,8.67,1.77
									c2.61,0.08,5.22,0.1,7.82-0.29c3.33-0.5,6.56-1.33,9.55-2.91c1.79-0.94,3.47-2.06,4.62-3.8
									C215.33,209.74,215.03,208.15,213.35,206.88z M182.5,49.75c0.88,0.01,1.64,0.82,1.63,1.72c-0.02,0.95-0.7,1.58-1.72,1.57
									c-0.92-0.01-1.56-0.63-1.56-1.51C180.84,50.54,181.6,49.74,182.5,49.75z M191.3,141.54c0.85,5.35-0.7,10.07-4.07,14.3
									c-3.54,4.45-8.37,6.85-13.48,8.83c-2.05,0.79-4.15,1.48-6.21,2.26c-3.31,1.27-5.55,3.55-6.47,7.03
									c-0.19,0.73-0.42,1.47-0.83,2.12c-0.62,0.99-1.54,1.27-2.61,0.78c-1.05-0.49-1.78-1.34-2.44-2.25
									c-3.31-4.58-3.39-9.43-1.07-14.43c0.99-2.14,2.41-4,4.04-5.7c1.79-1.87,3.6-3.72,5.31-5.65c2.1-2.38,2.98-5.16,2.58-8.38
									c-0.32-2.63-1.27-4.99-2.55-7.26c-0.27-0.47-0.58-0.93-1.22-0.61c-0.65,0.32-0.54,0.87-0.3,1.4
									c0.73,1.67,1.59,3.28,1.99,5.08c0.76,3.45,0.15,6.51-2.39,9.12c-2.22,2.28-4.37,4.63-6.54,6.97
									c-0.38,0.41-0.71,0.88-1.21,1.53c-0.44-2.39-0.88-4.54-1.23-6.71c-0.83-5.09-1.64-10.19-2.41-15.29
									c-0.25-1.64-0.35-3.3-0.56-4.94c-0.05-0.44,0.06-0.65,0.5-0.72c3.91-0.64,7.48-2.28,11.09-3.77
									c4.2-1.73,8.53-2.96,13.04-3.44c2.48-0.26,4.99-0.39,7.46,0.26c0.9,0.23,1.59,0.66,2.09,1.43
									C187.38,129.07,190.25,134.95,191.3,141.54z M178.22,108.43c2.2,0.72,3.47,2.38,4.46,4.3c1.04,2,1.54,4.18,1.79,6.41
									c0.07,0.61,0.3,1.22,0.1,1.91c-2.57-1.4-5.24-1.5-8-1.4c-6.79,0.25-13.03,2.51-19.21,5.06c-2.64,1.09-5.3,2.13-8.18,2.43
									c-0.59,0.06-1.14,0.03-1.69-0.12c-1.5-0.39-2.08-1.88-1.3-3.32c0.51-0.96,1.33-1.67,2.14-2.34
									c6.63-5.46,13.82-9.95,22.04-12.61C172.93,107.93,175.56,107.55,178.22,108.43z M170.6,42.01c0.98-0.03,1.79,0.73,1.79,1.69
									c0.01,0.85-0.82,1.64-1.69,1.63c-0.96-0.01-1.65-0.68-1.67-1.62C169.01,42.73,169.65,42.04,170.6,42.01z M151.15,37.46
									c0.8-0.03,1.61,0.87,1.63,1.82c0.02,0.83-0.78,1.61-1.69,1.65c-0.89,0.03-1.74-0.71-1.77-1.54
									C149.28,38.43,150.17,37.5,151.15,37.46z M135.67,52.82c1.37,1.61,2.96,2.86,5.25,2.58c1.87-0.23,3.23-1.37,4.41-2.73
									c1.85-2.13,3.22-4.58,4.43-7.12c0.11-0.24,0.16-0.52,0.45-0.75c0.32,1.26,0.62,2.49,0.96,3.7c0.48,1.68,1.05,3.32,2.02,4.79
									c2.18,3.3,5.57,4.16,9.09,2.35c2.23-1.15,3.91-2.92,5.56-4.74c0.29-0.32,0.55-0.66,0.97-1.16c-0.07,1.8-0.16,3.35-0.03,4.9
									c0.09,1.07,0.24,2.11,0.65,3.1c0.96,2.32,2.98,3.26,5.38,2.51c1.19-0.37,2.22-1.03,3.12-1.88c0.39-0.37,0.74-0.79,1.25-1.09
									c-0.47,1.12-0.94,2.23-1.4,3.35c-0.86,2.06-1.73,4.11-2.57,6.18c-0.18,0.43-0.31,0.65-0.79,0.3
									c-6.36-4.66-13.69-6.72-21.32-8.04c-3.55-0.61-7.12-0.87-10.71-0.87c-2.96,0-5.92,0.18-8.83,0.82
									c-0.7,0.16-0.95,0.07-0.94-0.73c0.02-3.35,0.3-6.69,0.21-10.06C133.67,49.82,134.5,51.44,135.67,52.82z M174.47,71.86
									c-0.54,1.46-0.53,1.45-1.78,0.55c-3.51-2.51-7.45-4.14-11.53-5.45c-4.13-1.32-8.36-2.18-12.66-2.63
									c-5.52-0.57-11.01-0.51-16.42,0.95c-0.6,0.16-0.8,0.01-0.74-0.6c0.07-0.73,0.12-1.46,0.18-2.19
									c0.05-0.51,0.41-0.72,0.83-0.91c1.31-0.59,2.72-0.77,4.12-0.9c2.16-0.2,4.33-0.4,6.51-0.37c9.1,0.2,17.87,1.88,26.09,5.93
									c1.69,0.83,3.3,1.8,4.73,3.03C174.94,70.26,174.98,70.47,174.47,71.86z M130.31,40.91c0.01-0.95,0.76-1.68,1.72-1.67
									c0.88,0.01,1.64,0.78,1.65,1.67c0.01,0.89-0.8,1.64-1.75,1.65C131,42.56,130.3,41.86,130.31,40.91z M127.76,80.57
									c0.44-1.51,0.9-3.03,1.05-4.6c0.16-1.7,0.09-3.38-0.9-4.86c-0.28-0.42,0.05-0.58,0.23-0.82c1.65-2.15,3.95-2.99,6.53-3.43
									c4.57-0.79,9.14-0.83,13.73-0.32c6.95,0.77,13.62,2.5,19.87,5.7c1.48,0.76,2.9,1.62,4.17,2.7c0.56,0.47,0.95,1.03,1.25,1.69
									c1.37,3.07,1.97,6.32,2.14,9.66c0.23,4.3-0.13,8.59-0.25,12.89c-0.05,1.96,0.09,3.91,0.36,5.86
									c0.06,0.46,0.08,0.8-0.55,0.81c-3.46,0.07-6.7,1.07-9.84,2.42c-6.29,2.69-12.06,6.28-17.39,10.55
									c-0.39,0.31-0.77,0.63-1.15,0.96c-2.12-3.68-1.01-8.17,1.45-11.47c2.77-3.71,6.97-5.74,10.23-8.92
									c4.82-4.7,6.52-11.87,4.8-18.26c-0.61-2.47-1.73-4.81-3.46-6.99c-2.35-2.95-5.41-4.61-9.16-5.1
									c-2.59-0.34-5.1-0.05-7.57,0.7c-4,1.2-6.56,3.91-8.01,7.76c-0.77,2.03-1.11,4.14-1.33,6.4c-0.74-0.52-1.37-0.98-2.02-1.41
									c-1.11-0.74-2.31-1.23-3.67-1.15C127.62,81.34,127.61,81.06,127.76,80.57z M125.58,74.48c0.18-0.57,0.43-1.12,0.74-1.63
									c0.13-0.21,0.3-0.42,0.59-0.35c0.25,0.06,0.3,0.31,0.34,0.52c0.19,0.93,0.31,1.87,0.16,2.98c-0.53-0.56-0.96-1.01-1.64-1.08
									C125.5,74.88,125.51,74.68,125.58,74.48z M126.02,76.21c1.29,0,1.29,2,0,2C124.73,78.21,124.73,76.21,126.02,76.21z
									 M108.29,93.04c1.07-1.13,2.18-1.81,3.36-2.36c4.87-2.29,9.83-4.4,14.57-6.95c2.14-1.15,3.95-0.66,5.67,0.84
									c1.74,1.52,3.32,3.22,5.32,4.43c0.51,0.31,0.13,0.46-0.12,0.61c-2.23,1.37-4.64,2.25-7.23,2.62
									c-3.95,0.57-7.93,0.32-11.89,0.33C114.81,92.57,111.64,92.67,108.29,93.04z M116.75,94.78c-0.65-0.26-1.29-0.55-1.94-0.83
									l0.05-0.15c2.75,0.09,5.49,0.21,8.24,0.27c4.27,0.08,8.48-0.24,12.46-1.99c1.05-0.46,2.05-1.01,2.95-1.73
									c0.46-0.37,0.69-0.2,0.74,0.33c0.06,0.6-0.18,1.12-0.53,1.59c-1.78,2.35-4.23,3.61-7.05,4.23
									C126.49,97.64,121.56,96.69,116.75,94.78z M82.73,97.63c-0.76,0.06-1.08-0.45-1.16-1.1c-0.08-0.65,0.44-0.81,0.94-0.89
									c1.12-0.19,2.25-0.35,3.37-0.53c0.53,0,0.93,0.17,1.05,0.72c0.12,0.58-0.07,1.03-0.68,1.2
									C85.1,97.35,83.92,97.54,82.73,97.63z M85.11,111.12c-0.56-3.7-1.13-7.4-1.74-11.1c-0.09-0.57,0.03-0.82,0.59-0.89
									c0.48-0.06,0.96-0.15,1.45-0.22c0.51-0.08,0.66,0.24,0.72,0.67c0.48,3.19,0.99,6.38,1.46,9.58
									c0.67,4.59,1.31,9.19,1.97,13.78c0.02,0.13,0.02,0.27,0.03,0.41c0,0.16,0.09,0.37-0.1,0.44c-0.71,0.26-1.43,0.51-2.16,0.71
									c-0.26,0.07-0.23-0.24-0.25-0.41C86.41,119.76,85.77,115.44,85.11,111.12z M88.51,137.63c-0.89,1.86-1.18,3.77-0.64,5.78
									c0.06,0.23,0.06,0.48,0.1,0.84c-0.98-0.4-1.54-1.08-2.07-1.75c-2.11-2.63-3.58-5.51-3.45-9c0.09-2.28,1-4.16,2.87-5.5
									c1.66-1.2,3.42-2.26,5.56-2.3c1.96-0.04,3.14,1.68,2.43,3.51c-0.5,1.27-1.27,2.4-1.99,3.55
									C90.33,134.35,89.33,135.94,88.51,137.63z M104.41,214.38c0.11,0.49-0.07,0.85-0.59,0.99c-1.15,0.32-2.35,0.4-3.45,0.58
									c-0.72,0.01-1.24-0.23-1.33-0.9c-0.09-0.7,0.45-0.85,1.04-0.98c1.12-0.24,2.26-0.24,3.38-0.41
									C103.97,213.59,104.3,213.91,104.41,214.38z M98.08,180.35c1.19,8.17,2.4,16.34,3.59,24.51c0.31,2.1,0.61,4.19,0.93,6.28
									c0.11,0.7-0.16,1.01-0.86,1.06c-1.71,0.13-1.71,0.09-1.95-1.6c-0.59-4.11-1.22-8.22-1.84-12.33
									c-0.71-4.75-1.49-9.5-2.11-14.26c-0.52-4.04-1.21-8.06-1.8-12.09c-0.49-3.36-0.94-6.72-1.43-10.08
									c-0.56-3.82-1.14-7.63-1.71-11.44c-0.41-2.71-0.78-5.43-1.22-8.14c-0.37-2.27,0.75-4.03,1.93-6
									c1.08,7.62,2.18,15.01,3.31,22.39C96.03,165.89,97.03,173.12,98.08,180.35z M99.79,150.14c-1.25-0.38-2.48-0.8-3.74-1.17
									c-0.54-0.16-0.76-0.44-0.84-1.02c-0.53-3.96-1.12-7.91-1.69-11.86c-0.07-0.51-0.16-1.02-0.24-1.53
									c-0.09-0.59,0-1.12,0.35-1.62c0.72-1.06,1.38-2.16,1.72-3.41c0.14-0.5,0.45-0.44,0.81-0.42c3.05,0.12,6.09,0.03,9.06-0.8
									c0.81-0.23,1.61-0.49,2.59-0.79c-0.95,2.14-1.84,4.15-2.63,6.2c-1.95,5.07-3.19,10.33-4.18,15.65
									C100.82,150.44,100.83,150.46,99.79,150.14z M105.72,188.08c-1.96-4.84-3.11-9.89-3.65-15.09
									c-0.49-4.73-0.49-9.45-0.15-14.17c0.66-9.01,2.53-17.74,5.91-26.14c2.29-5.71,5.52-10.97,9-16.01
									c1.78-2.59,3.64-5.13,5.47-7.69c1.76-2.45,3.44-4.87,3.9-7.93c0.02-0.11,0.04-0.21,0.06-0.32c0.11-0.58-0.26-1.37,0.2-1.71
									c0.54-0.4,1.36-0.22,2.06-0.28c2.65-0.2,5.23-0.69,7.58-2.01c1.7-0.96,3.22-2.14,4.23-3.86c0.39-0.66,0.65-1.36,0.68-2.15
									c0.04-1.02-0.34-1.79-1.18-2.36c-1.12-0.76-2.35-1.36-3.41-2.24c-0.59-0.49-0.88-1.01-0.88-1.8c0-2.44,0.52-4.75,1.49-6.97
									c1.63-3.72,4.61-5.66,8.49-6.39c1.01-0.19,2.03-0.39,3.02-0.34c5.87-0.01,9.91,2.84,12.21,8.01
									c0.03,0.07,0.05,0.14,0.08,0.2c-0.06,0.22-0.07,0.45,0.04,0.7c1.59,3.65,1.69,7.83,0.52,11.61
									c-2.68,8.66-12.63,10.89-16.3,18.86c-1.63,3.54-1.74,7.82,0.44,11.15c-0.26,0.3-0.51,0.61-0.74,0.94
									c-1.3,1.88-1.31,3.98-0.02,5.52c0.6,0.72,1.37,1.16,2.27,1.36c0.59,0.13,0.78,0.47,0.84,1.02
									c0.66,6.05,1.65,12.05,2.71,18.05c0.59,3.34,1.23,6.68,1.98,9.99c0.1,0.44-0.06,0.79-0.23,1.17
									c-1.23,2.56-1.97,5.24-1.84,8.11c0.18,4.01,1.69,7.44,4.59,10.23c0.29,0.28,0.62,0.57,0.99,0.71
									c0.88,0.35,1.25,0.98,1.48,1.86c0.27,1.05,0.69,2.06,1.12,3.06c0.25,0.59,0.27,1.13,0.12,1.73
									c-2.42,9.61-10.63,18.53-21.76,20.04c-8.16,1.11-15.82-0.37-22.66-5.16C110.2,196.86,107.59,192.72,105.72,188.08z
									 M131.18,218.05c-0.16,1.61-1.16,2.65-2.31,3.6c-2.15,1.76-4.56,3.16-6.79,4.81c-0.79,0.58-1.56,1.18-2.27,1.87
									c-0.22,0.21-0.37,0.32-0.66,0.05c-3.08-2.87-6.69-2.86-10.47-1.88c-0.39,0.1-0.77,0.24-1.28,0.4
									c1.2-1.61,2.61-2.79,4.16-3.8c2.03-1.32,4.1-2.58,6.15-3.86c0.16-0.1,0.33-0.2,0.48-0.31c0.14-0.1,0.24-0.24,0.16-0.42
									c-0.09-0.22-0.28-0.24-0.48-0.19c-0.16,0.04-0.31,0.1-0.46,0.16c-3.89,1.67-7.68,3.5-10.62,6.68
									c-0.16,0.17-0.37,0.62-0.65,0.09c-1.09-2.1-2.96-2.93-5.17-3.23c-0.05-0.01-0.09-0.04-0.21-0.1
									c1.56-0.97,3.19-1.68,4.81-2.41c3.71-1.66,7.6-2.78,11.44-4.08c0.67-0.23,1.32-0.51,1.97-0.79
									c1.21-0.52,1.79-1.47,1.74-2.77c-0.02-0.66,0.09-0.88,0.81-0.61c2.82,1.05,5.71,1.73,8.75,1.72c0.28,0,0.57-0.01,0.62,0.37
									C131.11,214.9,131.34,216.46,131.18,218.05z M163.59,227.74c-1.19,2.21-2.61,4.27-4.09,6.29c-0.34,0.46-0.55,0.48-1,0.08
									c-1.91-1.66-4.16-2.53-6.7-2.62c-2.67-0.09-5.25,0.31-7.7,1.43c-0.07,0.03-0.15,0.02-0.3,0.03c0.54-1.1,1.27-2,2.01-2.9
									c1.49-1.8,2.91-3.67,4.68-5.22c0.21-0.18,0.58-0.41,0.34-0.72c-0.27-0.34-0.59-0.05-0.85,0.14
									c-2.37,1.64-4.41,3.63-6.21,5.86c-0.19,0.23-0.4,0.45-0.57,0.69c-0.24,0.35-0.39,0.26-0.58-0.05
									c-0.83-1.38-2.15-1.93-3.65-2.18c-0.53-0.09-1.08-0.14-1.71-0.22c0.29-0.38,0.64-0.61,0.98-0.83
									c2.86-1.9,5.86-3.54,8.93-5.08c1.46-0.73,2.9-1.49,4.08-2.66c0.69-0.69,1.2-1.48,1.38-2.45c0.1-0.55,0.29-0.75,0.92-0.62
									c3.56,0.76,7.08,0.58,10.52-0.61c0.52-0.18,0.69-0.01,0.86,0.48C166.24,220.52,165.49,224.2,163.59,227.74z M160.72,214.92
									c-4.37,0.75-8.57,0.12-12.31-2.47c-0.81-0.56-1.56-1.18-2.16-1.98c-0.19-0.25-0.33-0.62-0.74-0.49
									c-0.42,0.13-0.62,0.5-0.55,0.9c0.12,0.66-0.22,0.66-0.72,0.68c-2.93,0.16-5.71-0.64-8.52-1.23c-0.8-0.17-1.6-0.3-2.43-0.25
									c-0.56,0.03-0.66,0.28-0.35,0.79c-8.68,0.93-17.91-3.04-22.86-12.73c1.1,1.1,2.27,2.12,3.54,3.03
									c4.15,2.93,8.75,4.63,13.79,5.3c4.7,0.62,9.34,0.38,13.89-0.93c5.92-1.72,10.47-5.39,14.15-10.26
									c2.03-2.68,3.5-5.61,4.36-9.05c0.79,1.73,1.49,3.28,2.21,4.82c2.58,5.48,5.5,10.76,9.01,15.7c0.48,0.68,0.45,1.15,0.01,1.8
									C168.55,212.21,164.97,214.2,160.72,214.92z M169.06,213.47c1.47-1.18,2.68-2.49,3.6-4.04c0.25-0.42,0.44-0.14,0.61,0.06
									c1.66,1.85,3.51,3.49,5.75,5.01C175.57,214.51,172.38,213.93,169.06,213.47z M212.69,210.12c-0.71,1.25-1.8,2.1-2.99,2.84
									c-3.04,1.87-6.41,2.8-9.9,3.34c-2.6,0.4-5.21,0.46-7.81,0.3c-6.08-0.39-11.49-2.46-15.94-6.77
									c-3.87-3.74-6.63-8.27-9.24-12.9c-3.07-5.44-5.42-11.21-7.71-17.01c-0.24-0.62-0.15-0.82,0.52-0.98
									c1.15-0.28,1.88-1.15,2.42-2.16c0.38-0.7,0.6-1.46,0.8-2.22c0.7-2.74,2.4-4.56,4.98-5.65c2.68-1.14,5.52-1.86,8.19-3.02
									c3.4-1.48,6.73-3.09,9.6-5.49c0.05-0.05,0.14-0.05,0.27-0.09c0.5,2.85,1.04,5.67,1.69,8.47
									c2.25,9.62,5.92,18.67,11.08,27.08c2.02,3.29,4.3,6.43,7.31,8.94c1.39,1.16,2.98,2,4.61,2.77c0.64,0.3,1.27,0.62,1.83,1.06
									C212.92,209.02,213.04,209.51,212.69,210.12z"/>
								<path class="st11" d="M199.89,208.43c-0.21-0.05-0.42-0.11-0.63-0.16c-2.07-0.49-4.07-1.19-5.96-2.18
									c-5.17-2.73-9.17-6.78-12.54-11.47c-3.6-5.01-5.99-10.66-8.06-16.44c-0.1-0.28-0.22-0.56-0.34-0.83
									c-0.07-0.16-0.2-0.26-0.39-0.21c-0.2,0.06-0.23,0.24-0.2,0.4c0.05,0.32,0.12,0.64,0.21,0.95
									c2.26,7.26,5.39,14.05,10.27,19.97c3.56,4.32,7.81,7.62,13.08,9.56c1.43,0.52,2.89,0.94,4.3,1.19
									c0.52,0,0.74-0.12,0.75-0.34C200.39,208.53,200.13,208.49,199.89,208.43z"/>
								<path class="st11" d="M143.51,83.44c0.91,1.27,2.59,1.21,3.8,0.4c1.13-0.76,1.86-1.99,2.14-3.31
									c0.27-1.26,0.19-2.67-0.48-3.8c-0.72-1.21-2.12-1.72-3.46-1.23c-1.57,0.58-2.42,2.19-2.74,3.75
									c-0.25,1.21-0.15,2.52,0.42,3.6C143.28,83.06,143.38,83.26,143.51,83.44z M147.24,77.33c1.29,0,1.29,2,0,2
									C145.95,79.33,145.96,77.33,147.24,77.33z"/>
								<path class="st11" d="M147.24,79.33c1.29,0,1.29-2,0-2C145.96,77.33,145.95,79.33,147.24,79.33z"/>
								<path class="st11" d="M126.02,78.21c1.29,0,1.29-2,0-2C124.73,76.21,124.73,78.21,126.02,78.21z"/>
							</g>
							<path class="st3" d="M164.13,122.3c-0.9,0.49-1.66,1.14-2.27,1.91c-0.21-0.05-0.44-0.03-0.68,0.11
								c-2.89,1.73-6.01,2.97-9.31,3.64c-1.25,0.25-2.78,0.25-2.85,1.87c-0.07,1.59,0.39,3.33,0.61,4.9c1,7.22,2.35,14.39,3.7,21.56
								c0.18,0.93,1.37,0.86,1.83,0.24c3.35-4.58,10.23-7.9,9.5-14.52c-0.37-3.38-2.13-6.46-2.63-9.83
								c-0.46-3.07,0.18-6.56,3.12-8.16C166.27,123.41,165.26,121.68,164.13,122.3z"/>
							<path class="st7" d="M140.18,90.61c-0.12-0.33-0.36-0.52-0.63-0.61c-0.28-0.37-0.8-0.51-1.28-0.27
								c-0.06,0.03-0.12,0.05-0.18,0.08c0.72-0.73,0.01-2.05-0.87-1.73c-0.08-0.53-0.4-1.01-1.06-1.35c-0.72-0.36-1.43,0.1-1.5,0.86
								c-0.25,2.54-3.38,2.98-5.38,3.09c-2.47,0.14-4.94,0.15-7.41,0.22c-4.81,0.12-9.62,0.35-14.34,1.29
								c-1.26,0.25-0.73,2.18,0.53,1.93c1.81-0.36,3.63-0.6,5.46-0.77c-0.35,0.58-0.09,1.54,0.8,1.57
								c7.86,0.24,15.99,0.35,23.33-2.71c-0.07,0.31-0.17,0.62-0.31,0.93c-0.3,0.64,0.1,1.23,0.61,1.43
								c-0.73,1.25-2.06,2.25-3.41,2.79c-2.69,1.08-6.19,1.61-8.87,0.26c-1.15-0.58-2.16,1.15-1.01,1.73
								c3.39,1.71,7.68,1.17,11.06-0.33C138.83,97.63,141.51,94.17,140.18,90.61z M118.33,93.02c2.29-0.1,4.59-0.14,6.89-0.2
								c0.38-0.01,0.78-0.02,1.2-0.02C123.73,93.03,121.02,93.06,118.33,93.02z"/>
							<path class="st7" d="M200.09,206.95c-2.18-0.84-4.27-1.91-6.26-3.14c-1.03-0.77-2.02-1.61-2.96-2.5
								c-2.79-2.65-5.36-5.59-7.76-8.59c-1.42-1.77-2.75-3.64-3.93-5.6c-2.03-4.57-3.14-9.52-3.28-14.53c1.63-1.12,3.33-2.14,5-3.17
								c3.2-1.97,6.96-4.6,5.87-8.94c-0.28-1.1-1.46-1.3-2.3-0.79c0.34-0.29,0.68-0.57,1.01-0.89c2.77-2.75,4.62-6.2,5.53-9.88
								c0.6-1.34,0.75-2.74,0.63-4.15c0.19-3.26-0.32-6.57-1.54-9.66c-0.64-1.6-1.43-3.11-2.34-4.53c-0.01-0.02-0.01-0.03-0.02-0.05
								c-0.53-1.61-1.05-3.24-1.66-4.83c-0.49-1.26-1.13-2.43-2.3-3.15l0.02-0.22c0.03-0.37-0.19-0.81-0.44-1.06
								c-0.09-0.09-0.2-0.16-0.31-0.23c0.4,0.11,0.79,0.23,1.18,0.37c1.11,0.4,2.13-0.81,1.85-1.85c-1.03-3.8-2.86-8.1-5.95-10.69
								c-1.44-1.21-3.13-1.95-5.03-1.89c-2.16,0.07-4.38,0.63-6.51,0.97c-0.41,0.07-0.69,0.32-0.86,0.64
								c-0.25-0.04-0.5-0.07-0.75-0.1c1.67-0.68,3.38-1.24,5.15-1.65c0.84-0.19,1.79-0.24,2.53-0.69c0.94-0.57,1.11-1.56,1.23-2.57
								c0.29-2.41,0.54-4.82,0.7-7.24c0.28-4.17,0.22-8.4-0.65-12.5c0.83-0.08,1.62-0.79,1.35-1.85c-0.01-0.05-0.03-0.11-0.05-0.16
								c0.01-0.1,0.02-0.19,0-0.3c-0.24-1.23-0.64-2.36-1.17-3.4c-0.52-1.39-1.11-2.75-1.79-4.08c0.17-0.07,0.32-0.2,0.44-0.39
								c0.68-1.15,1.02-2.48,0.94-3.82c-0.03-0.54-0.44-1-1-1c-0.13,0-0.25,0.03-0.37,0.08c-0.24-0.37-0.65-0.48-1.02-0.38
								c-0.04-0.09-0.08-0.18-0.13-0.26c-0.26-0.46-0.92-0.58-1.38-0.36c-0.06-0.27-0.11-0.54-0.2-0.81c-0.21-0.68-0.9-0.85-1.4-0.6
								c-0.17-0.73-0.53-1.38-1.28-1.64c-0.61-0.22-1.27,0.35-1.27,0.96c0.02,1.54-0.76,3.03-2.11,3.85
								c-0.88-0.36-1.77-0.69-2.64-0.99c-7.34-2.49-15.16-4.56-22.97-3.96c-4.12,0.32-8.13,1.36-11.77,3.33
								c-1.13,0.61-0.13,2.34,1.01,1.73c8.13-4.38,17.67-3.54,26.29-1.26c3.39,0.9,7.47,1.96,11.07,3.68
								c0.03,0.13,0.08,0.26,0.16,0.39c3.87,6.77,4.92,14.91,2.16,22.29c-1.27,3.4-3.38,6.47-6.07,8.91
								c-2.5,2.27-5.42,4.01-8.19,5.92c-3.16,2.17-6.15,4.56-8.29,7.79c-0.97,1.47,1.09,2.84,2.27,1.86
								c0.39,0.18,0.85,0.18,1.27-0.14c2.97-2.24,6.01-4.53,9.19-6.55c4.62-1.9,10.45-2.09,13.93,2.03
								c0.71,0.85,1.24,1.85,1.51,2.92c0.28,1.13,0.37,2.17,1.54,2.74c1.11,0.54,2.5,0.13,3.68,0.15c0.87,0.01,1.72,0.13,2.56,0.31
								c-0.36,0.03-0.73,0.16-0.98,0.43l-0.23,0.3c-0.01,0.02-0.02,0.04-0.03,0.06c-0.62-0.1-1.24-0.18-1.83-0.26
								c-1.76-0.24-3.52-0.42-5.29-0.52c-1.45-0.09-2.1,2.16-0.76,2.8c7.55,3.6,12.36,11.84,11.87,20.19
								c-0.14,2.29-0.68,4.67-1.82,6.68c-1.17,2.06-3.02,3.42-5.08,4.52c-4.33,2.3-8.8,3.97-12.67,7.07
								c-4.27,3.43-7.37,8.22-7.89,13.74c-0.08,0.88,0.5,1.35,1.18,1.42c-0.11,0.21-0.2,0.42-0.29,0.63
								c-0.02-0.04-0.03-0.07-0.05-0.11c-0.73-1.38-2.73-0.66-2.8,0.76c-0.4,8.95-7.64,15.75-15.81,18.28
								c-8.68,2.68-18.95,2.18-26.02-4c-3.58-3.13-6.26-7.09-8.37-11.32c-0.86-1.73-3.45-0.21-2.59,1.51
								c0.63,1.26,1.32,2.49,2.07,3.7c-0.45,0.44-0.66,1.15-0.35,1.85c4.19,9.51,13.98,15.61,24.08,16.83
								c10.25,1.24,20.6-2.93,26.78-11.27c2.3-3.11,4.2-7.1,4.25-11.04c0.42,0.76,0.82,1.53,1.19,2.32c0,0,0,0,0,0
								c-0.79-0.03-1.6,0.48-1.57,1.46c0.19,6.17,3.23,12.18,2.34,18.38c-0.34,2.36-1.27,4.78-3.2,6.29
								c-2.26,1.77-5.44,1.75-7.83,0.29c-1.65-1.01-3.16,1.58-1.51,2.59c2.32,1.42,5.14,1.8,7.74,1.14
								c0.02,0.25,0.12,0.48,0.25,0.69c-1.15,0.05-2.3,0.13-3.44,0.08c-1.93-0.09-1.93,2.91,0,3c2.02,0.09,4.11-0.38,6.11-0.01
								c1.72,0.32,2.73,1.18,3.24,2.84c0.1,0.33,0.23,0.69,0.32,1.07c-0.14,0.7-0.33,1.38-0.58,2.05c-0.16,0.43-0.34,0.86-0.53,1.28
								c-0.2,0.29-0.4,0.57-0.58,0.84c-1.23,1.94-2.47,3.88-3.7,5.82c-0.44,0.68-0.14,1.65,0.54,2.05c0.76,0.45,1.57,0.12,2.05-0.54
								c1.54-2.1,3.05-4.25,4.18-6.57l0.19-0.29c0.69-1.09,1.43-2.13,1.52-3.46c0.03-0.42-0.01-0.84-0.08-1.27
								c0.04-0.28,0.11-0.54,0.13-0.83c0.22-2.14-0.05-4.64-1.16-6.53c-0.19-0.33-0.46-0.6-0.77-0.79c1.1-0.52,2.16-1.13,3.15-1.83
								c2.04-1.43,6.52-4.49,4.5-7.37c-1.56-2.22-3.15-4.34-4.56-6.63c1.1,0.14,2.32-0.99,1.55-2.2c-4.19-6.6-3.13-15.23,2.34-20.74
								c0.1-0.1,0.2-0.19,0.3-0.29c0.74,4.56,2.59,8.85,5.01,12.82c2.86,6.15,7.22,11.6,12.8,15.74c0.89,0.66,1.81,1.26,2.74,1.84
								c2.13,1.54,4.45,2.79,7.03,3.48C201.19,210.35,201.86,207.63,200.09,206.95z M171.61,72.3c0.09-0.09,0.16-0.2,0.24-0.3
								c-0.03,0.18-0.06,0.36-0.11,0.54c-0.07,0.24-0.04,0.46,0.06,0.65c-0.27-0.21-0.56-0.42-0.84-0.61
								C171.2,72.57,171.44,72.48,171.61,72.3z"/>
							<path class="st7" d="M178.73,57.04c-1.74,2.84-4.02,5.37-7.06,6.83c-5.32-2.84-11.05-4.92-16.98-6.07
								c-7.29-1.42-15.4-1.93-22.54,0.42c-1.22,0.4-0.7,2.33,0.53,1.93c6.93-2.28,14.85-1.77,21.91-0.34
								c5.87,1.19,11.5,3.27,16.74,6.14c0,0.03,0,0.05,0.01,0.08c0.13,0.49,0.72,0.88,1.23,0.7c0.03-0.01,0.06-0.02,0.09-0.04
								c0.61,0.35,1.21,0.71,1.81,1.08c0.94,0.59,1.81-0.61,1.34-1.39c0.65-0.77,1.13-1.7,1.59-2.6c0.27-0.46,0.52-0.93,0.76-1.41
								c0.01-0.02,0.01-0.04,0.02-0.07c0.77-1.42,1.53-2.84,2.28-4.27C181.06,56.92,179.41,55.94,178.73,57.04z"/>
							<path class="st7" d="M131.95,213.37c-0.45-1.66-2.07-1.42-3.39-1.25c-0.44,0.06-0.89,0.11-1.34,0.16
								c-0.77-0.32-1.57-0.51-2.4-0.65c-0.9-0.16-2.05-0.25-2.79-0.84c-0.63-0.5-1.5-0.62-2.12,0c-0.37,0.37-0.53,1.04-0.36,1.57
								c-0.17,0.58-0.03,1.26,0.63,1.68c1.46,0.95,3.17,1.32,4.9,1.34c0.52,0.01,1.04-0.02,1.57-0.06c0.14,0.1,0.27,0.22,0.37,0.36
								c0.39,0.54,0.26,1.32,0.02,1.9c-0.34,0.83-0.99,1.5-1.61,2.13c-0.76,0.77-1.53,1.53-2.3,2.3c-1.61,1.61-3.22,3.22-4.83,4.84
								c-1.17,1.17,0.39,3.36,1.82,2.36c2.49-1.75,4.98-3.5,7.47-5.25c1.04-0.73,2.2-1.42,3.05-2.39c0.98-1.1,1.33-2.39,1.37-3.85
								c0.02-0.74,0.02-1.49,0.02-2.23C132.01,214.82,132.13,214.03,131.95,213.37z"/>
							<path class="st7" d="M95.56,153.78c-0.44-2.47-0.89-4.93-1.35-7.39c0.36,0.77,0.81,1.51,1.37,2.18
								c0.94,1.13,2.22,2.1,3.62,2.57c1.75,0.59,3.67-0.56,3.24-2.57c-0.37-1.75-2.23-2.03-3.14-3.36c-0.96-1.4-1.53-3.18-2.1-4.77
								c-1.05-2.95-1.82-6.75,0.47-9.34c1.28-1.44-0.84-3.57-2.12-2.12c-2.69,3.04-2.74,6.96-1.76,10.71
								c-0.08,0.12-0.15,0.26-0.19,0.43c-0.16,0.59-0.23,1.19-0.27,1.79c-0.2-1.01-0.39-2.02-0.59-3.03
								c-0.01-0.12-0.03-0.23-0.07-0.35c-0.08-0.37-0.15-0.75-0.22-1.13c-0.36-1.78-2.79-1.17-2.95,0.4
								c-0.25,2.45-0.49,4.9-0.74,7.35c-0.14,1.41,1.45,1.77,2.37,1.11c3.08,16.21,5.56,32.53,7.39,48.93
								c0.61,5.44,1.15,10.89,1.62,16.35c0.17,1.91,3.17,1.93,3,0C101.46,192.18,98.94,172.9,95.56,153.78z"/>
							<path class="st7" d="M93.85,127.8c-0.13-0.26-0.31-0.49-0.48-0.73c-0.04-0.06-0.11-0.21-0.18-0.28
								c0.22-1.7-2.44-2.36-2.93-0.57c-0.21,0.75-0.06,1.47,0.35,2.13c0.16,0.25,0.37,0.46,0.51,0.72c0,0,0.02,0.03,0.04,0.06
								c-0.04,0.07-0.09,0.23-0.13,0.3c-0.75,1.47-1.89,2.76-2.88,4.08c-2.02,2.69-3.65,5.85-2.87,9.3c0.42,1.88,3.31,1.09,2.89-0.8
								c-0.66-2.96,1.57-5.69,3.25-7.87c0.92-1.2,1.95-2.44,2.52-3.86C94.26,129.45,94.24,128.6,93.85,127.8z"/>
							<path class="st7" d="M90.35,123.48c-2.02-7.07-1.3-14.65-3.6-21.64c0.19-0.05,0.36-0.14,0.51-0.27
								c0.16-0.11,0.29-0.25,0.39-0.42c0.11-0.17,0.17-0.36,0.18-0.56c0.04-0.2,0.04-0.4-0.03-0.6c-0.12-0.36-0.34-0.71-0.69-0.9
								c-0.34-0.18-0.78-0.29-1.16-0.15c-0.2,0.07-0.42,0.12-0.63,0.15c-0.2,0.01-0.41,0.01-0.61-0.01
								c-0.16-0.04-0.33-0.04-0.49-0.01c-0.2,0.01-0.39,0.07-0.56,0.18c-0.17,0.09-0.31,0.22-0.42,0.39
								c-0.13,0.14-0.22,0.31-0.27,0.51c-0.09,0.38-0.07,0.82,0.15,1.16c0.11,0.17,0.26,0.34,0.43,0.47
								c2.66,7.22,1.8,15.13,3.9,22.49C87.99,126.13,90.88,125.34,90.35,123.48z"/>
						</g>
						<path class="st1" d="M132.1,83.54c-3.1-2.23-6.66,0.65-9.4,2.05c-3.18,1.62-6.58,2.78-9.81,4.3
							c-1.82,0.86-3.58,1.85-5.19,3.07c-0.51,0.38-0.01,1.25,0.5,0.86c3.44-2.61,7.53-4.08,11.47-5.75c1.98-0.84,3.9-1.78,5.76-2.86
							c1.82-1.06,4.19-2.23,6.16-0.81C132.12,84.78,132.62,83.91,132.1,83.54z"/>
						<path class="st1" d="M156.38,147.13c-0.19-1.11-0.37-2.21-0.56-3.32c-0.37-2.17-0.73-4.34-1.1-6.52
							c-0.37-2.17-0.73-4.34-1.1-6.52c-0.1-0.58-0.35-1.42-1.09-1.41c-0.82,0.01-0.71,0.96-0.62,1.63
							c-0.16,0.11-0.27,0.29-0.24,0.53c0.47,3.37,1.03,6.72,1.67,10.06c0.32,1.63,0.65,3.26,1.01,4.88c0.3,1.37,0.55,2.82,1.57,3.86
							c0.29,0.3,0.87,0.08,0.85-0.35C156.75,149.02,156.54,148.08,156.38,147.13z"/>
						<path class="st1" d="M168.34,140.89c-0.11,2.74-0.79,5.42-2.07,7.85c-1.3,2.47-3.18,4.53-5.04,6.6
							c-3.25,3.6-6.53,7.64-6.51,12.75c0,1.29,2,1.29,2,0c-0.02-5.51,4.35-9.46,7.69-13.32c3.47-4,5.7-8.53,5.93-13.88
							C170.39,139.6,168.39,139.6,168.34,140.89z"/>
						<path class="st1" d="M169.33,136.14c-0.25-0.6-0.5-1.21-0.75-1.81c-0.03-0.13-0.09-0.24-0.18-0.34
							c-0.07-0.11-0.16-0.19-0.28-0.26c-0.21-0.13-0.53-0.18-0.77-0.1c-0.24,0.08-0.48,0.23-0.6,0.46c-0.12,0.22-0.2,0.53-0.1,0.77
							c0.25,0.6,0.5,1.21,0.75,1.81c0.03,0.13,0.09,0.24,0.18,0.34c0.07,0.11,0.16,0.19,0.28,0.26c0.21,0.13,0.53,0.18,0.77,0.1
							c0.24-0.08,0.48-0.23,0.6-0.46C169.35,136.69,169.43,136.39,169.33,136.14z"/>
						<path class="st1" d="M90.76,124.75c-3.23,0.65-6.15,2.76-7.73,5.66c-1.76,3.23-1.75,7.13-0.19,10.43
							c0.55,1.16,2.28,0.15,1.73-1.01c-1.28-2.7-1.2-6,0.29-8.6c1.37-2.39,3.74-4.02,6.43-4.55
							C92.55,126.43,92.02,124.5,90.76,124.75z"/>
						<path class="st1" d="M150.31,217.96c-1.24,2.38-3.61,3.76-5.94,4.91c-2.57,1.27-5.25,2.44-7.23,4.59
							c-0.87,0.94,0.54,2.36,1.41,1.41c3.86-4.18,10.69-4.52,13.48-9.91C152.63,217.83,150.91,216.81,150.31,217.96z"/>
						<path class="st1" d="M151.55,224.12c-0.5-0.29-1.06-0.09-1.37,0.36c-1.95,2.83-4.27,5.38-6.87,7.63
							c-0.41,0.35-0.36,1.05,0,1.41c0.41,0.41,1,0.35,1.41,0c2.73-2.36,5.14-5.07,7.19-8.03
							C152.21,225.05,151.99,224.38,151.55,224.12z"/>
						<path class="st1" d="M118.47,218.56c-3.91,2.02-8.36,3.88-11.12,7.47c-0.33,0.43-0.42,1,0,1.41c0.34,0.34,1.08,0.43,1.41,0
							c2.67-3.45,6.95-5.21,10.72-7.15C120.62,219.7,119.61,217.97,118.47,218.56z"/>
						<path class="st1" d="M118.91,212.55c-0.6,1.25-1.85,1.84-3.07,2.35c-1.62,0.67-3.26,1.3-4.9,1.94
							c-3.39,1.34-6.77,2.69-10.16,4.03c-1.18,0.47-0.67,2.4,0.53,1.93c3.73-1.48,7.46-2.96,11.19-4.44
							c1.66-0.66,3.35-1.26,4.97-2.01c1.31-0.6,2.53-1.47,3.16-2.8C121.19,212.4,119.47,211.38,118.91,212.55z"/>
						<path class="st1" d="M183.23,205.76c-5.74-4.16-10.22-10.02-12.73-16.65c-0.45-1.19-2.39-0.68-1.93,0.53
							c2.72,7.16,7.46,13.35,13.65,17.85C183.26,208.25,184.26,206.51,183.23,205.76z"/>
						<path class="st1" d="M189.8,208.89c-0.49-0.11-0.97-0.27-1.43-0.45c-0.47-0.21-0.93-0.45-1.37-0.73
							c-0.44-0.28-1.12-0.1-1.37,0.36c-0.26,0.5-0.11,1.06,0.36,1.37c1,0.64,2.12,1.12,3.28,1.39c0.51,0.12,1.11-0.16,1.23-0.7
							C190.62,209.61,190.35,209.02,189.8,208.89z"/>
						<path class="st1" d="M190.43,194.77c-3.89-5.12-6.89-10.85-8.84-16.98c-0.39-1.22-2.32-0.7-1.93,0.53
							c2,6.29,5.05,12.21,9.04,17.46C189.47,196.79,191.21,195.79,190.43,194.77z"/>
						<path class="st1" d="M194.33,199.36c-0.03-0.08-0.07-0.16-0.1-0.24c-0.09-0.15-0.21-0.27-0.36-0.36l-0.64-0.48
							c-0.11-0.07-0.24-0.11-0.37-0.12c-0.13-0.03-0.27-0.02-0.4,0.02c-0.13,0.03-0.24,0.09-0.34,0.18
							c-0.11,0.07-0.19,0.16-0.26,0.28c-0.03,0.08-0.07,0.16-0.1,0.24c-0.05,0.18-0.05,0.35,0,0.53c0.03,0.08,0.07,0.16,0.1,0.24
							c0.09,0.15,0.21,0.27,0.36,0.36l0.64,0.48c0.11,0.07,0.24,0.11,0.37,0.12c0.13,0.03,0.27,0.02,0.4-0.02
							c0.13-0.03,0.24-0.09,0.34-0.18c0.11-0.07,0.19-0.16,0.26-0.28c0.03-0.08,0.07-0.16,0.1-0.24
							C194.38,199.71,194.38,199.53,194.33,199.36z"/>
					</g>
					<path class="st1" d="M148.13,60.85c-5.19-0.08-10.48-0.14-15.47,1.49c-0.61,0.2-0.35,1.17,0.27,0.96
						c4.91-1.6,10.1-1.54,15.21-1.46C148.77,61.86,148.77,60.86,148.13,60.85z"/>
					<path class="st1" d="M153.86,61.8c-0.24-0.02-0.48-0.04-0.71-0.07c-0.22-0.03-0.37-0.05-0.63-0.09
						c-0.47-0.08-0.94-0.18-1.4-0.29c-0.25-0.06-0.55,0.08-0.62,0.35c-0.06,0.26,0.08,0.55,0.35,0.62c0.99,0.25,1.99,0.41,3.01,0.48
						c0.26,0.02,0.51-0.24,0.5-0.5C154.34,62.01,154.14,61.82,153.86,61.8z"/>
					<path class="st1" d="M133.56,48.41c-0.05-0.64-1.05-0.64-1,0c0.01,0.14,0.02,0.28,0.03,0.42c-0.1,0.05-0.19,0.15-0.22,0.3
						c-0.38,1.53-0.22,3.13-0.15,4.68c0.07,1.61,0.13,3.23,0.2,4.84c0.01,0.35,0.31,0.5,0.58,0.47c0.23,0.36,0.92,0.28,0.92-0.26
						C133.96,55.38,133.84,51.89,133.56,48.41z"/>
					<path class="st1" d="M132.01,39.41c-0.2-0.18-0.51-0.2-0.71,0c-0.62,0.63-0.98,1.5-0.97,2.39c0,0.26,0.23,0.51,0.5,0.5
						c0.27-0.01,0.5-0.22,0.5-0.5c0-0.09,0-0.18,0.01-0.27c0-0.02,0-0.04,0.01-0.06c0.01-0.03,0.01-0.07,0.02-0.1
						c0.04-0.18,0.09-0.35,0.15-0.52c0.01-0.01,0.01-0.02,0.02-0.04c0.02-0.04,0.04-0.08,0.06-0.12c0.04-0.08,0.09-0.16,0.13-0.23
						c0.02-0.04,0.05-0.07,0.07-0.11c0.01-0.01,0.02-0.02,0.03-0.04c0.06-0.07,0.12-0.14,0.18-0.21
						C132.19,39.93,132.21,39.59,132.01,39.41z"/>
					<path class="st1" d="M149.45,48.03c-0.24-0.07-0.57,0.08-0.61,0.35c-0.4,2.53-2.01,4.74-4.3,5.89
						c-0.58,0.29-0.07,1.15,0.5,0.86c2.49-1.25,4.32-3.73,4.76-6.49C149.84,48.38,149.73,48.1,149.45,48.03z"/>
					<path class="st1" d="M150.86,38.41c0.07-0.1,0.08-0.27,0.05-0.39c-0.03-0.12-0.12-0.24-0.23-0.3
						c-0.25-0.13-0.52-0.05-0.68,0.18c-0.36,0.51-0.55,1.13-0.57,1.76c-0.01,0.26,0.24,0.51,0.5,0.5c0.28-0.01,0.49-0.22,0.5-0.5
						c0-0.05,0.01-0.11,0.01-0.16c0.03-0.22,0.09-0.43,0.17-0.63C150.68,38.71,150.76,38.56,150.86,38.41z"/>
					<path class="st1" d="M166.66,53.88c-0.3,0-0.47,0.23-0.5,0.5c-0.02,0.15-0.23,0.3-0.33,0.38c-0.18,0.14-0.38,0.27-0.57,0.41
						c-0.43,0.3-0.88,0.6-1.34,0.86c-0.87,0.49-1.81,0.87-2.82,0.9c-0.64,0.02-0.64,1.02,0,1c1.25-0.04,2.42-0.5,3.49-1.13
						c0.52-0.31,1.03-0.66,1.52-1.01c0.52-0.37,0.96-0.74,1.04-1.4C167.19,54.11,166.91,53.88,166.66,53.88z"/>
					<g>
						<path class="st1" d="M169.97,44.2c0-0.01,0-0.01,0-0.01C169.97,44.19,169.97,44.19,169.97,44.2
							C169.97,44.19,169.97,44.19,169.97,44.2z"/>
						<path class="st1" d="M171.19,41.99c-0.08-0.24-0.35-0.45-0.61-0.35c-0.6,0.23-1.1,0.68-1.37,1.27
							c-0.26,0.59-0.35,1.26-0.12,1.88c0.09,0.24,0.34,0.44,0.61,0.35c0.24-0.08,0.45-0.35,0.35-0.62
							c-0.01-0.03-0.08-0.28-0.09-0.33c0,0.03,0,0.08,0,0c0,0,0,0,0-0.01c0,0,0-0.01,0-0.01c0,0,0,0.01,0,0.01
							c0-0.03,0-0.05-0.01-0.08c0-0.06,0-0.12,0-0.18c0-0.03,0-0.06,0.01-0.08c0-0.01,0-0.01,0-0.02c0.01-0.03,0.03-0.13,0.03-0.15
							c0.01-0.06,0.03-0.12,0.05-0.18c0.01-0.03,0.02-0.05,0.03-0.08c0.01-0.02,0.01-0.03,0.02-0.05c0.01-0.03,0.01-0.02-0.02,0.04
							c-0.01-0.02,0.06-0.13,0.07-0.15c0.03-0.05,0.06-0.11,0.09-0.16c0.02-0.02,0.03-0.05,0.05-0.07c0,0,0,0,0,0c0,0,0,0,0,0
							c0.04-0.04,0.07-0.08,0.11-0.12c0.04-0.04,0.09-0.08,0.13-0.12c0.01-0.01,0,0,0.01-0.01c0.02-0.02,0.05-0.04,0.06-0.04
							c0.05-0.03,0.09-0.06,0.14-0.09c0.03-0.02,0.06-0.03,0.09-0.05c0,0,0,0,0,0s0,0,0,0C171.09,42.51,171.28,42.27,171.19,41.99z"
							/>
					</g>
					<path class="st1" d="M183.67,49.13c-0.08-0.24-0.35-0.45-0.62-0.35c-1.49,0.55-2.4,2.27-1.93,3.81
						c0.08,0.25,0.35,0.43,0.61,0.35c0.25-0.08,0.43-0.35,0.35-0.61c-0.02-0.07-0.04-0.15-0.06-0.23c-0.01-0.03-0.01-0.07-0.02-0.1
						c0.02,0.12,0-0.02,0-0.04c-0.01-0.15-0.01-0.3,0-0.44c0-0.02,0-0.03,0-0.04c0.01-0.03,0.01-0.07,0.02-0.1
						c0.01-0.07,0.03-0.14,0.05-0.21c0.02-0.08,0.05-0.15,0.07-0.22c0.01-0.02,0.01-0.03,0.02-0.04c0.01-0.03,0.03-0.06,0.04-0.09
						c0.07-0.13,0.14-0.26,0.23-0.38c0.01-0.01,0.02-0.03,0.03-0.04c0.02-0.03,0.04-0.05,0.07-0.08c0.05-0.05,0.1-0.1,0.15-0.15
						c0.06-0.05,0.12-0.1,0.17-0.15c0,0,0,0,0,0c0,0,0,0,0.01-0.01c0.04-0.02,0.07-0.05,0.11-0.07c0.06-0.04,0.12-0.07,0.18-0.11
						c0.03-0.01,0.06-0.03,0.09-0.04c0.01,0,0.05-0.02,0.07-0.03C183.57,49.65,183.76,49.4,183.67,49.13z"/>
				</g>
				<g>
					<path class="st9" d="M128.27,81.3c1.36-0.08,2.56,0.4,3.67,1.15c0.65,0.43,1.28,0.9,2.02,1.41c0.22-2.26,0.56-4.37,1.33-6.4
						c1.46-3.85,4.02-6.56,8.01-7.76c2.47-0.74,4.98-1.03,7.57-0.7c3.75,0.49,6.82,2.15,9.16,5.1c1.73,2.17,2.85,4.51,3.46,6.99
						c1.71,6.39,0.02,13.56-4.8,18.26c-3.26,3.18-7.46,5.21-10.23,8.92c-2.46,3.3-3.57,7.78-1.45,11.47
						c0.38-0.33,0.76-0.65,1.15-0.96c5.33-4.28,11.09-7.86,17.39-10.55c3.14-1.34,6.38-2.34,9.84-2.42
						c0.63-0.01,0.61-0.35,0.55-0.81c-0.27-1.94-0.41-3.9-0.36-5.86c0.11-4.3,0.48-8.59,0.25-12.89c-0.18-3.34-0.77-6.58-2.14-9.66
						c-0.29-0.66-0.69-1.21-1.25-1.69c-1.28-1.08-2.69-1.94-4.17-2.7c-6.25-3.19-12.93-4.92-19.87-5.7
						c-4.59-0.51-9.16-0.47-13.73,0.32c-2.58,0.45-4.88,1.28-6.53,3.43c-0.19,0.24-0.51,0.41-0.23,0.82
						c0.99,1.48,1.07,3.16,0.9,4.86c-0.15,1.58-0.61,3.09-1.05,4.6C127.61,81.06,127.62,81.34,128.27,81.3z"/>
					<path class="st9" d="M125.77,74.91c0.67,0.08,1.11,0.53,1.64,1.08c0.15-1.11,0.03-2.05-0.16-2.98
						c-0.04-0.2-0.09-0.46-0.34-0.52c-0.28-0.07-0.46,0.14-0.59,0.35c-0.31,0.51-0.56,1.06-0.74,1.63
						C125.51,74.68,125.5,74.88,125.77,74.91z"/>
					<path class="st9" d="M129.88,92.24c2.58-0.37,5-1.25,7.23-2.62c0.25-0.15,0.62-0.31,0.12-0.61c-2-1.21-3.58-2.91-5.32-4.43
						c-1.72-1.5-3.53-2-5.67-0.84c-4.74,2.56-9.7,4.66-14.57,6.95c-1.18,0.56-2.3,1.23-3.36,2.36c3.35-0.37,6.52-0.47,9.69-0.48
						C121.95,92.56,125.93,92.81,129.88,92.24z"/>
					<path class="st9" d="M133.69,40.9c-0.01-0.89-0.77-1.66-1.65-1.67c-0.96-0.01-1.71,0.72-1.72,1.67
						c-0.01,0.95,0.69,1.66,1.62,1.65C132.89,42.55,133.69,41.79,133.69,40.9z"/>
					<path class="st9" d="M86.93,95.83c-0.12-0.55-0.52-0.72-1.05-0.72c-1.12,0.18-2.25,0.34-3.37,0.53
						c-0.5,0.08-1.02,0.24-0.94,0.89c0.08,0.65,0.4,1.16,1.16,1.1c1.19-0.09,2.37-0.28,3.52-0.6
						C86.86,96.86,87.05,96.41,86.93,95.83z"/>
					<path class="st9" d="M131.66,96.49c2.82-0.63,5.26-1.88,7.05-4.23c0.35-0.47,0.59-0.98,0.53-1.59
						c-0.05-0.53-0.28-0.7-0.74-0.33c-0.9,0.72-1.9,1.27-2.95,1.73c-3.98,1.75-8.19,2.07-12.46,1.99c-2.75-0.05-5.49-0.18-8.24-0.27
						l-0.05,0.15c0.65,0.28,1.29,0.57,1.94,0.83C121.56,96.69,126.49,97.64,131.66,96.49z"/>
					<path class="st9" d="M87.32,124.49c0.73-0.2,1.45-0.45,2.16-0.71c0.2-0.07,0.11-0.28,0.1-0.44c-0.01-0.14-0.01-0.27-0.03-0.41
						c-0.65-4.59-1.29-9.19-1.97-13.78c-0.47-3.19-0.97-6.38-1.46-9.58c-0.06-0.42-0.2-0.74-0.72-0.67
						c-0.48,0.07-0.96,0.16-1.45,0.22c-0.56,0.07-0.68,0.32-0.59,0.89c0.6,3.69,1.17,7.4,1.74,11.1c0.66,4.32,1.3,8.64,1.95,12.96
						C87.09,124.25,87.05,124.56,87.32,124.49z"/>
					<path class="st9" d="M181.73,122.07c-2.47-0.64-4.98-0.52-7.46-0.26c-4.51,0.48-8.84,1.72-13.04,3.44
						c-3.62,1.49-7.19,3.13-11.09,3.77c-0.44,0.07-0.56,0.28-0.5,0.72c0.2,1.64,0.31,3.3,0.56,4.94c0.78,5.1,1.58,10.2,2.41,15.29
						c0.35,2.16,0.79,4.32,1.23,6.71c0.51-0.64,0.83-1.11,1.21-1.53c2.17-2.33,4.32-4.69,6.54-6.97c2.54-2.61,3.15-5.66,2.39-9.12
						c-0.4-1.8-1.26-3.41-1.99-5.08c-0.24-0.54-0.35-1.08,0.3-1.4c0.64-0.32,0.95,0.14,1.22,0.61c1.28,2.27,2.22,4.63,2.55,7.26
						c0.39,3.22-0.48,5.99-2.58,8.38c-1.71,1.94-3.52,3.79-5.31,5.65c-1.63,1.7-3.05,3.56-4.04,5.7c-2.32,5-2.23,9.85,1.07,14.43
						c0.65,0.9,1.39,1.76,2.44,2.25c1.06,0.49,1.99,0.21,2.61-0.78c0.41-0.65,0.63-1.39,0.83-2.12c0.92-3.49,3.16-5.77,6.47-7.03
						c2.06-0.79,4.15-1.47,6.21-2.26c5.12-1.98,9.94-4.38,13.48-8.83c3.37-4.23,4.92-8.95,4.07-14.3
						c-1.04-6.6-3.91-12.47-7.48-18.04C183.32,122.74,182.63,122.31,181.73,122.07z"/>
					<path class="st9" d="M182.4,53.03c1.02,0.01,1.7-0.61,1.72-1.57c0.02-0.9-0.75-1.71-1.63-1.72c-0.9-0.01-1.66,0.8-1.66,1.77
						C180.84,52.41,181.48,53.03,182.4,53.03z"/>
					<path class="st9" d="M173.8,69.27c-1.43-1.23-3.04-2.2-4.73-3.03c-8.22-4.06-16.99-5.73-26.09-5.93
						c-2.18-0.03-4.35,0.17-6.51,0.37c-1.4,0.13-2.81,0.32-4.12,0.9c-0.42,0.19-0.78,0.4-0.83,0.91c-0.07,0.73-0.11,1.46-0.18,2.19
						c-0.06,0.6,0.14,0.76,0.74,0.6c5.41-1.45,10.9-1.51,16.42-0.95c4.31,0.44,8.54,1.31,12.66,2.63c4.08,1.31,8.02,2.94,11.53,5.45
						c1.26,0.9,1.24,0.91,1.78-0.55C174.98,70.47,174.94,70.26,173.8,69.27z"/>
					<path class="st9" d="M170.38,108.76c-8.22,2.66-15.41,7.16-22.04,12.61c-0.81,0.67-1.63,1.38-2.14,2.34
						c-0.78,1.44-0.2,2.93,1.3,3.32c0.55,0.14,1.1,0.18,1.69,0.12c2.88-0.31,5.54-1.35,8.18-2.43c6.18-2.54,12.42-4.81,19.21-5.06
						c2.75-0.1,5.43,0,8,1.4c0.2-0.7-0.03-1.31-0.1-1.91c-0.25-2.23-0.76-4.4-1.79-6.41c-0.99-1.92-2.26-3.57-4.46-4.3
						C175.56,107.55,172.93,107.93,170.38,108.76z"/>
					<path class="st9" d="M132.63,58.27c0,0.8,0.24,0.89,0.94,0.73c2.91-0.65,5.87-0.83,8.83-0.82c3.59,0,7.17,0.26,10.71,0.87
						c7.62,1.32,14.96,3.38,21.32,8.04c0.48,0.35,0.62,0.13,0.79-0.3c0.84-2.06,1.71-4.12,2.57-6.18c0.47-1.12,0.94-2.23,1.4-3.35
						c-0.51,0.3-0.86,0.72-1.25,1.09c-0.9,0.85-1.93,1.51-3.12,1.88c-2.4,0.75-4.42-0.19-5.38-2.51c-0.41-0.99-0.57-2.03-0.65-3.1
						c-0.12-1.55-0.03-3.1,0.03-4.9c-0.42,0.51-0.69,0.85-0.97,1.16c-1.65,1.81-3.33,3.59-5.56,4.74c-3.53,1.81-6.92,0.95-9.09-2.35
						c-0.97-1.47-1.55-3.11-2.02-4.79c-0.35-1.21-0.64-2.44-0.96-3.7c-0.29,0.23-0.34,0.51-0.45,0.75
						c-1.21,2.54-2.58,4.98-4.43,7.12c-1.18,1.36-2.54,2.5-4.41,2.73c-2.29,0.28-3.88-0.96-5.25-2.58c-1.18-1.38-2-2.99-2.83-4.61
						C132.93,51.58,132.65,54.92,132.63,58.27z"/>
					<path class="st9" d="M151.09,40.92c0.91-0.04,1.71-0.82,1.69-1.65c-0.02-0.95-0.83-1.85-1.63-1.82
						c-0.98,0.04-1.87,0.97-1.83,1.92C149.35,40.22,150.2,40.96,151.09,40.92z"/>
					<path class="st9" d="M170.7,45.33c0.88,0.01,1.7-0.79,1.69-1.63c-0.01-0.96-0.81-1.71-1.79-1.69c-0.95,0.03-1.58,0.72-1.57,1.7
						C169.05,44.65,169.74,45.33,170.7,45.33z"/>
					<path class="st9" d="M171.03,206.72c-3.51-4.94-6.44-10.22-9.01-15.7c-0.72-1.54-1.42-3.1-2.21-4.82
						c-0.86,3.44-2.33,6.37-4.36,9.05c-3.68,4.87-8.23,8.54-14.15,10.26c-4.54,1.32-9.19,1.55-13.89,0.93
						c-5.03-0.66-9.63-2.36-13.79-5.3c-1.28-0.9-2.44-1.92-3.54-3.03c4.94,9.69,14.18,13.67,22.86,12.73
						c-0.3-0.5-0.21-0.75,0.35-0.79c0.82-0.05,1.63,0.09,2.43,0.25c2.81,0.59,5.6,1.39,8.52,1.23c0.5-0.03,0.84-0.02,0.72-0.68
						c-0.07-0.4,0.13-0.77,0.55-0.9c0.41-0.13,0.55,0.24,0.74,0.49c0.6,0.79,1.35,1.42,2.16,1.98c3.75,2.6,7.95,3.22,12.31,2.47
						c4.25-0.73,7.83-2.71,10.31-6.4C171.47,207.87,171.51,207.4,171.03,206.72z"/>
					<path class="st9" d="M164.06,216.1c-3.45,1.19-6.97,1.37-10.52,0.61c-0.63-0.13-0.81,0.07-0.92,0.62
						c-0.18,0.96-0.68,1.76-1.38,2.45c-1.18,1.17-2.62,1.93-4.08,2.66c-3.07,1.53-6.07,3.18-8.93,5.08
						c-0.34,0.23-0.7,0.45-0.98,0.83c0.63,0.08,1.18,0.13,1.71,0.22c1.5,0.25,2.83,0.81,3.65,2.18c0.19,0.31,0.34,0.4,0.58,0.05
						c0.17-0.25,0.38-0.46,0.57-0.69c1.81-2.24,3.84-4.22,6.21-5.86c0.27-0.18,0.59-0.47,0.85-0.14c0.25,0.31-0.13,0.54-0.34,0.72
						c-1.76,1.56-3.19,3.42-4.68,5.22c-0.74,0.89-1.47,1.8-2.01,2.9c0.15-0.01,0.23,0,0.3-0.03c2.45-1.12,5.03-1.52,7.7-1.43
						c2.54,0.09,4.78,0.96,6.7,2.62c0.45,0.39,0.67,0.37,1-0.08c1.48-2.02,2.9-4.08,4.09-6.29c1.9-3.54,2.66-7.22,1.33-11.16
						C164.75,216.09,164.58,215.92,164.06,216.1z"/>
					<path class="st9" d="M130.27,212.97c-3.03,0.01-5.93-0.67-8.75-1.72c-0.72-0.27-0.83-0.04-0.81,0.61
						c0.05,1.3-0.54,2.25-1.74,2.77c-0.65,0.28-1.3,0.56-1.97,0.79c-3.83,1.3-7.73,2.42-11.44,4.08c-1.62,0.72-3.25,1.44-4.81,2.41
						c0.12,0.06,0.16,0.1,0.21,0.1c2.21,0.29,4.08,1.13,5.17,3.23c0.28,0.53,0.49,0.08,0.65-0.09c2.94-3.18,6.73-5.02,10.62-6.68
						c0.15-0.06,0.3-0.12,0.46-0.16c0.2-0.04,0.39-0.03,0.48,0.19c0.07,0.18-0.03,0.32-0.16,0.42c-0.15,0.11-0.32,0.21-0.48,0.31
						c-2.05,1.28-4.12,2.54-6.15,3.86c-1.55,1.01-2.96,2.2-4.16,3.8c0.51-0.16,0.89-0.3,1.28-0.4c3.78-0.98,7.39-0.99,10.47,1.88
						c0.29,0.27,0.44,0.17,0.66-0.05c0.7-0.68,1.48-1.28,2.27-1.87c2.23-1.65,4.64-3.05,6.79-4.81c1.16-0.95,2.15-1.98,2.31-3.6
						c0.16-1.59-0.07-3.14-0.29-4.7C130.84,212.97,130.54,212.97,130.27,212.97z"/>
					<path class="st9" d="M173.27,209.49c-0.18-0.2-0.36-0.48-0.61-0.06c-0.92,1.55-2.12,2.86-3.6,4.04
						c3.32,0.46,6.51,1.03,9.96,1.03C176.78,212.98,174.93,211.34,173.27,209.49z"/>
					<path class="st9" d="M210.57,207.55c-1.63-0.76-3.22-1.61-4.61-2.77c-3.01-2.51-5.29-5.65-7.31-8.94
						c-5.16-8.41-8.83-17.46-11.08-27.08c-0.66-2.8-1.19-5.62-1.69-8.47c-0.12,0.04-0.21,0.05-0.27,0.09c-2.87,2.4-6.2,4-9.6,5.49
						c-2.67,1.17-5.5,1.89-8.19,3.02c-2.58,1.09-4.28,2.91-4.98,5.65c-0.2,0.76-0.42,1.52-0.8,2.22c-0.54,1.02-1.27,1.89-2.42,2.16
						c-0.68,0.16-0.77,0.36-0.52,0.98c2.29,5.8,4.64,11.57,7.71,17.01c2.61,4.63,5.37,9.15,9.24,12.9
						c4.46,4.32,9.86,6.38,15.94,6.77c2.6,0.17,5.22,0.11,7.81-0.3c3.5-0.55,6.86-1.47,9.9-3.34c1.19-0.73,2.27-1.59,2.99-2.84
						c0.35-0.61,0.23-1.09-0.29-1.51C211.85,208.17,211.21,207.85,210.57,207.55z M199.64,209.21c-1.41-0.24-2.87-0.66-4.3-1.19
						c-5.27-1.93-9.52-5.24-13.08-9.56c-4.88-5.92-8.02-12.71-10.27-19.97c-0.1-0.31-0.16-0.63-0.21-0.95c-0.02-0.15,0-0.34,0.2-0.4
						c0.19-0.05,0.32,0.05,0.39,0.21c0.13,0.27,0.24,0.55,0.34,0.83c2.07,5.78,4.46,11.42,8.06,16.44
						c3.37,4.69,7.36,8.74,12.54,11.47c1.89,1,3.89,1.69,5.96,2.18c0.21,0.05,0.42,0.11,0.63,0.16c0.24,0.06,0.5,0.11,0.49,0.44
						C200.38,209.09,200.15,209.2,199.64,209.21z"/>
					<path class="st9" d="M107.82,127.52c-0.98,0.3-1.78,0.56-2.59,0.79c-2.97,0.83-6.01,0.92-9.06,0.8
						c-0.37-0.01-0.67-0.07-0.81,0.42c-0.35,1.24-1,2.35-1.72,3.41c-0.35,0.51-0.44,1.04-0.35,1.62c0.08,0.51,0.17,1.02,0.24,1.53
						c0.57,3.95,1.15,7.9,1.69,11.86c0.08,0.59,0.3,0.86,0.84,1.02c1.25,0.37,2.49,0.79,3.74,1.17c1.04,0.32,1.03,0.3,1.23-0.76
						c0.99-5.32,2.23-10.58,4.18-15.65C105.98,131.67,106.87,129.66,107.82,127.52z"/>
					<path class="st9" d="M91.62,136.28c-1.18,1.97-2.3,3.73-1.93,6c0.44,2.71,0.81,5.42,1.22,8.14c0.57,3.81,1.16,7.63,1.71,11.44
						c0.49,3.36,0.94,6.72,1.43,10.08c0.59,4.03,1.28,8.05,1.8,12.09c0.62,4.77,1.39,9.51,2.11,14.26
						c0.62,4.11,1.25,8.21,1.84,12.33c0.24,1.69,0.24,1.72,1.95,1.6c0.7-0.05,0.96-0.36,0.86-1.06c-0.32-2.09-0.62-4.19-0.93-6.28
						c-1.2-8.17-2.4-16.34-3.59-24.51c-1.06-7.23-2.05-14.47-3.16-21.69C93.8,151.28,92.69,143.9,91.62,136.28z"/>
					<path class="st9" d="M99.05,215.06c0.08,0.67,0.61,0.91,1.33,0.9c1.1-0.18,2.29-0.26,3.45-0.58c0.52-0.15,0.7-0.5,0.59-0.99
						c-0.11-0.47-0.44-0.79-0.94-0.71c-1.12,0.17-2.27,0.17-3.38,0.41C99.5,214.2,98.96,214.35,99.05,215.06z"/>
					<path class="st9" d="M114.38,199.8c6.84,4.8,14.5,6.27,22.66,5.16c11.13-1.51,19.34-10.43,21.76-20.04
						c0.15-0.6,0.13-1.14-0.12-1.73c-0.43-1-0.84-2.01-1.12-3.06c-0.23-0.88-0.61-1.52-1.48-1.86c-0.37-0.14-0.7-0.43-0.99-0.71
						c-2.9-2.79-4.41-6.22-4.59-10.23c-0.13-2.87,0.61-5.55,1.84-8.11c0.18-0.37,0.33-0.73,0.23-1.17
						c-0.75-3.31-1.39-6.65-1.98-9.99c-1.06-5.99-2.05-12-2.71-18.05c-0.06-0.55-0.25-0.9-0.84-1.02c-0.9-0.2-1.67-0.64-2.27-1.36
						c-1.29-1.55-1.28-3.64,0.02-5.52c0.23-0.33,0.48-0.64,0.74-0.94c-2.18-3.33-2.07-7.61-0.44-11.15
						c3.66-7.97,13.61-10.2,16.3-18.86c1.17-3.79,1.07-7.96-0.52-11.61c-0.11-0.25-0.1-0.49-0.04-0.7c-0.03-0.07-0.05-0.14-0.08-0.2
						c-2.3-5.17-6.34-8.03-12.21-8.01c-0.99-0.05-2.01,0.15-3.02,0.34c-3.88,0.73-6.86,2.68-8.49,6.39
						c-0.97,2.22-1.49,4.53-1.49,6.97c0,0.79,0.29,1.31,0.88,1.8c1.06,0.88,2.28,1.48,3.41,2.24c0.83,0.57,1.22,1.33,1.18,2.36
						c-0.03,0.79-0.29,1.49-0.68,2.15c-1.01,1.72-2.52,2.91-4.23,3.86c-2.35,1.32-4.92,1.81-7.58,2.01
						c-0.7,0.05-1.52-0.12-2.06,0.28c-0.47,0.35-0.09,1.13-0.2,1.71c-0.02,0.11-0.04,0.21-0.06,0.32c-0.46,3.06-2.15,5.48-3.9,7.93
						c-1.83,2.56-3.69,5.1-5.47,7.69c-3.48,5.05-6.7,10.31-9,16.01c-3.38,8.4-5.25,17.13-5.91,26.14
						c-0.35,4.73-0.35,9.45,0.15,14.17c0.54,5.2,1.69,10.24,3.65,15.09C107.59,192.72,110.2,196.86,114.38,199.8z M142.77,79.25
						c0.32-1.56,1.17-3.17,2.74-3.75c1.33-0.49,2.73,0.02,3.46,1.23c0.67,1.12,0.74,2.54,0.48,3.8c-0.28,1.32-1.01,2.55-2.14,3.31
						c-1.21,0.81-2.88,0.87-3.8-0.4c-0.13-0.18-0.23-0.38-0.32-0.59C142.61,81.77,142.52,80.46,142.77,79.25z"/>
					<path class="st9" d="M93.3,129.21c0.71-1.84-0.47-3.55-2.43-3.51c-2.14,0.05-3.89,1.11-5.56,2.3c-1.86,1.34-2.78,3.22-2.87,5.5
						c-0.14,3.49,1.34,6.37,3.45,9c0.54,0.67,1.09,1.35,2.07,1.75c-0.04-0.36-0.03-0.61-0.1-0.84c-0.54-2.01-0.25-3.92,0.64-5.78
						c0.81-1.7,1.81-3.28,2.8-4.87C92.03,131.6,92.81,130.48,93.3,129.21z"/>
					<path d="M213.35,206.88c-0.72-0.55-1.52-0.96-2.33-1.34c-2.08-0.96-3.9-2.26-5.45-3.95c-2.61-2.84-4.74-6.04-6.62-9.39
						c-5.73-10.16-9.24-21.09-11.07-32.58c-0.14-0.88,0.07-1.52,0.66-2.19c3.36-3.84,5.05-8.35,5.02-13.45
						c-0.02-2.73-0.54-5.41-1.37-8.01c-1.29-4.04-3.08-7.85-5.25-11.48c-0.16-0.27-0.49-0.58-0.34-0.88
						c0.58-1.14,0.22-2.31,0.13-3.45c-0.22-2.67-0.71-5.29-1.82-7.74c-1.13-2.49-2.64-4.7-5.3-5.71c-1.07-0.41-1.46-0.85-1.6-2.06
						c-0.48-4.14-0.25-8.27-0.04-12.39c0.3-5.72-0.07-11.31-2.41-16.63c-0.17-0.38-0.17-0.7,0.04-1.08
						c0.55-0.98,0.83-2.06,1.18-3.12c0.18-0.55,0.19-1.08-0.08-1.58c-0.22-0.41-0.15-0.75,0.02-1.15c1.73-4.11,3.46-8.23,5.15-12.36
						c0.27-0.66,0.64-0.98,1.34-1.09c1.33-0.21,2.29-0.98,2.86-2.19c0.81-1.72,0.25-3.65-1.35-4.86c-1.38-1.04-3.4-0.98-4.78,0.14
						c-1.48,1.21-1.85,3.1-0.97,4.85c0.13,0.26,0.34,0.5,0.11,0.82c-1.29,1.75-2.75,3.33-4.85,4.11c-1.33,0.49-2.22,0.07-2.76-1.24
						c-0.42-1.02-0.53-2.11-0.58-3.19c-0.09-1.69,0.13-3.37,0.14-5.06c0-0.73,0.23-1.03,0.93-1.23c2.08-0.6,3.18-2.68,2.59-4.76
						c-0.47-1.67-1.8-2.75-3.63-2.94c-1.42-0.15-3.06,0.79-3.76,2.14c-0.79,1.54-0.59,3.2,0.65,4.53c0.4,0.43,0.36,0.66,0.05,1.08
						c-1.27,1.75-2.75,3.31-4.35,4.75c-0.9,0.8-1.91,1.45-3.05,1.86c-2.03,0.72-3.83,0.17-5.13-1.56c-0.54-0.73-0.95-1.52-1.29-2.36
						c-0.77-1.93-1.18-3.96-1.71-5.95c-0.21-0.77-0.12-1.16,0.69-1.53c1.81-0.83,2.55-2.91,1.85-4.77c-0.79-2.09-2.72-3.19-4.7-2.7
						c-1.54,0.39-2.53,1.37-2.98,2.85c-0.48,1.53-0.11,2.91,1.05,4.03c0.37,0.35,0.45,0.63,0.23,1.12
						c-0.69,1.51-1.38,3.03-2.25,4.44c-1.09,1.76-2.13,3.55-3.83,4.83c-1.41,1.07-2.66,1.05-3.98-0.1c-2.1-1.83-3.23-4.26-4.14-6.83
						c-0.26-0.75-0.26-1.22,0.44-1.79c1.46-1.2,1.78-2.94,1.03-4.57c-0.74-1.59-2.51-2.56-4.22-2.31c-1.71,0.25-3.18,1.61-3.49,3.24
						c-0.34,1.78,0.49,3.62,2.07,4.4c0.55,0.27,0.74,0.6,0.73,1.2c-0.09,4.6-0.15,9.2-0.22,13.8c0,0.24,0.07,0.52-0.15,0.7
						c-1.15,0.92-1.14,2.22-1.16,3.5c-0.02,1.72-0.2,3.36-1.87,4.37c-0.2,0.12-0.36,0.33-0.52,0.52c-3.52,4.01-4.9,8.71-4.36,13.98
						c0.07,0.66-0.09,0.99-0.68,1.26c-1.98,0.9-3.98,1.76-6,2.56c-2.53,1.01-5.04,2.06-7.37,3.49c-1.43,0.88-2.58,2-3.11,3.65
						c-0.32,1,0.12,1.62,1.17,1.59c0.78-0.02,1.56-0.2,2.35-0.24c0.93-0.04,1.83-0.44,2.8-0.02c3.86,1.64,7.77,3.13,11.93,3.83
						c0.5,0.08,0.59,0.31,0.62,0.75c0.09,1.37-0.24,2.63-0.77,3.88c-0.95,2.21-2.43,4.06-3.89,5.92c-3.48,4.44-6.91,8.91-9.5,13.94
						c-0.6,1.17-1.44,1.82-2.6,2.27c-3.75,1.46-7.61,1.98-11.6,1.59c-0.4-0.04-0.55-0.25-0.68-0.58c-0.53-1.27-1.42-2.22-2.74-2.63
						c-0.66-0.21-0.89-0.54-0.98-1.19c-0.42-3.12-0.88-6.24-1.34-9.36c-0.7-4.78-1.41-9.57-2.12-14.35
						c-0.03-0.21-0.08-0.39,0.07-0.61c0.63-0.93,1.09-1.99,0.75-3.12c-0.35-1.13-1.11-1.74-2.28-1.89
						c-0.63-0.08-1.26-0.03-1.89,0.02c-0.82,0.06-1.65,0.13-2.44,0.36c-0.79,0.23-1.55,0.64-2.06,1.28
						c-1.07,1.35-0.51,3.32,0.88,4.19c0.27,0.17,0.33,0.39,0.37,0.67c0.65,3.72,1.13,7.46,1.68,11.2c0.66,4.54,1.36,9.08,2.08,13.61
						c0.11,0.69-0.08,1.05-0.64,1.45c-2.74,1.95-4.17,4.63-4.1,8c0.08,3.76,1.71,6.93,4.07,9.75c0.87,1.04,1.81,2.09,3.18,2.45
						c0.66,0.17,0.8,0.56,0.88,1.09c0.39,2.74,0.76,5.49,1.15,8.23c0.88,6.08,1.77,12.15,2.67,18.22c0.95,6.4,1.93,12.79,2.88,19.18
						c0.87,5.83,1.73,11.66,2.58,17.5c0.15,1.02,0.26,1.95-0.41,3c-1.21,1.89,0.24,4.16,2.49,4.16c1.45,0.01,2.86-0.32,4.27-0.61
						c1.18-0.24,1.92-0.95,2.11-2.1c0.21-1.2-0.11-2.32-1.19-3.01c-0.49-0.32-0.64-0.71-0.71-1.19c-0.88-5.91-1.77-11.82-2.62-17.74
						c-1.01-6.99-1.99-13.98-3-20.97c-0.98-6.8-1.99-13.6-3-20.4c-0.08-0.51,0.06-0.58,0.5-0.45c1.22,0.36,2.45,0.73,3.68,1.05
						c0.46,0.12,0.53,0.32,0.47,0.75c-0.36,2.37-0.61,4.75-0.7,7.14c-0.17,4.6-0.15,9.19,0.42,13.77c0.66,5.27,1.9,10.36,3.92,15.28
						c0.77,1.89,1.8,3.65,2.52,5.57c2.31,6.23,5.79,11.57,11.73,14.97c0.21,0.12,0.4,0.25,0.47,0.52c0.41,1.6,0.05,2.38-1.49,2.96
						c-3.41,1.28-6.95,2.18-10.34,3.55c-3.41,1.38-6.72,2.96-9.8,5.01c-0.48,0.32-0.88,0.71-0.7,1.34c0.18,0.65,0.75,0.6,1.27,0.61
						c1.28,0.03,2.56,0.1,3.81,0.35c1.97,0.39,3.52,1.7,2.57,4.19c-0.2,0.51-0.26,1.02,0.21,1.43c0.47,0.41,0.97,0.24,1.45,0.01
						c1.25-0.6,2.54-1.11,3.89-1.44c3.35-0.8,6.43-0.61,8.88,2.23c0.51,0.59,1,0.54,1.69-0.11c1.73-1.64,3.67-2.98,5.66-4.28
						c1.48-0.96,2.92-1.99,4.32-3.08c2.01-1.56,3.06-3.54,2.92-6.14c-0.06-1.09-0.15-2.17-0.31-3.24c-0.08-0.53-0.01-0.93,0.68-0.88
						c0.18,0.01,0.37-0.09,0.56-0.09c0.97-0.01,1.91-0.52,2.89-0.23c2.79,0.83,5.64,1.14,8.55,0.98c0.72-0.04,1.3,0.13,1.87,0.59
						c0.71,0.58,1.53,1.04,2.38,1.41c1.43,0.62,1.52,0.98,0.67,2.35c-0.26,0.42-0.6,0.78-1,1.06c-1,0.71-2.07,1.31-3.16,1.86
						c-3.38,1.7-6.78,3.37-9.78,5.71c-0.85,0.67-1.73,1.34-2.33,2.27c-0.24,0.37-0.42,0.77-0.15,1.22c0.24,0.41,0.62,0.4,1,0.37
						c1.04-0.08,2.07,0.04,3.09,0.19c3.1,0.47,3.48,1.58,3,3.89c-0.1,0.49-0.02,0.93,0.38,1.26c0.4,0.33,0.82,0.18,1.23-0.01
						c1.61-0.73,3.23-1.43,4.97-1.82c3.94-0.9,7.51-0.45,10.43,2.66c0.61,0.65,1.27,0.56,1.94-0.24c2.41-2.9,4.56-5.97,6.08-9.44
						c0.89-2.04,1.39-4.16,1.34-6.41c-0.04-1.6-0.33-3.13-0.77-4.65c-0.16-0.55-0.01-0.69,0.52-0.61c1.26,0.2,2.53,0.34,3.79,0.56
						c3.44,0.6,6.91,0.88,10.39,0.69c0.77-0.04,1.43,0.1,2.12,0.37c2.79,1.09,5.69,1.67,8.67,1.77c2.61,0.08,5.22,0.1,7.82-0.29
						c3.33-0.5,6.56-1.33,9.55-2.91c1.79-0.94,3.47-2.06,4.62-3.8C215.33,209.74,215.03,208.15,213.35,206.88z M182.5,49.75
						c0.88,0.01,1.64,0.82,1.63,1.72c-0.02,0.95-0.7,1.58-1.72,1.57c-0.92-0.01-1.56-0.63-1.56-1.51
						C180.84,50.54,181.6,49.74,182.5,49.75z M191.3,141.54c0.85,5.35-0.7,10.07-4.07,14.3c-3.54,4.45-8.37,6.85-13.48,8.83
						c-2.05,0.79-4.15,1.48-6.21,2.26c-3.31,1.27-5.55,3.55-6.47,7.03c-0.19,0.73-0.42,1.47-0.83,2.12
						c-0.62,0.99-1.54,1.27-2.61,0.78c-1.05-0.49-1.78-1.34-2.44-2.25c-3.31-4.58-3.39-9.43-1.07-14.43c0.99-2.14,2.41-4,4.04-5.7
						c1.79-1.87,3.6-3.72,5.31-5.65c2.1-2.38,2.98-5.16,2.58-8.38c-0.32-2.63-1.27-4.99-2.55-7.26c-0.27-0.47-0.58-0.93-1.22-0.61
						c-0.65,0.32-0.54,0.87-0.3,1.4c0.73,1.67,1.59,3.28,1.99,5.08c0.76,3.45,0.15,6.51-2.39,9.12c-2.22,2.28-4.37,4.63-6.54,6.97
						c-0.38,0.41-0.71,0.88-1.21,1.53c-0.44-2.39-0.88-4.54-1.23-6.71c-0.83-5.09-1.64-10.19-2.41-15.29
						c-0.25-1.64-0.35-3.3-0.56-4.94c-0.05-0.44,0.06-0.65,0.5-0.72c3.91-0.64,7.48-2.28,11.09-3.77c4.2-1.73,8.53-2.96,13.04-3.44
						c2.48-0.26,4.99-0.39,7.46,0.26c0.9,0.23,1.59,0.66,2.09,1.43C187.38,129.07,190.25,134.95,191.3,141.54z M178.22,108.43
						c2.2,0.72,3.47,2.38,4.46,4.3c1.04,2,1.54,4.18,1.79,6.41c0.07,0.61,0.3,1.22,0.1,1.91c-2.57-1.4-5.24-1.5-8-1.4
						c-6.79,0.25-13.03,2.51-19.21,5.06c-2.64,1.09-5.3,2.13-8.18,2.43c-0.59,0.06-1.14,0.03-1.69-0.12
						c-1.5-0.39-2.08-1.88-1.3-3.32c0.51-0.96,1.33-1.67,2.14-2.34c6.63-5.46,13.82-9.95,22.04-12.61
						C172.93,107.93,175.56,107.55,178.22,108.43z M170.6,42.01c0.98-0.03,1.79,0.73,1.79,1.69c0.01,0.85-0.82,1.64-1.69,1.63
						c-0.96-0.01-1.65-0.68-1.67-1.62C169.01,42.73,169.65,42.04,170.6,42.01z M151.15,37.46c0.8-0.03,1.61,0.87,1.63,1.82
						c0.02,0.83-0.78,1.61-1.69,1.65c-0.89,0.03-1.74-0.71-1.77-1.54C149.28,38.43,150.17,37.5,151.15,37.46z M135.67,52.82
						c1.37,1.61,2.96,2.86,5.25,2.58c1.87-0.23,3.23-1.37,4.41-2.73c1.85-2.13,3.22-4.58,4.43-7.12c0.11-0.24,0.16-0.52,0.45-0.75
						c0.32,1.26,0.62,2.49,0.96,3.7c0.48,1.68,1.05,3.32,2.02,4.79c2.18,3.3,5.57,4.16,9.09,2.35c2.23-1.15,3.91-2.92,5.56-4.74
						c0.29-0.32,0.55-0.66,0.97-1.16c-0.07,1.8-0.16,3.35-0.03,4.9c0.09,1.07,0.24,2.11,0.65,3.1c0.96,2.32,2.98,3.26,5.38,2.51
						c1.19-0.37,2.22-1.03,3.12-1.88c0.39-0.37,0.74-0.79,1.25-1.09c-0.47,1.12-0.94,2.23-1.4,3.35c-0.86,2.06-1.73,4.11-2.57,6.18
						c-0.18,0.43-0.31,0.65-0.79,0.3c-6.36-4.66-13.69-6.72-21.32-8.04c-3.55-0.61-7.12-0.87-10.71-0.87
						c-2.96,0-5.92,0.18-8.83,0.82c-0.7,0.16-0.95,0.07-0.94-0.73c0.02-3.35,0.3-6.69,0.21-10.06
						C133.67,49.82,134.5,51.44,135.67,52.82z M174.47,71.86c-0.54,1.46-0.53,1.45-1.78,0.55c-3.51-2.51-7.45-4.14-11.53-5.45
						c-4.13-1.32-8.36-2.18-12.66-2.63c-5.52-0.57-11.01-0.51-16.42,0.95c-0.6,0.16-0.8,0.01-0.74-0.6
						c0.07-0.73,0.12-1.46,0.18-2.19c0.05-0.51,0.41-0.72,0.83-0.91c1.31-0.59,2.72-0.77,4.12-0.9c2.16-0.2,4.33-0.4,6.51-0.37
						c9.1,0.2,17.87,1.88,26.09,5.93c1.69,0.83,3.3,1.8,4.73,3.03C174.94,70.26,174.98,70.47,174.47,71.86z M130.31,40.91
						c0.01-0.95,0.76-1.68,1.72-1.67c0.88,0.01,1.64,0.78,1.65,1.67c0.01,0.89-0.8,1.64-1.75,1.65
						C131,42.56,130.3,41.86,130.31,40.91z M127.76,80.57c0.44-1.51,0.9-3.03,1.05-4.6c0.16-1.7,0.09-3.38-0.9-4.86
						c-0.28-0.42,0.05-0.58,0.23-0.82c1.65-2.15,3.95-2.99,6.53-3.43c4.57-0.79,9.14-0.83,13.73-0.32c6.95,0.77,13.62,2.5,19.87,5.7
						c1.48,0.76,2.9,1.62,4.17,2.7c0.56,0.47,0.95,1.03,1.25,1.69c1.37,3.07,1.97,6.32,2.14,9.66c0.23,4.3-0.13,8.59-0.25,12.89
						c-0.05,1.96,0.09,3.91,0.36,5.86c0.06,0.46,0.08,0.8-0.55,0.81c-3.46,0.07-6.7,1.07-9.84,2.42
						c-6.29,2.69-12.06,6.28-17.39,10.55c-0.39,0.31-0.77,0.63-1.15,0.96c-2.12-3.68-1.01-8.17,1.45-11.47
						c2.77-3.71,6.97-5.74,10.23-8.92c4.82-4.7,6.52-11.87,4.8-18.26c-0.61-2.47-1.73-4.81-3.46-6.99c-2.35-2.95-5.41-4.61-9.16-5.1
						c-2.59-0.34-5.1-0.05-7.57,0.7c-4,1.2-6.56,3.91-8.01,7.76c-0.77,2.03-1.11,4.14-1.33,6.4c-0.74-0.52-1.37-0.98-2.02-1.41
						c-1.11-0.74-2.31-1.23-3.67-1.15C127.62,81.34,127.61,81.06,127.76,80.57z M125.58,74.48c0.18-0.57,0.43-1.12,0.74-1.63
						c0.13-0.21,0.3-0.42,0.59-0.35c0.25,0.06,0.3,0.31,0.34,0.52c0.19,0.93,0.31,1.87,0.16,2.98c-0.53-0.56-0.96-1.01-1.64-1.08
						C125.5,74.88,125.51,74.68,125.58,74.48z M126.02,76.21c1.29,0,1.29,2,0,2C124.73,78.21,124.73,76.21,126.02,76.21z
						 M108.29,93.04c1.07-1.13,2.18-1.81,3.36-2.36c4.87-2.29,9.83-4.4,14.57-6.95c2.14-1.15,3.95-0.66,5.67,0.84
						c1.74,1.52,3.32,3.22,5.32,4.43c0.51,0.31,0.13,0.46-0.12,0.61c-2.23,1.37-4.64,2.25-7.23,2.62
						c-3.95,0.57-7.93,0.32-11.89,0.33C114.81,92.57,111.64,92.67,108.29,93.04z M116.75,94.78c-0.65-0.26-1.29-0.55-1.94-0.83
						l0.05-0.15c2.75,0.09,5.49,0.21,8.24,0.27c4.27,0.08,8.48-0.24,12.46-1.99c1.05-0.46,2.05-1.01,2.95-1.73
						c0.46-0.37,0.69-0.2,0.74,0.33c0.06,0.6-0.18,1.12-0.53,1.59c-1.78,2.35-4.23,3.61-7.05,4.23
						C126.49,97.64,121.56,96.69,116.75,94.78z M82.73,97.63c-0.76,0.06-1.08-0.45-1.16-1.1c-0.08-0.65,0.44-0.81,0.94-0.89
						c1.12-0.19,2.25-0.35,3.37-0.53c0.53,0,0.93,0.17,1.05,0.72c0.12,0.58-0.07,1.03-0.68,1.2C85.1,97.35,83.92,97.54,82.73,97.63z
						 M85.11,111.12c-0.56-3.7-1.13-7.4-1.74-11.1c-0.09-0.57,0.03-0.82,0.59-0.89c0.48-0.06,0.96-0.15,1.45-0.22
						c0.51-0.08,0.66,0.24,0.72,0.67c0.48,3.19,0.99,6.38,1.46,9.58c0.67,4.59,1.31,9.19,1.97,13.78c0.02,0.13,0.02,0.27,0.03,0.41
						c0,0.16,0.09,0.37-0.1,0.44c-0.71,0.26-1.43,0.51-2.16,0.71c-0.26,0.07-0.23-0.24-0.25-0.41
						C86.41,119.76,85.77,115.44,85.11,111.12z M88.51,137.63c-0.89,1.86-1.18,3.77-0.64,5.78c0.06,0.23,0.06,0.48,0.1,0.84
						c-0.98-0.4-1.54-1.08-2.07-1.75c-2.11-2.63-3.58-5.51-3.45-9c0.09-2.28,1-4.16,2.87-5.5c1.66-1.2,3.42-2.26,5.56-2.3
						c1.96-0.04,3.14,1.68,2.43,3.51c-0.5,1.27-1.27,2.4-1.99,3.55C90.33,134.35,89.33,135.94,88.51,137.63z M104.41,214.38
						c0.11,0.49-0.07,0.85-0.59,0.99c-1.15,0.32-2.35,0.4-3.45,0.58c-0.72,0.01-1.24-0.23-1.33-0.9c-0.09-0.7,0.45-0.85,1.04-0.98
						c1.12-0.24,2.26-0.24,3.38-0.41C103.97,213.59,104.3,213.91,104.41,214.38z M98.08,180.35c1.19,8.17,2.4,16.34,3.59,24.51
						c0.31,2.1,0.61,4.19,0.93,6.28c0.11,0.7-0.16,1.01-0.86,1.06c-1.71,0.13-1.71,0.09-1.95-1.6c-0.59-4.11-1.22-8.22-1.84-12.33
						c-0.71-4.75-1.49-9.5-2.11-14.26c-0.52-4.04-1.21-8.06-1.8-12.09c-0.49-3.36-0.94-6.72-1.43-10.08
						c-0.56-3.82-1.14-7.63-1.71-11.44c-0.41-2.71-0.78-5.43-1.22-8.14c-0.37-2.27,0.75-4.03,1.93-6
						c1.08,7.62,2.18,15.01,3.31,22.39C96.03,165.89,97.03,173.12,98.08,180.35z M99.79,150.14c-1.25-0.38-2.48-0.8-3.74-1.17
						c-0.54-0.16-0.76-0.44-0.84-1.02c-0.53-3.96-1.12-7.91-1.69-11.86c-0.07-0.51-0.16-1.02-0.24-1.53c-0.09-0.59,0-1.12,0.35-1.62
						c0.72-1.06,1.38-2.16,1.72-3.41c0.14-0.5,0.45-0.44,0.81-0.42c3.05,0.12,6.09,0.03,9.06-0.8c0.81-0.23,1.61-0.49,2.59-0.79
						c-0.95,2.14-1.84,4.15-2.63,6.2c-1.95,5.07-3.19,10.33-4.18,15.65C100.82,150.44,100.83,150.46,99.79,150.14z M105.72,188.08
						c-1.96-4.84-3.11-9.89-3.65-15.09c-0.49-4.73-0.49-9.45-0.15-14.17c0.66-9.01,2.53-17.74,5.91-26.14
						c2.29-5.71,5.52-10.97,9-16.01c1.78-2.59,3.64-5.13,5.47-7.69c1.76-2.45,3.44-4.87,3.9-7.93c0.02-0.11,0.04-0.21,0.06-0.32
						c0.11-0.58-0.26-1.37,0.2-1.71c0.54-0.4,1.36-0.22,2.06-0.28c2.65-0.2,5.23-0.69,7.58-2.01c1.7-0.96,3.22-2.14,4.23-3.86
						c0.39-0.66,0.65-1.36,0.68-2.15c0.04-1.02-0.34-1.79-1.18-2.36c-1.12-0.76-2.35-1.36-3.41-2.24c-0.59-0.49-0.88-1.01-0.88-1.8
						c0-2.44,0.52-4.75,1.49-6.97c1.63-3.72,4.61-5.66,8.49-6.39c1.01-0.19,2.03-0.39,3.02-0.34c5.87-0.01,9.91,2.84,12.21,8.01
						c0.03,0.07,0.05,0.14,0.08,0.2c-0.06,0.22-0.07,0.45,0.04,0.7c1.59,3.65,1.69,7.83,0.52,11.61
						c-2.68,8.66-12.63,10.89-16.3,18.86c-1.63,3.54-1.74,7.82,0.44,11.15c-0.26,0.3-0.51,0.61-0.74,0.94
						c-1.3,1.88-1.31,3.98-0.02,5.52c0.6,0.72,1.37,1.16,2.27,1.36c0.59,0.13,0.78,0.47,0.84,1.02c0.66,6.05,1.65,12.05,2.71,18.05
						c0.59,3.34,1.23,6.68,1.98,9.99c0.1,0.44-0.06,0.79-0.23,1.17c-1.23,2.56-1.97,5.24-1.84,8.11c0.18,4.01,1.69,7.44,4.59,10.23
						c0.29,0.28,0.62,0.57,0.99,0.71c0.88,0.35,1.25,0.98,1.48,1.86c0.27,1.05,0.69,2.06,1.12,3.06c0.25,0.59,0.27,1.13,0.12,1.73
						c-2.42,9.61-10.63,18.53-21.76,20.04c-8.16,1.11-15.82-0.37-22.66-5.16C110.2,196.86,107.59,192.72,105.72,188.08z
						 M131.18,218.05c-0.16,1.61-1.16,2.65-2.31,3.6c-2.15,1.76-4.56,3.16-6.79,4.81c-0.79,0.58-1.56,1.18-2.27,1.87
						c-0.22,0.21-0.37,0.32-0.66,0.05c-3.08-2.87-6.69-2.86-10.47-1.88c-0.39,0.1-0.77,0.24-1.28,0.4c1.2-1.61,2.61-2.79,4.16-3.8
						c2.03-1.32,4.1-2.58,6.15-3.86c0.16-0.1,0.33-0.2,0.48-0.31c0.14-0.1,0.24-0.24,0.16-0.42c-0.09-0.22-0.28-0.24-0.48-0.19
						c-0.16,0.04-0.31,0.1-0.46,0.16c-3.89,1.67-7.68,3.5-10.62,6.68c-0.16,0.17-0.37,0.62-0.65,0.09c-1.09-2.1-2.96-2.93-5.17-3.23
						c-0.05-0.01-0.09-0.04-0.21-0.1c1.56-0.97,3.19-1.68,4.81-2.41c3.71-1.66,7.6-2.78,11.44-4.08c0.67-0.23,1.32-0.51,1.97-0.79
						c1.21-0.52,1.79-1.47,1.74-2.77c-0.02-0.66,0.09-0.88,0.81-0.61c2.82,1.05,5.71,1.73,8.75,1.72c0.28,0,0.57-0.01,0.62,0.37
						C131.11,214.9,131.34,216.46,131.18,218.05z M163.59,227.74c-1.19,2.21-2.61,4.27-4.09,6.29c-0.34,0.46-0.55,0.48-1,0.08
						c-1.91-1.66-4.16-2.53-6.7-2.62c-2.67-0.09-5.25,0.31-7.7,1.43c-0.07,0.03-0.15,0.02-0.3,0.03c0.54-1.1,1.27-2,2.01-2.9
						c1.49-1.8,2.91-3.67,4.68-5.22c0.21-0.18,0.58-0.41,0.34-0.72c-0.27-0.34-0.59-0.05-0.85,0.14c-2.37,1.64-4.41,3.63-6.21,5.86
						c-0.19,0.23-0.4,0.45-0.57,0.69c-0.24,0.35-0.39,0.26-0.58-0.05c-0.83-1.38-2.15-1.93-3.65-2.18
						c-0.53-0.09-1.08-0.14-1.71-0.22c0.29-0.38,0.64-0.61,0.98-0.83c2.86-1.9,5.86-3.54,8.93-5.08c1.46-0.73,2.9-1.49,4.08-2.66
						c0.69-0.69,1.2-1.48,1.38-2.45c0.1-0.55,0.29-0.75,0.92-0.62c3.56,0.76,7.08,0.58,10.52-0.61c0.52-0.18,0.69-0.01,0.86,0.48
						C166.24,220.52,165.49,224.2,163.59,227.74z M160.72,214.92c-4.37,0.75-8.57,0.12-12.31-2.47c-0.81-0.56-1.56-1.18-2.16-1.98
						c-0.19-0.25-0.33-0.62-0.74-0.49c-0.42,0.13-0.62,0.5-0.55,0.9c0.12,0.66-0.22,0.66-0.72,0.68c-2.93,0.16-5.71-0.64-8.52-1.23
						c-0.8-0.17-1.6-0.3-2.43-0.25c-0.56,0.03-0.66,0.28-0.35,0.79c-8.68,0.93-17.91-3.04-22.86-12.73c1.1,1.1,2.27,2.12,3.54,3.03
						c4.15,2.93,8.75,4.63,13.79,5.3c4.7,0.62,9.34,0.38,13.89-0.93c5.92-1.72,10.47-5.39,14.15-10.26c2.03-2.68,3.5-5.61,4.36-9.05
						c0.79,1.73,1.49,3.28,2.21,4.82c2.58,5.48,5.5,10.76,9.01,15.7c0.48,0.68,0.45,1.15,0.01,1.8
						C168.55,212.21,164.97,214.2,160.72,214.92z M169.06,213.47c1.47-1.18,2.68-2.49,3.6-4.04c0.25-0.42,0.44-0.14,0.61,0.06
						c1.66,1.85,3.51,3.49,5.75,5.01C175.57,214.51,172.38,213.93,169.06,213.47z M212.69,210.12c-0.71,1.25-1.8,2.1-2.99,2.84
						c-3.04,1.87-6.41,2.8-9.9,3.34c-2.6,0.4-5.21,0.46-7.81,0.3c-6.08-0.39-11.49-2.46-15.94-6.77c-3.87-3.74-6.63-8.27-9.24-12.9
						c-3.07-5.44-5.42-11.21-7.71-17.01c-0.24-0.62-0.15-0.82,0.52-0.98c1.15-0.28,1.88-1.15,2.42-2.16c0.38-0.7,0.6-1.46,0.8-2.22
						c0.7-2.74,2.4-4.56,4.98-5.65c2.68-1.14,5.52-1.86,8.19-3.02c3.4-1.48,6.73-3.09,9.6-5.49c0.05-0.05,0.14-0.05,0.27-0.09
						c0.5,2.85,1.04,5.67,1.69,8.47c2.25,9.62,5.92,18.67,11.08,27.08c2.02,3.29,4.3,6.43,7.31,8.94c1.39,1.16,2.98,2,4.61,2.77
						c0.64,0.3,1.27,0.62,1.83,1.06C212.92,209.02,213.04,209.51,212.69,210.12z"/>
					<path d="M199.89,208.43c-0.21-0.05-0.42-0.11-0.63-0.16c-2.07-0.49-4.07-1.19-5.96-2.18c-5.17-2.73-9.17-6.78-12.54-11.47
						c-3.6-5.01-5.99-10.66-8.06-16.44c-0.1-0.28-0.22-0.56-0.34-0.83c-0.07-0.16-0.2-0.26-0.39-0.21c-0.2,0.06-0.23,0.24-0.2,0.4
						c0.05,0.32,0.12,0.64,0.21,0.95c2.26,7.26,5.39,14.05,10.27,19.97c3.56,4.32,7.81,7.62,13.08,9.56
						c1.43,0.52,2.89,0.94,4.3,1.19c0.52,0,0.74-0.12,0.75-0.34C200.39,208.53,200.13,208.49,199.89,208.43z"/>
					<path d="M143.51,83.44c0.91,1.27,2.59,1.21,3.8,0.4c1.13-0.76,1.86-1.99,2.14-3.31c0.27-1.26,0.19-2.67-0.48-3.8
						c-0.72-1.21-2.12-1.72-3.46-1.23c-1.57,0.58-2.42,2.19-2.74,3.75c-0.25,1.21-0.15,2.52,0.42,3.6
						C143.28,83.06,143.38,83.26,143.51,83.44z M147.24,77.33c1.29,0,1.29,2,0,2C145.95,79.33,145.96,77.33,147.24,77.33z"/>
					<path class="st1" d="M147.24,79.33c1.29,0,1.29-2,0-2C145.96,77.33,145.95,79.33,147.24,79.33z"/>
					<path class="st1" d="M126.02,78.21c1.29,0,1.29-2,0-2C124.73,76.21,124.73,78.21,126.02,78.21z"/>
				</g>
			</g>
			<g>
				<path class="st3" d="M70.54,91.92c1.62,1.38,3.27,2.71,4.82,4.18c3.37,3.2,6.4,6.74,9.07,10.54c0.24,0.34,0.88,0.29,1.08-0.06
					c1.11-1.98,2.51-3.75,3.91-5.53c1.38-1.76,2.71-3.56,3.96-5.42c2.43-3.63,4.56-7.46,6.37-11.44c0.85-1.86,1.64-3.77,1.53-5.85
					c-0.11-2.06-0.98-4.01-2.45-5.47c-2.6-2.58-6.61-3.53-10.1-2.42c-3.08,0.98-5.45,3.5-6.43,6.51c-1.57-2.03-4.02-3.37-6.61-3.52
					c-3.34-0.19-6.63,1.66-8.39,4.47c-1.86,2.97-1.88,6.88-0.25,9.96C67.88,89.49,69.16,90.76,70.54,91.92z"/>
				<path class="st7" d="M99.35,75.29c-0.72-1.12-1.72-2.09-2.7-2.97c-0.99-0.88-2.06-1.55-3.38-1.77
					c-0.41-0.07-0.64,0.21-0.69,0.53c-1.49-0.62-3.16-0.68-4.69,0.17c-0.76,0.42-0.17,1.65,0.6,1.22c2.51-1.4,5.16,0.33,6.51,2.49
					c0.81,1.3,1.23,2.72,0.98,4.24c-0.23,1.42-0.9,2.74-1.59,3.98c-1.4,2.53-3.02,4.93-4.46,7.43c-1.49,2.59-2.89,5.23-4.26,7.88
					c-0.7,1.35-1.66,2.76-2.09,4.22c-0.33,1.12,0.01,2.25,1.09,2.77c0.25,0.12,0.65-0.02,0.79-0.26c1.18-2.08,2.43-4.11,3.73-6.11
					c0.04-0.03,0.09-0.05,0.13-0.1c0.04-0.04,0.07-0.09,0.11-0.13c0,0,0,0,0,0c0,0,0-0.01,0.01-0.01c2.06-2.32,3.68-4.95,5.32-7.58
					c1.63-2.61,3.36-5.21,4.57-8.05C100.4,80.72,100.93,77.73,99.35,75.29z"/>
				<path class="st8" d="M76.55,77.92c0.03-0.98-0.62-1.67-1.56-1.82c-2.18-0.35-4.12,1.4-5.28,3.05c-0.64,0.91-1.09,2.07-0.89,3.2
					c0.12,0.67,0.49,1.32,1.06,1.7c0.31,0.21,0.71,0.35,1.09,0.38c0.59,0.04,1.12-0.17,1.59-0.51c0.47-0.34,0.75-0.86,1.08-1.32
					c0.24-0.35,0.51-0.67,0.79-0.99c0.54-0.58,1.11-1.12,1.74-1.61C76.76,79.53,76.89,78.59,76.55,77.92z"/>
				<path class="st8" d="M75.92,86.69c-0.09-0.19-0.21-0.38-0.36-0.53c-0.3-0.32-0.48-0.42-0.87-0.6c-0.19-0.09-0.41-0.13-0.61-0.14
					c-0.09-0.01-0.2,0.01-0.27,0.01c-0.07,0-0.18,0-0.27,0.02c-0.02,0-0.04,0.01-0.06,0.01c-0.14,0.05-0.29,0.1-0.43,0.14
					c-0.01,0-0.02,0.01-0.03,0.01c-0.07,0.04-0.17,0.11-0.21,0.14c-0.02,0.01-0.04,0.03-0.07,0.04c-0.04,0.01-0.08,0.03-0.12,0.04
					c-0.27,0.13-0.49,0.32-0.66,0.57c-0.07,0.13-0.13,0.26-0.2,0.39c-0.1,0.29-0.12,0.59-0.07,0.89c0.15,0.67,0.43,1.3,0.86,1.84
					c0.13,0.16,0.31,0.31,0.47,0.43c0.28,0.21,0.64,0.33,0.99,0.37c0.34,0.03,0.74-0.04,1.04-0.2c0.15-0.08,0.3-0.17,0.43-0.3
					c0.28-0.27,0.37-0.42,0.53-0.78c0.12-0.28,0.15-0.6,0.16-0.9C76.19,87.64,76.14,87.15,75.92,86.69z"/>
				<path class="st8" d="M90.27,75.09c-0.11-0.19-0.26-0.35-0.45-0.47c-0.25-0.17-0.52-0.26-0.82-0.29
					c-0.39-0.05-0.77,0.02-1.13,0.14c-0.21-0.05-0.44-0.06-0.65,0c-0.14,0.05-0.29,0.1-0.43,0.14c-0.27,0.13-0.49,0.32-0.66,0.57
					c-0.13,0.15-0.24,0.31-0.33,0.48c-0.16,0.28-0.32,0.58-0.42,0.89c-0.03,0.09-0.06,0.18-0.08,0.28
					c-0.05,0.23-0.13,0.48-0.13,0.72c0,0.18,0,0.38,0.03,0.56c0.03,0.19,0.1,0.38,0.17,0.55c0.08,0.2,0.21,0.4,0.36,0.56
					c0.25,0.26,0.52,0.45,0.86,0.58c0.16,0.06,0.34,0.1,0.51,0.11c0.02,0,0.04,0,0.06,0c0.15-0.01,0.3-0.02,0.46-0.03
					c0.02,0,0.03,0,0.05-0.01c0.46-0.1,0.85-0.35,1.2-0.65c0.24-0.21,0.44-0.45,0.65-0.69c0.12-0.14,0.23-0.29,0.32-0.44
					c0.28-0.46,0.53-0.97,0.64-1.5c0.1-0.29,0.12-0.59,0.07-0.89C90.5,75.47,90.41,75.27,90.27,75.09z"/>
				<path class="st1" d="M77.04,76.85c-3.48-1.22-6.51,1.93-7.11,5.14c-0.29,1.6,0.02,3.26,0.95,4.6c1.2,1.73,2.72,3.29,4.08,4.89
					c0.57,0.67,1.59-0.23,1.03-0.9c-1.09-1.29-2.18-2.57-3.27-3.86c-0.96-1.14-1.61-2.29-1.53-3.82c0.14-2.6,2.47-5.8,5.39-4.77
					C77.41,78.42,77.86,77.14,77.04,76.85z"/>
				<path class="st1" d="M79,93.97l-1.01-1.25c-0.11-0.13-0.29-0.22-0.46-0.23c-0.17-0.01-0.38,0.05-0.5,0.17
					c-0.27,0.26-0.31,0.66-0.07,0.96c0.34,0.42,0.68,0.83,1.01,1.25c0.11,0.13,0.29,0.22,0.46,0.23c0.17,0.01,0.38-0.05,0.5-0.17
					C79.21,94.67,79.24,94.27,79,93.97z"/>
				<path class="st1" d="M89.99,73.67c-0.19-0.35-0.56-0.45-0.91-0.31c-1.88,0.74-3.39,2.37-4.01,4.29
					c-0.11,0.34,0.06,0.76,0.41,0.87c0.34,0.11,0.75-0.05,0.87-0.41c0.07-0.21,0.14-0.41,0.23-0.61c0.03-0.06,0.05-0.12,0.08-0.18
					c0.01-0.02,0.01-0.02,0.01-0.03c0,0,0,0,0.01-0.02c0.05-0.1,0.1-0.19,0.16-0.28c0.11-0.19,0.23-0.37,0.36-0.54
					c0.07-0.1,0.15-0.19,0.22-0.28c0.02-0.02,0.04-0.05,0.06-0.07C87.5,76.08,87.58,76,87.58,76c0.3-0.32,0.63-0.6,0.99-0.85
					c0.01-0.01,0.02-0.02,0.03-0.02c0.01-0.01,0.02-0.01,0.04-0.02c0.04-0.02,0.07-0.05,0.11-0.07c0.1-0.06,0.21-0.12,0.31-0.18
					c0.2-0.11,0.41-0.2,0.62-0.28C90.02,74.45,90.16,73.97,89.99,73.67z"/>
				<path d="M98.81,72.88c-2.6-2.58-6.61-3.53-10.1-2.42c-3.08,0.98-5.45,3.5-6.43,6.51c-1.57-2.03-4.02-3.37-6.61-3.52
					c-3.34-0.19-6.63,1.66-8.39,4.47c-1.86,2.97-1.88,6.88-0.25,9.96c0.85,1.61,2.14,2.88,3.51,4.04c1.62,1.38,3.27,2.71,4.82,4.18
					c3.37,3.2,6.4,6.74,9.07,10.54c0.24,0.34,0.88,0.29,1.08-0.06c1.11-1.98,2.51-3.75,3.91-5.53c1.38-1.76,2.71-3.56,3.96-5.42
					c2.43-3.63,4.56-7.46,6.37-11.44c0.85-1.86,1.64-3.77,1.53-5.85C101.16,76.28,100.28,74.33,98.81,72.88z M99.88,79.45
					c-0.2,1.94-1.18,3.79-2.01,5.53c-1.68,3.52-3.63,6.91-5.8,10.14c-2.27,3.36-5.08,6.39-7.19,9.85c-1.94-2.69-4.05-5.25-6.35-7.63
					c-1.26-1.31-2.58-2.56-3.94-3.77c-1.32-1.17-2.73-2.23-4.02-3.42c-2.47-2.29-3.89-5.44-3.21-8.84c0.62-3.11,3.17-5.68,6.28-6.35
					c1.68-0.36,3.45-0.09,4.97,0.69c1.82,0.94,2.78,2.47,3.88,4.12c0.11,0.16,0.26,0.34,0.45,0.3c0.18-0.04,0.24-0.25,0.28-0.43
					c0.19-0.95,0.26-2.02,0.59-2.93c0.26-0.72,0.73-1.43,1.19-2.04c0.97-1.26,2.28-2.26,3.78-2.81c3.17-1.17,7.01-0.29,9.29,2.21
					C99.41,75.53,100.08,77.48,99.88,79.45z"/>
			</g>
		</g>
		<g>
			<g>
				<g>
					<path class="st3" d="M70.8,60.52c-0.05-0.46-0.21-0.88-0.4-1.28c-0.46-1.03-1.02-2-1.84-2.79c-0.42-0.41-0.82-0.85-1.18-1.33
						c-1.18-1.56-0.62-3.6,1.2-4.3c1-0.38,2-0.5,2.96,0.16c0.27,0.19,0.53,0.39,0.69,0.68c0.08,0.15,0.15,0.32,0.02,0.46
						c-0.12,0.15-0.28,0.05-0.42,0c-0.09-0.03-0.19-0.07-0.37-0.14c0.14,0.2,0.24,0.32,0.31,0.45c0.09,0.16,0.19,0.32,0.24,0.49
						c0.08,0.24-0.02,0.34-0.26,0.26c-0.21-0.07-0.42-0.16-0.66-0.26c0.01,0.2,0.17,0.31,0.22,0.47c0.02,0.07,0.07,0.14,0.03,0.2
						c-0.06,0.09-0.15,0.05-0.22,0.02c-0.32-0.11-0.63-0.23-0.95-0.35c-0.63-0.23-1.19,0.05-1.38,0.7c-0.15,0.51-0.06,1,0.19,1.45
						c0.64,1.16,1.48,2.18,2.29,3.21c0.14,0.18,0.24,0.06,0.35-0.03c1.2-0.94,2.38-1.9,3.44-2.99c0.21-0.21,0.35-0.26,0.6-0.05
						c0.42,0.35,0.96,0.37,1.48,0.42c-0.78-0.3-1.35-0.87-1.86-1.5c-0.24-0.29-0.53-0.54-0.83-0.77c-0.35-0.28-0.73-0.39-1.17-0.25
						c-0.11,0.03-0.26,0.13-0.33,0c-0.07-0.12,0.07-0.22,0.15-0.31c0.11-0.13,0.24-0.25,0.38-0.4c-0.24-0.02-0.42,0.11-0.61,0.15
						c-0.08,0.02-0.16,0.05-0.23-0.01c-0.08-0.08-0.03-0.17,0-0.26c0.13-0.36,0.39-0.62,0.73-0.84c-0.14,0-0.29,0-0.43,0
						c-0.07,0-0.15,0.02-0.19-0.06c-0.05-0.09,0.03-0.15,0.08-0.21c0.14-0.14,0.3-0.24,0.49-0.31c0.81-0.32,1.61-0.13,2.4,0.05
						c0.48,0.11,0.93,0.3,1.39,0.46c0.47,0.16,0.66,0.09,0.92-0.33c0.46-0.73,0.81-1.51,0.98-2.36c0.09-0.47,0.04-0.58-0.4-0.73
						c-0.05-0.02-0.1-0.03-0.15-0.04c-0.11-0.03-0.19-0.07-0.16-0.21c0.03-0.15,0.13-0.16,0.26-0.14c0.27,0.05,0.53,0.15,0.79,0.23
						c0.11,0.04,0.25,0.1,0.3-0.07c0.05-0.16-0.05-0.24-0.2-0.29c-0.31-0.11-0.64-0.15-0.96-0.16c-0.14-0.01-0.28-0.02-0.28-0.2
						c0-0.2,0.16-0.18,0.29-0.19c0.33-0.02,0.65,0.01,0.98,0.05c0.12,0.02,0.29,0.04,0.3-0.16c0.01-0.19-0.15-0.15-0.27-0.17
						c-0.51-0.09-1.02-0.08-1.51,0.1c-0.14,0.05-0.26,0-0.38-0.06c-0.25-0.13-0.46-0.31-0.67-0.48c-0.53-0.41-1.09-0.4-1.67-0.11
						c-0.05,0.03-0.11,0.06-0.16,0.1c-0.5,0.44-1.03,0.64-1.7,0.38c-0.26-0.1-0.57-0.06-0.85-0.01c-0.11,0.02-0.24,0.02-0.22,0.19
						c0.02,0.17,0.16,0.17,0.28,0.16c0.07,0,0.14-0.02,0.21-0.03c0.27-0.03,0.53-0.03,0.79,0.02c0.11,0.02,0.2,0.04,0.18,0.19
						c-0.01,0.13-0.08,0.18-0.2,0.17c-0.3-0.02-0.58,0.08-0.88,0.13c-0.1,0.02-0.22,0.04-0.19,0.18c0.03,0.14,0.13,0.21,0.27,0.17
						c0.22-0.06,0.43-0.13,0.65-0.18c0.1-0.03,0.21-0.03,0.26,0.1c0.05,0.14-0.03,0.21-0.15,0.25c-0.14,0.05-0.28,0.12-0.42,0.17
						c-0.21,0.08-0.22,0.2-0.11,0.38c0.3,0.48,0.72,0.83,1.18,1.14c0.09,0.06,0.29,0.1,0.23,0.23c-0.05,0.13-0.22,0.02-0.33-0.01
						c-1.39-0.3-2.34-1.46-2.41-2.94c-0.03-0.57,0.03-1.12,0.18-1.67c0.06-0.2,0.04-0.34-0.09-0.51c-0.23-0.31-0.28-0.65-0.13-1.01
						c0.15-0.34,0.5-0.56,0.87-0.48c0.22,0.05,0.36-0.02,0.52-0.15c1.53-1.23,3.83-1.46,5.5-0.55c0.34,0.19,0.65,0.42,0.93,0.69
						c0.09,0.09,0.16,0.17,0.31,0.14c0.42-0.08,0.75,0.08,0.94,0.45c0.2,0.38,0.15,0.77-0.15,1.08c-0.2,0.2-0.21,0.37-0.13,0.62
						c0.38,1.15,0.71,2.32,0.91,3.52c0.39,2.33,0.34,4.62-0.78,6.77c-0.59,1.12-1.46,2.01-2.4,2.84c-1.76,1.57-3.55,3.11-5.31,4.67
						c-0.52,0.46-1.01,0.95-1.51,1.43c-0.15,0.15-0.27,0.14-0.42,0.01c-2.45-2.11-4.93-4.2-7.35-6.34c-1.4-1.24-2.66-2.64-3.52-4.33
						c-1.22-2.4-1.39-4.86-0.21-7.31c0.98-2.02,2.64-3.2,4.9-3.46c1.68-0.2,3.2,0.22,4.56,1.2c0.86,0.61,1.34,1.47,1.5,2.5
						c0.02,0.1,0.01,0.2,0.01,0.31c0,0.15-0.06,0.25-0.21,0.3c-0.14,0.05-0.23-0.03-0.32-0.12c-0.51-0.57-1.14-0.95-1.9-1.09
						c-1.43-0.26-2.67,0.41-3.25,1.75c-0.73,1.69-0.49,3.28,0.42,4.83c0.67,1.15,1.51,2.18,2.37,3.19
						C69.03,57.76,70.06,59.04,70.8,60.52z M74.12,46.05c0.22-0.01,0.38-0.11,0.39-0.34c0.01-0.22-0.1-0.37-0.34-0.38
						c-0.24-0.01-0.39,0.14-0.41,0.36C73.75,45.91,73.9,46.03,74.12,46.05z M77.94,46.05c0.21-0.01,0.35-0.13,0.35-0.35
						c-0.01-0.22-0.15-0.35-0.37-0.35c-0.21,0-0.35,0.14-0.35,0.34C77.56,45.9,77.68,46.04,77.94,46.05z"/>
				</g>
				<g>
					<path class="st3" d="M77.16,48.48c0.09,0,0.16-0.01,0.22,0c0.09,0.01,0.23-0.05,0.27,0.07c0.04,0.15-0.09,0.22-0.2,0.27
						c-0.4,0.2-0.81,0.22-1.19-0.03c-0.16-0.1-0.27-0.11-0.44-0.02c-0.36,0.2-0.74,0.22-1.11,0.03c-0.09-0.05-0.19-0.11-0.17-0.22
						c0.02-0.14,0.16-0.1,0.25-0.1c0.29,0.01,0.57,0.01,0.83-0.16c0.26-0.17,0.28-0.22,0.04-0.42c-0.19-0.17-0.39-0.33-0.51-0.56
						c-0.2-0.35-0.13-0.5,0.26-0.6c0.42-0.11,0.83-0.07,1.24,0.03c0.27,0.07,0.33,0.19,0.2,0.45c-0.12,0.25-0.3,0.46-0.49,0.66
						c-0.17,0.18-0.12,0.29,0.06,0.41C76.65,48.45,76.91,48.52,77.16,48.48z"/>
				</g>
			</g>
			<g>
				<g>
					<path class="st3" d="M212.67,223.27c0.05,0.46,0.21,0.88,0.4,1.28c0.46,1.03,1.02,2,1.84,2.79c0.42,0.41,0.82,0.85,1.18,1.33
						c1.18,1.56,0.62,3.6-1.2,4.3c-1,0.38-2,0.5-2.96-0.16c-0.27-0.19-0.53-0.39-0.69-0.68c-0.08-0.15-0.15-0.32-0.02-0.46
						c0.12-0.15,0.28-0.05,0.42,0c0.09,0.03,0.19,0.07,0.37,0.14c-0.14-0.2-0.24-0.32-0.31-0.45c-0.09-0.16-0.19-0.32-0.24-0.49
						c-0.08-0.24,0.02-0.34,0.26-0.26c0.21,0.07,0.42,0.16,0.66,0.26c-0.01-0.2-0.17-0.31-0.22-0.47c-0.02-0.07-0.07-0.14-0.03-0.2
						c0.06-0.09,0.15-0.05,0.22-0.02c0.32,0.11,0.63,0.23,0.95,0.35c0.63,0.23,1.19-0.05,1.38-0.7c0.15-0.51,0.06-1-0.19-1.45
						c-0.64-1.16-1.48-2.18-2.29-3.21c-0.14-0.18-0.24-0.06-0.35,0.03c-1.2,0.94-2.38,1.9-3.44,2.99c-0.21,0.21-0.35,0.26-0.6,0.05
						c-0.42-0.35-0.96-0.37-1.48-0.42c0.78,0.3,1.35,0.87,1.86,1.5c0.24,0.29,0.53,0.54,0.83,0.77c0.35,0.28,0.73,0.39,1.17,0.25
						c0.11-0.03,0.26-0.13,0.33,0c0.07,0.12-0.07,0.22-0.15,0.31c-0.11,0.13-0.24,0.25-0.38,0.4c0.24,0.02,0.42-0.11,0.61-0.15
						c0.08-0.02,0.16-0.05,0.23,0.01c0.08,0.08,0.03,0.17,0,0.26c-0.13,0.36-0.39,0.62-0.73,0.84c0.14,0,0.29,0,0.43,0
						c0.07,0,0.15-0.02,0.19,0.06c0.05,0.09-0.03,0.15-0.08,0.21c-0.14,0.14-0.3,0.24-0.49,0.31c-0.81,0.32-1.61,0.13-2.4-0.05
						c-0.48-0.11-0.93-0.3-1.39-0.46c-0.47-0.16-0.66-0.09-0.92,0.33c-0.46,0.73-0.81,1.51-0.98,2.36c-0.09,0.47-0.04,0.58,0.4,0.73
						c0.05,0.02,0.1,0.03,0.15,0.04c0.11,0.03,0.19,0.07,0.16,0.21c-0.03,0.15-0.13,0.16-0.26,0.14c-0.27-0.05-0.53-0.15-0.79-0.23
						c-0.11-0.04-0.25-0.1-0.3,0.07c-0.05,0.16,0.05,0.24,0.2,0.29c0.31,0.11,0.64,0.15,0.96,0.16c0.14,0.01,0.28,0.02,0.28,0.2
						c0,0.2-0.16,0.18-0.29,0.19c-0.33,0.02-0.65-0.01-0.98-0.05c-0.12-0.02-0.29-0.04-0.3,0.16c-0.01,0.19,0.15,0.15,0.27,0.17
						c0.51,0.09,1.02,0.08,1.51-0.1c0.14-0.05,0.26,0,0.38,0.06c0.25,0.13,0.46,0.31,0.67,0.48c0.53,0.41,1.09,0.4,1.67,0.11
						c0.05-0.03,0.11-0.06,0.16-0.1c0.5-0.44,1.03-0.64,1.7-0.38c0.26,0.1,0.57,0.06,0.85,0.01c0.11-0.02,0.24-0.02,0.22-0.19
						c-0.02-0.17-0.16-0.17-0.28-0.16c-0.07,0-0.14,0.02-0.21,0.03c-0.27,0.03-0.53,0.03-0.79-0.02c-0.11-0.02-0.2-0.04-0.18-0.19
						c0.01-0.13,0.08-0.18,0.2-0.17c0.3,0.02,0.58-0.08,0.88-0.13c0.1-0.02,0.22-0.04,0.19-0.18c-0.03-0.14-0.13-0.21-0.27-0.17
						c-0.22,0.06-0.43,0.13-0.65,0.18c-0.1,0.03-0.21,0.03-0.26-0.1c-0.05-0.14,0.03-0.21,0.15-0.25c0.14-0.05,0.28-0.12,0.42-0.17
						c0.21-0.08,0.22-0.2,0.11-0.38c-0.3-0.48-0.72-0.83-1.18-1.14c-0.09-0.06-0.29-0.1-0.23-0.23c0.05-0.13,0.22-0.02,0.33,0.01
						c1.39,0.3,2.34,1.46,2.41,2.94c0.03,0.57-0.03,1.12-0.18,1.67c-0.06,0.2-0.04,0.34,0.09,0.51c0.23,0.31,0.28,0.65,0.13,1.01
						c-0.15,0.34-0.5,0.56-0.87,0.48c-0.22-0.05-0.36,0.02-0.52,0.15c-1.53,1.23-3.83,1.46-5.5,0.55c-0.34-0.19-0.65-0.42-0.93-0.69
						c-0.09-0.09-0.16-0.17-0.31-0.14c-0.42,0.08-0.75-0.08-0.94-0.45c-0.2-0.38-0.15-0.77,0.15-1.08c0.2-0.2,0.21-0.37,0.13-0.62
						c-0.38-1.15-0.71-2.32-0.91-3.52c-0.39-2.33-0.34-4.62,0.78-6.77c0.59-1.12,1.46-2.01,2.4-2.84c1.76-1.57,3.55-3.11,5.31-4.67
						c0.52-0.46,1.01-0.95,1.51-1.43c0.15-0.15,0.27-0.14,0.42-0.01c2.45,2.11,4.93,4.2,7.35,6.34c1.4,1.24,2.66,2.64,3.52,4.33
						c1.22,2.4,1.39,4.86,0.21,7.31c-0.98,2.02-2.64,3.2-4.9,3.46c-1.68,0.2-3.2-0.22-4.56-1.2c-0.86-0.61-1.34-1.47-1.5-2.5
						c-0.02-0.1-0.01-0.2-0.01-0.31c0-0.15,0.06-0.25,0.21-0.3c0.14-0.05,0.23,0.03,0.32,0.12c0.51,0.57,1.14,0.95,1.9,1.09
						c1.43,0.26,2.67-0.41,3.25-1.75c0.73-1.69,0.49-3.28-0.42-4.83c-0.67-1.15-1.51-2.18-2.37-3.19
						C214.43,226.04,213.4,224.76,212.67,223.27z M209.34,237.75c-0.22,0.01-0.38,0.11-0.39,0.34c-0.01,0.22,0.1,0.37,0.34,0.38
						c0.24,0.01,0.39-0.14,0.41-0.36C209.72,237.88,209.56,237.76,209.34,237.75z M205.53,237.75c-0.21,0.01-0.35,0.13-0.35,0.35
						c0.01,0.22,0.15,0.35,0.37,0.35c0.21,0,0.35-0.14,0.35-0.34C205.91,237.89,205.79,237.75,205.53,237.75z"/>
				</g>
				<g>
					<path class="st3" d="M206.3,235.31c-0.09,0-0.16,0.01-0.22,0c-0.09-0.01-0.23,0.05-0.27-0.07c-0.04-0.15,0.09-0.22,0.2-0.27
						c0.4-0.2,0.81-0.22,1.19,0.03c0.16,0.1,0.27,0.11,0.44,0.02c0.36-0.2,0.74-0.22,1.11-0.03c0.09,0.05,0.19,0.11,0.17,0.22
						c-0.02,0.14-0.16,0.1-0.25,0.1c-0.29-0.01-0.57-0.01-0.83,0.16c-0.26,0.17-0.28,0.22-0.04,0.42c0.19,0.17,0.39,0.33,0.51,0.56
						c0.2,0.35,0.13,0.5-0.26,0.6c-0.42,0.11-0.83,0.07-1.24-0.03c-0.27-0.07-0.33-0.19-0.2-0.45c0.12-0.25,0.3-0.46,0.49-0.66
						c0.17-0.18,0.12-0.29-0.06-0.41C206.81,235.35,206.55,235.28,206.3,235.31z"/>
				</g>
			</g>
		</g>
		<g>
			<path class="st3" d="M79.38,26.32c-0.27-0.04-0.55-0.09-0.84-0.09c-0.91,0-1.57,0.51-2.35,1.29l-3.7,3.7l4.81,3.53
				c0.44,0.4,0.78,0.53,1.11,0.53s0.64-0.13,1.09-0.27l0.07,4.43c-0.69,0.27-1.55,0.42-2.39,0.42c-2.22,0-2.97-0.78-4.3-2.64
				l-2.93-4.15c-0.33-0.49-0.6-0.73-1.02-0.73h-0.44v4.43c0.4,0,0.71-0.02,1.29-0.09l0.53-0.07l0.18,2.84l-4.21-0.07l-4.43,0.07
				l-0.04-2.9l0.53,0.09c0.58,0.11,1.33,0.13,1.73,0.13V26.15c-0.4,0-1.15,0.02-1.73,0.13l-0.53,0.09l0.04-2.9l4.43,0.07l4.21-0.07
				l-0.18,2.86l-0.53-0.07c-0.58-0.07-0.89-0.11-1.29-0.11v3.55h1.77l2.35-2.35c0.38-0.38,0.8-0.8,0.8-1c0-0.09-0.04-0.11-0.18-0.11
				c-0.11,0-0.38,0.02-0.58,0.04l0.27-2.82l3.33,0.04l3.1-0.04L79.38,26.32z"/>
		</g>
		<g>
			<path class="st3" d="M204.73,257.13c0.27,0.04,0.55,0.09,0.84,0.09c0.91,0,1.57-0.51,2.35-1.29l3.7-3.7l-4.81-3.53
				c-0.44-0.4-0.78-0.53-1.11-0.53s-0.64,0.13-1.09,0.27l-0.07-4.43c0.69-0.27,1.55-0.42,2.39-0.42c2.22,0,2.97,0.78,4.3,2.64
				l2.93,4.15c0.33,0.49,0.6,0.73,1.02,0.73h0.44v-4.43c-0.4,0-0.71,0.02-1.29,0.09l-0.53,0.07l-0.18-2.84l4.21,0.07l4.43-0.07
				l0.04,2.9l-0.53-0.09c-0.58-0.11-1.33-0.13-1.73-0.13v10.64c0.4,0,1.15-0.02,1.73-0.13l0.53-0.09l-0.04,2.9l-4.43-0.07
				l-4.21,0.07l0.18-2.86l0.53,0.07c0.58,0.07,0.89,0.11,1.29,0.11v-3.55h-1.77l-2.35,2.35c-0.38,0.38-0.8,0.8-0.8,1
				c0,0.09,0.04,0.11,0.18,0.11c0.11,0,0.38-0.02,0.58-0.04l-0.27,2.82l-3.33-0.04l-3.1,0.04L204.73,257.13z"/>
		</g>
	</g>
</g>
</svg>
