<?xml version="1.0" encoding="UTF-8" standalone="no"?>
<!-- Created with Inkscape (http://www.inkscape.org/) -->

<svg
   width="11.5in"
   height="9in"
   viewBox="0 0 292.1 228.60001"
   version="1.1"
   id="svg2453"
   inkscape:version="1.1.2 (0a00cf5339, 2022-02-04)"
   sodipodi:docname="trifold template.svg"
   xmlns:inkscape="http://www.inkscape.org/namespaces/inkscape"
   xmlns:sodipodi="http://sodipodi.sourceforge.net/DTD/sodipodi-0.dtd"
   xmlns="http://www.w3.org/2000/svg"
   xmlns:svg="http://www.w3.org/2000/svg">
  <sodipodi:namedview
     id="namedview2455"
     pagecolor="#505050"
     bordercolor="#ffffff"
     borderopacity="1"
     inkscape:pageshadow="0"
     inkscape:pageopacity="0"
     inkscape:pagecheckerboard="1"
     inkscape:document-units="in"
     showgrid="false"
     units="in"
     inkscape:showpageshadow="false"
     showguides="true"
     inkscape:guide-bbox="true"
     inkscape:lockguides="false"
     inkscape:zoom="0.45923307"
     inkscape:cx="937.4325"
     inkscape:cy="851.41953"
     inkscape:window-width="1880"
     inkscape:window-height="1006"
     inkscape:window-x="1960"
     inkscape:window-y="0"
     inkscape:window-maximized="1"
     inkscape:current-layer="layer7">
    <sodipodi:guide
       position="3.1577281,239.19179"
       orientation="-1,0"
       id="guide2514"
       inkscape:locked="false"
       inkscape:label="Bleed"
       inkscape:color="rgb(0,0,255)" />
    <sodipodi:guide
       position="20.210336,225.34779"
       orientation="0,1"
       id="guide2516"
       inkscape:locked="false"
       inkscape:label="Bleed"
       inkscape:color="rgb(0,0,255)" />
    <sodipodi:guide
       position="288.83433,15.66771"
       orientation="-1,0"
       id="guide2518"
       inkscape:locked="false"
       inkscape:label="Bleed"
       inkscape:color="rgb(0,0,255)" />
    <sodipodi:guide
       position="275.89738,3.0965141"
       orientation="0,1"
       id="guide2520"
       inkscape:locked="false"
       inkscape:label="Bleed"
       inkscape:color="rgb(0,0,255)" />
    <sodipodi:guide
       position="10.01075,6.3332361"
       orientation="0,1"
       id="guide2522"
       inkscape:locked="false"
       inkscape:label="Margin"
       inkscape:color="rgb(0,0,255)" />
    <sodipodi:guide
       position="6.3004701,6.3333563"
       orientation="-1,0"
       id="guide2524"
       inkscape:locked="false"
       inkscape:label="Margin"
       inkscape:color="rgb(0,0,255)" />
    <sodipodi:guide
       position="0,-3.0340244"
       orientation="-1,0"
       id="guide2526"
       inkscape:locked="false"
       inkscape:label=""
       inkscape:color="rgb(0,0,255)" />
    <sodipodi:guide
       position="6.3004717,222.22943"
       orientation="0,1"
       id="guide2528"
       inkscape:locked="false"
       inkscape:label="Margin"
       inkscape:color="rgb(0,0,255)" />
    <sodipodi:guide
       position="72.954362,114.58397"
       orientation="0,1"
       id="guide2530"
       inkscape:locked="false"
       inkscape:label="Cut"
       inkscape:color="rgb(0,0,255)" />
    <sodipodi:guide
       position="0,228.6"
       orientation="0,1104"
       id="guide2995"
       inkscape:locked="false" />
    <sodipodi:guide
       position="292.10001,228.6"
       orientation="864,0"
       id="guide2997"
       inkscape:locked="false" />
    <sodipodi:guide
       position="292.10001,0"
       orientation="0,-1104"
       id="guide2999"
       inkscape:locked="false" />
    <sodipodi:guide
       position="0,0"
       orientation="-864,0"
       id="guide3001"
       inkscape:locked="false" />
    <sodipodi:guide
       position="103.50678,179.78865"
       orientation="-1,0"
       id="guide3032"
       inkscape:locked="false"
       inkscape:label="Fold"
       inkscape:color="rgb(0,0,255)" />
    <sodipodi:guide
       position="194.56934,175.0824"
       orientation="-1,0"
       id="guide3034"
       inkscape:locked="false"
       inkscape:label="Fold"
       inkscape:color="rgb(0,0,255)" />
    <sodipodi:guide
       position="12.667742,232.17078"
       orientation="-1,0"
       id="guide3247"
       inkscape:locked="false"
       inkscape:label="Glue line &lt;"
       inkscape:color="rgb(0,0,255)" />
    <sodipodi:guide
       position="285.67939,-26.56292"
       orientation="-1,0"
       id="guide19971"
       inkscape:label="Margin"
       inkscape:locked="false"
       inkscape:color="rgb(0,0,255)" />
  </sodipodi:namedview>
  <defs
     id="defs2450">
    <clipPath
       id="c">
      <circle
         cx="92"
         cy="87.630997"
         r="85.827003"
         id="circle1421" />
    </clipPath>
    <clipPath
       id="c-3">
      <circle
         cx="92"
         cy="87.630997"
         r="85.827003"
         id="circle1421-6" />
    </clipPath>
    <clipPath
       id="c-2">
      <circle
         cx="92"
         cy="87.630997"
         r="85.827003"
         id="circle1421-9" />
    </clipPath>
    <clipPath
       id="c-3-7">
      <circle
         cx="92"
         cy="87.630997"
         r="85.827003"
         id="circle1421-6-4" />
    </clipPath>
    <clipPath
       id="c-3-7-1">
      <circle
         cx="92"
         cy="87.630997"
         r="85.827003"
         id="circle1421-6-4-7" />
    </clipPath>
    <clipPath
       id="c-3-7-5">
      <circle
         cx="92"
         cy="87.630997"
         r="85.827003"
         id="circle1421-6-4-6" />
    </clipPath>
    <clipPath
       id="c-3-7-5-4">
      <circle
         cx="92"
         cy="87.630997"
         r="85.827003"
         id="circle1421-6-4-6-4" />
    </clipPath>
    <clipPath
       clipPathUnits="userSpaceOnUse"
       id="clipPath16">
      <path
         d="M 0,180 H 180 V 0 H 0 Z"
         id="path14" />
    </clipPath>
    <clipPath
       clipPathUnits="userSpaceOnUse"
       id="clipPath16-3">
      <path
         d="M 0,180 H 180 V 0 H 0 Z"
         id="path14-3" />
    </clipPath>
    <clipPath
       clipPathUnits="userSpaceOnUse"
       id="clipPath16-3-2">
      <path
         d="M 0,180 H 180 V 0 H 0 Z"
         id="path14-3-6" />
    </clipPath>
    <clipPath
       clipPathUnits="userSpaceOnUse"
       id="clipPath16-9">
      <path
         d="M 0,180 H 180 V 0 H 0 Z"
         id="path14-0" />
    </clipPath>
    <clipPath
       clipPathUnits="userSpaceOnUse"
       id="clipPath16-9-1">
      <path
         d="M 0,180 H 180 V 0 H 0 Z"
         id="path14-0-8" />
    </clipPath>
    <clipPath
       clipPathUnits="userSpaceOnUse"
       id="clipPath16-9-1-2">
      <path
         d="M 0,180 H 180 V 0 H 0 Z"
         id="path14-0-8-4" />
    </clipPath>
    <clipPath
       id="c-3-7-2">
      <circle
         cx="92"
         cy="87.630997"
         r="85.827003"
         id="circle1421-6-4-0" />
    </clipPath>
    <clipPath
       id="c-3-7-2-9">
      <circle
         cx="92"
         cy="87.630997"
         r="85.827003"
         id="circle1421-6-4-0-2" />
    </clipPath>
    <clipPath
       id="c-3-7-2-9-3">
      <circle
         cx="92"
         cy="87.630997"
         r="85.827003"
         id="circle1421-6-4-0-2-3" />
    </clipPath>
    <clipPath
       id="c-3-7-2-9-3-9">
      <circle
         cx="92"
         cy="87.630997"
         r="85.827003"
         id="circle1421-6-4-0-2-3-0" />
    </clipPath>
    <clipPath
       id="c-3-7-2-9-3-9-8">
      <circle
         cx="92"
         cy="87.630997"
         r="85.827003"
         id="circle1421-6-4-0-2-3-0-4" />
    </clipPath>
  </defs>
  <g
     inkscape:label="bg colour"
     inkscape:groupmode="layer"
     id="layer1"
     sodipodi:insensitive="true">
    <rect
       style="fill:#ffffff;fill-opacity:1;stroke-width:0.564999"
       id="rect2554"
       width="292.16629"
       height="228.64662"
       x="-0.011929352"
       y="-0.038824182"
       ry="0" />
  </g>
  <g
     inkscape:groupmode="layer"
     id="layer7"
     inkscape:label="Bottom row gulls" />
  <g
     inkscape:groupmode="layer"
     id="layer8"
     inkscape:label="Bottom Banner">
    <rect
       style="display:inline;fill:#074558;fill-opacity:1;stroke:none;stroke-width:14.351;stroke-miterlimit:4;stroke-dasharray:none"
       id="rect846-1"
       width="292.16629"
       height="25.068905"
       x="-0.066280283"
       y="114.01611" />
    <rect
       style="display:inline;fill:#fcb320;fill-opacity:1;stroke:none;stroke-width:14.351;stroke-miterlimit:4;stroke-dasharray:none"
       id="rect1146-5"
       width="292.16629"
       height="2.1241248"
       x="-0.016213058"
       y="-141.12602"
       transform="scale(1,-1)" />
    <g
       id="g1756-3-4"
       transform="matrix(0.12960724,0,0,0.12960724,4.0487437,118.42735)"
       style="stroke-width:195.977">
      <circle
         fill="#1d7193"
         cx="416.94077"
         cy="97.05352"
         r="64.527397"
         id="circle1426-5-3"
         style="display:inline;stroke-width:51.8522" />
      <circle
         fill="#0c5a73"
         cx="92"
         cy="270.047"
         r="197.545"
         clip-path="url(#c-3-7)"
         id="circle1428-6-0"
         transform="matrix(0.75183092,0,0,0.75183092,347.77235,31.169803)"
         style="display:inline;stroke-width:68.9679" />
      <path
         fill="#000000"
         d="m 416.94231,31.211903 c -36.34876,0 -65.84311,29.49432 -65.84311,65.84308 0,36.348767 29.49435,65.843117 65.84311,65.843117 36.34877,0 65.84309,-29.49435 65.84309,-65.843117 0,-36.34876 -29.49432,-65.84308 -65.84309,-65.84308 z m 0,2.6314 c 34.92628,0 63.21168,28.28538 63.21168,63.21168 0,34.926307 -28.2854,63.211687 -63.21168,63.211687 -34.92631,0 -63.2117,-28.28538 -63.2117,-63.211687 0,-34.9263 28.28539,-63.21094 63.2117,-63.21094 z"
         id="path1430-2-7"
         style="display:inline;stroke-width:51.8522" />
      <path
         fill="#ffffff"
         d="m 426.61762,59.078513 v 36.24051 h 9.08963 v -36.24128 z"
         id="path1432-9-8"
         style="display:inline;stroke-width:51.8522" />
      <path
         fill="#e0e0e0"
         d="m 434.0472,59.830333 v 34.73684 h 3.25317 v -34.73758 z"
         id="path1434-1-6"
         style="display:inline;stroke-width:51.8522" />
      <path
         fill="#b1742a"
         d="m 428.88362,136.58099 -3.0216,-25.31414 c 0,0 -0.51501,-1.1909 -2.30059,-1.1909 -1.78561,0 -1.7593,1.1909 -1.7593,1.1909 l 2.51865,28.72971 h 13.7134 l -3.09004,-2.33895 z"
         id="path1436-2-8"
         style="display:inline;stroke-width:51.8522" />
      <path
         fill="#ffffff"
         d="m 373.87142,117.45441 11.93381,-0.46914 32.66931,-0.41126 15.40953,-10.04596 6.99804,-9.881307 0.96232,-2.73816 -21.47377,-20.87835 z"
         id="path1438-7-8"
         style="display:inline;stroke-width:51.8522" />
      <path
         fill="#e0e0e0"
         d="m 374.20448,117.45441 h 46.05414 c 10.71134,-4.52226 21.99784,-13.72092 21.58581,-23.545827 -5.2147,7.684467 -10.37526,12.905167 -17.60259,16.358317 -15.20428,7.26421 -37.04799,4.88164 -50.03736,7.18751 z"
         id="path1440-0-4"
         style="display:inline;stroke-width:51.8522" />
      <path
         fill="#fcb320"
         d="m 416.58291,136.58099 2.01493,-25.31414 c 0,0 -0.51427,-1.1909 -2.30062,-1.1909 -1.78635,0 -1.75776,1.1909 -1.75776,1.1909 l -2.51865,28.72971 h 13.71265 l -3.09003,-2.33895 z"
         id="path1442-9-3"
         style="display:inline;stroke-width:51.8522" />
      <path
         fill="#b3b3b3"
         d="m 378.98837,107.37237 29.85446,-26.837367 v 28.902647 l -29.85372,26.8381 z"
         id="path1444-3-1"
         style="display:inline;stroke-width:51.8522" />
      <path
         fill="#cccccc"
         d="m 378.98837,107.37237 29.85446,-26.837367 v 9.22949 L 378.98988,116.6026 Z"
         id="path1446-6-4"
         style="display:inline;stroke-width:51.8522" />
      <path
         fill="#0d0d0d"
         d="m 366.81172,102.46893 12.04282,10.36774 10.76172,-10.36774 z"
         id="path1448-0-9"
         style="display:inline;stroke-width:51.8522" />
      <path
         fill="#565656"
         d="m 366.81172,102.46893 18.18077,4.45385 4.62377,-4.45385 z"
         id="path1450-6-2"
         style="display:inline;stroke-width:51.8522" />
      <path
         fill="#0d0d0d"
         d="m 371.31066,112.18183 h 24.91343 l -10.95867,9.58884 h -23.5451 z"
         id="path1452-2-0"
         style="display:inline;stroke-width:51.8522" />
      <path
         fill="#e0e0e0"
         d="m 448.04555,57.636503 c 0,4.01928 -8.43328,10.22265 -12.89917,10.22265 l 0.11736,-2.60134 c -3.68398,0.45334 -6.55672,-4.92526 -6.55672,-10.17528 0,-3.17423 3.75314,-7.13941 6.63114,-7.13941 6.02593,0.9007 12.70745,8.43406 12.70745,9.69338 z"
         id="path1454-6-6"
         style="display:inline;stroke-width:51.8522" />
      <path
         fill="#ffffff"
         d="m 447.74707,57.559043 c -1.82545,4.34635 -8.15887,8.75208 -13.02923,8.75208 -5.96203,0 -10.064,-2.71563 -10.17076,-8.67462 -0.10911,-6.14247 4.73502,-10.14146 10.79028,-10.14146 6.0635,0 11.13385,6.55222 12.40971,10.06477 z"
         id="path1456-1-8"
         style="display:inline;stroke-width:51.8522" />
      <path
         fill="#0d0d0d"
         d="m 439.2777,54.056273 c 0,0.69545 -0.56237,1.25782 -1.25932,1.25782 -0.6932,0 -2.46151,-1.25782 -2.46151,-1.25782 0,0 1.76757,-1.25404 2.46151,-1.25404 a 1.2555576,1.2555576 0 0 1 1.25932,1.25404 z"
         id="path1458-8-9"
         style="display:inline;stroke-width:51.8522" />
      <path
         fill="#b1742a"
         d="m 442.33312,58.318393 4.48394,2.39308 10.50007,-0.66009 4.12831,0.88188 1.52995,-1.77129 -17.38984,-1.82696 z"
         id="path1460-7-2"
         style="display:inline;stroke-width:51.8522" />
      <path
         fill="#fcb320"
         d="m 446.44942,55.005103 -4.1163,3.31329 21.03626,1.06911 -1.46008,-2.72011 -3.35317,-0.0392 z"
         id="path1462-9-6"
         style="display:inline;stroke-width:51.8522" />
      <path
         fill="#96412a"
         d="m 460.81313,59.658933 -2.37427,0.63154 2.81185,0.60144 z"
         id="path1464-2-6"
         style="display:inline;stroke-width:51.8522" />
      <path
         fill="#cccccc"
         d="m 350.18422,151.29732 h 26.10583 v 28.92146 h -26.10583 l 9.30391,-14.46147 z m 133.51315,0 h -26.10583 v 28.92146 h 26.10583 l -9.30391,-14.46147 z"
         id="path1466-0-4"
         style="display:inline;stroke-width:51.8522" />
      <path
         fill="#000000"
         d="m 347.77235,149.98312 10.14971,15.77342 -10.14971,15.77944 h 29.8319 v -31.55286 z m 4.8245,2.63141 h 22.37525 v 26.29002 h -22.37448 l 8.45581,-13.14801 z m 133.51238,-2.63141 -10.1497,15.77342 10.1497,15.77944 h -29.83189 v -31.55286 z m -4.82449,2.63141 h -22.37523 v 26.29002 H 481.284 l -8.45585,-13.14801 z"
         id="path1468-2-9"
         style="display:inline;stroke-width:51.8522" />
      <path
         fill="#828282"
         d="m 364.13218,174.13871 12.15787,5.36808 V 164.5025 m 93.46009,9.63621 -12.1586,5.36808 V 164.5025"
         id="path1470-3-5"
         style="display:inline;stroke-width:51.8522" />
      <path
         fill="#000000"
         d="m 374.9721,164.50173 v 12.98639 l -10.30988,-4.55233 -1.06007,2.40962 14.0021,6.18003 v -17.02371 z m 83.93741,0 v 12.98639 l 10.30986,-4.55233 1.06007,2.40962 -14.0021,6.18003 v -17.02371 z"
         id="path1472-7-0"
         style="display:inline;stroke-width:51.8522" />
      <path
         fill="#efefef"
         d="m 364.93288,141.30777 h 104.01583 v 32.7287 H 364.93288 Z"
         id="path1474-5-4"
         style="display:inline;stroke-width:51.8522" />
      <path
         fill="#000000"
         d="m 363.61042,139.99883 v 35.34882 h 106.65774 v -35.34882 z m 2.64495,2.62012 h 101.37312 v 30.10858 H 366.25537 Z"
         id="path1476-9-8"
         style="display:inline;stroke-width:51.8522" />
      <path
         fill="#0c5a73"
         d="m 388.68323,165.38438 c -3.14266,0 -3.82231,-2.2194 -4.84177,-2.2194 -0.7075,0 -1.30218,0.927 -1.30218,1.60139 0,1.40444 2.5765,3.3156 6.25747,3.3156 3.73737,0 6.45524,-1.96679 6.45524,-5.9846 0,-7.47317 -9.20241,-5.59135 -9.20241,-9.74898 0,-1.77055 1.47358,-2.55699 3.5396,-2.55699 2.40737,0 3.14265,1.06761 3.90803,1.06761 0.84957,0 1.24577,-1.03979 1.24577,-1.60139 0,-1.54502 -3.31332,-2.02243 -5.1538,-2.02243 -3.02988,0 -6.54092,1.23602 -6.54092,5.39363 0,6.74318 9.20241,4.80421 9.20241,9.77757 0,2.02243 -1.52848,2.97799 -3.56744,2.97799 z m 14.46899,-11.01357 c -3.25617,0 -5.88985,2.50061 -5.88985,5.45078 v 2.669 c 0,3.34338 2.71864,5.59138 6.56876,5.59138 2.85995,0 4.70043,-1.29317 4.70043,-2.13521 0,-0.50597 -0.45334,-1.32096 -1.1608,-1.32096 -0.76464,0 -1.44352,1.0676 -3.45469,1.0676 -2.18031,0 -3.6802,-1.18038 -3.6802,-3.06221 v -0.64657 h 5.97405 c 1.27436,0 2.57653,-0.0841 2.57653,-2.41564 0,-3.06296 -2.60512,-5.19817 -5.63423,-5.19817 z m -2.91712,5.78759 v -0.89842 c 0,-1.54578 1.33076,-2.64117 2.88854,-2.64117 1.61418,0 2.85998,1.20817 2.85998,2.69681 0,0.67439 -0.22704,0.84278 -1.04806,0.84278 z m 15.23361,-5.78759 c -1.92545,0 -4.27565,0.78717 -4.27565,1.79837 0,0.67442 0.36838,1.48864 1.07587,1.48864 0.56613,0 1.07585,-0.84204 3.14263,-0.84204 2.06755,0 2.8036,1.6014 2.8036,3.03363 v 0.50597 h -1.24579 c -3.93583,0 -6.62588,0.84281 -6.62588,4.0178 0,2.5284 1.69914,3.70879 3.76593,3.70879 1.92467,0 3.28473,-1.03979 4.27564,-2.19159 v 0.98338 c 0,0.53382 0.59395,0.98341 1.35855,0.98341 0.82176,0 1.44429,-0.44959 1.44429,-0.98341 v -7.05217 c 0,-2.8096 -1.55704,-5.45078 -5.71919,-5.45078 z m 2.74645,8.65359 c 0,1.34878 -1.6142,2.80957 -3.0299,2.80957 -1.04729,0 -1.84048,-0.5616 -1.84048,-1.82618 0,-1.79837 2.01041,-2.02243 4.16215,-2.02243 h 0.70823 z m 15.62904,-10.058 c 0.0287,0.73003 0.70823,0.98338 1.50066,0.98338 0.99091,0 1.50066,-0.28132 1.50066,-1.43297 0,-3.175 -2.66147,-5.19817 -6.45521,-5.19817 -3.45466,0 -6.2575,1.71418 -6.2575,6.26577 v 8.17541 c 0,4.55157 2.74643,6.26574 6.34246,6.26574 3.56742,0 6.37025,-1.71417 6.37025,-6.26574 v -3.68022 c 0,-0.53379 -0.36841,-1.0112 -0.99091,-1.0112 h -4.87036 c -0.62253,0 -0.96235,0.61798 -0.96235,1.18036 0,0.61724 0.33982,1.20743 0.96235,1.20743 h 2.85995 v 2.30363 c 0,2.47276 -1.27435,3.62456 -3.36893,3.62456 -2.12393,0 -3.34114,-1.1518 -3.34114,-3.62382 v -8.17615 c 0,-2.47279 1.21721,-3.62382 3.34114,-3.62382 2.46298,0 3.19904,1.37583 3.36893,3.00581 z m 16.59216,14.89077 c 0.59394,0 0.90598,-0.67439 0.90598,-1.32099 0,-0.67439 -0.31127,-1.32019 -0.90598,-1.32019 h -7.36193 v -16.94178 c 0,-0.67439 -0.73602,-0.95483 -1.50066,-0.95483 -0.73602,0 -1.50063,0.28047 -1.50063,0.95483 v 18.59955 c 0,0.64657 0.67965,0.98341 1.33074,0.98341 z"
         id="path1478-2-7"
         style="display:inline;stroke-width:51.8522" />
    </g>
    <g
       id="g1756-3-4-0"
       transform="matrix(0.12960724,0,0,0.12960724,94.999598,118.42735)"
       style="stroke-width:195.977">
      <circle
         fill="#1d7193"
         cx="416.94077"
         cy="97.05352"
         r="64.527397"
         id="circle1426-5-3-6"
         style="display:inline;stroke-width:51.8522" />
      <circle
         fill="#0c5a73"
         cx="92"
         cy="270.047"
         r="197.545"
         clip-path="url(#c-3-7-2)"
         id="circle1428-6-0-3"
         transform="matrix(0.75183092,0,0,0.75183092,347.77235,31.169803)"
         style="display:inline;stroke-width:68.9679" />
      <path
         fill="#000000"
         d="m 416.94231,31.211903 c -36.34876,0 -65.84311,29.49432 -65.84311,65.84308 0,36.348767 29.49435,65.843117 65.84311,65.843117 36.34877,0 65.84309,-29.49435 65.84309,-65.843117 0,-36.34876 -29.49432,-65.84308 -65.84309,-65.84308 z m 0,2.6314 c 34.92628,0 63.21168,28.28538 63.21168,63.21168 0,34.926307 -28.2854,63.211687 -63.21168,63.211687 -34.92631,0 -63.2117,-28.28538 -63.2117,-63.211687 0,-34.9263 28.28539,-63.21094 63.2117,-63.21094 z"
         id="path1430-2-7-9"
         style="display:inline;stroke-width:51.8522" />
      <path
         fill="#ffffff"
         d="m 426.61762,59.078513 v 36.24051 h 9.08963 v -36.24128 z"
         id="path1432-9-8-0"
         style="display:inline;stroke-width:51.8522" />
      <path
         fill="#e0e0e0"
         d="m 434.0472,59.830333 v 34.73684 h 3.25317 v -34.73758 z"
         id="path1434-1-6-8"
         style="display:inline;stroke-width:51.8522" />
      <path
         fill="#b1742a"
         d="m 428.88362,136.58099 -3.0216,-25.31414 c 0,0 -0.51501,-1.1909 -2.30059,-1.1909 -1.78561,0 -1.7593,1.1909 -1.7593,1.1909 l 2.51865,28.72971 h 13.7134 l -3.09004,-2.33895 z"
         id="path1436-2-8-3"
         style="display:inline;stroke-width:51.8522" />
      <path
         fill="#ffffff"
         d="m 373.87142,117.45441 11.93381,-0.46914 32.66931,-0.41126 15.40953,-10.04596 6.99804,-9.881307 0.96232,-2.73816 -21.47377,-20.87835 z"
         id="path1438-7-8-8"
         style="display:inline;stroke-width:51.8522" />
      <path
         fill="#e0e0e0"
         d="m 374.20448,117.45441 h 46.05414 c 10.71134,-4.52226 21.99784,-13.72092 21.58581,-23.545827 -5.2147,7.684467 -10.37526,12.905167 -17.60259,16.358317 -15.20428,7.26421 -37.04799,4.88164 -50.03736,7.18751 z"
         id="path1440-0-4-7"
         style="display:inline;stroke-width:51.8522" />
      <path
         fill="#fcb320"
         d="m 416.58291,136.58099 2.01493,-25.31414 c 0,0 -0.51427,-1.1909 -2.30062,-1.1909 -1.78635,0 -1.75776,1.1909 -1.75776,1.1909 l -2.51865,28.72971 h 13.71265 l -3.09003,-2.33895 z"
         id="path1442-9-3-3"
         style="display:inline;stroke-width:51.8522" />
      <path
         fill="#b3b3b3"
         d="m 378.98837,107.37237 29.85446,-26.837367 v 28.902647 l -29.85372,26.8381 z"
         id="path1444-3-1-1"
         style="display:inline;stroke-width:51.8522" />
      <path
         fill="#cccccc"
         d="m 378.98837,107.37237 29.85446,-26.837367 v 9.22949 L 378.98988,116.6026 Z"
         id="path1446-6-4-0"
         style="display:inline;stroke-width:51.8522" />
      <path
         fill="#0d0d0d"
         d="m 366.81172,102.46893 12.04282,10.36774 10.76172,-10.36774 z"
         id="path1448-0-9-0"
         style="display:inline;stroke-width:51.8522" />
      <path
         fill="#565656"
         d="m 366.81172,102.46893 18.18077,4.45385 4.62377,-4.45385 z"
         id="path1450-6-2-5"
         style="display:inline;stroke-width:51.8522" />
      <path
         fill="#0d0d0d"
         d="m 371.31066,112.18183 h 24.91343 l -10.95867,9.58884 h -23.5451 z"
         id="path1452-2-0-0"
         style="display:inline;stroke-width:51.8522" />
      <path
         fill="#e0e0e0"
         d="m 448.04555,57.636503 c 0,4.01928 -8.43328,10.22265 -12.89917,10.22265 l 0.11736,-2.60134 c -3.68398,0.45334 -6.55672,-4.92526 -6.55672,-10.17528 0,-3.17423 3.75314,-7.13941 6.63114,-7.13941 6.02593,0.9007 12.70745,8.43406 12.70745,9.69338 z"
         id="path1454-6-6-31"
         style="display:inline;stroke-width:51.8522" />
      <path
         fill="#ffffff"
         d="m 447.74707,57.559043 c -1.82545,4.34635 -8.15887,8.75208 -13.02923,8.75208 -5.96203,0 -10.064,-2.71563 -10.17076,-8.67462 -0.10911,-6.14247 4.73502,-10.14146 10.79028,-10.14146 6.0635,0 11.13385,6.55222 12.40971,10.06477 z"
         id="path1456-1-8-80"
         style="display:inline;stroke-width:51.8522" />
      <path
         fill="#0d0d0d"
         d="m 439.2777,54.056273 c 0,0.69545 -0.56237,1.25782 -1.25932,1.25782 -0.6932,0 -2.46151,-1.25782 -2.46151,-1.25782 0,0 1.76757,-1.25404 2.46151,-1.25404 a 1.2555576,1.2555576 0 0 1 1.25932,1.25404 z"
         id="path1458-8-9-1"
         style="display:inline;stroke-width:51.8522" />
      <path
         fill="#b1742a"
         d="m 442.33312,58.318393 4.48394,2.39308 10.50007,-0.66009 4.12831,0.88188 1.52995,-1.77129 -17.38984,-1.82696 z"
         id="path1460-7-2-7"
         style="display:inline;stroke-width:51.8522" />
      <path
         fill="#fcb320"
         d="m 446.44942,55.005103 -4.1163,3.31329 21.03626,1.06911 -1.46008,-2.72011 -3.35317,-0.0392 z"
         id="path1462-9-6-9"
         style="display:inline;stroke-width:51.8522" />
      <path
         fill="#96412a"
         d="m 460.81313,59.658933 -2.37427,0.63154 2.81185,0.60144 z"
         id="path1464-2-6-1"
         style="display:inline;stroke-width:51.8522" />
      <path
         fill="#cccccc"
         d="m 350.18422,151.29732 h 26.10583 v 28.92146 h -26.10583 l 9.30391,-14.46147 z m 133.51315,0 h -26.10583 v 28.92146 h 26.10583 l -9.30391,-14.46147 z"
         id="path1466-0-4-0"
         style="display:inline;stroke-width:51.8522" />
      <path
         fill="#000000"
         d="m 347.77235,149.98312 10.14971,15.77342 -10.14971,15.77944 h 29.8319 v -31.55286 z m 4.8245,2.63141 h 22.37525 v 26.29002 h -22.37448 l 8.45581,-13.14801 z m 133.51238,-2.63141 -10.1497,15.77342 10.1497,15.77944 h -29.83189 v -31.55286 z m -4.82449,2.63141 h -22.37523 v 26.29002 H 481.284 l -8.45585,-13.14801 z"
         id="path1468-2-9-3"
         style="display:inline;stroke-width:51.8522" />
      <path
         fill="#828282"
         d="m 364.13218,174.13871 12.15787,5.36808 V 164.5025 m 93.46009,9.63621 -12.1586,5.36808 V 164.5025"
         id="path1470-3-5-5"
         style="display:inline;stroke-width:51.8522" />
      <path
         fill="#000000"
         d="m 374.9721,164.50173 v 12.98639 l -10.30988,-4.55233 -1.06007,2.40962 14.0021,6.18003 v -17.02371 z m 83.93741,0 v 12.98639 l 10.30986,-4.55233 1.06007,2.40962 -14.0021,6.18003 v -17.02371 z"
         id="path1472-7-0-9"
         style="display:inline;stroke-width:51.8522" />
      <path
         fill="#efefef"
         d="m 364.93288,141.30777 h 104.01583 v 32.7287 H 364.93288 Z"
         id="path1474-5-4-4"
         style="display:inline;stroke-width:51.8522" />
      <path
         fill="#000000"
         d="m 363.61042,139.99883 v 35.34882 h 106.65774 v -35.34882 z m 2.64495,2.62012 h 101.37312 v 30.10858 H 366.25537 Z"
         id="path1476-9-8-8"
         style="display:inline;stroke-width:51.8522" />
      <path
         fill="#0c5a73"
         d="m 388.68323,165.38438 c -3.14266,0 -3.82231,-2.2194 -4.84177,-2.2194 -0.7075,0 -1.30218,0.927 -1.30218,1.60139 0,1.40444 2.5765,3.3156 6.25747,3.3156 3.73737,0 6.45524,-1.96679 6.45524,-5.9846 0,-7.47317 -9.20241,-5.59135 -9.20241,-9.74898 0,-1.77055 1.47358,-2.55699 3.5396,-2.55699 2.40737,0 3.14265,1.06761 3.90803,1.06761 0.84957,0 1.24577,-1.03979 1.24577,-1.60139 0,-1.54502 -3.31332,-2.02243 -5.1538,-2.02243 -3.02988,0 -6.54092,1.23602 -6.54092,5.39363 0,6.74318 9.20241,4.80421 9.20241,9.77757 0,2.02243 -1.52848,2.97799 -3.56744,2.97799 z m 14.46899,-11.01357 c -3.25617,0 -5.88985,2.50061 -5.88985,5.45078 v 2.669 c 0,3.34338 2.71864,5.59138 6.56876,5.59138 2.85995,0 4.70043,-1.29317 4.70043,-2.13521 0,-0.50597 -0.45334,-1.32096 -1.1608,-1.32096 -0.76464,0 -1.44352,1.0676 -3.45469,1.0676 -2.18031,0 -3.6802,-1.18038 -3.6802,-3.06221 v -0.64657 h 5.97405 c 1.27436,0 2.57653,-0.0841 2.57653,-2.41564 0,-3.06296 -2.60512,-5.19817 -5.63423,-5.19817 z m -2.91712,5.78759 v -0.89842 c 0,-1.54578 1.33076,-2.64117 2.88854,-2.64117 1.61418,0 2.85998,1.20817 2.85998,2.69681 0,0.67439 -0.22704,0.84278 -1.04806,0.84278 z m 15.23361,-5.78759 c -1.92545,0 -4.27565,0.78717 -4.27565,1.79837 0,0.67442 0.36838,1.48864 1.07587,1.48864 0.56613,0 1.07585,-0.84204 3.14263,-0.84204 2.06755,0 2.8036,1.6014 2.8036,3.03363 v 0.50597 h -1.24579 c -3.93583,0 -6.62588,0.84281 -6.62588,4.0178 0,2.5284 1.69914,3.70879 3.76593,3.70879 1.92467,0 3.28473,-1.03979 4.27564,-2.19159 v 0.98338 c 0,0.53382 0.59395,0.98341 1.35855,0.98341 0.82176,0 1.44429,-0.44959 1.44429,-0.98341 v -7.05217 c 0,-2.8096 -1.55704,-5.45078 -5.71919,-5.45078 z m 2.74645,8.65359 c 0,1.34878 -1.6142,2.80957 -3.0299,2.80957 -1.04729,0 -1.84048,-0.5616 -1.84048,-1.82618 0,-1.79837 2.01041,-2.02243 4.16215,-2.02243 h 0.70823 z m 15.62904,-10.058 c 0.0287,0.73003 0.70823,0.98338 1.50066,0.98338 0.99091,0 1.50066,-0.28132 1.50066,-1.43297 0,-3.175 -2.66147,-5.19817 -6.45521,-5.19817 -3.45466,0 -6.2575,1.71418 -6.2575,6.26577 v 8.17541 c 0,4.55157 2.74643,6.26574 6.34246,6.26574 3.56742,0 6.37025,-1.71417 6.37025,-6.26574 v -3.68022 c 0,-0.53379 -0.36841,-1.0112 -0.99091,-1.0112 h -4.87036 c -0.62253,0 -0.96235,0.61798 -0.96235,1.18036 0,0.61724 0.33982,1.20743 0.96235,1.20743 h 2.85995 v 2.30363 c 0,2.47276 -1.27435,3.62456 -3.36893,3.62456 -2.12393,0 -3.34114,-1.1518 -3.34114,-3.62382 v -8.17615 c 0,-2.47279 1.21721,-3.62382 3.34114,-3.62382 2.46298,0 3.19904,1.37583 3.36893,3.00581 z m 16.59216,14.89077 c 0.59394,0 0.90598,-0.67439 0.90598,-1.32099 0,-0.67439 -0.31127,-1.32019 -0.90598,-1.32019 h -7.36193 v -16.94178 c 0,-0.67439 -0.73602,-0.95483 -1.50066,-0.95483 -0.73602,0 -1.50063,0.28047 -1.50063,0.95483 v 18.59955 c 0,0.64657 0.67965,0.98341 1.33074,0.98341 z"
         id="path1478-2-7-46"
         style="display:inline;stroke-width:51.8522" />
    </g>
    <g
       id="g1756-3-4-0-9"
       transform="matrix(0.12960724,0,0,0.12960724,186.08717,118.42735)"
       style="stroke-width:195.977">
      <circle
         fill="#1d7193"
         cx="416.94077"
         cy="97.05352"
         r="64.527397"
         id="circle1426-5-3-6-0"
         style="display:inline;stroke-width:51.8522" />
      <circle
         fill="#0c5a73"
         cx="92"
         cy="270.047"
         r="197.545"
         clip-path="url(#c-3-7-2-9)"
         id="circle1428-6-0-3-3"
         transform="matrix(0.75183092,0,0,0.75183092,347.77235,31.169803)"
         style="display:inline;stroke-width:68.9679" />
      <path
         fill="#000000"
         d="m 416.94231,31.211903 c -36.34876,0 -65.84311,29.49432 -65.84311,65.84308 0,36.348767 29.49435,65.843117 65.84311,65.843117 36.34877,0 65.84309,-29.49435 65.84309,-65.843117 0,-36.34876 -29.49432,-65.84308 -65.84309,-65.84308 z m 0,2.6314 c 34.92628,0 63.21168,28.28538 63.21168,63.21168 0,34.926307 -28.2854,63.211687 -63.21168,63.211687 -34.92631,0 -63.2117,-28.28538 -63.2117,-63.211687 0,-34.9263 28.28539,-63.21094 63.2117,-63.21094 z"
         id="path1430-2-7-9-0"
         style="display:inline;stroke-width:51.8522" />
      <path
         fill="#ffffff"
         d="m 426.61762,59.078513 v 36.24051 h 9.08963 v -36.24128 z"
         id="path1432-9-8-0-3"
         style="display:inline;stroke-width:51.8522" />
      <path
         fill="#e0e0e0"
         d="m 434.0472,59.830333 v 34.73684 h 3.25317 v -34.73758 z"
         id="path1434-1-6-8-3"
         style="display:inline;stroke-width:51.8522" />
      <path
         fill="#b1742a"
         d="m 428.88362,136.58099 -3.0216,-25.31414 c 0,0 -0.51501,-1.1909 -2.30059,-1.1909 -1.78561,0 -1.7593,1.1909 -1.7593,1.1909 l 2.51865,28.72971 h 13.7134 l -3.09004,-2.33895 z"
         id="path1436-2-8-3-7"
         style="display:inline;stroke-width:51.8522" />
      <path
         fill="#ffffff"
         d="m 373.87142,117.45441 11.93381,-0.46914 32.66931,-0.41126 15.40953,-10.04596 6.99804,-9.881307 0.96232,-2.73816 -21.47377,-20.87835 z"
         id="path1438-7-8-8-9"
         style="display:inline;stroke-width:51.8522" />
      <path
         fill="#e0e0e0"
         d="m 374.20448,117.45441 h 46.05414 c 10.71134,-4.52226 21.99784,-13.72092 21.58581,-23.545827 -5.2147,7.684467 -10.37526,12.905167 -17.60259,16.358317 -15.20428,7.26421 -37.04799,4.88164 -50.03736,7.18751 z"
         id="path1440-0-4-7-4"
         style="display:inline;stroke-width:51.8522" />
      <path
         fill="#fcb320"
         d="m 416.58291,136.58099 2.01493,-25.31414 c 0,0 -0.51427,-1.1909 -2.30062,-1.1909 -1.78635,0 -1.75776,1.1909 -1.75776,1.1909 l -2.51865,28.72971 h 13.71265 l -3.09003,-2.33895 z"
         id="path1442-9-3-3-9"
         style="display:inline;stroke-width:51.8522" />
      <path
         fill="#b3b3b3"
         d="m 378.98837,107.37237 29.85446,-26.837367 v 28.902647 l -29.85372,26.8381 z"
         id="path1444-3-1-1-9"
         style="display:inline;stroke-width:51.8522" />
      <path
         fill="#cccccc"
         d="m 378.98837,107.37237 29.85446,-26.837367 v 9.22949 L 378.98988,116.6026 Z"
         id="path1446-6-4-0-1"
         style="display:inline;stroke-width:51.8522" />
      <path
         fill="#0d0d0d"
         d="m 366.81172,102.46893 12.04282,10.36774 10.76172,-10.36774 z"
         id="path1448-0-9-0-9"
         style="display:inline;stroke-width:51.8522" />
      <path
         fill="#565656"
         d="m 366.81172,102.46893 18.18077,4.45385 4.62377,-4.45385 z"
         id="path1450-6-2-5-4"
         style="display:inline;stroke-width:51.8522" />
      <path
         fill="#0d0d0d"
         d="m 371.31066,112.18183 h 24.91343 l -10.95867,9.58884 h -23.5451 z"
         id="path1452-2-0-0-2"
         style="display:inline;stroke-width:51.8522" />
      <path
         fill="#e0e0e0"
         d="m 448.04555,57.636503 c 0,4.01928 -8.43328,10.22265 -12.89917,10.22265 l 0.11736,-2.60134 c -3.68398,0.45334 -6.55672,-4.92526 -6.55672,-10.17528 0,-3.17423 3.75314,-7.13941 6.63114,-7.13941 6.02593,0.9007 12.70745,8.43406 12.70745,9.69338 z"
         id="path1454-6-6-31-0"
         style="display:inline;stroke-width:51.8522" />
      <path
         fill="#ffffff"
         d="m 447.74707,57.559043 c -1.82545,4.34635 -8.15887,8.75208 -13.02923,8.75208 -5.96203,0 -10.064,-2.71563 -10.17076,-8.67462 -0.10911,-6.14247 4.73502,-10.14146 10.79028,-10.14146 6.0635,0 11.13385,6.55222 12.40971,10.06477 z"
         id="path1456-1-8-80-6"
         style="display:inline;stroke-width:51.8522" />
      <path
         fill="#0d0d0d"
         d="m 439.2777,54.056273 c 0,0.69545 -0.56237,1.25782 -1.25932,1.25782 -0.6932,0 -2.46151,-1.25782 -2.46151,-1.25782 0,0 1.76757,-1.25404 2.46151,-1.25404 a 1.2555576,1.2555576 0 0 1 1.25932,1.25404 z"
         id="path1458-8-9-1-5"
         style="display:inline;stroke-width:51.8522" />
      <path
         fill="#b1742a"
         d="m 442.33312,58.318393 4.48394,2.39308 10.50007,-0.66009 4.12831,0.88188 1.52995,-1.77129 -17.38984,-1.82696 z"
         id="path1460-7-2-7-9"
         style="display:inline;stroke-width:51.8522" />
      <path
         fill="#fcb320"
         d="m 446.44942,55.005103 -4.1163,3.31329 21.03626,1.06911 -1.46008,-2.72011 -3.35317,-0.0392 z"
         id="path1462-9-6-9-5"
         style="display:inline;stroke-width:51.8522" />
      <path
         fill="#96412a"
         d="m 460.81313,59.658933 -2.37427,0.63154 2.81185,0.60144 z"
         id="path1464-2-6-1-6"
         style="display:inline;stroke-width:51.8522" />
      <path
         fill="#cccccc"
         d="m 350.18422,151.29732 h 26.10583 v 28.92146 h -26.10583 l 9.30391,-14.46147 z m 133.51315,0 h -26.10583 v 28.92146 h 26.10583 l -9.30391,-14.46147 z"
         id="path1466-0-4-0-1"
         style="display:inline;stroke-width:51.8522" />
      <path
         fill="#000000"
         d="m 347.77235,149.98312 10.14971,15.77342 -10.14971,15.77944 h 29.8319 v -31.55286 z m 4.8245,2.63141 h 22.37525 v 26.29002 h -22.37448 l 8.45581,-13.14801 z m 133.51238,-2.63141 -10.1497,15.77342 10.1497,15.77944 h -29.83189 v -31.55286 z m -4.82449,2.63141 h -22.37523 v 26.29002 H 481.284 l -8.45585,-13.14801 z"
         id="path1468-2-9-3-1"
         style="display:inline;stroke-width:51.8522" />
      <path
         fill="#828282"
         d="m 364.13218,174.13871 12.15787,5.36808 V 164.5025 m 93.46009,9.63621 -12.1586,5.36808 V 164.5025"
         id="path1470-3-5-5-4"
         style="display:inline;stroke-width:51.8522" />
      <path
         fill="#000000"
         d="m 374.9721,164.50173 v 12.98639 l -10.30988,-4.55233 -1.06007,2.40962 14.0021,6.18003 v -17.02371 z m 83.93741,0 v 12.98639 l 10.30986,-4.55233 1.06007,2.40962 -14.0021,6.18003 v -17.02371 z"
         id="path1472-7-0-9-3"
         style="display:inline;stroke-width:51.8522" />
      <path
         fill="#efefef"
         d="m 364.93288,141.30777 h 104.01583 v 32.7287 H 364.93288 Z"
         id="path1474-5-4-4-7"
         style="display:inline;stroke-width:51.8522" />
      <path
         fill="#000000"
         d="m 363.61042,139.99883 v 35.34882 h 106.65774 v -35.34882 z m 2.64495,2.62012 h 101.37312 v 30.10858 H 366.25537 Z"
         id="path1476-9-8-8-2"
         style="display:inline;stroke-width:51.8522" />
      <path
         fill="#0c5a73"
         d="m 388.68323,165.38438 c -3.14266,0 -3.82231,-2.2194 -4.84177,-2.2194 -0.7075,0 -1.30218,0.927 -1.30218,1.60139 0,1.40444 2.5765,3.3156 6.25747,3.3156 3.73737,0 6.45524,-1.96679 6.45524,-5.9846 0,-7.47317 -9.20241,-5.59135 -9.20241,-9.74898 0,-1.77055 1.47358,-2.55699 3.5396,-2.55699 2.40737,0 3.14265,1.06761 3.90803,1.06761 0.84957,0 1.24577,-1.03979 1.24577,-1.60139 0,-1.54502 -3.31332,-2.02243 -5.1538,-2.02243 -3.02988,0 -6.54092,1.23602 -6.54092,5.39363 0,6.74318 9.20241,4.80421 9.20241,9.77757 0,2.02243 -1.52848,2.97799 -3.56744,2.97799 z m 14.46899,-11.01357 c -3.25617,0 -5.88985,2.50061 -5.88985,5.45078 v 2.669 c 0,3.34338 2.71864,5.59138 6.56876,5.59138 2.85995,0 4.70043,-1.29317 4.70043,-2.13521 0,-0.50597 -0.45334,-1.32096 -1.1608,-1.32096 -0.76464,0 -1.44352,1.0676 -3.45469,1.0676 -2.18031,0 -3.6802,-1.18038 -3.6802,-3.06221 v -0.64657 h 5.97405 c 1.27436,0 2.57653,-0.0841 2.57653,-2.41564 0,-3.06296 -2.60512,-5.19817 -5.63423,-5.19817 z m -2.91712,5.78759 v -0.89842 c 0,-1.54578 1.33076,-2.64117 2.88854,-2.64117 1.61418,0 2.85998,1.20817 2.85998,2.69681 0,0.67439 -0.22704,0.84278 -1.04806,0.84278 z m 15.23361,-5.78759 c -1.92545,0 -4.27565,0.78717 -4.27565,1.79837 0,0.67442 0.36838,1.48864 1.07587,1.48864 0.56613,0 1.07585,-0.84204 3.14263,-0.84204 2.06755,0 2.8036,1.6014 2.8036,3.03363 v 0.50597 h -1.24579 c -3.93583,0 -6.62588,0.84281 -6.62588,4.0178 0,2.5284 1.69914,3.70879 3.76593,3.70879 1.92467,0 3.28473,-1.03979 4.27564,-2.19159 v 0.98338 c 0,0.53382 0.59395,0.98341 1.35855,0.98341 0.82176,0 1.44429,-0.44959 1.44429,-0.98341 v -7.05217 c 0,-2.8096 -1.55704,-5.45078 -5.71919,-5.45078 z m 2.74645,8.65359 c 0,1.34878 -1.6142,2.80957 -3.0299,2.80957 -1.04729,0 -1.84048,-0.5616 -1.84048,-1.82618 0,-1.79837 2.01041,-2.02243 4.16215,-2.02243 h 0.70823 z m 15.62904,-10.058 c 0.0287,0.73003 0.70823,0.98338 1.50066,0.98338 0.99091,0 1.50066,-0.28132 1.50066,-1.43297 0,-3.175 -2.66147,-5.19817 -6.45521,-5.19817 -3.45466,0 -6.2575,1.71418 -6.2575,6.26577 v 8.17541 c 0,4.55157 2.74643,6.26574 6.34246,6.26574 3.56742,0 6.37025,-1.71417 6.37025,-6.26574 v -3.68022 c 0,-0.53379 -0.36841,-1.0112 -0.99091,-1.0112 h -4.87036 c -0.62253,0 -0.96235,0.61798 -0.96235,1.18036 0,0.61724 0.33982,1.20743 0.96235,1.20743 h 2.85995 v 2.30363 c 0,2.47276 -1.27435,3.62456 -3.36893,3.62456 -2.12393,0 -3.34114,-1.1518 -3.34114,-3.62382 v -8.17615 c 0,-2.47279 1.21721,-3.62382 3.34114,-3.62382 2.46298,0 3.19904,1.37583 3.36893,3.00581 z m 16.59216,14.89077 c 0.59394,0 0.90598,-0.67439 0.90598,-1.32099 0,-0.67439 -0.31127,-1.32019 -0.90598,-1.32019 h -7.36193 v -16.94178 c 0,-0.67439 -0.73602,-0.95483 -1.50066,-0.95483 -0.73602,0 -1.50063,0.28047 -1.50063,0.95483 v 18.59955 c 0,0.64657 0.67965,0.98341 1.33074,0.98341 z"
         id="path1478-2-7-46-7"
         style="display:inline;stroke-width:51.8522" />
    </g>
  </g>
  <g
     inkscape:groupmode="layer"
     id="layer2"
     inkscape:label="Top Banner"
     style="display:inline">
    <rect
       style="display:inline;fill:#074558;fill-opacity:1;stroke:none;stroke-width:14.351;stroke-miterlimit:4;stroke-dasharray:none"
       id="rect846"
       width="292.16629"
       height="31.123783"
       x="-0.01192935"
       y="-0.024222808" />
    <rect
       style="display:inline;fill:#fcb320;fill-opacity:1;stroke:none;stroke-width:14.351;stroke-miterlimit:4;stroke-dasharray:none"
       id="rect1146"
       width="292.16629"
       height="3.0372632"
       x="-0.01192935"
       y="-33.985226"
       transform="scale(1,-1)" />
  </g>
  <g
     inkscape:groupmode="layer"
     id="layer3"
     inkscape:label="Top Banner Seagulls">
    <g
       id="g1756-3-4-0-9-9"
       transform="matrix(0.12960724,0,0,0.12960724,186.08718,10.872938)"
       style="stroke-width:195.977">
      <circle
         fill="#1d7193"
         cx="416.94077"
         cy="97.05352"
         r="64.527397"
         id="circle1426-5-3-6-0-2"
         style="display:inline;stroke-width:51.8522" />
      <circle
         fill="#0c5a73"
         cx="92"
         cy="270.047"
         r="197.545"
         clip-path="url(#c-3-7-2-9-3)"
         id="circle1428-6-0-3-3-4"
         transform="matrix(0.75183092,0,0,0.75183092,347.77235,31.169803)"
         style="display:inline;stroke-width:68.9679" />
      <path
         fill="#000000"
         d="m 416.94231,31.211903 c -36.34876,0 -65.84311,29.49432 -65.84311,65.84308 0,36.348767 29.49435,65.843117 65.84311,65.843117 36.34877,0 65.84309,-29.49435 65.84309,-65.843117 0,-36.34876 -29.49432,-65.84308 -65.84309,-65.84308 z m 0,2.6314 c 34.92628,0 63.21168,28.28538 63.21168,63.21168 0,34.926307 -28.2854,63.211687 -63.21168,63.211687 -34.92631,0 -63.2117,-28.28538 -63.2117,-63.211687 0,-34.9263 28.28539,-63.21094 63.2117,-63.21094 z"
         id="path1430-2-7-9-0-4"
         style="display:inline;stroke-width:51.8522" />
      <path
         fill="#ffffff"
         d="m 426.61762,59.078513 v 36.24051 h 9.08963 v -36.24128 z"
         id="path1432-9-8-0-3-4"
         style="display:inline;stroke-width:51.8522" />
      <path
         fill="#e0e0e0"
         d="m 434.0472,59.830333 v 34.73684 h 3.25317 v -34.73758 z"
         id="path1434-1-6-8-3-9"
         style="display:inline;stroke-width:51.8522" />
      <path
         fill="#b1742a"
         d="m 428.88362,136.58099 -3.0216,-25.31414 c 0,0 -0.51501,-1.1909 -2.30059,-1.1909 -1.78561,0 -1.7593,1.1909 -1.7593,1.1909 l 2.51865,28.72971 h 13.7134 l -3.09004,-2.33895 z"
         id="path1436-2-8-3-7-9"
         style="display:inline;stroke-width:51.8522" />
      <path
         fill="#ffffff"
         d="m 373.87142,117.45441 11.93381,-0.46914 32.66931,-0.41126 15.40953,-10.04596 6.99804,-9.881307 0.96232,-2.73816 -21.47377,-20.87835 z"
         id="path1438-7-8-8-9-3"
         style="display:inline;stroke-width:51.8522" />
      <path
         fill="#e0e0e0"
         d="m 374.20448,117.45441 h 46.05414 c 10.71134,-4.52226 21.99784,-13.72092 21.58581,-23.545827 -5.2147,7.684467 -10.37526,12.905167 -17.60259,16.358317 -15.20428,7.26421 -37.04799,4.88164 -50.03736,7.18751 z"
         id="path1440-0-4-7-4-8"
         style="display:inline;stroke-width:51.8522" />
      <path
         fill="#fcb320"
         d="m 416.58291,136.58099 2.01493,-25.31414 c 0,0 -0.51427,-1.1909 -2.30062,-1.1909 -1.78635,0 -1.75776,1.1909 -1.75776,1.1909 l -2.51865,28.72971 h 13.71265 l -3.09003,-2.33895 z"
         id="path1442-9-3-3-9-3"
         style="display:inline;stroke-width:51.8522" />
      <path
         fill="#b3b3b3"
         d="m 378.98837,107.37237 29.85446,-26.837367 v 28.902647 l -29.85372,26.8381 z"
         id="path1444-3-1-1-9-2"
         style="display:inline;stroke-width:51.8522" />
      <path
         fill="#cccccc"
         d="m 378.98837,107.37237 29.85446,-26.837367 v 9.22949 L 378.98988,116.6026 Z"
         id="path1446-6-4-0-1-9"
         style="display:inline;stroke-width:51.8522" />
      <path
         fill="#0d0d0d"
         d="m 366.81172,102.46893 12.04282,10.36774 10.76172,-10.36774 z"
         id="path1448-0-9-0-9-5"
         style="display:inline;stroke-width:51.8522" />
      <path
         fill="#565656"
         d="m 366.81172,102.46893 18.18077,4.45385 4.62377,-4.45385 z"
         id="path1450-6-2-5-4-4"
         style="display:inline;stroke-width:51.8522" />
      <path
         fill="#0d0d0d"
         d="m 371.31066,112.18183 h 24.91343 l -10.95867,9.58884 h -23.5451 z"
         id="path1452-2-0-0-2-3"
         style="display:inline;stroke-width:51.8522" />
      <path
         fill="#e0e0e0"
         d="m 448.04555,57.636503 c 0,4.01928 -8.43328,10.22265 -12.89917,10.22265 l 0.11736,-2.60134 c -3.68398,0.45334 -6.55672,-4.92526 -6.55672,-10.17528 0,-3.17423 3.75314,-7.13941 6.63114,-7.13941 6.02593,0.9007 12.70745,8.43406 12.70745,9.69338 z"
         id="path1454-6-6-31-0-9"
         style="display:inline;stroke-width:51.8522" />
      <path
         fill="#ffffff"
         d="m 447.74707,57.559043 c -1.82545,4.34635 -8.15887,8.75208 -13.02923,8.75208 -5.96203,0 -10.064,-2.71563 -10.17076,-8.67462 -0.10911,-6.14247 4.73502,-10.14146 10.79028,-10.14146 6.0635,0 11.13385,6.55222 12.40971,10.06477 z"
         id="path1456-1-8-80-6-4"
         style="display:inline;stroke-width:51.8522" />
      <path
         fill="#0d0d0d"
         d="m 439.2777,54.056273 c 0,0.69545 -0.56237,1.25782 -1.25932,1.25782 -0.6932,0 -2.46151,-1.25782 -2.46151,-1.25782 0,0 1.76757,-1.25404 2.46151,-1.25404 a 1.2555576,1.2555576 0 0 1 1.25932,1.25404 z"
         id="path1458-8-9-1-5-9"
         style="display:inline;stroke-width:51.8522" />
      <path
         fill="#b1742a"
         d="m 442.33312,58.318393 4.48394,2.39308 10.50007,-0.66009 4.12831,0.88188 1.52995,-1.77129 -17.38984,-1.82696 z"
         id="path1460-7-2-7-9-5"
         style="display:inline;stroke-width:51.8522" />
      <path
         fill="#fcb320"
         d="m 446.44942,55.005103 -4.1163,3.31329 21.03626,1.06911 -1.46008,-2.72011 -3.35317,-0.0392 z"
         id="path1462-9-6-9-5-5"
         style="display:inline;stroke-width:51.8522" />
      <path
         fill="#96412a"
         d="m 460.81313,59.658933 -2.37427,0.63154 2.81185,0.60144 z"
         id="path1464-2-6-1-6-7"
         style="display:inline;stroke-width:51.8522" />
      <path
         fill="#cccccc"
         d="m 350.18422,151.29732 h 26.10583 v 28.92146 h -26.10583 l 9.30391,-14.46147 z m 133.51315,0 h -26.10583 v 28.92146 h 26.10583 l -9.30391,-14.46147 z"
         id="path1466-0-4-0-1-3"
         style="display:inline;stroke-width:51.8522" />
      <path
         fill="#000000"
         d="m 347.77235,149.98312 10.14971,15.77342 -10.14971,15.77944 h 29.8319 v -31.55286 z m 4.8245,2.63141 h 22.37525 v 26.29002 h -22.37448 l 8.45581,-13.14801 z m 133.51238,-2.63141 -10.1497,15.77342 10.1497,15.77944 h -29.83189 v -31.55286 z m -4.82449,2.63141 h -22.37523 v 26.29002 H 481.284 l -8.45585,-13.14801 z"
         id="path1468-2-9-3-1-9"
         style="display:inline;stroke-width:51.8522" />
      <path
         fill="#828282"
         d="m 364.13218,174.13871 12.15787,5.36808 V 164.5025 m 93.46009,9.63621 -12.1586,5.36808 V 164.5025"
         id="path1470-3-5-5-4-0"
         style="display:inline;stroke-width:51.8522" />
      <path
         fill="#000000"
         d="m 374.9721,164.50173 v 12.98639 l -10.30988,-4.55233 -1.06007,2.40962 14.0021,6.18003 v -17.02371 z m 83.93741,0 v 12.98639 l 10.30986,-4.55233 1.06007,2.40962 -14.0021,6.18003 v -17.02371 z"
         id="path1472-7-0-9-3-7"
         style="display:inline;stroke-width:51.8522" />
      <path
         fill="#efefef"
         d="m 364.93288,141.30777 h 104.01583 v 32.7287 H 364.93288 Z"
         id="path1474-5-4-4-7-2"
         style="display:inline;stroke-width:51.8522" />
      <path
         fill="#000000"
         d="m 363.61042,139.99883 v 35.34882 h 106.65774 v -35.34882 z m 2.64495,2.62012 h 101.37312 v 30.10858 H 366.25537 Z"
         id="path1476-9-8-8-2-7"
         style="display:inline;stroke-width:51.8522" />
      <path
         fill="#0c5a73"
         d="m 388.68323,165.38438 c -3.14266,0 -3.82231,-2.2194 -4.84177,-2.2194 -0.7075,0 -1.30218,0.927 -1.30218,1.60139 0,1.40444 2.5765,3.3156 6.25747,3.3156 3.73737,0 6.45524,-1.96679 6.45524,-5.9846 0,-7.47317 -9.20241,-5.59135 -9.20241,-9.74898 0,-1.77055 1.47358,-2.55699 3.5396,-2.55699 2.40737,0 3.14265,1.06761 3.90803,1.06761 0.84957,0 1.24577,-1.03979 1.24577,-1.60139 0,-1.54502 -3.31332,-2.02243 -5.1538,-2.02243 -3.02988,0 -6.54092,1.23602 -6.54092,5.39363 0,6.74318 9.20241,4.80421 9.20241,9.77757 0,2.02243 -1.52848,2.97799 -3.56744,2.97799 z m 14.46899,-11.01357 c -3.25617,0 -5.88985,2.50061 -5.88985,5.45078 v 2.669 c 0,3.34338 2.71864,5.59138 6.56876,5.59138 2.85995,0 4.70043,-1.29317 4.70043,-2.13521 0,-0.50597 -0.45334,-1.32096 -1.1608,-1.32096 -0.76464,0 -1.44352,1.0676 -3.45469,1.0676 -2.18031,0 -3.6802,-1.18038 -3.6802,-3.06221 v -0.64657 h 5.97405 c 1.27436,0 2.57653,-0.0841 2.57653,-2.41564 0,-3.06296 -2.60512,-5.19817 -5.63423,-5.19817 z m -2.91712,5.78759 v -0.89842 c 0,-1.54578 1.33076,-2.64117 2.88854,-2.64117 1.61418,0 2.85998,1.20817 2.85998,2.69681 0,0.67439 -0.22704,0.84278 -1.04806,0.84278 z m 15.23361,-5.78759 c -1.92545,0 -4.27565,0.78717 -4.27565,1.79837 0,0.67442 0.36838,1.48864 1.07587,1.48864 0.56613,0 1.07585,-0.84204 3.14263,-0.84204 2.06755,0 2.8036,1.6014 2.8036,3.03363 v 0.50597 h -1.24579 c -3.93583,0 -6.62588,0.84281 -6.62588,4.0178 0,2.5284 1.69914,3.70879 3.76593,3.70879 1.92467,0 3.28473,-1.03979 4.27564,-2.19159 v 0.98338 c 0,0.53382 0.59395,0.98341 1.35855,0.98341 0.82176,0 1.44429,-0.44959 1.44429,-0.98341 v -7.05217 c 0,-2.8096 -1.55704,-5.45078 -5.71919,-5.45078 z m 2.74645,8.65359 c 0,1.34878 -1.6142,2.80957 -3.0299,2.80957 -1.04729,0 -1.84048,-0.5616 -1.84048,-1.82618 0,-1.79837 2.01041,-2.02243 4.16215,-2.02243 h 0.70823 z m 15.62904,-10.058 c 0.0287,0.73003 0.70823,0.98338 1.50066,0.98338 0.99091,0 1.50066,-0.28132 1.50066,-1.43297 0,-3.175 -2.66147,-5.19817 -6.45521,-5.19817 -3.45466,0 -6.2575,1.71418 -6.2575,6.26577 v 8.17541 c 0,4.55157 2.74643,6.26574 6.34246,6.26574 3.56742,0 6.37025,-1.71417 6.37025,-6.26574 v -3.68022 c 0,-0.53379 -0.36841,-1.0112 -0.99091,-1.0112 h -4.87036 c -0.62253,0 -0.96235,0.61798 -0.96235,1.18036 0,0.61724 0.33982,1.20743 0.96235,1.20743 h 2.85995 v 2.30363 c 0,2.47276 -1.27435,3.62456 -3.36893,3.62456 -2.12393,0 -3.34114,-1.1518 -3.34114,-3.62382 v -8.17615 c 0,-2.47279 1.21721,-3.62382 3.34114,-3.62382 2.46298,0 3.19904,1.37583 3.36893,3.00581 z m 16.59216,14.89077 c 0.59394,0 0.90598,-0.67439 0.90598,-1.32099 0,-0.67439 -0.31127,-1.32019 -0.90598,-1.32019 h -7.36193 v -16.94178 c 0,-0.67439 -0.73602,-0.95483 -1.50066,-0.95483 -0.73602,0 -1.50063,0.28047 -1.50063,0.95483 v 18.59955 c 0,0.64657 0.67965,0.98341 1.33074,0.98341 z"
         id="path1478-2-7-46-7-2"
         style="display:inline;stroke-width:51.8522" />
    </g>
    <g
       id="g1756-3-4-0-9-9-5"
       transform="matrix(0.12960724,0,0,0.12960724,94.999598,10.872938)"
       style="stroke-width:195.977">
      <circle
         fill="#1d7193"
         cx="416.94077"
         cy="97.05352"
         r="64.527397"
         id="circle1426-5-3-6-0-2-0"
         style="display:inline;stroke-width:51.8522" />
      <circle
         fill="#0c5a73"
         cx="92"
         cy="270.047"
         r="197.545"
         clip-path="url(#c-3-7-2-9-3-9)"
         id="circle1428-6-0-3-3-4-4"
         transform="matrix(0.75183092,0,0,0.75183092,347.77235,31.169803)"
         style="display:inline;stroke-width:68.9679" />
      <path
         fill="#000000"
         d="m 416.94231,31.211903 c -36.34876,0 -65.84311,29.49432 -65.84311,65.84308 0,36.348767 29.49435,65.843117 65.84311,65.843117 36.34877,0 65.84309,-29.49435 65.84309,-65.843117 0,-36.34876 -29.49432,-65.84308 -65.84309,-65.84308 z m 0,2.6314 c 34.92628,0 63.21168,28.28538 63.21168,63.21168 0,34.926307 -28.2854,63.211687 -63.21168,63.211687 -34.92631,0 -63.2117,-28.28538 -63.2117,-63.211687 0,-34.9263 28.28539,-63.21094 63.2117,-63.21094 z"
         id="path1430-2-7-9-0-4-1"
         style="display:inline;stroke-width:51.8522" />
      <path
         fill="#ffffff"
         d="m 426.61762,59.078513 v 36.24051 h 9.08963 v -36.24128 z"
         id="path1432-9-8-0-3-4-7"
         style="display:inline;stroke-width:51.8522" />
      <path
         fill="#e0e0e0"
         d="m 434.0472,59.830333 v 34.73684 h 3.25317 v -34.73758 z"
         id="path1434-1-6-8-3-9-9"
         style="display:inline;stroke-width:51.8522" />
      <path
         fill="#b1742a"
         d="m 428.88362,136.58099 -3.0216,-25.31414 c 0,0 -0.51501,-1.1909 -2.30059,-1.1909 -1.78561,0 -1.7593,1.1909 -1.7593,1.1909 l 2.51865,28.72971 h 13.7134 l -3.09004,-2.33895 z"
         id="path1436-2-8-3-7-9-3"
         style="display:inline;stroke-width:51.8522" />
      <path
         fill="#ffffff"
         d="m 373.87142,117.45441 11.93381,-0.46914 32.66931,-0.41126 15.40953,-10.04596 6.99804,-9.881307 0.96232,-2.73816 -21.47377,-20.87835 z"
         id="path1438-7-8-8-9-3-6"
         style="display:inline;stroke-width:51.8522" />
      <path
         fill="#e0e0e0"
         d="m 374.20448,117.45441 h 46.05414 c 10.71134,-4.52226 21.99784,-13.72092 21.58581,-23.545827 -5.2147,7.684467 -10.37526,12.905167 -17.60259,16.358317 -15.20428,7.26421 -37.04799,4.88164 -50.03736,7.18751 z"
         id="path1440-0-4-7-4-8-2"
         style="display:inline;stroke-width:51.8522" />
      <path
         fill="#fcb320"
         d="m 416.58291,136.58099 2.01493,-25.31414 c 0,0 -0.51427,-1.1909 -2.30062,-1.1909 -1.78635,0 -1.75776,1.1909 -1.75776,1.1909 l -2.51865,28.72971 h 13.71265 l -3.09003,-2.33895 z"
         id="path1442-9-3-3-9-3-1"
         style="display:inline;stroke-width:51.8522" />
      <path
         fill="#b3b3b3"
         d="m 378.98837,107.37237 29.85446,-26.837367 v 28.902647 l -29.85372,26.8381 z"
         id="path1444-3-1-1-9-2-2"
         style="display:inline;stroke-width:51.8522" />
      <path
         fill="#cccccc"
         d="m 378.98837,107.37237 29.85446,-26.837367 v 9.22949 L 378.98988,116.6026 Z"
         id="path1446-6-4-0-1-9-5"
         style="display:inline;stroke-width:51.8522" />
      <path
         fill="#0d0d0d"
         d="m 366.81172,102.46893 12.04282,10.36774 10.76172,-10.36774 z"
         id="path1448-0-9-0-9-5-3"
         style="display:inline;stroke-width:51.8522" />
      <path
         fill="#565656"
         d="m 366.81172,102.46893 18.18077,4.45385 4.62377,-4.45385 z"
         id="path1450-6-2-5-4-4-9"
         style="display:inline;stroke-width:51.8522" />
      <path
         fill="#0d0d0d"
         d="m 371.31066,112.18183 h 24.91343 l -10.95867,9.58884 h -23.5451 z"
         id="path1452-2-0-0-2-3-1"
         style="display:inline;stroke-width:51.8522" />
      <path
         fill="#e0e0e0"
         d="m 448.04555,57.636503 c 0,4.01928 -8.43328,10.22265 -12.89917,10.22265 l 0.11736,-2.60134 c -3.68398,0.45334 -6.55672,-4.92526 -6.55672,-10.17528 0,-3.17423 3.75314,-7.13941 6.63114,-7.13941 6.02593,0.9007 12.70745,8.43406 12.70745,9.69338 z"
         id="path1454-6-6-31-0-9-8"
         style="display:inline;stroke-width:51.8522" />
      <path
         fill="#ffffff"
         d="m 447.74707,57.559043 c -1.82545,4.34635 -8.15887,8.75208 -13.02923,8.75208 -5.96203,0 -10.064,-2.71563 -10.17076,-8.67462 -0.10911,-6.14247 4.73502,-10.14146 10.79028,-10.14146 6.0635,0 11.13385,6.55222 12.40971,10.06477 z"
         id="path1456-1-8-80-6-4-8"
         style="display:inline;stroke-width:51.8522" />
      <path
         fill="#0d0d0d"
         d="m 439.2777,54.056273 c 0,0.69545 -0.56237,1.25782 -1.25932,1.25782 -0.6932,0 -2.46151,-1.25782 -2.46151,-1.25782 0,0 1.76757,-1.25404 2.46151,-1.25404 a 1.2555576,1.2555576 0 0 1 1.25932,1.25404 z"
         id="path1458-8-9-1-5-9-7"
         style="display:inline;stroke-width:51.8522" />
      <path
         fill="#b1742a"
         d="m 442.33312,58.318393 4.48394,2.39308 10.50007,-0.66009 4.12831,0.88188 1.52995,-1.77129 -17.38984,-1.82696 z"
         id="path1460-7-2-7-9-5-0"
         style="display:inline;stroke-width:51.8522" />
      <path
         fill="#fcb320"
         d="m 446.44942,55.005103 -4.1163,3.31329 21.03626,1.06911 -1.46008,-2.72011 -3.35317,-0.0392 z"
         id="path1462-9-6-9-5-5-5"
         style="display:inline;stroke-width:51.8522" />
      <path
         fill="#96412a"
         d="m 460.81313,59.658933 -2.37427,0.63154 2.81185,0.60144 z"
         id="path1464-2-6-1-6-7-2"
         style="display:inline;stroke-width:51.8522" />
      <path
         fill="#cccccc"
         d="m 350.18422,151.29732 h 26.10583 v 28.92146 h -26.10583 l 9.30391,-14.46147 z m 133.51315,0 h -26.10583 v 28.92146 h 26.10583 l -9.30391,-14.46147 z"
         id="path1466-0-4-0-1-3-7"
         style="display:inline;stroke-width:51.8522" />
      <path
         fill="#000000"
         d="m 347.77235,149.98312 10.14971,15.77342 -10.14971,15.77944 h 29.8319 v -31.55286 z m 4.8245,2.63141 h 22.37525 v 26.29002 h -22.37448 l 8.45581,-13.14801 z m 133.51238,-2.63141 -10.1497,15.77342 10.1497,15.77944 h -29.83189 v -31.55286 z m -4.82449,2.63141 h -22.37523 v 26.29002 H 481.284 l -8.45585,-13.14801 z"
         id="path1468-2-9-3-1-9-9"
         style="display:inline;stroke-width:51.8522" />
      <path
         fill="#828282"
         d="m 364.13218,174.13871 12.15787,5.36808 V 164.5025 m 93.46009,9.63621 -12.1586,5.36808 V 164.5025"
         id="path1470-3-5-5-4-0-1"
         style="display:inline;stroke-width:51.8522" />
      <path
         fill="#000000"
         d="m 374.9721,164.50173 v 12.98639 l -10.30988,-4.55233 -1.06007,2.40962 14.0021,6.18003 v -17.02371 z m 83.93741,0 v 12.98639 l 10.30986,-4.55233 1.06007,2.40962 -14.0021,6.18003 v -17.02371 z"
         id="path1472-7-0-9-3-7-9"
         style="display:inline;stroke-width:51.8522" />
      <path
         fill="#efefef"
         d="m 364.93288,141.30777 h 104.01583 v 32.7287 H 364.93288 Z"
         id="path1474-5-4-4-7-2-6"
         style="display:inline;stroke-width:51.8522" />
      <path
         fill="#000000"
         d="m 363.61042,139.99883 v 35.34882 h 106.65774 v -35.34882 z m 2.64495,2.62012 h 101.37312 v 30.10858 H 366.25537 Z"
         id="path1476-9-8-8-2-7-3"
         style="display:inline;stroke-width:51.8522" />
      <path
         fill="#0c5a73"
         d="m 388.68323,165.38438 c -3.14266,0 -3.82231,-2.2194 -4.84177,-2.2194 -0.7075,0 -1.30218,0.927 -1.30218,1.60139 0,1.40444 2.5765,3.3156 6.25747,3.3156 3.73737,0 6.45524,-1.96679 6.45524,-5.9846 0,-7.47317 -9.20241,-5.59135 -9.20241,-9.74898 0,-1.77055 1.47358,-2.55699 3.5396,-2.55699 2.40737,0 3.14265,1.06761 3.90803,1.06761 0.84957,0 1.24577,-1.03979 1.24577,-1.60139 0,-1.54502 -3.31332,-2.02243 -5.1538,-2.02243 -3.02988,0 -6.54092,1.23602 -6.54092,5.39363 0,6.74318 9.20241,4.80421 9.20241,9.77757 0,2.02243 -1.52848,2.97799 -3.56744,2.97799 z m 14.46899,-11.01357 c -3.25617,0 -5.88985,2.50061 -5.88985,5.45078 v 2.669 c 0,3.34338 2.71864,5.59138 6.56876,5.59138 2.85995,0 4.70043,-1.29317 4.70043,-2.13521 0,-0.50597 -0.45334,-1.32096 -1.1608,-1.32096 -0.76464,0 -1.44352,1.0676 -3.45469,1.0676 -2.18031,0 -3.6802,-1.18038 -3.6802,-3.06221 v -0.64657 h 5.97405 c 1.27436,0 2.57653,-0.0841 2.57653,-2.41564 0,-3.06296 -2.60512,-5.19817 -5.63423,-5.19817 z m -2.91712,5.78759 v -0.89842 c 0,-1.54578 1.33076,-2.64117 2.88854,-2.64117 1.61418,0 2.85998,1.20817 2.85998,2.69681 0,0.67439 -0.22704,0.84278 -1.04806,0.84278 z m 15.23361,-5.78759 c -1.92545,0 -4.27565,0.78717 -4.27565,1.79837 0,0.67442 0.36838,1.48864 1.07587,1.48864 0.56613,0 1.07585,-0.84204 3.14263,-0.84204 2.06755,0 2.8036,1.6014 2.8036,3.03363 v 0.50597 h -1.24579 c -3.93583,0 -6.62588,0.84281 -6.62588,4.0178 0,2.5284 1.69914,3.70879 3.76593,3.70879 1.92467,0 3.28473,-1.03979 4.27564,-2.19159 v 0.98338 c 0,0.53382 0.59395,0.98341 1.35855,0.98341 0.82176,0 1.44429,-0.44959 1.44429,-0.98341 v -7.05217 c 0,-2.8096 -1.55704,-5.45078 -5.71919,-5.45078 z m 2.74645,8.65359 c 0,1.34878 -1.6142,2.80957 -3.0299,2.80957 -1.04729,0 -1.84048,-0.5616 -1.84048,-1.82618 0,-1.79837 2.01041,-2.02243 4.16215,-2.02243 h 0.70823 z m 15.62904,-10.058 c 0.0287,0.73003 0.70823,0.98338 1.50066,0.98338 0.99091,0 1.50066,-0.28132 1.50066,-1.43297 0,-3.175 -2.66147,-5.19817 -6.45521,-5.19817 -3.45466,0 -6.2575,1.71418 -6.2575,6.26577 v 8.17541 c 0,4.55157 2.74643,6.26574 6.34246,6.26574 3.56742,0 6.37025,-1.71417 6.37025,-6.26574 v -3.68022 c 0,-0.53379 -0.36841,-1.0112 -0.99091,-1.0112 h -4.87036 c -0.62253,0 -0.96235,0.61798 -0.96235,1.18036 0,0.61724 0.33982,1.20743 0.96235,1.20743 h 2.85995 v 2.30363 c 0,2.47276 -1.27435,3.62456 -3.36893,3.62456 -2.12393,0 -3.34114,-1.1518 -3.34114,-3.62382 v -8.17615 c 0,-2.47279 1.21721,-3.62382 3.34114,-3.62382 2.46298,0 3.19904,1.37583 3.36893,3.00581 z m 16.59216,14.89077 c 0.59394,0 0.90598,-0.67439 0.90598,-1.32099 0,-0.67439 -0.31127,-1.32019 -0.90598,-1.32019 h -7.36193 v -16.94178 c 0,-0.67439 -0.73602,-0.95483 -1.50066,-0.95483 -0.73602,0 -1.50063,0.28047 -1.50063,0.95483 v 18.59955 c 0,0.64657 0.67965,0.98341 1.33074,0.98341 z"
         id="path1478-2-7-46-7-2-6"
         style="display:inline;stroke-width:51.8522" />
    </g>
    <g
       id="g1756-3-4-0-9-9-5-6"
       transform="matrix(0.12960724,0,0,0.12960724,4.0487438,10.872938)"
       style="stroke-width:195.977">
      <circle
         fill="#1d7193"
         cx="416.94077"
         cy="97.05352"
         r="64.527397"
         id="circle1426-5-3-6-0-2-0-6"
         style="display:inline;stroke-width:51.8522" />
      <circle
         fill="#0c5a73"
         cx="92"
         cy="270.047"
         r="197.545"
         clip-path="url(#c-3-7-2-9-3-9-8)"
         id="circle1428-6-0-3-3-4-4-7"
         transform="matrix(0.75183092,0,0,0.75183092,347.77235,31.169803)"
         style="display:inline;stroke-width:68.9679" />
      <path
         fill="#000000"
         d="m 416.94231,31.211903 c -36.34876,0 -65.84311,29.49432 -65.84311,65.84308 0,36.348767 29.49435,65.843117 65.84311,65.843117 36.34877,0 65.84309,-29.49435 65.84309,-65.843117 0,-36.34876 -29.49432,-65.84308 -65.84309,-65.84308 z m 0,2.6314 c 34.92628,0 63.21168,28.28538 63.21168,63.21168 0,34.926307 -28.2854,63.211687 -63.21168,63.211687 -34.92631,0 -63.2117,-28.28538 -63.2117,-63.211687 0,-34.9263 28.28539,-63.21094 63.2117,-63.21094 z"
         id="path1430-2-7-9-0-4-1-2"
         style="display:inline;stroke-width:51.8522" />
      <path
         fill="#ffffff"
         d="m 426.61762,59.078513 v 36.24051 h 9.08963 v -36.24128 z"
         id="path1432-9-8-0-3-4-7-7"
         style="display:inline;stroke-width:51.8522" />
      <path
         fill="#e0e0e0"
         d="m 434.0472,59.830333 v 34.73684 h 3.25317 v -34.73758 z"
         id="path1434-1-6-8-3-9-9-4"
         style="display:inline;stroke-width:51.8522" />
      <path
         fill="#b1742a"
         d="m 428.88362,136.58099 -3.0216,-25.31414 c 0,0 -0.51501,-1.1909 -2.30059,-1.1909 -1.78561,0 -1.7593,1.1909 -1.7593,1.1909 l 2.51865,28.72971 h 13.7134 l -3.09004,-2.33895 z"
         id="path1436-2-8-3-7-9-3-1"
         style="display:inline;stroke-width:51.8522" />
      <path
         fill="#ffffff"
         d="m 373.87142,117.45441 11.93381,-0.46914 32.66931,-0.41126 15.40953,-10.04596 6.99804,-9.881307 0.96232,-2.73816 -21.47377,-20.87835 z"
         id="path1438-7-8-8-9-3-6-0"
         style="display:inline;stroke-width:51.8522" />
      <path
         fill="#e0e0e0"
         d="m 374.20448,117.45441 h 46.05414 c 10.71134,-4.52226 21.99784,-13.72092 21.58581,-23.545827 -5.2147,7.684467 -10.37526,12.905167 -17.60259,16.358317 -15.20428,7.26421 -37.04799,4.88164 -50.03736,7.18751 z"
         id="path1440-0-4-7-4-8-2-0"
         style="display:inline;stroke-width:51.8522" />
      <path
         fill="#fcb320"
         d="m 416.58291,136.58099 2.01493,-25.31414 c 0,0 -0.51427,-1.1909 -2.30062,-1.1909 -1.78635,0 -1.75776,1.1909 -1.75776,1.1909 l -2.51865,28.72971 h 13.71265 l -3.09003,-2.33895 z"
         id="path1442-9-3-3-9-3-1-6"
         style="display:inline;stroke-width:51.8522" />
      <path
         fill="#b3b3b3"
         d="m 378.98837,107.37237 29.85446,-26.837367 v 28.902647 l -29.85372,26.8381 z"
         id="path1444-3-1-1-9-2-2-4"
         style="display:inline;stroke-width:51.8522" />
      <path
         fill="#cccccc"
         d="m 378.98837,107.37237 29.85446,-26.837367 v 9.22949 L 378.98988,116.6026 Z"
         id="path1446-6-4-0-1-9-5-4"
         style="display:inline;stroke-width:51.8522" />
      <path
         fill="#0d0d0d"
         d="m 366.81172,102.46893 12.04282,10.36774 10.76172,-10.36774 z"
         id="path1448-0-9-0-9-5-3-3"
         style="display:inline;stroke-width:51.8522" />
      <path
         fill="#565656"
         d="m 366.81172,102.46893 18.18077,4.45385 4.62377,-4.45385 z"
         id="path1450-6-2-5-4-4-9-7"
         style="display:inline;stroke-width:51.8522" />
      <path
         fill="#0d0d0d"
         d="m 371.31066,112.18183 h 24.91343 l -10.95867,9.58884 h -23.5451 z"
         id="path1452-2-0-0-2-3-1-3"
         style="display:inline;stroke-width:51.8522" />
      <path
         fill="#e0e0e0"
         d="m 448.04555,57.636503 c 0,4.01928 -8.43328,10.22265 -12.89917,10.22265 l 0.11736,-2.60134 c -3.68398,0.45334 -6.55672,-4.92526 -6.55672,-10.17528 0,-3.17423 3.75314,-7.13941 6.63114,-7.13941 6.02593,0.9007 12.70745,8.43406 12.70745,9.69338 z"
         id="path1454-6-6-31-0-9-8-4"
         style="display:inline;stroke-width:51.8522" />
      <path
         fill="#ffffff"
         d="m 447.74707,57.559043 c -1.82545,4.34635 -8.15887,8.75208 -13.02923,8.75208 -5.96203,0 -10.064,-2.71563 -10.17076,-8.67462 -0.10911,-6.14247 4.73502,-10.14146 10.79028,-10.14146 6.0635,0 11.13385,6.55222 12.40971,10.06477 z"
         id="path1456-1-8-80-6-4-8-7"
         style="display:inline;stroke-width:51.8522" />
      <path
         fill="#0d0d0d"
         d="m 439.2777,54.056273 c 0,0.69545 -0.56237,1.25782 -1.25932,1.25782 -0.6932,0 -2.46151,-1.25782 -2.46151,-1.25782 0,0 1.76757,-1.25404 2.46151,-1.25404 a 1.2555576,1.2555576 0 0 1 1.25932,1.25404 z"
         id="path1458-8-9-1-5-9-7-2"
         style="display:inline;stroke-width:51.8522" />
      <path
         fill="#b1742a"
         d="m 442.33312,58.318393 4.48394,2.39308 10.50007,-0.66009 4.12831,0.88188 1.52995,-1.77129 -17.38984,-1.82696 z"
         id="path1460-7-2-7-9-5-0-1"
         style="display:inline;stroke-width:51.8522" />
      <path
         fill="#fcb320"
         d="m 446.44942,55.005103 -4.1163,3.31329 21.03626,1.06911 -1.46008,-2.72011 -3.35317,-0.0392 z"
         id="path1462-9-6-9-5-5-5-7"
         style="display:inline;stroke-width:51.8522" />
      <path
         fill="#96412a"
         d="m 460.81313,59.658933 -2.37427,0.63154 2.81185,0.60144 z"
         id="path1464-2-6-1-6-7-2-9"
         style="display:inline;stroke-width:51.8522" />
      <path
         fill="#cccccc"
         d="m 350.18422,151.29732 h 26.10583 v 28.92146 h -26.10583 l 9.30391,-14.46147 z m 133.51315,0 h -26.10583 v 28.92146 h 26.10583 l -9.30391,-14.46147 z"
         id="path1466-0-4-0-1-3-7-5"
         style="display:inline;stroke-width:51.8522" />
      <path
         fill="#000000"
         d="m 347.77235,149.98312 10.14971,15.77342 -10.14971,15.77944 h 29.8319 v -31.55286 z m 4.8245,2.63141 h 22.37525 v 26.29002 h -22.37448 l 8.45581,-13.14801 z m 133.51238,-2.63141 -10.1497,15.77342 10.1497,15.77944 h -29.83189 v -31.55286 z m -4.82449,2.63141 h -22.37523 v 26.29002 H 481.284 l -8.45585,-13.14801 z"
         id="path1468-2-9-3-1-9-9-6"
         style="display:inline;stroke-width:51.8522" />
      <path
         fill="#828282"
         d="m 364.13218,174.13871 12.15787,5.36808 V 164.5025 m 93.46009,9.63621 -12.1586,5.36808 V 164.5025"
         id="path1470-3-5-5-4-0-1-8"
         style="display:inline;stroke-width:51.8522" />
      <path
         fill="#000000"
         d="m 374.9721,164.50173 v 12.98639 l -10.30988,-4.55233 -1.06007,2.40962 14.0021,6.18003 v -17.02371 z m 83.93741,0 v 12.98639 l 10.30986,-4.55233 1.06007,2.40962 -14.0021,6.18003 v -17.02371 z"
         id="path1472-7-0-9-3-7-9-9"
         style="display:inline;stroke-width:51.8522" />
      <path
         fill="#efefef"
         d="m 364.93288,141.30777 h 104.01583 v 32.7287 H 364.93288 Z"
         id="path1474-5-4-4-7-2-6-5"
         style="display:inline;stroke-width:51.8522" />
      <path
         fill="#000000"
         d="m 363.61042,139.99883 v 35.34882 h 106.65774 v -35.34882 z m 2.64495,2.62012 h 101.37312 v 30.10858 H 366.25537 Z"
         id="path1476-9-8-8-2-7-3-5"
         style="display:inline;stroke-width:51.8522" />
      <path
         fill="#0c5a73"
         d="m 388.68323,165.38438 c -3.14266,0 -3.82231,-2.2194 -4.84177,-2.2194 -0.7075,0 -1.30218,0.927 -1.30218,1.60139 0,1.40444 2.5765,3.3156 6.25747,3.3156 3.73737,0 6.45524,-1.96679 6.45524,-5.9846 0,-7.47317 -9.20241,-5.59135 -9.20241,-9.74898 0,-1.77055 1.47358,-2.55699 3.5396,-2.55699 2.40737,0 3.14265,1.06761 3.90803,1.06761 0.84957,0 1.24577,-1.03979 1.24577,-1.60139 0,-1.54502 -3.31332,-2.02243 -5.1538,-2.02243 -3.02988,0 -6.54092,1.23602 -6.54092,5.39363 0,6.74318 9.20241,4.80421 9.20241,9.77757 0,2.02243 -1.52848,2.97799 -3.56744,2.97799 z m 14.46899,-11.01357 c -3.25617,0 -5.88985,2.50061 -5.88985,5.45078 v 2.669 c 0,3.34338 2.71864,5.59138 6.56876,5.59138 2.85995,0 4.70043,-1.29317 4.70043,-2.13521 0,-0.50597 -0.45334,-1.32096 -1.1608,-1.32096 -0.76464,0 -1.44352,1.0676 -3.45469,1.0676 -2.18031,0 -3.6802,-1.18038 -3.6802,-3.06221 v -0.64657 h 5.97405 c 1.27436,0 2.57653,-0.0841 2.57653,-2.41564 0,-3.06296 -2.60512,-5.19817 -5.63423,-5.19817 z m -2.91712,5.78759 v -0.89842 c 0,-1.54578 1.33076,-2.64117 2.88854,-2.64117 1.61418,0 2.85998,1.20817 2.85998,2.69681 0,0.67439 -0.22704,0.84278 -1.04806,0.84278 z m 15.23361,-5.78759 c -1.92545,0 -4.27565,0.78717 -4.27565,1.79837 0,0.67442 0.36838,1.48864 1.07587,1.48864 0.56613,0 1.07585,-0.84204 3.14263,-0.84204 2.06755,0 2.8036,1.6014 2.8036,3.03363 v 0.50597 h -1.24579 c -3.93583,0 -6.62588,0.84281 -6.62588,4.0178 0,2.5284 1.69914,3.70879 3.76593,3.70879 1.92467,0 3.28473,-1.03979 4.27564,-2.19159 v 0.98338 c 0,0.53382 0.59395,0.98341 1.35855,0.98341 0.82176,0 1.44429,-0.44959 1.44429,-0.98341 v -7.05217 c 0,-2.8096 -1.55704,-5.45078 -5.71919,-5.45078 z m 2.74645,8.65359 c 0,1.34878 -1.6142,2.80957 -3.0299,2.80957 -1.04729,0 -1.84048,-0.5616 -1.84048,-1.82618 0,-1.79837 2.01041,-2.02243 4.16215,-2.02243 h 0.70823 z m 15.62904,-10.058 c 0.0287,0.73003 0.70823,0.98338 1.50066,0.98338 0.99091,0 1.50066,-0.28132 1.50066,-1.43297 0,-3.175 -2.66147,-5.19817 -6.45521,-5.19817 -3.45466,0 -6.2575,1.71418 -6.2575,6.26577 v 8.17541 c 0,4.55157 2.74643,6.26574 6.34246,6.26574 3.56742,0 6.37025,-1.71417 6.37025,-6.26574 v -3.68022 c 0,-0.53379 -0.36841,-1.0112 -0.99091,-1.0112 h -4.87036 c -0.62253,0 -0.96235,0.61798 -0.96235,1.18036 0,0.61724 0.33982,1.20743 0.96235,1.20743 h 2.85995 v 2.30363 c 0,2.47276 -1.27435,3.62456 -3.36893,3.62456 -2.12393,0 -3.34114,-1.1518 -3.34114,-3.62382 v -8.17615 c 0,-2.47279 1.21721,-3.62382 3.34114,-3.62382 2.46298,0 3.19904,1.37583 3.36893,3.00581 z m 16.59216,14.89077 c 0.59394,0 0.90598,-0.67439 0.90598,-1.32099 0,-0.67439 -0.31127,-1.32019 -0.90598,-1.32019 h -7.36193 v -16.94178 c 0,-0.67439 -0.73602,-0.95483 -1.50066,-0.95483 -0.73602,0 -1.50063,0.28047 -1.50063,0.95483 v 18.59955 c 0,0.64657 0.67965,0.98341 1.33074,0.98341 z"
         id="path1478-2-7-46-7-2-6-2"
         style="display:inline;stroke-width:51.8522" />
    </g>
  </g>
  <g
     inkscape:groupmode="layer"
     id="layer6"
     inkscape:label="Top row Gulls"
     style="display:inline" />
  <g
     inkscape:groupmode="layer"
     id="layer4"
     inkscape:label="guides"
     sodipodi:insensitive="true">
    <path
       style="fill:none;stroke:#000000;stroke-width:1.27;stroke-linecap:butt;stroke-linejoin:miter;stroke-miterlimit:4;stroke-dasharray:2.54, 1.27;stroke-dashoffset:0;stroke-opacity:1"
       d="m 103.50684,222.26665 v 6.33336"
       id="path4777" />
    <path
       style="fill:none;stroke:#000000;stroke-width:1.27;stroke-linecap:butt;stroke-linejoin:miter;stroke-miterlimit:4;stroke-dasharray:2.54, 1.27;stroke-dashoffset:0;stroke-opacity:1"
       d="M 194.56945,222.26664 V 228.6"
       id="path4777-8" />
    <path
       style="fill:none;stroke:#fefefe;stroke-width:1.27;stroke-linecap:butt;stroke-linejoin:miter;stroke-miterlimit:4;stroke-dasharray:2.54, 1.27;stroke-dashoffset:0;stroke-opacity:1"
       d="M 194.56945,4.9999999e-6 V 6.333365"
       id="path4777-8-7" />
    <path
       style="fill:none;stroke:#fefefe;stroke-width:1.27;stroke-linecap:butt;stroke-linejoin:miter;stroke-miterlimit:4;stroke-dasharray:2.54, 1.27;stroke-dashoffset:0;stroke-opacity:1"
       d="M 103.50684,4.9999999e-6 V 6.333365"
       id="path4777-8-7-3" />
  </g>
  <g
     inkscape:groupmode="layer"
     id="layer5"
     inkscape:label="Panel shapes"
     style="display:none">
    <rect
       style="fill:none;fill-opacity:1;stroke:#010101;stroke-width:1.27;stroke-miterlimit:4;stroke-dasharray:2.54, 1.27;stroke-dashoffset:0;stroke-opacity:1"
       id="rect5255"
       width="90.839104"
       height="107.64563"
       x="12.667738"
       y="6.3704743" />
    <rect
       style="fill:none;fill-opacity:1;stroke:#010101;stroke-width:1.27;stroke-miterlimit:4;stroke-dasharray:2.54, 1.27;stroke-dashoffset:0;stroke-opacity:1"
       id="rect5255-6"
       width="91.112526"
       height="107.64563"
       x="194.56946"
       y="6.3704748" />
    <rect
       style="fill:none;fill-opacity:1;stroke:#010101;stroke-width:1.27;stroke-miterlimit:4;stroke-dasharray:2.54, 1.27;stroke-dashoffset:0;stroke-opacity:1"
       id="rect5255-1"
       width="91.062599"
       height="107.64563"
       x="103.50684"
       y="6.3704748" />
    <rect
       style="fill:none;fill-opacity:1;stroke:#010101;stroke-width:1.27;stroke-miterlimit:4;stroke-dasharray:2.54, 1.27;stroke-dashoffset:0;stroke-opacity:1"
       id="rect5255-2"
       width="90.839104"
       height="107.64563"
       x="12.667737"
       y="114.621" />
    <rect
       style="fill:none;fill-opacity:1;stroke:#010101;stroke-width:1.27;stroke-miterlimit:4;stroke-dasharray:2.54, 1.27;stroke-dashoffset:0;stroke-opacity:1"
       id="rect5255-6-5"
       width="91.112526"
       height="107.64563"
       x="194.56946"
       y="114.621" />
    <rect
       style="fill:none;fill-opacity:1;stroke:#010101;stroke-width:1.27;stroke-miterlimit:4;stroke-dasharray:2.54, 1.27;stroke-dashoffset:0;stroke-opacity:1"
       id="rect5255-1-4"
       width="91.062599"
       height="107.64563"
       x="103.50684"
       y="114.621" />
  </g>
</svg>
