<?xml version="1.0" encoding="UTF-8" standalone="no"?>
<!-- Created with Inkscape (http://www.inkscape.org/) -->

<svg
   width="8.5in"
   height="11in"
   viewBox="0 0 215.9 279.4"
   version="1.1"
   id="svg1"
   inkscape:version="1.3.2 (091e20ef0f, 2023-11-25)"
   sodipodi:docname="seagl_2024_handbill_fossy.svg"
   xml:space="preserve"
   inkscape:export-filename="seagl_2024_handbill_fossy.png"
   inkscape:export-xdpi="96"
   inkscape:export-ydpi="96"
   xmlns:inkscape="http://www.inkscape.org/namespaces/inkscape"
   xmlns:sodipodi="http://sodipodi.sourceforge.net/DTD/sodipodi-0.dtd"
   xmlns="http://www.w3.org/2000/svg"
   xmlns:svg="http://www.w3.org/2000/svg"><sodipodi:namedview
     id="namedview1"
     pagecolor="#ffffff"
     bordercolor="#000000"
     borderopacity="0.25"
     inkscape:showpageshadow="2"
     inkscape:pageopacity="0.0"
     inkscape:pagecheckerboard="0"
     inkscape:deskcolor="#d1d1d1"
     inkscape:document-units="in"
     inkscape:zoom="0.55644483"
     inkscape:cx="211.162"
     inkscape:cy="369.30885"
     inkscape:window-width="2048"
     inkscape:window-height="1083"
     inkscape:window-x="1600"
     inkscape:window-y="32"
     inkscape:window-maximized="1"
     inkscape:current-layer="layer1"
     showguides="true"><sodipodi:guide
       position="12.7,279.4"
       orientation="-1,0"
       id="guide1"
       inkscape:locked="false"
       inkscape:label=""
       inkscape:color="rgb(0,134,229)" /><sodipodi:guide
       position="0,12.7"
       orientation="0,1"
       id="guide2"
       inkscape:locked="false"
       inkscape:label=""
       inkscape:color="rgb(0,134,229)" /><sodipodi:guide
       position="203.2,279.4"
       orientation="-1,0"
       id="guide3"
       inkscape:locked="false"
       inkscape:label=""
       inkscape:color="rgb(0,134,229)" /><sodipodi:guide
       position="0,266.7"
       orientation="0,1"
       id="guide4"
       inkscape:locked="false"
       inkscape:label=""
       inkscape:color="rgb(0,134,229)" /><sodipodi:guide
       position="108.76763,206.10373"
       orientation="0,-1"
       id="guide67"
       inkscape:locked="false" /></sodipodi:namedview><defs
     id="defs1"><rect
       x="750.1712"
       y="-1083.1578"
       width="308.18845"
       height="181.64526"
       id="rect986" /><rect
       x="750.1712"
       y="-1083.1578"
       width="343.21606"
       height="204.95947"
       id="rect987" /><rect
       x="748.54224"
       y="-1322.842"
       width="719.99988"
       height="144.03986"
       id="rect988" /><rect
       x="748.54224"
       y="-1322.842"
       width="719.99988"
       height="144.03986"
       id="rect989" /><rect
       x="748.54224"
       y="-1322.842"
       width="719.99988"
       height="144.03986"
       id="rect990" /><marker
       style="overflow:visible"
       id="Dot-0"
       refX="0"
       refY="0"
       orient="auto"
       inkscape:stockid="Dot"
       markerWidth="0.80000001"
       markerHeight="0.80000001"
       viewBox="0 0 1 1"
       inkscape:isstock="true"
       inkscape:collect="always"
       preserveAspectRatio="xMidYMid"><path
         transform="scale(0.5)"
         style="fill:context-stroke;fill-rule:evenodd;stroke:none"
         d="M 5,0 C 5,2.76 2.76,5 0,5 -2.76,5 -5,2.76 -5,0 c 0,-2.76 2.3,-5 5,-5 2.76,0 5,2.24 5,5 z"
         sodipodi:nodetypes="sssss"
         id="path40-3" /></marker><marker
       style="overflow:visible"
       id="ConcaveTriangle-5-1"
       refX="0"
       refY="0"
       orient="auto-start-reverse"
       inkscape:stockid="Concave triangle arrow"
       markerWidth="0.60000002"
       markerHeight="0.60000002"
       viewBox="0 0 1 1"
       inkscape:isstock="true"
       inkscape:collect="always"
       preserveAspectRatio="xMidYMid"><path
         transform="scale(0.7)"
         d="M -2,-4 9,0 -2,4 c 2,-2.33 2,-5.66 0,-8 z"
         style="fill:context-stroke;fill-rule:evenodd;stroke:none"
         id="path34-4-9" /></marker><rect
       x="750.1712"
       y="-1083.1578"
       width="326.72527"
       height="162.90057"
       id="rect986-2" /><rect
       x="750.1712"
       y="-1083.1578"
       width="275.69776"
       height="131.52445"
       id="rect987-2" /><rect
       x="748.54224"
       y="-1322.842"
       width="719.99988"
       height="144.03986"
       id="rect988-0" /><rect
       x="748.54224"
       y="-1322.842"
       width="712.43654"
       height="211.8765"
       id="rect989-2" /><rect
       x="748.54224"
       y="-1322.842"
       width="620.25484"
       height="115.30416"
       id="rect990-1" /><rect
       x="750.1712"
       y="-1083.1578"
       width="308.1006"
       height="143.57894"
       id="rect986-2-7" /><clipPath
       clipPathUnits="userSpaceOnUse"
       id="clipPath993"><path
         style="fill:#ff00ff;stroke-width:0.26458332"
         d="m 84.202663,254.47587 2.722047,-4.30491 -7.54971,1.84987 z"
         id="path995"
         inkscape:connector-curvature="0" /></clipPath><clipPath
       clipPathUnits="userSpaceOnUse"
       id="clipPath1030"><rect
         style="fill:#ff00ff;fill-opacity:1;stroke-width:0.29941496"
         id="rect1032"
         width="11.006667"
         height="9.4872961"
         x="286.91833"
         y="319.7312"
         transform="matrix(1,0,-0.62469505,0.7808688,0,0)" /></clipPath><clipPath
       clipPathUnits="userSpaceOnUse"
       id="clipPath1474"><circle
         style="color:#000000;clip-rule:nonzero;display:inline;overflow:visible;visibility:visible;opacity:1;isolation:auto;mix-blend-mode:normal;color-interpolation:sRGB;color-interpolation-filters:linearRGB;solid-color:#000000;solid-opacity:1;fill:#ff00ff;fill-opacity:1;fill-rule:evenodd;stroke:none;stroke-width:1.49542499;stroke-linecap:round;stroke-linejoin:round;stroke-miterlimit:4;stroke-dasharray:none;stroke-dashoffset:0;stroke-opacity:1;color-rendering:auto;image-rendering:auto;shape-rendering:auto;text-rendering:auto;enable-background:accumulate"
         id="circle1476"
         cx="33.866665"
         cy="306.49756"
         r="52.246082" /></clipPath></defs><g
     inkscape:groupmode="layer"
     id="layer2"
     inkscape:label="background"
     sodipodi:insensitive="true"><rect
       style="display:inline;fill:#ffffff;stroke-width:3.47617;stroke-linecap:round"
       id="rect1"
       width="215.89999"
       height="279.39999"
       x="0"
       y="7.1054274e-15" /><path
       id="path56"
       style="fill:#e6e6e6;stroke-width:1.51073"
       d="m 2651.1655,696.73398 -7.0742,4.28686 15.974,26.35865 2.6337,4.90871 0.2571,-0.13873 0.1095,0.179 3.7181,-2.25349 2.354,-1.27553 -0.059,-0.11389 1.0625,-0.64385 z m 137.8807,0.0577 -14.8436,27.01939 -2.9307,4.72967 0.2479,0.15249 -0.1018,0.18409 3.8161,2.09659 2.2767,1.39735 0.068,-0.10933 1.0888,0.59816 17.6271,-32.085 z m -109.3037,3.99354 -6.9453,2.3179 6.7785,20.59482 6.9452,-2.31789 z m 82.1467,0.21588 -8.0456,20.13333 6.8101,2.68889 8.0456,-20.13333 z m -121.9975,21.08967 -5.7336,4.55298 13.4129,17.03425 5.7336,-4.55299 z m 161.704,0.6025 -14.446,16.16784 5.4795,4.85549 14.4461,-16.16731 z m -178.2567,14.90295 -4.8559,5.48024 16.1672,14.44615 4.8561,-5.47974 z m 194.6889,0.77188 -17.0345,13.41302 4.5538,5.73373 17.0341,-13.41301 z"
       sodipodi:nodetypes="cccccccccccccccccccccccccccccccccccccccccccccccccccc"
       transform="translate(-2612.2891,-684.16236)" /><path
       id="path990"
       style="color:#000000;fill:#e6e6e6;-inkscape-stroke:none"
       d="m 2671.4059,684.16237 c -22.4222,7.45205 -42.5627,19.87816 -59.1168,35.99161 v 2.33267 c 17.8292,-17.72501 40.0091,-31.05692 64.7873,-38.32428 z m 91.998,0 c 24.7775,7.26719 46.9565,20.59886 64.7852,38.32325 v -2.33268 C 2811.6356,704.04 2791.496,691.61426 2769.0744,684.16237 Z m 64.7852,258.90306 c -7.7866,7.74105 -16.7576,14.57106 -26.1632,20.49694 h 3.2018 c 8.1832,-5.36167 16.041,-11.42811 22.9614,-18.16426 z m -215.9,0.42065 v 2.32802 c 6.7994,6.56732 14.2037,12.50024 22.1072,17.74827 h 3.1983 c -9.1283,-5.81489 -17.6336,-12.51155 -25.3055,-20.07629 z"
       transform="translate(-2612.2891,-684.16236)" /></g><g
     inkscape:groupmode="layer"
     id="layer3"
     inkscape:label="bg"
     style="display:inline"><rect
       style="fill:#0c5973;fill-opacity:1;stroke:#0c5a73;stroke-width:0.656582;stroke-dasharray:none;stroke-opacity:1"
       id="rect25-5"
       width="103.34342"
       height="26.843418"
       x="8.2782888"
       y="234.09665"
       ry="6.9061122"
       rx="6.9061122" /></g><g
     inkscape:label="content"
     inkscape:groupmode="layer"
     id="layer1"><g
       id="layer2-3"
       inkscape:label="logo"
       style="display:inline"
       transform="matrix(0.83478279,0,0,0.83478279,87.63,0.33080636)"><g
         id="g1554"
         transform="translate(-9.5250018,-220.20813)"
         inkscape:label="circle"><circle
           r="22.699371"
           cy="258.25339"
           cx="33.866669"
           id="path978"
           style="color:#000000;clip-rule:nonzero;display:inline;overflow:visible;visibility:visible;opacity:1;isolation:auto;mix-blend-mode:normal;color-interpolation:sRGB;color-interpolation-filters:linearRGB;solid-color:#000000;solid-opacity:1;fill:#1d7193;fill-opacity:1;fill-rule:evenodd;stroke:none;stroke-width:1.49542;stroke-linecap:round;stroke-linejoin:round;stroke-miterlimit:4;stroke-dasharray:none;stroke-dashoffset:0;stroke-opacity:1;color-rendering:auto;image-rendering:auto;shape-rendering:auto;text-rendering:auto;enable-background:accumulate"
           inkscape:label="circle-fill" /><circle
           clip-path="url(#clipPath1474)"
           style="color:#000000;clip-rule:nonzero;display:inline;overflow:visible;visibility:visible;opacity:1;isolation:auto;mix-blend-mode:normal;color-interpolation:sRGB;color-interpolation-filters:linearRGB;solid-color:#000000;solid-opacity:1;fill:#0c5a73;fill-opacity:1;fill-rule:evenodd;stroke:none;stroke-width:1.49542;stroke-linecap:round;stroke-linejoin:round;stroke-miterlimit:4;stroke-dasharray:none;stroke-dashoffset:0;stroke-opacity:1;color-rendering:auto;image-rendering:auto;shape-rendering:auto;text-rendering:auto;enable-background:accumulate"
           id="circle1057"
           cx="33.866669"
           cy="258.25339"
           r="22.699371"
           inkscape:label="circle-shade" /><path
           style="color:#000000;fill:#000000;fill-rule:evenodd;stroke-linecap:round;stroke-linejoin:round;-inkscape-stroke:none"
           d="m 33.867187,235.02539 c -12.822485,0 -23.228515,10.40603 -23.228515,23.22852 0,12.82248 10.40603,23.22851 23.228515,23.22851 12.822486,0 23.228516,-10.40603 23.228516,-23.22851 0,-12.82249 -10.40603,-23.22852 -23.228516,-23.22852 z m 0,1.05859 c 12.250523,0 22.169922,9.9194 22.169922,22.16993 0,12.25052 -9.919399,22.16992 -22.169922,22.16992 -12.250522,0 -22.169921,-9.9194 -22.169921,-22.16992 0,-12.25053 9.919399,-22.16993 22.169921,-22.16993 z"
           id="circle1049"
           inkscape:label="circle-border" /></g><g
         id="g968"
         transform="matrix(1.022702,0,0,1.022702,-9.6513756,9.1006463)"
         style="stroke-width:0.977802"
         inkscape:label="seagull"><g
           transform="matrix(1.0007489,0,0,1.0007489,-0.16442922,-229.39224)"
           id="g1520"
           style="stroke-width:0.97707"
           inkscape:label="neck"><path
             style="fill:#ffffff;fill-opacity:1;stroke-width:0.97707"
             d="m 138.96875,58.125 v 45.125 h 11.31836 V 58.125 Z"
             transform="matrix(0.26458334,0,0,0.26458334,0,229.26665)"
             id="path1143"
             inkscape:connector-curvature="0" /><path
             style="fill:#e0e0e0;fill-opacity:1;stroke-width:0.97707"
             d="m 148.375,58.125 v 45.125 h 4.22656 V 58.125 Z"
             transform="matrix(0.26458334,0,0,0.26458334,0,229.26665)"
             id="path1145"
             inkscape:connector-curvature="0" /></g><g
           id="g942"
           style="stroke-width:0.977802"
           inkscape:label="body"><path
             style="fill:#b1742a;stroke-width:0.25871"
             inkscape:connector-curvature="0"
             d="M 37.346489,41.836231 36.30707,33.129005 c 0,0 -0.177043,-0.409526 -0.791338,-0.409526 -0.614297,0 -0.604941,0.409526 -0.604941,0.409526 l 0.86618,9.882115 h 4.716879 l -1.062973,-0.804522 z"
             id="path1141"
             inkscape:label="leg-back" /><g
             style="stroke-width:0.968895"
             id="g1360"
             transform="matrix(1.0091933,0,0,1.0091933,-0.57824936,-231.69082)"
             inkscape:label="torso"><path
               id="path1147"
               d="m 18.82901,264.51643 4.06754,-0.15983 11.13485,-0.14032 5.25212,-3.42399 2.38519,-3.36777 0.32801,-0.93349 -7.31917,-7.11593 z"
               inkscape:connector-curvature="0"
               style="fill:#ffffff;fill-opacity:1;stroke-width:0.256353"
               sodipodi:nodetypes="cccccccc" /><path
               id="path1149"
               d="M 18.942648,264.51643 H 34.63944 c 3.65092,-1.5413 7.4976,-4.67653 7.35728,-8.0254 -1.77734,2.61923 -3.53626,4.39866 -5.99969,5.57567 -5.18203,2.47594 -12.62718,1.6638 -17.054382,2.44973 z"
               inkscape:connector-curvature="0"
               style="fill:#e0e0e0;fill-opacity:1;stroke-width:0.256353"
               sodipodi:nodetypes="cccac" /></g><path
             style="display:inline;fill:#fcb320;stroke-width:0.25871"
             inkscape:connector-curvature="0"
             d="m 33.115365,41.836231 0.692943,-8.707226 c 0,0 -0.1767,-0.409526 -0.791349,-0.409526 -0.614296,0 -0.604588,0.409526 -0.604588,0.409526 L 31.54618,43.01112 h 4.716547 l -1.062984,-0.804522 z"
             id="path1151"
             inkscape:label="leg-front" /><g
             style="display:inline;stroke-width:0.968895"
             id="g1369"
             transform="matrix(1.0091933,0,0,1.0091933,-0.44585861,-232.09022)"
             inkscape:label="wings"><g
               id="g1163"
               transform="matrix(0.73955871,-0.66486141,0,1.4098297,-53.997234,-73.284165)"
               style="stroke-width:0.94887"><path
                 inkscape:connector-curvature="0"
                 id="path1159"
                 d="m 100.65371,284.91444 h 13.75833 v 6.98739 h -13.75833 z"
                 style="fill:#b3b3b3;fill-opacity:1;stroke-width:0.251055" /><path
                 style="fill:#cccccc;fill-opacity:1;stroke-width:0.251055"
                 d="m 100.65371,284.91444 h 13.75833 v 2.23125 h -13.75833 z"
                 id="path1161"
                 inkscape:connector-curvature="0" /></g><g
               style="stroke-width:0.968895"
               id="g1169"
               inkscape:transform-center-x="-5.1396318"
               inkscape:transform-center-y="1.2593331"
               transform="rotate(13.767645,15.59698,-5.3526325)"
               clip-path="url(#clipPath993)"><rect
                 y="246.72916"
                 x="79.375"
                 height="10.583334"
                 width="10.583333"
                 id="rect1165"
                 style="fill:#0d0d0d;fill-opacity:1;stroke-width:0.256353" /><rect
                 style="fill:#565656;fill-opacity:1;stroke-width:0.256353"
                 id="rect1167"
                 width="10.583333"
                 height="5.2916665"
                 x="79.375"
                 y="246.72916" /></g><path
               style="fill:#0d0d0d;fill-opacity:1;stroke-width:0.256353"
               d="m 17.825152,263.11501 h 8.491257 l -3.734945,3.26837 h -8.025032 z"
               id="path1171"
               inkscape:connector-curvature="0" /></g></g><g
           transform="matrix(1.0348417,0,0,1.0348417,-1.5041705,-238.04168)"
           id="g1308"
           style="stroke-width:0.944881"
           inkscape:label="head"><path
             sodipodi:nodetypes="cccscc"
             style="fill:#e0e0e0;stroke-width:0.25"
             inkscape:connector-curvature="0"
             d="m 43.911747,244.21473 c 0,1.33603 -2.803181,3.39791 -4.287665,3.39791 l 0.03921,-0.86483 c -1.224787,0.15087 -2.179513,-1.63705 -2.179513,-3.38205 0,-1.0551 1.247522,-2.37309 2.20396,-2.37309 2.003086,0.29951 4.224008,2.80355 4.224008,3.22206 z"
             id="path1153" /><path
             sodipodi:nodetypes="ccssc"
             style="fill:#ffffff;stroke-width:0.25"
             inkscape:connector-curvature="0"
             d="m 43.812616,244.18909 c -0.606756,1.44454 -2.711975,2.90899 -4.330664,2.90899 -1.981664,0 -3.345468,-0.90271 -3.380765,-2.88335 -0.03641,-2.04195 1.573883,-3.37085 3.58658,-3.37089 2.015259,-5e-5 3.700576,2.17783 4.124849,3.34525 z"
             id="path1155" /><path
             style="fill:#0d0d0d;fill-opacity:1;stroke-width:0.25"
             inkscape:connector-curvature="0"
             d="m 40.997334,243.02474 c 0,0.2311 -0.186948,0.41805 -0.418413,0.41805 -0.230386,0 -0.818301,-0.41805 -0.818301,-0.41805 0,0 0.587552,-0.417 0.818301,-0.417 0.231465,-3.5e-4 0.418413,0.18695 0.418413,0.417 z"
             id="path1157" /><path
             style="fill:#b1742a;fill-opacity:1;stroke-width:0.25"
             d="m 42.012911,244.44134 1.490605,0.79542 3.489901,-0.2195 1.37229,0.29334 0.508511,-0.58899 -5.780289,-0.60696 z"
             id="path1173"
             inkscape:connector-curvature="0"
             sodipodi:nodetypes="ccccccc" /><path
             sodipodi:nodetypes="cccccc"
             inkscape:connector-curvature="0"
             id="path1175"
             d="m 43.381174,243.34004 -1.368263,1.1013 6.992071,0.35537 -0.485077,-0.90422 -1.114429,-0.013 z"
             style="fill:#fcb320;stroke-width:0.25" /><path
             sodipodi:nodetypes="cccc"
             inkscape:connector-curvature="0"
             id="path1177"
             d="m 48.155597,244.88693 -0.789168,0.21006 0.93456,0.19978 z"
             style="fill:#96412a;fill-opacity:1;stroke-width:0.25" /></g></g><g
         id="g5"
         inkscape:label="ribbon"><g
           id="path1467"
           inkscape:label="ribbon-right-back"
           transform="matrix(-0.99999999,0,0,0.99999999,48.683323,-7.9365943e-8)"><path
             style="color:#000000;fill:#cccccc;fill-rule:evenodd;-inkscape-stroke:none"
             d="M 0.8582679,57.091092 H 10.041637 V 67.265028 H 0.8582679 L 4.1310662,62.17806 Z"
             id="path14" /><path
             style="color:#000000;fill:#000000;fill-rule:evenodd;-inkscape-stroke:none"
             d="M 0,56.623047 3.5742188,62.177734 0,67.734375 H 10.509766 V 56.623047 Z m 1.7148437,0.935547 h 7.8593751 v 9.238281 H 1.7148437 L 4.6875,62.177734 Z"
             id="path15" /></g><g
           id="path1469"
           inkscape:label="ribbon-right-front"
           transform="matrix(-0.99999999,0,0,0.99999999,48.683323,-7.9365943e-8)"><path
             style="color:#000000;fill:#828282;fill-rule:evenodd;-inkscape-stroke:none"
             d="m 5.7646981,65.126361 4.2769389,1.888262 v -5.27797"
             id="path12" /><path
             style="color:#000000;fill:#000000;fill-rule:evenodd;-inkscape-stroke:none"
             d="m 9.5742188,61.736328 v 4.560547 L 5.953125,64.697266 5.5761719,65.554687 10.509766,67.734375 v -5.998047 z"
             id="path13" /></g><g
           id="rect982"
           inkscape:label="ribbon-left-back"><path
             style="color:#000000;fill:#cccccc;fill-rule:evenodd;-inkscape-stroke:none"
             d="M 0.8582679,57.091092 H 10.041637 V 67.265028 H 0.8582679 L 4.1310662,62.17806 Z"
             id="path8" /><path
             style="color:#000000;fill:#000000;fill-rule:evenodd;-inkscape-stroke:none"
             d="M 0,56.623047 3.5742188,62.177734 0,67.734375 H 10.509766 V 56.623047 Z m 1.7148437,0.935547 h 7.8593751 v 9.238281 H 1.7148437 L 4.6875,62.177734 Z"
             id="path9" /></g><g
           id="path989"
           inkscape:label="ribbon-left-front"><path
             style="color:#000000;fill:#828282;fill-rule:evenodd;-inkscape-stroke:none"
             d="m 5.7646981,65.126361 4.2769389,1.888262 v -5.27797"
             id="path10" /><path
             style="color:#000000;fill:#000000;fill-rule:evenodd;-inkscape-stroke:none"
             d="m 9.5742188,61.736328 v 4.560547 L 5.953125,64.697266 5.5761719,65.554687 10.509766,67.734375 v -5.998047 z"
             id="path11" /></g><g
           style="stroke-width:1.13779"
           id="g4613"
           transform="matrix(0.88230281,0,0,0.87550007,-5.5389867,13.95178)"
           inkscape:label="ribbon-center"><path
             style="color:#000000;fill:#efefef;fill-rule:evenodd;stroke-linecap:square;-inkscape-stroke:none"
             d="M 13.13092,45.26022 H 54.602409 V 58.410851 H 13.13092 Z"
             id="path6"
             inkscape:label="fill" /><path
             style="color:#000000;fill:#000000;fill-rule:evenodd;stroke-linecap:square;-inkscape-stroke:none"
             d="m 12.597656,44.726562 v 14.216797 h 42.53711 V 44.726562 Z m 1.066407,1.066407 H 54.070312 V 57.876953 H 13.664063 Z"
             id="path7"
             inkscape:label="border" /><path
             style="font-weight:600;font-size:11.2889px;line-height:125%;font-family:Dosis;-inkscape-font-specification:'Dosis Semi-Bold';letter-spacing:0px;word-spacing:0px;fill:#0c5a73;stroke-width:0.301041px"
             d="m 22.600348,54.934334 c -1.253068,0 -1.524002,-0.891823 -1.930402,-0.891823 -0.282223,0 -0.519289,0.372534 -0.519289,0.643467 0,0.564445 1.027289,1.33209 2.494847,1.33209 1.490134,0 2.573869,-0.790223 2.573869,-2.404535 0,-3.002848 -3.668893,-2.246491 -3.668893,-3.917249 0,-0.7112 0.587023,-1.02729 1.411113,-1.02729 0.959556,0 1.253068,0.428979 1.557868,0.428979 0.338667,0 0.496712,-0.41769 0.496712,-0.643468 0,-0.620889 -1.320802,-0.812801 -2.05458,-0.812801 -1.207913,0 -2.607736,0.496712 -2.607736,2.167469 0,2.709336 3.668892,1.930402 3.668892,3.928538 0,0.8128 -0.6096,1.196623 -1.422401,1.196623 z m 5.768618,-4.425249 c -1.298223,0 -2.348091,1.004712 -2.348091,2.190047 v 1.072445 c 0,1.343379 1.083734,2.246491 2.619025,2.246491 1.140179,0 1.873957,-0.519289 1.873957,-0.857956 0,-0.2032 -0.180622,-0.530578 -0.462845,-0.530578 -0.3048,0 -0.575734,0.428978 -1.377245,0.428978 -0.869246,0 -1.467557,-0.474134 -1.467557,-1.23049 v -0.259645 h 2.381957 c 0.508001,0 1.02729,-0.03387 1.02729,-0.970845 0,-1.23049 -1.038578,-2.088447 -2.246491,-2.088447 z m -1.162756,2.325514 v -0.361245 c 0,-0.62089 0.530578,-1.061157 1.151467,-1.061157 0.643468,0 1.140179,0.485423 1.140179,1.083735 0,0.270933 -0.09031,0.338667 -0.417689,0.338667 z m 6.073438,-2.325514 c -0.767645,0 -1.704624,0.316089 -1.704624,0.72249 0,0.270933 0.146756,0.598311 0.428979,0.598311 0.225778,0 0.428978,-0.338667 1.253068,-0.338667 0.824089,0 1.117601,0.643468 1.117601,1.219202 v 0.2032 H 33.87796 c -1.569157,0 -2.641603,0.338667 -2.641603,1.614313 0,1.016001 0.677334,1.490134 1.501424,1.490134 0.767645,0 1.309513,-0.417689 1.704624,-0.880534 v 0.395112 c 0,0.214489 0.237067,0.395111 0.541867,0.395111 0.327378,0 0.575734,-0.180622 0.575734,-0.395111 v -2.833514 c 0,-1.12889 -0.620889,-2.190047 -2.280358,-2.190047 z m 1.095024,3.476981 c 0,0.541868 -0.643468,1.12889 -1.207913,1.12889 -0.417689,0 -0.733778,-0.225778 -0.733778,-0.733778 0,-0.72249 0.801512,-0.812801 1.659468,-0.812801 h 0.282223 z m 6.231463,-4.041426 c 0.01129,0.293511 0.282222,0.395112 0.598312,0.395112 0.395111,0 0.598311,-0.112889 0.598311,-0.575734 0,-1.275646 -1.061156,-2.088447 -2.573869,-2.088447 -1.377246,0 -2.494847,0.688623 -2.494847,2.517425 v 3.28507 c 0,1.828802 1.095023,2.517425 2.528714,2.517425 1.422401,0 2.540002,-0.688623 2.540002,-2.517425 V 51.99922 c 0,-0.214489 -0.146755,-0.4064 -0.395111,-0.4064 h -1.941691 c -0.248356,0 -0.383823,0.248355 -0.383823,0.474133 0,0.248356 0.135467,0.485423 0.383823,0.485423 h 1.140179 v 0.92569 c 0,0.993423 -0.508001,1.456268 -1.343379,1.456268 -0.846668,0 -1.33209,-0.462845 -1.33209,-1.456268 v -3.28507 c 0,-0.993423 0.485422,-1.456268 1.33209,-1.456268 0.982134,0 1.275646,0.553156 1.343379,1.207912 z m 6.615292,5.983117 c 0.237067,0 0.361244,-0.270933 0.361244,-0.530578 0,-0.270934 -0.124177,-0.530578 -0.361244,-0.530578 h -2.935114 v -6.807207 c 0,-0.270934 -0.293512,-0.383823 -0.598312,-0.383823 -0.293512,0 -0.598312,0.112889 -0.598312,0.383823 v 7.473252 c 0,0.259644 0.270934,0.395111 0.530578,0.395111 z"
             id="text3"
             aria-label="SeaGL"
             inkscape:label="text" /></g></g></g><path
       style="fill:#000000;fill-opacity:1;stroke:none;stroke-width:1.462;stroke-dasharray:none"
       d="m 89.61788,23.673101 -4.1947,-0.52274"
       id="path949" /><text
       xml:space="preserve"
       style="font-style:normal;font-variant:normal;font-weight:normal;font-stretch:normal;font-size:6.49324px;font-family:Lato;-inkscape-font-specification:Lato;text-align:center;text-anchor:middle;fill:#0c5a73;fill-opacity:1;stroke:none;stroke-width:0.961058;stroke-dasharray:none"
       x="59.883324"
       y="241.46487"
       id="text976"><tspan
         sodipodi:role="line"
         id="tspan976"
         style="font-style:normal;font-variant:normal;font-weight:bold;font-stretch:normal;font-size:6.35px;font-family:Dosis;-inkscape-font-specification:'Dosis Semi-Bold';fill:#fcb320;fill-opacity:1;stroke-width:0.961058"
         x="59.883324"
         y="241.46487">ATTEND THE CONFERENCE</tspan><tspan
         sodipodi:role="line"
         style="font-style:normal;font-variant:normal;font-weight:normal;font-stretch:normal;font-size:6.35px;font-family:Lato;-inkscape-font-specification:Lato;fill:#ffffff;fill-opacity:1;stroke-width:0.961058"
         x="59.883324"
         y="249.58142"
         id="tspan20">In-Person or Watch Remotely</tspan><tspan
         sodipodi:role="line"
         style="font-style:normal;font-variant:normal;font-weight:normal;font-stretch:normal;font-size:6.35px;font-family:Lato;-inkscape-font-specification:Lato;fill:#ffffff;fill-opacity:1;stroke-width:0.961058"
         x="59.883324"
         y="257.69797"
         id="tspan21">No Fee &amp; No Registration Required</tspan></text><text
       xml:space="preserve"
       transform="matrix(0.26458333,0,0,0.26458333,-184.40595,556.74062)"
       id="text983"
       style="font-style:normal;font-variant:normal;font-weight:normal;font-stretch:normal;font-size:26.6667px;font-family:Lato;-inkscape-font-specification:Lato;text-align:center;white-space:pre;shape-inside:url(#rect989-2);shape-padding:3.16697;display:inline;fill:#000000;fill-opacity:1;stroke:none;stroke-width:5.52567;stroke-dasharray:none"
       x="1026.2823"
       y="0"><tspan
         x="767.63362"
         y="-1294.8757"
         id="tspan2">Welcoming and informative for professionals, newcomers, </tspan><tspan
         x="800.9403"
         y="-1261.5424"
         id="tspan4">enthusiasts, and all others regardless of background. </tspan></text><text
       xml:space="preserve"
       transform="matrix(0.26458333,0,0,0.26458333,-172.23755,457.5783)"
       id="text984"
       style="font-style:normal;font-variant:normal;font-weight:normal;font-stretch:normal;font-size:26.6667px;font-family:Lato;-inkscape-font-specification:Lato;text-align:center;white-space:pre;shape-inside:url(#rect990-1);display:inline;fill:#000000;fill-opacity:1;stroke:none;stroke-width:5.52567;stroke-dasharray:none"
       x="1321.6819"
       y="0"><tspan
         x="760.69612"
         y="-1298.0418"
         id="tspan6"><tspan
   style="font-weight:bold;-inkscape-font-specification:'Lato Bold';fill:#0c5a73"
   id="tspan5">SeaGL</tspan> is an annual community-focused conference </tspan><tspan
         x="802.93629"
         y="-1264.7084"
         id="tspan7">supporting free/libre/open source software, </tspan><tspan
         x="823.46294"
         y="-1231.375"
         id="tspan8">hardware, and culture. Presentations on:</tspan></text><text
       xml:space="preserve"
       style="font-style:normal;font-variant:normal;font-weight:normal;font-stretch:normal;font-size:7.05556px;font-family:Lato;-inkscape-font-specification:Lato;text-align:center;text-anchor:middle;fill:#000000;fill-opacity:1;stroke:none;stroke-width:0.799999;stroke-dasharray:none;stroke-opacity:1"
       x="107.75597"
       y="84.110153"
       id="text971-5"><tspan
         sodipodi:role="line"
         style="font-style:normal;font-variant:normal;font-weight:bold;font-stretch:normal;font-size:7.05556px;font-family:Lato;-inkscape-font-specification:'Lato Bold';stroke-width:0.8"
         x="107.75597"
         y="84.110153"
         id="tspan3">November 8ᵗʰ &amp; 9ᵗʰ, 2024</tspan></text><text
       xml:space="preserve"
       style="font-style:normal;font-variant:normal;font-weight:900;font-stretch:normal;font-size:8.81944px;font-family:Lato;-inkscape-font-specification:'Lato Heavy';fill:#0c5973;fill-opacity:1;stroke:none;stroke-width:1.462;stroke-dasharray:none"
       x="107.88121"
       y="72.981552"
       id="text43"><tspan
         sodipodi:role="line"
         style="font-style:normal;font-variant:normal;font-weight:500;font-stretch:normal;font-size:10.5833px;font-family:dosis;-inkscape-font-specification:'dosis Medium';text-align:center;text-anchor:middle;fill:#0c5973;fill-opacity:1;stroke-width:1.462"
         x="107.88121"
         y="72.981552"
         id="tspan43">SEATTLE GNU/LINUX CONFERENCE</tspan></text><g
       id="g47"
       transform="translate(67.877769,241.93625)"
       inkscape:label="website"><text
         xml:space="preserve"
         style="font-style:normal;font-variant:normal;font-weight:600;font-stretch:normal;font-size:7.05556px;font-family:dosis;-inkscape-font-specification:'dosis Semi-Bold';text-align:center;text-anchor:middle;fill:#125e76;fill-opacity:1;stroke:none;stroke-width:0.952286;stroke-dasharray:none"
         x="23.336298"
         y="30.306396"
         id="text972"><tspan
           sodipodi:role="line"
           id="tspan972"
           style="font-style:normal;font-variant:normal;font-weight:bold;font-stretch:normal;font-size:7.05556px;font-family:Lato;-inkscape-font-specification:'Lato Bold';fill:#125e76;fill-opacity:1;stroke-width:0.952286"
           x="23.336298"
           y="30.306396">seagl.org</tspan></text><path
         id="path974"
         style="fill:#125e76;fill-opacity:1;stroke-width:0.109813"
         d="m 3.2347851,24.60625 c -0.089,0 -0.1782,0.0185 -0.2615,0.0558 -0.1954,0.0876 -3.28939999,3.17777 -3.38739999,3.38326 0,0.003 -0.382,0.80632 0.7152,0.97668 v 1.08056 c 0,0.59427 0.013,1.15805 0.028,1.25315 0.055,0.33286 0.2745,0.50759 0.5623,0.65267 l -0.01,5.2e-4 c 0.05,0.0144 0.39979999,0.028 0.77719999,0.0289 l 3.1776,-0.003 c 0.6848,-0.008 0.7343,-0.0126 0.847,-0.0729 0.2421,-0.11064 0.3493,-0.32243 0.4604,-0.54622 l 0.013,-1.20251 0.012,-1.20251 c 0.5453,-0.002 0.9414,-0.49698 0.7152,-0.96531 -0.098,-0.20549 -3.192,-3.29566 -3.3874,-3.38326 -0.083,-0.0373 -0.1724,-0.0558 -0.2615,-0.0558 z m 5e-4,2.06344 a 1.2746329,1.2746329 0 0 1 1.2749,1.27486 1.2746329,1.2746329 0 0 1 -1.2749,1.27434 1.2746329,1.2746329 0 0 1 -1.2743,-1.27434 1.2746329,1.2746329 0 0 1 1.2743,-1.27486 z m 0,3.08767 a 0.78564471,0.78564471 0 0 1 0.7855,0.78548 0.78564471,0.78564471 0 0 1 -0.7855,0.78548 0.78564471,0.78564471 0 0 1 -0.7855,-0.78548 0.78564471,0.78564471 0 0 1 0.7855,-0.78548 z" /></g><g
       id="g67"
       inkscape:label="mastodon"
       transform="translate(0,-0.80374993)"><text
         xml:space="preserve"
         style="font-style:normal;font-variant:normal;font-weight:normal;font-stretch:normal;font-size:7.05556px;font-family:Lato;-inkscape-font-specification:Lato;text-align:center;text-anchor:middle;fill:#0c5a73;fill-opacity:1;stroke:none;stroke-width:0.799999;stroke-dasharray:none;stroke-opacity:1"
         x="158.91141"
         y="273.04642"
         id="text973"><tspan
           sodipodi:role="line"
           id="tspan973"
           style="font-style:normal;font-variant:normal;font-weight:bold;font-stretch:normal;font-family:Lato;-inkscape-font-specification:'Lato Bold';fill:#0c5a73;fill-opacity:1;stroke-width:0.8"
           x="158.91141"
           y="273.04642">@seagl@mastodon.social</tspan></text><path
         style="fill:#125e76;fill-opacity:1"
         d="m 112.13832,274.77263 c -0.894,-0.25369 -1.662,-0.9209 -1.8567,-1.61314 -0.1627,-0.57852 -0.3262,-2.74507 -0.2705,-3.58351 0.1251,-1.88001 1.1782,-2.4434 4.2927,-2.29639 1.5896,0.075 2.1861,0.29463 2.6323,0.96919 0.2594,0.39224 0.2651,0.43318 0.2651,1.93005 0,1.41677 -0.017,1.55835 -0.2263,1.92386 -0.4868,0.84915 -1.2066,1.06896 -3.321,1.01428 -1.2548,-0.0324 -1.4126,-0.0186 -1.4126,0.12346 0,0.2874 0.3946,0.67043 0.8044,0.78076 0.3626,0.0976 0.9347,0.0747 1.6755,-0.0671 0.2482,-0.0475 0.2701,-0.0267 0.2701,0.25575 0,0.26224 -0.054,0.33026 -0.3683,0.4625 -0.4877,0.20534 -1.912,0.26283 -2.4847,0.10031 z m 0,-4.00397 c 0,-0.59775 0.046,-1.17231 0.1017,-1.27679 0.1175,-0.21966 0.7206,-0.26733 0.8501,-0.0672 0.044,0.0675 0.1016,0.47633 0.1286,0.90848 l 0.049,0.78571 h 0.3928 0.3929 l 0.049,-0.81411 c 0.053,-0.87646 0.1273,-0.99862 0.6104,-1.00135 0.3912,-0.002 0.47,0.24323 0.47,1.46526 v 1.08681 h 0.4419 0.442 v -1.0067 c 0,-0.55368 -0.042,-1.1767 -0.09,-1.38449 -0.2274,-0.98021 -1.3243,-1.31189 -1.9977,-0.60412 l -0.3035,0.31892 -0.3125,-0.33145 c -0.2759,-0.29253 -0.3716,-0.33145 -0.8151,-0.33145 -0.9767,0 -1.2913,0.60148 -1.2913,2.46877 v 0.87052 h 0.442 0.4419 z"
         id="path973" /></g><g
       id="g69"
       transform="translate(0,3.7614402)"><text
         xml:space="preserve"
         style="font-style:normal;font-variant:normal;font-weight:900;font-stretch:normal;font-size:7.05556px;font-family:Lato;-inkscape-font-specification:'Lato Heavy';text-align:start;text-anchor:start;fill:#878787;fill-opacity:1;stroke:none;stroke-width:1.462;stroke-dasharray:none"
         x="25.157398"
         y="93.81575"
         id="text950"><tspan
           sodipodi:role="line"
           style="font-style:normal;font-variant:normal;font-weight:600;font-stretch:normal;font-size:7.05556px;font-family:dosis;-inkscape-font-specification:'dosis Semi-Bold';text-align:start;text-anchor:start;fill:#878787;fill-opacity:1;stroke-width:1.462"
           x="25.157398"
           y="93.81575"
           id="tspan47">YEAR 12   “AROUND THE CLOCK”</tspan></text><path
         style="fill:#0c5a73;fill-opacity:1;stroke:#1d7193;stroke-width:0.840162;stroke-dasharray:none;stroke-opacity:1;marker-start:url(#Dot-0);marker-end:url(#ConcaveTriangle-5-1)"
         d="m 118.19857,91.260331 71.78974,-0.347507"
         id="path971"
         sodipodi:nodetypes="cc" /><rect
         style="fill:none;fill-opacity:1;stroke:#878787;stroke-width:0.529167;stroke-linecap:round;stroke-opacity:0.992157"
         id="rect48"
         width="26.663303"
         height="9.4075375"
         x="23.000502"
         y="86.503143"
         ry="2.2585437"
         rx="2.2585437" /></g><path
       style="fill:#0c5a73;fill-opacity:1;stroke:#1d7193;stroke-width:0.840162;stroke-dasharray:none;stroke-opacity:1;marker-start:url(#Dot-0);marker-end:url(#ConcaveTriangle-5-1)"
       d="m 60.800724,270.37346 -44.78234,-0.34751"
       id="path48"
       sodipodi:nodetypes="cc" /><rect
       style="fill:none;fill-opacity:1;stroke:#0c5a73;stroke-width:0.907069;stroke-dasharray:none;stroke-opacity:1"
       id="rect25"
       width="199.09293"
       height="26.592932"
       x="8.4035416"
       y="234.22191"
       ry="6.9061117"
       rx="6.9061122" /><text
       xml:space="preserve"
       style="font-style:normal;font-variant:normal;font-weight:normal;font-stretch:normal;font-size:10.5833px;line-height:normal;font-family:dosis;-inkscape-font-specification:dosis;font-variant-ligatures:normal;font-variant-position:normal;font-variant-caps:normal;font-variant-numeric:normal;font-variant-alternates:normal;font-variant-east-asian:normal;font-feature-settings:normal;font-variation-settings:normal;text-indent:0;text-align:center;text-decoration-line:none;text-decoration-style:solid;text-decoration-color:#000000;letter-spacing:normal;word-spacing:normal;text-transform:none;writing-mode:lr-tb;direction:ltr;text-orientation:mixed;dominant-baseline:auto;baseline-shift:baseline;white-space:normal;opacity:1;vector-effect:none;fill:#0c5973;fill-opacity:1;stroke:none;stroke-width:1.462;stroke-linecap:butt;stroke-linejoin:miter;stroke-miterlimit:4;stroke-dasharray:none;stroke-dashoffset:0;stroke-opacity:1;-inkscape-stroke:none"
       x="61.995872"
       y="94.475952"
       id="text1"><tspan
         sodipodi:role="line"
         id="tspan1"
         style="stroke-width:1.462"></tspan></text><text
       xml:space="preserve"
       style="font-style:normal;font-variant:normal;font-weight:normal;font-stretch:normal;font-size:5.64444px;line-height:1.5;font-family:dosis;-inkscape-font-specification:dosis;font-variant-ligatures:normal;font-variant-position:normal;font-variant-caps:normal;font-variant-numeric:normal;font-variant-alternates:normal;font-variant-east-asian:normal;font-feature-settings:normal;font-variation-settings:normal;text-indent:0;text-align:center;text-decoration-line:none;text-decoration-style:solid;text-decoration-color:#000000;letter-spacing:normal;word-spacing:normal;text-transform:none;writing-mode:lr-tb;direction:ltr;text-orientation:mixed;dominant-baseline:auto;baseline-shift:baseline;white-space:normal;opacity:1;vector-effect:none;fill:#0c5973;fill-opacity:1;stroke:none;stroke-width:1.462;stroke-linecap:butt;stroke-linejoin:miter;stroke-miterlimit:4;stroke-dasharray:none;stroke-dashoffset:0;stroke-opacity:1;-inkscape-stroke:none"
       x="204.39912"
       y="240.60391"
       id="text4"><tspan
         sodipodi:role="line"
         style="font-style:normal;font-variant:normal;font-weight:normal;font-stretch:normal;font-size:5.64444px;line-height:1.5;font-family:Lato;-inkscape-font-specification:Lato;text-align:end;text-anchor:end;stroke-width:1.462"
         x="204.39912"
         y="240.60391"
         id="tspan22">University of Washington</tspan><tspan
         sodipodi:role="line"
         style="font-style:normal;font-variant:normal;font-weight:normal;font-stretch:normal;font-size:5.64444px;line-height:1.5;font-family:Lato;-inkscape-font-specification:Lato;text-align:end;text-anchor:end;stroke-width:1.462"
         x="204.39912"
         y="249.1129"
         id="tspan23">Husky Union Building (HUB)</tspan><tspan
         sodipodi:role="line"
         style="font-style:normal;font-variant:normal;font-weight:normal;font-stretch:normal;font-size:5.64444px;line-height:1.5;font-family:Lato;-inkscape-font-specification:Lato;text-align:end;letter-spacing:-0.0264583px;word-spacing:-0.0264583px;text-anchor:end;stroke-width:1.462"
         x="204.37267"
         y="257.62189"
         id="tspan24">4001 E Stevens Way NE, Seattle, WA</tspan></text><g
       id="g68"
       transform="translate(0,3.0202576)"><text
         xml:space="preserve"
         style="font-style:normal;font-variant:normal;font-weight:normal;font-stretch:normal;font-size:6.35px;line-height:1.5;font-family:Lato;-inkscape-font-specification:Lato;font-variant-ligatures:normal;font-variant-position:normal;font-variant-caps:normal;font-variant-numeric:normal;font-variant-alternates:normal;font-variant-east-asian:normal;font-feature-settings:normal;text-indent:0;text-align:center;text-decoration-line:none;text-decoration-style:solid;text-decoration-color:#000000;letter-spacing:normal;word-spacing:normal;text-transform:none;writing-mode:lr-tb;direction:ltr;text-orientation:mixed;dominant-baseline:auto;baseline-shift:baseline;white-space:normal;opacity:1;vector-effect:none;fill:#0c5973;fill-opacity:1;stroke:none;stroke-width:1.462;stroke-linecap:butt;stroke-linejoin:miter;stroke-miterlimit:4;stroke-dasharray:none;stroke-dashoffset:0;stroke-opacity:1;-inkscape-stroke:none"
         x="21.510908"
         y="144.55591"
         id="text10"><tspan
           sodipodi:role="line"
           style="font-weight:bold;font-size:6.35px;line-height:1.5;stroke-width:1.462"
           x="21.510908"
           y="144.55591"
           id="tspan19"><tspan
   style="font-size:8.46667px;line-height:1.5;fill:#b1742a;fill-opacity:1"
   id="tspan66">✔</tspan> <tspan
   style="font-weight:bold;font-size:6.35px;line-height:1.5;fill:#000000"
   id="tspan38">Systems and Platforms</tspan></tspan><tspan
           sodipodi:role="line"
           style="font-weight:bold;font-size:6.35px;line-height:1.5;stroke-width:1.462"
           x="21.510908"
           y="157.25592"
           id="tspan11"><tspan
   style="font-size:8.46667px;line-height:1.5;fill:#b1742a;fill-opacity:1"
   id="tspan65">✔</tspan> <tspan
   style="font-weight:bold;font-size:6.35px;line-height:1.5;fill:#000000"
   id="tspan39">Open Source Careers</tspan></tspan><tspan
           sodipodi:role="line"
           style="font-weight:bold;font-size:6.35px;line-height:1.5;stroke-width:1.462"
           x="21.510908"
           y="169.95592"
           id="tspan36"><tspan
   style="font-size:8.46667px;line-height:1.5;fill:#b1742a;fill-opacity:1"
   id="tspan64">✔</tspan> <tspan
   style="font-weight:bold;font-size:6.35px;line-height:1.5;fill:#000000"
   id="tspan40">Community and Culture</tspan></tspan><tspan
           sodipodi:role="line"
           style="font-weight:bold;font-size:6.35px;line-height:1.5;fill:#000000;stroke-width:1.462"
           x="21.510908"
           y="182.65593"
           id="tspan12"><tspan
   style="font-size:8.46667px;line-height:1.5;fill:#b1742a;fill-opacity:1"
   id="tspan63">✔</tspan> Machine Learning and Big Data</tspan><tspan
           sodipodi:role="line"
           style="font-size:6.35px;line-height:1.5;fill:#000000;stroke-width:1.462"
           x="21.510908"
           y="195.35593"
           id="tspan13"><tspan
   style="font-size:8.46667px;line-height:1.5;fill:#b1742a;fill-opacity:1"
   id="tspan62">✔</tspan> <tspan
   style="font-weight:bold;font-size:6.35px;line-height:1.5;fill:#000000;fill-opacity:1"
   id="tspan42">Secuirty and Privacy</tspan></tspan></text><text
         xml:space="preserve"
         style="font-style:normal;font-variant:normal;font-weight:normal;font-stretch:normal;font-size:6.35px;line-height:1.5;font-family:Lato;-inkscape-font-specification:Lato;font-variant-ligatures:normal;font-variant-position:normal;font-variant-caps:normal;font-variant-numeric:normal;font-variant-alternates:normal;font-variant-east-asian:normal;font-feature-settings:normal;text-indent:0;text-align:center;text-decoration-line:none;text-decoration-style:solid;text-decoration-color:#000000;letter-spacing:normal;word-spacing:normal;text-transform:none;writing-mode:lr-tb;direction:ltr;text-orientation:mixed;dominant-baseline:auto;baseline-shift:baseline;white-space:normal;opacity:1;vector-effect:none;fill:#0c5973;fill-opacity:1;stroke:none;stroke-width:1.462;stroke-linecap:butt;stroke-linejoin:miter;stroke-miterlimit:4;stroke-dasharray:none;stroke-dashoffset:0;stroke-opacity:1;-inkscape-stroke:none"
         x="127.22844"
         y="145.06232"
         id="text14"><tspan
           sodipodi:role="line"
           id="tspan14"
           style="font-weight:bold;font-size:6.35px;line-height:1.5;fill:#000000;stroke-width:1.462"
           x="127.22844"
           y="145.06232"><tspan
   style="font-size:8.46667px;line-height:1.5"
   id="tspan59"><tspan
   style="line-height:1.5;fill:#b1742a;fill-opacity:1"
   id="tspan61">✔</tspan> </tspan>Education</tspan><tspan
           sodipodi:role="line"
           style="font-size:6.35px;line-height:1.5;fill:#000000;stroke-width:1.462"
           x="127.22844"
           y="157.76233"
           id="tspan15"><tspan
             style="font-size:8.46667px;line-height:1.5;fill:#b1742a;fill-opacity:1"
             id="tspan56">✔ </tspan><tspan
             style="font-weight:bold;font-size:6.35px;line-height:1.5;fill:#000000"
             id="tspan44">Hardware</tspan></tspan><tspan
           sodipodi:role="line"
           style="font-weight:bold;font-size:6.35px;line-height:1.5;fill:#000000;stroke-width:1.462"
           x="127.22844"
           y="170.46233"
           id="tspan16"><tspan
   style="font-size:8.46667px;line-height:1.5;fill:#b1742a;fill-opacity:1"
   id="tspan57">✔</tspan> Languages and Tools</tspan><tspan
           sodipodi:role="line"
           style="font-weight:bold;font-size:6.35px;line-height:1.5;fill:#000000;stroke-width:1.462"
           x="127.22844"
           y="183.16234"
           id="tspan18"><tspan
   style="font-size:8.46667px;line-height:1.5;fill:#b1742a;fill-opacity:1"
   id="tspan58">✔</tspan> Performance Art</tspan><tspan
           sodipodi:role="line"
           style="font-weight:bold;font-size:6.35px;line-height:1.5;fill:#000000;stroke-width:1.462"
           x="127.22844"
           y="195.86234"
           id="tspan37"><tspan
   style="font-size:8.46667px;line-height:1.5;fill:#b1742a;fill-opacity:1"
   id="tspan60">✔</tspan> ... and more!</tspan></text></g></g></svg>
